<svg width="102" height="102" viewBox="0 0 102 102" fill="none" xmlns="http://www.w3.org/2000/svg">
<rect width="102" height="102" rx="32" fill="#F4B63F"/>
<g clip-path="url(#clip0_8769_19139)">
<path d="M87.5914 46.2245C87.5914 47.0223 87.5914 47.8202 87.5577 48.6786C86.948 53.3915 84.4056 56.5432 80.2411 58.4151C80.3442 59.2929 80.5057 60.1688 80.5369 61.0492C80.5857 62.4278 80.647 63.819 80.5183 65.1874C80.3644 66.8241 79.9596 68.4243 79.364 69.9724C78.3548 72.5957 76.9225 74.9599 75.0438 77.0322C73.3653 78.8838 71.4825 80.5053 69.3626 81.8526C67.2691 83.1831 65.0598 84.2537 62.7265 85.0707C60.7661 85.7571 58.7642 86.294 56.6979 86.5403C55.2071 86.718 53.7136 86.9017 52.216 86.9824C51.1141 87.0418 50.0027 86.9557 48.8971 86.9025C48.1625 86.8672 47.4305 86.7756 46.6788 86.6857C46.5881 86.6063 46.5171 86.5491 46.444 86.4947C44.906 85.3494 43.3592 84.2157 41.8367 83.0501C41.5198 82.8075 41.2925 82.4468 41.0571 82.1431C45.5766 84.274 50.2708 84.9228 55.1521 84.0552C59.9193 83.2079 64.0367 81.1076 67.2562 77.4178C69.7495 74.5603 71.125 71.2301 71.2158 67.403C71.2549 65.7535 70.7311 64.2167 70.2869 62.6591C70.0751 61.9167 69.9015 61.1409 69.8703 60.3737C69.8063 58.7994 70.3923 57.4081 71.1755 56.0548C73.2307 52.5036 73.3581 48.8317 71.4348 45.2096C68.3156 39.3351 60.8001 37.1805 54.8692 40.4099C52.3239 41.7958 49.8432 41.8011 47.3049 40.4076C44.769 39.0155 42.0487 38.6556 39.2067 39.1318C37.8094 39.366 36.5153 39.8827 35.2676 40.4956C35.7845 37.7864 36.7113 35.251 37.8456 32.7917C39.2237 29.804 40.854 26.9584 42.788 24.2957C44.691 21.6758 46.7015 19.1469 49.2394 17.1032C49.8842 16.584 50.5313 16.014 51.4492 16.0438C51.6321 16.7743 51.809 17.4683 51.9824 18.1632C52.1554 18.8564 52.1539 18.855 52.8494 18.858C53.1247 18.8591 53.4528 18.971 53.6657 18.8585C54.4569 18.4405 55.2101 17.9499 55.9778 17.487C56.7021 17.0503 57.4268 16.6144 58.1843 16.1583C58.2323 16.7759 58.2932 17.3289 58.3134 17.8834C58.335 18.4793 58.3025 19.0774 58.3307 19.6728C58.337 19.8042 58.4711 19.9885 58.5941 20.0464C60.079 20.7454 61.6022 21.3685 63.0578 22.1233C65.2966 23.2841 67.2453 24.8687 69.0764 26.5912C70.5871 28.0124 71.9235 29.5956 73.1204 31.2907C74.4714 33.204 75.6501 35.2183 76.5268 37.4003C76.7862 38.046 77.0486 38.6905 77.3103 39.3373C79.4945 38.2483 81.5682 38.3965 83.3897 39.3105C85.6336 40.4365 86.7312 42.4442 87.3132 44.7933C87.4299 45.2644 87.4999 45.7471 87.5914 46.2245ZM82.8638 53.9211C85.0845 51.3111 85.7252 48.3433 84.7427 45.0681C84.1682 43.1533 82.9951 41.7232 81.0048 41.1251C79.9445 40.8065 78.8878 40.783 77.8362 41.2237C77.8748 41.4025 77.9026 41.5521 77.9394 41.6995C78.4227 43.6321 78.72 45.5931 78.7091 47.5866C78.6983 49.5613 78.7738 51.5271 79.0848 53.4784C79.2302 54.3908 79.4107 55.2975 79.5836 56.2526C80.9275 55.7668 81.9296 54.9482 82.8638 53.9211Z" fill="#A16552"/>
<path d="M46.6783 86.6857C45.8404 86.5896 44.9678 86.537 44.1306 86.336C42.5727 85.9621 41.0159 85.5616 39.4939 85.0635C37.1228 84.2875 34.9056 83.1759 32.7939 81.8299C30.6774 80.481 28.7953 78.8638 27.121 77.0128C25.2496 74.944 23.8155 72.587 22.8195 69.9654C22.2272 68.4062 21.8056 66.7981 21.6605 65.1477C21.5401 63.7786 21.5979 62.3892 21.6474 61.0113C21.6784 60.1469 21.8398 59.2872 21.9436 58.4178C17.7845 56.5459 15.2263 53.401 14.6253 48.7209C14.591 47.9063 14.591 47.1084 14.6255 46.2504C14.7682 44.5587 15.2858 43.0577 16.161 41.6912C17.3158 39.888 19.0014 38.8709 21.1002 38.6188C22.3989 38.4628 23.6742 38.6803 24.8549 39.3558C24.9092 39.2636 24.9673 39.1949 24.9937 39.1156C25.63 37.2079 26.4982 35.4078 27.5133 33.6783C28.7878 31.5069 30.2874 29.4974 32.028 27.686C32.9803 26.6949 34.0278 25.7916 35.0717 24.8948C36.4813 23.6837 38.0167 22.6391 39.6749 21.8061C40.9506 21.1652 42.2821 20.6362 43.5869 20.0531C43.6872 20.0083 43.7991 19.9487 43.8601 19.8633C44.26 19.3037 44.6207 18.7141 45.0441 18.1737C45.9789 16.9806 47.1296 16.0579 48.574 15.5578C49.1263 15.3666 49.7024 15.2451 50.2677 15.0919C50.5752 15.0919 50.8827 15.0919 51.2321 15.1292C51.3298 15.4469 51.3855 15.7274 51.4413 16.0078C50.5309 16.014 49.8838 16.584 49.239 17.1032C46.7011 19.147 44.6905 21.6758 42.7876 24.2957C40.8536 26.9584 39.2233 29.804 37.8452 32.7917C36.7108 35.2511 35.7841 37.7864 35.2538 40.5167C35.2044 40.6103 35.169 40.6451 35.1033 40.6878C31.5453 42.8544 29.6236 46.001 29.4365 50.1454C29.3399 52.2859 29.9014 54.3011 31.041 56.1246C32.3915 58.2856 32.6944 60.5369 31.8165 62.9601C31.0179 65.1646 30.7315 67.4248 31.1902 69.7657C32.0581 74.1954 34.4473 77.6165 38.0176 80.2572C38.7348 80.7877 39.5395 81.1991 40.3255 81.6859C40.5127 81.8197 40.6783 81.933 40.8624 82.0638C40.9271 82.1005 40.9733 82.1198 41.0214 82.1372C41.0233 82.1354 41.0235 82.1406 41.0235 82.1406C41.2921 82.4469 41.5193 82.8075 41.8363 83.0501C43.3588 84.2157 44.9056 85.3494 46.4436 86.4947C46.5167 86.5491 46.5877 86.6063 46.6783 86.6857ZM19.2723 42.1507C17.576 43.6931 16.9867 45.7096 17.0018 47.9009C17.02 50.5312 18.0347 52.7785 19.9604 54.5863C20.7081 55.2881 21.527 55.8813 22.5364 56.2186C22.5812 56.1025 22.6238 56.023 22.6428 55.9381C23.1192 53.815 23.4329 51.666 23.4531 49.4903C23.4727 47.3619 23.4873 45.2389 23.9232 43.1444C24.056 42.5065 24.1986 41.8706 24.3447 41.1967C22.4701 40.5881 20.8255 40.946 19.2723 42.1507Z" fill="#84584B"/>
<path d="M35.134 40.68C35.1694 40.6451 35.2048 40.6103 35.2535 40.5544C36.5153 39.8827 37.8094 39.366 39.2067 39.1319C42.0487 38.6556 44.769 39.0155 47.3049 40.4077C49.8432 41.8012 52.3239 41.7959 54.8692 40.4099C60.8001 37.1805 68.3156 39.3352 71.4348 45.2096C73.3581 48.8317 73.2307 52.5036 71.1755 56.0548C70.3923 57.4082 69.8063 58.7994 69.8703 60.3737C69.9015 61.1409 70.0751 61.9167 70.2869 62.6591C70.7311 64.2167 71.2549 65.7535 71.2157 67.403C71.125 71.2301 69.7495 74.5604 67.2562 77.4178C64.0367 81.1076 59.9192 83.2079 55.1521 84.0552C50.2708 84.9228 45.5766 84.274 41.0571 82.1431C41.0239 82.1406 41.0237 82.1354 41.0059 82.1164C40.9402 82.0804 40.8923 82.0633 40.8443 82.0463C40.6787 81.933 40.5131 81.8197 40.3187 81.6557C40.1301 81.4215 39.9741 81.2344 39.8098 81.0551C37.8988 78.9687 36.2457 76.7085 35.1624 74.0686C33.6175 70.3037 33.1272 66.3344 32.9908 62.3125C32.8845 59.1772 32.9506 56.038 33.3388 52.9208C33.7203 49.8576 34.1684 46.8027 34.6057 43.7469C34.7526 42.7203 34.9563 41.702 35.134 40.68ZM64.9031 51.4704C64.9037 51.1952 64.9048 50.92 64.9047 50.6447C64.9044 48.7373 63.3329 47.245 61.3479 47.3287C59.6037 47.3576 58.2293 48.5634 58.0064 50.287C57.9539 50.6935 57.9675 51.1099 57.9686 51.5218C57.9735 53.403 59.2491 54.8072 61.1079 54.9858C63.2169 55.1884 64.9943 53.5763 64.9031 51.4704ZM40.6715 47.3296C38.998 47.3456 37.5892 48.4571 37.3378 50.0743C37.2269 50.7869 37.2288 51.5478 37.3453 52.2594C37.6279 53.9845 39.2074 55.1218 41.0038 54.9934C42.8009 54.8648 44.0926 53.5491 44.2195 51.6519C44.2228 51.2865 44.2358 50.921 44.2276 50.5559C44.1866 48.7287 42.5769 47.2434 40.6715 47.3296ZM44.4673 77.7985C47.3403 79.5918 50.4445 80.0782 53.7375 79.4146C55.1765 79.1247 56.5357 78.6108 57.8078 77.7247C60.3277 76.0492 61.9656 73.776 62.4951 70.752C62.6464 69.888 62.1497 69.2635 61.2792 69.263C54.4815 69.2585 47.6839 69.2583 40.8862 69.2634C40.0416 69.2641 39.5375 69.887 39.6846 70.7263C40.2199 73.7814 41.8609 76.0859 44.4673 77.7985ZM47.7318 62.4924C48.0766 62.6505 48.4162 62.8218 48.7675 62.9637C49.3381 63.194 49.8825 62.9797 50.099 62.4588C50.3099 61.9515 50.1032 61.427 49.5672 61.1718C48.8547 60.8325 48.1378 60.5021 47.4153 60.1851C46.8471 59.9359 46.2991 60.1329 46.0654 60.6434C45.8304 61.1566 46.0397 61.698 46.5923 61.9722C46.9456 62.1475 47.3081 62.3042 47.7318 62.4924ZM56.115 61.4773C56.2992 61.0326 56.2264 60.6355 55.8672 60.3154C55.5192 60.0053 55.1231 60.0155 54.719 60.2003C54.0567 60.5031 53.3945 60.8059 52.7343 61.113C52.1041 61.4061 51.8559 61.9292 52.0863 62.465C52.3257 63.0216 52.905 63.2025 53.5501 62.9125C54.214 62.6141 54.8808 62.3205 55.5319 61.9956C55.7397 61.892 55.9015 61.6952 56.115 61.4773Z" fill="#F5DCB4"/>
<path d="M82.8418 53.9453C81.9294 54.9483 80.9273 55.7668 79.5833 56.2527C79.4104 55.2975 79.2299 54.3908 79.0845 53.4784C78.7735 51.5272 78.6981 49.5613 78.7088 47.5866C78.7197 45.5931 78.4225 43.6321 77.9392 41.6995C77.9023 41.5521 77.8745 41.4025 77.8359 41.2237C78.8876 40.783 79.9443 40.8065 81.0046 41.1251C82.9948 41.7232 84.1679 43.1533 84.7424 45.0681C85.7249 48.3433 85.0843 51.3111 82.8418 53.9453Z" fill="#F5DCB4"/>
<path d="M35.1042 40.6877C34.9568 41.702 34.7531 42.7203 34.6062 43.7468C34.1689 46.8027 33.7208 49.8576 33.3393 52.9207C32.9511 56.0379 32.885 59.1771 32.9913 62.3124C33.1277 66.3344 33.618 70.3037 35.1629 74.0685C36.2462 76.7085 37.8993 78.9686 39.8103 81.055C39.9746 81.2344 40.1305 81.4215 40.2976 81.6352C39.5404 81.1991 38.7357 80.7877 38.0185 80.2572C34.4482 77.6164 32.059 74.1954 31.1911 69.7656C30.7324 67.4248 31.0188 65.1646 31.8174 62.9601C32.6953 60.5369 32.3924 58.2856 31.0419 56.1246C29.9023 54.301 29.3408 52.2859 29.4374 50.1454C29.6245 46.0009 31.5462 42.8544 35.1042 40.6877Z" fill="#BBA58B"/>
<path d="M19.2982 42.1303C20.8259 40.946 22.4706 40.588 24.3451 41.1967C24.199 41.8706 24.0564 42.5064 23.9237 43.1444C23.4877 45.2389 23.4732 47.3619 23.4535 49.4903C23.4333 51.6659 23.1196 53.815 22.6432 55.9381C22.6242 56.023 22.5816 56.1025 22.5369 56.2185C21.5274 55.8813 20.7085 55.2881 19.9609 54.5863C18.0351 52.7785 17.0204 50.5312 17.0022 47.9009C16.9871 45.7096 17.5764 43.693 19.2982 42.1303Z" fill="#BBA58B"/>
<path d="M40.8633 82.0637C40.8927 82.0633 40.9407 82.0805 41.0045 82.1187C40.9742 82.1203 40.928 82.1008 40.8633 82.0637Z" fill="#A16552"/>
<path d="M44.4356 77.7528C41.8609 76.0859 40.2199 73.7814 39.6846 70.7263C39.5375 69.8869 40.0416 69.264 40.8862 69.2634C47.6839 69.2583 54.4816 69.2585 61.2792 69.2629C62.1497 69.2635 62.6464 69.888 62.4951 70.752C61.9656 73.7759 60.3277 76.0491 57.7636 77.7081C57.3589 76.4438 56.5326 75.7266 55.2572 75.5438C54.8361 75.4835 54.4074 75.4459 53.9824 75.4479C52.6572 75.4543 51.3321 75.4905 50.0068 75.5036C49.1093 75.5124 48.2102 75.4684 47.3144 75.5075C45.8421 75.5718 44.8558 76.3073 44.4356 77.7528Z" fill="#4E3F3F"/>
<path d="M44.4512 77.7756C44.8555 76.3073 45.8419 75.5718 47.3141 75.5075C48.2099 75.4684 49.109 75.5124 50.0065 75.5036C51.3318 75.4905 52.6569 75.4543 53.9822 75.448C54.4071 75.4459 54.8358 75.4835 55.257 75.5438C56.5324 75.7266 57.3586 76.4438 57.733 77.7221C56.5354 78.6107 55.1763 79.1246 53.7373 79.4146C50.4443 80.0782 47.3401 79.5918 44.4512 77.7756Z" fill="#E5646E"/>
<path d="M44.2014 51.736C44.0922 53.5492 42.8005 54.8648 41.0034 54.9934C39.207 55.1218 37.6275 53.9845 37.345 52.2594C37.2284 51.5478 37.2266 50.7869 37.3374 50.0743C37.5888 48.4571 38.9976 47.3456 40.7112 47.3766C40.751 47.7462 40.7507 48.0688 40.7156 48.4023C39.792 48.556 39.3287 49.2822 39.6829 49.9948C39.8993 50.4301 40.2938 50.5973 40.7514 50.6899C40.7519 50.8067 40.7523 50.8826 40.7526 50.9586C40.7558 51.9362 41.1087 52.4611 41.9382 52.7222C42.741 52.9749 43.4606 52.7042 43.9842 51.9589C44.0431 51.875 44.1284 51.8099 44.2014 51.736Z" fill="#4F4040"/>
<path d="M64.8891 51.5561C64.9939 53.5763 63.2165 55.1884 61.1075 54.9858C59.2488 54.8073 57.9731 53.403 57.9682 51.5218C57.9671 51.1099 57.9535 50.6935 58.0061 50.287C58.2289 48.5634 59.6033 47.3576 61.3873 47.3758C61.4264 47.7461 61.4257 48.0694 61.3907 48.4042C60.4276 48.5782 59.9562 49.4308 60.479 50.1016C60.6868 50.3684 61.104 50.4709 61.4265 50.6887C61.351 51.5433 61.6017 52.2027 62.3452 52.6057C63.3259 53.1372 64.325 52.7193 64.8891 51.5561Z" fill="#504140"/>
<path d="M64.8967 51.5133C64.3259 52.7192 63.3267 53.1372 62.3461 52.6057C61.6026 52.2027 61.3518 51.5433 61.4626 50.6815C61.9985 50.5705 62.3895 50.3559 62.5524 49.8414C62.6839 49.426 62.6071 49.0278 62.2751 48.7654C62.0402 48.5798 61.7122 48.5127 61.4258 48.3927C61.4265 48.0694 61.4273 47.7461 61.4273 47.382C63.3334 47.245 64.9048 48.7373 64.9052 50.6447C64.9052 50.92 64.9041 51.1952 64.8967 51.5133Z" fill="#5E5460"/>
<path d="M40.751 48.3913C40.7513 48.0687 40.7516 47.7462 40.7515 47.3829C42.5771 47.2434 44.1868 48.7287 44.2278 50.5559C44.236 50.921 44.223 51.2865 44.2108 51.6939C44.1289 51.8098 44.0437 51.875 43.9848 51.9588C43.4612 52.7042 42.7416 52.9749 41.9387 52.7222C41.1093 52.4611 40.7564 51.9361 40.7531 50.9585C40.7529 50.8826 40.7525 50.8066 40.7867 50.6818C41.6535 50.4525 42.0669 49.8816 41.8487 49.194C41.6805 48.6637 41.2609 48.4606 40.751 48.3913Z" fill="#5E5460"/>
<path d="M47.6996 62.4808C47.3086 62.3042 46.9461 62.1475 46.5927 61.9722C46.0402 61.6979 45.8309 61.1565 46.0659 60.6434C46.2996 60.1329 46.8476 59.9359 47.4158 60.1851C48.1383 60.5021 48.8552 60.8325 49.5676 61.1718C50.1036 61.427 50.3104 61.9515 50.0995 62.4588C49.8829 62.9797 49.3386 63.194 48.768 62.9637C48.4167 62.8218 48.0771 62.6505 47.6996 62.4808Z" fill="#514141"/>
<path d="M56.0999 61.5091C55.9017 61.6951 55.7399 61.8919 55.5321 61.9956C54.881 62.3205 54.2142 62.614 53.5503 62.9125C52.9052 63.2025 52.326 63.0216 52.0866 62.465C51.8561 61.9292 52.1043 61.406 52.7345 61.113C53.3947 60.8059 54.057 60.503 54.7192 60.2003C55.1233 60.0155 55.5195 60.0053 55.8674 60.3154C56.2266 60.6355 56.2994 61.0326 56.0999 61.5091Z" fill="#514141"/>
<path d="M40.7162 48.4023C41.2609 48.4605 41.6805 48.6637 41.8487 49.1939C42.0669 49.8816 41.6535 50.4525 40.7864 50.641C40.2944 50.5972 39.8998 50.43 39.6835 49.9947C39.3293 49.2822 39.7926 48.5559 40.7162 48.4023Z" fill="#FBFBFB"/>
<path d="M61.3908 48.4041C61.7115 48.5127 62.0394 48.5797 62.2744 48.7654C62.6064 49.0277 62.6832 49.426 62.5516 49.8414C62.3887 50.3559 61.9978 50.5704 61.4611 50.641C61.104 50.4708 60.6869 50.3684 60.4791 50.1016C59.9563 49.4307 60.4277 48.5781 61.3908 48.4041Z" fill="#FBFBFB"/>
</g>
<defs>
<clipPath id="clip0_8769_19139">
<rect width="73" height="72" fill="white" transform="translate(14.5 15)"/>
</clipPath>
</defs>
</svg>
