<svg width="96" height="96" viewBox="0 0 96 96" fill="none" xmlns="http://www.w3.org/2000/svg">
<rect width="96" height="96" rx="32" fill="#CAD7FD"/>
<path fill-rule="evenodd" clip-rule="evenodd" d="M44.8566 28.5536L42.5872 26.1183C46.0035 25.6731 55.0173 26.244 63.7432 32.0886C63.8567 32.8959 63.8323 33.7006 63.8323 33.7006L64.0604 33.8255C64.4772 34.3894 64.9559 35.4487 65.2415 36.7603C65.5262 38.0683 65.6058 39.568 65.2765 40.9962C64.9435 42.4405 64.311 43.6338 63.6914 44.5067C63.0572 45.4001 62.4762 45.9042 62.2922 46.0129L62.2339 46.0474C61.1566 46.2455 59.6686 47.0243 59.0641 48.9844C57.2953 50.0702 54.3067 51.2593 50.2439 51.2593C46.6432 51.2593 42.9776 50.2319 40.2296 48.2531C37.4983 46.2863 35.6714 43.3837 35.6714 39.5589C35.6714 36.5249 37.0508 34.1517 38.813 32.3981C40.5891 30.6307 43.0176 29.201 44.408 28.7317L44.7524 28.6155L44.7319 28.5982L44.8566 28.5536ZM59.875 33.3256C59.1881 34.0829 58.5458 34.4462 58.3624 34.5448C54.3508 33.6417 52.9056 31.4453 52.9056 31.4453C56.6895 31.4206 60.1047 32.3731 62.6033 33.9844C62.6033 33.9844 61.2507 33.5205 59.875 33.3256Z" fill="#3164FA"/>
<path d="M40.899 29.259C32.4012 31.2592 26 38.9279 26 48.1529C26 60.1154 36.2552 69.9998 48.9057 69.9998C58.3522 69.9998 66.2153 64.305 70.3268 56.6856C64.9784 57.9363 58.6152 55.7885 58.3007 51.0435C58.3104 51.0065 58.32 50.9691 58.3296 50.9313C56.3336 51.9329 53.4855 52.8099 49.8916 52.8099C46.0667 52.8099 42.1252 51.7225 39.1226 49.5599C36.1037 47.3853 34.0365 44.1201 34.0365 39.8384C34.0365 36.3872 35.6153 33.7086 37.5509 31.782L37.5516 31.7813C38.4544 30.8912 39.6215 30.042 40.6943 29.3831C40.7629 29.341 40.8311 29.2996 40.899 29.259Z" fill="#3164FA"/>
<path d="M63.8794 46.4702C64.3032 46.6239 64.5623 46.8257 64.6979 46.9531C65.0236 47.2589 65.8381 48.1766 64.8608 49.6296C66.8967 49.3237 70.0769 47.4883 70.3172 42.8235C70.477 39.7225 68.6473 37.4596 66.2334 35.7777C66.3791 36.1671 66.5078 36.5832 66.6129 37.0167C66.9534 38.4226 67.0596 40.0718 66.647 41.6801C66.2386 43.2725 65.4654 44.5813 64.7105 45.5374C64.4308 45.8916 64.1475 46.2049 63.8794 46.4702Z" fill="#3164FA"/>
</svg>
