<?xml version="1.0" encoding="utf-8"?>
<!-- Generator: Adobe Illustrator 26.0.1, SVG Export Plug-In . SVG Version: 6.00 Build 0)  -->
<svg version="1.1" id="Layer_1" xmlns="http://www.w3.org/2000/svg" xmlns:xlink="http://www.w3.org/1999/xlink" x="0px" y="0px"
	 viewBox="0 0 102 102" style="enable-background:new 0 0 102 102;" xml:space="preserve">
<style type="text/css">
	.st0{fill:#FFC6E1;}
	.st1{clip-path:url(#SVGID_00000099640075357678223670000000223444214940469686_);}
	.st2{fill:#FF007A;}
	.st3{fill-rule:evenodd;clip-rule:evenodd;fill:#FF007A;}
</style>
<path class="st0" d="M32,0h38c17.7,0,32,14.3,32,32v38c0,17.7-14.3,32-32,32H32C14.3,102,0,87.7,0,70V32C0,14.3,14.3,0,32,0z"/>
<g>
	<defs>
		<rect id="SVGID_1_" x="16.5" y="11" width="69" height="80"/>
	</defs>
	<clipPath id="SVGID_00000167357318337946698550000009771704929872191389_">
		<use xlink:href="#SVGID_1_"  style="overflow:visible;"/>
	</clipPath>
	<g style="clip-path:url(#SVGID_00000167357318337946698550000009771704929872191389_);">
		<path class="st2" d="M43.6,29.2c-0.9-0.1-0.9-0.2-0.5-0.2c0.8-0.1,2.6,0,3.9,0.3c3,0.7,5.6,2.5,8.4,5.7l0.7,0.9l1.1-0.2
			c4.6-0.7,9.2-0.2,13.1,1.7c1.1,0.5,2.7,1.5,3,1.7c0.1,0.1,0.2,0.6,0.3,1.2c0.3,1.9,0.2,3.4-0.5,4.5c-0.3,0.6-0.3,0.8-0.1,1.3
			c0.2,0.4,0.7,0.7,1.1,0.7c1,0,2-1.6,2.5-3.8l0.2-0.9l0.4,0.4c2.1,2.4,3.7,5.6,4,7.9l0.1,0.6l-0.4-0.5c-0.6-0.9-1.2-1.6-2-2.1
			c-1.4-0.9-2.9-1.2-6.8-1.4c-3.5-0.2-5.5-0.5-7.5-1.2c-3.4-1.1-5.1-2.6-9.1-7.9c-1.8-2.4-2.9-3.6-4-4.7
			C49.1,30.9,46.7,29.7,43.6,29.2z"/>
		<path class="st2" d="M74.1,34.4c0.1-1.6,0.3-2.6,0.7-3.6c0.2-0.4,0.3-0.7,0.4-0.7c0,0,0,0.3-0.2,0.6c-0.3,0.9-0.4,2.2-0.2,3.6
			c0.3,1.9,0.4,2.1,2.4,4.1c0.9,0.9,2,2.1,2.4,2.6l0.7,0.9l-0.7-0.7c-0.9-0.8-2.8-2.4-3.3-2.6c-0.3-0.2-0.3-0.2-0.5,0
			c-0.2,0.2-0.2,0.4-0.2,1.6c0,1.9-0.3,3-0.9,4.2c-0.3,0.6-0.4,0.5-0.1-0.2c0.2-0.5,0.2-0.8,0.2-2.6c0-3.6-0.4-4.5-2.9-5.9
			c-0.6-0.4-1.7-0.9-2.3-1.2c-0.7-0.3-1.1-0.5-1.1-0.5c0.1-0.1,2.5,0.6,3.4,1c1.4,0.6,1.7,0.6,1.8,0.6C74,35.8,74.1,35.5,74.1,34.4z
			"/>
		<path class="st2" d="M45.2,40.6c-1.7-2.4-2.8-6.1-2.6-8.9l0.1-0.9l0.4,0.1c0.7,0.1,2,0.6,2.6,1c1.6,1,2.4,2.4,3.1,5.7
			c0.2,1,0.5,2.1,0.6,2.5c0.2,0.6,1,2.1,1.6,3c0.5,0.7,0.2,1-0.9,0.9C48.7,43.9,46.6,42.5,45.2,40.6z"/>
		<path class="st2" d="M72,58.6c-8.1-3.3-11-6.2-11-11c0-0.7,0-1.3,0-1.3c0,0,0.3,0.2,0.7,0.5c1.6,1.3,3.5,1.9,8.6,2.6
			c3,0.5,4.7,0.8,6.3,1.3c5,1.7,8,5,8.8,9.6c0.2,1.3,0.1,3.8-0.2,5.2c-0.3,1-1.1,2.9-1.3,3c0,0-0.1-0.2-0.1-0.5
			c-0.1-1.7-0.9-3.4-2.4-4.7C79.6,61.9,77.4,60.7,72,58.6z"/>
		<path class="st2" d="M66.3,59.9c-0.1-0.6-0.3-1.4-0.4-1.7l-0.2-0.6L66,58c0.5,0.6,0.9,1.4,1.3,2.4c0.3,0.8,0.3,1,0.3,2.3
			c0,1.2,0,1.5-0.3,2.2c-0.4,1.1-0.9,1.9-1.7,2.8c-1.5,1.5-3.4,2.4-6.1,2.7c-0.5,0-1.9,0.2-3.1,0.2c-3.1,0.2-5.1,0.5-7,1.2
			c-0.2,0.1-0.5,0.2-0.5,0.1c-0.1-0.1,1.2-0.8,2.2-1.3c1.4-0.7,2.9-1.1,6.1-1.7c1.6-0.2,3.2-0.6,3.6-0.7
			C64.9,67,66.9,63.8,66.3,59.9z"/>
		<path class="st2" d="M70,66.6c-1.1-2.4-1.3-4.6-0.7-6.7c0.1-0.2,0.2-0.4,0.2-0.4c0.1,0,0.3,0.1,0.6,0.3c0.5,0.3,1.5,0.9,4.1,2.4
			c3.3,1.8,5.2,3.2,6.5,4.8c1.1,1.4,1.8,3,2.2,5c0.2,1.1,0.1,3.8-0.2,4.9c-0.9,3.5-3,6.3-5.9,7.9c-0.5,0.2-0.8,0.4-0.9,0.4
			s0.1-0.4,0.4-0.9c1-2.1,1.1-4.1,0.4-6.4c-0.5-1.4-1.4-3.1-3.3-5.9C71.1,68.6,70.6,67.8,70,66.6z"/>
		<path class="st2" d="M39.5,79.2c3-2.6,6.8-4.4,10.2-5c1.5-0.2,3.9-0.2,5.3,0.2c2.2,0.6,4.1,1.8,5.2,3.3c1,1.5,1.4,2.8,1.9,5.6
			c0.2,1.1,0.4,2.3,0.4,2.5c0.3,1.5,1,2.6,1.8,3.3c1.3,0.9,3.5,1,5.7,0.2c0.4-0.1,0.7-0.2,0.7-0.2c0.1,0.1-1,0.8-1.8,1.2
			c-1,0.5-1.8,0.7-3,0.7c-2,0-3.6-1-5-3.1c-0.3-0.4-0.9-1.6-1.4-2.7c-1.4-3.3-2.2-4.3-3.9-5.4c-1.5-0.9-3.4-1.2-4.8-0.5
			c-1.9,0.9-2.4,3.3-1.1,4.8c0.5,0.6,1.5,1.1,2.3,1.2c1.5,0.2,2.8-1,2.8-2.5c0-1-0.4-1.6-1.4-2c-1.3-0.6-2.7,0.1-2.7,1.4
			c0,0.5,0.2,0.9,0.8,1.1c0.3,0.2,0.3,0.2,0.1,0.1c-1.2-0.2-1.5-1.7-0.5-2.7c1.1-1.2,3.6-0.7,4.4,0.9c0.3,0.7,0.4,2,0.1,2.8
			C55,86.3,53,87.3,51,86.7c-1.4-0.4-1.9-0.7-3.6-2.4c-2.9-3-4-3.6-8.1-4.2L38.6,80L39.5,79.2z"/>
		<path class="st3" d="M17.9,12.8c9.6,11.7,24.3,29.8,25,30.8c0.6,0.8,0.4,1.6-0.7,2.2c-0.6,0.3-1.8,0.7-2.3,0.7
			c-0.7,0-1.4-0.3-2-0.9c-0.4-0.4-2-2.7-5.6-8.4c-2.7-4.3-5.1-7.9-5.1-8c-0.2-0.1-0.2-0.1,4.8,8.9c3.2,5.7,4.2,7.7,4.2,7.9
			c0,0.5-0.2,0.8-0.8,1.6c-1.1,1.2-1.6,2.6-2,5.6c-0.4,3.3-1.5,5.6-4.7,9.5c-1.8,2.3-2.1,2.7-2.6,3.7c-0.6,1.2-0.7,1.8-0.8,3.3
			c-0.1,1.6,0.1,2.6,0.5,4c0.4,1.3,0.9,2.2,2,3.9c0.9,1.5,1.5,2.6,1.5,3c0,0.3,0.1,0.3,1.6,0c3.5-0.8,6.4-2.2,8-4
			c1-1.1,1.2-1.7,1.2-3.1c0-0.9,0-1.2-0.3-1.7c-0.4-0.9-1.2-1.7-2.9-2.8c-2.2-1.5-3.2-2.8-3.4-4.4c-0.2-1.4,0-2.4,1.3-5
			c1.3-2.7,1.6-3.8,1.8-6.5c0.1-1.7,0.3-2.4,0.8-3c0.5-0.6,1-0.8,2.3-0.9c2.1-0.3,3.4-0.8,4.5-1.9c0.9-0.9,1.4-1.7,1.4-3l0-0.9
			l-0.5-0.6C43.3,40.6,16.6,11,16.5,11C16.5,11,17.1,11.8,17.9,12.8z M30.5,71.5c0.5-0.8,0.2-1.8-0.5-2.3c-0.7-0.5-1.8-0.2-1.8,0.4
			c0,0.2,0.1,0.3,0.3,0.4c0.4,0.2,0.4,0.4,0.1,0.9c-0.3,0.5-0.3,0.9,0.1,1.2C29.3,72.5,30.1,72.2,30.5,71.5z"/>
		<path class="st3" d="M47.1,49.8c-1,0.3-1.9,1.4-2.2,2.4c-0.2,0.7-0.1,1.9,0.2,2.2c0.5,0.6,0.9,0.7,2,0.7c2.3,0,4.2-1,4.4-2.2
			c0.2-1-0.7-2.4-1.8-3C49,49.7,47.7,49.6,47.1,49.8z M49.7,51.8c0.3-0.5,0.2-1-0.4-1.4c-1.1-0.7-2.8-0.1-2.8,0.9
			c0,0.5,0.9,1.1,1.7,1.1C48.7,52.5,49.5,52.2,49.7,51.8z"/>
	</g>
</g>
</svg>
