<?xml version="1.0" encoding="utf-8"?>
<!-- Generator: Adobe Illustrator 26.0.1, SVG Export Plug-In . SVG Version: 6.00 Build 0)  -->
<svg version="1.1" id="Layer_1" xmlns="http://www.w3.org/2000/svg" xmlns:xlink="http://www.w3.org/1999/xlink" x="0px" y="0px"
	 viewBox="0 0 102 102" style="enable-background:new 0 0 102 102;" xml:space="preserve">
<style type="text/css">
	.st0{fill:#E9E7E2;}
	.st1{fill:#FDD5B8;}
	.st2{fill:#DD4400;}
	.st3{fill:#FB6900;}
	.st4{fill:#FA7B0F;}
	.st5{fill:#F7810B;}
	.st6{fill:#E54600;}
	.st7{fill:#E75302;}
	.st8{fill:#FC6B01;}
	.st9{fill:#E85402;}
	.st10{fill:#FD820A;}
	.st11{fill:#E85302;}
	.st12{fill:#E95202;}
	.st13{fill:#E85303;}
	.st14{fill:#E95302;}
	.st15{fill:#EA5307;}
	.st16{fill:#E24905;}
	.st17{fill:#FE8706;}
	.st18{fill:#FE881D;}
	.st19{fill:#E75804;}
	.st20{fill:#EA5103;}
	.st21{fill:#E56316;}
	.st22{fill:#E75201;}
	.st23{fill:#F99D4E;}
	.st24{fill:#FE8A2E;}
	.st25{fill:#FA964C;}
	.st26{fill:#FC8822;}
	.st27{fill:#FD8C2E;}
	.st28{fill:#D66717;}
	.st29{fill:#DE8741;}
	.st30{fill:#D77C33;}
	.st31{fill:#E17329;}
	.st32{fill:#D96518;}
	.st33{fill:#FE8821;}
	.st34{fill:#FE841C;}
</style>
<path class="st0" d="M32,0h38c17.7,0,32,14.3,32,32v38c0,17.7-14.3,32-32,32H32C14.3,102,0,87.7,0,70V32C0,14.3,14.3,0,32,0z"/>
<g>
	<path class="st1" d="M17.3,38.4c2.3-0.1,4.6-0.1,7-0.2c0.3,0,0.5,0,0.8,0c1.7,0.1,1.7,0.1,1.7,1.8c0,0.7,0.3,1.4-0.2,2.1
		c-0.6-0.8-0.2-1.7-0.4-2.6c-0.1-0.3-0.2-0.5-0.5-0.5c-2.5,0-5-0.2-7.5,0.1c-0.3,0.3-0.2,0.6-0.2,1c0,4.9,0,9.7,0,14.6
		c0,0.2,0,0.5,0.1,0.7c0.1,0.2,0.1,0.4,0,0.6c-0.2,0-0.5,0-0.7,0C17.3,50.1,17.3,44.2,17.3,38.4z"/>
	<path class="st2" d="M58.7,64.2c1.2,0.2,2.3,0.1,3.4-0.2c0.2,0.2,2.2-1,2.3-0.7c-0.7,0.6-1.5,1.2-4.2,1.6c-0.5,0-0.9,0-1.4,0
		c-0.4-0.4-1,0-1.4-0.5C57.9,64,58.4,64.4,58.7,64.2z"/>
	<path class="st3" d="M41.9,45.2c1.3-1.7,4.9-1.5,6.3,0.5c0.6,0.8,0.7,1.8,0.7,2.8c0.1,2.4,0.1,4.9,0.1,7.3
		c-0.7-0.1-0.5-0.7-0.6-1.2c-0.1-1.5,0-3,0-4.5c0-1.1-0.1-1.2-1.2-1c-1.5,0.2-1.5,0.3-1.5,1.8c0,1.2,0,2.4,0,3.7
		c0,0.5,0.1,1-0.4,1.4c-0.4-0.5-0.2-1.2-0.2-1.7c0-1.7,0-3.4,0-5.1c0-1.2-0.5-1.9-1.5-1.9c-1.4-0.1-2.2,0.4-2.4,1.7
		c-0.1,0.3-0.2,0.7-0.2,1c-0.3,0.4-0.8,0.5-1.3,0.6c-1.8,0.3-1.8,0.3-1.8,2.1c0,0.7,0,1.4,0,2c0,0.4,0,0.8-0.4,1.2
		c-0.3-2-0.1-4.1-0.1-6.1c0-3.9,0.1-7.8,0.1-11.8c0-0.7,0.1-1,1-1c0.9,0.1,1.7-0.2,2.6,0.1c0.2,2.5,0,5,0.1,7.6
		C41.1,45,41.1,45.7,41.9,45.2z"/>
	<path class="st4" d="M18,56c-0.1-0.1-0.1-0.2-0.2-0.2c-0.3-1.3-0.1-2.7-0.1-4c0-1,0-2,0-3.1c0-0.3,0.2-0.3,0.4-0.3
		c0.7,0.5,0.9,1.3,0.7,2.1c0.2-0.6-0.1-1.4,0.5-1.9c0.4-0.3,0.9-0.2,1.3-0.3c0.4-0.1,0.8-0.4,1.2,0.1c0.3,0.5-0.3,0.7-0.4,1.1
		c0,0,0,0.1,0,0.1c0.1,2.8,0.1,2.8,2.9,2.8c2.2,0,2.2,0,2.2,2.1c0,1.5,0,1.5-1.6,1.5C22.7,56,20.4,56,18,56z"/>
	<path class="st5" d="M19.4,48.7c-0.2,0.7-0.3,1.4-0.5,2.1c-0.1-0.8-0.7-1.5-0.7-2.3c-0.9-0.9-0.6-2.1-0.4-3c0.4-1.6,0.1-3-0.2-4.5
		c-0.1-0.5,0-1,0-1.5c0.4-1.1,1.6-0.7,2.1-0.6c1.2,0.2,2.3,0.1,3.5,0.1c0.9,0,1.8,0.1,2.7-0.1c0.4-0.1,0.3,0.3,0.5,0.5
		c0,0.9,0,1.8,0,2.7c-1.1,0-2.2,0-3.3,0c-1.6,0-1.6,0-1.8,1.6c-0.6,0.7-0.4,1.2,0.2,1.8c0.1,0.1,0.1,0.2,0.1,0.3
		c-0.2,0.3-0.8,0.4-0.3,1.1c0.4,0.5-0.2,1.2-1.1,1.4c-0.7,0.1-1.2-0.1-1.3-0.9c0-0.4,0-0.8-0.1-1.1C18.9,47,19.1,47.9,19.4,48.7z"/>
	<path class="st6" d="M63.4,63.5c1.4-1.5,2.8-2.9,3.9-4.6c0.6-1,1.2-1.9,1.7-2.9c0.2-1,0.7-1.8,1-2.8c0.8-1.4,1.6-2.9,2-4.5
		c0.2-0.6,0-1.2,0.2-1.8c0.1-0.4,0.2-0.8,0.7-0.3c0.2,0.4,0.5,0.3,0.8,0.1c0.2-0.1,0.3-0.3,0.4-0.4c0.6-0.3,1.4-0.4,1.9-0.1
		c0.4,0.3-0.2,0.8-0.4,1.1c-1.4,2.7-2.8,5.4-4.1,8.1c-1.2,2.6-2.8,4.9-5,6.7c-0.8,0.6-1.6,1.3-2.6,1.4
		C63.7,63.6,63.6,63.6,63.4,63.5z"/>
	<path class="st7" d="M57.3,37.2c-0.8,1.7-1.1,3.5-1.3,5.4c-0.3,2.5-0.2,5-0.8,7.4c-0.6,2.3-1.7,4.1-3.8,5.3
		c-0.3,0.1-0.6,0.3-0.7-0.2c2.1-2,2.5-4.6,2.8-7.2c0.3-2,0.1-4,0.6-6c0.4-1.9,1.1-3.8,2.7-5.1C57.2,36.6,57.5,36.6,57.3,37.2z"/>
	<path class="st8" d="M33.7,44.3c2,0,2,0,2,2c0,0.9-0.2,1.4-1.2,1.2c-0.9-0.1-1.1,0.3-1.1,1.1c0,2.3,0.2,4.6-0.1,6.8
		c-0.6-0.2-0.4-0.6-0.5-1c-0.1-0.8,0-1.5,0-2.3c0-0.2,0.1-0.6-0.3-0.6c-0.3,0-0.5,0.2-0.5,0.5c-0.2,0.7,0,1.4-0.1,2.1
		c0,0.5,0.1,1.1-0.4,1.6c-0.2,0-0.3-0.1-0.3-0.2C31,55.2,31,54.8,31,54.4c0-4.1,0-8.2,0-12.3c0-1.4,0.2-1.6,1.6-1.5
		c0.5,0,0.8,0.2,0.7,0.7c0,0.7,0,1.4,0,2.1C33.3,43.7,33.2,44.1,33.7,44.3z"/>
	<path class="st9" d="M45.4,55.9c0-2,0-4,0-6.1c0-0.7,0.2-1.1,1-1c0.1,0,0.2,0,0.2,0c0.7-0.1,1.6-0.7,2.1-0.2
		c0.4,0.5,0.1,1.5,0.2,2.2c0,1.3,0,2.5,0,3.8c0,0.4-0.1,0.8,0.2,1.1c0,0,0,0,0,0c0.1,0.4-0.4,0.3-0.5,0.5
		C47.5,56.3,46.4,56.5,45.4,55.9z"/>
	<path class="st10" d="M33.7,44.3c-0.5,0-0.5-0.4-0.5-0.7c0-0.6,0-1.2,0-1.8c0-0.7-0.1-1.1-1-1.1c-0.9,0-0.9,0.5-0.9,1.1
		c0,4.7,0,9.3,0,14c-1.5,0.3-1.5,0.3-1.5-1.2c0-1.7,0-3.4,0-5.1c0-1.1-0.1-2-1.3-2.4c0-0.4,0-0.8,0-1.1c0.2-0.5,0.7-0.3,1.1-0.4
		c-0.2-0.4-0.2-0.9,0.1-1.3c0.1-0.9,0.2-1.9,0-2.8c-0.1-0.7,0.1-0.9,0.7-1c0,0,0.1,0,0.1,0c2.9-0.2,2.9-0.2,2.9,2.6
		C33.4,43.5,33.4,43.9,33.7,44.3z"/>
	<path class="st11" d="M80.6,50.5c-1,1.6-2.2,3-2.9,4.7c-0.2,0.4-1.9,0.8-2.3,0.5c-0.2-0.1-0.2-0.3-0.1-0.5c0.2-0.6,0.4-1.3,0.8-1.8
		c1.7-1.9,2.5-4.3,3.8-6.4c0.5-0.9,1.6-1.4,2.6-1.1c0.8,0.3-0.1,0.6-0.1,0.9C82.2,48.3,81.2,49.3,80.6,50.5z"/>
	<path class="st12" d="M85.4,56c-0.9,0.1-1.9,0.3-2.4-0.7c-0.6-1.1-0.3-2.2,0.3-3.1c0.7-1.3,1.7-2.5,2.5-3.8
		c0.7-1.2-2.9-1.8-3.8-2.3c0.7-0.6,4.9-0.5,5.5-0.1c0.6,0.4,0.6,1,0.6,1.6c0,1.2-0.8,2.1-1.3,3.1c-0.6,1.2-1.6,2.2-1.9,3.5
		C84.2,55,84.9,55.4,85.4,56z"/>
	<path class="st13" d="M57.6,55.9c-1-1-0.8-2.2-0.3-3.3c1-2,2.1-4,3.2-6c0.2-0.4,2-0.7,2.3-0.4c0.3,0.3,0,0.5-0.1,0.7
		c-0.9,1.7-1.9,3.4-2.8,5.1c-0.4,0.7-0.7,1.5-1,2.3c-0.2,0.4-0.3,0.9,0.1,1.3c0.1,0.1,0.4,0.1,0.5,0.3c0,0.3-0.2,0.2-0.4,0.3
		C58.5,56.2,58,56.3,57.6,55.9z"/>
	<path class="st14" d="M37.5,55.7c0-1.5,0-3,0-4.6c0-0.6,0.1-0.9,0.8-0.9c0.9-0.1,1.8-0.3,2.7-0.4c0,1.8,0,3.6,0.1,5.5
		c0,0.5-0.2,0.8-0.7,0.7C39.4,55.9,38.4,56.3,37.5,55.7z"/>
	<path class="st15" d="M67,56c-2.5,0.2-2.7,0.1-3.2-3c-0.5-0.2-0.5-0.5-0.1-0.9c0.4-0.4,0.6-0.9,0.8-1.4c0.9-1.7,1.9-3.2,3.7-4.1
		c0.4-0.2,0.7-0.2,0.9,0.3c-0.3,1.2-1.3,2.1-1.7,3.3c-0.3,0.7-0.6,1.5-0.8,2.2c-0.2,0.9-0.1,1.6,0.4,2.4C67.1,55.2,68,55.5,67,56z"
		/>
	<path class="st16" d="M57.3,64.2c-1.6-0.7-2.4-1.9-2.2-3.6c0.1-1.2,1.3-2.4,2.5-2.6c0.2,0,0.5-0.1,0.6,0.1c0.1,0.2-0.1,0.3-0.2,0.5
		c-1.3,1.4-1.2,3-0.5,4.7c0.1,0.3,0.6,0.5,0.4,0.9C57.8,64.4,57.5,64.3,57.3,64.2z"/>
	<path class="st17" d="M24.9,48.9c-0.2,0-0.5,0-0.7,0c-0.5-0.3,0-1.1-0.5-1.4c0.2,0.4,0.3,0.8-0.1,1.1c-0.5,0.3-0.9-0.1-1.3-0.3
		c-0.5-0.3-0.8-0.7-0.6-1.3c0.2-0.5,0.5-1,0.5-1.6c1-0.3,1.9,0.3,3,0c0.6-0.2,0.8,0.8,1.2,1.2c0,0.6,0,1.2,0,1.8
		c0,0.3-0.1,0.6-0.5,0.5c-0.4-0.3-0.3-0.8-0.5-1.2C25.1,48.1,25.4,48.6,24.9,48.9z"/>
	<path class="st18" d="M22.2,45.5c0.2,0.4,0.3,0.7-0.1,1.1c-0.5,0.6,0.2,2,1,2c0.7-0.1,0.6-0.6,0.3-1c-0.1-0.2-0.6-0.5-0.1-0.7
		c0.3-0.2,0.4,0.2,0.6,0.5c0.5,0.5,0,1.1,0.2,1.5c-0.9,0.3-2-0.4-2.7,0.5c0-0.2,0-0.4,0.2-0.6c0.1-0.1,0.2-0.3,0-0.4
		c-0.1-0.2-0.3-0.2-0.5,0c-0.5,0.5-1.2,0.2-1.8,0.3c-1.1-0.8-0.6-2-0.7-3.1c0-0.2,0.1-0.3,0.3-0.2c0.2,0.1,0.3,0.2,0.3,0.4
		c0,0.5,0,1.1,0,1.6c0,0.4,0.2,0.7,0.5,0.5c0.5-0.2,1.2,0.1,1.3-0.8c0.1-0.5-0.1-0.6-0.5-0.7c-0.2,0-0.4,0.1-0.4-0.2
		c0-0.3,0.3-0.3,0.5-0.3c0.4,0,0.7-0.1,0.8-0.5C21.9,45.3,22,45.3,22.2,45.5z"/>
	<path class="st19" d="M31.6,55.8c0-1.2,0-2.4,0-3.6c0-0.9,0.5-1,1.2-1c0.9,0,0.4,0.6,0.4,1c0.1,1.1-0.2,2.2,0.2,3.4
		c-0.3,1.1-1.2,0.3-1.8,0.5C31.5,55.9,31.5,55.9,31.6,55.8C31.5,55.8,31.5,55.8,31.6,55.8z"/>
	<path class="st20" d="M62.3,36.1c1.2,0.6,1.8,2.6,1.1,3.8c-0.4,0.6-1.1,0.7-1.7,0.8c-0.6,0-0.3-0.5-0.2-0.8
		c0.4-1.2,0.4-2.3-0.2-3.5C61.5,35.6,62,36,62.3,36.1z"/>
	<path class="st21" d="M66,40.9c-0.1,0.9-0.5,1.5-1.4,1.5c-0.8,0-1.1-0.5-1.2-1.2c0-0.9,0.4-1.4,1.3-1.4
		C65.5,39.8,65.9,40.3,66,40.9z"/>
	<path class="st22" d="M85.4,56c-0.8-0.4-1.3-0.9-0.7-1.8c0.1,0.4-0.2,1.1,0.4,1.3c0.6,0.3,1-0.2,1.4-0.5c2-1.7,3.5-3.7,5-5.7
		c0.2-0.2,0.2-0.5,0.7-0.4c-0.8,1.1-1.5,2.2-2.4,3.1c-1.3,1.4-2.2,3.1-4,3.9C85.7,55.9,85.5,55.9,85.4,56z"/>
	<path class="st22" d="M64.5,50.7c0,0.5-0.2,1-0.6,1.3c-0.3,0.3-0.3,0.6-0.1,1c-1.3,0.5-1.9,1.7-3,2.4c-0.7,0.4-1.4,0.8-2.2,0.9
		c-0.5,0.1-0.8,0-1.1-0.4c0.4,0,0.9,0.1,1.3,0c0.7-0.1-0.2-0.3,0-0.5c0.9,0.1,1.6-0.4,2.2-1C62.4,53.4,63.5,52.2,64.5,50.7z"/>
	<path class="st23" d="M31.6,55.8c0,0.1,0,0.1,0,0.2c-0.3,0-0.6,0-0.9,0.1c-0.8,0.1-1-0.3-1-1c0-1.7,0-3.5,0-5.2
		c0-0.9,0.2-2-1.1-2.3c-0.1,0,0-0.3-0.1-0.4c1.1-0.1,1.4,0.6,1.4,1.4c0,2,0.1,3.9,0,5.9c-0.1,1.1,0.3,1.5,1.4,1.3
		C31.4,55.8,31.5,55.8,31.6,55.8z"/>
	<path class="st24" d="M22.2,45.5c-0.2,0-0.3,0-0.5,0c0,0,0,0,0,0c-0.1-0.1-0.1-0.2,0-0.3c1.1,0,2.2,0.1,3.3,0.1
		c1,0,1.5,0.3,1.3,1.4c-0.3-0.2-0.7-0.2-0.8-0.6c-0.2-0.7-0.5-0.8-0.9-0.1c-0.2,0.3-0.4,0.2-0.6,0C23.5,45.5,22.8,45.4,22.2,45.5z"
		/>
	<path class="st22" d="M67,56c0.9-0.6-0.2-0.6-0.2-0.9c0.2-0.2,0.4-0.3,0.7-0.3c0.9,0,1.5-0.4,2-1.1c0.2-0.3,0.4-0.6,0.8-0.4
		c-0.2,1-0.7,1.8-1.2,2.7c0-0.6-0.2-0.8-0.7-0.5C67.9,55.7,67.5,56.1,67,56z"/>
	<path class="st22" d="M72.9,46.6c-0.5-0.2-0.5,0-0.4,0.4c0.1,0.7,0.2,1.3-0.2,1.9c-0.3-0.3-0.3-0.7-0.3-1c-0.1-1.5-0.1-1.6-1.6-1.6
		c-0.2,0,0-0.5-0.4-0.3c-0.2,0.1-0.5,0.1-0.7-0.1C70.5,45,72.3,45.4,72.9,46.6z"/>
	<path class="st25" d="M41.9,45.2c-0.1,0.3-0.2,0.5-0.6,0.4C41,45.4,41,45,41,44.7c0-2.6,0-5.1,0-7.7c0.3,0.2,0.2,0.4,0.2,0.7
		c0,2.2,0,4.5,0,6.7C41.2,44.9,41.2,45.3,41.9,45.2z"/>
	<path class="st22" d="M80.7,49.6c0.4-1.3,1.2-2.5,1.8-3.7c0.9,1.1-0.2,1.6-0.7,2.3C81.4,48.6,81.2,49.3,80.7,49.6z"/>
	<path class="st26" d="M29.7,44.3c0,0.5-0.1,1,0.4,1.5c0.1,0.1,0.2,0.4,0,0.5c-0.2,0.1-0.4,0-0.5-0.2c-0.3-0.5-0.7-0.3-1-0.2
		C28.5,45,28.3,44.1,29.7,44.3z"/>
	<path class="st18" d="M21.7,45.2c0,0.1,0,0.2,0,0.3c-0.4-0.3-0.8-0.2-1.2-0.3c0.7-0.3-0.2-1.6,1-1.5C21.6,44.1,21.5,44.7,21.7,45.2
		z"/>
	<path class="st27" d="M24.9,48.9c0.3-0.5-0.4-1.3,0.5-1.7c0.4,0.5,0.2,1.1,0.4,1.7C25.5,48.9,25.2,48.9,24.9,48.9z"/>
	<path class="st28" d="M69.3,45.9c0.2,0,0.5-0.1,0.7-0.1c0.4-0.1,0.3,0.2,0.2,0.4c-0.3,0.5-0.7,0.9-1.4,1c0-0.5-0.4-0.5-0.7-0.5
		C68.4,46.2,68.9,46.2,69.3,45.9z"/>
	<path class="st29" d="M48.6,56.2c0.2-0.2,0.3-0.3,0.5-0.5c0.6,0.1,1-0.5,1.6-0.7c0.2,0.3,0.4,0.2,0.7,0.2
		C50.6,56.1,49.6,56.1,48.6,56.2z"/>
	<path class="st30" d="M57.3,37.2c0-0.3-0.2-0.4-0.5-0.5c0.5-0.5,1-0.8,1.8-0.8C58.1,36.4,57.7,36.8,57.3,37.2z"/>
	<path class="st31" d="M62.3,36.1c-0.3,0-0.7-0.1-0.9,0.3c-0.3-0.1-0.6-0.3-0.8-0.7C61.3,35.6,61.8,35.7,62.3,36.1z"/>
	<path class="st32" d="M57.3,64.2c1.2,0,0.1-0.7,0.3-0.9c0.4,0.3,0.8,0.6,1.2,0.9c-0.3,0.5-0.8,0.2-1.2,0.2
		C57.5,64.4,57.4,64.3,57.3,64.2z"/>
	<path class="st33" d="M26.5,39.3c-0.7,0-1.4-0.1-2-0.1c-1.3,0-2.6,0.3-3.8,0.1c-1-0.2-1.9-0.1-2.8,0c-0.2-0.2-0.2-0.4,0-0.7
		c2.6,0,5.3,0,7.9,0C26.2,38.6,26.7,38.6,26.5,39.3z"/>
	<path class="st34" d="M17.8,48.4c0-2.5,0-5,0-7.5c0.6,1.4,0.9,2.8,0.3,4.4c-0.4,0.9-0.2,2.1,0.1,3.1C18.1,48.4,18,48.4,17.8,48.4z"
		/>
</g>
</svg>
