<?xml version="1.0" encoding="utf-8"?>
<!-- Generator: Adobe Illustrator 27.8.1, SVG Export Plug-In . SVG Version: 6.00 Build 0)  -->
<svg version="1.1" id="Layer_1" xmlns="http://www.w3.org/2000/svg" xmlns:xlink="http://www.w3.org/1999/xlink" x="0px" y="0px"
	 viewBox="0 0 96 96" style="enable-background:new 0 0 96 96;" xml:space="preserve">
<style type="text/css">
	.st0{fill:#FFE0E0;}
	.st1{fill:url(#SVGID_1_);}
</style>
<path class="st0" d="M32,0h32c17.7,0,32,14.3,32,32v32c0,17.7-14.3,32-32,32H32C14.3,96,0,81.7,0,64V32C0,14.3,14.3,0,32,0z"/>
<linearGradient id="SVGID_1_" gradientUnits="userSpaceOnUse" x1="30.621" y1="32.621" x2="65.3792" y2="67.379" gradientTransform="matrix(1 0 0 -1 0 98)">
	<stop  offset="0" style="stop-color:#FF8506"/>
	<stop  offset="0.5805" style="stop-color:#FD3947"/>
	<stop  offset="1" style="stop-color:#FB0078"/>
</linearGradient>
<path class="st1" d="M74.3,44L62.1,27.4c-0.9-1.2-2.3-1.9-3.8-1.9c-1.5,0-2.9,0.7-3.8,1.9l-1.3,1.8l-1.3-1.8
	c-0.9-1.2-2.3-1.9-3.8-1.9c-1.5,0-2.9,0.7-3.8,1.9l-1.3,1.8l-1.3-1.8c-0.9-1.2-2.3-1.9-3.8-1.9c-1.5,0-2.9,0.7-3.8,1.9L21.7,44
	c-1.7,2.4-1.7,5.5,0,7.9l12.1,16.6c0.9,1.2,2.3,1.9,3.8,1.9c1.5,0,2.9-0.7,3.8-1.9l6.5-8.8l1.3,1.8c0,0,0,0,0,0l5.1,7
	c0.9,1.2,2.3,1.9,3.8,1.9c1.5,0,2.9-0.7,3.8-1.9L74.3,52C76,49.6,76,46.4,74.3,44z M46.1,28.9c0.4-0.6,1.1-1,1.9-1
	c0.8,0,1.5,0.4,1.9,1l1.8,2.4l-3.7,5l-3.7-5L46.1,28.9z M39.6,67.1c-0.4,0.6-1.1,1-1.9,1s-1.5-0.4-1.9-1L23.7,50.5
	c-1.1-1.5-1.1-3.6,0-5.1l12.1-16.6c0.4-0.6,1.1-1,1.9-1s1.5,0.4,1.9,1l1.8,2.4L32,44c-1.7,2.4-1.7,5.5,0,7.9l0.7,1l6.3,8.6
	c0.8,1.1,2,1.8,3.3,1.9L39.6,67.1z M44.7,60.1c-0.4,0.6-1.1,1-1.9,1c-0.8,0-1.5-0.4-1.9-1l-6.4-8.9l0,0L34,50.5
	c-1.1-1.5-1.1-3.6,0-5.1l8.9-12.2l3.7,5l-4.2,5.7c-1.7,2.4-1.7,5.5,0,7.9l4.2,5.7L44.7,60.1z M48,40.3l3.7,5.1
	c1.1,1.5,1.1,3.6,0,5.1L48,55.7l-3.7-5.1c-1.1-1.5-1.1-3.6,0-5.1L48,40.3z M53.7,52c1.7-2.4,1.7-5.5,0-7.9l-4.2-5.7l3.7-5L62,45.5
	c1.1,1.5,1.1,3.6,0,5.1l-1.4,2l-5.5,7.6c-0.4,0.6-1.1,1-1.9,1c-0.8,0-1.4-0.3-1.9-0.9l-1.8-2.5L53.7,52z M72.3,50.5L60.2,67.1
	c-0.4,0.6-1.1,1-1.9,1c-0.8,0-1.5-0.4-1.9-1l-2.7-3.7c1.3-0.1,2.5-0.8,3.3-1.9l4.7-6.5l0,0l0.8-1.1l0.9-1.3l0,0L64,52
	c1.7-2.4,1.7-5.5,0-7.9l-9.3-12.8l1.8-2.4c0.4-0.6,1.1-1,1.9-1c0.8,0,1.4,0.4,1.9,1l12.1,16.6C73.4,47,73.4,49,72.3,50.5z"/>
</svg>
