<svg width="102" height="102" viewBox="0 0 102 102" fill="none" xmlns="http://www.w3.org/2000/svg" alt="Logo for Mean Finance">
<title>Mean Finance</title>
<rect width="102" height="102" rx="32" fill="#DDF3FF"/>
<g clip-path="url(#clip0_4859_5288)">
<path d="M86 67.2706C85.3515 67.4447 84.6996 67.5108 84.0476 67.5004C83.4902 67.4969 82.9329 67.4342 82.3756 67.3437C82.323 67.3368 82.2669 67.3228 82.2143 67.3124C82.0951 67.2915 81.983 67.2637 81.8673 67.2358C81.7692 67.2114 81.671 67.1871 81.5764 67.1557C81.5343 67.1453 81.4922 67.1314 81.4537 67.1174C81.3731 67.0931 81.2889 67.0652 81.2118 67.0339C81.1067 66.9956 81.0015 66.9538 80.8998 66.9086C80.8227 66.8737 80.7491 66.8424 80.672 66.8041C80.5984 66.7693 80.5248 66.731 80.4512 66.6927C80.304 66.6126 80.1637 66.5291 80.027 66.4386C78.5759 65.5299 77.5734 64.0956 76.7041 62.5534C74.4186 58.4767 73.304 53.9717 72.0351 49.5225C71.5583 47.841 71.0781 46.1595 70.5804 44.4815C70.4647 44.0881 70.3175 43.7052 70.1387 43.3327C69.9109 42.8557 69.662 42.3753 69.35 41.9714C69.2869 41.8914 69.2238 41.8182 69.1572 41.7486C69.0696 41.6511 68.9715 41.5571 68.8698 41.4736C68.8418 41.4492 68.8102 41.4214 68.7787 41.4005C68.3861 41.1046 67.9094 40.934 67.31 40.9653C67.1943 40.9723 67.0786 40.9862 66.9735 41.0071C66.346 41.209 65.7291 41.7625 65.1753 42.6712C64.8177 43.2595 64.5128 43.9001 64.306 44.5546C63.5734 46.8663 62.8933 49.1918 62.1923 51.5104C61.0601 55.2703 60.0821 59.0963 58.1157 62.5464C56.8363 64.7954 55.3185 66.8389 52.5038 67.3472C52.4196 67.3611 52.3355 67.3751 52.2479 67.3855C52.2163 67.389 52.1813 67.396 52.1462 67.3994C51.7466 67.4517 51.347 67.4899 50.9474 67.4934C50.6179 67.4899 50.2849 67.4656 49.9554 67.4238C49.8503 67.4134 49.7416 67.3994 49.6365 67.382C49.5523 67.3716 49.4717 67.3611 49.3876 67.3472C46.5729 66.8389 45.0551 64.7954 43.7757 62.5464C41.8092 59.0963 40.8312 55.2703 39.6955 51.5104C38.998 49.1918 38.318 46.8663 37.5854 44.5546C37.3786 43.9001 37.0736 43.2595 36.7161 42.6712C36.1622 41.7625 35.5453 41.209 34.9179 41.0071C34.8092 40.9862 34.697 40.9723 34.5814 40.9653C33.9364 40.9305 33.4316 41.1359 33.0215 41.4736L33.0145 41.4806C32.9199 41.5571 32.8322 41.6442 32.7481 41.7347C32.7131 41.7695 32.678 41.8078 32.6465 41.8496C32.6044 41.8983 32.5623 41.9505 32.5203 42.0028C32.2364 42.3718 32.005 42.8035 31.7947 43.2387C31.6194 43.6042 31.4582 43.9767 31.346 44.3631C30.8378 46.0795 30.3435 47.8027 29.8563 49.5225C28.5874 53.9717 27.4727 58.4767 25.1873 62.5534C24.4091 63.9424 23.5118 65.2305 22.2919 66.1392C22.3025 66.1287 22.313 66.1218 22.3235 66.1113C22.2394 66.1775 22.1587 66.2367 22.0746 66.2958C22.0325 66.3306 21.987 66.362 21.9449 66.3898C21.9134 66.4107 21.8783 66.4351 21.8433 66.456C21.8327 66.4629 21.8257 66.4664 21.8152 66.4699C21.7697 66.4978 21.7276 66.5256 21.682 66.5535C21.6365 66.5813 21.5909 66.6057 21.5453 66.63C21.5033 66.6579 21.4612 66.6823 21.4156 66.7032C21.3736 66.7275 21.328 66.7519 21.2824 66.7728C21.1948 66.818 21.1037 66.8598 21.0125 66.9016C21.009 66.9051 21.002 66.9086 20.995 66.9086C20.8933 66.9538 20.7917 66.9921 20.69 67.0304C20.6269 67.0548 20.5638 67.0757 20.5008 67.0965C20.4412 67.1174 20.3781 67.1383 20.315 67.1557C20.2203 67.1836 20.1257 67.2114 20.024 67.2358C19.9119 67.2637 19.7962 67.2915 19.677 67.3124C19.6385 67.3228 19.5999 67.3298 19.5578 67.3368C19.4562 67.3542 19.358 67.3681 19.2599 67.3855C19.2318 67.389 19.2073 67.3925 19.1828 67.3959H19.1688C18.1102 67.5422 17.0516 67.5631 16 67.2985V61.3871C19.0075 61.5229 19.2739 61.3732 20.5288 58.4732C21.2298 56.8613 21.8082 55.2076 22.3445 53.5366C22.4987 52.9447 22.6635 52.3459 22.8563 51.7541C24.2934 47.3641 25.331 42.8348 27.7496 38.8103C29.3375 36.168 31.5528 34.7336 33.8312 34.5317C33.9539 34.5213 34.0766 34.5143 34.2028 34.5074C34.2694 34.5039 34.336 34.5039 34.4061 34.5039C35.3981 34.4899 36.4076 34.7058 37.3961 35.1549C39.4572 36.0983 40.7191 37.8321 41.7356 39.7608C44.1367 44.3074 45.2479 49.3067 46.7727 54.1597C47.3265 55.9213 47.6735 57.763 48.6199 59.3783C49.2964 60.5307 50.1202 61.1155 50.9439 61.1295C51.7641 61.1155 52.5949 60.5307 53.2714 59.3783C54.2178 57.763 54.5648 55.9213 55.1187 54.1597C56.6435 49.3067 57.7546 44.3074 60.1557 39.7608C61.1723 37.8321 62.4342 36.0983 64.4952 35.1549C67.7762 33.6544 71.3235 34.7824 73.6089 38.0932C76.1257 41.7347 77.1983 45.975 78.4777 50.1144C79.347 52.9343 80.1848 55.7612 81.3625 58.4732C82.5053 61.1155 82.8277 61.4741 85.1517 61.4149C85.6565 64.8894 85.4952 63.7962 86 67.2706Z" fill="#75BEE6"/>
</g>
<defs>
<clipPath id="clip0_4859_5288">
<rect width="70" height="33" fill="white" transform="translate(16 34.5)"/>
</clipPath>
</defs>
</svg>
