<?xml version="1.0" encoding="utf-8"?>
<!-- Generator: Adobe Illustrator 26.0.1, SVG Export Plug-In . SVG Version: 6.00 Build 0)  -->
<svg version="1.1" id="Layer_1" xmlns="http://www.w3.org/2000/svg" xmlns:xlink="http://www.w3.org/1999/xlink" x="0px" y="0px"
	 viewBox="0 0 102 102" style="enable-background:new 0 0 102 102;" xml:space="preserve">
<style type="text/css">
	.st0{fill:#FFC6E1;}
	.st1{clip-path:url(#SVGID_00000179633817897167543410000001016092046227243668_);}
	.st2{fill:#FF007A;}
	.st3{fill-rule:evenodd;clip-rule:evenodd;fill:#FF007A;}
	.st4{fill:#FFF6D7;}
	.st5{fill:#FF6800;}
	.st6{fill-rule:evenodd;clip-rule:evenodd;fill:#FFFCF0;}
	.st7{fill-rule:evenodd;clip-rule:evenodd;fill:url(#SVGID_00000177449394314591792150000001673281862713013665_);}
	.st8{fill:#FFFFFF;}
	.st9{fill:#F96500;}
	.st10{fill:#FFFFFE;}
</style>
<path class="st0" d="M32,0h38c17.7,0,32,14.3,32,32v38c0,17.7-14.3,32-32,32H32C14.3,102,0,87.7,0,70V32C0,14.3,14.3,0,32,0z"/>
<g>
	<defs>
		<rect id="SVGID_1_" x="16.5" y="11" width="69" height="80"/>
	</defs>
	<clipPath id="SVGID_00000060748739699502123880000008239902459159126957_">
		<use xlink:href="#SVGID_1_"  style="overflow:visible;"/>
	</clipPath>
	<g style="clip-path:url(#SVGID_00000060748739699502123880000008239902459159126957_);">
		<path class="st2" d="M43.6,29.2c-0.9-0.1-0.9-0.2-0.5-0.2c0.8-0.1,2.6,0,3.9,0.3c3,0.7,5.6,2.5,8.4,5.7l0.7,0.9l1.1-0.2
			c4.6-0.7,9.2-0.2,13.1,1.7c1.1,0.5,2.7,1.5,3,1.7c0.1,0.1,0.2,0.6,0.3,1.2c0.3,1.9,0.2,3.4-0.5,4.5c-0.3,0.6-0.3,0.8-0.1,1.3
			c0.2,0.4,0.7,0.7,1.1,0.7c1,0,2-1.6,2.5-3.8l0.2-0.9l0.4,0.4c2.1,2.4,3.7,5.6,4,7.9l0.1,0.6l-0.4-0.5c-0.6-0.9-1.2-1.6-2-2.1
			c-1.4-0.9-2.9-1.2-6.8-1.4c-3.5-0.2-5.5-0.5-7.5-1.2c-3.4-1.1-5.1-2.6-9.1-7.9c-1.8-2.4-2.9-3.6-4-4.7
			C49.1,30.9,46.7,29.7,43.6,29.2z"/>
		<path class="st2" d="M74.1,34.4c0.1-1.6,0.3-2.6,0.7-3.6c0.2-0.4,0.3-0.7,0.4-0.7c0,0,0,0.3-0.2,0.6c-0.3,0.9-0.4,2.2-0.2,3.6
			c0.3,1.9,0.4,2.1,2.4,4.1c0.9,0.9,2,2.1,2.4,2.6l0.7,0.9l-0.7-0.7c-0.9-0.8-2.8-2.4-3.3-2.6c-0.3-0.2-0.3-0.2-0.5,0
			c-0.2,0.2-0.2,0.4-0.2,1.6c0,1.9-0.3,3-0.9,4.2c-0.3,0.6-0.4,0.5-0.1-0.2c0.2-0.5,0.2-0.8,0.2-2.6c0-3.6-0.4-4.5-2.9-5.9
			c-0.6-0.4-1.7-0.9-2.3-1.2c-0.7-0.3-1.1-0.5-1.1-0.5c0.1-0.1,2.5,0.6,3.4,1c1.4,0.6,1.7,0.6,1.8,0.6C74,35.8,74.1,35.5,74.1,34.4z
			"/>
		<path class="st2" d="M45.2,40.6c-1.7-2.4-2.8-6.1-2.6-8.9l0.1-0.9l0.4,0.1c0.7,0.1,2,0.6,2.6,1c1.6,1,2.4,2.4,3.1,5.7
			c0.2,1,0.5,2.1,0.6,2.5c0.2,0.6,1,2.1,1.6,3c0.5,0.7,0.2,1-0.9,0.9C48.7,43.9,46.6,42.5,45.2,40.6z"/>
		<path class="st2" d="M72,58.6c-8.1-3.3-11-6.2-11-11c0-0.7,0-1.3,0-1.3c0,0,0.3,0.2,0.7,0.5c1.6,1.3,3.5,1.9,8.6,2.6
			c3,0.5,4.7,0.8,6.3,1.3c5,1.7,8,5,8.8,9.6c0.2,1.3,0.1,3.8-0.2,5.2c-0.3,1-1.1,2.9-1.3,3c0,0-0.1-0.2-0.1-0.5
			c-0.1-1.7-0.9-3.4-2.4-4.7C79.6,61.9,77.4,60.7,72,58.6z"/>
		<path class="st2" d="M66.3,59.9c-0.1-0.6-0.3-1.4-0.4-1.7l-0.2-0.6L66,58c0.5,0.6,0.9,1.4,1.3,2.4c0.3,0.8,0.3,1,0.3,2.3
			c0,1.2,0,1.5-0.3,2.2c-0.4,1.1-0.9,1.9-1.7,2.8c-1.5,1.5-3.4,2.4-6.1,2.7c-0.5,0-1.9,0.2-3.1,0.2c-3.1,0.2-5.1,0.5-7,1.2
			c-0.2,0.1-0.5,0.2-0.5,0.1c-0.1-0.1,1.2-0.8,2.2-1.3c1.4-0.7,2.9-1.1,6.1-1.7c1.6-0.2,3.2-0.6,3.6-0.7
			C64.9,67,66.9,63.8,66.3,59.9z"/>
		<path class="st2" d="M70,66.6c-1.1-2.4-1.3-4.6-0.7-6.7c0.1-0.2,0.2-0.4,0.2-0.4c0.1,0,0.3,0.1,0.6,0.3c0.5,0.3,1.5,0.9,4.1,2.4
			c3.3,1.8,5.2,3.2,6.5,4.8c1.1,1.4,1.8,3,2.2,5c0.2,1.1,0.1,3.8-0.2,4.9c-0.9,3.5-3,6.3-5.9,7.9c-0.5,0.2-0.8,0.4-0.9,0.4
			s0.1-0.4,0.4-0.9c1-2.1,1.1-4.1,0.4-6.4c-0.5-1.4-1.4-3.1-3.3-5.9C71.1,68.6,70.6,67.8,70,66.6z"/>
		<path class="st2" d="M39.5,79.2c3-2.6,6.8-4.4,10.2-5c1.5-0.2,3.9-0.2,5.3,0.2c2.2,0.6,4.1,1.8,5.2,3.3c1,1.5,1.4,2.8,1.9,5.6
			c0.2,1.1,0.4,2.3,0.4,2.5c0.3,1.5,1,2.6,1.8,3.3c1.3,0.9,3.5,1,5.7,0.2c0.4-0.1,0.7-0.2,0.7-0.2c0.1,0.1-1,0.8-1.8,1.2
			c-1,0.5-1.8,0.7-3,0.7c-2,0-3.6-1-5-3.1c-0.3-0.4-0.9-1.6-1.4-2.7c-1.4-3.3-2.2-4.3-3.9-5.4c-1.5-0.9-3.4-1.2-4.8-0.5
			c-1.9,0.9-2.4,3.3-1.1,4.8c0.5,0.6,1.5,1.1,2.3,1.2c1.5,0.2,2.8-1,2.8-2.5c0-1-0.4-1.6-1.4-2c-1.3-0.6-2.7,0.1-2.7,1.4
			c0,0.5,0.2,0.9,0.8,1.1c0.3,0.2,0.3,0.2,0.1,0.1c-1.2-0.2-1.5-1.7-0.5-2.7c1.1-1.2,3.6-0.7,4.4,0.9c0.3,0.7,0.4,2,0.1,2.8
			C55,86.3,53,87.3,51,86.7c-1.4-0.4-1.9-0.7-3.6-2.4c-2.9-3-4-3.6-8.1-4.2L38.6,80L39.5,79.2z"/>
		<path class="st3" d="M17.9,12.8c9.6,11.7,24.3,29.8,25,30.8c0.6,0.8,0.4,1.6-0.7,2.2c-0.6,0.3-1.8,0.7-2.3,0.7
			c-0.7,0-1.4-0.3-2-0.9c-0.4-0.4-2-2.7-5.6-8.4c-2.7-4.3-5.1-7.9-5.1-8c-0.2-0.1-0.2-0.1,4.8,8.9c3.2,5.7,4.2,7.7,4.2,7.9
			c0,0.5-0.2,0.8-0.8,1.6c-1.1,1.2-1.6,2.6-2,5.6c-0.4,3.3-1.5,5.6-4.7,9.5c-1.8,2.3-2.1,2.7-2.6,3.7c-0.6,1.2-0.7,1.8-0.8,3.3
			c-0.1,1.6,0.1,2.6,0.5,4c0.4,1.3,0.9,2.2,2,3.9c0.9,1.5,1.5,2.6,1.5,3c0,0.3,0.1,0.3,1.6,0c3.5-0.8,6.4-2.2,8-4
			c1-1.1,1.2-1.7,1.2-3.1c0-0.9,0-1.2-0.3-1.7c-0.4-0.9-1.2-1.7-2.9-2.8c-2.2-1.5-3.2-2.8-3.4-4.4c-0.2-1.4,0-2.4,1.3-5
			c1.3-2.7,1.6-3.8,1.8-6.5c0.1-1.7,0.3-2.4,0.8-3c0.5-0.6,1-0.8,2.3-0.9c2.1-0.3,3.4-0.8,4.5-1.9c0.9-0.9,1.4-1.7,1.4-3l0-0.9
			l-0.5-0.6C43.3,40.6,16.6,11,16.5,11C16.5,11,17.1,11.8,17.9,12.8z M30.5,71.5c0.5-0.8,0.2-1.8-0.5-2.3c-0.7-0.5-1.8-0.2-1.8,0.4
			c0,0.2,0.1,0.3,0.3,0.4c0.4,0.2,0.4,0.4,0.1,0.9c-0.3,0.5-0.3,0.9,0.1,1.2C29.3,72.5,30.1,72.2,30.5,71.5z"/>
		<path class="st3" d="M47.1,49.8c-1,0.3-1.9,1.4-2.2,2.4c-0.2,0.7-0.1,1.9,0.2,2.2c0.5,0.6,0.9,0.7,2,0.7c2.3,0,4.2-1,4.4-2.2
			c0.2-1-0.7-2.4-1.8-3C49,49.7,47.7,49.6,47.1,49.8z M49.7,51.8c0.3-0.5,0.2-1-0.4-1.4c-1.1-0.7-2.8-0.1-2.8,0.9
			c0,0.5,0.9,1.1,1.7,1.1C48.7,52.5,49.5,52.2,49.7,51.8z"/>
	</g>
</g>
<path class="st4" d="M31.4,0.3h39.7c17.2,0,31.1,13.9,31.1,31.1v39.7c0,17.2-13.9,31.1-31.1,31.1H31.4c-17.2,0-31.1-13.9-31.1-31.1
	V31.4C0.3,14.2,14.2,0.3,31.4,0.3z"/>
<path class="st5" d="M74.4,61.4c0.5,0.9,0.4,1.8-0.5,3c-0.2,0.3-0.3,0.6-0.2,1l0,0c0,0.1,0,0.2,0.1,0.4l0.1,0.4l0,0.1
	C74,66.8,74,67,74,67.2l0,0.1c0,0.5,0,1-0.2,1.4c-0.4,1-1.2,1.9-2.7,2.8L71,71.6c-0.7,0.4-1.5,0.8-2.3,1l-0.1,0
	c-0.9,0.3-1.6,0.4-3.2,0.5l-0.5,0.1c-1.6,0.2-2.3,0.3-2.9,0.7l0,0c-0.7,0.5-1,1.4-1,3.1l0,0.2c0,1.5-0.7,2.6-2,3.3
	c-1.2,0.6-2.8,0.9-5,0.7c-4.1-0.2-10.1-1.8-18.1-4.6l-1-0.3l0.4-0.9c2.1-4.9,1.2-10.6-2.8-17.4l-1.2-2c-1.2-2-1.6-2.8-2.2-3.8
	l-0.2-0.4l-0.1-0.2c-1-1.9-1.7-3.6-2.2-5.2c-1.5-5.3-0.3-10.4,4.3-17.5c5.7-8.7,16.1-10.5,30.9-5.7c7.8,2.6,11.8,8.8,11.8,18.2v0.2
	l-0.1,0.2c-1,2.1-1,3.8-0.1,5.3c0.3,0.5,0.7,1,1.3,1.7l0.2,0.3l0.8,1c0.8,1.1,1.2,1.5,1.5,2.1l0.1,0.2l0.1,0.1
	c0.7,1.1,0.9,2,0.6,2.8c-0.2,0.6-0.7,1-1.3,1.3c-0.4,0.2-0.9,0.4-1.5,0.6l-0.1,0c-0.2,0.1-0.5,0.2-0.7,0.2l-0.1,0l-0.1,0
	c-0.2,0-0.3,0.1-0.4,0.1l0,0.1c0,0.1,0.1,0.1,0.2,0.2l0.1,0.1l0.1,0.1c0.3,0.4,0.5,0.7,0.6,1.1c0.2,0.6,0.1,1.3-0.3,1.9l0,0
	c0,0,0,0,0,0L74.4,61.4L74.4,61.4z M71.7,41.1c-0.1-8.4-3.6-13.6-10.5-15.9c-14.1-4.6-23.6-2.9-28.8,4.9c-4.3,6.6-5.4,11.2-4,15.9
	c0.4,1.5,1.1,3.1,2.1,4.9l0.2,0.3c0.6,1.2,1.1,2,2.5,4.4l0.9,1.5c4.1,6.8,5.2,12.9,3.3,18.2c7.4,2.6,12.9,3.9,16.6,4.2l0.1,0
	c1.7,0.1,3-0.1,3.8-0.5c0.7-0.4,1-0.9,1-1.7l0-0.1c0-2.3,0.6-3.8,1.8-4.7c0.5-0.4,1.2-0.6,1.9-0.8l0.1,0c0.5-0.1,0.9-0.2,1.7-0.2
	l0.7-0.1c1.4-0.1,2-0.2,2.8-0.5l0.1,0c0.7-0.2,1.3-0.5,1.8-0.8l0.1-0.1c1.1-0.7,1.7-1.3,1.9-1.9c0.1-0.4,0.1-0.7,0-1.4l-0.1-0.3
	l0-0.1c0-0.2-0.1-0.4-0.1-0.5l0,0c-0.1-0.8,0-1.6,0.5-2.3l0.1-0.1c0.2-0.2,0.3-0.4,0.3-0.6c0-0.1,0.1-0.2,0.1-0.2l0,0c0,0,0,0,0-0.1
	l-0.1-0.1l0-0.1c-0.4-0.6-0.4-1.3,0.2-2l0,0l0,0c0.1-0.2,0.1-0.3-0.3-0.8L72.4,59l-0.1-0.1c-0.1-0.1-0.1-0.2-0.2-0.2l-0.1-0.1
	c-0.2-0.3-0.3-0.5-0.3-0.8c0-0.1,0-0.2,0-0.2c0-0.6,0.3-1,0.9-1.3c0.3-0.1,0.6-0.3,1-0.4l0.2-0.1c0.1,0,0.5-0.1,0.7-0.2l0.2-0.1
	l0.1,0c0.9-0.3,1.4-0.6,1.5-0.8c0,0,0,0,0-0.1c0-0.1,0-0.2-0.1-0.3c-0.1-0.2-0.2-0.6-0.5-0.9l-0.1-0.1c-0.3-0.5-0.6-0.9-1.4-1.9
	l-0.9-1.1l-0.2-0.2L73.2,50c-0.5-0.6-0.9-1.1-1.2-1.6l-0.1-0.1c-1.3-2-1.4-4.3-0.2-6.9l0-0.1L71.7,41.1z"/>
<path class="st6" d="M33.4,57.5c-6.3-10.4-9.7-15.6-1.6-28c5.4-8.3,15.3-10,29.8-5.3c7.4,2.5,11.1,8.3,11.1,17.3
	c-1.2,2.4-1.2,4.5,0,6.2c1.7,2.6,5.1,5.8,4.5,7.3c-0.6,1.5-4.5,1.5-4.5,2.5c0,1,1.8,1.9,0.9,3.2c-0.9,1.3,1.1,1-0.5,3.2
	c-1.6,2.2,2.2,4-2.6,6.9S60,70.2,60,77.2c0,4.7-7.9,4.2-23.7-1.4C38.5,70.6,37.6,64.5,33.4,57.5z"/>
<linearGradient id="SVGID_00000121251016769999022880000016297424077908592295_" gradientUnits="userSpaceOnUse" x1="36.1169" y1="61.9817" x2="59.901" y2="69.5687" gradientTransform="matrix(1 0 0 -1 0 104)">
	<stop  offset="0" style="stop-color:#FF9900"/>
	<stop  offset="1" style="stop-color:#FFC700"/>
</linearGradient>
<path style="fill-rule:evenodd;clip-rule:evenodd;fill:url(#SVGID_00000121251016769999022880000016297424077908592295_);" d="
	M70.3,40.3C69.2,33.1,67,29,63.7,28c-4.9-1.6-19.1-7.4-26.8-0.9c-5.1,4.4-7.9,10-8.2,16.9c0.6,2.6,2.2,5.7,4.8,9.3
	c3.8,5.4,4.9,4.2,4.9,2c0-2.2,7,3.6,9.1-4.3c1.4-5.3,4-7.2,7.8-5.7c6.7,0.7,10.8,0.3,12.5-1.3C69.5,42.4,70.3,41.2,70.3,40.3z"/>
<path class="st8" d="M49.4,49.9c4.6,0,8.3-3.7,8.3-8.3c0-4.6-3.7-8.3-8.3-8.3c-4.6,0-8.3,3.7-8.3,8.3C41.1,46.2,44.9,49.9,49.4,49.9
	z M49.4,49.1c-4.1,0-7.5-3.4-7.5-7.5c0-4.1,3.4-7.5,7.5-7.5c4.1,0,7.5,3.4,7.5,7.5C56.9,45.8,53.6,49.1,49.4,49.1z"/>
<path class="st9" d="M49.4,49.1c4.1,0,7.5-3.4,7.5-7.5s-3.4-7.5-7.5-7.5c-4.1,0-7.5,3.4-7.5,7.5S45.3,49.1,49.4,49.1z"/>
<path class="st10" d="M52,41.7l-2.6,1.6l-2.6-1.6l2.6-4.6L52,41.7z M49.4,43.9l-2.6-1.6l2.6,3.9l2.6-3.9L49.4,43.9z"/>
<path class="st10" d="M32.5,43c1.1-2.4,2.1-2.6,3.2-0.9l0,0.1c1.4,2.2,3.1,2.1,4.8-0.2l0.1-0.1l-0.3-0.7l-0.2,0.3
	c-1.4,1.9-2.6,2-3.8,0.2l0-0.1c-1.5-2.2-3-1.8-4.3,1l-0.1,0.1l0.5,0.6L32.5,43z M32.3,42.5l0,0.2l0-0.1l0-0.1L32.3,42.5z M35.8,41.8
	L35.8,41.8c1.4,2.1,3,2.1,4.6-0.1l-0.4,0l0.1,0.1c-1.5,1.9-2.7,2-4,0.1l0-0.1c-1.4-2.1-2.8-1.7-4,0.9l0.4,0l-0.1-0.1
	C33.5,40.2,34.6,40,35.8,41.8z M40.2,41.9l0-0.2l0,0.1l0,0.1L40.2,41.9z"/>
<path class="st10" d="M35.7,34.7c1.1-2.4,2.1-2.6,3.2-0.9l0,0.1c1.4,2.2,3.1,2.1,4.8-0.2l0.1-0.1l-0.3-0.7l-0.2,0.3
	c-1.4,1.9-2.6,2-3.8,0.2l0-0.1c-1.5-2.2-3-1.8-4.3,1l-0.1,0.1l0.5,0.6L35.7,34.7z M35.5,34.3l0,0.2l0-0.1l0-0.1L35.5,34.3z M39,33.5
	L39,33.5c1.4,2.1,3,2.1,4.6-0.1l-0.4,0l0.1,0.1c-1.5,1.9-2.7,2-4,0.1l0-0.1c-1.4-2.1-2.8-1.7-4,0.9l0.4,0l-0.1-0.1
	C36.7,32,37.8,31.7,39,33.5z M43.4,33.6l0-0.2l0,0.1l0,0.1L43.4,33.6z"/>
<path class="st10" d="M41.5,29.1l0.1-0.3l0.1-0.2l0.1-0.2c1-2,1.9-2.2,3-0.6l0,0.1c1.4,2.2,3.1,2.1,4.7-0.1l0.1-0.2l-0.3-0.7
	l-0.2,0.3c-1.4,1.9-2.6,2-3.8,0.3l-0.1-0.1c-1.5-2.2-3-1.9-4.3,0.9l-0.1,0.2L41.5,29.1z M41.5,28.4l0,0.2l0.1-0.1L41.5,28.4z
	 M45,27.6L45,27.6c1.4,2.1,3,2.1,4.6-0.1l-0.4,0l0.1,0.1l-0.1,0.2c-1.4,1.8-2.6,1.8-3.8,0l-0.1-0.1c-1.4-2.1-2.8-1.7-4,0.9l0.4,0
	l-0.1-0.1C42.7,26,43.8,25.8,45,27.6z M49.4,27.7l0-0.2l-0.1,0.1L49.4,27.7z"/>
<path class="st10" d="M52.5,31.9c1.1-2.4,2.1-2.6,3.2-0.9l0,0.1c1.4,2.2,3.1,2.1,4.8-0.2l0.1-0.1L60.3,30l-0.2,0.3
	c-1.4,1.9-2.6,2-3.8,0.2l0-0.1c-1.5-2.2-3-1.8-4.3,1l-0.1,0.1l0.5,0.6L52.5,31.9z M52.3,31.5l0,0.2l0-0.1l0-0.1L52.3,31.5z
	 M55.8,30.7L55.8,30.7c1.4,2.1,3,2.1,4.6-0.1l-0.4,0l0.1,0.1c-1.5,1.9-2.7,2-4,0.1l0-0.1c-1.4-2.1-2.8-1.7-4,0.9l0.4,0l-0.1-0.1
	C53.5,29.1,54.6,28.9,55.8,30.7z M60.2,30.8l0-0.2l0,0.1l0,0.1L60.2,30.8z"/>
<path class="st10" d="M34.7,51c1.1-2.4,2.1-2.6,3.2-0.9l0,0.1c1.4,2.2,3.1,2.1,4.8-0.2l0.1-0.1l-0.3-0.7l-0.2,0.3
	c-1.4,1.9-2.6,2-3.8,0.2l0-0.1c-1.5-2.2-3-1.8-4.3,1l-0.1,0.1l0.5,0.6L34.7,51z M34.5,50.6l0,0.2l0-0.1l0-0.1L34.5,50.6z M38,49.8
	L38,49.8c1.4,2.1,3,2.1,4.6-0.1l-0.4,0l0.1,0.1c-1.5,1.9-2.7,2-4,0.1l0-0.1c-1.4-2.1-2.8-1.7-4,0.9l0.4,0l-0.1-0.1
	C35.7,48.3,36.8,48,38,49.8z M42.4,49.9l0-0.2l0,0.1l0,0.1L42.4,49.9z"/>
<path class="st10" d="M58.2,38.4c1.1-2.4,2.1-2.6,3.2-0.9l0,0.1c1.4,2.2,3.1,2.1,4.8-0.2l0.1-0.1L66,36.5l-0.2,0.3
	c-1.4,1.9-2.6,2-3.8,0.2l0-0.1c-1.5-2.2-3-1.8-4.3,1l-0.1,0.1l0.5,0.6L58.2,38.4z M58,37.9l0,0.2l0-0.1l0-0.1L58,37.9z M61.5,37.2
	L61.5,37.2c1.4,2.1,3,2.1,4.6-0.1l-0.4,0l0.1,0.1c-1.5,1.9-2.7,2-4,0.1l0-0.1c-1.4-2.1-2.8-1.7-4,0.9l0.4,0L58.1,38
	C59.2,35.6,60.3,35.3,61.5,37.2z M65.9,37.3l0-0.2l0,0.1l0,0.1L65.9,37.3z"/>
</svg>
