<svg width="96" height="96" viewBox="0 0 96 96" fill="none" xmlns="http://www.w3.org/2000/svg">
<rect width="96" height="96" rx="32" fill="#FFBBBB"/>
<path d="M47.8257 38.0384C46.8947 37.208 45.0453 36.0632 41.8372 36.0758C38.6292 36.0884 39.1576 37.7113 39.1576 37.7113C39.1576 37.7113 39.0947 39.0322 41.1831 39.07C43.2714 39.1077 45.5234 39.1958 47.3476 39.8626C49.1718 40.5293 48.7692 38.8687 47.8257 38.0384Z" fill="#0A0A1E"/>
<path d="M40.2521 41.045C40.0634 41.1582 40.0131 41.4727 40.2395 41.523C41.5102 41.7495 43.5105 42.1647 45.7499 41.8124C45.9637 41.7747 45.926 41.4979 45.775 41.3469C44.9699 40.5795 42.8437 39.5227 40.2521 41.045Z" fill="#0A0A1E"/>
<path d="M66.6086 62.2811C66.5835 62.2433 66.5331 62.2056 66.4954 62.193C66.4451 62.1678 66.3948 62.1678 66.3444 62.1804C66.2941 62.193 66.2438 62.2056 66.206 62.2433C66.1683 62.2811 66.1431 62.3188 66.118 62.3691C64.8096 66.1559 63.7528 65.2375 63.2496 64.4198C63.0734 64.1304 62.9476 63.8159 62.8722 63.5014C61.6267 58.6578 62.7715 54.1917 62.7715 54.1917C63.4509 56.2549 65.2247 56.8714 66.1306 57.0475C66.1809 57.0601 66.2312 57.0475 66.2815 57.0349C66.3319 57.0223 66.3696 56.9846 66.4073 56.9469C66.4325 56.9091 66.4577 56.8588 66.4577 56.8085C66.4577 56.7581 66.4451 56.7078 66.4199 56.6575C62.9351 49.9772 64.9983 47.1339 64.9983 47.1339C65.6022 47.7881 66.5835 47.851 67.2125 47.8133C67.2628 47.8133 67.3131 47.7881 67.3635 47.763C67.4012 47.7378 67.4389 47.6875 67.4641 47.6497C67.4893 47.5994 67.4893 47.5491 67.4767 47.4988C67.4641 47.4484 67.439 47.3981 67.4138 47.3604C64.8851 44.6304 64.6964 43.6994 64.5957 39.0823C64.5454 36.5158 63.627 35.1697 62.7715 34.4778C61.7902 33.6726 61.0102 32.6536 60.5825 31.471C57.1731 22.0984 50.7947 20.8529 44.8818 21.2051C37.5347 21.6455 33.6221 27.1432 31.7727 29.8858C29.8101 32.7794 28.2753 37.0694 28.3759 38.3778C28.4766 39.6862 29.7221 39.4849 29.7221 40.9945C29.7221 42.5168 27.3317 43.7749 28.2753 48.0397C28.6904 49.9143 30.3763 51.3233 29.6214 55.6133C28.2627 63.3253 34.3014 72.6979 35.8111 74.0943C35.9872 74.2579 36.3143 74.1321 36.2766 73.8805C36.0376 72.1569 36.3898 69.7666 36.3898 69.7666C39.4092 76.1072 47.876 74.9372 50.5305 74.3963C50.5808 74.3837 50.6437 74.3585 50.6815 74.3208C50.7192 74.283 50.7444 74.2327 50.757 74.1698C50.7695 74.1195 50.757 74.0566 50.7318 74.0063C50.7066 73.9559 50.6689 73.9182 50.6186 73.893C47.9389 72.4966 47.335 69.6785 47.335 69.6785C50.0021 70.9114 51.7005 70.7101 52.5308 70.4459C52.5812 70.4334 52.6189 70.3956 52.6566 70.3579C52.6944 70.3201 52.707 70.2698 52.7196 70.2195C52.7321 70.1692 52.7196 70.1188 52.6944 70.0685C52.6692 70.0182 52.6315 69.9804 52.5937 69.9553C51.7886 69.4646 50.5683 67.4266 49.6373 65.4388C49.2599 64.6211 49.1215 63.7027 49.2473 62.8095C49.3731 61.9162 49.7505 61.0733 50.3418 60.3814C51.4237 59.1233 52.8454 57.3494 54.4557 55.4749C54.7954 55.0849 55.2608 55.4623 55.437 55.8901C57.7896 61.6646 60.8593 66.0301 62.9728 67.2253C64.5077 68.1562 66.1809 68.3198 66.9357 67.7411C69.0115 66.1056 67.3635 63.3378 66.6086 62.2811ZM41.0698 56.9091C38.5411 57.0601 39.1198 53.8394 37.2579 53.9149C35.2701 54.003 35.8614 56.4562 34.5279 56.6072C33.1943 56.7581 33.3453 53.0091 34.2889 52.5688C35.7608 51.8894 37.4969 51.7259 38.8808 51.7636C40.5163 51.8139 42.0889 51.751 42.8186 53.2985C43.6866 55.1227 43.5986 56.7581 41.0698 56.9091ZM57.0725 33.9116C53.7134 35.8616 53.5121 36.8303 53.0341 40.2775C52.9334 41.0323 52.8202 41.9129 53.1725 42.4162C53.965 43.5484 55.4873 44.3788 55.0721 46.291C54.0783 50.8326 51.4615 56.1417 47.9515 57.8149C47.5237 58.0162 47.0457 57.6136 46.945 57.1607C46.555 55.3617 45.624 52.0907 45.3724 51.0214C44.1269 44.9071 38.1637 44.8191 38.0002 45.9891C37.9498 46.3413 39.2079 46.7942 40.0005 47.0459C40.7302 47.2849 40.7553 48.3039 40.0256 48.543C39.8369 48.6059 39.6356 48.631 39.4343 48.631C37.9624 48.5304 36.0879 48.6436 35.245 48.7065C34.9682 48.7317 34.6789 48.6436 34.465 48.4801C34.2385 48.3039 34.0876 48.0649 34.0498 47.7881C33.7227 45.9136 34.3014 45.2468 35.006 43.4729C35.3582 42.5923 35.8111 40.8058 35.9621 39.8874C36.0376 39.3968 36.0124 38.8055 35.9495 38.3652C35.8866 37.8494 35.8614 37.321 35.874 36.7926C35.9243 35.0942 36.1005 33.7103 37.4214 33.7103C39.7992 33.7103 44.8315 33.7229 45.624 32.5781C46.4544 31.3829 41.7995 32.5403 36.7924 32.3894C36.6918 32.3894 36.6037 32.3516 36.5282 32.2887C36.4527 32.2258 36.415 32.1378 36.4024 32.0371C36.4024 32.0119 36.4024 31.9742 36.3898 31.949C36.3772 31.861 36.3898 31.7729 36.415 31.6974C36.4401 31.6219 36.4905 31.5465 36.5408 31.4836C36.6037 31.4207 36.6666 31.3703 36.7547 31.3326C36.8301 31.2948 36.9182 31.2823 37.0063 31.2823C39.686 31.2445 41.724 31.0684 42.2524 30.301C42.7934 29.521 40.0885 29.8732 37.0314 29.8984C36.6414 29.8984 36.3143 29.8984 36.3395 29.5084V29.4706C36.3521 29.3197 36.415 29.1687 36.5282 29.0681C36.6414 28.9548 36.7798 28.8919 36.9434 28.8919C38.7424 28.7787 39.5098 28.6403 39.5853 28.0742C39.6608 27.5081 39.3966 27.571 37.4089 27.6842C36.9811 27.7093 37.0943 27.3823 37.346 27.03C37.9624 26.1368 40.7553 23.5451 46.9073 23.7339C57.4499 24.061 57.1228 31.3703 57.4499 33.1442C57.475 33.2952 57.4499 33.4461 57.387 33.5845C57.3115 33.7229 57.1983 33.8361 57.0725 33.9116Z" fill="#0A0A1E"/>
</svg>
