<svg width="102" height="102" viewBox="0 0 102 102" fill="none" xmlns="http://www.w3.org/2000/svg">
<rect x="0.5" y="0.5" width="101" height="101" rx="31.5" fill="white"/>
<path d="M48.4422 31.2066C47.1634 31.9171 45.6003 31.4908 44.7477 30.2119L40.2007 22.3966C39.4902 21.1178 39.9165 19.5547 41.1953 18.7021C42.4742 17.9916 44.0373 18.4179 44.8898 19.6968L49.4369 27.5121C50.1474 28.791 49.7211 30.354 48.4422 31.2066ZM53.1314 34.3327C51.9947 33.6222 51.5684 32.0592 52.2788 30.9224L56.968 22.8229C57.6785 21.6862 59.2416 21.2599 60.3783 21.9703C61.5151 22.6808 61.9414 24.2439 61.2309 25.3807L56.5417 33.4801C55.8313 34.6169 54.2682 35.0432 53.1314 34.3327Z" fill="#C347C4"/>
<path d="M66.2039 29.3593H35.7953C25.5643 29.3593 17.1807 37.7429 17.1807 47.9739V65.0254C17.1807 75.2564 25.5643 83.64 35.7953 83.64H66.2039C76.4348 83.64 84.8185 75.2564 84.8185 65.0254V47.9739C84.8185 37.7429 76.4348 29.3593 66.2039 29.3593ZM76.4348 63.6045C76.4348 67.5832 74.8718 71.2777 72.0298 74.1196C69.1879 76.9615 65.4934 78.5246 61.5147 78.5246H39.6319C35.6532 78.5246 31.9587 76.9615 29.1168 74.1196C26.2748 71.2777 24.7118 67.5832 24.7118 63.6045V51.3842C24.7118 47.4055 26.2748 43.711 29.1168 40.8691C31.9587 38.0271 35.6532 36.4641 39.6319 36.4641H61.5147C65.4934 36.4641 69.1879 38.0271 72.0298 40.8691C74.8718 43.711 76.4348 47.4055 76.4348 51.3842V63.6045Z" fill="url(#paint0_linear_8769_19337)"/>
<path d="M35.5103 65.1675C34.9419 65.1675 34.3735 65.1675 33.9472 65.1675C33.521 65.0254 32.9526 64.8833 32.6684 64.5991C32.2421 64.3149 32.1 63.8886 32.3842 63.4624C32.6684 62.894 32.8105 62.3256 33.2368 61.8993C34.2314 60.9046 35.2261 60.052 36.3629 59.0574C36.505 58.9153 36.9313 58.9153 37.2155 58.9153C37.0734 59.1995 37.0734 59.6258 36.9313 59.91C36.6471 60.3362 36.2208 60.6204 35.9366 61.0467C35.3682 61.7572 35.7945 62.4677 36.6471 62.4677C37.4997 62.4677 38.2101 62.3256 39.0627 62.3256C39.489 62.3256 39.6311 62.0414 39.489 61.6151C39.2048 60.7625 38.7785 60.052 38.7785 59.1995C38.4943 56.7838 38.3522 54.5103 39.2048 52.0947C40.0574 49.8211 41.0521 47.8318 42.7572 46.2687C44.4624 44.7056 46.4517 43.4268 49.0095 43.1426C50.2883 43.0005 51.5672 42.8584 52.8461 42.8584C54.5512 43.0005 56.1143 43.5689 57.6773 44.4215C60.3772 45.8424 62.2244 47.9739 63.5033 50.6737C63.7875 51.2421 64.0717 51.2421 64.4979 50.9579C65.0663 50.5316 65.6347 49.9632 66.061 49.3948C66.7715 48.8264 66.061 47.8318 65.3505 47.8318C64.9242 47.8318 64.4979 47.8318 64.0717 47.8318C63.7875 47.8318 63.5033 47.5476 63.2191 47.4055C63.5033 47.2634 63.6454 46.8371 63.9296 46.8371C65.6347 46.8371 67.1978 46.5529 68.9029 46.695C70.3239 46.695 70.8923 48.116 70.0397 49.2527C68.9029 50.8158 67.3399 52.0947 65.7768 53.2314C62.3665 55.7892 58.672 57.6364 54.8354 59.4837C51.4251 61.0467 47.8727 62.3256 44.3203 63.6045C42.1888 64.3149 39.7732 64.7412 37.4996 65.3096C36.9313 65.3096 36.2208 65.1675 35.5103 65.1675ZM64.3559 56.4996C64.3559 57.4943 64.2138 58.3469 64.0717 59.1995C63.5033 61.7572 62.3665 64.0307 60.6613 65.878C58.8141 68.0094 56.5406 69.2883 53.8407 69.8567C52.4198 70.1409 50.9988 70.1409 49.5778 70.1409C49.2936 70.1409 49.0095 69.9988 48.7253 69.9988C47.3043 69.4304 47.1622 68.5778 48.1569 67.4411C49.862 65.4517 51.8514 63.8887 53.9828 62.4677C57.1089 60.4783 60.3772 58.6311 63.5033 56.9259C63.7875 56.7838 63.9296 56.7838 64.3559 56.4996Z" fill="url(#paint1_linear_8769_19337)"/>
<rect x="0.5" y="0.5" width="101" height="101" rx="31.5" stroke="#CFCFCF"/>
<defs>
<linearGradient id="paint0_linear_8769_19337" x1="24.7909" y1="35.8801" x2="77.8184" y2="77.753" gradientUnits="userSpaceOnUse">
<stop stop-color="#A219AF"/>
<stop offset="1" stop-color="#4BDCFF"/>
</linearGradient>
<linearGradient id="paint1_linear_8769_19337" x1="42.3791" y1="48.6065" x2="61.5582" y2="79.1449" gradientUnits="userSpaceOnUse">
<stop stop-color="#D037DF"/>
<stop offset="1" stop-color="#5383FF"/>
</linearGradient>
</defs>
</svg>
