<?xml version="1.0" encoding="utf-8"?>
<!-- Generator: Adobe Illustrator 26.0.1, SVG Export Plug-In . SVG Version: 6.00 Build 0)  -->
<svg version="1.1" id="Layer_1" xmlns="http://www.w3.org/2000/svg" xmlns:xlink="http://www.w3.org/1999/xlink" x="0px" y="0px"
	 viewBox="0 0 102 102" style="enable-background:new 0 0 102 102;" xml:space="preserve">
<style type="text/css">
	.st0{fill:#FFFFFF;}
	.st1{fill:#BAC4D6;}
	.st2{fill:#FEAB33;}
</style>
<g>
	<path class="st0" d="M32,101.5C14.6,101.5,0.5,87.4,0.5,70V32C0.5,14.6,14.6,0.5,32,0.5h38c17.4,0,31.5,14.1,31.5,31.5v38
		c0,17.4-14.1,31.5-31.5,31.5H32z"/>
	<path class="st1" d="M70,1c17.1,0,31,13.9,31,31v38c0,17.1-13.9,31-31,31H32C14.9,101,1,87.1,1,70V32C1,14.9,14.9,1,32,1H70 M70,0
		H32C14.3,0,0,14.3,0,32v38c0,17.7,14.3,32,32,32h38c17.7,0,32-14.3,32-32V32C102,14.3,87.7,0,70,0L70,0z"/>
</g>
<path class="st2" d="M65.3,18c0.3,0,0.5,0,0.8,0c0.2,0.1,0.4,0.2,0.6,0.3c0.9,0.6,1.1,1.6,0.6,2.6c-1.3,2.4-2.5,4.9-3.8,7.3
	c-2.9,5.6-5.8,11.2-8.7,16.8c-0.2,0.4-0.2,0.4,0.3,0.4c7.2,0,14.3,0,21.5,0c0.2,0,0.4,0,0.6,0c0.8,0.2,1.2,0.7,1.5,1.4
	c0,0.3,0,0.5,0,0.8c-0.2,0.4-0.3,0.7-0.6,1c-4.3,3.7-8.6,7.4-12.8,11.1C56.5,67.2,47.9,74.6,39.3,82c-0.8,0.7-1.6,1.6-2.6,2
	c-0.3,0-0.5,0-0.8,0c-0.5-0.2-0.9-0.4-1.2-0.9c-0.4-0.7-0.3-1.4,0.1-2.1c1.3-2.5,2.6-5,3.8-7.4c2.9-5.6,5.7-11.1,8.6-16.7
	c0.2-0.4,0.2-0.4-0.3-0.4c-7.2,0-14.3,0-21.5,0c-0.2,0-0.4,0-0.6,0c-0.8-0.2-1.2-0.7-1.5-1.4c0-0.3,0-0.5,0-0.8
	c0.2-0.4,0.3-0.8,0.7-1C30.4,47.8,36.7,42.4,43,37c6.7-5.8,13.4-11.6,20.1-17.4C63.8,19,64.4,18.3,65.3,18z"/>
</svg>
