<?xml version="1.0" encoding="utf-8"?>
<!-- Generator: Adobe Illustrator 26.0.1, SVG Export Plug-In . SVG Version: 6.00 Build 0)  -->
<svg version="1.1" id="Layer_1" xmlns="http://www.w3.org/2000/svg" xmlns:xlink="http://www.w3.org/1999/xlink" x="0px" y="0px"
	 viewBox="0 0 102 102" style="enable-background:new 0 0 102 102;" xml:space="preserve">
<style type="text/css">
	.st0{fill:#DCFDFF;}
	.st1{fill:#00C9FF;}
	.st2{fill:#0D67FE;}
</style>
<path class="st0" d="M32,0h38c17.7,0,32,14.3,32,32v38c0,17.7-14.3,32-32,32H32C14.3,102,0,87.7,0,70V32C0,14.3,14.3,0,32,0z"/>
<path class="st1" d="M80,23.3v21.4L17.2,70L80,23.3z"/>
<path class="st2" d="M68.2,22.4v36.9c0,5.2-2.1,10.1-5.8,13.7c-3.7,3.6-8.7,5.7-13.9,5.7s-10.2-2-13.9-5.7C31,69.4,29,64.4,29,59.3
	V43.7l11.8-6.4v22c-0.1,1,0,1.9,0.3,2.8c0.3,0.9,0.8,1.8,1.4,2.5s1.4,1.3,2.3,1.7c0.9,0.4,1.9,0.6,2.8,0.6c1,0,1.9-0.2,2.8-0.6
	c0.9-0.4,1.7-1,2.3-1.7c0.6-0.7,1.1-1.6,1.4-2.5c0.3-0.9,0.4-1.9,0.3-2.8V29.8L68.2,22.4z"/>
</svg>
