<svg width="102" height="102" viewBox="0 0 102 102" fill="none" xmlns="http://www.w3.org/2000/svg">
<rect width="102" height="102" rx="32" fill="#E5BC25"/>
<g clip-path="url(#clip0_8769_19340)">
<path d="M76.5027 27.9822H25.4971V73.9225H76.5027V27.9822Z" fill="#B7A38E"/>
<path d="M34.4865 66.2666H25.4971V69.35H34.4865V66.2666Z" fill="#6A5C52"/>
<path d="M76.5031 66.2666H67.5137V69.35H76.5031V66.2666Z" fill="#6A5C52"/>
<path d="M67.5132 70.8441H34.4863V73.9275H67.5132V70.8441Z" fill="#6A5C52"/>
<path d="M63.016 27.9822H38.9785V32.4644H63.016V27.9822Z" fill="#312A1D"/>
<path d="M72.006 41.7999H76.5032V27.9822V23.5H72.006H63.0166V27.9822H72.006V41.7999Z" fill="#312A1D"/>
<path d="M81.0001 41.7999H76.5029V69.3451H81.0001V41.7999Z" fill="#312A1D"/>
<path d="M29.9893 27.9822H38.9787V23.5H29.9893H25.4971V27.9822V41.7999H29.9893V27.9822Z" fill="#312A1D"/>
<path d="M29.9893 69.3501H25.4971V73.9226H29.9893H34.4865V69.3501H29.9893Z" fill="#312A1D"/>
<path d="M67.5132 73.9225H34.4863V78.5H67.5132V73.9225Z" fill="#312A1D"/>
<path d="M67.5137 69.3501V73.9226H72.0059H76.5031V69.3501H72.0059H67.5137Z" fill="#312A1D"/>
<path d="M25.4972 41.7999H21V69.3451H25.4972V41.7999Z" fill="#312A1D"/>
<path d="M67.5138 29.5715H66.0459V32.6499H67.5138V34.144H70.5381V32.6499V29.5715H67.5138Z" fill="#6A5C52"/>
<path d="M36.0479 29.5715H34.5801H31.5508V32.6499V34.144H34.5801V32.6499H36.0479V29.5715Z" fill="#6A5C52"/>
<path d="M43.5643 49.4608H38.9785V54.1285H43.5643V49.4608Z" fill="#312A1D"/>
<path d="M47.9727 54.0333H44.9434V57.1167H47.9727V54.0333Z" fill="#312A1D"/>
<path d="M57.0557 54.0333H54.0264V57.1167H57.0557V54.0333Z" fill="#312A1D"/>
<path d="M57.0508 63.1883H54.0264V61.6892H47.9727V63.1883H44.9434V57.1167H41.9141V67.7607H44.9434V69.3501H47.9727V70.8441H49.4405V72.3382H52.4649V70.8441H54.0264V69.3501H57.0508V67.7607H60.0801V57.1167H57.0508V63.1883Z" fill="#312A1D"/>
<path d="M63.0165 49.4608H58.4307V54.1285H63.0165V49.4608Z" fill="#312A1D"/>
</g>
<defs>
<clipPath id="clip0_8769_19340">
<rect width="60" height="55" fill="white" transform="translate(21 23.5)"/>
</clipPath>
</defs>
</svg>
