<svg width="102" height="102" viewBox="0 0 102 102" fill="none" xmlns="http://www.w3.org/2000/svg">
<rect width="102" height="102" rx="32" fill="#1741C3"/>
<g clip-path="url(#clip0_8769_19185)">
<path d="M34.5019 69.2678C32.0963 66.9241 30.1459 64.3187 28.7825 61.2955C22.1287 46.5492 30.8863 29.4592 46.7146 26.5897C52.2807 25.5811 57.5903 26.4336 62.567 29.147C63.2594 29.524 63.6787 29.4328 64.2442 28.9621C67.3423 26.3783 70.4404 23.7897 73.6176 21.3044C74.2693 20.7929 75.2661 20.4832 76.0951 20.5C77.0583 20.5216 77.6981 21.3404 77.9329 22.313C78.1869 23.3671 77.7268 24.1908 76.9385 24.8415C74.3819 26.9522 71.8157 29.051 69.252 31.1569C68.6985 31.6108 68.1474 32.0694 67.6921 32.4464C69.1873 34.4827 70.8142 36.3605 72.0721 38.4592C80.7602 52.9606 72.1272 72.1085 55.5561 75.2662C49.8822 76.3468 44.5342 75.4607 39.4761 72.7617C38.7238 72.3607 38.3045 72.4783 37.715 72.9682C34.6145 75.552 31.4805 78.0901 28.3704 80.6619C27.4311 81.4375 26.4392 81.8097 25.2938 81.1902C23.6549 80.3065 23.5519 78.3279 25.1261 77.0072C27.9439 74.6467 30.8024 72.3367 33.6417 70.0026C33.9149 69.7769 34.1808 69.544 34.5043 69.2654L34.5019 69.2678ZM63.5733 35.825C62.9887 36.3005 62.4615 36.7231 61.9392 37.1529C55.6687 42.2989 49.3958 47.4401 43.1301 52.5908C42.222 53.3376 41.2708 53.8899 40.0775 53.316C38.8651 52.7325 38.5992 51.6615 38.6064 50.4105C38.6303 45.9297 38.6159 41.4464 38.6135 36.9656C38.6135 36.5886 38.5776 36.2116 38.5536 35.765C29.1036 43.2042 29.1707 58.6901 38.4458 66.0309C38.8603 65.7043 39.2988 65.3681 39.7253 65.0175C46.1204 59.7731 52.5203 54.5335 58.9058 49.2747C59.8378 48.5086 60.8106 48.062 61.9751 48.6071C63.1468 49.157 63.408 50.2136 63.4056 51.4142C63.3912 55.895 63.4008 60.3782 63.4008 64.859C63.4008 65.2408 63.4008 65.6226 63.4008 66.1029C72.2998 59.4417 73.4235 43.927 63.5781 35.825H63.5733ZM58.4913 55.9478C53.1169 60.3566 47.9654 64.5829 42.7563 68.8548C47.4478 71.3689 53.6632 71.2921 57.9689 69.4623C58.2397 69.347 58.4577 68.7875 58.4673 68.4298C58.5128 66.3502 58.4913 64.2707 58.4913 62.1912C58.4913 60.2101 58.4913 58.2291 58.4913 55.9454V55.9478ZM59.2652 33.0203C58.9777 32.845 58.8555 32.749 58.7165 32.6913C54.001 30.7031 49.2305 30.5494 44.3928 32.2375C43.7219 32.4728 43.4967 32.8258 43.5039 33.539C43.5374 37.333 43.5183 41.1295 43.5255 44.9259C43.5255 45.1732 43.5926 45.4206 43.6549 45.8312C48.919 41.5113 54.0514 37.3018 59.2676 33.0227L59.2652 33.0203Z" fill="white"/>
</g>
<defs>
<clipPath id="clip0_8769_19185">
<rect width="54" height="61" fill="white" transform="translate(24 20.5)"/>
</clipPath>
</defs>
</svg>
