<svg width="390" height="297" viewBox="0 0 390 297" fill="none" xmlns="http://www.w3.org/2000/svg">
<g clip-path="url(#clip0_13_108)">
<path d="M406.923 84.1968C416.271 84.1968 423.848 75.7051 423.848 65.23C423.848 54.7549 416.271 46.2632 406.923 46.2632C397.576 46.2632 389.998 54.7549 389.998 65.23C389.998 75.7051 397.576 84.1968 406.923 84.1968Z" fill="black"/>
<path d="M436.319 35.9528C435.218 34.7198 428.36 40.2896 418.787 50.0806C418.943 50.2273 419.101 50.374 419.252 50.5264C423.062 46.6721 425.164 44.9368 425.472 45.2838C426.031 45.9102 418.933 54.8829 409.614 65.3229C400.298 75.7628 392.291 83.7197 391.732 83.0933C391.485 82.8168 392.253 81.454 394.509 78.5308C394.378 78.37 394.252 78.2035 394.127 78.037C386.898 87.1847 383.071 93.4091 384.058 94.518C385.546 96.1856 398.45 84.4279 412.882 68.2545C427.312 52.0811 437.807 37.6204 436.319 35.9528Z" fill="#F26EF9"/>
<path d="M-1.02847 143.77L-1.62695 1H391.657V140.998L340.028 139.881L325.704 93.7064L296.378 69.1665L251.492 38.5027L202.337 21.8746L143.486 27.3726L93.8114 63.1768L59.1791 97.3717L50.9599 139.613L43.0998 143.636L-1.02847 143.77Z" fill="url(#paint0_linear_13_108)" stroke="black" stroke-width="0.367114" stroke-linejoin="round"/>
<path d="M3.04184 143.636L2.44336 1H387.548V140.998L336.996 139.881L322.992 93.7064L294.264 69.1665L250.336 38.5027L202.178 21.8746L144.564 27.3726L95.9267 63.1768L61.9726 97.3718L53.9529 139.613L46.2524 143.636H3.04184Z" fill="url(#paint1_linear_13_108)" stroke="black" stroke-width="0.367114" stroke-linejoin="round"/>
<path d="M52.5528 151.592H-0.273438V155.971H52.5528V151.592Z" fill="#4035D8" stroke="black" stroke-width="0.367114" stroke-linejoin="round"/>
<path d="M-5.50195 155.971H57.8576C57.8576 159.753 54.7854 162.778 51.0349 162.778H1.32077C-2.42973 162.778 -5.50195 159.753 -5.50195 155.971Z" fill="url(#paint2_linear_13_108)"/>
<path d="M-5.50195 155.971H57.8576C57.8576 159.753 54.7854 162.778 51.0349 162.778H1.32077C-2.42973 162.778 -5.50195 159.753 -5.50195 155.971Z" stroke="black" stroke-width="0.367114" stroke-linejoin="round"/>
<path d="M49.4789 162.779H2.87695V166.282H49.4789V162.779Z" fill="#4035D8" stroke="black" stroke-width="0.367114" stroke-linejoin="round"/>
<path d="M2.43994 166.322H49.9596C52.7924 166.322 55.1066 168.631 55.1066 171.458V173.01H-2.70703V171.458C-2.70703 168.591 -0.392892 166.322 2.43994 166.322Z" fill="url(#paint3_linear_13_108)" stroke="black" stroke-width="0.367114" stroke-linejoin="round"/>
<path d="M-0.671875 173.01H53.0321V173.448C53.0321 174.244 52.3937 174.881 51.5958 174.881H0.764488C-0.0334914 174.881 -0.671875 174.244 -0.671875 173.448V173.01Z" fill="#9E36AD" stroke="black" stroke-width="0.367114" stroke-linejoin="round"/>
<path d="M46.9667 248.969H4.87328V185.67C4.87328 181.808 3.71621 178.066 1.60156 174.841H50.797C48.3233 178.265 46.9667 182.326 46.9667 186.506V248.969Z" fill="url(#paint4_linear_13_108)" stroke="black" stroke-width="0.367114" stroke-linejoin="round"/>
<path d="M17.6426 174.881V248.969" stroke="black" stroke-width="0.367114" stroke-linejoin="round"/>
<path d="M25.9395 174.881V248.969" stroke="black" stroke-width="0.367114" stroke-linejoin="round"/>
<path d="M34.1602 174.881V248.969" stroke="black" stroke-width="0.367114" stroke-linejoin="round"/>
<path d="M9.38298 248.969V174.841V184.077C9.10368 178.464 1.64258 174.841 1.64258 174.841" stroke="black" stroke-width="0.367114" stroke-linejoin="round"/>
<path d="M9.38134 184.077C9.38134 184.077 9.10205 180.893 9.90002 178.265C10.6581 175.717 14.1293 175.12 15.7652 177.27C16.7227 178.544 17.6005 180.375 17.6803 182.923V174.841H9.38134V184.077Z" fill="black" stroke="black" stroke-width="0.367114" stroke-linejoin="round"/>
<path d="M17.7207 184.077C17.7207 184.077 17.7606 180.813 18.5586 178.185C19.3566 175.558 22.7879 175.04 24.4237 177.19C25.3813 178.464 25.9399 180.335 26.0197 182.923V174.841H17.7207V184.077Z" fill="black" stroke="black" stroke-width="0.367114" stroke-linejoin="round"/>
<path d="M42.5391 174.881V248.969" stroke="black" stroke-width="0.367114" stroke-linejoin="round"/>
<path d="M1.60156 174.881C1.60156 174.881 9.10257 178.464 9.34196 184.117V174.881H1.60156Z" fill="black" stroke="black" stroke-width="0.367114" stroke-linejoin="round"/>
<path d="M42.5778 248.969V174.841V184.077C42.8571 178.464 50.3182 174.841 50.3182 174.841H42.498" fill="black"/>
<path d="M42.5778 248.969V174.841V184.077C42.8571 178.464 50.3182 174.841 50.3182 174.841H42.498" stroke="black" stroke-width="0.367114" stroke-linejoin="round"/>
<path d="M42.4979 184.077C42.4979 184.077 42.7772 180.892 41.9792 178.265C41.2212 175.717 37.351 175.08 35.6752 177.23C34.7176 178.504 34.1989 180.375 34.1191 182.962V174.881H42.458L42.4979 184.077Z" fill="black" stroke="black" stroke-width="0.367114" stroke-linejoin="round"/>
<path d="M34.1595 174.881H25.9004V180.574C25.9004 177.986 27.7357 175.836 30.01 175.836C32.2842 175.836 34.1196 177.946 34.1196 180.574" fill="black"/>
<path d="M34.1595 174.881H25.9004V180.574C25.9004 177.986 27.7357 175.836 30.01 175.836C32.2842 175.836 34.1196 177.946 34.1196 180.574" stroke="black" stroke-width="0.367114" stroke-linejoin="round"/>
<path d="M389.781 151.592H336.955V155.971H389.781V151.592Z" fill="#4035D8" stroke="black" stroke-width="0.367114" stroke-linejoin="round"/>
<path d="M331.688 155.971H395.047C395.047 159.753 391.975 162.778 388.184 162.778H338.55C334.76 162.778 331.688 159.753 331.688 155.971Z" fill="url(#paint5_linear_13_108)"/>
<path d="M331.688 155.971H395.047C395.047 159.753 391.975 162.778 388.184 162.778H338.55C334.76 162.778 331.688 159.753 331.688 155.971Z" stroke="black" stroke-width="0.367114" stroke-linejoin="round"/>
<path d="M386.707 162.779H340.105V166.282H386.707V162.779Z" fill="#4035D8" stroke="black" stroke-width="0.367114" stroke-linejoin="round"/>
<path d="M339.629 166.322H387.149C389.982 166.322 392.296 168.631 392.296 171.458V173.01H334.482V171.458C334.482 168.591 336.797 166.322 339.629 166.322Z" fill="url(#paint6_linear_13_108)" stroke="black" stroke-width="0.367114" stroke-linejoin="round"/>
<path d="M336.555 173.01H390.299V173.448C390.299 174.244 389.66 174.881 388.862 174.881H337.991C337.193 174.881 336.555 174.244 336.555 173.448V173.01Z" fill="#9E36AD" stroke="black" stroke-width="0.367114" stroke-linejoin="round"/>
<path d="M384.155 248.969H342.102V185.67C342.102 181.808 340.945 178.066 338.83 174.841H388.026C385.552 178.265 384.195 182.326 384.195 186.506L384.155 248.969Z" fill="url(#paint7_linear_13_108)" stroke="black" stroke-width="0.367114" stroke-linejoin="round"/>
<path d="M354.869 174.881V248.969" stroke="black" stroke-width="0.367114" stroke-linejoin="round"/>
<path d="M363.168 174.881V248.969" stroke="black" stroke-width="0.367114" stroke-linejoin="round"/>
<path d="M371.348 174.881V248.969" stroke="black" stroke-width="0.367114" stroke-linejoin="round"/>
<path d="M346.57 248.969V174.841V184.077C346.291 178.464 338.83 174.841 338.83 174.841" stroke="black" stroke-width="0.367114" stroke-linejoin="round"/>
<path d="M346.571 184.077C346.571 184.077 346.291 180.893 347.089 178.265C347.848 175.717 351.319 175.12 352.955 177.27C353.912 178.544 354.79 180.375 354.87 182.923V174.841H346.571V184.077Z" fill="black" stroke="black" stroke-width="0.367114" stroke-linejoin="round"/>
<path d="M354.91 184.077C354.91 184.077 354.95 180.813 355.748 178.185C356.506 175.638 359.977 175.04 361.613 177.19C362.571 178.464 363.129 180.335 363.209 182.923V174.841H354.91V184.077Z" fill="black" stroke="black" stroke-width="0.367114" stroke-linejoin="round"/>
<path d="M379.727 174.881V248.969" stroke="black" stroke-width="0.367114" stroke-linejoin="round"/>
<path d="M338.791 174.881C338.791 174.881 346.292 178.464 346.531 184.117V174.881H338.791Z" fill="black" stroke="black" stroke-width="0.367114" stroke-linejoin="round"/>
<path d="M379.806 248.969V174.841V184.077C380.086 178.464 387.547 174.841 387.547 174.841H379.727" fill="black"/>
<path d="M379.806 248.969V174.841V184.077C380.086 178.464 387.547 174.841 387.547 174.841H379.727" stroke="black" stroke-width="0.367114" stroke-linejoin="round"/>
<path d="M379.687 184.077C379.687 184.077 379.967 180.892 379.169 178.265C378.411 175.717 374.54 175.08 372.865 177.23C371.907 178.504 371.388 180.375 371.309 182.962V174.881H379.647L379.687 184.077Z" fill="black" stroke="black" stroke-width="0.367114" stroke-linejoin="round"/>
<path d="M371.349 174.881H363.09V180.574C363.09 177.986 364.925 175.836 367.199 175.836C369.474 175.836 371.309 177.946 371.309 180.574" fill="black"/>
<path d="M371.349 174.881H363.09V180.574C363.09 177.986 364.925 175.836 367.199 175.836C369.474 175.836 371.309 177.946 371.309 180.574" stroke="black" stroke-width="0.367114" stroke-linejoin="round"/>
<path d="M107.573 84.5432L112.52 94.6005C112.52 94.6005 117.348 56.8743 156.529 56.5614L148.988 39.084L119.463 45.7889L104.102 67.334L107.573 84.5432Z" fill="url(#paint8_linear_13_108)" stroke="black" stroke-width="0.367114" stroke-linejoin="round"/>
<path d="M55.7025 151.592C55.7025 151.592 68.0313 103.674 112.559 94.6003L105.097 78.9556L69.8267 98.0422L50.2363 137.914L55.7025 151.592Z" fill="url(#paint9_linear_13_108)" stroke="black" stroke-width="0.367114" stroke-linejoin="round"/>
<path d="M281.77 84.5432L276.823 94.6005C276.823 94.6005 271.995 56.8743 232.814 56.5614L240.315 39.084L269.841 45.7889L285.202 67.334L281.77 84.5432Z" fill="url(#paint10_linear_13_108)" stroke="black" stroke-width="0.367114" stroke-linejoin="round"/>
<path d="M333.678 151.592C333.678 151.592 321.35 103.674 276.822 94.6003L284.283 78.9556L319.554 98.0422L339.105 137.914L333.678 151.592Z" fill="url(#paint11_linear_13_108)" stroke="black" stroke-width="0.367114" stroke-linejoin="round"/>
<path d="M236.008 32.2447L219.53 25.4504L194.793 20.8911C194.753 21.1146 194.713 21.3381 194.713 21.5616C194.673 21.3381 194.673 21.1146 194.633 20.8911L169.896 25.4504L153.417 32.2447L149.068 39.039L156.609 56.5165C156.609 56.5165 160.759 45.431 176.399 42.5703C184.459 41.0952 188.688 42.0786 195.072 35.776C201.575 42.4809 205.047 41.0952 213.106 42.5703C228.747 45.3863 232.896 56.5165 232.896 56.5165L240.397 39.039L236.008 32.2447Z" fill="url(#paint12_linear_13_108)"/>
<path d="M236.008 32.2447L219.53 25.4504L194.793 20.8911C194.753 21.1146 194.713 21.3381 194.713 21.5616C194.673 21.3381 194.673 21.1146 194.633 20.8911L169.896 25.4504L153.417 32.2447L149.068 39.039L156.609 56.5165C156.609 56.5165 160.759 45.431 176.399 42.5703C184.459 41.0952 188.688 42.0786 195.072 35.776C201.575 42.4809 205.047 41.0952 213.106 42.5703C228.747 45.3863 232.896 56.5165 232.896 56.5165L240.397 39.039L236.008 32.2447Z" stroke="black" stroke-width="0.367114" stroke-linejoin="round"/>
<path d="M334.038 151.592C334.038 151.592 321.709 103.674 277.182 94.6003L284.643 78.9556L319.913 98.0422L339.464 137.914L334.038 151.592Z" fill="url(#paint13_linear_13_108)" stroke="black" stroke-width="0.367114" stroke-linejoin="round"/>
<path d="M194.991 14.0972L223.838 16.9579L252.764 25.5402L277.183 39.0841L299.326 53.5667L319.795 78.2854L336.512 98.713L346.966 126.158L349.041 141.848L391.892 141.982V143.859V151.682H334.118C334.118 151.682 327.894 93.1703 282.25 84.6327C282.25 84.6327 278.699 47.577 238.161 45.3867C231.538 27.4623 201.494 32.8709 194.991 23.7969H194.911C188.407 32.8709 158.324 27.4623 151.74 45.3867C111.203 47.577 107.652 84.6327 107.652 84.6327C62.0074 93.1703 55.7832 151.682 55.7832 151.682H-2.07031V142.027L40.7812 141.893L44.7711 124.37L55.9428 97.2826L72.9796 72.5192L95.4029 52.7621L116.549 35.3293L138.893 24.4674L163.271 17.4943L194.991 14.0972Z" fill="#D556F4" stroke="black" stroke-width="0.367114" stroke-linejoin="round"/>
<path d="M194.871 15.9745C259.028 16.8238 338.307 65.9483 347.644 143.636L395.523 143.815V140.373L350.955 139.926C338.387 66.8423 268.484 14.0971 194.871 12.7114C125.446 12.7114 50.2369 65.1884 39.1849 139.792L-5.50195 139.568V143.815L42.1374 143.636C51.4339 65.9483 133.147 14.0971 194.871 15.9745Z" fill="#4035D8" stroke="black" stroke-width="0.367114" stroke-linejoin="round"/>
<mask id="mask0_13_108" style="mask-type:luminance" maskUnits="userSpaceOnUse" x="-11" y="249" width="74" height="46">
<path d="M62.5909 249.355H-10.7871V295H62.5909V249.355Z" fill="white"/>
</mask>
<g mask="url(#mask0_13_108)">
<path d="M40.4688 281.548C41.0154 282.293 41.7228 282.942 42.4945 283.525C43.2662 284.109 44.1666 284.595 45.1312 284.919C46.0959 285.244 47.157 285.406 48.0574 284.919C48.8291 284.53 49.2793 283.72 49.1506 282.942C49.1185 282.845 49.1185 282.715 49.0542 282.618C48.7969 281.969 47.9609 281.678 47.2213 281.807C46.5782 281.937 46.0316 282.358 45.9994 282.942C45.9994 282.974 45.9994 283.007 45.9994 283.007" stroke="#D556F4" stroke-width="0.367114" stroke-linejoin="round"/>
<path d="M11.9798 281.548C11.4332 282.293 10.7258 282.942 9.95405 283.525C9.18233 284.109 8.28198 284.595 7.31733 284.919C6.35268 285.244 5.29156 285.406 4.35906 284.919C3.58734 284.53 3.13716 283.72 3.23363 282.942C3.23363 282.845 3.26579 282.715 3.3301 282.618C3.58734 281.969 4.42337 281.678 5.16294 281.807C5.80604 281.937 6.35268 282.358 6.38483 282.942C6.38483 282.974 6.38483 283.007 6.38483 283.007" stroke="#D556F4" stroke-width="0.367114" stroke-linejoin="round"/>
<path d="M35.1973 276.523C36.998 276.717 38.8308 276.717 40.5672 276.361C42.8823 275.907 44.6509 274.772 46.1622 273.184C48.1236 271.174 48.8632 268.645 51.1462 266.895C52.6253 265.792 54.8119 264.982 56.6126 266.019C58.2846 266.992 58.7348 269.261 58.0596 270.817C57.6737 271.725 56.8377 272.471 55.8087 272.762C55.0691 272.957 54.2331 272.892 53.5578 272.568C53.172 272.406 52.8504 272.146 52.6253 271.855C52.143 271.141 52.4646 270.169 53.2041 269.618C54.7476 268.516 56.8377 269.067 57.9952 270.299C58.2203 270.558 58.4454 270.85 58.7027 271.077C59.3136 271.595 60.0532 271.693 60.8249 271.433C61.9182 271.044 62.304 269.877 62.5291 268.905" stroke="#D556F4" stroke-width="0.367114" stroke-linejoin="round"/>
<path d="M16.9324 276.523C15.1317 276.717 13.2988 276.717 11.5625 276.361C9.24729 275.907 7.47877 274.772 5.96748 273.184C4.03817 271.174 3.2986 268.645 0.983432 266.895C-0.495703 265.792 -2.68226 264.982 -4.48294 266.019C-6.15501 266.992 -6.60518 269.261 -5.92992 270.817C-5.54406 271.725 -4.74018 272.471 -3.67907 272.762C-2.9395 272.957 -2.10346 272.892 -1.42821 272.568C-1.04235 272.406 -0.72079 272.146 -0.495705 271.855C-0.0133773 271.141 -0.334928 270.169 -1.0745 269.618C-2.61795 268.516 -4.70803 269.067 -5.86561 270.299C-6.0907 270.558 -6.31579 270.85 -6.57303 271.077C-7.18397 271.595 -7.92354 271.693 -8.72742 271.433C-9.82069 271.044 -10.2066 269.877 -10.4316 268.905" stroke="#D556F4" stroke-width="0.367114" stroke-linejoin="round"/>
<path d="M37.2226 277.819C37.2547 277.949 37.6727 278.208 37.7692 278.273C38.2515 278.695 38.7339 279.148 39.184 279.602C40.4702 280.931 41.3706 282.325 42.3031 283.849C42.8497 284.757 43.525 285.697 44.2645 286.507C44.4253 286.669 44.5861 286.864 44.8112 286.994C44.8112 286.994 40.5989 287.804 36.4508 285.989C32.3028 284.206 26.8686 278.273 26.1934 276.328L28.7336 275.42L36.8367 276.49L37.2226 277.819Z" fill="#4340D3" stroke="black" stroke-width="0.367114" stroke-linejoin="round"/>
<path d="M26.1934 276.328C26.1934 276.328 30.7272 276.523 36.4187 281.742" stroke="black" stroke-width="0.367114" stroke-miterlimit="10" stroke-linecap="round"/>
<path d="M40.1475 273.411C42.3662 273.314 44.5527 273.411 46.7393 273.768C47.8326 273.962 48.8937 274.221 49.987 274.513C51.7555 274.967 53.524 275.615 55.389 275.615C54.8102 276.264 53.6205 277.171 52.9774 277.593C50.5657 279.181 47.5753 280.122 44.5206 279.862C42.1411 279.668 39.9867 278.857 37.8323 278.047C36.739 277.658 35.6458 277.042 34.5203 276.718C32.8161 276.199 30.6296 275.778 28.7324 276.037C28.7324 275.907 32.1087 274.384 32.1087 274.384C33.8451 274.124 35.5815 273.897 37.3178 273.67C38.2825 273.541 39.215 273.443 40.1475 273.411Z" fill="#BB31DD" stroke="black" stroke-width="0.367114" stroke-linejoin="round"/>
<path d="M40.0513 259.99C40.0513 259.99 47.672 255.257 51.5949 262.259C50.6624 263.004 49.7621 263.815 48.9261 264.625C46.8038 266.765 45.8713 269.52 43.4597 271.466C41.1124 273.378 38.0255 274.351 34.81 274.416L34.5527 272.373L36.3534 262.421L40.0513 259.99Z" fill="url(#paint14_linear_13_108)" stroke="black" stroke-width="0.367114" stroke-linejoin="round"/>
<path d="M51.6283 262.259C50.1492 261.74 48.4771 261.545 46.8693 261.74C43.8789 262.097 41.8531 264.398 40.3097 266.473C39.6023 267.413 38.9913 268.418 38.6055 269.488" stroke="black" stroke-width="0.367114" stroke-miterlimit="10"/>
<path d="M31.5311 255.289C31.5311 255.289 35.9364 249.973 41.3063 252.793C41.3063 252.793 40.8882 253.831 40.8882 253.895C40.5345 254.965 40.3416 256.1 40.213 257.202C39.7628 261.222 40.5667 265.339 39.377 269.294C38.9268 270.753 38.1229 272.341 36.7081 273.281C35.1646 274.319 33.4604 275.162 31.5954 275.648C29.8912 276.102 27.9619 276.102 26.1934 276.329L30.5021 265.728L30.9523 258.499L31.5311 255.289Z" fill="#4340D3" stroke="black" stroke-width="0.367114" stroke-linejoin="round"/>
<path d="M41.3055 252.793C41.3055 252.793 34.9387 253.376 33.2988 261.578" stroke="black" stroke-width="0.367114" stroke-miterlimit="10"/>
<path d="M15.2605 277.819C15.2283 277.949 14.8103 278.208 14.7138 278.273C14.2315 278.695 13.7492 279.148 13.299 279.602C12.0128 280.931 11.1125 282.325 10.18 283.849C9.63335 284.757 8.95809 285.697 8.21852 286.507C8.05775 286.669 7.89697 286.864 7.67189 286.994C7.67189 286.994 11.8842 287.804 16.0322 285.989C20.1802 284.206 25.6144 278.273 26.2897 276.328L23.7494 275.42L15.6463 276.49L15.2605 277.819Z" fill="#4340D3" stroke="black" stroke-width="0.367114" stroke-linejoin="round"/>
<path d="M26.2898 276.328C26.2898 276.328 21.7559 276.523 16.0645 281.742" stroke="black" stroke-width="0.367114" stroke-miterlimit="10" stroke-linecap="round"/>
<path d="M12.3344 273.411C10.1478 273.314 7.92912 273.411 5.74257 273.768C4.6493 273.962 3.58818 274.221 2.52706 274.513C0.758529 274.967 -1.01 275.615 -2.875 275.615C-2.29621 276.264 -1.10647 277.171 -0.463366 277.593C1.94827 279.181 4.9387 280.122 7.99343 279.862C10.3408 279.668 12.5273 278.857 14.6817 278.047C15.775 277.658 16.8682 277.042 17.9937 276.718C19.6979 276.199 21.9809 275.68 23.7816 276.037C23.7816 275.875 20.3732 274.384 20.3732 274.384C18.6368 274.124 16.9004 273.897 15.164 273.67C14.1994 273.541 13.2669 273.443 12.3344 273.411Z" fill="#BB31DD" stroke="black" stroke-width="0.367114" stroke-linejoin="round"/>
<path d="M12.4294 259.99C12.4294 259.99 4.8086 255.257 0.853516 262.259C1.78601 263.004 2.68636 263.815 3.52239 264.625C5.64463 266.765 6.57713 269.52 8.98876 271.466C11.3361 273.378 14.423 274.351 17.6385 274.416L17.8957 272.373L16.095 262.421L12.4294 259.99Z" fill="url(#paint15_linear_13_108)" stroke="black" stroke-width="0.367114" stroke-linejoin="round"/>
<path d="M0.853516 262.259C2.33265 261.74 4.00472 261.545 5.61247 261.74C8.6029 262.097 10.6287 264.398 12.1721 266.473C12.8795 267.413 13.4905 268.418 13.8763 269.488" stroke="black" stroke-width="0.367114" stroke-miterlimit="10"/>
<path d="M20.9529 255.289C20.9529 255.289 16.5476 249.973 11.1777 252.793C11.1777 252.793 11.5957 253.831 11.5957 253.895C11.9495 254.965 12.1424 256.1 12.271 257.202C12.7212 261.189 11.9495 265.339 13.1392 269.294C13.5894 270.753 14.3932 272.341 15.8081 273.281C17.3515 274.319 19.0557 275.162 20.9207 275.648C22.625 276.069 24.5543 276.102 26.3228 276.329L21.9819 265.728L21.5317 258.499L20.9529 255.289Z" fill="#4340D3" stroke="black" stroke-width="0.367114" stroke-linejoin="round"/>
<path d="M11.1777 252.793C11.1777 252.793 17.5444 253.376 19.1844 261.578" stroke="black" stroke-width="0.367114" stroke-miterlimit="10"/>
<path d="M26.4833 294.677C30.1489 293.218 28.8949 289.847 28.8949 289.847C32.6892 290.074 32.9786 286.378 30.2132 285.73C27.4479 285.081 25.9688 283.493 25.9688 283.493C25.9688 283.493 24.6183 285.178 21.9172 286.021C19.2162 286.864 19.8593 290.495 23.5893 290.041C23.6214 290.041 22.7211 293.445 26.4833 294.677Z" fill="#BB31DD" stroke="black" stroke-width="0.367114" stroke-linejoin="round"/>
<path d="M25.9674 283.493C25.3564 284.336 24.5204 285.308 24.3596 286.313C24.2631 286.864 24.4239 287.513 24.7776 287.966C25.1635 288.517 26.0317 288.842 26.7712 288.615C27.6716 288.355 28.1539 287.35 27.9931 286.637C27.768 285.438 26.8677 284.433 25.9674 283.493Z" fill="url(#paint16_linear_13_108)" stroke="black" stroke-width="0.367114" stroke-linejoin="round"/>
<path d="M33.7492 262.842C33.7492 270.298 26.1927 276.328 26.1927 276.328C26.1927 276.328 18.8613 270.298 18.8613 262.842C18.8613 255.386 26.1927 249.356 26.1927 249.356C26.1927 249.356 33.7492 255.386 33.7492 262.842Z" fill="#D556F4" stroke="black" stroke-width="0.367114" stroke-linejoin="round"/>
<path d="M30.4697 267.252C30.4697 271.92 26.2895 276.167 26.2895 276.167C26.2895 276.167 22.1094 272.147 22.1094 267.446C22.1094 262.745 26.2895 259.212 26.2895 259.212C26.2895 259.212 30.4697 262.551 30.4697 267.252Z" fill="url(#paint17_linear_13_108)" stroke="black" stroke-width="0.367114" stroke-linejoin="round"/>
<path d="M13.2029 291.176C14.8428 289.782 17.576 289.587 17.576 289.587C17.576 289.587 17.4152 291.889 15.7753 293.315C14.1354 294.742 11.6273 294.709 11.6273 294.709C11.6273 294.709 11.563 292.57 13.2029 291.176Z" fill="url(#paint18_linear_13_108)" stroke="black" stroke-width="0.367114" stroke-linejoin="round"/>
<path d="M38.7012 291.176C37.0613 289.782 34.3281 289.587 34.3281 289.587C34.3281 289.587 34.4889 291.889 36.1288 293.315C37.7687 294.742 40.2768 294.709 40.2768 294.709C40.2768 294.709 40.3733 292.57 38.7012 291.176Z" fill="url(#paint19_linear_13_108)" stroke="black" stroke-width="0.367114" stroke-linejoin="round"/>
</g>
<path d="M377.723 280.113C378.269 280.858 378.977 281.507 379.748 282.09C380.52 282.674 381.42 283.16 382.385 283.484C383.35 283.808 384.411 283.971 385.311 283.484C386.083 283.095 386.533 282.285 386.405 281.507C386.372 281.41 386.372 281.28 386.308 281.183C386.051 280.534 385.215 280.242 384.475 280.372C383.832 280.502 383.285 280.923 383.253 281.507C383.253 281.539 383.253 281.572 383.253 281.572" stroke="#D556F4" stroke-width="0.367114" stroke-linejoin="round"/>
<path d="M349.236 280.113C348.689 280.858 347.982 281.507 347.21 282.09C346.438 282.674 345.538 283.16 344.573 283.484C343.609 283.808 342.547 283.971 341.615 283.484C340.843 283.095 340.393 282.285 340.489 281.507C340.489 281.41 340.522 281.28 340.586 281.183C340.843 280.534 341.679 280.242 342.419 280.372C343.062 280.502 343.609 280.923 343.641 281.507C343.641 281.539 343.641 281.572 343.641 281.572" stroke="#D556F4" stroke-width="0.367114" stroke-linejoin="round"/>
<path d="M372.451 275.088C374.252 275.282 376.085 275.282 377.821 274.926C380.136 274.472 381.905 273.337 383.416 271.749C385.378 269.739 386.117 267.21 388.4 265.46C389.879 264.357 392.066 263.547 393.866 264.584C395.539 265.557 395.989 267.826 395.313 269.382C394.928 270.29 394.092 271.035 393.063 271.327C392.323 271.522 391.487 271.457 390.812 271.133C390.426 270.971 390.104 270.711 389.879 270.42C389.397 269.706 389.718 268.734 390.458 268.183C392.001 267.08 394.092 267.632 395.249 268.863C395.474 269.123 395.699 269.415 395.957 269.642C396.568 270.16 397.307 270.257 398.079 269.998C399.172 269.609 399.558 268.442 399.783 267.47" stroke="#D556F4" stroke-width="0.367114" stroke-linejoin="round"/>
<path d="M354.186 275.088C352.386 275.282 350.553 275.282 348.816 274.926C346.501 274.472 344.733 273.337 343.221 271.749C341.292 269.739 340.553 267.21 338.237 265.46C336.758 264.357 334.572 263.547 332.771 264.584C331.099 265.557 330.649 267.826 331.324 269.382C331.71 270.29 332.514 271.035 333.575 271.327C334.314 271.522 335.15 271.457 335.826 271.133C336.212 270.971 336.533 270.711 336.758 270.42C337.241 269.706 336.919 268.734 336.179 268.183C334.636 267.08 332.546 267.632 331.388 268.863C331.163 269.123 330.938 269.415 330.681 269.642C330.07 270.16 329.33 270.257 328.526 269.998C327.433 269.609 327.047 268.442 326.822 267.47" stroke="#D556F4" stroke-width="0.367114" stroke-linejoin="round"/>
<path d="M374.478 276.385C374.511 276.514 374.929 276.774 375.025 276.839C375.507 277.26 375.99 277.714 376.44 278.168C377.726 279.497 378.626 280.891 379.559 282.415C380.106 283.322 380.781 284.262 381.52 285.073C381.681 285.235 381.842 285.429 382.067 285.559C382.067 285.559 377.855 286.37 373.707 284.554C369.559 282.771 364.124 276.839 363.449 274.894L365.989 273.986L374.093 275.056L374.478 276.385Z" fill="#4340D3" stroke="black" stroke-width="0.367114" stroke-linejoin="round"/>
<path d="M363.449 274.893C363.449 274.893 367.983 275.088 373.675 280.307" stroke="black" stroke-width="0.367114" stroke-miterlimit="10" stroke-linecap="round"/>
<path d="M377.401 271.976C379.62 271.879 381.807 271.976 383.993 272.333C385.086 272.527 386.148 272.786 387.241 273.078C389.009 273.532 390.778 274.18 392.643 274.18C392.064 274.829 390.874 275.736 390.231 276.158C387.82 277.746 384.829 278.686 381.774 278.427C379.395 278.233 377.241 277.422 375.086 276.612C373.993 276.223 372.9 275.607 371.774 275.283C370.07 274.764 367.883 274.342 365.986 274.602C365.986 274.472 369.363 272.948 369.363 272.948C371.099 272.689 372.835 272.462 374.572 272.235C375.536 272.106 376.469 272.008 377.401 271.976Z" fill="#BB31DD" stroke="black" stroke-width="0.367114" stroke-linejoin="round"/>
<path d="M377.305 258.555C377.305 258.555 384.926 253.822 388.849 260.824C387.916 261.57 387.016 262.38 386.18 263.191C384.058 265.33 383.125 268.086 380.714 270.031C378.366 271.944 375.279 272.916 372.064 272.981L371.807 270.939L373.607 260.986L377.305 258.555Z" fill="url(#paint20_linear_13_108)" stroke="black" stroke-width="0.367114" stroke-linejoin="round"/>
<path d="M388.88 260.824C387.401 260.305 385.729 260.111 384.121 260.305C381.131 260.662 379.105 262.964 377.562 265.038C376.854 265.979 376.243 266.984 375.857 268.053" stroke="black" stroke-width="0.367114" stroke-miterlimit="10"/>
<path d="M368.787 253.855C368.787 253.855 373.192 248.538 378.562 251.359C378.562 251.359 378.144 252.396 378.144 252.461C377.79 253.531 377.597 254.665 377.469 255.767C377.019 259.787 377.823 263.904 376.633 267.859C376.183 269.318 375.379 270.907 373.964 271.847C372.42 272.884 370.716 273.727 368.851 274.213C367.147 274.667 365.218 274.667 363.449 274.894L367.758 264.293L368.208 257.064L368.787 253.855Z" fill="#4340D3" stroke="black" stroke-width="0.367114" stroke-linejoin="round"/>
<path d="M378.559 251.358C378.559 251.358 372.193 251.942 370.553 260.144" stroke="black" stroke-width="0.367114" stroke-miterlimit="10"/>
<path d="M352.514 276.385C352.482 276.514 352.064 276.774 351.968 276.839C351.485 277.26 351.003 277.714 350.553 278.168C349.267 279.497 348.366 280.891 347.434 282.415C346.887 283.322 346.212 284.262 345.472 285.073C345.312 285.235 345.151 285.429 344.926 285.559C344.926 285.559 349.138 286.37 353.286 284.554C357.434 282.771 362.868 276.839 363.544 274.894L361.003 273.986L352.9 275.056L352.514 276.385Z" fill="#4340D3" stroke="black" stroke-width="0.367114" stroke-linejoin="round"/>
<path d="M363.544 274.893C363.544 274.893 359.01 275.088 353.318 280.307" stroke="black" stroke-width="0.367114" stroke-miterlimit="10" stroke-linecap="round"/>
<path d="M349.588 271.976C347.402 271.879 345.183 271.976 342.996 272.333C341.903 272.527 340.842 272.786 339.781 273.078C338.012 273.532 336.244 274.18 334.379 274.18C334.958 274.829 336.147 275.736 336.791 276.158C339.202 277.746 342.193 278.686 345.247 278.427C347.595 278.233 349.781 277.422 351.936 276.612C353.029 276.223 354.122 275.607 355.248 275.283C356.952 274.764 359.235 274.245 361.036 274.602C361.036 274.44 357.627 272.948 357.627 272.948C355.891 272.689 354.154 272.462 352.418 272.235C351.453 272.106 350.521 272.008 349.588 271.976Z" fill="#BB31DD" stroke="black" stroke-width="0.367114" stroke-linejoin="round"/>
<path d="M349.683 258.555C349.683 258.555 342.063 253.822 338.107 260.824C339.04 261.57 339.94 262.38 340.776 263.191C342.899 265.33 343.831 268.086 346.243 270.031C348.59 271.944 351.677 272.916 354.892 272.981L355.15 270.939L353.349 260.986L349.683 258.555Z" fill="url(#paint21_linear_13_108)" stroke="black" stroke-width="0.367114" stroke-linejoin="round"/>
<path d="M338.107 260.824C339.587 260.305 341.259 260.111 342.866 260.305C345.857 260.662 347.883 262.964 349.426 265.038C350.133 265.979 350.744 266.984 351.13 268.053" stroke="black" stroke-width="0.367114" stroke-miterlimit="10"/>
<path d="M358.207 253.855C358.207 253.855 353.802 248.538 348.432 251.359C348.432 251.359 348.85 252.396 348.85 252.461C349.203 253.531 349.396 254.665 349.525 255.767C349.975 259.755 349.203 263.904 350.393 267.859C350.843 269.318 351.647 270.907 353.062 271.847C354.605 272.884 356.31 273.727 358.175 274.213C359.879 274.635 361.808 274.667 363.577 274.894L359.236 264.293L358.786 257.064L358.207 253.855Z" fill="#4340D3" stroke="black" stroke-width="0.367114" stroke-linejoin="round"/>
<path d="M348.432 251.358C348.432 251.358 354.798 251.942 356.438 260.144" stroke="black" stroke-width="0.367114" stroke-miterlimit="10"/>
<path d="M363.735 293.242C367.401 291.784 366.147 288.412 366.147 288.412C369.941 288.639 370.231 284.943 367.465 284.295C364.7 283.647 363.221 282.058 363.221 282.058C363.221 282.058 361.87 283.744 359.169 284.587C356.468 285.43 357.111 289.06 360.841 288.607C360.873 288.607 359.973 292.01 363.735 293.242Z" fill="#BB31DD" stroke="black" stroke-width="0.367114" stroke-linejoin="round"/>
<path d="M363.221 282.058C362.61 282.901 361.774 283.874 361.614 284.878C361.517 285.43 361.678 286.078 362.032 286.532C362.417 287.083 363.286 287.407 364.025 287.18C364.925 286.921 365.408 285.916 365.247 285.203C365.022 284.003 364.122 282.998 363.221 282.058Z" fill="url(#paint22_linear_13_108)" stroke="black" stroke-width="0.367114" stroke-linejoin="round"/>
<path d="M371.003 261.408C371.003 268.864 363.447 274.894 363.447 274.894C363.447 274.894 356.115 268.864 356.115 261.408C356.115 253.952 363.447 247.922 363.447 247.922C363.447 247.922 371.003 253.952 371.003 261.408Z" fill="#D556F4" stroke="black" stroke-width="0.367114" stroke-linejoin="round"/>
<path d="M367.724 265.817C367.724 270.485 363.543 274.731 363.543 274.731C363.543 274.731 359.363 270.712 359.363 266.011C359.363 261.31 363.543 257.777 363.543 257.777C363.543 257.777 367.724 261.116 367.724 265.817Z" fill="url(#paint23_linear_13_108)" stroke="black" stroke-width="0.367114" stroke-linejoin="round"/>
<path d="M350.457 289.741C352.097 288.347 354.83 288.153 354.83 288.153C354.83 288.153 354.669 290.455 353.029 291.881C351.389 293.307 348.881 293.275 348.881 293.275C348.881 293.275 348.817 291.135 350.457 289.741Z" fill="url(#paint24_linear_13_108)" stroke="black" stroke-width="0.367114" stroke-linejoin="round"/>
<path d="M375.955 289.741C374.315 288.347 371.582 288.153 371.582 288.153C371.582 288.153 371.743 290.455 373.383 291.881C375.023 293.307 377.531 293.275 377.531 293.275C377.531 293.275 377.627 291.135 375.955 289.741Z" fill="url(#paint25_linear_13_108)" stroke="black" stroke-width="0.367114" stroke-linejoin="round"/>
</g>
<defs>
<linearGradient id="paint0_linear_13_108" x1="193.887" y1="3.10087" x2="199.41" y2="217.575" gradientUnits="userSpaceOnUse">
<stop/>
<stop offset="0.51" stop-color="#4131DB"/>
<stop offset="1" stop-color="#DF5CEA"/>
</linearGradient>
<linearGradient id="paint1_linear_13_108" x1="193.256" y1="-1.40035" x2="205.422" y2="348.004" gradientUnits="userSpaceOnUse">
<stop/>
<stop offset="0.51" stop-color="#4131DB"/>
<stop offset="1" stop-color="#DF5CEA"/>
</linearGradient>
<linearGradient id="paint2_linear_13_108" x1="51.1666" y1="159.377" x2="-9.52776" y2="159.377" gradientUnits="userSpaceOnUse">
<stop/>
<stop offset="0.33" stop-color="#4131DB"/>
<stop offset="0.66" stop-color="#4435D3"/>
<stop offset="1"/>
</linearGradient>
<linearGradient id="paint3_linear_13_108" x1="-12.2868" y1="169.648" x2="118.737" y2="169.648" gradientUnits="userSpaceOnUse">
<stop/>
<stop offset="0.51" stop-color="#4131DB"/>
<stop offset="1" stop-color="#DF5CEA"/>
</linearGradient>
<linearGradient id="paint4_linear_13_108" x1="26.1993" y1="249.423" x2="26.1993" y2="161.457" gradientUnits="userSpaceOnUse">
<stop/>
<stop offset="0.51" stop-color="#4131DB"/>
<stop offset="1" stop-color="#DF5CEA"/>
</linearGradient>
<linearGradient id="paint5_linear_13_108" x1="388.368" y1="159.377" x2="327.674" y2="159.377" gradientUnits="userSpaceOnUse">
<stop/>
<stop offset="0.33" stop-color="#4131DB"/>
<stop offset="0.66" stop-color="#4435D3"/>
<stop offset="1"/>
</linearGradient>
<linearGradient id="paint6_linear_13_108" x1="324.915" y1="169.648" x2="455.939" y2="169.648" gradientUnits="userSpaceOnUse">
<stop/>
<stop offset="0.51" stop-color="#4131DB"/>
<stop offset="1" stop-color="#DF5CEA"/>
</linearGradient>
<linearGradient id="paint7_linear_13_108" x1="363.4" y1="249.423" x2="363.4" y2="161.457" gradientUnits="userSpaceOnUse">
<stop/>
<stop offset="0.51" stop-color="#4131DB"/>
<stop offset="1" stop-color="#DF5CEA"/>
</linearGradient>
<linearGradient id="paint8_linear_13_108" x1="104.153" y1="66.8333" x2="156.549" y2="66.8333" gradientUnits="userSpaceOnUse">
<stop/>
<stop offset="0.51" stop-color="#4131DB"/>
<stop offset="1" stop-color="#DF5CEA"/>
</linearGradient>
<linearGradient id="paint9_linear_13_108" x1="70.1078" y1="120.304" x2="105.117" y2="88.5348" gradientUnits="userSpaceOnUse">
<stop/>
<stop offset="0.51" stop-color="#4131DB"/>
<stop offset="1" stop-color="#DF5CEA"/>
</linearGradient>
<linearGradient id="paint10_linear_13_108" x1="285.214" y1="66.8333" x2="232.818" y2="66.8333" gradientUnits="userSpaceOnUse">
<stop/>
<stop offset="0.51" stop-color="#4131DB"/>
<stop offset="1" stop-color="#DF5CEA"/>
</linearGradient>
<linearGradient id="paint11_linear_13_108" x1="339.136" y1="115.276" x2="276.826" y2="115.276" gradientUnits="userSpaceOnUse">
<stop/>
<stop offset="0.51" stop-color="#4131DB"/>
<stop offset="1" stop-color="#DF5CEA"/>
</linearGradient>
<linearGradient id="paint12_linear_13_108" x1="154.431" y1="38.7373" x2="232.629" y2="38.7373" gradientUnits="userSpaceOnUse">
<stop/>
<stop offset="0.33" stop-color="#4131DB"/>
<stop offset="0.66" stop-color="#4435D3"/>
<stop offset="1"/>
</linearGradient>
<linearGradient id="paint13_linear_13_108" x1="321.853" y1="120.14" x2="281.901" y2="87.5788" gradientUnits="userSpaceOnUse">
<stop/>
<stop offset="0.51" stop-color="#4131DB"/>
<stop offset="1" stop-color="#DF5CEA"/>
</linearGradient>
<linearGradient id="paint14_linear_13_108" x1="43.0931" y1="276.383" x2="43.0931" y2="258.249" gradientUnits="userSpaceOnUse">
<stop stop-color="#171719"/>
<stop offset="0.51" stop-color="#4131DB"/>
<stop offset="1" stop-color="#DF5CEA"/>
</linearGradient>
<linearGradient id="paint15_linear_13_108" x1="9.3907" y1="276.383" x2="9.3907" y2="258.249" gradientUnits="userSpaceOnUse">
<stop stop-color="#171719"/>
<stop offset="0.51" stop-color="#4131DB"/>
<stop offset="1" stop-color="#DF5CEA"/>
</linearGradient>
<linearGradient id="paint16_linear_13_108" x1="26.2014" y1="283.694" x2="26.2014" y2="292.511" gradientUnits="userSpaceOnUse">
<stop stop-color="#171719"/>
<stop offset="0.51" stop-color="#4131DB"/>
<stop offset="1" stop-color="#DF5CEA"/>
</linearGradient>
<linearGradient id="paint17_linear_13_108" x1="26.2686" y1="280.203" x2="26.2686" y2="260.321" gradientUnits="userSpaceOnUse">
<stop stop-color="#171719"/>
<stop offset="0.51" stop-color="#4131DB"/>
<stop offset="1" stop-color="#DF5CEA"/>
</linearGradient>
<linearGradient id="paint18_linear_13_108" x1="17.8524" y1="289.318" x2="6.63644" y2="298.927" gradientUnits="userSpaceOnUse">
<stop stop-color="#171719"/>
<stop offset="0.51" stop-color="#4131DB"/>
<stop offset="1" stop-color="#DF5CEA"/>
</linearGradient>
<linearGradient id="paint19_linear_13_108" x1="34.6709" y1="289.044" x2="43.8099" y2="299.47" gradientUnits="userSpaceOnUse">
<stop stop-color="#171719"/>
<stop offset="0.51" stop-color="#4131DB"/>
<stop offset="1" stop-color="#DF5CEA"/>
</linearGradient>
<linearGradient id="paint20_linear_13_108" x1="380.347" y1="274.949" x2="380.347" y2="256.814" gradientUnits="userSpaceOnUse">
<stop stop-color="#171719"/>
<stop offset="0.51" stop-color="#4131DB"/>
<stop offset="1" stop-color="#DF5CEA"/>
</linearGradient>
<linearGradient id="paint21_linear_13_108" x1="346.645" y1="274.949" x2="346.645" y2="256.814" gradientUnits="userSpaceOnUse">
<stop stop-color="#171719"/>
<stop offset="0.51" stop-color="#4131DB"/>
<stop offset="1" stop-color="#DF5CEA"/>
</linearGradient>
<linearGradient id="paint22_linear_13_108" x1="363.455" y1="282.259" x2="363.455" y2="291.077" gradientUnits="userSpaceOnUse">
<stop stop-color="#171719"/>
<stop offset="0.51" stop-color="#4131DB"/>
<stop offset="1" stop-color="#DF5CEA"/>
</linearGradient>
<linearGradient id="paint23_linear_13_108" x1="363.523" y1="278.768" x2="363.523" y2="258.886" gradientUnits="userSpaceOnUse">
<stop stop-color="#171719"/>
<stop offset="0.51" stop-color="#4131DB"/>
<stop offset="1" stop-color="#DF5CEA"/>
</linearGradient>
<linearGradient id="paint24_linear_13_108" x1="355.106" y1="287.884" x2="343.89" y2="297.493" gradientUnits="userSpaceOnUse">
<stop stop-color="#171719"/>
<stop offset="0.51" stop-color="#4131DB"/>
<stop offset="1" stop-color="#DF5CEA"/>
</linearGradient>
<linearGradient id="paint25_linear_13_108" x1="371.925" y1="287.609" x2="381.064" y2="298.036" gradientUnits="userSpaceOnUse">
<stop stop-color="#171719"/>
<stop offset="0.51" stop-color="#4131DB"/>
<stop offset="1" stop-color="#DF5CEA"/>
</linearGradient>
<clipPath id="clip0_13_108">
<rect width="390" height="297" fill="white"/>
</clipPath>
</defs>
</svg>
