<svg width="88" height="29" viewBox="0 0 88 29" fill="none" xmlns="http://www.w3.org/2000/svg">
<rect x="0.0683594" y="0.44873" width="87.9314" height="28.1025" rx="5" fill="#23232A"/>
<path d="M18.5626 14.4111C18.5626 12.2411 20.3501 11.1911 20.4189 11.1211C19.3876 9.65109 17.8751 9.44109 17.3251 9.37109C16.0189 9.23109 14.7126 10.1411 14.0939 10.1411C13.4064 10.1411 12.3751 9.37109 11.2751 9.37109C9.83138 9.37109 8.52513 10.2111 7.76888 11.5411C6.25638 14.2011 7.35638 18.1211 8.80013 20.2911C9.55638 21.3411 10.3814 22.5311 11.4814 22.4611C12.5814 22.3911 12.9939 21.7611 14.3001 21.7611C15.6064 21.7611 15.9501 22.4611 17.1189 22.4611C18.2876 22.4611 19.0439 21.4111 19.7314 20.3611C20.5564 19.1711 20.9001 17.9811 20.9001 17.9111C20.8314 17.8411 18.5626 17.0011 18.5626 14.4111Z" fill="white"/>
<path d="M16.4314 7.97139C16.9814 7.20139 17.3939 6.22139 17.3251 5.17139C16.5001 5.24139 15.4001 5.73139 14.8501 6.50139C14.3001 7.13139 13.8189 8.18139 13.9564 9.16139C14.8501 9.23139 15.8126 8.67139 16.4314 7.97139Z" fill="white"/>
<path d="M34.2375 22.3215H32.725L31.9 19.6615H29.0125L28.2562 22.3215H26.8125L29.7 13.2915H31.4875L34.2375 22.3215ZM31.625 18.5415L30.8688 16.1615C30.8 15.9515 30.6625 15.3215 30.3875 14.4815C30.3188 14.8315 30.1812 15.4615 29.975 16.1615L29.2188 18.5415H31.625Z" fill="white"/>
<path d="M41.5938 19.0312C41.5938 20.1512 41.3188 20.9912 40.7 21.6912C40.15 22.2512 39.5312 22.5312 38.7062 22.5312C37.8812 22.5312 37.2625 22.2512 36.9188 21.6212V25.0512H35.475V18.0512C35.475 17.3512 35.475 16.6512 35.4062 15.8812H36.6437L36.7125 16.9312C37.1938 16.1612 37.8812 15.7412 38.8438 15.7412C39.6 15.7412 40.2188 16.0212 40.7 16.6512C41.3188 17.2112 41.5938 17.9812 41.5938 19.0312ZM40.15 19.0312C40.15 18.4012 40.0125 17.8412 39.7375 17.4912C39.4625 17.0712 39.05 16.8612 38.5 16.8612C38.1562 16.8612 37.8125 17.0012 37.5375 17.2112C37.2625 17.4212 37.0562 17.7712 36.9875 18.1212C36.9187 18.3312 36.9188 18.4712 36.9188 18.5412V19.6612C36.9188 20.1512 37.0562 20.5012 37.3312 20.8512C37.6062 21.2012 38.0188 21.3412 38.4313 21.3412C38.9813 21.3412 39.3938 21.1312 39.6688 20.7112C40.0125 20.2912 40.15 19.7312 40.15 19.0312Z" fill="white"/>
<path d="M48.9502 19.0312C48.9502 20.1512 48.6752 20.9912 48.0564 21.6912C47.5064 22.2512 46.8877 22.5312 46.0627 22.5312C45.2377 22.5312 44.6189 22.2512 44.2752 21.6212V25.0512H42.8314V18.0512C42.8314 17.3512 42.8314 16.6512 42.7627 15.8812H44.0002L44.0689 16.9312C44.5502 16.1612 45.2377 15.7412 46.2002 15.7412C46.9564 15.7412 47.5752 16.0212 48.0564 16.6512C48.6752 17.2112 48.9502 17.9812 48.9502 19.0312ZM47.5064 19.0312C47.5064 18.4012 47.3689 17.8412 47.0939 17.4912C46.8189 17.0712 46.4064 16.8612 45.8564 16.8612C45.5127 16.8612 45.1689 17.0012 44.8939 17.2112C44.6189 17.4212 44.4127 17.7712 44.3439 18.1212C44.2752 18.3312 44.2752 18.4712 44.2752 18.5412V19.6612C44.2752 20.1512 44.4127 20.5012 44.6877 20.8512C44.9627 21.2012 45.3752 21.3412 45.7877 21.3412C46.3377 21.3412 46.7502 21.1312 47.0252 20.7112C47.3689 20.2912 47.5064 19.7312 47.5064 19.0312Z" fill="white"/>
<path d="M57.1998 19.8012C57.1998 20.5712 56.9248 21.2012 56.4436 21.6912C55.8936 22.2512 55.0686 22.4612 54.0373 22.4612C53.0748 22.4612 52.3186 22.2512 51.7686 21.9012L52.1123 20.7112C52.7311 21.0612 53.4186 21.2712 54.1748 21.2712C54.7248 21.2712 55.1373 21.1312 55.4123 20.9212C55.6873 20.6412 55.8248 20.3612 55.8248 19.9412C55.8248 19.5912 55.6873 19.2412 55.4811 19.0312C55.2061 18.7512 54.7936 18.5412 54.2436 18.3312C52.6623 17.7712 51.9061 16.8612 51.9061 15.7412C51.9061 14.9712 52.1811 14.4112 52.7311 13.9212C53.2811 13.4312 53.9686 13.2212 54.9311 13.2212C55.7561 13.2212 56.3748 13.3612 56.9248 13.6412L56.5811 14.8312C56.0998 14.5512 55.5498 14.4112 54.8623 14.4112C54.3811 14.4112 53.9686 14.5512 53.6936 14.7612C53.4873 14.9712 53.3498 15.2512 53.3498 15.6012C53.3498 15.9512 53.4873 16.2312 53.7623 16.5112C53.9686 16.7212 54.4498 16.9312 55.0686 17.2112C55.8248 17.4912 56.3748 17.9112 56.7873 18.3312C56.9936 18.6812 57.1998 19.1712 57.1998 19.8012Z" fill="white"/>
<path d="M61.8748 16.9312H60.2936V20.0812C60.2936 20.8512 60.5686 21.2712 61.1186 21.2712C61.3936 21.2712 61.5998 21.2712 61.7373 21.2012L61.8061 22.3212C61.5311 22.4612 61.1873 22.4612 60.7061 22.4612C60.1561 22.4612 59.6748 22.3212 59.3998 21.9712C59.0561 21.6212 58.9186 21.0612 58.9186 20.2212V16.9312H57.9561V15.8112H58.9186V14.6212L60.2936 14.2012V15.8112H61.8748V16.9312Z" fill="white"/>
<path d="M68.9564 19.0314C68.9564 20.0114 68.6814 20.8514 68.1314 21.4814C67.5127 22.1114 66.7564 22.4614 65.7939 22.4614C64.8314 22.4614 64.0752 22.1114 63.5252 21.4814C62.9752 20.8514 62.7002 20.0814 62.7002 19.1014C62.7002 18.1214 62.9752 17.2814 63.5939 16.6514C64.1439 16.0214 64.9689 15.6714 65.9314 15.6714C66.8939 15.6714 67.6502 16.0214 68.2002 16.6514C68.6814 17.2814 68.9564 18.0514 68.9564 19.0314ZM67.4439 19.1014C67.4439 18.4714 67.3064 17.9814 67.0314 17.5614C66.7564 17.0714 66.2752 16.7914 65.7252 16.7914C65.1752 16.7914 64.6939 17.0714 64.4189 17.5614C64.1439 17.9814 64.0064 18.5414 64.0064 19.1014C64.0064 19.7314 64.1439 20.2214 64.4189 20.6414C64.6939 21.1314 65.1752 21.4114 65.7252 21.4114C66.2752 21.4114 66.6877 21.1314 67.0314 20.6414C67.3064 20.2214 67.4439 19.6614 67.4439 19.1014Z" fill="white"/>
<path d="M73.5629 17.0711C73.4254 17.0711 73.2879 17.0011 73.0816 17.0011C72.6004 17.0011 72.1879 17.2111 71.9129 17.5611C71.7066 17.9111 71.5691 18.3311 71.5691 18.8211V22.2511H70.1254V17.7711C70.1254 17.0011 70.1254 16.3711 70.0566 15.7411H71.2941L71.3629 17.0011H71.4316C71.5691 16.5811 71.8441 16.2311 72.1191 15.9511C72.4629 15.7411 72.8066 15.6011 73.1504 15.6011H73.4941V17.0711H73.5629Z" fill="white"/>
<path d="M79.8879 18.7514C79.8879 19.0314 79.8879 19.2414 79.8191 19.3814H75.5566C75.5566 20.0114 75.7629 20.5014 76.1754 20.8514C76.5191 21.1314 77.0004 21.3414 77.5504 21.3414C78.1691 21.3414 78.7879 21.2714 79.2691 21.0614L79.4754 22.0414C78.8566 22.3214 78.1691 22.4614 77.3441 22.4614C76.3816 22.4614 75.5566 22.1814 75.0066 21.5514C74.4566 20.9914 74.1816 20.1514 74.1816 19.1714C74.1816 18.1914 74.4566 17.3514 74.9379 16.7214C75.4879 16.0214 76.2441 15.6714 77.2066 15.6714C78.1004 15.6714 78.8566 16.0214 79.2691 16.7214C79.7504 17.2814 79.8879 17.9814 79.8879 18.7514ZM78.5816 18.4014C78.5816 17.9814 78.5129 17.6314 78.3066 17.2814C78.0316 16.8614 77.6879 16.6514 77.2066 16.6514C76.7254 16.6514 76.3816 16.8614 76.1066 17.2114C75.9004 17.4914 75.7629 17.9114 75.6941 18.3314H78.5816V18.4014Z" fill="white"/>
<path d="M31.2127 7.76113C31.2127 8.53113 31.0064 9.16113 30.5252 9.58113C30.1127 9.93113 29.4939 10.1411 28.6689 10.1411C28.2564 10.1411 27.9127 10.1411 27.6377 10.0711V5.73113C27.9814 5.66113 28.3939 5.66113 28.8752 5.66113C29.6314 5.66113 30.1814 5.80113 30.5939 6.15113C30.9377 6.50113 31.2127 7.06113 31.2127 7.76113ZM30.4564 7.76113C30.4564 7.27113 30.3189 6.85113 30.0439 6.57113C29.7689 6.29113 29.3564 6.15113 28.8752 6.15113C28.6689 6.15113 28.4627 6.15113 28.3252 6.22113V9.51113H28.8064C29.3564 9.51113 29.7689 9.37113 30.0439 9.09113C30.3189 8.81113 30.4564 8.32113 30.4564 7.76113Z" fill="white"/>
<path d="M35.0625 8.46125C35.0625 8.95125 34.925 9.37125 34.65 9.65125C34.375 10.0013 33.9625 10.1413 33.4813 10.1413C33 10.1413 32.6562 10.0013 32.3812 9.65125C32.1062 9.37125 31.9688 8.95125 31.9688 8.46125C31.9688 7.97125 32.1062 7.55125 32.3812 7.27125C32.6562 6.92125 33.0687 6.78125 33.55 6.78125C34.0312 6.78125 34.375 6.92125 34.65 7.27125C34.925 7.55125 35.0625 7.97125 35.0625 8.46125ZM34.375 8.46125C34.375 8.18125 34.3063 7.90125 34.1688 7.69125C34.0313 7.41125 33.825 7.34125 33.55 7.34125C33.275 7.34125 33.0688 7.48125 32.9313 7.69125C32.7938 7.90125 32.725 8.18125 32.725 8.46125C32.725 8.74125 32.7938 9.02125 32.9313 9.23125C33.0688 9.51125 33.275 9.58125 33.55 9.58125C33.825 9.58125 34.0313 9.44125 34.1688 9.16125C34.3063 9.02125 34.375 8.74125 34.375 8.46125Z" fill="white"/>
<path d="M40.3563 6.85107L39.3937 10.0711H38.775L38.3625 8.67107C38.225 8.32107 38.1563 7.97107 38.0875 7.62107C38.0188 7.97107 37.95 8.32107 37.8125 8.67107L37.4 10.0711H36.7813L35.75 6.85107H36.4375L36.7813 8.39107C36.85 8.74107 36.9187 9.09107 36.9875 9.44107C37.0562 9.16107 37.125 8.81107 37.2625 8.39107L37.675 6.85107H38.225L38.6375 8.32107C38.775 8.67107 38.8437 9.02107 38.9125 9.37107C38.9812 9.02107 39.05 8.67107 39.1188 8.32107L39.5313 6.85107H40.3563Z" fill="white"/>
<path d="M43.9313 10.0714H43.2438V8.25143C43.2438 7.69143 43.0375 7.41143 42.625 7.41143C42.4188 7.41143 42.2812 7.48143 42.1437 7.62143C42.0062 7.76143 41.9375 7.97143 41.9375 8.18143V10.0714H41.25V6.85143H41.8688V7.34143C41.9375 7.20143 42.075 7.06143 42.2125 6.92143C42.4188 6.78143 42.625 6.71143 42.8312 6.71143C43.1062 6.71143 43.3813 6.78143 43.5875 6.99143C43.8625 7.20143 43.9313 7.55143 43.9313 8.04143V10.0714Z" fill="white"/>
<path d="M45.8564 10.0713H45.1689V5.38135H45.8564V10.0713Z" fill="white"/>
<path d="M49.9814 8.46125C49.9814 8.95125 49.8439 9.37125 49.5689 9.65125C49.2939 10.0013 48.8814 10.1413 48.4002 10.1413C47.9189 10.1413 47.5752 10.0013 47.3002 9.65125C47.0252 9.37125 46.8877 8.95125 46.8877 8.46125C46.8877 7.97125 47.0252 7.55125 47.3002 7.27125C47.5752 6.99125 47.9877 6.78125 48.4689 6.78125C48.9502 6.78125 49.2939 6.92125 49.5689 7.27125C49.8439 7.55125 49.9814 7.97125 49.9814 8.46125ZM49.2939 8.46125C49.2939 8.18125 49.2252 7.90125 49.0877 7.69125C48.9502 7.41125 48.7439 7.34125 48.4689 7.34125C48.1939 7.34125 47.9877 7.48125 47.8502 7.69125C47.7127 7.90125 47.6439 8.18125 47.6439 8.46125C47.6439 8.74125 47.7127 9.02125 47.8502 9.23125C47.9877 9.51125 48.1939 9.58125 48.4689 9.58125C48.7439 9.58125 48.9502 9.44125 49.0877 9.16125C49.2252 9.02125 49.2939 8.74125 49.2939 8.46125Z" fill="white"/>
<path d="M53.3504 10.0713H52.7316L52.6629 9.72125C52.4566 10.0013 52.1129 10.1413 51.7691 10.1413C51.4941 10.1413 51.2191 10.0713 51.0816 9.86125C50.9441 9.65125 50.8066 9.44125 50.8066 9.23125C50.8066 8.81125 50.9441 8.53125 51.2879 8.32125C51.6316 8.11125 52.0441 8.04125 52.6629 8.04125V7.97125C52.6629 7.55125 52.4566 7.34125 52.0441 7.34125C51.7004 7.34125 51.4941 7.41125 51.2191 7.55125L51.0816 7.06125C51.3566 6.85125 51.7004 6.78125 52.1816 6.78125C53.0066 6.78125 53.4191 7.20125 53.4191 8.11125V9.30125C53.3504 9.65125 53.3504 9.86125 53.3504 10.0713ZM52.6629 8.95125V8.46125C51.9066 8.46125 51.4941 8.67125 51.4941 9.09125C51.4941 9.23125 51.5629 9.37125 51.6316 9.44125C51.7004 9.51125 51.8379 9.58125 51.9754 9.58125C52.1129 9.58125 52.2504 9.51125 52.3879 9.44125C52.5254 9.37125 52.5941 9.23125 52.6629 9.09125C52.6629 9.09125 52.6629 9.02125 52.6629 8.95125Z" fill="white"/>
<path d="M57.3371 10.0712H56.7184V9.58117C56.5121 10.0012 56.1684 10.1412 55.6871 10.1412C55.2746 10.1412 54.9996 10.0012 54.7246 9.72117C54.4496 9.44117 54.3809 9.02117 54.3809 8.53117C54.3809 8.04117 54.5184 7.62117 54.7934 7.27117C55.0684 6.99117 55.4121 6.85117 55.7559 6.85117C56.1684 6.85117 56.4434 6.99117 56.6496 7.27117V5.45117H57.3371V10.0712ZM56.6496 8.74117V7.97117C56.5809 7.83117 56.5121 7.69117 56.3746 7.55117C56.2371 7.41117 56.0996 7.41117 55.8934 7.41117C55.6184 7.41117 55.4121 7.55117 55.2746 7.76117C55.1371 7.97117 55.0684 8.25117 55.0684 8.60117C55.0684 8.95117 55.1371 9.16117 55.2746 9.37117C55.4121 9.58117 55.6184 9.72117 55.8934 9.72117C56.0996 9.72117 56.3059 9.65117 56.4434 9.44117C56.5809 9.16117 56.6496 8.95117 56.6496 8.74117Z" fill="white"/>
<path d="M63.3184 8.46125C63.3184 8.95125 63.1809 9.37125 62.9059 9.65125C62.6309 10.0013 62.2184 10.1413 61.7371 10.1413C61.2559 10.1413 60.9121 10.0013 60.6371 9.65125C60.3621 9.37125 60.2246 8.95125 60.2246 8.46125C60.2246 7.97125 60.3621 7.55125 60.6371 7.27125C60.9121 6.92125 61.3246 6.78125 61.8059 6.78125C62.2871 6.78125 62.6309 6.92125 62.9059 7.27125C63.1809 7.55125 63.3184 7.97125 63.3184 8.46125ZM62.5621 8.46125C62.5621 8.18125 62.4934 7.90125 62.3559 7.69125C62.2184 7.41125 62.0121 7.34125 61.7371 7.34125C61.4621 7.34125 61.2559 7.48125 61.1184 7.69125C60.9809 7.90125 60.9121 8.18125 60.9121 8.46125C60.9121 8.74125 60.9809 9.02125 61.1184 9.23125C61.2559 9.51125 61.4621 9.58125 61.7371 9.58125C62.0121 9.58125 62.2184 9.44125 62.3559 9.16125C62.4934 9.02125 62.5621 8.74125 62.5621 8.46125Z" fill="white"/>
<path d="M67.1002 10.0714H66.4127V8.25143C66.4127 7.69143 66.2064 7.41143 65.7939 7.41143C65.5877 7.41143 65.4502 7.48143 65.3127 7.62143C65.1752 7.76143 65.1064 7.97143 65.1064 8.18143V10.0714H64.4189V6.85143H65.0377V7.34143C65.1064 7.20143 65.2439 7.06143 65.3814 6.92143C65.5877 6.78143 65.7939 6.71143 66.0002 6.71143C66.2752 6.71143 66.5502 6.78143 66.7564 6.99143C67.0314 7.20143 67.1002 7.55143 67.1002 8.04143V10.0714Z" fill="white"/>
<path d="M71.7752 7.41105H71.0189V8.95105C71.0189 9.37105 71.1564 9.51105 71.4314 9.51105H71.7752V10.0711C71.6377 10.1411 71.4314 10.1411 71.2252 10.1411C70.9502 10.1411 70.7439 10.0711 70.6064 9.86105C70.4689 9.72106 70.4002 9.37106 70.4002 9.02105V7.41105H69.9189V6.85105H70.4002V6.29105L71.0877 6.08105V6.85105H71.8439V7.41105H71.7752Z" fill="white"/>
<path d="M75.4879 10.0713H74.8004V8.25135C74.8004 7.69135 74.5941 7.41135 74.1816 7.41135C73.8379 7.41135 73.6316 7.55135 73.4941 7.90135V10.0713H72.8066V5.38135H73.4941V7.34135C73.7004 6.99135 74.0441 6.78135 74.4566 6.78135C74.7316 6.78135 75.0066 6.85135 75.1441 7.06135C75.3504 7.27135 75.4879 7.69135 75.4879 8.11135V10.0713Z" fill="white"/>
<path d="M79.2686 8.32107V8.67107H77.2061C77.2061 9.02107 77.3436 9.23107 77.4811 9.37107C77.6873 9.51107 77.8936 9.58107 78.1686 9.58107C78.5123 9.58107 78.7873 9.51107 78.9936 9.44107L79.1311 9.93107C78.8561 10.0711 78.5123 10.1411 78.0998 10.1411C77.6186 10.1411 77.2061 10.0011 76.9311 9.72107C76.6561 9.44107 76.5186 9.02107 76.5186 8.53107C76.5186 8.04107 76.6561 7.62107 76.9311 7.34107C77.2061 6.99107 77.5498 6.85107 78.0311 6.85107C78.5123 6.85107 78.8561 6.99107 79.0623 7.34107C79.1998 7.55107 79.2686 7.90107 79.2686 8.32107ZM78.6498 8.11107C78.6498 7.90107 78.5811 7.69107 78.5123 7.55107C78.3748 7.34107 78.2373 7.27107 77.9623 7.27107C77.7561 7.27107 77.5498 7.34107 77.4123 7.55107C77.2748 7.69107 77.2061 7.90107 77.2061 8.11107H78.6498Z" fill="white"/>
</svg>
