<svg width="29" height="28" viewBox="0 0 29 28" fill="none" xmlns="http://www.w3.org/2000/svg">
<path fill-rule="evenodd" clip-rule="evenodd" d="M14.4539 -0.000396249C11.1438 -0.001525 7.94142 1.20549 5.42005 3.40455C2.89868 5.60361 1.223 8.65112 0.693008 12.0014C0.163019 15.3518 0.813335 18.7861 2.52752 21.6897C4.24171 24.5932 6.90784 26.7763 10.0486 27.8481C10.7409 27.9806 10.9993 27.5381 10.9993 27.1619C10.9993 26.7856 10.9878 25.6948 10.9809 24.4998C7.10396 25.3659 6.28705 22.8151 6.28705 22.8151C5.65243 21.1587 4.7386 20.7233 4.7386 20.7233C3.47399 19.8359 4.83551 19.8549 4.83551 19.8549C6.23397 19.9566 6.97012 21.3267 6.97012 21.3267C8.21396 23.5131 10.2309 22.8813 11.027 22.5098C11.1516 21.587 11.5116 20.9575 11.9109 20.6002C8.81626 20.2382 5.56243 19.0125 5.56243 13.537C5.54169 12.1173 6.05584 10.7442 6.99781 9.70363C6.85242 9.34159 6.37474 7.88871 7.13166 5.91762C7.13166 5.91762 8.30165 5.53429 10.9647 7.3847C13.2493 6.74108 15.6609 6.74108 17.9454 7.3847C20.6039 5.53429 21.7739 5.91762 21.7739 5.91762C22.5308 7.88634 22.0554 9.33922 21.91 9.70363C22.8512 10.7446 23.3645 12.1177 23.3431 13.537C23.3431 19.0267 20.0847 20.2358 16.9808 20.5884C17.4816 21.0309 17.927 21.9017 17.927 23.2339C17.927 25.1458 17.9108 26.6863 17.9108 27.1571C17.9108 27.5357 18.1601 27.983 18.8662 27.841C22.0058 26.7677 24.6704 24.5838 26.3832 21.6801C28.0959 18.7765 28.745 15.3426 28.2142 11.993C27.6835 8.64347 26.0076 5.59691 23.4864 3.39861C20.9652 1.2003 17.7634 -0.00625352 14.4539 -0.00512616V-0.000396249Z" fill="white"/>
</svg>
