<svg width="96" height="96" viewBox="0 0 96 96" fill="none" xmlns="http://www.w3.org/2000/svg">
<rect width="96" height="96" rx="32" transform="matrix(-1 0 0 1 96 0)" fill="url(#paint0_linear_14_35)"/>
<g clip-path="url(#clip0_14_35)">
<path d="M54.0727 54.4384L49.0341 42.4401C48.9943 42.3307 48.9733 42.2155 48.9721 42.0993C48.9622 41.8532 49.051 41.6132 49.2195 41.4307C49.3059 41.344 49.4102 41.2763 49.5254 41.2324C49.6407 41.1884 49.7641 41.1692 49.8876 41.1759C50.0747 41.178 50.2564 41.2375 50.4073 41.346C50.5659 41.4616 50.69 41.6168 50.7667 41.7954L55.5579 53.5389L60.3498 41.7954C60.426 41.6167 60.5499 41.4614 60.7085 41.346C60.8594 41.2375 61.0412 41.178 61.2282 41.1759C61.3518 41.1691 61.4754 41.1883 61.5907 41.2322C61.7061 41.2762 61.8105 41.3439 61.897 41.4307C62.0655 41.6132 62.1543 41.8532 62.1444 42.0993C62.1431 42.2153 62.1222 42.3302 62.0824 42.4395L57.0437 54.4384C56.7599 55.0586 56.3379 55.3651 55.781 55.3651H55.3354C54.7786 55.3624 54.3572 55.0586 54.0727 54.4384Z" fill="white"/>
<path d="M64.2862 54.9976C64.2007 54.9131 64.1335 54.8123 64.0888 54.7015C64.044 54.5907 64.0227 54.4721 64.026 54.353V42.1965C64.0215 41.9528 64.115 41.7171 64.2862 41.5406C64.37 41.4531 64.4719 41.3843 64.585 41.3386C64.6982 41.2929 64.8199 41.2715 64.9421 41.2758H73.1257C73.2414 41.2726 73.3565 41.2937 73.4632 41.3377C73.5699 41.3816 73.6659 41.4474 73.7446 41.5306C73.8286 41.6088 73.8951 41.7032 73.9399 41.8079C73.9847 41.9126 74.0068 42.0254 74.0048 42.1389C74.0079 42.2508 73.9862 42.362 73.9413 42.4648C73.8963 42.5676 73.8293 42.6597 73.7446 42.7346C73.5787 42.8917 73.3562 42.9778 73.1257 42.9742H65.8833V47.4004H72.395C72.5107 47.3973 72.6257 47.4185 72.7325 47.4626C72.8392 47.5066 72.9351 47.5725 73.0138 47.6559C73.097 47.7345 73.1629 47.8289 73.2077 47.9334C73.2524 48.0378 73.275 48.1502 73.2741 48.2635C73.2771 48.3753 73.2554 48.4865 73.2105 48.5894C73.1656 48.6922 73.0985 48.7842 73.0138 48.8592C72.9321 48.9378 72.8354 48.9998 72.7292 49.0415C72.6229 49.0832 72.5093 49.1038 72.395 49.1021H65.8833V53.5514H73.1257C73.2415 53.548 73.3567 53.5691 73.4634 53.6131C73.5702 53.6572 73.6661 53.7233 73.7446 53.8069C73.8286 53.8848 73.8952 53.9791 73.94 54.0838C73.9848 54.1884 74.0069 54.301 74.0048 54.4145C74.0079 54.5264 73.9862 54.6375 73.9413 54.7404C73.8963 54.8432 73.8293 54.9353 73.7446 55.0102C73.5792 55.1685 73.3567 55.2559 73.1257 55.2531H64.9421C64.8203 55.262 64.6979 55.2436 64.5843 55.1993C64.4707 55.1551 64.3688 55.0861 64.2862 54.9976V54.9976Z" fill="white"/>
<path d="M50.1727 54.0982L45.1347 42.0993C44.8509 41.4797 44.4269 41.1759 43.872 41.1759H43.4258C42.8682 41.1759 42.4476 41.4797 42.1631 42.1026L39.9714 47.3316H38.3129C38.0736 47.333 37.8445 47.4269 37.6753 47.5931C37.506 47.7592 37.4103 47.9842 37.4089 48.2192V48.2311C37.4101 48.4661 37.5058 48.6912 37.6751 48.8574C37.8443 49.0236 38.0736 49.1175 38.3129 49.1187H39.2042L37.1143 54.1028C37.0746 54.2121 37.0536 54.327 37.0523 54.443C37.0423 54.6891 37.1311 54.9292 37.2997 55.1115C37.3861 55.1985 37.4906 55.2663 37.6059 55.3104C37.7213 55.3544 37.8449 55.3737 37.9685 55.367C38.1554 55.3643 38.337 55.3049 38.4882 55.1969C38.6467 55.081 38.7707 54.9256 38.8476 54.7468L41.1498 49.1207H42.7334C42.9727 49.1193 43.2019 49.0253 43.3711 48.8592C43.5403 48.693 43.636 48.4681 43.6374 48.2331V48.2033C43.6362 47.9683 43.5406 47.7432 43.3713 47.577C43.202 47.4108 42.9728 47.3169 42.7334 47.3157H41.8772L43.6482 43.0001L48.4395 54.7435C48.5157 54.9223 48.6396 55.0776 48.7981 55.193C48.9493 55.3016 49.1312 55.3611 49.3186 55.3631C49.442 55.3698 49.5655 55.3506 49.6807 55.3066C49.7959 55.2627 49.9002 55.195 49.9867 55.1082C50.1552 54.9256 50.2441 54.6853 50.2341 54.4391C50.2394 54.3224 50.2184 54.206 50.1727 54.0982V54.0982Z" fill="white"/>
<path d="M35.1189 54.0984L30.0809 42.0995C29.7977 41.48 29.3744 41.1761 28.8168 41.1761H28.3712C27.8144 41.1761 27.3937 41.48 27.1085 42.1028L24.9175 47.3318H23.2584C23.0191 47.3334 22.7901 47.4274 22.6209 47.5935C22.4517 47.7596 22.3559 47.9845 22.3544 48.2194V48.2313C22.3572 48.4655 22.4535 48.6891 22.6225 48.8543C22.7916 49.0194 23.0199 49.1128 23.2584 49.1143H24.1496L22.0598 54.0984C22.02 54.2077 21.9991 54.3226 21.9977 54.4386C21.9876 54.6847 22.0765 54.9249 22.2451 55.1072C22.3316 55.1941 22.436 55.2619 22.5514 55.306C22.6667 55.35 22.7903 55.3694 22.9139 55.3626C23.1009 55.3599 23.2824 55.3005 23.4337 55.1925C23.5921 55.0766 23.7162 54.9212 23.793 54.7424L26.0953 49.1163H27.6903C27.9296 49.1149 28.1588 49.0209 28.328 48.8548C28.4972 48.6886 28.5929 48.4637 28.5944 48.2287V48.2035C28.5931 47.9685 28.4975 47.7434 28.3282 47.5773C28.1589 47.4111 27.9297 47.3171 27.6903 47.3159H26.8362L28.5944 42.9997L33.3856 54.7424C33.462 54.9215 33.5861 55.077 33.7449 55.1925C33.8962 55.3005 34.0777 55.3599 34.2647 55.3626C34.3883 55.3692 34.5118 55.3498 34.6271 55.3057C34.7425 55.2617 34.8469 55.194 34.9335 55.1072C35.1019 54.9247 35.1908 54.6847 35.1809 54.4386C35.1854 54.3222 35.1643 54.2061 35.1189 54.0984V54.0984Z" fill="white"/>
</g>
<defs>
<linearGradient id="paint0_linear_14_35" x1="88.8889" y1="88.6349" x2="14.4762" y2="14.4762" gradientUnits="userSpaceOnUse">
<stop stop-color="#6DDDE4"/>
<stop offset="1" stop-color="#BD97ED"/>
</linearGradient>
<clipPath id="clip0_14_35">
<rect width="53.9326" height="14.5618" fill="white" transform="translate(21.0337 40.9888)"/>
</clipPath>
</defs>
</svg>
