<svg width="102" height="102" viewBox="0 0 102 102" fill="none" xmlns="http://www.w3.org/2000/svg" alt="Logo for Aave">
<title>Aave</title>
<rect width="102" height="102" rx="32" fill="url(#paint0_linear_3300_8582)"/>
<path d="M70.289 68.4752L55.4106 32.5041C54.5714 30.6443 53.324 29.7371 51.6797 29.7371H50.3642C48.7199 29.7371 47.4725 30.6443 46.6333 32.5041L40.158 48.1762H35.2591C33.7962 48.1876 32.6055 49.367 32.5941 50.8412V50.8752C32.6055 52.3381 33.7962 53.5288 35.2591 53.5402H37.89L31.7096 68.4752C31.5962 68.8041 31.5281 69.1443 31.5281 69.4958C31.5281 70.335 31.789 70.9927 32.2539 71.503C32.7189 72.0133 33.3879 72.2628 34.2271 72.2628C34.7828 72.2515 35.3158 72.0814 35.758 71.7525C36.2343 71.4237 36.5632 70.9474 36.824 70.403L43.6281 53.5288H48.3457C49.8085 53.5175 50.9993 52.3381 51.0106 50.8639V50.7958C50.9993 49.3329 49.8085 48.1422 48.3457 48.1309H45.8281L51.022 35.1917L65.1745 70.3917C65.4354 70.936 65.7642 71.4123 66.2405 71.7412C66.6828 72.0701 67.2271 72.2402 67.7714 72.2515C68.6106 72.2515 69.2683 72.002 69.7446 71.4917C70.2209 70.9814 70.4704 70.3237 70.4704 69.4845C70.4817 69.1443 70.425 68.7927 70.289 68.4752Z" fill="white"/>
<defs>
<linearGradient id="paint0_linear_3300_8582" x1="12" y1="98.5" x2="89.5" y2="7" gradientUnits="userSpaceOnUse">
<stop stop-color="#39B2C4"/>
<stop offset="0.514687" stop-color="#7683B2"/>
<stop offset="1" stop-color="#A75DA3"/>
</linearGradient>
</defs>
</svg>
