<svg width="102" height="102" viewBox="0 0 102 102" fill="none" xmlns="http://www.w3.org/2000/svg">
<rect width="102" height="102" rx="32" fill="#E6FDFF"/>
<g clip-path="url(#clip0_3300_8575)">
<path d="M51 95.5C75.5767 95.5 95.5 75.5767 95.5 51C95.5 26.4233 75.5767 6.5 51 6.5C26.4233 6.5 6.5 26.4233 6.5 51C6.5 75.5767 26.4233 95.5 51 95.5Z" fill="url(#paint0_linear_3300_8575)" fill-opacity="0.05"/>
<path d="M85.7656 48.0519C86.0716 41.6411 81.5938 37.3858 76.5319 34.4655L73.25 53.7812C73.9276 53.6871 74.6175 53.7402 75.2727 53.937C75.9278 54.1338 76.5328 54.4696 77.0464 54.9215C77.6348 55.4989 77.9866 56.275 78.0329 57.0981C78.0792 57.9212 77.8167 58.7319 77.2967 59.3715C80.4673 58.8431 85.4041 55.7976 85.7656 48.0519Z" fill="url(#paint1_linear_3300_8575)"/>
<path fill-rule="evenodd" clip-rule="evenodd" d="M42.6563 25.5933L38.7625 21.6579C44.6588 20.9347 60.2199 21.8525 75.2803 31.2949C75.4181 32.1376 75.4181 32.997 75.2803 33.8397L76.5458 34.4794C77.5574 36.1575 78.2237 38.0207 78.5055 39.9598C78.7873 41.8989 78.6789 43.8747 78.1867 45.7713C76.8795 51 74.6406 53.3085 73.6394 53.7813C71.623 53.7813 68.1881 54.9494 67.0756 60.1225C65.9631 65.2957 63.8216 66.4221 62.9038 66.3386L40.6538 66.6029L25.9688 57.9532L23.855 40.0558L28.0269 34.4933L35.4806 28.4024L40.7928 26.233L42.6563 25.5933ZM68.953 32.9219C68.3247 33.5879 67.592 34.1469 66.7836 34.5768C61.0681 33.353 58.9961 30.4049 58.9961 30.4049C63.8563 30.2597 68.6642 31.4424 72.9024 33.8258C71.6118 33.4208 70.2912 33.1186 68.953 32.9219Z" fill="url(#paint2_linear_3300_8575)"/>
<path fill-rule="evenodd" clip-rule="evenodd" d="M66.8809 60.1225C62.6478 62.1584 58.0055 63.2 53.3084 63.168C39.277 63.168 27.9156 54.3514 27.9156 43.4907C27.9156 35.4528 34.1178 28.5553 43.0039 25.496C26.0939 26.4694 12.4936 40.0558 12.4936 56.8268C12.4936 76.1843 29.7512 92.1764 51 92.1764C58.3845 92.1153 65.6192 90.0874 71.9596 86.3013C78.2999 82.5152 83.5166 77.1077 87.0728 70.6357C77.547 72.7772 66.2969 68.7027 66.8809 60.1225Z" fill="url(#paint3_linear_3300_8575)"/>
</g>
<defs>
<linearGradient id="paint0_linear_3300_8575" x1="51" y1="37.6361" x2="51" y2="96.6681" gradientUnits="userSpaceOnUse">
<stop stop-color="#01E8F8"/>
<stop offset="1" stop-color="#01E8F8" stop-opacity="0"/>
</linearGradient>
<linearGradient id="paint1_linear_3300_8575" x1="78.6734" y1="40.1114" x2="80.6481" y2="63.7103" gradientUnits="userSpaceOnUse">
<stop stop-color="#01E8F7"/>
<stop offset="1" stop-color="#00C2FF"/>
</linearGradient>
<linearGradient id="paint2_linear_3300_8575" x1="39.8055" y1="27.4289" x2="62.723" y2="63.8077" gradientUnits="userSpaceOnUse">
<stop stop-color="#01E8F7"/>
<stop offset="1" stop-color="#00B3EC"/>
</linearGradient>
<linearGradient id="paint3_linear_3300_8575" x1="49.0948" y1="44.3807" x2="51.1391" y2="103.093" gradientUnits="userSpaceOnUse">
<stop stop-color="#01E8F7"/>
<stop offset="1" stop-color="#00C2FF"/>
</linearGradient>
<clipPath id="clip0_3300_8575">
<rect width="89" height="89" fill="white" transform="translate(6.5 6.5)"/>
</clipPath>
</defs>
</svg>
