<svg width="102" height="102" viewBox="0 0 102 102" fill="none" xmlns="http://www.w3.org/2000/svg" alt="Logo for Aragon">
<title>Aragon</title>
<rect width="102" height="102" rx="32" fill="#C9ECF3"/>
<g clip-path="url(#clip0_3300_8575)">
<path d="M51.5 82C70.5538 82 86 66.5538 86 47.5C86 28.4462 70.5538 13 51.5 13C32.4462 13 17 28.4462 17 47.5C17 66.5538 32.4462 82 51.5 82Z" fill="url(#paint0_linear_3300_8575)" fill-opacity="0.05"/>
<path d="M78.4531 45.2144C78.6903 40.2443 75.2188 36.9452 71.2944 34.6812L68.75 49.6563C69.2753 49.5833 69.8102 49.6245 70.3181 49.7771C70.8261 49.9297 71.2951 50.19 71.6933 50.5404C72.1495 50.988 72.4222 51.5897 72.4581 52.2278C72.494 52.8659 72.2905 53.4944 71.8873 53.9904C74.3455 53.5807 78.1728 51.2196 78.4531 45.2144Z" fill="url(#paint1_linear_3300_8575)"/>
<path fill-rule="evenodd" clip-rule="evenodd" d="M45.0312 27.8027L42.0125 24.7516C46.5837 24.1909 58.648 24.9025 70.324 32.223C70.4309 32.8763 70.4309 33.5426 70.324 34.1959L71.3051 34.6919C72.0895 35.9929 72.606 37.4374 72.8245 38.9407C73.0429 40.444 72.9589 41.9758 72.5773 43.4463C71.5639 47.5 69.8281 49.2897 69.0519 49.6563C67.4886 49.6563 64.8256 50.5619 63.9631 54.5725C63.1006 58.5831 61.4403 59.4564 60.7287 59.3917L43.4787 59.5966L32.0937 52.8906L30.455 39.0152L33.6894 34.7027L39.4681 29.9805L43.5865 28.2986L45.0312 27.8027ZM65.4186 33.4844C64.9315 34.0007 64.3634 34.4341 63.7367 34.7673C59.3056 33.8186 57.6992 31.533 57.6992 31.533C61.4672 31.4204 65.1947 32.3374 68.4805 34.1852C67.4799 33.8712 66.4561 33.6369 65.4186 33.4844Z" fill="url(#paint2_linear_3300_8575)"/>
<path fill-rule="evenodd" clip-rule="evenodd" d="M63.8122 54.5725C60.5304 56.1508 56.9313 56.9584 53.2897 56.9336C42.4114 56.9336 33.6031 50.0983 33.6031 41.6781C33.6031 35.4465 38.4116 30.099 45.3008 27.7272C32.1908 28.4819 21.6467 39.0151 21.6467 52.0173C21.6467 67.0248 35.0263 79.4233 51.5 79.4233C57.225 79.3759 62.834 77.8036 67.7496 74.8683C72.6651 71.9331 76.7095 67.7408 79.4666 62.7231C72.0814 64.3834 63.3594 61.2245 63.8122 54.5725Z" fill="url(#paint3_linear_3300_8575)"/>
</g>
<defs>
<linearGradient id="paint0_linear_3300_8575" x1="51.5" y1="37.1392" x2="51.5" y2="82.9056" gradientUnits="userSpaceOnUse">
<stop stop-color="#01E8F8"/>
<stop offset="1" stop-color="#01E8F8" stop-opacity="0"/>
</linearGradient>
<linearGradient id="paint1_linear_3300_8575" x1="72.9547" y1="39.0583" x2="74.4856" y2="57.3541" gradientUnits="userSpaceOnUse">
<stop stop-color="#01E8F7"/>
<stop offset="1" stop-color="#00C2FF"/>
</linearGradient>
<linearGradient id="paint2_linear_3300_8575" x1="42.8211" y1="29.2258" x2="60.5886" y2="57.4295" gradientUnits="userSpaceOnUse">
<stop stop-color="#01E8F7"/>
<stop offset="1" stop-color="#00B3EC"/>
</linearGradient>
<linearGradient id="paint3_linear_3300_8575" x1="50.023" y1="42.3681" x2="51.6078" y2="87.8865" gradientUnits="userSpaceOnUse">
<stop stop-color="#01E8F7"/>
<stop offset="1" stop-color="#00C2FF"/>
</linearGradient>
<clipPath id="clip0_3300_8575">
<rect width="69" height="69" fill="white" transform="translate(17 13)"/>
</clipPath>
</defs>
</svg>
