<svg width="104" height="104" viewBox="0 0 104 104" fill="none" xmlns="http://www.w3.org/2000/svg">
<rect x="1" y="1" width="102" height="102" rx="32" fill="#000D2B"/>
<g clip-path="url(#clip0_3300_8586)">
<path d="M52 103.5C80.4427 103.5 103.5 80.4427 103.5 52C103.5 23.5573 80.4427 0.5 52 0.5C23.5573 0.5 0.5 23.5573 0.5 52C0.5 80.4427 23.5573 103.5 52 103.5Z" fill="#000D2B"/>
<path d="M51.7425 19.4263L37.2002 27.9463L51.7425 36.4696L66.5584 27.9463L51.7425 19.4263ZM54.134 64.9201V81.9634L73.8875 70.6945V53.648L54.134 64.9201ZM68.9499 33.3055V50.352L54.1308 58.8753V41.8288L68.9499 33.3055ZM33.2798 50.352L48.0989 58.8753V41.8288L33.2798 33.3055V50.352ZM33.2798 73.4433L48.0989 81.9634V64.9201L33.2798 56.4001V73.4401V73.4433Z" fill="white"/>
</g>
<defs>
<clipPath id="clip0_3300_8586">
<rect width="103" height="103" fill="white" transform="translate(0.5 0.5)"/>
</clipPath>
</defs>
</svg>
