<svg width="102" height="102" viewBox="0 0 102 102" fill="none" xmlns="http://www.w3.org/2000/svg" alt="Logo for Coindesk">
<title>Coindesk</title>
<rect width="102" height="102" rx="32" fill="#101820"/>
<path d="M48.9373 50.9623C48.9373 52.2438 49.9384 53.2449 51.2199 53.2449C52.5014 53.2449 53.5025 52.2438 53.5025 50.9623C53.5025 49.6808 52.5014 48.6797 51.2199 48.6797C49.9384 48.7197 48.9373 49.7209 48.9373 50.9623ZM68.0793 48.7197C66.7978 48.7197 65.7966 49.7209 65.7966 51.0024C65.7966 52.2838 66.7978 53.285 68.0793 53.285C69.3607 53.285 70.3619 52.2838 70.3619 51.0024C70.3619 49.7209 69.3607 48.7197 68.0793 48.7197ZM68.0793 65.8595C66.7978 65.8595 65.7966 66.8606 65.7966 68.1421C65.7966 69.4236 66.7978 70.4247 68.0793 70.4247C69.3607 70.4247 70.3619 69.4236 70.3619 68.1421C70.3619 66.8606 69.3607 65.8595 68.0793 65.8595Z" fill="#F3BB2D"/>
<path d="M72.9249 29.8581C70.6422 27.0148 66.5575 26.8947 64.1548 29.1372L63.8744 29.4176L63.3138 29.8581C61.0312 31.7002 57.6273 31.54 55.5048 29.4176V29.2574C54.784 28.5365 53.8229 27.9759 52.8217 27.6956C52.6615 27.6956 52.3812 27.5354 52.2611 27.5354H49.9785C49.8183 27.5354 49.6981 27.5354 49.538 27.6956H49.2576C49.0974 27.6956 48.9773 27.8558 48.8171 27.8558C48.8171 27.8558 48.6569 27.8558 48.6569 28.016C48.4968 28.016 48.3766 28.1761 48.2164 28.1761C48.2164 28.1761 48.0562 28.1761 48.0562 28.3363C47.8961 28.4965 47.7759 28.4965 47.6157 28.6166C47.6157 28.6166 47.4556 28.6166 47.4556 28.7768C47.2954 28.937 47.1752 28.937 47.0151 29.0571L46.8549 29.2173L46.5745 29.4977L46.0139 29.9382C43.7313 31.7803 40.3274 31.6201 38.3651 29.4977C38.3651 29.4977 38.2049 29.4977 38.2049 29.3375L37.9246 29.0571C37.0836 28.3363 36.0825 27.7757 34.9612 27.6555H32.3982C32.3982 27.8157 32.2381 27.8157 32.1179 27.9359H32.0779C31.357 28.2162 30.6763 28.4965 30.0756 29.0571L29.9154 29.2173L29.4749 29.6578C28.9142 30.2185 28.6339 30.9393 28.3536 31.5C28.3536 31.6601 28.1934 31.7803 28.1934 31.9405C28.1934 32.1007 28.0332 32.2208 28.0332 32.5011C27.873 33.5023 27.873 34.5034 28.1934 35.4645C28.1934 35.6247 28.3536 35.7448 28.3536 35.905V36.0652C28.3536 36.2254 28.5138 36.3455 28.5138 36.5057C28.674 36.6659 28.674 36.786 28.7941 37.0664C29.0744 37.2265 29.3547 37.5069 29.5149 37.627L29.7952 37.9073L30.0756 38.1877C32.198 40.3101 32.198 43.9943 29.9154 46.277C29.6351 46.5573 29.1946 46.9978 29.0744 47.2781C28.9142 47.4383 28.9142 47.5584 28.7941 47.8388V47.9989C28.6339 48.1591 28.6339 48.2793 28.5138 48.4394V48.5996C28.5138 48.7598 28.3536 48.88 28.3536 49.0401V49.2003C28.3536 49.3605 28.3536 49.4806 28.1934 49.6408V51.7633C28.1934 51.9235 28.1934 52.0436 28.3536 52.2038V52.364C28.6339 53.3651 29.1946 54.3663 30.0355 55.2072C32.3181 57.4899 32.3181 61.1741 30.0355 63.4167L29.8753 63.5769L29.595 63.8572V64.0174C29.4348 64.1776 29.3147 64.2977 29.3147 64.4579C29.3147 64.4579 29.3147 64.6181 29.1545 64.6181C28.9943 64.7782 28.9943 64.8984 28.8742 65.0586L28.714 65.2188C28.714 65.3789 28.5538 65.3789 28.5538 65.4991C28.5538 65.6192 28.3936 65.6593 28.3936 65.7794C28.3936 65.9396 28.3936 65.9396 28.2334 66.0597C27.9531 66.6204 27.7929 67.3412 27.7929 67.9018V69.0231C27.9531 69.4636 27.9531 69.8641 28.2334 70.1444C28.2334 70.3046 28.3936 70.4247 28.3936 70.4247C28.3936 70.4247 28.3936 70.5849 28.5538 70.5849C28.5538 70.7451 28.714 70.8652 28.714 71.0254C28.714 71.0254 28.714 71.1856 28.8742 71.1856C29.0344 71.4659 29.1545 71.6261 29.3147 71.7463C29.3147 71.7463 29.3147 71.9064 29.4749 71.9064C29.4749 71.9064 29.4749 72.0666 29.6351 72.0666C29.6351 72.2268 29.7952 72.2268 29.7952 72.2268L29.9554 72.387C30.1156 72.5472 30.2357 72.5472 30.2357 72.6673L30.3959 72.8275C30.3959 72.8275 30.5561 72.8275 30.5561 72.9877C30.7163 73.1479 30.8364 73.268 30.9966 73.268C30.9966 73.268 31.1568 73.268 31.1568 73.4282C31.317 73.5884 31.4371 73.5884 31.5973 73.7085H31.6774C31.8376 73.8687 31.9577 73.8687 32.2381 73.8687C32.3982 73.8687 32.6786 74.0289 32.7987 74.0289H32.9589C33.1191 74.0289 33.2392 74.0289 33.3994 74.1891H34.6809C35.1214 74.1891 35.4017 74.0289 35.8022 74.0289H35.9623C36.1225 74.0289 36.2427 73.8687 36.4028 73.8687H36.4829C36.6431 73.8687 36.7633 73.7085 36.9234 73.7085H37.0836C37.3639 73.5483 37.8045 73.268 38.0848 73.1479L38.5253 72.7074L38.6855 72.5472C40.9681 70.1444 44.6523 70.1444 46.8949 72.5472C49.4579 75.2303 53.7027 75.1101 56.1055 72.1067C57.7874 69.9842 57.7874 66.8606 56.1055 64.578C53.8229 61.7347 49.7382 61.6146 47.3354 63.8572L47.0551 64.1375L46.4944 64.578C44.2118 66.4201 40.8079 66.2599 38.6855 64.1375L38.4051 63.8572L37.9646 63.2965C36.1225 61.0139 36.2827 57.61 38.4051 55.4875C39.6866 54.3663 40.2473 52.8045 40.2473 51.2427V50.8022C40.2473 49.4006 39.6866 47.9589 38.5653 46.9577C38.5653 46.7976 38.4051 46.7976 38.4051 46.6774L37.9646 46.1168C36.1225 43.8341 36.2827 40.4302 38.4051 38.3078L38.5653 38.1476L38.7255 37.9874C41.0081 35.5847 44.6924 35.5847 46.935 37.9874L47.0951 38.1476L47.2553 38.3078L47.5356 38.5881C47.6958 38.5881 47.6958 38.7483 47.816 38.7483C47.9361 38.7483 47.9762 38.9085 48.0963 38.9085C48.2164 38.9085 48.2565 39.0687 48.3766 39.0687C48.4968 39.0687 48.5368 39.2289 48.6569 39.2289C48.7771 39.2289 48.8171 39.389 48.9373 39.389C49.0574 39.389 49.0974 39.5492 49.2176 39.5492C49.3377 39.5492 49.3778 39.5492 49.4979 39.7094C49.6581 39.7094 49.6581 39.7094 49.7782 39.8696H52.181C52.3412 39.8696 52.4613 39.8696 52.6215 39.7094H52.9018C53.062 39.7094 53.1821 39.5492 53.3423 39.5492H53.5025C53.6627 39.5492 53.7828 39.389 54.0632 39.2689C54.6238 38.9886 55.1844 38.5481 55.625 38.1476L55.7851 37.9874C58.0678 35.5847 61.752 35.5847 63.9946 37.9874C66.3973 40.8307 70.8024 40.6705 73.085 37.7071C74.6068 35.1041 74.6068 31.9805 72.9249 29.8581Z" fill="#F3BB2D"/>
</svg>
