<svg width="102" height="102" viewBox="0 0 102 102" fill="none" xmlns="http://www.w3.org/2000/svg">
<rect width="102" height="102" rx="32" fill="#101820"/>
<path d="M47.9357 50.9442C47.9357 52.8479 49.4229 54.3352 51.3266 54.3352C53.2304 54.3352 54.7176 52.8479 54.7176 50.9442C54.7176 49.0405 53.2304 47.5532 51.3266 47.5532C49.4229 47.6127 47.9357 49.1 47.9357 50.9442ZM76.3723 47.6127C74.4686 47.6127 72.9813 49.1 72.9813 51.0037C72.9813 52.9074 74.4686 54.3947 76.3723 54.3947C78.276 54.3947 79.7632 52.9074 79.7632 51.0037C79.7632 49.1 78.276 47.6127 76.3723 47.6127ZM76.3723 73.0748C74.4686 73.0748 72.9813 74.562 72.9813 76.4657C72.9813 78.3695 74.4686 79.8567 76.3723 79.8567C78.276 79.8567 79.7632 78.3695 79.7632 76.4657C79.7632 74.562 78.276 73.0748 76.3723 73.0748Z" fill="#F3BB2D"/>
<path d="M83.5706 19.5925C80.1797 15.3687 74.1116 15.1902 70.5422 18.5217L70.1257 18.9382L69.2929 19.5925C65.9019 22.3291 60.8452 22.0912 57.6922 18.9382V18.7002C56.6213 17.6294 55.1935 16.7965 53.7063 16.38C53.4683 16.38 53.0519 16.1421 52.8734 16.1421H49.4824C49.2445 16.1421 49.066 16.1421 48.828 16.38H48.4116C48.1736 16.38 47.9952 16.618 47.7572 16.618C47.7572 16.618 47.5192 16.618 47.5192 16.856C47.2813 16.856 47.1028 17.0939 46.8648 17.0939C46.8648 17.0939 46.6269 17.0939 46.6269 17.3319C46.3889 17.5699 46.2104 17.5699 45.9725 17.7483C45.9725 17.7483 45.7345 17.7483 45.7345 17.9863C45.4965 18.2243 45.3181 18.2243 45.0801 18.4027L44.8421 18.6407L44.4257 19.0571L43.5928 19.7115C40.2019 22.4481 35.1452 22.2101 32.2301 19.0571C32.2301 19.0571 31.9921 19.0571 31.9921 18.8192L31.5757 18.4027C30.3264 17.3319 28.8391 16.499 27.1734 16.3206H23.366C23.366 16.5585 23.128 16.5585 22.9495 16.737H22.8901C21.8192 17.1534 20.8079 17.5699 19.9155 18.4027L19.6775 18.6407L19.0231 19.2951C18.1903 20.128 17.7738 21.1988 17.3574 22.0317C17.3574 22.2696 17.1194 22.4481 17.1194 22.6861C17.1194 22.924 16.8815 23.1025 16.8815 23.5189C16.6435 25.0062 16.6435 26.4935 17.1194 27.9213C17.1194 28.1592 17.3574 28.3377 17.3574 28.5757V28.8136C17.3574 29.0516 17.5954 29.2301 17.5954 29.468C17.8333 29.706 17.8333 29.8845 18.0118 30.3009C18.4282 30.5389 18.8447 30.9553 19.0826 31.1338L19.4991 31.5502L19.9155 31.9666C23.0685 35.1197 23.0685 40.5928 19.6775 43.9838C19.2611 44.4002 18.6067 45.0546 18.4282 45.471C18.1903 45.709 18.1903 45.8875 18.0118 46.3039V46.5419C17.7738 46.7798 17.7738 46.9583 17.5954 47.1963V47.4342C17.5954 47.6722 17.3574 47.8507 17.3574 48.0886V48.3266C17.3574 48.5646 17.3574 48.743 17.1194 48.981V52.134C17.1194 52.372 17.1194 52.5505 17.3574 52.7884V53.0264C17.7738 54.5136 18.6067 56.0009 19.856 57.2502C23.247 60.6412 23.247 66.1143 19.856 69.4458L19.6181 69.6838L19.2016 70.1002V70.3382C18.9637 70.5762 18.7852 70.7546 18.7852 70.9926C18.7852 70.9926 18.7852 71.2306 18.5472 71.2306C18.3093 71.4685 18.3093 71.647 18.1308 71.885L17.8928 72.1229C17.8928 72.3609 17.6549 72.3609 17.6549 72.5393C17.6549 72.7178 17.4169 72.7773 17.4169 72.9558C17.4169 73.1937 17.4169 73.1938 17.1789 73.3722C16.7625 74.2051 16.5245 75.2759 16.5245 76.1088V77.7745C16.7625 78.4289 16.7625 79.0238 17.1789 79.4403C17.1789 79.6782 17.4169 79.8567 17.4169 79.8567C17.4169 79.8567 17.4169 80.0947 17.6549 80.0947C17.6549 80.3326 17.8928 80.5111 17.8928 80.7491C17.8928 80.7491 17.8928 80.987 18.1308 80.987C18.3688 81.4035 18.5472 81.6414 18.7852 81.8199C18.7852 81.8199 18.7852 82.0579 19.0231 82.0579C19.0231 82.0579 19.0231 82.2958 19.2611 82.2958C19.2611 82.5338 19.4991 82.5338 19.4991 82.5338L19.737 82.7718C19.975 83.0097 20.1535 83.0097 20.1535 83.1882L20.3914 83.4262C20.3914 83.4262 20.6294 83.4262 20.6294 83.6641C20.8674 83.9021 21.0458 84.0806 21.2838 84.0806C21.2838 84.0806 21.5218 84.0806 21.5218 84.3185C21.7597 84.5565 21.9382 84.5565 22.1762 84.735H22.2951C22.5331 84.9729 22.7116 84.9729 23.128 84.9729C23.366 84.9729 23.7824 85.2109 23.9609 85.2109H24.1988C24.4368 85.2109 24.6153 85.2109 24.8532 85.4489H26.757C27.4113 85.4489 27.8278 85.2109 28.4227 85.2109H28.6607C28.8986 85.2109 29.0771 84.9729 29.3151 84.9729H29.434C29.672 84.9729 29.8505 84.735 30.0884 84.735H30.3264C30.7428 84.497 31.3972 84.0806 31.8137 83.9021L32.4681 83.2477L32.706 83.0097C36.097 79.4403 41.5702 79.4403 44.9016 83.0097C48.709 86.9956 55.0151 86.8171 58.5845 82.3553C61.0831 79.2023 61.0831 74.562 58.5845 71.1711C55.1935 66.9472 49.1255 66.7688 45.556 70.1002L45.1396 70.5167L44.3067 71.1711C40.9158 73.9076 35.859 73.6697 32.706 70.5167L32.2896 70.1002L31.6352 69.2673C28.8986 65.8764 29.1366 60.8197 32.2896 57.6666C34.1933 56.0009 35.0262 53.6808 35.0262 51.3606V50.7062C35.0262 48.6241 34.1933 46.4824 32.5276 44.9951C32.5276 44.7572 32.2896 44.7571 32.2896 44.5787L31.6352 43.7458C28.8986 40.3548 29.1366 35.2981 32.2896 32.1451L32.5276 31.9071L32.7655 31.6692C36.1565 28.0997 41.6296 28.0997 44.9611 31.6692L45.1991 31.9071L45.4371 32.1451L45.8535 32.5616C46.0915 32.5616 46.0915 32.7995 46.2699 32.7995C46.4484 32.7995 46.5079 33.0375 46.6864 33.0375C46.8648 33.0375 46.9243 33.2754 47.1028 33.2754C47.2813 33.2754 47.3408 33.5134 47.5192 33.5134C47.6977 33.5134 47.7572 33.7514 47.9357 33.7514C48.1141 33.7514 48.1736 33.9893 48.3521 33.9893C48.5306 33.9893 48.5901 33.9893 48.7685 34.2273C49.0065 34.2273 49.0065 34.2273 49.185 34.4652H52.7544C52.9924 34.4652 53.1709 34.4652 53.4088 34.2273H53.8253C54.0632 34.2273 54.2417 33.9893 54.4797 33.9893H54.7176C54.9556 33.9893 55.1341 33.7514 55.5505 33.5729C56.3834 33.1564 57.2162 32.5021 57.8706 31.9071L58.1086 31.6692C61.4996 28.0997 66.9727 28.0997 70.3042 31.6692C73.8736 35.893 80.4176 35.6551 83.8086 31.2527C86.0693 27.3858 86.0693 22.7456 83.5706 19.5925Z" fill="#F3BB2D"/>
</svg>
