<svg width="102" height="102" viewBox="0 0 102 102" fill="none" xmlns="http://www.w3.org/2000/svg" alt="Logo for Cryptocurrency Jobs">
<title>Cryptocurrency Jobs</title>
<rect width="102" height="102" rx="32" fill="#575E84"/>
<g clip-path="url(#clip0_3380_8454)">
<path d="M63.4922 58.939L50.9996 66.4268L38.5078 58.939V44.057L38.5389 44.0761L50.9222 36.6537L63.3829 44.1225L63.4922 44.057L76 36.5825V36.556L53.9007 22.8282C53.024 22.2837 52.0216 21.9961 51 21.9961C49.9784 21.9961 48.976 22.2837 48.0993 22.8282L28.7494 34.8499C27.911 35.3705 27.217 36.1079 26.7351 36.9901C26.2532 37.8724 25.9999 38.8693 26 39.8835V62.1157C25.9999 63.1299 26.2532 64.1268 26.7351 65.0091C27.217 65.8913 27.911 66.6287 28.7494 67.1493L48.0993 79.171C48.976 79.7156 49.9784 80.0031 51 80.0031C52.0216 80.0031 53.024 79.7156 53.9007 79.171L76 65.4416V51.4661L63.4922 58.9423V58.939Z" fill="white"/>
<path d="M38.5078 44.0574V44.0963L38.5405 44.0773L38.5078 44.0574Z" fill="#6100C6"/>
<path d="M50.923 66.4255L38.4671 58.9593V44.1212L50.923 51.5866V66.4255Z" fill="#14E014"/>
<path d="M50.923 51.6015L38.4671 44.1361L50.923 36.6549L63.3789 44.1212L50.923 51.6015Z" fill="#00FF00"/>
<path d="M63.3789 58.975L50.923 66.4404V51.6024L63.3789 44.1361V58.975Z" fill="#0FCE0F"/>
</g>
<defs>
<clipPath id="clip0_3380_8454">
<rect width="50" height="58" fill="white" transform="translate(26 22)"/>
</clipPath>
</defs>
</svg>
