<svg width="102" height="102" viewBox="0 0 102 102" fill="none" xmlns="http://www.w3.org/2000/svg" alt="Logo for Flipside">
<title>Flipside</title>
<rect x="0.5" y="0.5" width="101" height="101" rx="31.5" fill="white"/>
<path fill-rule="evenodd" clip-rule="evenodd" d="M50.97 78C48.8725 78 46.8948 77.4637 45.0969 76.4508L31.3731 68.7045C27.7174 66.6786 25.5 62.8651 25.5 58.7537V43.2612C25.5 39.1498 27.7773 35.3363 31.3731 33.3103L45.0969 25.5641C48.7526 23.4786 53.2474 23.4786 56.9031 25.5641L70.6269 33.3103C72.3649 34.2637 73.8032 35.6938 74.8819 37.3622L56.8431 47.6706C53.3073 49.6966 51.03 53.6293 51.03 57.6215V78H50.97ZM76.5 56.0723V58.7537C76.5 62.8651 74.2227 66.6786 70.6269 68.7045L56.9031 76.4508C56.5435 76.6891 56.124 76.8679 55.7045 77.0466V72.2202C55.7644 69.7771 57.0229 67.5128 59.1204 66.2615C64.2744 63.2822 69.4883 60.3625 74.5823 57.3832C75.3014 57.0257 75.9007 56.6086 76.5 56.0723ZM76.3801 41.7716C76.4401 42.2483 76.5 42.725 76.5 43.2612V46.0618C76.4401 49.1007 74.822 51.9012 72.1851 53.5101C67.0311 56.4894 61.8173 59.4091 56.7233 62.3884C56.3637 62.5672 56.0041 62.8055 55.7045 63.0439V57.6215C55.7644 55.1785 57.0828 52.9142 59.2403 51.6629L76.3801 41.7716Z" fill="black"/>
<rect x="0.5" y="0.5" width="101" height="101" rx="31.5" stroke="#CFCFCF"/>
</svg>
