<svg width="102" height="102" viewBox="0 0 102 102" fill="none" xmlns="http://www.w3.org/2000/svg">
<rect width="102" height="102" rx="32" fill="white"/>
<path fill-rule="evenodd" clip-rule="evenodd" d="M50.9571 90C47.9548 90 45.124 89.2254 42.5505 87.7622L22.9066 76.5732C17.6739 73.6469 14.5 68.1385 14.5 62.1997V39.8218C14.5 33.883 17.7597 28.3746 22.9066 25.4483L42.5505 14.2593C47.7832 11.2469 54.2168 11.2469 59.4495 14.2593L79.0934 25.4483C81.5811 26.8254 83.6398 28.8911 85.1839 31.301L59.3637 46.1909C54.3026 49.1172 51.0429 54.7978 51.0429 60.5644V90H50.9571ZM87.5 58.3266V62.1997C87.5 68.1385 84.2403 73.6469 79.0934 76.5732L59.4495 87.7622C58.9348 88.1065 58.3343 88.3647 57.7338 88.6229V81.6513C57.8196 78.1225 59.621 74.8519 62.6234 73.0444C70.0006 68.741 77.4636 64.5236 84.755 60.2201C85.7844 59.7037 86.6422 59.1012 87.5 58.3266ZM87.3284 37.6701C87.4142 38.3586 87.5 39.0472 87.5 39.8218V43.867C87.4142 48.2565 85.0981 52.3018 81.3237 54.6256C73.9465 58.9291 66.4836 63.1465 59.1921 67.4499C58.6774 67.7082 58.1628 68.0524 57.7338 68.3967V60.5644C57.8196 57.0356 59.7068 53.765 62.7949 51.9575L87.3284 37.6701Z" fill="black"/>
</svg>
