<svg width="102" height="102" viewBox="0 0 102 102" fill="none" xmlns="http://www.w3.org/2000/svg" alt="Logo for GoodGhosting">
<title>GoodGhosting</title>
<rect x="0.5" y="0.5" width="101" height="101" rx="31.5" fill="white"/>
<g clip-path="url(#clip0_4859_5285)">
<path d="M44.1102 16.912C34.001 18.3567 27.841 23.7888 29.4293 29.8422C29.8156 31.2869 31.4611 33.9597 31.9405 33.9597C32.148 33.9597 33.0852 33.1579 34.0367 32.2116L35.8039 30.4924L34.8738 29.7555C33.2927 28.4625 33.1711 27.9424 34.3086 26.8661C37.5639 23.7672 44.4751 22.0407 52.3093 22.3802C58.2618 22.6258 62.3255 23.731 65.5808 25.9126C67.7629 27.3862 67.9418 27.8413 66.8686 29.1415L65.9743 30.1528L69.8019 33.6563L70.546 32.3633C71.6192 30.4346 71.9197 29.4738 71.9197 27.8774C71.9197 23.731 68.0634 19.9531 61.9034 17.9883C57.3246 16.5435 49.8767 16.0812 44.1102 16.912ZM45.9203 26.7722C40.118 28.058 33.9938 32.9773 31.2393 38.5684C29.5366 42.0068 29 44.4989 29 48.7031C29 52.2065 29.093 52.7917 29.9301 55.1827C30.9746 58.166 33.3714 62.0957 35.8826 64.9129C41.0338 70.6846 53.5327 79.8152 62.1324 84.0483C65.3304 85.6158 66.9187 85.8903 67.4267 84.9729C67.9346 83.9905 67.6055 83.3765 65.4807 81.101C63.9281 79.4613 63.4488 78.7028 63.0553 77.3231C61.9106 73.3284 63.2055 69.0881 67.0046 64.4217C69.4299 61.4383 71.1899 58.2599 72.2631 54.9804C73.2504 51.9393 73.2504 46.2543 72.2631 42.693C70.081 34.8915 63.413 28.3469 55.908 26.7216C53.3037 26.1654 48.4602 26.1654 45.9203 26.7505V26.7722ZM55.8722 28.9248C64.2429 31.1353 70.3743 38.814 70.9109 47.7857C71.2114 52.9867 69.294 58.2599 65.3519 63.0492C61.8247 67.3473 60.3294 71.248 60.6013 75.5822C60.7515 77.7348 61.7102 80.2848 62.905 81.6934C63.9782 82.9503 56.8667 78.8039 50.7639 74.5998C41.2556 68.0552 35.0098 61.7923 32.5558 56.2301C27.8124 45.568 34.1798 32.4211 45.7486 29.0043C48.1096 28.2964 53.3753 28.2386 55.8865 28.9104H55.8793L55.8722 28.9248ZM58.7125 42.8809C57.2459 43.6827 55.6933 45.5536 55.815 46.3554C55.9652 47.5256 57.1886 47.4028 58.1759 46.1604C59.1346 44.9613 60.7802 44.2533 61.8533 44.5206C62.2397 44.6145 63.0767 45.2574 63.7063 45.9364C64.9941 47.2873 66.0673 47.5329 66.375 46.5505C66.6111 45.7197 65.3018 43.9716 63.6849 43.0181C62.161 42.0935 60.2436 42.0357 58.7197 42.8664L58.7054 42.8881L58.7125 42.8809ZM38.68 43.4371C37.1275 44.4484 36.226 45.7125 36.3763 46.666C36.5265 47.8363 37.4494 47.6484 39.0091 46.1459C41.0124 44.2172 42.0569 44.2172 44.0602 46.117C45.6127 47.6196 46.2995 47.8074 46.7502 46.9189C46.9863 46.4565 46.8719 46.0881 46.1493 45.1707C44.053 42.4691 41.2198 41.8262 38.6728 43.4515L38.68 43.4371ZM46.092 52.1271C45.2836 52.6111 45.4911 53.5068 46.6572 54.7276C47.9737 56.0495 49.8267 56.9669 51.2003 57.003C52.5382 57.003 54.3483 55.9917 55.2998 54.7276C56.881 52.575 55.3285 51.4986 53.3896 53.4057C52.7886 53.9908 52.0159 54.5759 51.6582 54.6626C50.8211 54.9371 49.0898 54.1786 48.2169 53.1601C47.2868 52.0549 46.7216 51.7804 46.092 52.1126V52.1271Z" fill="#2B2B52"/>
</g>
<rect x="0.5" y="0.5" width="101" height="101" rx="31.5" stroke="#CFCFCF"/>
<defs>
<clipPath id="clip0_4859_5285">
<rect width="44" height="69" fill="white" transform="translate(29 16.5)"/>
</clipPath>
</defs>
</svg>
