<svg width="102" height="102" viewBox="0 0 102 102" fill="none" xmlns="http://www.w3.org/2000/svg">
<rect width="102" height="102" rx="32" fill="url(#paint0_linear_3300_8583)"/>
<g clip-path="url(#clip0_3300_8583)">
<path d="M46.7553 50.994L77.0745 68.0798C77.3181 68.2239 77.5964 68.3015 77.8807 68.3047C78.1649 68.308 78.4449 68.2367 78.6919 68.0982C78.9389 67.9597 79.1439 67.759 79.286 67.5167C79.428 67.2744 79.5019 66.9993 79.5 66.7196V35.2446C79.5036 34.9644 79.4306 34.6885 79.2886 34.4456C79.1466 34.2027 78.9409 34.0019 78.6929 33.8641C78.445 33.7262 78.1639 33.6565 77.8792 33.6622C77.5945 33.6679 77.3165 33.7487 77.0745 33.8963L46.7553 50.994Z" fill="#31CB9E"/>
<path d="M76.4317 26.3319L55.7055 11.3341C55.4909 11.172 55.2391 11.0643 54.9722 11.0206C54.7053 10.9769 54.4316 10.9984 54.1752 11.0832C53.9188 11.1681 53.6875 11.3138 53.5018 11.5073C53.316 11.7009 53.1816 11.9364 53.1102 12.1932L45.5425 45.6011L76.2498 28.8971C76.4834 28.7789 76.6821 28.6033 76.8267 28.3875C76.9713 28.1716 77.0569 27.9228 77.0751 27.6649C77.0934 27.407 77.0438 27.1489 76.9311 26.9154C76.8184 26.6818 76.6464 26.4809 76.4317 26.3319Z" fill="#31CB9E"/>
<path d="M55.6813 90.6421L76.4317 75.6444C76.6493 75.4939 76.8239 75.291 76.9389 75.0551C77.0539 74.8191 77.1053 74.5581 77.0882 74.297C77.0712 74.0359 76.9862 73.7835 76.8415 73.5639C76.6969 73.3444 76.4973 73.1651 76.2619 73.0433L45.5425 56.3394L53.1102 89.7473C53.173 90.0068 53.3003 90.247 53.4808 90.4462C53.6612 90.6453 53.8891 90.7973 54.144 90.8884C54.3989 90.9795 54.6729 91.0068 54.9412 90.968C55.2095 90.9292 55.4638 90.8254 55.6813 90.666" fill="#31CB9E"/>
<path d="M38.8723 50.3736L46.7553 14.1021C46.8155 13.8015 46.7832 13.4901 46.6624 13.2077C46.5417 12.9254 46.3381 12.6848 46.0776 12.517C45.8171 12.3491 45.5116 12.2616 45.2003 12.2655C44.8889 12.2694 44.5858 12.3647 44.3298 12.5391L24.1372 27.7755C23.6259 28.1614 23.2121 28.6583 22.9281 29.2275C22.6441 29.7966 22.4976 30.4226 22.5 31.0566V69.7143C22.4901 70.3564 22.633 70.9918 22.9172 71.5698C23.2015 72.1479 23.6193 72.6524 24.1372 73.0432L44.2328 88.2319C44.4888 88.4063 44.7919 88.5015 45.1032 88.5055C45.4146 88.5094 45.7201 88.4218 45.9806 88.254C46.241 88.0861 46.4447 87.8456 46.5654 87.5632C46.6862 87.2808 46.7185 86.9694 46.6583 86.6688L38.8723 50.3736Z" fill="#31CB9E"/>
</g>
<defs>
<linearGradient id="paint0_linear_3300_8583" x1="51" y1="0" x2="51" y2="102" gradientUnits="userSpaceOnUse">
<stop stop-color="#7CFFEF"/>
<stop offset="1" stop-color="#0072F9" stop-opacity="0"/>
</linearGradient>
<clipPath id="clip0_3300_8583">
<rect width="57" height="80" fill="white" transform="translate(22.5 11)"/>
</clipPath>
</defs>
</svg>
