<svg width="102" height="102" viewBox="0 0 102 102" fill="none" xmlns="http://www.w3.org/2000/svg" alt="Logo for Lifi">
<title>Lifi</title>
<rect width="102" height="102" rx="32" fill="#F5B5FF"/>
<g clip-path="url(#clip0_4859_5265)">
<path d="M30.9406 81.5C30.7181 81.2371 30.4699 80.992 30.2831 80.7045C30.1647 80.5228 30.0784 80.2762 30.0784 80.0588C30.0663 75.8886 30.067 71.7184 30.0713 67.5482C30.0713 66.9359 30.6432 66.2217 31.2401 66.0757C33.1256 65.6154 35.0124 65.1648 36.8986 64.706C38.8875 64.2219 40.8742 63.7295 42.8638 63.2461C44.7029 62.7993 46.5427 62.3531 48.3847 61.9204C49.4194 61.6776 50.0683 61.0452 50.2473 59.9451C50.2894 59.6867 50.273 59.391 50.1938 59.1437C50.0498 58.6916 49.8444 58.2596 49.6533 57.8239C49.4914 57.456 49.3153 57.0955 49.1434 56.732C48.8075 56.0245 48.4631 55.3214 48.1372 54.6086C47.9183 54.1312 47.735 53.6366 47.5182 53.1577C47.0126 52.0412 46.4735 50.9411 45.99 49.8142C45.4517 48.5592 45.9808 47.2379 47.1859 46.8633C48.2998 46.517 49.4436 46.2727 50.5753 45.9896C52.2262 45.5763 53.8785 45.1681 55.5307 44.7577C57.4711 44.2751 59.4122 43.7932 61.3526 43.3083C63.6395 42.737 65.9257 42.1628 68.212 41.5915C68.893 41.421 69.5761 41.2571 70.2572 41.0865C71.2134 40.846 72.0021 41.7382 71.9971 42.5501C71.975 46.4097 71.9665 50.2701 72.0007 54.1297C72.0093 55.1218 70.8868 56.516 70.1224 56.7097C68.4024 57.1447 66.6838 57.5848 64.9637 58.0206C63.002 58.5173 61.0395 59.0119 59.0763 59.5057C57.4369 59.9183 55.8003 60.3406 54.1566 60.7361C52.7132 61.0832 52.0344 62.3919 52.4929 63.7847C52.6305 64.2032 52.843 64.595 53.0292 64.995C53.4634 65.926 53.9006 66.8555 54.3398 67.7843C54.9317 69.0363 55.5364 70.2816 56.1162 71.5389C56.4599 72.2844 56.8208 73.0292 57.0775 73.8091C57.3627 74.6738 56.83 75.4603 55.9679 75.6629C53.5811 76.2245 51.1986 76.8069 48.8147 77.3812C47.4954 77.6992 46.1769 78.0172 44.8576 78.3353C42.4509 78.9155 40.0441 79.4949 37.6367 80.0744C35.9238 80.4863 34.2102 80.8952 32.4987 81.3138C32.3989 81.3383 32.3148 81.4367 32.2235 81.5007H30.9406V81.5Z" fill="black"/>
<path d="M70.8755 20.4997C71.1108 20.735 71.3925 20.9384 71.5672 21.2162C71.7412 21.4925 71.9038 21.8418 71.9059 22.1606C71.928 26.269 71.9237 30.3781 71.9173 34.4865C71.9159 35.2156 71.3732 35.8845 70.6323 36.0737C68.7754 36.5481 66.9141 37.0069 65.0551 37.4739C63.0691 37.9729 61.0845 38.4772 59.0985 38.9739C57.817 39.295 56.532 39.6033 55.2505 39.9228C53.3216 40.4032 51.3933 40.8874 49.4644 41.37C48.0788 41.7171 46.6904 42.0537 45.3084 42.4157C44.4426 42.6429 43.8208 43.1955 43.3045 43.9686C42.8046 44.7172 42.7276 45.5089 42.7276 46.3654C42.7298 49.6799 42.7098 52.9935 42.7055 56.3079C42.7041 57.4862 41.8262 58.6504 40.7423 58.9014C38.2728 59.4741 35.8097 60.0804 33.3438 60.671C32.6614 60.8341 31.9746 60.9168 31.3271 60.5511C30.5142 60.0916 30.0264 59.3535 30.0179 58.4001C29.9865 54.8876 30.0072 51.3743 30.0036 47.8618C30.0029 46.9025 30.9749 45.6013 32.031 45.36C34.0263 44.9041 36.0151 44.414 38.0047 43.9329C38.8376 43.7318 39.6712 43.5285 40.4991 43.3058C41.4055 43.0615 42.053 42.0448 41.8298 41.0363C41.7435 40.6468 41.5453 40.2803 41.3734 39.9161C41.1495 39.4424 40.8899 38.9874 40.6674 38.5129C40.4029 37.9498 40.1633 37.3733 39.9087 36.8051C39.7597 36.4714 39.607 36.1385 39.448 35.81C38.8462 34.5676 38.2343 33.3305 37.6417 32.083C37.4171 31.61 37.2032 31.1266 37.0377 30.6283C36.7304 29.704 37.1154 28.9466 38.0182 28.7105C39.9886 28.1958 41.9639 27.7042 43.9385 27.2074C46.1441 26.6525 48.3505 26.1014 50.5568 25.5487C52.8559 24.9737 55.155 24.4002 57.4533 23.8245C59.6361 23.2771 61.819 22.7289 64.0011 22.177C65.9286 21.6891 67.8547 21.1975 69.7801 20.6993C69.8928 20.6702 69.9876 20.5674 70.091 20.4982C70.3528 20.4982 70.6138 20.4982 70.8755 20.4982V20.4997Z" fill="black"/>
</g>
<defs>
<clipPath id="clip0_4859_5265">
<rect width="42" height="61" fill="white" transform="translate(30 20.5)"/>
</clipPath>
</defs>
</svg>
