<svg width="102" height="102" viewBox="0 0 102 102" fill="none" xmlns="http://www.w3.org/2000/svg">
<rect width="102" height="102" rx="32" fill="white"/>
<path d="M15.7097 29.2126C15.7097 26.5778 15.5351 24.0299 15.2666 21.3951H27.97L28.4131 26.7394C29.8366 24.9372 33.3011 20.4878 42.2714 20.4878C52.5846 20.4878 55.512 26.3292 56.3983 28.3054C60.1314 21.6436 66.1743 20.5748 70.7937 20.5748C79.858 20.5748 83.5106 25.5959 84.4774 27.2365C86.8811 30.8532 86.6931 35.8744 86.6931 39.4911V62.2478H73.4526V38.5092C73.4526 34.0598 72.7409 29.1257 65.8923 29.1257C58.0231 29.1257 57.8486 35.9614 57.8486 42.1259V62.2478H44.608V38.2607C44.608 35.0541 44.514 29.1257 37.2357 29.1257C28.9637 29.1257 28.9637 35.7128 28.9637 38.5092V62.2478H15.7097V29.2126Z" fill="#020202"/>
<path d="M15.2666 71.3828H86.7334V81.5121H15.2666V71.3828Z" fill="#020202"/>
</svg>
