<svg width="96" height="96" viewBox="0 0 96 96" fill="none" xmlns="http://www.w3.org/2000/svg">
<rect width="96" height="96" rx="32" fill="#E2FF6A"/>
<g clip-path="url(#clip0_14_28)">
<path d="M44.3017 72.4999C44.1512 72.3844 44.1562 72.2292 44.149 72.0865C44.1223 71.548 44.0892 71.0095 44.0849 70.4702C44.0625 67.7122 44.0806 64.9534 43.9624 62.1969C43.9552 62.0343 43.9703 61.8997 44.1065 61.7717C46.5813 59.4492 49.0533 57.1244 51.5195 54.7924C56.2596 50.3099 61.1725 46.0283 66.0696 41.7284C68.7361 39.3867 71.2981 36.9222 73.9776 34.5946C74.2219 34.3827 74.4798 34.187 74.7536 33.9663C74.8955 34.2731 74.8998 34.5571 74.9164 34.8315C75.0922 37.7741 74.956 40.7131 74.8177 43.6521C74.8062 43.8905 74.6736 44.031 74.5345 44.1811C73.0021 45.8437 71.3457 47.3739 69.6655 48.8754C63.7482 54.1656 58.091 59.7449 52.3027 65.1786C49.7659 67.5592 47.1296 69.8273 44.6397 72.2601C44.546 72.3513 44.4559 72.4551 44.301 72.4985L44.3017 72.4999Z" fill="#333333"/>
<path d="M71.2139 34.2025C71.1713 34.3467 71.0481 34.4085 70.9545 34.4938C64.6863 40.1548 58.4174 45.8151 52.1471 51.4746C51.995 51.6121 51.8495 51.7526 51.6543 51.8365C45.4019 54.5151 39.164 57.2312 32.8713 59.8104C32.7388 59.8649 32.6033 59.9112 32.4585 59.9657C32.3403 59.745 32.3591 59.522 32.3511 59.3072C32.2517 56.6721 32.2993 54.0362 32.2798 51.4003C32.2777 51.1464 32.3994 51.0699 32.5903 50.9868C40.8607 47.3901 49.1297 43.7912 57.3979 40.1887C61.8793 38.2362 66.3585 36.2771 70.8399 34.3239C70.9574 34.2724 71.0669 34.1849 71.2146 34.2025H71.2139Z" fill="#333333"/>
<path d="M58.6185 24.3909C58.269 24.7234 57.9268 25.064 57.5695 25.387C51.9483 30.48 46.3249 35.5701 40.703 40.6617C40.5849 40.7683 40.4595 40.8573 40.314 40.9206C34.3685 43.4888 28.4231 46.0593 22.4777 48.6267C22.1578 48.7651 21.8271 48.8783 21.5022 49.0056C21.2601 49.1005 21.1312 49.0056 21.1016 48.7562C21.0728 48.5135 21.0375 48.2692 21.0361 48.025C21.0231 45.5737 21.0231 43.1225 21 40.6705C20.9972 40.36 21.1845 40.3093 21.3783 40.2261C26.0881 38.1964 30.7957 36.1616 35.5091 34.1414C42.7895 31.0214 50.0743 27.911 57.3576 24.7977C57.7539 24.6285 58.1559 24.4732 58.5558 24.3114C58.5767 24.3379 58.5983 24.3644 58.6192 24.3901L58.6185 24.3909Z" fill="#333333"/>
<path d="M36.8909 46.9899C36.9147 46.7273 37.1424 46.6228 37.2965 46.4735C39.1431 44.6851 41.056 42.9724 42.9537 41.2421C48.0728 36.5721 53.2062 31.9175 58.313 27.2328C59.5904 26.0616 60.8692 24.8956 62.2021 23.7906C62.3368 23.6788 62.455 23.528 62.6711 23.5007C62.7792 23.9877 62.7698 24.4792 62.785 24.9647C62.8606 27.3659 62.8145 29.7686 62.8282 32.1706C62.8289 32.3155 62.7943 32.4237 62.6798 32.5208C60.3505 34.5086 58.0903 36.5809 55.6825 38.4738C54.7214 39.2293 53.5996 39.6288 52.5145 40.1114C47.433 42.3714 42.3442 44.613 37.2569 46.8597C37.138 46.9119 37.0271 46.9965 36.8859 46.9811L36.8909 46.9907V46.9899Z" fill="#333333"/>
<path d="M36.8857 46.9803C36.8793 46.9885 36.8742 46.9975 36.8664 47.0042C36.8649 47.0056 36.8556 46.9967 36.8499 46.9922C36.8635 46.9915 36.8771 46.9908 36.8907 46.99L36.8857 46.9803Z" fill="#BFEB31"/>
</g>
<defs>
<clipPath id="clip0_14_28">
<rect width="54" height="49" fill="white" transform="translate(21 23.5)"/>
</clipPath>
</defs>
</svg>
