<svg width="102" height="102" viewBox="0 0 102 102" fill="none" xmlns="http://www.w3.org/2000/svg" alt="Logo for Mover">
<title>Mover</title>
<rect width="102" height="102" rx="32" fill="#6253A2"/>
<g clip-path="url(#clip0_4859_5301)">
<path d="M46.206 82.5C46.0108 82.3515 46.0174 82.1519 46.008 81.9685C45.9735 81.2761 45.9305 80.5837 45.9249 79.8904C45.8959 76.3444 45.9193 72.7974 45.7661 69.2532C45.7568 69.0442 45.7764 68.8711 45.9529 68.7065C49.161 65.7205 52.3655 62.7315 55.5624 59.7332C61.7069 53.97 68.0755 48.4651 74.4236 42.9366C77.8802 39.9259 81.2013 36.7573 84.6747 33.7646C84.9913 33.4921 85.3257 33.2405 85.6806 32.9568C85.8646 33.3512 85.8702 33.7163 85.8917 34.0691C86.1196 37.8526 85.943 41.6313 85.7637 45.41C85.7488 45.7164 85.5769 45.8971 85.3967 46.0901C83.4101 48.2277 81.263 50.1951 79.085 52.1256C71.4144 58.9273 64.081 66.1007 56.5776 73.0868C53.2891 76.1476 49.8718 79.0637 46.644 82.1917C46.5226 82.309 46.4059 82.4423 46.2051 82.4981L46.206 82.5Z" fill="#BFEB31"/>
<path d="M81.092 33.2603C81.0369 33.4457 80.8772 33.5251 80.7558 33.6349C72.6304 40.9133 64.504 48.1907 56.3758 55.4672C56.1788 55.6441 55.9901 55.8248 55.737 55.9326C47.6321 59.3765 39.5459 62.8686 31.3888 66.1848C31.2169 66.2548 31.0413 66.3143 30.8536 66.3843C30.7004 66.1006 30.7247 65.814 30.7144 65.5378C30.5856 62.1497 30.6472 58.7607 30.622 55.3717C30.6192 55.0454 30.777 54.947 31.0245 54.8401C41.7454 50.2158 52.4644 45.5886 63.1825 40.9568C68.9917 38.4465 74.7981 35.9276 80.6073 33.4164C80.7595 33.3502 80.9015 33.2376 81.093 33.2603H81.092Z" fill="#BFEB31"/>
<path d="M64.7646 20.6454C64.3117 21.0729 63.868 21.5108 63.4048 21.9261C56.1181 28.4743 48.8285 35.0187 41.5409 41.565C41.3877 41.7021 41.2252 41.8166 41.0365 41.8979C33.3295 45.1999 25.6225 48.5047 17.9155 51.8058C17.5008 51.9836 17.0722 52.1293 16.6509 52.2929C16.3371 52.4149 16.17 52.2929 16.1317 51.9723C16.0943 51.6601 16.0485 51.3461 16.0467 51.0321C16.0299 47.8805 16.0299 44.7289 16 41.5763C15.9962 41.1772 16.2391 41.1119 16.4903 41.005C22.5956 38.3954 28.698 35.7791 34.808 33.1818C44.2456 29.1704 53.6888 25.1713 63.1302 21.1684C63.6439 20.9509 64.165 20.7513 64.6834 20.5432C64.7105 20.5773 64.7385 20.6113 64.7656 20.6444L64.7646 20.6454Z" fill="#BFEB31"/>
<path d="M36.5993 49.7014C36.6301 49.3637 36.9253 49.2294 37.1251 49.0374C39.5189 46.738 41.9985 44.536 44.4585 42.3114C51.0943 36.307 57.7487 30.3226 64.3686 24.2993C66.0245 22.7935 67.6823 21.2943 69.4101 19.8736C69.5848 19.7299 69.7379 19.536 70.0181 19.501C70.1582 20.1271 70.1461 20.759 70.1657 21.3832C70.2638 24.4705 70.204 27.5597 70.2217 30.6479C70.2227 30.8343 70.1778 30.9733 70.0293 31.0982C67.0099 33.6539 64.08 36.3184 60.9588 38.7521C59.7129 39.7235 58.2587 40.2371 56.8521 40.8576C50.265 43.7633 43.6684 46.6453 37.0738 49.5339C36.9197 49.6011 36.7758 49.7099 36.5928 49.69L36.5993 49.7023V49.7014Z" fill="#BFEB31"/>
<path d="M36.5926 49.689C36.5842 49.6995 36.5777 49.711 36.5675 49.7196C36.5656 49.7215 36.5535 49.71 36.5461 49.7043C36.5637 49.7033 36.5814 49.7024 36.5991 49.7014L36.5926 49.689Z" fill="#BFEB31"/>
</g>
<defs>
<clipPath id="clip0_4859_5301">
<rect width="70" height="63" fill="white" transform="translate(16 19.5)"/>
</clipPath>
</defs>
</svg>
