<svg width="96" height="96" viewBox="0 0 96 96" fill="none" xmlns="http://www.w3.org/2000/svg">
<rect width="96" height="96" rx="32" fill="#CFECFD"/>
<g clip-path="url(#clip0_14_48)">
<path fill-rule="evenodd" clip-rule="evenodd" d="M67.5234 33.525C63.8102 28.875 58.3742 25.9125 52.3641 25.9125C40.7266 25.9125 32.1898 36.525 32.1898 48C32.1898 55.9875 37.6258 61.9875 43.6359 61.9875C44.2102 61.9875 44.7461 61.95 45.3203 61.8375C41.2625 58.95 38.6977 53.7 38.6977 48C38.6977 38.925 44.9758 31.8375 52.3641 31.8375C60.4414 31.8375 66.0305 39.675 66.0305 48C65.9922 54.15 63.7719 60.2625 59.8289 64.7625C56.3836 68.7 51.943 71.175 47.043 71.9625C47.043 71.9625 47.4641 72 48 72C61.5133 72 72.5 61.2375 72.5 48C72.5 42.5625 70.6625 37.5375 67.5234 33.525ZM63.8102 48C63.8102 40.0125 58.3742 34.0125 52.3641 34.0125C51.7898 34.0125 51.2539 34.05 50.6797 34.1625C54.7375 37.05 57.3023 42.3 57.3023 48C57.3023 57.075 51.0242 64.1625 43.6359 64.1625C35.5586 64.1625 29.9695 56.325 29.9695 48C30.0078 41.85 32.2281 35.7375 36.1711 31.2375C39.6164 27.3 44.057 24.825 48.957 24.0375C48.957 24.0375 48.5359 24 48 24C34.4867 24 23.5 34.7625 23.5 48C23.5 53.4375 25.3375 58.4625 28.4766 62.475C32.1898 67.125 37.6258 70.05 43.6359 70.05C55.2734 70.0875 63.8102 59.475 63.8102 48Z" fill="#0089DB"/>
</g>
<defs>
<clipPath id="clip0_14_48">
<rect width="49" height="48" fill="white" transform="translate(23.5 24)"/>
</clipPath>
</defs>
</svg>
