<svg width="102" height="102" viewBox="0 0 102 102" fill="none" xmlns="http://www.w3.org/2000/svg">
<rect width="102" height="102" rx="32" fill="white"/>
<g clip-path="url(#clip0_3326_8604)">
<path fill-rule="evenodd" clip-rule="evenodd" d="M81.6797 27.7797C75.8445 20.3203 67.3023 15.568 57.8578 15.568C39.5703 15.568 26.1555 32.5922 26.1555 51C26.1555 63.8133 34.6977 73.4383 44.1422 73.4383C45.0445 73.4383 45.8867 73.3781 46.7891 73.1977C40.4125 68.5656 36.382 60.1437 36.382 51C36.382 36.4422 46.2477 25.0727 57.8578 25.0727C70.5508 25.0727 79.3336 37.6453 79.3336 51C79.2734 60.8656 75.7844 70.6711 69.5883 77.8898C64.1742 84.2062 57.1961 88.1766 49.4961 89.4398C49.4961 89.4398 50.1578 89.5 51 89.5C72.2352 89.5 89.5 72.2352 89.5 51C89.5 42.2773 86.6125 34.2164 81.6797 27.7797ZM75.8445 51C75.8445 38.1867 67.3023 28.5617 57.8578 28.5617C56.9555 28.5617 56.1133 28.6219 55.2109 28.8023C61.5875 33.4344 65.618 41.8563 65.618 51C65.618 65.5578 55.7523 76.9273 44.1422 76.9273C31.4492 76.9273 22.6664 64.3547 22.6664 51C22.7266 41.1344 26.2156 31.3289 32.4117 24.1102C37.8258 17.7937 44.8039 13.8234 52.5039 12.5602C52.5039 12.5602 51.8422 12.5 51 12.5C29.7648 12.5 12.5 29.7648 12.5 51C12.5 59.7227 15.3875 67.7836 20.3203 74.2203C26.1555 81.6797 34.6977 86.3719 44.1422 86.3719C62.4297 86.432 75.8445 69.4078 75.8445 51Z" fill="#0089DB"/>
</g>
<defs>
<clipPath id="clip0_3326_8604">
<rect width="77" height="77" fill="white" transform="translate(12.5 12.5)"/>
</clipPath>
</defs>
</svg>
