<svg width="102" height="102" viewBox="0 0 102 102" fill="none" xmlns="http://www.w3.org/2000/svg" alt="Logo for Oasis">
<title>Oasis</title>
<rect x="0.5" y="0.5" width="101" height="101" rx="31.5" fill="white"/>
<g clip-path="url(#clip0_3326_8604)">
<path fill-rule="evenodd" clip-rule="evenodd" d="M74.9062 33.2078C70.3594 27.4922 63.7031 23.8508 56.3438 23.8508C42.0938 23.8508 31.6406 36.8953 31.6406 51C31.6406 60.818 38.2969 68.193 45.6562 68.193C46.3594 68.193 47.0156 68.1469 47.7188 68.0086C42.75 64.4594 39.6094 58.0062 39.6094 51C39.6094 39.8453 47.2969 31.1336 56.3438 31.1336C66.2344 31.1336 73.0781 40.7672 73.0781 51C73.0312 58.5594 70.3125 66.0727 65.4844 71.6039C61.2656 76.4437 55.8281 79.4859 49.8281 80.4539C49.8281 80.4539 50.3438 80.5 51 80.5C67.5469 80.5 81 67.2711 81 51C81 44.3164 78.75 38.1398 74.9062 33.2078ZM70.3594 51C70.3594 41.182 63.7031 33.807 56.3438 33.807C55.6406 33.807 54.9844 33.8531 54.2812 33.9914C59.25 37.5406 62.3906 43.9938 62.3906 51C62.3906 62.1547 54.7031 70.8664 45.6562 70.8664C35.7656 70.8664 28.9219 61.2328 28.9219 51C28.9687 43.4406 31.6875 35.9273 36.5156 30.3961C40.7344 25.5562 46.1719 22.5141 52.1719 21.5461C52.1719 21.5461 51.6562 21.5 51 21.5C34.4531 21.5 21 34.7289 21 51C21 57.6836 23.25 63.8602 27.0938 68.7922C31.6406 74.5078 38.2969 78.1031 45.6562 78.1031C59.9062 78.1492 70.3594 65.1047 70.3594 51Z" fill="#0089DB"/>
</g>
<rect x="0.5" y="0.5" width="101" height="101" rx="31.5" stroke="#CFCFCF"/>
<defs>
<clipPath id="clip0_3326_8604">
<rect width="60" height="59" fill="white" transform="translate(21 21.5)"/>
</clipPath>
</defs>
</svg>
