<svg width="102" height="102" viewBox="0 0 102 102" fill="none" xmlns="http://www.w3.org/2000/svg" alt="Logo for Pods Finance">
<title>Pods Finance</title>
<rect width="102" height="102" rx="32" fill="#FFE9E9"/>
<path d="M22.9056 67.0352V58.6944C23.757 59.8509 25.5307 60.7971 27.9429 60.7971C32.8738 60.7971 36.173 56.9422 36.173 51.7204C36.173 46.6039 33.2286 42.7489 28.1203 42.7489C25.4952 42.7489 23.5441 43.9054 22.7637 45.2371V43.1344H18.1875V67.0352H22.9056ZM31.5258 51.7555C31.5258 54.8395 29.6102 56.6268 27.198 56.6268C24.7857 56.6268 22.8346 54.8045 22.8346 51.7555C22.8346 48.7066 24.7857 46.9193 27.198 46.9193C29.6102 46.9193 31.5258 48.7066 31.5258 51.7555Z" fill="url(#paint0_linear_3323_8589)"/>
<path d="M44.0396 56.6617C41.7339 56.6617 39.6054 54.9796 39.6054 51.7555C39.6054 48.4962 41.7339 46.8491 44.0396 46.8491C46.3455 46.8491 48.474 48.4962 48.474 51.7555C48.474 55.0146 46.3455 56.6617 44.0396 56.6617ZM44.0396 42.6086C38.8249 42.6086 34.8873 46.4286 34.8873 51.7555C34.8873 57.0473 38.8249 60.9022 44.0396 60.9022C49.2544 60.9022 53.192 57.0473 53.192 51.7555C53.192 46.4286 49.2544 42.6086 44.0396 42.6086Z" fill="url(#paint1_linear_3323_8589)"/>
<path d="M69.845 35.0039H65.1978V44.8516C64.7013 43.9404 63.2822 42.7138 60.2669 42.7138C55.336 42.7138 51.8951 46.6739 51.8951 51.7204C51.8951 56.9422 55.4425 60.7971 60.4088 60.7971C62.7501 60.7971 64.5239 59.7458 65.3043 58.379C65.3043 59.1851 65.4107 60.0262 65.4816 60.3766H69.9869C69.916 59.6756 69.845 58.4141 69.845 57.2576V35.0039ZM56.6487 51.7204C56.6487 48.6364 58.5642 46.8842 60.9765 46.8842C63.3888 46.8842 65.2688 48.6014 65.2688 51.6854C65.2688 54.8045 63.3888 56.6268 60.9765 56.6268C58.4933 56.6268 56.6487 54.8045 56.6487 51.7204Z" fill="url(#paint2_linear_3323_8589)"/>
<path d="M69.7646 55.5754C69.9775 57.5378 71.7867 60.9022 77.0369 60.9022C81.6131 60.9022 83.8125 58.0285 83.8125 55.2248C83.8125 52.7017 82.0743 50.634 78.6333 49.9331L76.1501 49.4074C75.1922 49.2322 74.5538 48.7065 74.5538 47.8654C74.5538 46.8842 75.547 46.1482 76.7886 46.1482C78.7751 46.1482 79.5201 47.4448 79.662 48.4612L83.5996 47.5851C83.3868 45.7277 81.7195 42.6086 76.7532 42.6086C72.9929 42.6086 70.2258 45.1669 70.2258 48.2509C70.2258 50.6691 71.7513 52.6665 75.1213 53.4025L77.4272 53.9282C78.7751 54.2086 79.3072 54.8394 79.3072 55.6104C79.3072 56.5216 78.5624 57.3276 77.0014 57.3276C74.944 57.3276 73.9152 56.0659 73.8088 54.6993L69.7646 55.5754Z" fill="url(#paint3_linear_3323_8589)"/>
<defs>
<linearGradient id="paint0_linear_3323_8589" x1="88.45" y1="37.5984" x2="13.0567" y2="50.8064" gradientUnits="userSpaceOnUse">
<stop stop-color="#DF1D2C"/>
<stop offset="1" stop-color="#B7156B"/>
</linearGradient>
<linearGradient id="paint1_linear_3323_8589" x1="88.45" y1="37.5984" x2="13.0567" y2="50.8064" gradientUnits="userSpaceOnUse">
<stop stop-color="#DF1D2C"/>
<stop offset="1" stop-color="#B7156B"/>
</linearGradient>
<linearGradient id="paint2_linear_3323_8589" x1="88.45" y1="37.5984" x2="13.0567" y2="50.8064" gradientUnits="userSpaceOnUse">
<stop stop-color="#DF1D2C"/>
<stop offset="1" stop-color="#B7156B"/>
</linearGradient>
<linearGradient id="paint3_linear_3323_8589" x1="88.45" y1="37.5984" x2="13.0567" y2="50.8064" gradientUnits="userSpaceOnUse">
<stop stop-color="#DF1D2C"/>
<stop offset="1" stop-color="#B7156B"/>
</linearGradient>
</defs>
</svg>
