<svg width="102" height="102" viewBox="0 0 102 102" fill="none" xmlns="http://www.w3.org/2000/svg">
<rect width="102" height="102" rx="32" fill="#E8D9FF"/>
<path d="M22.4393 37.7688C28.1979 37.7688 32.8663 42.3437 32.8663 47.9871V53.8627C32.8663 59.506 28.1979 64.0808 22.4393 64.0808C21.5347 64.0808 20.6571 63.968 19.8202 63.7558V64.4494C19.8202 68.5778 16.3887 71.9323 12.1294 71.9991L12 72V49.5198L12.012 49.5195L12.0123 47.9871C12.0123 42.3437 16.6806 37.7688 22.4393 37.7688ZM69.1337 37.7688C74.8957 37.7688 79.5668 42.3698 79.5668 48.0455V53.9546C79.5668 59.6303 74.8957 64.2312 69.1337 64.2312C63.3717 64.2312 58.7007 59.6303 58.7007 53.9546V48.0455C58.7007 42.3698 63.3717 37.7688 69.1337 37.7688ZM45.7835 37.2832C51.5455 37.2832 56.2165 41.8843 56.2165 47.5599V53.469C56.2165 59.1446 51.5455 63.7458 45.7835 63.7458C40.0215 63.7458 35.3504 59.1446 35.3504 53.469V47.5599C35.3504 41.8843 40.0215 37.2832 45.7835 37.2832ZM90 30V56.0707C90 60.2671 86.5118 63.6769 82.1823 63.7447L82.051 63.7458V37.675C82.051 33.4362 85.6098 30 90 30ZM69.1337 45.4763C67.6933 45.4763 66.5254 46.6266 66.5254 48.0455V53.9546C66.5254 55.3735 67.6933 56.5237 69.1337 56.5237C70.5742 56.5237 71.7421 55.3735 71.7421 53.9546V48.0455C71.7421 46.6266 70.5742 45.4763 69.1337 45.4763ZM22.4393 45.4324C20.9996 45.4324 19.8325 46.5762 19.8325 47.9871V53.8627C19.8325 55.2734 20.9996 56.4171 22.4393 56.4171C23.8789 56.4171 25.046 55.2734 25.046 53.8627V47.9871C25.046 46.5762 23.8789 45.4324 22.4393 45.4324ZM45.7835 44.9908C44.343 44.9908 43.1751 46.141 43.1751 47.5599V53.469C43.1751 54.8879 44.343 56.0382 45.7835 56.0382C47.2239 56.0382 48.3917 54.8879 48.3917 53.469V47.5599C48.3917 46.141 47.2239 44.9908 45.7835 44.9908Z" fill="url(#paint0_linear_3300_8580)"/>
<defs>
<linearGradient id="paint0_linear_3300_8580" x1="51" y1="30" x2="51" y2="72" gradientUnits="userSpaceOnUse">
<stop stop-color="#7E46F2"/>
<stop offset="1" stop-color="#46279A"/>
</linearGradient>
</defs>
</svg>
