<svg width="102" height="102" viewBox="0 0 102 102" fill="none" xmlns="http://www.w3.org/2000/svg" alt="Logo for Qi Dao">
<title>Qi Dao</title>
<rect width="102" height="102" rx="32" fill="#F87171"/>
<path d="M51 93.5C74.4713 93.5 93.5 74.4713 93.5 51C93.5 27.5287 74.4713 8.5 51 8.5C27.5287 8.5 8.5 27.5287 8.5 51C8.5 74.4713 27.5287 93.5 51 93.5Z" fill="#F87171"/>
<path d="M51 39.3902C49.9042 38.4128 47.7273 37.0653 43.9512 37.0801C40.1751 37.0949 40.797 39.0052 40.797 39.0052C40.797 39.0052 40.723 40.56 43.1812 40.6045C45.6394 40.6489 48.2901 40.7525 50.4373 41.5374C52.5845 42.3222 52.1106 40.3675 51 39.3902Z" fill="#0A0A1E"/>
<path d="M42.0854 42.9294C41.8633 43.0627 41.804 43.4329 42.0706 43.4921C43.5662 43.7587 45.9207 44.2474 48.5566 43.8327C48.8084 43.7883 48.764 43.4625 48.5863 43.2848C47.6385 42.3815 45.1359 41.1376 42.0854 42.9294Z" fill="#0A0A1E"/>
<path d="M73.1089 67.926C73.0793 67.8816 73.0201 67.8372 72.9756 67.8223C72.9164 67.7927 72.8572 67.7927 72.7979 67.8075C72.7387 67.8223 72.6795 67.8372 72.635 67.8816C72.5906 67.926 72.561 67.9704 72.5314 68.0297C70.9913 72.487 69.7474 71.406 69.1551 70.4434C68.9477 70.1028 68.7997 69.7326 68.7108 69.3624C67.2448 63.6612 68.5923 58.4042 68.5923 58.4042C69.392 60.8328 71.48 61.5584 72.5462 61.7657C72.6054 61.7805 72.6646 61.7657 72.7239 61.7509C72.7831 61.7361 72.8275 61.6917 72.872 61.6473C72.9016 61.6028 72.9312 61.5436 72.9312 61.4844C72.9312 61.4251 72.9164 61.3659 72.8868 61.3067C68.7849 53.4434 71.2134 50.0967 71.2134 50.0967C71.9242 50.8668 73.0793 50.9408 73.8197 50.8964C73.8789 50.8964 73.9382 50.8668 73.9974 50.8372C74.0418 50.8075 74.0862 50.7483 74.1159 50.7039C74.1455 50.6446 74.1455 50.5854 74.1307 50.5262C74.1159 50.4669 74.0863 50.4077 74.0566 50.3633C71.0802 47.1499 70.858 46.0541 70.7396 40.6194C70.6803 37.5985 69.5993 36.014 68.5923 35.1995C67.4373 34.2518 66.5192 33.0523 66.0157 31.6603C62.0026 20.6281 54.4948 19.1621 47.5349 19.5767C38.8868 20.095 34.2814 26.5662 32.1045 29.7945C29.7944 33.2004 27.9878 38.25 28.1063 39.7901C28.2248 41.3302 29.6908 41.0932 29.6908 42.8702C29.6908 44.6621 26.8772 46.1429 27.9878 51.1629C28.4765 53.3694 30.4608 55.0279 29.5723 60.0776C27.973 69.1551 35.081 80.1873 36.858 81.8311C37.0653 82.0236 37.4504 81.8755 37.4059 81.5793C37.1246 79.5506 37.5392 76.737 37.5392 76.737C41.0932 84.2004 51.0592 82.8232 54.1838 82.1865C54.243 82.1716 54.3171 82.142 54.3615 82.0976C54.4059 82.0532 54.4356 81.9939 54.4504 81.9199C54.4652 81.8607 54.4504 81.7866 54.4207 81.7274C54.3911 81.6682 54.3467 81.6237 54.2875 81.5941C51.1333 79.9504 50.4225 76.6333 50.4225 76.6333C53.5619 78.0845 55.561 77.8476 56.5383 77.5366C56.5976 77.5218 56.642 77.4774 56.6864 77.433C56.7308 77.3885 56.7457 77.3293 56.7605 77.2701C56.7753 77.2108 56.7605 77.1516 56.7309 77.0924C56.7012 77.0331 56.6568 76.9887 56.6124 76.9591C55.6646 76.3816 54.2282 73.9826 53.1324 71.6429C52.6882 70.6804 52.5253 69.5993 52.6734 68.548C52.8214 67.4966 53.2657 66.5044 53.9617 65.6899C55.2352 64.2091 56.9086 62.1211 58.804 59.9147C59.2038 59.4556 59.7518 59.8999 59.9591 60.4034C62.7282 67.2004 66.3415 72.3389 68.8293 73.7457C70.6359 74.8415 72.6054 75.034 73.4939 74.3528C75.9373 72.4277 73.9974 69.1699 73.1089 67.926ZM43.0479 61.6028C40.0714 61.7805 40.7526 57.9896 38.561 58.0784C36.2213 58.1821 36.9173 61.0697 35.3476 61.2474C33.7779 61.4251 33.9556 57.0122 35.0662 56.4939C36.7988 55.6943 38.8423 55.5018 40.4713 55.5462C42.3964 55.6054 44.2474 55.5314 45.1063 57.3528C46.1281 59.5 46.0244 61.4251 43.0479 61.6028ZM61.8842 34.5331C57.9303 36.8284 57.6934 37.9687 57.1307 42.0262C57.0122 42.9147 56.8789 43.9513 57.2936 44.5436C58.2265 45.8764 60.0183 46.8537 59.5296 49.1046C58.3598 54.4504 55.2796 60.6995 51.1481 62.669C50.6446 62.906 50.0819 62.4321 49.9634 61.899C49.5044 59.7814 48.4086 55.9312 48.1124 54.6725C46.6464 47.4757 39.6272 47.372 39.4347 48.7492C39.3754 49.1638 40.8563 49.6969 41.7892 49.9931C42.6481 50.2744 42.6777 51.4739 41.8188 51.7553C41.5967 51.8293 41.3598 51.8589 41.1228 51.8589C39.3903 51.7405 37.1838 51.8737 36.1917 51.9478C35.8659 51.9774 35.5253 51.8737 35.2735 51.6812C35.007 51.4739 34.8293 51.1925 34.7849 50.8668C34.3998 48.6603 35.081 47.8755 35.9103 45.7875C36.3249 44.7509 36.858 42.6481 37.0357 41.5671C37.1246 40.9896 37.095 40.2936 37.0209 39.7753C36.9469 39.1682 36.9173 38.5462 36.9321 37.9243C36.9913 35.9251 37.1986 34.2962 38.7535 34.2962C41.5523 34.2962 47.4756 34.311 48.4086 32.9635C49.3859 31.5567 43.9068 32.919 38.0131 32.7413C37.8946 32.7413 37.791 32.6969 37.7021 32.6229C37.6133 32.5488 37.5688 32.4452 37.554 32.3267C37.554 32.2971 37.554 32.2527 37.5392 32.223C37.5244 32.1194 37.5392 32.0157 37.5688 31.9269C37.5984 31.838 37.6577 31.7492 37.7169 31.6751C37.791 31.6011 37.865 31.5419 37.9687 31.4974C38.0575 31.453 38.1612 31.4382 38.2648 31.4382C41.419 31.3938 43.818 31.1865 44.4399 30.2831C45.0767 29.365 41.8929 29.7797 38.2944 29.8093C37.8354 29.8093 37.4504 29.8093 37.48 29.3502V29.3058C37.4948 29.1281 37.5688 28.9504 37.7021 28.8319C37.8354 28.6986 37.9983 28.6246 38.1908 28.6246C40.3084 28.4913 41.2117 28.3284 41.3005 27.6621C41.3894 26.9957 41.0784 27.0697 38.7387 27.203C38.2352 27.2326 38.3685 26.8476 38.6646 26.433C39.3903 25.3816 42.6777 22.3311 49.919 22.5532C62.3284 22.9382 61.9434 31.5419 62.3284 33.6298C62.358 33.8075 62.3284 33.9852 62.2544 34.1481C62.1655 34.311 62.0322 34.4443 61.8842 34.5331Z" fill="#0A0A1E"/>
</svg>
