<svg width="102" height="102" viewBox="0 0 102 102" fill="none" xmlns="http://www.w3.org/2000/svg">
<rect width="102" height="102" rx="32" fill="white"/>
<path d="M83 16.1128L60.8647 24.9348H40.1729L19 16.0059L23.812 45.0384L19.2139 60.7577L31.2439 67.9758C36.9649 71.3977 42.0443 75.6216 46.4286 80.6475L51.1337 85.9942L56.0526 80.3267C60.2765 75.4612 65.1955 71.3442 70.6491 67.9758L82.4653 60.7577L78.188 45.0384L83 16.1128ZM68.35 65.142C64.34 67.655 60.5973 70.5422 57.2289 73.8037L53.1119 69.3125L68.35 65.142ZM48.8881 69.3125L44.878 73.7502C41.4561 70.4887 37.7134 67.655 33.7034 65.1955L48.8881 69.3125ZM44.9315 64.447L23.6516 58.6725L26.5388 48.7277L44.9315 64.447ZM36.9114 27.5013L26.8062 40.7076L23.7051 21.9407L36.9114 27.5013ZM71.4511 47.0167L50.9733 64.8747L30.1211 47.0167H71.4511ZM29.3726 43.3275L40.7076 28.5706H60.33L72.8947 43.3275H29.3726ZM75.3007 48.4603L78.081 58.6725L56.9616 64.5004L75.3007 48.4603ZM78.3484 21.8872L75.2473 40.4937L64.2331 27.5013L78.3484 21.8872Z" fill="#0E182D"/>
</svg>
