<svg width="19" height="24" viewBox="0 0 19 24" fill="none" xmlns="http://www.w3.org/2000/svg">
<g clip-path="url(#clip0_13502_46729)">
<path d="M15.3897 12.5395C15.3998 11.6711 15.6299 10.8194 16.0583 10.064C16.4867 9.30855 17.0996 8.67399 17.8397 8.21953C17.3694 7.54951 16.7496 6.99824 16.0292 6.60943C15.3089 6.22061 14.5079 6.00495 13.6897 5.97954C11.9397 5.78954 10.2497 6.97954 9.35967 6.97954C8.46967 6.97954 7.07967 5.97954 5.60967 5.97954C4.65485 6.00944 3.72397 6.28575 2.90745 6.78162C2.09093 7.27749 1.41651 7.97607 0.949675 8.80954C-1.05032 12.2995 0.439674 17.4095 2.36967 20.2295C3.36967 21.6095 4.45967 23.1395 5.92967 23.0895C7.39967 23.0395 7.92968 22.1695 9.65968 22.1695C11.3897 22.1695 11.8897 23.0895 13.3897 23.0595C14.8897 23.0295 15.9097 21.6695 16.8397 20.2795C17.5222 19.3124 18.0455 18.2422 18.3897 17.1095C17.4953 16.7276 16.7336 16.0903 16.1999 15.2773C15.6662 14.4644 15.3844 13.512 15.3897 12.5395Z" fill="white"/>
<path d="M12.5499 4.13C13.3902 3.11484 13.8058 1.81431 13.7099 0.5C12.4265 0.636206 11.2414 1.2502 10.3899 2.22C9.97098 2.69638 9.65022 3.25077 9.44601 3.85138C9.2418 4.45199 9.15816 5.087 9.19989 5.72C9.84189 5.72387 10.4765 5.58291 11.0565 5.30763C11.6365 5.03235 12.147 4.62982 12.5499 4.13Z" fill="white"/>
</g>
<defs>
<clipPath id="clip0_13502_46729">
<rect width="18.42" height="22.64" fill="white" transform="translate(0 0.5)"/>
</clipPath>
</defs>
</svg>
