<svg width="102" height="102" viewBox="0 0 102 102" fill="none" xmlns="http://www.w3.org/2000/svg" alt="Logo for Lens Protocol">
<title>Lens Protocol</title>
<rect width="102" height="102" rx="32" fill="#ABFD2C"/>
<path d="M29.7271 71.6694C30.1102 70.9944 30.4612 70.3757 30.8082 69.763C35.8907 72.3263 40.7165 71.9707 45.1813 68.429C48.0094 66.1871 49.4937 63.1537 49.8547 59.5296C49.5097 59.4955 49.1928 59.4653 48.8779 59.4352C45.8151 59.1359 42.8326 58.4689 39.9243 57.4725C34.8598 55.7408 30.3308 53.1052 26.4276 49.4209C25.3405 48.3943 24.2734 47.3457 23.5052 46.0439C21.2628 42.2431 21.4273 38.4603 23.7419 34.778C25.3585 32.2046 27.6732 30.4669 30.6316 29.7015C33.9752 28.8357 36.9979 29.593 39.7056 31.7004C39.8059 31.7787 39.9042 31.857 40.0366 31.9615C40.0867 31.6039 40.1269 31.2885 40.177 30.9751C40.532 28.7955 41.4346 26.885 42.9971 25.3141C44.4793 23.8235 46.2725 22.8692 48.3203 22.4313C51.4814 21.7563 54.49 22.1641 57.2439 23.9098C59.8494 25.5612 61.3236 27.9779 61.831 31.0053C61.8571 31.1559 61.8732 31.3066 61.8932 31.4593C61.9133 31.6079 61.9333 31.7586 61.9574 31.9535C62.0517 31.8832 62.1199 31.837 62.184 31.7847C63.572 30.6718 65.1124 29.8783 66.8695 29.5428C69.3586 29.0687 71.7133 29.4906 73.9116 30.716C76.6756 32.2568 78.6292 34.5208 79.5699 37.5603C80.653 41.0578 79.975 44.27 77.7206 47.1287C76.3065 48.9226 74.5816 50.4112 72.7744 51.7934C68.6766 54.9292 64.0935 57.0587 59.1153 58.3584C57.0794 58.8908 55.0135 59.2564 52.9175 59.4593C52.6868 59.4814 52.4542 59.4995 52.2235 59.5216C52.2095 59.5216 52.1954 59.5357 52.1493 59.5598C52.4161 62.4847 53.5112 65.0601 55.5169 67.2237C57.5247 69.3893 59.9918 70.7513 62.9101 71.2355C65.8245 71.7196 68.5723 71.1752 71.1658 69.7248C71.5288 70.3636 71.8818 70.9824 72.2529 71.6353C69.7838 73.0375 67.1503 73.7064 64.3262 73.5939C61.5101 73.4814 58.9408 72.5975 56.594 71.0386L56.5559 71.0908C56.8929 71.4364 57.2198 71.7919 57.5688 72.1254C60.5514 74.9781 64.0875 76.7358 68.1531 77.3948C72.0283 78.0235 75.777 77.5314 79.3753 75.9604C79.616 75.8559 79.7143 75.8921 79.8346 76.1151C80.1254 76.6595 80.4444 77.1878 80.7793 77.7704C75.5162 80.1309 70.1428 80.5467 64.6591 78.8191C59.1694 77.0914 55.0135 73.6622 52.1072 68.6219C52.0992 68.7565 52.0871 68.8529 52.0871 68.9473C52.0871 72.4669 52.0871 75.9865 52.0871 79.5061C52.0871 79.7432 51.9715 79.8617 51.7401 79.8617C51.1404 79.8617 50.5387 79.8617 49.9069 79.8617V68.7023C46.9765 73.6662 42.8226 77.0934 37.3409 78.8191C31.8612 80.5447 26.4938 80.1289 21.2207 77.7724C21.4213 77.4249 21.5998 77.1155 21.7783 76.8041C21.9588 76.4928 22.1373 76.1794 22.3238 75.8559C27.603 78.1401 32.9162 78.2907 38.2575 76.1513C41.0355 75.0383 43.4062 73.3288 45.408 71.0928C40.3034 74.2328 35.1005 74.4678 29.7291 71.6674L29.7271 71.6694ZM42.2469 37.3434C42.2188 37.3172 42.1827 37.2911 42.1527 37.259C41.7335 36.817 41.3143 36.3731 40.8951 35.9311C40.0486 35.0432 39.2343 34.1171 38.2535 33.3677C36.3059 31.8771 34.1237 31.2363 31.6987 31.7365C28.7703 32.3412 26.6141 34.0387 25.2001 36.6543C24.0749 38.7335 23.8201 40.9272 24.5843 43.1973C25.0677 44.6377 25.9482 45.8209 27.0012 46.8937C29.9477 49.897 33.3555 52.2393 37.1764 53.979C40.877 55.6645 44.7521 56.7373 48.7897 57.1953C49.7023 57.2998 50.6309 57.3681 51.5476 57.3279C53.9103 57.2254 56.229 56.7975 58.5155 56.2009C62.9924 55.0337 67.1483 53.1695 70.899 50.4353C72.7082 49.1175 74.4071 47.6691 75.8452 45.9475C77.4939 43.9747 78.2059 41.7027 77.6885 39.1453C77.0988 36.2284 75.4119 34.0849 72.8346 32.6486C71.1417 31.7064 69.3225 31.3588 67.399 31.7004C65.7803 31.9876 64.3703 32.7209 63.1909 33.8439C62.0757 34.9045 61.0327 36.0416 59.9577 37.1445C59.8955 37.2088 59.8293 37.269 59.7611 37.3313C59.7611 36.7628 59.7551 36.2264 59.7611 35.69C59.7792 34.4063 59.8774 33.1206 59.727 31.839C59.4683 29.6332 58.5857 27.7348 56.8247 26.3426C54.3737 24.402 51.5837 23.9038 48.5831 24.6451C44.8504 25.5672 42.4495 28.4921 42.2469 32.3332C42.1868 33.5023 42.2469 34.6775 42.2489 35.8487C42.2489 36.3429 42.2489 36.8371 42.2489 37.3393L42.2469 37.3434Z" fill="#00501E"/>
<path d="M66.0069 47.854C65.5115 47.854 65.0482 47.85 64.5828 47.856C64.4083 47.858 64.4224 47.7476 64.4144 47.633C64.3622 46.8395 64.0734 46.1364 63.59 45.5117C63.5419 45.4494 63.4877 45.3931 63.4075 45.2987C63.3674 46.8154 62.6794 47.7516 61.1651 47.8842C60.1642 47.9726 59.2676 47.3237 58.9206 46.3915C58.5456 45.3791 58.8685 44.4208 59.8673 43.5429C59.5645 43.5369 59.2616 43.5108 58.9607 43.5269C57.5246 43.6072 56.253 44.0833 55.224 45.1219C54.5521 45.8009 54.1389 46.6105 54.0707 47.5728C54.0547 47.8098 53.9704 47.8661 53.7518 47.858C53.3286 47.842 52.9054 47.854 52.412 47.854C52.4882 47.3839 52.5183 46.944 52.6346 46.5241C53.1501 44.6559 54.3816 43.4003 56.0985 42.5967C58.7642 41.3512 62.0416 41.8354 64.1677 43.786C65.2387 44.7684 65.8705 45.9817 66.0069 47.4402C66.019 47.5647 66.0069 47.6933 66.0069 47.852V47.854Z" fill="#00501E"/>
<path d="M49.5439 47.8419H47.9774C47.9332 46.8917 47.6103 46.0499 46.9464 45.2926C46.9023 46.8354 46.2023 47.7776 44.6559 47.8861C43.673 47.9544 42.8005 47.3115 42.4596 46.3914C42.0845 45.383 42.3954 44.4609 43.4664 43.5448C43.0994 43.5368 42.7945 43.5107 42.4917 43.5288C41.0636 43.6091 39.7979 44.0832 38.771 45.1118C38.083 45.8008 37.6678 46.6265 37.6016 47.6068C37.5876 47.8057 37.5234 47.866 37.3269 47.8599C36.8956 47.8459 36.4624 47.8559 35.977 47.8559C36.0051 47.5626 36.0131 47.2854 36.0592 47.0142C36.3621 45.2845 37.3269 44.0008 38.773 43.0667C41.5028 41.3009 45.2957 41.6002 47.6745 43.7638C48.7496 44.7421 49.3914 45.9515 49.5378 47.4099C49.5519 47.5445 49.5378 47.6811 49.5378 47.8439L49.5439 47.8419Z" fill="#00501E"/>
<path d="M54.0427 50.5338C54.5101 50.7889 54.9574 51.034 55.4428 51.2992C54.4098 52.9586 52.8995 53.6978 51.0161 53.7722C49.2289 53.8425 47.1329 52.6874 46.5312 51.2811C46.9825 51.034 47.4358 50.7869 47.9011 50.5338C48.6352 51.6508 49.6782 52.157 50.9659 52.159C52.2536 52.159 53.3006 51.6588 54.0427 50.5338Z" fill="#00501E"/>
</svg>
