<?xml version="1.0" encoding="UTF-8"?>
<svg id="Layer_1" width="150px" height="64px" xmlns="http://www.w3.org/2000/svg" version="1.1" xmlns:xlink="http://www.w3.org/1999/xlink" viewBox="0 0 148.7 31">
  <!-- Generator: Adobe Illustrator 29.3.1, SVG Export Plug-In . SVG Version: 2.1.0 Build 151)  -->
  <defs>
    <style>
      .st0 {
        fill: #fff;
      }

      .st1 {
        fill: #d548ec;
      }
    </style>
  </defs>
  <g>
    <path class="st0" d="M59.5,11.3h0c-1.6,0-3.2.6-4.3,1.7V3.6c0,0,0-.2-.2-.2h-3.5c0,0-.2,0-.2.2v24.1c0,0,0,.2.2.2h3.5c0,0,.2,0,.2-.2v-9.8c0-1.8,1.4-3.3,3.2-3.4,1.4,0,2.8.7,3.3,2.1.3.9.3,1.9.3,2.9v8.2c0,0,0,.2.2.2h3.5c0,0,.2,0,.2-.2v-10.2c0-3.4-2.8-6.2-6.3-6.2h0s0,0,0,0Z"/>
    <path class="st0" d="M33.5,10.7h-3.5c0,0-.2,0-.2.2v10.1c0,.9-.4,1.7-1,2.2-.7.6-1.6,1-2.5.9-1.7,0-3.1-1.5-3.1-3.3v-10c0,0,0-.2-.2-.2h-3.5c0,0-.2,0-.2.2v9.9c0,3.8,3.1,6.9,6.9,7h.2c1.9,0,3.7-.7,5.1-2,1.3-1.3,2.1-3,2.1-4.8v-10.1c0,0,0-.2-.2-.2h0s0,0,0,0Z"/>
    <path class="st0" d="M42.9,17.5c-2-.3-2.9-.9-2.9-2s.9-1.7,2.4-1.7,2.4.7,2.8,1.7c0,0,0,0,0,0h.1l2.9-1.2c0,0,.1-.1,0-.2-.9-2.2-3.1-3.5-6-3.5-4,0-6.1,2.4-6.1,4.8s1.9,4.5,5.9,5.2c2.1.4,3,1,3,2.1s-1.1,1.8-2.9,1.8-2.6-.7-3.2-1.9c0,0,0,0-.1,0h0l-3,1.3s0,0,0,0h0c.7,1.5,2.4,3.9,6.5,3.9s6.7-2.6,6.7-5.2-2-4.5-6-5.2h0s0,0,0,0Z"/>
    <path class="st0" d="M9.7,3.4H.9c0,0-.2,0-.2,0s0,.1,0,.2v23.9c0,.2.1.3.3.3h3.3c.2,0,.3-.1.3-.3v-9.3c0,0,0-.2.2-.2h5.1c4.1,0,7.4-3.2,7.4-7.3s-.8-3.8-2.1-5.2c-1.4-1.4-3.2-2.1-5.2-2.1h0ZM12.4,13.1c-.7.8-1.6,1.2-2.6,1.2h-2.3c-1,0-1.9.6-2.1,1.6v.4c-.1,0-.2,0-.2,0h-.5c0,0-.1,0-.1-.1V7.6c0-.2.2-.4.4-.4h4.6c1.9,0,3.5,1.4,3.7,3.2.1,1-.2,2-.8,2.7h0Z"/>
  </g>
  <path class="st1" d="M141.3,0h-58.3c-4.1,0-7.4,3.3-7.4,7.4v16.2c0,4.1,3.3,7.4,7.4,7.4h58.3c4.1,0,7.4-3.3,7.4-7.4V7.4c0-4.1-3.3-7.4-7.4-7.4Z"/>
  <path class="st0" d="M87.9,20.9c2.1,0,3.2-1.2,3.4-3.1h2.8c-.2,3.8-2.6,6-6.2,6s-6.2-2.5-6.2-6.9v-2.8c0-4.4,2.5-6.9,6.2-6.9s6.1,2.2,6.2,6.2h-2.8c0-2-1.2-3.2-3.4-3.2s-3.4,1.3-3.4,3.9v2.8c0,2.6,1.1,4,3.4,4Z"/>
  <polygon class="st0" points="108.2 23.6 105.4 23.6 105.4 16.8 99.4 16.8 99.4 23.6 96.6 23.6 96.6 7.5 99.4 7.5 99.4 13.8 105.4 13.8 105.4 7.5 108.2 7.5 108.2 23.6"/>
  <polygon class="st0" points="120.5 23.6 119.6 19.9 113.8 19.9 112.9 23.6 110 23.6 114 7.5 119.5 7.5 123.4 23.6 120.5 23.6 120.5 23.6 120.5 23.6"/>
  <polygon class="st1" points="114.6 16.9 118.9 16.9 116.8 8.1 114.6 16.9"/>
  <rect class="st0" x="125.6" y="7.3" width="2.8" height="16.3"/>
  <polygon class="st0" points="142.6 23.6 137.1 23.6 133.4 8.1 133.4 23.6 130.7 23.6 130.7 7.5 136.1 7.5 139.9 23.1 139.9 7.5 142.6 7.5 142.6 23.6 142.6 23.6 142.6 23.6"/>
</svg>