<?xml version="1.0" encoding="utf-8"?>
<!-- Generator: Adobe Illustrator 26.0.1, SVG Export Plug-In . SVG Version: 6.00 Build 0)  -->
<svg version="1.1" id="Layer_1" xmlns="http://www.w3.org/2000/svg" xmlns:xlink="http://www.w3.org/1999/xlink" x="0px" y="0px"
	 viewBox="0 0 125 125" style="enable-background:new 0 0 125 125;" xml:space="preserve">
<style type="text/css">
	.st0{fill:url(#SVGID_1_);}
	.st1{opacity:0.5;}
	.st2{fill-rule:evenodd;clip-rule:evenodd;fill:url(#SVGID_00000045614981104870231790000005453999764897225385_);}
	.st3{fill-rule:evenodd;clip-rule:evenodd;fill:url(#SVGID_00000083048341928657228420000004760426467827714743_);}
</style>
<g>
	
		<linearGradient id="SVGID_1_" gradientUnits="userSpaceOnUse" x1="95.404" y1="138.4071" x2="74.5761" y2="78.5437" gradientTransform="matrix(0.9977 6.748018e-02 6.748018e-02 -0.9977 -29.7158 164.7827)">
		<stop  offset="0" style="stop-color:#212428"/>
		<stop  offset="0.9373" style="stop-color:#15171B"/>
	</linearGradient>
	<path class="st0" d="M54.7,28.1l19.9,1.3c13,0.9,22.9,12.2,22,25.2l-1.3,19.9c-0.9,13-12.2,22.9-25.2,22l-19.9-1.3
		c-13-0.9-22.9-12.2-22-25.2l1.3-19.9C30.4,37.1,41.6,27.2,54.7,28.1z"/>
	<g class="st1">
		
			<linearGradient id="SVGID_00000055704734516396406050000016283575963682391975_" gradientUnits="userSpaceOnUse" x1="37.3228" y1="90.0845" x2="93.852" y2="85.6449" gradientTransform="matrix(1 0 0 -1 0 126)">
			<stop  offset="0" style="stop-color:#F3CCEB"/>
			<stop  offset="0.393" style="stop-color:#000000"/>
			<stop  offset="0.5551" style="stop-color:#000000"/>
			<stop  offset="1" style="stop-color:#F7CDED"/>
		</linearGradient>
		<path style="fill-rule:evenodd;clip-rule:evenodd;fill:url(#SVGID_00000055704734516396406050000016283575963682391975_);" d="
			M30.5,44.6c3.8-8.8,12.8-14.6,22.8-14l22.1,1.5c10.4,0.7,18.7,8.1,21,17.8C95,39,86,30.2,74.6,29.5l-19.9-1.3
			C43.6,27.4,33.7,34.4,30.5,44.6z"/>
	</g>
	
		<linearGradient id="SVGID_00000117659352919428976810000005345967147071267511_" gradientUnits="userSpaceOnUse" x1="61.4577" y1="47.9101" x2="64.0476" y2="84.3932" gradientTransform="matrix(1 0 0 -1 0 126)">
		<stop  offset="0" style="stop-color:#FFFFFF"/>
		<stop  offset="1" style="stop-color:#545372"/>
	</linearGradient>
	<path style="fill-rule:evenodd;clip-rule:evenodd;fill:url(#SVGID_00000117659352919428976810000005345967147071267511_);" d="
		M61.5,80.8c-1.4-0.1-2.8-0.5-4-1.3l-9.1-5.8c-2.4-1.5-3.8-4.2-3.6-6.9l0.6-10.4c0.2-2.8,1.9-5.2,4.4-6.4l9.7-4.7
		c2.6-1.3,5.7-1.1,8.1,0.5l9.1,5.8c1.1,0.7,2.1,1.7,2.7,2.9l-12.7,6.2c-2.5,1.2-4.2,3.8-4.4,6.4L61.5,80.8L61.5,80.8z M79.8,67.1
		l-0.1,1.8c-0.2,2.8-1.9,5.2-4.4,6.4L65.6,80c-0.3,0.1-0.5,0.2-0.8,0.4l0.2-3.2c0.1-1.6,1.1-3.1,2.6-3.9c3.6-1.8,7.3-3.5,10.9-5.3
		C78.9,67.7,79.3,67.4,79.8,67.1z M80.3,57.5c0,0.3,0,0.6,0,1l-0.1,1.9c-0.2,2-1.4,3.9-3.2,4.8c-3.6,1.8-7.3,3.5-10.9,5.3
		c-0.3,0.1-0.5,0.3-0.7,0.4l0.2-3.6c0.1-1.6,1.1-3.1,2.7-3.9L80.3,57.5z"/>
</g>
</svg>
