<svg width="167" height="54" viewBox="0 0 167 54" fill="none" xmlns="http://www.w3.org/2000/svg">
<path d="M12.8265 12.8609H14.7493V42.5804C14.7493 49.161 9.70515 53.6011 0 53.6011V47.3519C4.16723 47.3519 6.24923 45.598 6.24923 42.0316V12.8609H12.8265ZM7.18141 8.03427C6.73877 7.60248 6.387 7.0865 6.14681 6.51669C5.90663 5.94687 5.7829 5.33476 5.7829 4.7164C5.7829 4.09803 5.90663 3.48591 6.14681 2.9161C6.387 2.34629 6.73877 1.8303 7.18141 1.39852C7.6132 0.955869 8.12919 0.6041 8.699 0.363919C9.26881 0.123736 9.88093 -1.66753e-08 10.4993 0C11.1177 -1.66753e-08 11.7298 0.123736 12.2996 0.363919C12.8694 0.6041 13.3854 0.955869 13.8172 1.39852C14.2598 1.8303 14.6116 2.34629 14.8518 2.9161C15.092 3.48591 15.2157 4.09803 15.2157 4.7164C15.2157 5.33476 15.092 5.94687 14.8518 6.51669C14.6116 7.0865 14.2598 7.60248 13.8172 8.03427C13.3854 8.47692 12.8694 8.82869 12.2996 9.06888C11.7298 9.30905 11.1177 9.43278 10.4993 9.43278C9.88093 9.43278 9.26881 9.30905 8.699 9.06888C8.12919 8.82869 7.6132 8.47692 7.18141 8.03427Z" fill="#0C1F47"/>
<path d="M39.3566 12.8611H47.8567V40.9892H39.3566V36.8771C38.0696 38.3723 36.4691 39.5658 34.6688 40.3725C32.8684 41.1791 30.9125 41.5793 28.94 41.5445C22.577 41.5445 18.3547 37.5981 18.3547 30.1959V12.8676H26.8581V26.9609C26.8581 31.8329 28.7776 34.3079 32.6721 34.3079C36.4007 34.3079 39.3597 31.4009 39.3597 25.6421L39.3566 12.8611Z" fill="#0C1F47"/>
<path d="M100.894 23.6801V41.0051H92.3969V26.639C92.3969 21.9229 90.5868 19.5658 86.9663 19.568C83.4584 19.568 80.4409 22.527 80.4409 28.2305V41.0051H71.9408V26.639C71.9408 21.9229 70.1317 19.5658 66.5133 19.568C63.0055 19.568 59.9881 22.527 59.9881 28.2305V41.0051H51.4879V12.8771H59.9881V16.9339C62.7846 13.8645 66.0749 12.3281 69.9693 12.3281C74.903 12.3281 78.0893 14.2477 79.5639 18.0869C82.5825 14.2369 86.2019 12.3119 90.4222 12.3119C96.9475 12.3119 100.894 15.8198 100.894 23.6801Z" fill="#0C1F47"/>
<path d="M132.494 16.1511C135.235 18.7821 136.606 22.3451 136.606 26.8988C136.606 31.4526 135.235 35.019 132.494 37.5913C129.753 40.2224 126.297 41.5377 122.074 41.5377C118.346 41.5377 115.329 40.3317 113.025 37.9195V53.0554H104.528V12.8608H113.025V15.8847C115.329 13.4747 118.346 12.2686 122.074 12.2664C126.297 12.2567 129.753 13.5721 132.494 16.1511ZM127.723 26.8988C127.723 21.8547 124.598 18.5091 120.376 18.5091C116.208 18.5091 113.025 21.6889 113.025 26.8988C113.025 32.1086 116.208 35.2885 120.376 35.2885C124.598 35.2885 127.723 31.9431 127.723 26.8988Z" fill="#0C1F47"/>
<path d="M167 32.2095V39.2095H141V32.2095H167Z" fill="#1CE7C2"/>
</svg>
