<svg width="22" height="20" viewBox="0 0 22 20" fill="none" xmlns="http://www.w3.org/2000/svg">
<path d="M21.1872 0.0398699L0.382394 8.04745C0.269338 8.09103 0.172227 8.16786 0.103936 8.26775C0.0356461 8.36765 -0.000598519 8.48589 7.47672e-06 8.60681C0.000613473 8.72773 0.0380415 8.8456 0.10733 8.94481C0.176618 9.04402 0.274493 9.11988 0.387981 9.16232L5.45788 11.0499L7.41978 17.3455C7.44884 17.4386 7.50033 17.5231 7.56976 17.5916C7.63918 17.6602 7.72441 17.7108 7.81796 17.7388C7.91152 17.7669 8.01055 17.7716 8.10637 17.7526C8.20219 17.7336 8.29187 17.6914 8.36755 17.6298L11.1934 15.3304C11.3374 15.213 11.5163 15.1466 11.7022 15.1414C11.8881 15.1363 12.0704 15.1927 12.2208 15.3018L17.3193 18.9948C17.4 19.0534 17.4941 19.0908 17.593 19.1038C17.6919 19.1167 17.7925 19.1047 17.8856 19.0689C17.9786 19.0331 18.0612 18.9745 18.1258 18.8987C18.1904 18.8228 18.2349 18.732 18.2552 18.6346L21.9876 0.717156C22.0094 0.61225 22.0024 0.503443 21.9674 0.402164C21.9324 0.300885 21.8707 0.210872 21.7889 0.141582C21.707 0.0722916 21.6079 0.0262815 21.502 0.00838403C21.3962 -0.0095134 21.2874 0.00136244 21.1872 0.0398699ZM17.5924 4.34189L9.41589 11.9244C9.12807 12.1915 8.94238 12.5502 8.89067 12.939L8.6113 14.998C8.60326 15.056 8.5755 15.1095 8.53266 15.1496C8.48983 15.1896 8.43451 15.2138 8.37596 15.218C8.31741 15.2223 8.25917 15.2063 8.21098 15.1729C8.1628 15.1394 8.12758 15.0905 8.11122 15.0342L7.03983 11.2792C6.9805 11.0707 6.99095 10.8485 7.0696 10.6464C7.14825 10.4444 7.29081 10.2734 7.47565 10.1594L17.3836 4.07153C17.4198 4.05053 17.4624 4.04338 17.5035 4.05143C17.5446 4.05947 17.5814 4.08216 17.607 4.11526C17.6325 4.14836 17.6451 4.1896 17.6425 4.23131C17.6398 4.27301 17.622 4.31231 17.5924 4.34189Z" fill="white"/>
</svg>
