<svg width="40" height="38" viewBox="0 0 40 38" fill="none" xmlns="http://www.w3.org/2000/svg">
<path fill-rule="evenodd" clip-rule="evenodd" d="M20.5669 32.1087C13.8532 36.4286 7.35857 37.6093 4.28988 34.5255C1.35273 31.5739 2.33765 25.503 6.24419 19.1197C1.97385 12.9739 0.63832 6.97037 3.39925 3.85332C6.28382 0.596677 12.836 1.39852 19.7891 5.32155C26.5029 1.00166 32.9975 -0.179029 36.0661 2.90475C39.0033 5.85634 38.0184 11.9272 34.1119 18.3105C38.3822 24.4563 39.7177 30.4599 36.9568 33.5769C34.0722 36.8336 27.5201 36.0317 20.5669 32.1087ZM18.2728 30.709C16.5283 29.5641 14.7812 28.2318 13.0819 26.7266C11.0729 24.9472 9.2957 23.0722 7.78415 21.1816C4.58567 26.3784 3.60547 31.019 5.69915 33.123C7.8758 35.3103 12.8103 34.1888 18.2728 30.709ZM22.6589 27.4853C21.3801 28.5513 19.5485 28.6045 18.21 27.6144C17.0594 26.7634 15.9064 25.8307 14.7683 24.8227C13.4782 23.68 12.282 22.5066 11.1917 21.3264C9.97558 20.0101 9.91763 18.0142 11.0553 16.6295C12.0753 15.3881 13.2014 14.1472 14.4229 12.9317C15.5006 11.8593 16.5976 10.8612 17.6969 9.94486C18.9757 8.87885 20.8074 8.82565 22.1459 9.81566C23.2965 10.6667 24.4496 11.5995 25.5878 12.6076C26.8778 13.7502 28.0739 14.9235 29.1642 16.1036C30.3803 17.42 30.4383 19.4159 29.3006 20.8006C28.2806 22.042 27.1545 23.2828 25.933 24.4984C24.8553 25.5708 23.7583 26.5689 22.6589 27.4853ZM30.9731 22.7203C31.8473 21.6468 33.533 21.6551 34.2175 22.8584C36.5097 26.8878 37.1163 30.3983 35.4685 32.2587C33.7641 34.183 30.0158 33.926 25.5425 31.9615C24.2137 31.378 24.0897 29.5923 25.1909 28.6471C26.0472 27.9122 26.8949 27.1295 27.7271 26.3014C28.9017 25.1325 29.986 23.9324 30.9731 22.7203ZM32.5718 16.2484C35.7702 11.0516 36.7504 6.41106 34.6568 4.30708C32.4801 2.11972 27.5455 3.24123 22.083 6.72111C23.8276 7.86606 25.5748 9.1984 27.2742 10.7036C29.2831 12.483 31.0602 14.3579 32.5718 16.2484ZM15.1651 8.78314C16.2664 7.83797 16.1423 6.05227 14.8135 5.46874C10.3403 3.50431 6.59203 3.24737 4.8876 5.17164C3.23982 7.03197 3.84639 10.5424 6.13853 14.5718C6.82306 15.7751 8.50878 15.7834 9.383 14.7099C10.3701 13.4978 11.4543 12.2978 12.6289 11.1289C13.4611 10.3008 14.3088 9.51803 15.1651 8.78314Z" fill="white" stroke="white" stroke-width="2"/>
</svg>
