<svg width="45" height="46" viewBox="0 0 45 46" fill="none" xmlns="http://www.w3.org/2000/svg">
<path d="M24.2634 2.83632C25.7729 2.98433 26.8975 4.03422 26.7572 5.4654C26.6688 6.36622 26.6344 7.04146 27.1836 7.26913C31.8548 9.1947 34.6075 12.9045 34.1737 17.3292L33.4445 24.766C33.1104 28.1731 34.4367 28.9995 36.0631 30.4748C38.4187 32.6081 37.4541 36.4749 34.5392 36.1864L7.70649 33.5554C4.79109 33.2722 4.59588 29.2918 7.32105 27.6566C9.20091 26.5251 10.6645 25.9723 10.9986 22.5651L11.7278 15.1283C12.1617 10.7036 15.5825 7.59917 20.5388 6.6176C21.1202 6.50078 21.2191 5.83187 21.3075 4.93105C21.4483 3.49992 22.756 2.68852 24.2634 2.83632Z" fill="white"/>
<path d="M26.3799 38.2337C26.1859 40.2123 24.9825 41.6232 23.1723 42.4451C21.3627 43.2665 19.2524 43.0595 17.64 41.9026C16.0234 40.7448 15.1175 39.127 15.3115 37.1484" fill="white"/>
</svg>
