<svg width="80" height="31" viewBox="0 0 80 31" fill="none" xmlns="http://www.w3.org/2000/svg">
<path d="M0.344849 8.26569C0.344849 3.84741 3.92657 0.265686 8.34485 0.265686H71.2028C75.6211 0.265686 79.2028 3.84741 79.2028 8.26569V22.1744C79.2028 26.5927 75.6211 30.1745 71.2028 30.1745H8.34485C3.92658 30.1745 0.344849 26.5927 0.344849 22.1745V8.26569Z" fill="black"/>
<path d="M59.4005 23.3385V7.10172H65.3849L69.5601 22.8746V7.10172H72.5755V23.3385H66.4519L62.4159 7.6816V23.3385H59.4005Z" fill="white"/>
<path d="M53.5975 23.3385V20.4391L53.5976 10.0011V7.10172H56.729V10.0011L56.7289 20.4391V23.3385H53.5975Z" fill="white"/>
<path d="M48.3933 23.3384L47.3959 19.604H40.994L39.9966 23.3384H36.8188L41.1796 7.10168H47.2568L51.5711 23.3384H48.3933ZM41.8058 16.5886H46.5841L44.195 7.68157L41.8058 16.5886Z" fill="white"/>
<path d="M32.0665 23.3385V16.519H25.4558V23.3385H22.3245V7.10172H25.4558V13.5036H32.0665V7.10172H35.1979V23.3385H32.0665Z" fill="white"/>
<path d="M13.8379 23.5472C9.75549 23.5472 6.97205 21.0421 6.97205 16.6118V13.8284C6.97205 9.39805 9.75549 6.89294 13.8379 6.89294C17.8507 6.89294 20.5877 9.16609 20.7037 13.1093H17.5723C17.4795 11.0449 16.2038 9.90834 13.8379 9.90834C11.4024 9.90834 10.1034 11.2537 10.1034 13.8284V16.6118C10.1034 19.1865 11.4024 20.6478 13.8379 20.6478C16.1342 20.6478 17.4332 19.488 17.5723 17.5164H20.7037C20.5181 21.3669 17.7811 23.5472 13.8379 23.5472Z" fill="white"/>
</svg>
