<svg width="152" height="32" viewBox="0 0 152 32" fill="none" xmlns="http://www.w3.org/2000/svg">
<g clip-path="url(#clip0_17575_2119)">
<path d="M14.7757 31.5C16.5635 31.5 18.1143 30.434 18.8035 28.8989C18.9758 28.5365 18.6958 28.11 18.2866 28.11H11.2864C10.8772 28.11 10.5972 28.5365 10.7695 28.8989C11.4587 30.434 12.988 31.5 14.7973 31.5" fill="url(#paint0_linear_17575_2119)"/>
<path d="M25.5236 23.9099C24.382 23.9099 23.4558 22.9931 23.4558 21.8631V14.4436C23.4558 10.414 20.6773 7.04538 16.908 6.10728C16.7788 5.04126 15.8526 4.23108 14.7541 4.23108C13.6556 4.23108 12.7295 5.06258 12.6002 6.1286C9.21862 7.00274 6.63395 9.83837 6.18164 13.3136V21.8845C6.18164 23.0144 5.277 23.9099 4.13544 23.9312C3.59697 23.9312 3.14465 24.3576 3.14465 24.8906C3.14465 25.4237 3.57543 25.8501 4.1139 25.8501H25.6097C26.1482 25.8501 26.579 25.4237 26.579 24.8906C26.579 24.3576 26.1482 23.9312 25.6097 23.9312L25.5236 23.9099Z" fill="url(#paint1_linear_17575_2119)"/>
<path d="M21.0004 4.65748C23.4127 5.16917 25.2651 7.23726 25.502 9.6678C25.5236 9.94496 25.7605 10.1368 26.0405 10.1155C26.1697 10.1155 26.299 10.0302 26.3851 9.94496C26.4713 9.83836 26.5143 9.71044 26.4928 9.58252C26.3636 8.15404 25.782 6.85349 24.8128 5.76615C23.8651 4.70012 22.6158 3.99655 21.2158 3.69806H21.1081C20.8712 3.69806 20.6773 3.8473 20.6127 4.08183C20.5481 4.33767 20.7204 4.61484 21.0004 4.65748Z" fill="url(#paint2_linear_17575_2119)"/>
<path d="M21.5604 1.48073C25.3298 2.26959 28.1944 5.48899 28.5606 9.28404C28.5821 9.5612 28.8191 9.75309 29.0991 9.73177C29.2283 9.73177 29.3575 9.64648 29.4437 9.5612C29.5298 9.4546 29.5729 9.32668 29.5514 9.19875C29.3575 7.10934 28.496 5.16918 27.0744 3.59146C25.6744 2.03507 23.822 0.969043 21.7758 0.542633H21.6681C21.4312 0.542633 21.2374 0.691877 21.1727 0.926402C21.1081 1.18225 21.2804 1.45941 21.5604 1.50206V1.48073Z" fill="url(#paint3_linear_17575_2119)"/>
<path d="M8.55089 4.6575C8.80936 4.59354 8.98167 4.33769 8.93859 4.06053C8.89551 3.826 8.68012 3.67676 8.4432 3.67676C8.20627 3.67676 8.37858 3.67676 8.3355 3.67676C6.93547 3.97524 5.68622 4.70014 4.73851 5.74485C3.76926 6.81087 3.18771 8.13274 3.05847 9.56122C3.05847 9.68914 3.08001 9.81706 3.16617 9.92366C3.25232 10.0303 3.38155 10.0942 3.51079 10.0942C3.79079 10.1155 4.02772 9.92366 4.04926 9.6465C4.28619 7.21596 6.117 5.14787 8.55089 4.63618V4.6575Z" fill="url(#paint4_linear_17575_2119)"/>
<path d="M7.99093 1.48074C8.2494 1.41678 8.42171 1.16094 8.37863 0.883769C8.33555 0.649243 8.12016 0.5 7.88324 0.5C7.64631 0.5 7.81862 0.5 7.77554 0.5C5.70781 0.94773 3.877 1.99243 2.47697 3.54883C1.05541 5.12655 0.19385 7.06671 0 9.15612C0 9.28404 0.0215389 9.41197 0.107694 9.51857C0.19385 9.62517 0.323083 9.68913 0.452317 9.68913C0.732322 9.71045 0.96925 9.51857 0.990789 9.2414C1.33541 5.44635 4.22162 2.24828 7.99093 1.4381V1.48074Z" fill="url(#paint5_linear_17575_2119)"/>
<path d="M82.0632 12.6314H82.0417C80.7709 12.6314 79.5863 13.0791 78.6601 13.9319V6.74691C78.6601 6.68295 78.5955 6.61899 78.5309 6.61899H75.7739C75.7093 6.61899 75.6447 6.68295 75.6447 6.74691V25.2957C75.6447 25.3597 75.7093 25.4237 75.7739 25.4237H78.5309C78.5955 25.4237 78.6601 25.3597 78.6601 25.2957V17.7483C78.6601 16.3625 79.7586 15.2325 81.1801 15.1685C82.3002 15.1045 83.334 15.7442 83.7217 16.7889C83.9802 17.4924 83.9587 18.2387 83.9587 18.9849V25.2957C83.9587 25.3597 84.0233 25.4237 84.0879 25.4237H86.8018C86.8664 25.4237 86.931 25.3597 86.931 25.2957V17.4285C86.931 14.8061 84.7556 12.674 82.0632 12.6527V12.6314Z" fill="#F5F6F8"/>
<path d="M61.9028 12.1836H59.1674C59.1028 12.1836 59.0381 12.2476 59.0381 12.3116V20.0722C59.0381 20.7332 58.7581 21.3515 58.2843 21.7992C57.7673 22.2896 57.0781 22.5454 56.3458 22.5028C54.9888 22.4388 53.9119 21.3301 53.9119 19.9869V12.2902C53.9119 12.2263 53.8473 12.1623 53.7826 12.1623H51.0472C50.9826 12.1623 50.918 12.2263 50.918 12.2902V19.9443C50.918 22.8439 53.3519 25.2744 56.3242 25.3597H56.4965C57.9827 25.3597 59.3828 24.8054 60.4597 23.782C61.4936 22.7799 62.0751 21.4581 62.0751 20.0509V12.2902C62.0751 12.2263 62.0105 12.1623 61.9459 12.1623L61.9028 12.1836Z" fill="#F5F6F8"/>
<path d="M69.1615 17.4072C67.5891 17.1513 66.9214 16.7036 66.9214 15.8721C66.9214 15.0406 67.6537 14.5715 68.7738 14.5715C69.8938 14.5715 70.6046 15.1045 70.9276 15.8934C70.9276 15.9147 70.9492 15.936 70.9923 15.9574H71.0784L73.34 15.0193C73.3831 14.9979 73.4262 14.934 73.4046 14.8913C72.7154 13.207 70.9707 12.205 68.7738 12.205C65.6506 12.205 64.0137 14.0598 64.0137 15.8934C64.0137 17.727 65.5214 19.3686 68.6014 19.8803C70.2169 20.1788 70.9061 20.6692 70.9061 21.4794C70.9061 22.2896 70.0661 22.8865 68.6661 22.8865C67.266 22.8865 66.6199 22.3109 66.1676 21.4367C66.1676 21.3941 66.1029 21.3728 66.0599 21.3728H66.0168L63.6475 22.3748C63.626 22.3748 63.6044 22.3962 63.5829 22.4388V22.5241C64.0998 23.6114 65.4568 25.4237 68.623 25.4237C71.7892 25.4237 73.8569 23.4195 73.8569 21.4367C73.8569 19.4539 72.3277 17.9402 69.1615 17.4285V17.4072Z" fill="#F5F6F8"/>
<path d="M43.3794 6.59341H36.5042C36.4438 6.59341 36.3857 6.61686 36.3426 6.6595C36.2995 6.70214 36.2802 6.75545 36.2802 6.81088V25.1828C36.2802 25.3021 36.3814 25.4002 36.5042 25.4002H39.0587C39.1814 25.4002 39.2827 25.3021 39.2827 25.1828L39.2977 17.9935C39.2977 17.9189 39.3602 17.8592 39.4356 17.8592H43.3772C46.593 17.8592 49.113 15.3839 49.113 12.222C49.113 10.6891 48.5229 9.26913 47.4524 8.21803C46.384 7.16906 44.9366 6.59128 43.3772 6.59128H43.3794V6.59341ZM45.488 14.0385C44.9776 14.6227 44.2474 14.9574 43.4289 14.983H41.6541C40.8809 14.9873 40.2132 15.4691 39.9913 16.1812L39.9051 16.4563C39.8922 16.4968 39.8535 16.5266 39.8082 16.5266H39.3861C39.3279 16.5266 39.2827 16.4819 39.2827 16.4286V9.78082C39.2827 9.60386 39.4313 9.46315 39.6144 9.46315H43.2221C44.7148 9.46315 45.9619 10.5228 46.1234 11.9278C46.216 12.7167 45.9899 13.465 45.488 14.0385Z" fill="#F5F6F8"/>
<path d="M125.464 17.0447H128.824L127.144 10.2435L125.464 17.0447Z" fill="#F5F6F8"/>
<path d="M146.249 4.03922H100.845C97.6574 4.03922 95.0942 6.59767 95.0942 9.73179V22.2469C95.0942 25.4024 97.6789 27.9395 100.845 27.9395H146.249C149.437 27.9395 152 25.381 152 22.2469V9.73179C152 6.57635 149.415 4.03922 146.249 4.03922ZM104.658 20.1575C106.273 20.1575 107.178 19.262 107.285 17.7696H109.482C109.353 20.7118 107.436 22.3748 104.658 22.3748C101.879 22.3748 99.8328 20.456 99.8328 17.066V14.934C99.8328 11.544 101.793 9.62519 104.658 9.62519C107.522 9.62519 109.396 11.3521 109.482 14.3797H107.285C107.221 12.8019 106.316 11.9278 104.658 11.9278C102.999 11.9278 102.03 12.9512 102.03 14.934V17.066C102.03 19.0275 102.934 20.1575 104.658 20.1575ZM120.489 22.2043H118.292V17.0021H113.639V22.2043H111.442V9.79575H113.639V14.6781H118.292V9.79575H120.489V22.2043ZM130.095 22.2043L129.384 19.3473H124.883L124.172 22.2043H121.932L124.99 9.79575H129.255L132.292 22.2043H130.052H130.095ZM136.212 22.2043H134.015V9.64651H136.212V22.2043ZM147.261 22.2043H142.954L140.111 10.2435V22.2043H138V9.79575H142.2L145.129 21.8418V9.79575H147.24V22.2043H147.261Z" fill="#F5F6F8"/>
</g>
<defs>
<linearGradient id="paint0_linear_17575_2119" x1="19.4798" y1="20.7822" x2="13.8369" y2="30.4906" gradientUnits="userSpaceOnUse">
<stop stop-color="#FF94A6"/>
<stop offset="0.2" stop-color="#EA6AC0"/>
<stop offset="0.3" stop-color="#DA4AD5"/>
<stop offset="0.4" stop-color="#D53EDD"/>
<stop offset="0.5" stop-color="#CB3EDD"/>
<stop offset="0.7" stop-color="#B341E0"/>
<stop offset="0.9" stop-color="#8B45E4"/>
<stop offset="1" stop-color="#8247E5"/>
</linearGradient>
<linearGradient id="paint1_linear_17575_2119" x1="25.7131" y1="6.71278" x2="8.71731" y2="28.2235" gradientUnits="userSpaceOnUse">
<stop stop-color="#FF94A6"/>
<stop offset="0.2" stop-color="#EA6AC0"/>
<stop offset="0.3" stop-color="#DA4AD5"/>
<stop offset="0.4" stop-color="#D53EDD"/>
<stop offset="0.5" stop-color="#CB3EDD"/>
<stop offset="0.7" stop-color="#B341E0"/>
<stop offset="0.9" stop-color="#8B45E4"/>
<stop offset="1" stop-color="#8247E5"/>
</linearGradient>
<linearGradient id="paint2_linear_17575_2119" x1="31.9766" y1="1.37412" x2="2.78132" y2="20.9433" gradientUnits="userSpaceOnUse">
<stop stop-color="#FF94A6"/>
<stop offset="0.2" stop-color="#EA6AC0"/>
<stop offset="0.3" stop-color="#DA4AD5"/>
<stop offset="0.4" stop-color="#D53EDD"/>
<stop offset="0.5" stop-color="#CB3EDD"/>
<stop offset="0.7" stop-color="#B341E0"/>
<stop offset="0.9" stop-color="#8B45E4"/>
<stop offset="1" stop-color="#8247E5"/>
</linearGradient>
<linearGradient id="paint3_linear_17575_2119" x1="31.6988" y1="0.971175" x2="2.5251" y2="20.5403" gradientUnits="userSpaceOnUse">
<stop stop-color="#FF94A6"/>
<stop offset="0.2" stop-color="#EA6AC0"/>
<stop offset="0.3" stop-color="#DA4AD5"/>
<stop offset="0.4" stop-color="#D53EDD"/>
<stop offset="0.5" stop-color="#CB3EDD"/>
<stop offset="0.7" stop-color="#B341E0"/>
<stop offset="0.9" stop-color="#8B45E4"/>
<stop offset="1" stop-color="#8247E5"/>
</linearGradient>
<linearGradient id="paint4_linear_17575_2119" x1="26.482" y1="-6.82785" x2="-2.71327" y2="12.7414" gradientUnits="userSpaceOnUse">
<stop stop-color="#FF94A6"/>
<stop offset="0.2" stop-color="#EA6AC0"/>
<stop offset="0.3" stop-color="#DA4AD5"/>
<stop offset="0.4" stop-color="#D53EDD"/>
<stop offset="0.5" stop-color="#CB3EDD"/>
<stop offset="0.7" stop-color="#B341E0"/>
<stop offset="0.9" stop-color="#8B45E4"/>
<stop offset="1" stop-color="#8247E5"/>
</linearGradient>
<linearGradient id="paint5_linear_17575_2119" x1="25.0153" y1="-8.98549" x2="-4.15842" y2="10.5836" gradientUnits="userSpaceOnUse">
<stop stop-color="#FF94A6"/>
<stop offset="0.2" stop-color="#EA6AC0"/>
<stop offset="0.3" stop-color="#DA4AD5"/>
<stop offset="0.4" stop-color="#D53EDD"/>
<stop offset="0.5" stop-color="#CB3EDD"/>
<stop offset="0.7" stop-color="#B341E0"/>
<stop offset="0.9" stop-color="#8B45E4"/>
<stop offset="1" stop-color="#8247E5"/>
</linearGradient>
<clipPath id="clip0_17575_2119">
<rect width="152" height="31" fill="white" transform="translate(0 0.5)"/>
</clipPath>
</defs>
</svg>
