<svg width="152" height="31" viewBox="0 0 152 31" fill="none" xmlns="http://www.w3.org/2000/svg">
<g clip-path="url(#clip0_17575_2098)">
<path d="M14.7757 31C16.5635 31 18.1143 29.934 18.8035 28.3989C18.9758 28.0365 18.6958 27.61 18.2866 27.61H11.2864C10.8772 27.61 10.5972 28.0365 10.7695 28.3989C11.4587 29.934 12.988 31 14.7973 31" fill="url(#paint0_linear_17575_2098)"/>
<path d="M25.5236 23.4099C24.382 23.4099 23.4558 22.4931 23.4558 21.3631V13.9436C23.4558 9.91402 20.6773 6.54538 16.908 5.60728C16.7788 4.54126 15.8526 3.73108 14.7541 3.73108C13.6556 3.73108 12.7295 4.56258 12.6002 5.6286C9.21862 6.50274 6.63395 9.33837 6.18164 12.8136V21.3845C6.18164 22.5144 5.277 23.4099 4.13544 23.4312C3.59697 23.4312 3.14465 23.8576 3.14465 24.3906C3.14465 24.9237 3.57543 25.3501 4.1139 25.3501H25.6097C26.1482 25.3501 26.579 24.9237 26.579 24.3906C26.579 23.8576 26.1482 23.4312 25.6097 23.4312L25.5236 23.4099Z" fill="url(#paint1_linear_17575_2098)"/>
<path d="M21.0004 4.15748C23.4127 4.66917 25.2651 6.73726 25.502 9.1678C25.5236 9.44496 25.7605 9.63685 26.0405 9.61553C26.1697 9.61553 26.299 9.53025 26.3851 9.44496C26.4713 9.33836 26.5143 9.21044 26.4928 9.08252C26.3636 7.65404 25.782 6.35349 24.8128 5.26615C23.8651 4.20012 22.6158 3.49655 21.2158 3.19806H21.1081C20.8712 3.19806 20.6773 3.3473 20.6127 3.58183C20.5481 3.83767 20.7204 4.11484 21.0004 4.15748Z" fill="url(#paint2_linear_17575_2098)"/>
<path d="M21.5604 0.980765C25.3298 1.76962 28.1944 4.98902 28.5606 8.78407C28.5821 9.06123 28.8191 9.25312 29.0991 9.2318C29.2283 9.2318 29.3575 9.14651 29.4437 9.06123C29.5298 8.95463 29.5729 8.82671 29.5514 8.69878C29.3575 6.60938 28.496 4.66921 27.0744 3.09149C25.6744 1.5351 23.822 0.469073 21.7758 0.0426636H21.6681C21.4312 0.0426636 21.2374 0.191907 21.1727 0.426432C21.1081 0.682278 21.2804 0.959445 21.5604 1.00209V0.980765Z" fill="url(#paint3_linear_17575_2098)"/>
<path d="M8.55089 4.1575C8.80936 4.09354 8.98167 3.83769 8.93859 3.56053C8.89551 3.326 8.68012 3.17676 8.4432 3.17676C8.20627 3.17676 8.37858 3.17676 8.3355 3.17676C6.93547 3.47524 5.68622 4.20014 4.73851 5.24485C3.76926 6.31087 3.18771 7.63274 3.05847 9.06122C3.05847 9.18914 3.08001 9.31706 3.16617 9.42366C3.25232 9.53027 3.38155 9.59423 3.51079 9.59423C3.79079 9.61555 4.02772 9.42366 4.04926 9.1465C4.28619 6.71596 6.117 4.64787 8.55089 4.13618V4.1575Z" fill="url(#paint4_linear_17575_2098)"/>
<path d="M7.99093 0.980743C8.2494 0.916781 8.42171 0.660935 8.37863 0.383769C8.33555 0.149243 8.12016 0 7.88324 0C7.64631 0 7.81862 0 7.77554 0C5.70781 0.44773 3.877 1.49243 2.47697 3.04883C1.05541 4.62655 0.19385 6.56671 0 8.65612C0 8.78404 0.0215389 8.91197 0.107694 9.01857C0.19385 9.12517 0.323083 9.18913 0.452317 9.18913C0.732322 9.21045 0.96925 9.01857 0.990789 8.7414C1.33541 4.94635 4.22162 1.74828 7.99093 0.938102V0.980743Z" fill="url(#paint5_linear_17575_2098)"/>
<path d="M82.0632 12.1314H82.0417C80.7709 12.1314 79.5863 12.5791 78.6601 13.4319V6.24691C78.6601 6.18295 78.5955 6.11899 78.5309 6.11899H75.7739C75.7093 6.11899 75.6447 6.18295 75.6447 6.24691V24.7957C75.6447 24.8597 75.7093 24.9237 75.7739 24.9237H78.5309C78.5955 24.9237 78.6601 24.8597 78.6601 24.7957V17.2483C78.6601 15.8625 79.7586 14.7325 81.1801 14.6685C82.3002 14.6045 83.334 15.2442 83.7217 16.2889C83.9802 16.9924 83.9587 17.7387 83.9587 18.4849V24.7957C83.9587 24.8597 84.0233 24.9237 84.0879 24.9237H86.8018C86.8664 24.9237 86.931 24.8597 86.931 24.7957V16.9285C86.931 14.3061 84.7556 12.174 82.0632 12.1527V12.1314Z" fill="#17181B"/>
<path d="M61.9028 11.6836H59.1674C59.1028 11.6836 59.0381 11.7476 59.0381 11.8116V19.5722C59.0381 20.2332 58.7581 20.8515 58.2843 21.2992C57.7673 21.7896 57.0781 22.0454 56.3458 22.0028C54.9888 21.9388 53.9119 20.8301 53.9119 19.4869V11.7902C53.9119 11.7263 53.8473 11.6623 53.7826 11.6623H51.0472C50.9826 11.6623 50.918 11.7263 50.918 11.7902V19.4443C50.918 22.3439 53.3519 24.7744 56.3242 24.8597H56.4965C57.9827 24.8597 59.3828 24.3054 60.4597 23.282C61.4936 22.2799 62.0751 20.9581 62.0751 19.5509V11.7902C62.0751 11.7263 62.0105 11.6623 61.9459 11.6623L61.9028 11.6836Z" fill="#17181B"/>
<path d="M69.1615 16.9072C67.5891 16.6513 66.9214 16.2036 66.9214 15.3721C66.9214 14.5406 67.6537 14.0715 68.7738 14.0715C69.8938 14.0715 70.6046 14.6045 70.9276 15.3934C70.9276 15.4147 70.9492 15.436 70.9923 15.4574H71.0784L73.34 14.5193C73.3831 14.4979 73.4262 14.434 73.4046 14.3913C72.7154 12.707 70.9707 11.705 68.7738 11.705C65.6506 11.705 64.0137 13.5598 64.0137 15.3934C64.0137 17.227 65.5214 18.8686 68.6014 19.3803C70.2169 19.6788 70.9061 20.1692 70.9061 20.9794C70.9061 21.7896 70.0661 22.3865 68.6661 22.3865C67.266 22.3865 66.6199 21.8109 66.1676 20.9367C66.1676 20.8941 66.1029 20.8728 66.0599 20.8728H66.0168L63.6475 21.8748C63.626 21.8748 63.6044 21.8962 63.5829 21.9388V22.0241C64.0998 23.1114 65.4568 24.9237 68.623 24.9237C71.7892 24.9237 73.8569 22.9195 73.8569 20.9367C73.8569 18.9539 72.3277 17.4402 69.1615 16.9285V16.9072Z" fill="#17181B"/>
<path d="M43.3794 6.09341H36.5042C36.4438 6.09341 36.3857 6.11686 36.3426 6.1595C36.2995 6.20214 36.2802 6.25545 36.2802 6.31088V24.6828C36.2802 24.8021 36.3814 24.9002 36.5042 24.9002H39.0587C39.1814 24.9002 39.2827 24.8021 39.2827 24.6828L39.2977 17.4935C39.2977 17.4189 39.3602 17.3592 39.4356 17.3592H43.3772C46.593 17.3592 49.113 14.8839 49.113 11.722C49.113 10.1891 48.5229 8.76913 47.4524 7.71803C46.384 6.66906 44.9366 6.09128 43.3772 6.09128H43.3794V6.09341ZM45.488 13.5385C44.9776 14.1227 44.2474 14.4574 43.4289 14.483H41.6541C40.8809 14.4873 40.2132 14.9691 39.9913 15.6812L39.9051 15.9563C39.8922 15.9968 39.8535 16.0266 39.8082 16.0266H39.3861C39.3279 16.0266 39.2827 15.9819 39.2827 15.9286V9.28082C39.2827 9.10386 39.4313 8.96315 39.6144 8.96315H43.2221C44.7148 8.96315 45.9619 10.0228 46.1234 11.4278C46.216 12.2167 45.9899 12.965 45.488 13.5385Z" fill="#17181B"/>
<path d="M125.464 16.5447H128.824L127.144 9.74347L125.464 16.5447Z" fill="#17181B"/>
<path d="M146.249 3.53922H100.845C97.6574 3.53922 95.0942 6.09767 95.0942 9.23179V21.7469C95.0942 24.9024 97.6789 27.4395 100.845 27.4395H146.249C149.437 27.4395 152 24.881 152 21.7469V9.23179C152 6.07635 149.415 3.53922 146.249 3.53922ZM104.658 19.6575C106.273 19.6575 107.178 18.762 107.285 17.2696H109.482C109.353 20.2118 107.436 21.8748 104.658 21.8748C101.879 21.8748 99.8328 19.956 99.8328 16.566V14.434C99.8328 11.044 101.793 9.12519 104.658 9.12519C107.522 9.12519 109.396 10.8521 109.482 13.8797H107.285C107.221 12.3019 106.316 11.4278 104.658 11.4278C102.999 11.4278 102.03 12.4512 102.03 14.434V16.566C102.03 18.5275 102.934 19.6575 104.658 19.6575ZM120.489 21.7043H118.292V16.5021H113.639V21.7043H111.442V9.29575H113.639V14.1781H118.292V9.29575H120.489V21.7043ZM130.095 21.7043L129.384 18.8473H124.883L124.172 21.7043H121.932L124.99 9.29575H129.255L132.292 21.7043H130.052H130.095ZM136.212 21.7043H134.015V9.14651H136.212V21.7043ZM147.261 21.7043H142.954L140.111 9.74348V21.7043H138V9.29575H142.2L145.129 21.3418V9.29575H147.24V21.7043H147.261Z" fill="#17181B"/>
</g>
<defs>
<linearGradient id="paint0_linear_17575_2098" x1="19.4798" y1="20.2822" x2="13.8369" y2="29.9906" gradientUnits="userSpaceOnUse">
<stop stop-color="#FF94A6"/>
<stop offset="0.2" stop-color="#EA6AC0"/>
<stop offset="0.3" stop-color="#DA4AD5"/>
<stop offset="0.4" stop-color="#D53EDD"/>
<stop offset="0.5" stop-color="#CB3EDD"/>
<stop offset="0.7" stop-color="#B341E0"/>
<stop offset="0.9" stop-color="#8B45E4"/>
<stop offset="1" stop-color="#8247E5"/>
</linearGradient>
<linearGradient id="paint1_linear_17575_2098" x1="25.7131" y1="6.21278" x2="8.71731" y2="27.7235" gradientUnits="userSpaceOnUse">
<stop stop-color="#FF94A6"/>
<stop offset="0.2" stop-color="#EA6AC0"/>
<stop offset="0.3" stop-color="#DA4AD5"/>
<stop offset="0.4" stop-color="#D53EDD"/>
<stop offset="0.5" stop-color="#CB3EDD"/>
<stop offset="0.7" stop-color="#B341E0"/>
<stop offset="0.9" stop-color="#8B45E4"/>
<stop offset="1" stop-color="#8247E5"/>
</linearGradient>
<linearGradient id="paint2_linear_17575_2098" x1="31.9766" y1="0.874125" x2="2.78132" y2="20.4433" gradientUnits="userSpaceOnUse">
<stop stop-color="#FF94A6"/>
<stop offset="0.2" stop-color="#EA6AC0"/>
<stop offset="0.3" stop-color="#DA4AD5"/>
<stop offset="0.4" stop-color="#D53EDD"/>
<stop offset="0.5" stop-color="#CB3EDD"/>
<stop offset="0.7" stop-color="#B341E0"/>
<stop offset="0.9" stop-color="#8B45E4"/>
<stop offset="1" stop-color="#8247E5"/>
</linearGradient>
<linearGradient id="paint3_linear_17575_2098" x1="31.6988" y1="0.471206" x2="2.5251" y2="20.0403" gradientUnits="userSpaceOnUse">
<stop stop-color="#FF94A6"/>
<stop offset="0.2" stop-color="#EA6AC0"/>
<stop offset="0.3" stop-color="#DA4AD5"/>
<stop offset="0.4" stop-color="#D53EDD"/>
<stop offset="0.5" stop-color="#CB3EDD"/>
<stop offset="0.7" stop-color="#B341E0"/>
<stop offset="0.9" stop-color="#8B45E4"/>
<stop offset="1" stop-color="#8247E5"/>
</linearGradient>
<linearGradient id="paint4_linear_17575_2098" x1="26.482" y1="-7.32785" x2="-2.71327" y2="12.2414" gradientUnits="userSpaceOnUse">
<stop stop-color="#FF94A6"/>
<stop offset="0.2" stop-color="#EA6AC0"/>
<stop offset="0.3" stop-color="#DA4AD5"/>
<stop offset="0.4" stop-color="#D53EDD"/>
<stop offset="0.5" stop-color="#CB3EDD"/>
<stop offset="0.7" stop-color="#B341E0"/>
<stop offset="0.9" stop-color="#8B45E4"/>
<stop offset="1" stop-color="#8247E5"/>
</linearGradient>
<linearGradient id="paint5_linear_17575_2098" x1="25.0153" y1="-9.48549" x2="-4.15842" y2="10.0836" gradientUnits="userSpaceOnUse">
<stop stop-color="#FF94A6"/>
<stop offset="0.2" stop-color="#EA6AC0"/>
<stop offset="0.3" stop-color="#DA4AD5"/>
<stop offset="0.4" stop-color="#D53EDD"/>
<stop offset="0.5" stop-color="#CB3EDD"/>
<stop offset="0.7" stop-color="#B341E0"/>
<stop offset="0.9" stop-color="#8B45E4"/>
<stop offset="1" stop-color="#8247E5"/>
</linearGradient>
<clipPath id="clip0_17575_2098">
<rect width="152" height="31" fill="white"/>
</clipPath>
</defs>
</svg>
