<svg viewBox="0 0 148.7 31" width="150px" height="64px" xmlns="http://www.w3.org/2000/svg"><path d="m141.3 0h-58.3c-4.1 0-7.4 3.3-7.4 7.4v16.2c0 4.1 3.3 7.4 7.4 7.4h58.3c4.1 0 7.4-3.3 7.4-7.4v-16.2c0-4.1-3.3-7.4-7.4-7.4z" fill="#d548ec"/><g fill="#fff"><path d="m87.9 20.9c2.1 0 3.2-1.2 3.4-3.1h2.8c-.2 3.8-2.6 6-6.2 6s-6.2-2.5-6.2-6.9v-2.8c0-4.4 2.5-6.9 6.2-6.9s6.1 2.2 6.2 6.2h-2.8c0-2-1.2-3.2-3.4-3.2s-3.4 1.3-3.4 3.9v2.8c0 2.6 1.1 4 3.4 4z"/><path d="m108.2 23.6h-2.8v-6.8h-6v6.8h-2.8v-16.1h2.8v6.3h6v-6.3h2.8z"/><path d="m120.5 23.6-.9-3.7h-5.8l-.9 3.7h-2.9l4-16.1h5.5l3.9 16.1z"/></g><path d="m114.6 16.9h4.3l-2.1-8.8z" fill="#d548ec"/><path d="m125.6 7.3h2.8v16.3h-2.8z" fill="#fff"/><path d="m142.6 23.6h-5.5l-3.7-15.5v15.5h-2.7v-16.1h5.4l3.8 15.6v-15.6h2.7z" fill="#fff"/><path d="m59.5 11.3c-1.6 0-3.2.6-4.3 1.7v-9.4s0-.2-.2-.2h-3.5s-.2 0-.2.2v24.1s0 .2.2.2h3.5s.2 0 .2-.2v-9.8c0-1.8 1.4-3.3 3.2-3.4 1.4 0 2.8.7 3.3 2.1.3.9.3 1.9.3 2.9v8.2s0 .2.2.2h3.5s.2 0 .2-.2v-10.2c0-3.4-2.8-6.2-6.3-6.2s0 0 0 0z"/><path d="m33.5 10.7h-3.5s-.2 0-.2.2v10.1c0 .9-.4 1.7-1 2.2-.7.6-1.6 1-2.5.9-1.7 0-3.1-1.5-3.1-3.3v-10s0-.2-.2-.2h-3.5s-.2 0-.2.2v9.9c0 3.8 3.1 6.9 6.9 7h.2c1.9 0 3.7-.7 5.1-2 1.3-1.3 2.1-3 2.1-4.8v-10.1s0-.2-.2-.2 0 0 0 0z"/><path d="m42.9 17.5c-2-.3-2.9-.9-2.9-2s.9-1.7 2.4-1.7 2.4.7 2.8 1.7h.1l2.9-1.2s.1-.1 0-.2c-.9-2.2-3.1-3.5-6-3.5-4 0-6.1 2.4-6.1 4.8s1.9 4.5 5.9 5.2c2.1.4 3 1 3 2.1s-1.1 1.8-2.9 1.8-2.6-.7-3.2-1.9c0 0 0 0-.1 0l-3 1.3s0 0 0 0c.7 1.5 2.4 3.9 6.5 3.9s6.7-2.6 6.7-5.2-2-4.5-6-5.2 0 0 0 0z"/><path d="m9.7 3.4h-8.8-.2s0 .1 0 .2v23.9c0 .2.1.3.3.3h3.3c.2 0 .3-.1.3-.3v-9.3s0-.2.2-.2h5.1c4.1 0 7.4-3.2 7.4-7.3s-.8-3.8-2.1-5.2c-1.4-1.4-3.2-2.1-5.2-2.1zm2.7 9.7c-.7.8-1.6 1.2-2.6 1.2h-2.3c-1 0-1.9.6-2.1 1.6v.4c-.1 0-.2 0-.2 0h-.5s-.1 0-.1-.1v-8.6c0-.2.2-.4.4-.4h4.6c1.9 0 3.5 1.4 3.7 3.2.1 1-.2 2-.8 2.7z"/></svg>