<svg width="41" height="40" viewBox="0 0 41 40" fill="none" xmlns="http://www.w3.org/2000/svg">
<g id="Group">
<path id="Vector" d="M33.6974 13.8779C36.6668 14.1569 39.2999 11.976 39.5789 9.00672C39.8579 6.03746 37.6771 3.40424 34.7077 3.12526C31.7384 2.84627 29.1052 5.02719 28.8263 7.99644C28.5473 10.9657 30.7281 13.5989 33.6974 13.8779Z" fill="white"/>
<path id="Vector_2" d="M34.892 16.5572C34.8562 16.5538 34.8187 16.5684 34.7828 16.565C34.6002 16.584 34.4193 16.5851 34.2188 16.6024C33.4594 16.6034 32.6563 16.4918 31.8471 16.253C31.6371 16.179 31.4613 16.1264 31.2709 16.0362C30.693 15.8372 30.1593 15.552 29.6682 15.1986C29.4633 15.0708 29.2617 14.9073 29.0763 14.7633C28.2717 14.0911 27.606 13.2873 27.0954 12.3715C26.9885 12.1626 26.8653 11.934 26.778 11.7089C26.5222 11.1606 26.3414 10.5831 26.2536 9.97825C26.2004 9.77438 26.1814 9.5918 26.1478 9.3717C26.064 8.53218 26.1039 7.72236 26.2463 6.97641C26.3007 6.78265 26.3355 6.60512 26.3881 6.42928C26.3915 6.39343 26.4128 6.35928 26.4162 6.32343C26.7356 5.23253 26.0089 4.11566 24.862 4.00789L13.9659 2.98414C13.7151 2.96057 13.4625 2.95492 13.2278 2.95095C13.0111 2.94867 12.8123 2.94806 12.5938 2.9637C12.3771 2.96142 12.1587 2.97705 11.9582 2.99437C7.58028 3.21582 4.56281 5.69844 3.52809 9.9764C3.47373 10.1702 3.41768 10.3819 3.37956 10.5952C3.32351 10.8069 3.28707 11.0024 3.24894 11.2157C3.20913 11.447 3.16763 11.6962 3.14406 11.9471L1.80376 26.2123C1.78018 26.4632 1.77453 26.7158 1.77056 26.9504C1.76828 27.1672 1.76768 27.366 1.78332 27.5844C1.78103 27.8011 1.79667 28.0196 1.81399 28.2201C2.03375 32.6159 4.53597 35.6171 8.79602 36.6501C8.98978 36.7045 9.20147 36.7606 9.41484 36.7987C9.62652 36.8547 9.82197 36.8912 10.0353 36.9293C10.2666 36.9691 10.5158 37.0106 10.7667 37.0342L25.0319 38.3745C25.2828 38.3981 25.5354 38.4037 25.77 38.4077C25.9868 38.41 26.1856 38.4106 26.404 38.3949C26.6207 38.3972 26.8392 38.3816 27.0397 38.3643C31.4176 38.1428 34.435 35.6602 35.4698 31.3822C35.5241 31.1885 35.5802 30.9768 35.6183 30.7634C35.6744 30.5517 35.7108 30.3563 35.7489 30.1429C35.7887 29.9116 35.8302 29.6624 35.8538 29.4115L36.8775 18.5155C36.9853 17.3685 36.0233 16.4465 34.892 16.5572Z" fill="white"/>
</g>
</svg>
