<svg width="50" height="51" viewBox="0 0 50 51" fill="none" xmlns="http://www.w3.org/2000/svg">
<g id="ai-technology 1" clip-path="url(#clip0_13667_2767)">
<g id="Group">
<path id="Vector" fill-rule="evenodd" clip-rule="evenodd" d="M33.5957 41.7792C33.7158 40.6074 33.3663 39.4363 32.6206 38.5224C31.8795 37.6094 30.8009 37.0285 29.6324 36.9087C26.2628 36.5634 21.1849 36.0431 17.8154 35.6978C16.6468 35.5781 15.4728 35.9283 14.562 36.6719C13.6464 37.4156 13.0667 38.4915 12.9466 39.6633L12.6498 42.5598C12.5297 43.7317 12.8792 44.9028 13.625 45.8167C14.3661 46.7296 15.4446 47.3106 16.6132 47.4303L28.4302 48.6412C29.5987 48.7609 30.7727 48.4108 31.6836 47.6671C32.5991 46.9234 33.1789 45.8475 33.2989 44.6757C33.3952 43.7362 33.4995 42.7187 33.5957 41.7792ZM34.987 37.4574C34.6445 37.4223 34.311 37.5754 34.1162 37.8571C33.9214 38.1387 33.8934 38.5043 34.0421 38.8122C34.537 39.8132 34.6679 40.5717 34.5542 41.6811C34.4037 43.15 34.7813 45.1117 36.2024 46.5614C37.1299 47.5067 38.5048 48.2508 40.4993 48.4552C41.0202 48.5086 41.4809 48.1313 41.5341 47.6128L42.119 41.9038C42.219 40.9286 41.93 39.9538 41.306 39.1932C40.6916 38.4332 39.7926 37.9498 38.8165 37.8498C37.0144 37.6651 34.987 37.4574 34.987 37.4574ZM13.1113 36.6674C13.3193 36.3961 13.3661 36.0325 13.2324 35.7172C13.0987 35.4019 12.8033 35.1843 12.4607 35.1492C12.4607 35.1492 10.4334 34.9414 8.63129 34.7568C7.65515 34.6567 6.67686 34.9477 5.921 35.5674C5.16049 36.1861 4.6751 37.0815 4.57518 38.0567L3.99019 43.7657C3.93705 44.2843 4.31168 44.7471 4.83261 44.8005C6.82712 45.0049 8.32433 44.5551 9.42424 43.8175C11.1099 42.6861 11.8774 40.8418 12.0279 39.3728C12.1416 38.2634 12.4236 37.5473 13.1113 36.6674ZM21.4484 4.73184C15.2264 5.42781 10.1378 10.2419 9.2139 16.5744C8.94833 18.3332 8.68729 20.1402 8.44507 21.8098C7.70164 26.8899 10.6619 31.7852 15.4994 33.4939C15.5041 33.4949 15.5041 33.4949 15.504 33.4953C18.2468 34.4502 21.0137 35.0771 23.8201 35.3647C26.6265 35.6522 29.4676 35.6005 32.3436 35.209C37.4222 34.5178 41.3084 30.3316 41.6146 25.2139C41.7255 23.5303 41.8363 21.7074 41.9424 19.9319C42.3224 13.5389 38.3118 7.78764 32.3556 5.84332C32.0619 4.59114 31.0459 3.58364 29.7131 3.35459C29.7084 3.35411 29.7037 3.35317 29.7037 3.35317C28.7662 3.20067 27.7529 3.04609 27.1381 2.9831C26.5187 2.91962 25.495 2.86688 24.5456 2.83029L24.5408 2.8303C23.1892 2.78475 21.9899 3.56573 21.4484 4.73184ZM22.7354 18.1814C22.812 17.4348 22.5897 16.6883 22.1135 16.1056C21.642 15.5237 20.9544 15.1536 20.2082 15.0771C19.8984 15.0454 19.5793 15.0127 19.2696 14.9809C18.5234 14.9045 17.775 15.1275 17.1953 15.6016C16.6108 16.0757 16.2418 16.7615 16.1653 17.5082L15.9729 19.3854C15.8964 20.132 16.1187 20.8785 16.5948 21.4612C17.0664 22.0431 17.754 22.4132 18.5002 22.4897L19.4388 22.5859C20.185 22.6623 20.9334 22.4393 21.5131 21.9652C22.0975 21.4911 22.4666 20.8053 22.5431 20.0586C22.606 19.4448 22.6725 18.7953 22.7354 18.1814ZM34.9372 19.4317C35.0137 18.6851 34.7914 17.9386 34.3153 17.3558C33.8438 16.774 33.1561 16.4038 32.4099 16.3274C32.1002 16.2956 31.7811 16.2629 31.4713 16.2312C30.7252 16.1548 29.9767 16.3778 29.397 16.8519C28.8126 17.326 28.4435 18.0118 28.367 18.7585L28.1747 20.6357C28.0982 21.3823 28.3204 22.1288 28.7966 22.7115C29.2681 23.2933 29.9557 23.6635 30.7019 23.74L31.6405 23.8362C32.3867 23.9126 33.1351 23.6896 33.7148 23.2155C34.2993 22.7414 34.6683 22.0556 34.7448 21.3089C34.8077 20.6951 34.8743 20.0455 34.9372 19.4317ZM24.4756 4.71624C25.3825 4.75131 26.3592 4.80018 26.9458 4.86029C27.5324 4.9204 28.4988 5.06923 29.3944 5.21459C30.1166 5.34028 30.6223 6.00478 30.5474 6.73642L30.3636 8.52963C30.3105 9.0482 29.845 9.4254 29.3288 9.37251L23.6972 8.79545C23.181 8.74255 22.8017 8.27879 22.8548 7.76022C22.9132 7.19049 22.9778 6.56021 23.0426 5.97453C23.0427 5.97313 23.0429 5.97124 23.043 5.96984C23.1178 5.24008 23.743 4.69239 24.4756 4.71624Z" fill="white"/>
</g>
</g>
<defs>
<clipPath id="clip0_13667_2767">
<rect width="45.2885" height="45.2885" fill="white" transform="translate(4.6123 0.674805) rotate(5.85058)"/>
</clipPath>
</defs>
</svg>
