<svg width="95" height="95" viewBox="0 0 95 95" fill="none" xmlns="http://www.w3.org/2000/svg">
<g filter="url(#filter0_f_17_308)">
<rect x="19.877" y="28.8193" width="47.1595" height="47.1595" rx="11.0848" transform="rotate(-10.9301 19.877 28.8193)" fill="url(#paint0_linear_17_308)"/>
<g style="mix-blend-mode:color-dodge" opacity="0.5" filter="url(#filter1_f_17_308)">
<path fill-rule="evenodd" clip-rule="evenodd" d="M21.7758 37.5846C22.4746 33.2165 25.8265 29.5466 30.4217 28.6591L56.273 23.6669C61.0061 22.7528 65.6142 25.0698 67.8193 29.0772C65.9952 24.0369 60.7267 20.9306 55.2974 21.9791L30.7609 26.7174C25.4613 27.7409 21.7779 32.3812 21.7758 37.5846Z" fill="url(#paint1_linear_17_308)"/>
</g>
<path d="M44.4282 34.8863L39.1236 39.8775L46.1195 41.9067L51.5395 36.8863L44.4282 34.8863ZM49.9543 53.3823L51.6456 60.4027L58.8812 53.7483L57.1896 46.7265L49.9543 53.3823ZM53.0827 38.8502L54.7744 45.8719L49.353 50.8927L47.6614 43.8709L53.0827 38.8502ZM39.6891 49.5062L46.8021 51.5072L45.1104 44.4855L37.9975 42.4845L39.6891 49.5062ZM41.9807 59.0179L49.0933 61.0176L47.402 53.9972L40.2893 51.9975L41.9803 59.0166L41.9807 59.0179Z" fill="url(#paint2_linear_17_308)"/>
</g>
<defs>
<filter id="filter0_f_17_308" x="0" y="0.000244141" width="95" height="95" filterUnits="userSpaceOnUse" color-interpolation-filters="sRGB">
<feFlood flood-opacity="0" result="BackgroundImageFix"/>
<feBlend mode="normal" in="SourceGraphic" in2="BackgroundImageFix" result="shape"/>
<feGaussianBlur stdDeviation="1.5" result="effect1_foregroundBlur_17_308"/>
</filter>
<filter id="filter1_f_17_308" x="21.6499" y="21.65" width="46.2954" height="16.0606" filterUnits="userSpaceOnUse" color-interpolation-filters="sRGB">
<feFlood flood-opacity="0" result="BackgroundImageFix"/>
<feBlend mode="normal" in="SourceGraphic" in2="BackgroundImageFix" result="shape"/>
<feGaussianBlur stdDeviation="0.0629819" result="effect1_foregroundBlur_17_308"/>
</filter>
<linearGradient id="paint0_linear_17_308" x1="43.4567" y1="28.8193" x2="28.8594" y2="70.775" gradientUnits="userSpaceOnUse">
<stop stop-color="#212428"/>
<stop offset="0.937272" stop-color="#15171B"/>
</linearGradient>
<linearGradient id="paint1_linear_17_308" x1="25.3846" y1="29.0806" x2="64.4906" y2="23.1042" gradientUnits="userSpaceOnUse">
<stop stop-color="#F3CCEB"/>
<stop offset="0.392952"/>
<stop offset="0.555099"/>
<stop offset="1" stop-color="#F7CDED"/>
</linearGradient>
<linearGradient id="paint2_linear_17_308" x1="50.3645" y1="58.6725" x2="44.5774" y2="32.6305" gradientUnits="userSpaceOnUse">
<stop stop-color="white"/>
<stop offset="1" stop-color="#545372"/>
</linearGradient>
</defs>
</svg>
