<svg width="221" height="53" viewBox="0 0 221 53" fill="none" xmlns="http://www.w3.org/2000/svg">
<g clip-path="url(#clip0_17133_23985)">
<path fill-rule="evenodd" clip-rule="evenodd" d="M16.7168 25.6686L24.8906 11.9585L33.063 25.6714L24.8906 30.6561L16.7168 25.67V25.6686Z" fill="white"/>
<path fill-rule="evenodd" clip-rule="evenodd" d="M16.7168 28.0239L24.8906 33.01L33.063 28.0239L24.8906 39.8666L16.7168 28.0239Z" fill="white"/>
<path fill-rule="evenodd" clip-rule="evenodd" d="M28.6048 6.40656C27.3371 7.03958 26.1 7.74641 24.904 8.52296C23.6992 7.73718 22.4524 7.02731 21.1699 6.39699C22.3669 5.53361 23.6037 4.7351 24.8758 4.00439C26.1244 4.72082 27.3678 5.52197 28.6048 6.40656Z" fill="#5F9A34"/>
<path fill-rule="evenodd" clip-rule="evenodd" d="M46.0574 3.30594C41.5715 -1.48194 33.3951 -0.910452 24.877 3.99364C26.156 4.72917 27.4005 5.5313 28.6059 6.39716C31.9046 4.76884 35.0471 3.8952 37.7068 3.8952C40.0859 3.8952 42.0824 4.59247 43.4667 6.06902C46.4031 9.20535 46.0534 15.2729 43.1631 21.9393C43.9734 23.2269 44.7247 24.5555 45.4142 25.9206C50.0077 16.826 50.5429 8.09658 46.0574 3.30733V3.30594Z" fill="#FFC750"/>
<path fill-rule="evenodd" clip-rule="evenodd" d="M28.607 6.38762C27.3393 7.02061 26.1023 7.72744 24.9062 8.50402C31.5211 12.8731 37.0909 18.8285 41.1731 25.8974C41.9027 24.6136 42.5673 23.2887 43.163 21.9284C41.2293 18.8722 39.0239 16.0225 36.577 13.419C34.1403 10.8037 31.4707 8.44835 28.6058 6.38623L28.607 6.38762Z" fill="#FFC750"/>
<path fill-rule="evenodd" clip-rule="evenodd" d="M45.4139 25.9148C44.7261 27.2751 43.976 28.5983 43.1664 29.8797C42.571 28.5157 41.9058 27.1875 41.1738 25.9012C41.9035 24.6178 42.5677 23.2934 43.1638 21.9336C43.9737 23.2211 44.7244 24.5498 45.4139 25.9148Z" fill="#FF512F"/>
<path fill-rule="evenodd" clip-rule="evenodd" d="M43.1654 29.8921C42.5697 28.528 41.9038 27.1998 41.1719 25.9136C39.1487 29.4466 36.7357 32.7078 33.9852 35.6275C31.2562 38.5659 28.2068 41.1442 24.9023 43.3069C26.0984 44.0862 27.3354 44.7916 28.6044 45.4218C31.4693 43.36 34.1391 41.0044 36.5758 38.3891C39.024 35.7904 41.2308 32.9448 43.1654 29.8921Z" fill="#FF6895"/>
<path fill-rule="evenodd" clip-rule="evenodd" d="M48.0394 32.4798C47.3601 30.2102 46.4811 28.0143 45.4146 25.9214C44.727 27.2815 43.9776 28.6047 43.1684 29.8862C46.0561 36.5499 46.4041 42.6107 43.4681 45.743C40.5317 48.8779 34.851 48.502 28.6072 45.4162C27.4027 46.2842 26.1577 47.0865 24.877 47.8196C29.4127 50.4309 33.8496 51.8147 37.6864 51.8147C41.0541 51.8147 43.9609 50.7481 46.0584 48.5086C49.3405 45.0046 50.0422 39.3131 48.0394 32.4798Z" fill="#FF6895"/>
<path fill-rule="evenodd" clip-rule="evenodd" d="M28.6048 45.4318C27.4004 46.2998 26.1553 47.1022 24.8746 47.8353C23.6035 47.1035 22.3671 46.3048 21.1699 45.4427C22.452 44.8125 23.6984 44.1024 24.9027 43.3169C26.0988 44.0962 27.3358 44.8016 28.6048 45.4318Z" fill="#552990"/>
<path fill-rule="evenodd" clip-rule="evenodd" d="M17.6385 46.8873C12.6047 48.5716 8.57989 48.163 6.31203 45.74C4.04289 43.3174 3.66002 39.0216 5.23636 33.6474C5.61797 32.3608 6.07514 31.1017 6.60656 29.878C5.79969 28.5986 5.05138 27.2782 4.36433 25.9214C3.29899 28.0135 2.42133 30.2085 1.74303 32.477C-0.262308 39.3102 0.441995 45.0006 3.72148 48.5059C5.77805 50.7003 8.6388 51.8147 12.0617 51.8147C14.3286 51.7781 16.5772 51.3747 18.7308 50.6182C20.8578 49.8927 22.9158 48.9544 24.8774 47.8157C23.606 47.0836 22.3692 46.2851 21.1715 45.4231C20.0242 45.9916 18.8448 46.481 17.6372 46.8873H17.6385Z" fill="#5666F6"/>
<path fill-rule="evenodd" clip-rule="evenodd" d="M21.1698 45.4231C22.4518 44.7932 23.6982 44.0838 24.9026 43.2986C21.5876 41.1381 18.5281 38.5599 15.7902 35.6188C13.0356 32.6954 10.6206 29.4284 8.59734 25.8887C7.8617 27.1766 7.19599 28.5086 6.60352 29.8781C8.54128 32.9331 10.7511 35.7811 13.2022 38.3821C15.6371 41.0003 18.3056 43.3586 21.1698 45.4231Z" fill="#5666F6"/>
<path fill-rule="evenodd" clip-rule="evenodd" d="M8.59805 25.8861C7.86251 27.1737 7.1968 28.5052 6.60423 29.8742C5.79786 28.5952 5.04997 27.2752 4.36328 25.919C5.05224 24.5515 5.80443 23.2214 6.61706 21.9336C7.20608 23.2898 7.86813 24.6092 8.59805 25.8848V25.8861Z" fill="#204FA0"/>
<path fill-rule="evenodd" clip-rule="evenodd" d="M6.31456 6.07143C8.5837 3.64879 12.6072 3.24136 17.6423 4.9271C18.8473 5.33452 20.028 5.8226 21.1766 6.39C22.3731 5.52619 23.6095 4.72722 24.8813 3.99605C22.9202 2.85588 20.8621 1.91742 18.7346 1.19331C12.3382 -0.9436 7.00734 -0.194381 3.72399 3.31108C1.62645 5.54918 0.628906 8.65131 0.628906 12.247C0.628906 16.3445 1.92354 21.0845 4.36811 25.9257C5.0571 24.5582 5.80929 23.2281 6.62188 21.9404C3.7304 15.2753 3.37825 9.20776 6.31456 6.07143Z" fill="#5FC5A6"/>
<path fill-rule="evenodd" clip-rule="evenodd" d="M21.1745 6.38623C15.4476 10.5441 10.5095 15.8219 6.62109 21.9407C7.21015 23.297 7.8722 24.6163 8.60212 25.8919C12.6954 18.8221 18.2788 12.8708 24.9073 8.51223C23.7029 7.72648 22.4566 7.01662 21.1745 6.38623Z" fill="#5FC5A6"/>
<path d="M214.65 36.4746V38.64C214.297 38.8622 213.893 38.9777 213.483 38.9737C212.67 38.9942 211.875 38.7214 211.226 38.2C210.576 37.6786 210.111 36.9386 209.904 36.1C208.693 37.518 207.073 38.4629 205.3 38.7831C203.528 39.103 201.707 38.7805 200.127 37.8663C198.545 36.9492 197.294 35.4948 196.574 33.7337C195.853 31.9726 195.703 30.0051 196.148 28.1428C196.589 26.2815 197.601 24.6312 199.022 23.4542C200.443 22.2773 202.192 21.6413 203.99 21.6473C205.044 21.6447 206.089 21.864 207.063 22.2929C208.038 22.7218 208.924 23.3516 209.67 24.1465V21.9809H212.083V34.3089C212.083 35.8496 212.822 36.4746 213.677 36.4746H214.65ZM209.67 30.3098C209.672 28.6994 209.075 27.1541 208.009 26.014C206.944 24.8738 205.498 24.2321 203.99 24.2299C202.482 24.2324 201.036 24.8743 199.971 26.0145C198.906 27.1546 198.309 28.6996 198.311 30.3098C198.309 31.1073 198.455 31.8971 198.74 32.6344C199.025 33.3716 199.443 34.0418 199.97 34.6064C200.498 35.1709 201.124 35.6195 201.814 35.9255C202.503 36.2319 203.243 36.3898 203.99 36.3912C205.498 36.3872 206.943 35.7444 208.008 34.6044C209.073 33.4643 209.671 31.9199 209.67 30.3098ZM217.692 13.5248H220.226V38.9737H217.692V13.5248ZM192.35 30.1977C192.351 33.7374 190.388 36.9297 187.371 38.2957C185.895 38.9625 184.266 39.1426 182.694 38.8124C181.121 38.4823 179.677 37.6569 178.548 36.4429V38.636H176.13V12.9834H178.548V23.9537C179.677 22.7397 181.121 21.9144 182.694 21.5843C184.266 21.2541 185.895 21.4341 187.371 22.1012C190.388 23.4657 192.351 26.6594 192.35 30.1977ZM189.932 30.1977C189.932 26.7961 187.384 24.0385 184.24 24.0385C181.096 24.0385 178.548 26.7961 178.548 30.1977C178.548 33.6005 181.096 36.3582 184.24 36.3582C184.99 36.3598 185.733 36.2015 186.425 35.8925C187.117 35.5835 187.744 35.1301 188.27 34.5589C189.341 33.3964 189.939 31.8287 189.932 30.1977ZM155.351 30.3112C155.351 25.526 158.981 21.6473 163.459 21.6473C164.524 21.6476 165.58 21.872 166.563 22.3076C167.548 22.7432 168.442 23.3815 169.195 24.186C169.948 24.9905 170.545 25.9455 170.953 26.9965C171.36 28.0474 171.569 29.1738 171.569 30.3112C171.569 32.0237 171.093 33.6978 170.203 35.1221C169.311 36.5462 168.045 37.6562 166.563 38.3122C165.081 38.9678 163.451 39.1399 161.877 38.8065C160.304 38.4731 158.859 37.6493 157.724 36.439C156.97 35.6343 156.373 34.6786 155.966 33.6272C155.559 32.5758 155.35 31.4489 155.351 30.3112ZM169.151 30.3112C169.152 29.5128 169.005 28.7222 168.719 27.9845C168.433 27.2468 168.014 26.5764 167.485 26.0117C166.957 25.447 166.329 24.999 165.638 24.6933C164.948 24.3875 164.207 24.2301 163.459 24.2299C162.712 24.2301 161.971 24.3875 161.28 24.6933C160.59 24.999 159.962 25.447 159.433 26.0117C158.905 26.5764 158.486 27.2468 158.2 27.9845C157.914 28.7222 157.767 29.5128 157.767 30.3112C157.767 31.1095 157.914 31.9001 158.2 32.6378C158.486 33.3756 158.905 34.0457 159.433 34.6106C159.962 35.1752 160.59 35.6234 161.28 35.9291C161.971 36.2348 162.712 36.3921 163.459 36.3925C164.969 36.3902 166.416 35.7487 167.483 34.6087C168.55 33.4686 169.15 31.923 169.151 30.3112ZM143.186 25.1364V25.891C143.227 32.4235 138.815 37.9741 132.881 38.8547C126.947 39.7352 121.337 35.6719 119.777 29.3637C118.219 23.0555 121.195 16.4643 126.729 13.9692C132.264 11.4754 138.636 13.853 141.612 19.5213L139.499 20.8201C137.25 16.4862 132.471 14.5447 128.172 16.2182C123.872 17.8903 121.298 22.6946 122.072 27.6028C122.844 32.511 126.741 36.1026 131.305 36.1135C135.87 36.1257 139.781 32.5547 140.574 27.6506H131.32V25.1364H143.186ZM148.254 13.5248H150.788V38.9737H148.254V13.5248ZM115.311 13.5248V38.9737H110.203V28.7102H100.69V38.975H95.5427V13.5235H100.69V23.7459H110.203V13.5235H115.311V13.5248ZM93.5156 18.4877H87.6968V38.9737H82.649V18.4877H76.7904V13.5248H93.5156V18.4877ZM66.268 18.4454V23.7897H73.9731V28.7102H66.268V34.0546H75.2702V38.9737H61.0781V13.5248H75.2702V18.4454H66.268Z" fill="white"/>
</g>
<defs>
<clipPath id="clip0_17133_23985">
<rect width="219.752" height="52.1062" fill="white" transform="translate(0.623047)"/>
</clipPath>
</defs>
</svg>
