<svg width="52" height="52" viewBox="0 0 52 52" fill="none" xmlns="http://www.w3.org/2000/svg">
<path d="M13.292 46.7832H38.6986" stroke="black" stroke-width="3" stroke-miterlimit="10" stroke-linecap="round"/>
<path d="M36.0468 31.5396H15.832V46.7835H36.0468V31.5396Z" stroke="black" stroke-width="3" stroke-miterlimit="10" stroke-linecap="round" stroke-linejoin="round"/>
<path d="M16.2743 25.0229L15.0592 25.1334C13.1813 25.3543 11.7453 26.6799 11.3035 28.5578L9.20466 37.7262C8.7628 39.7146 9.75697 41.8134 11.6349 42.6971L15.9429 44.6854" stroke="black" stroke-width="3" stroke-miterlimit="10" stroke-linecap="round" stroke-linejoin="round"/>
<path d="M36.1579 44.685L40.466 42.6967C42.3438 41.813 43.338 39.7142 42.8962 37.7259L40.7974 28.5574C40.3555 26.79 38.9195 25.354 37.0416 25.133L35.4951 24.9121" stroke="black" stroke-width="3" stroke-miterlimit="10" stroke-linecap="round" stroke-linejoin="round"/>
<path d="M16.4951 18.284C16.4951 18.284 25.2217 13.0922 35.6053 18.284" stroke="black" stroke-width="3" stroke-miterlimit="10" stroke-linecap="round" stroke-linejoin="round"/>
<path d="M34.0586 26.9C35.4946 24.1384 35.7155 22.4815 35.9364 21.2664C37.3725 14.4176 31.7388 9.77819 28.4249 7.67938C26.9889 6.79567 25.111 6.79567 23.5645 7.67938C20.1402 9.77819 14.5065 14.5281 16.053 21.2664C16.274 22.371 16.4949 24.1384 17.9309 26.9" stroke="black" stroke-width="3" stroke-miterlimit="10" stroke-linecap="round" stroke-linejoin="round"/>
<path d="M31.4079 17.6209C31.4079 21.2662 30.4138 26.2371 25.8848 26.2371C21.3558 26.2371 20.1407 21.7081 20.3616 17.2896" stroke="black" stroke-width="3" stroke-miterlimit="10" stroke-linecap="round" stroke-linejoin="round"/>
</svg>
