<svg width="53" height="52" viewBox="0 0 53 52" fill="none" xmlns="http://www.w3.org/2000/svg">
<path d="M31.7872 32.1139L27.7917 43.1017C27.6938 43.3653 27.5176 43.5927 27.2867 43.7533C27.0558 43.9139 26.7813 44 26.5 44C26.2187 44 25.9442 43.9139 25.7133 43.7533C25.4824 43.5927 25.3062 43.3653 25.2083 43.1017L21.2128 32.1139C21.143 31.9245 21.0329 31.7525 20.8902 31.6098C20.7475 31.4671 20.5755 31.357 20.3861 31.2872L9.39833 27.2917C9.13466 27.1938 8.90725 27.0176 8.74666 26.7867C8.58608 26.5558 8.5 26.2813 8.5 26C8.5 25.7187 8.58608 25.4442 8.74666 25.2133C8.90725 24.9824 9.13466 24.8062 9.39833 24.7083L20.3861 20.7128C20.5755 20.643 20.7475 20.5329 20.8902 20.3902C21.0329 20.2475 21.143 20.0755 21.2128 19.8861L25.2083 8.89833C25.3062 8.63466 25.4824 8.40725 25.7133 8.24666C25.9442 8.08608 26.2187 8 26.5 8C26.7813 8 27.0558 8.08608 27.2867 8.24666C27.5176 8.40725 27.6938 8.63466 27.7917 8.89833L31.7872 19.8861C31.857 20.0755 31.9671 20.2475 32.1098 20.3902C32.2525 20.5329 32.4245 20.643 32.6139 20.7128L43.6017 24.7083C43.8653 24.8062 44.0927 24.9824 44.2533 25.2133C44.4139 25.4442 44.5 25.7187 44.5 26C44.5 26.2813 44.4139 26.5558 44.2533 26.7867C44.0927 27.0176 43.8653 27.1938 43.6017 27.2917L32.6139 31.2872C32.4245 31.357 32.2525 31.4671 32.1098 31.6098C31.9671 31.7525 31.857 31.9245 31.7872 32.1139Z" stroke="black" stroke-width="3" stroke-linecap="round" stroke-linejoin="round"/>
</svg>
