<?xml version="1.0" encoding="utf-8"?>
<!-- Generator: Adobe Illustrator 26.0.1, SVG Export Plug-In . SVG Version: 6.00 Build 0)  -->
<svg version="1.1" id="Layer_1" xmlns="http://www.w3.org/2000/svg" xmlns:xlink="http://www.w3.org/1999/xlink" x="0px" y="0px"
	 viewBox="0 0 96 96" style="enable-background:new 0 0 96 96;" xml:space="preserve">
<style type="text/css">
	.st0{fill:#FFFFFF;}
	.st1{fill-rule:evenodd;clip-rule:evenodd;fill:#FFFFFF;}
	.st2{fill-rule:evenodd;clip-rule:evenodd;fill:#FFFFFE;}
</style>
<path d="M32,0h32c17.7,0,32,14.3,32,32v32c0,17.7-14.3,32-32,32H32C14.3,96,0,81.7,0,64V32C0,14.3,14.3,0,32,0z"/>
<rect x="41.2" y="57.6" class="st0" width="14.7" height="4.5"/>
<path class="st1" d="M19.7,33.9v23.8h8.4c6.6,0,12-5.3,12-11.9s-5.4-11.9-12-11.9H19.7z M24.8,39v13.6h3.3c3.8,0,6.8-3,6.8-6.8
	S31.9,39,28.1,39H24.8z"/>
<path class="st2" d="M59.3,33.9v23.8h8.4c6.6,0,12-5.3,12-11.9s-5.4-11.9-12-11.9H59.3z M64.4,39v13.6h3.3c3.8,0,6.8-3,6.8-6.8
	S71.5,39,67.7,39H64.4z"/>
</svg>
