<svg width="286" height="286" viewBox="0 0 286 286" fill="none" xmlns="http://www.w3.org/2000/svg">
<rect x="101.795" y="74.5015" width="113.709" height="113.709" rx="40.0189" transform="rotate(13.8876 101.795 74.5015)" fill="url(#paint0_linear_17_319)"/>
<g style="mix-blend-mode:color-dodge" opacity="0.5" filter="url(#filter0_f_17_319)">
<path fill-rule="evenodd" clip-rule="evenodd" d="M95.5448 104.451C104.394 90.9596 121.091 83.8478 137.643 87.9403L174.051 96.9419C191.115 101.161 202.766 115.987 203.719 132.664C204.496 114.048 192.12 96.834 173.331 92.1885L140.644 84.1068C122.347 79.5829 103.876 88.4389 95.5448 104.451Z" fill="url(#paint1_linear_17_319)"/>
</g>
<path d="M149.481 131.894C148.559 130.609 146.589 128.681 142.618 127.808C138.647 126.935 138.851 129.089 138.851 129.089C138.851 129.089 138.408 130.705 140.98 131.33C143.552 131.955 146.313 132.688 148.384 134.017C150.456 135.347 150.418 133.182 149.481 131.894Z" fill="#FB8F8F"/>
<path d="M139.281 133.515C139.017 133.602 138.867 133.977 139.134 134.102C140.642 134.734 143.001 135.802 145.868 135.986C146.143 135.999 146.173 135.646 146.028 135.417C145.245 134.245 142.908 132.35 139.281 133.515Z" fill="#FB8F8F"/>
<path d="M165.996 167.076C165.975 167.023 165.924 166.962 165.88 166.936C165.825 166.891 165.763 166.877 165.697 166.879C165.632 166.88 165.566 166.882 165.509 166.918C165.452 166.954 165.41 166.994 165.365 167.049C162.698 171.37 161.646 169.942 161.25 168.791C161.112 168.385 161.043 167.961 161.037 167.551C160.838 161.216 163.491 156.01 163.491 156.01C163.76 158.749 165.783 160.003 166.854 160.472C166.913 160.501 166.979 160.499 167.044 160.498C167.11 160.496 167.167 160.46 167.224 160.424C167.266 160.384 167.311 160.329 167.325 160.267C167.339 160.204 167.337 160.139 167.32 160.069C164.86 150.843 168.199 147.898 168.199 147.898C168.765 148.874 169.961 149.224 170.749 149.351C170.812 149.365 170.881 149.348 170.95 149.331C171.004 149.31 171.064 149.258 171.106 149.219C171.151 149.163 171.165 149.101 171.163 149.035C171.162 148.97 171.145 148.9 171.124 148.847C168.753 144.77 168.777 143.567 169.931 137.829C170.58 134.641 169.817 132.722 168.95 131.629C167.96 130.362 167.277 128.885 167.076 127.304C165.455 114.769 157.912 111.462 150.501 110.26C141.293 108.77 134.932 114.486 131.885 117.366C128.657 120.401 125.571 125.281 125.333 126.927C125.095 128.573 126.691 128.669 126.273 130.536C125.851 132.419 122.547 133.313 122.533 138.848C122.527 141.282 124.222 143.491 122.1 148.587C118.284 157.749 123.157 171.012 124.637 173.157C124.81 173.408 125.249 173.343 125.272 173.022C125.454 170.824 126.551 167.965 126.551 167.965C128.529 176.643 139.324 177.541 142.757 177.607C142.823 177.605 142.908 177.592 142.965 177.555C143.022 177.519 143.067 177.464 143.1 177.39C143.129 177.331 143.131 177.25 143.114 177.18C143.097 177.111 143.061 177.054 143.005 177.009C140.078 174.54 140.112 170.887 140.112 170.887C143.069 173.151 145.225 173.372 146.325 173.275C146.391 173.274 146.448 173.238 146.505 173.201C146.562 173.165 146.591 173.106 146.621 173.048C146.65 172.989 146.649 172.923 146.632 172.854C146.614 172.785 146.578 172.728 146.539 172.686C145.679 171.856 144.734 168.998 144.133 166.282C143.893 165.166 143.976 163.992 144.379 162.922C144.782 161.852 145.482 160.914 146.405 160.222C148.091 158.966 150.341 157.166 152.851 155.294C153.379 154.905 153.85 155.501 153.95 156.079C155.26 163.872 157.848 170.121 160.13 172.184C161.771 173.761 163.795 174.426 164.889 173.919C167.909 172.472 166.637 168.592 165.996 167.076ZM135.9 153.36C132.731 152.847 134.338 149.024 132.015 148.602C129.532 148.16 129.584 151.358 127.893 151.175C126.202 150.993 127.427 146.398 128.715 146.115C130.724 145.682 132.916 145.961 134.617 146.391C136.626 146.906 138.588 147.264 139.062 149.379C139.631 151.876 139.069 153.874 135.9 153.36ZM162.059 129.351C157.365 130.832 156.848 131.974 155.302 136.105C154.968 137.011 154.584 138.068 154.881 138.788C155.547 140.408 157.2 141.857 156.157 144.107C153.67 149.448 148.964 155.289 144.159 156.386C143.575 156.517 143.095 155.887 143.096 155.299C143.112 152.966 142.866 148.663 142.851 147.27C143.004 139.364 135.654 137.604 135.127 139.005C134.968 139.427 136.398 140.336 137.309 140.866C138.145 141.364 137.894 142.631 136.925 142.725C136.674 142.75 136.418 142.726 136.169 142.67C134.377 142.138 132.027 141.759 130.968 141.603C130.618 141.558 130.285 141.368 130.066 141.107C129.834 140.826 129.714 140.489 129.744 140.136C129.858 137.727 130.759 137.063 132.121 135.064C132.801 134.073 133.856 131.989 134.297 130.895C134.526 130.309 134.658 129.571 134.703 129.009C134.768 128.354 134.883 127.693 135.045 127.043C135.577 124.957 136.178 123.294 137.812 123.66C140.753 124.318 146.973 125.727 148.27 124.531C149.628 123.283 143.55 123.425 137.4 121.852C137.275 121.824 137.177 121.753 137.101 121.654C137.025 121.556 137.003 121.436 137.015 121.308C137.022 121.277 137.033 121.231 137.024 121.196C137.033 121.084 137.073 120.978 137.125 120.892C137.177 120.805 137.26 120.726 137.34 120.662C137.435 120.602 137.527 120.557 137.646 120.535C137.75 120.509 137.862 120.518 137.971 120.542C141.295 121.237 143.865 121.584 144.731 120.781C145.616 119.966 142.173 119.653 138.385 118.838C137.903 118.73 137.499 118.639 137.638 118.164L137.648 118.117C137.705 117.934 137.825 117.764 137.993 117.671C138.164 117.563 138.353 117.523 138.555 117.568C140.811 117.927 141.799 117.968 142.049 117.289C142.299 116.61 141.955 116.614 139.465 116.204C138.929 116.116 139.16 115.743 139.569 115.377C140.578 114.443 144.75 112.012 152.306 113.949C165.254 117.273 162.825 126.222 162.738 128.506C162.728 128.7 162.655 128.88 162.539 129.033C162.407 129.184 162.235 129.292 162.059 129.351Z" fill="#FB8F8F"/>
<defs>
<filter id="filter0_f_17_319" x="95.0902" y="82.4729" width="109.119" height="50.6455" filterUnits="userSpaceOnUse" color-interpolation-filters="sRGB">
<feFlood flood-opacity="0" result="BackgroundImageFix"/>
<feBlend mode="normal" in="SourceGraphic" in2="BackgroundImageFix" result="shape"/>
<feGaussianBlur stdDeviation="0.22738" result="effect1_foregroundBlur_17_319"/>
</filter>
<linearGradient id="paint0_linear_17_319" x1="158.65" y1="74.5015" x2="123.453" y2="175.663" gradientUnits="userSpaceOnUse">
<stop stop-color="#212428"/>
<stop offset="0.937272" stop-color="#15171B"/>
</linearGradient>
<linearGradient id="paint1_linear_17_319" x1="111.004" y1="85.9152" x2="203.77" y2="109.922" gradientUnits="userSpaceOnUse">
<stop stop-color="#F3CCEB"/>
<stop offset="0.392952"/>
<stop offset="0.555099"/>
<stop offset="1" stop-color="#F7CDED"/>
</linearGradient>
</defs>
</svg>
