<?xml version="1.0" encoding="utf-8"?>
<!-- Generator: Adobe Illustrator 26.0.1, SVG Export Plug-In . SVG Version: 6.00 Build 0)  -->
<svg version="1.1" id="Layer_1" xmlns="http://www.w3.org/2000/svg" xmlns:xlink="http://www.w3.org/1999/xlink" x="0px" y="0px"
	 viewBox="0 0 49 48" style="enable-background:new 0 0 49 48;" xml:space="preserve">
<style type="text/css">
	.st0{fill:none;stroke:#000000;stroke-width:0.75;stroke-linecap:round;}
</style>
<path class="st0" d="M18.5,34.5h12.1"/>
<path class="st0" d="M39.3,33.9c-0.1,0.2-0.3,0.3-0.5,0.4l0,0c-0.2,0.1-0.4,0.2-0.7,0.2h0h-7.7c0,0-1.2,5.5-6,5.5
	c-4.9-0.1-6-5.5-6-5.5h-7.7v0l0,0c-0.2,0-0.5-0.1-0.7-0.2l0,0c-0.2-0.1-0.3-0.3-0.5-0.4l0,0l0,0c-0.1-0.2-0.2-0.3-0.1-0.5
	c0-0.2,0.1-0.4,0.2-0.5l0,0l0,0l0,0c1.2-1.9,2.5-5.4,2.5-11.3v-1.3v0c0-1.5,0.3-3,0.9-4.4c0.6-1.4,1.5-2.7,2.7-3.8
	c1.1-1.1,2.5-1.9,4-2.5c0,0,0,0,0,0l0.6-0.3l0.2-0.7c0.5-1.5,2-2.6,3.8-2.6c1.8,0,3.3,1.1,3.8,2.6c0,0,0.2,0.7,0.2,0.7l0.6,0.3
	c4.5,1.8,7.6,6,7.6,10.9v1.2c0,5.8,1.3,9.3,2.5,11.3l0,0c0.1,0.2,0.2,0.3,0.2,0.5C39.5,33.5,39.5,33.7,39.3,33.9L39.3,33.9
	L39.3,33.9L39.3,33.9z"/>
</svg>
