<svg width="48" height="48" viewBox="0 0 48 48" fill="none" xmlns="http://www.w3.org/2000/svg">
<path d="M18.735 8.09925L19.2771 9.49787L19.9231 9.24747L20.1513 8.59324L18.735 8.09925ZM29.2722 8.11953L27.8537 8.60745L28.0782 9.26009L28.7199 9.51418L29.2722 8.11953ZM40.1094 32.0111L38.8297 32.7936L38.8363 32.8044L38.8431 32.8151L40.1094 32.0111ZM40.4999 33.3279L41.9999 33.318L41.9999 33.318L40.4999 33.3279ZM40.1267 34.6491L38.8502 33.8613L38.8435 33.8725L40.1267 34.6491ZM39.1104 35.6128L39.8276 36.9302L39.8276 36.9302L39.1104 35.6128ZM37.719 35.96L37.728 34.46H37.719V35.96ZM10.281 35.96L10.281 34.4599L10.272 34.46L10.281 35.96ZM8.88962 35.6128L8.17239 36.9302L8.1724 36.9302L8.88962 35.6128ZM7.87326 34.6491L9.15659 33.8724L9.14976 33.8614L7.87326 34.6491ZM7.50005 33.3279L6.00009 33.318L6.00009 33.318L7.50005 33.3279ZM7.89059 32.0111L9.15693 32.8151L9.1637 32.8044L9.17029 32.7936L7.89059 32.0111ZM10.1424 20.23L11.6424 20.23L11.6424 20.228L10.1424 20.23ZM18.6942 8.11511L19.2406 9.51206L19.2406 9.51206L18.6942 8.11511ZM20.1513 8.59324C20.6623 7.12831 22.159 6 24.0001 6V3C20.9326 3 18.266 4.88923 17.3187 7.60526L20.1513 8.59324ZM24.0001 6C25.8472 6 27.3475 7.13564 27.8537 8.60745L30.6906 7.63162C29.7515 4.90143 27.0772 3 24.0001 3V6ZM39.3576 20.3775C39.3576 14.1973 35.3756 8.92298 29.8244 6.72489L28.7199 9.51418C33.2315 11.3006 36.3576 15.5365 36.3576 20.3775H39.3576ZM39.3576 21.5408V20.3775H36.3576V21.5408H39.3576ZM41.3891 31.2286C40.5367 29.8346 39.3576 26.9383 39.3576 21.5408H36.3576C36.3576 27.3837 37.6381 30.8449 38.8297 32.7936L41.3891 31.2286ZM41.9999 33.318C41.995 32.568 41.7767 31.8387 41.3758 31.2071L38.8431 32.8151C38.9473 32.9793 38.9988 33.1596 39 33.3377L41.9999 33.318ZM41.4032 35.4369C41.7961 34.8002 42.0048 34.0681 41.9999 33.318L39 33.3377C39.0011 33.5159 38.952 33.6964 38.8502 33.8614L41.4032 35.4369ZM39.8276 36.9302C40.477 36.5766 41.026 36.0604 41.41 35.4258L38.8435 33.8725C38.7425 34.0394 38.5899 34.1882 38.3931 34.2953L39.8276 36.9302ZM37.7099 37.4599C38.4482 37.4644 39.1787 37.2835 39.8276 36.9302L38.3932 34.2953C38.1959 34.4027 37.9661 34.4614 37.728 34.46L37.7099 37.4599ZM10.281 37.46H37.719V34.46H10.281V37.46ZM8.1724 36.9302C8.82132 37.2835 9.55184 37.4644 10.2901 37.4599L10.272 34.46C10.0339 34.4614 9.80407 34.4027 9.60685 34.2953L8.1724 36.9302ZM6.58999 35.4258C6.97404 36.0604 7.52303 36.5766 8.17239 36.9302L9.60685 34.2953C9.41006 34.1882 9.25754 34.0394 9.15654 33.8725L6.58999 35.4258ZM6.00009 33.318C5.99516 34.0681 6.20386 34.8002 6.59677 35.4369L9.14976 33.8614C9.04796 33.6964 8.99885 33.5159 9.00002 33.3377L6.00009 33.318ZM6.62424 31.2071C6.22329 31.8387 6.00501 32.568 6.00009 33.318L9.00002 33.3377C9.00119 33.1596 9.05268 32.9793 9.15693 32.8151L6.62424 31.2071ZM8.64244 21.5408C8.64244 26.9383 7.46326 29.8346 6.61088 31.2286L9.17029 32.7936C10.3619 30.8449 11.6424 27.3837 11.6424 21.5408H8.64244ZM8.64244 20.23V21.5408H11.6424V20.23H8.64244ZM9.81821 14.6103C9.04026 16.3901 8.63988 18.3007 8.64244 20.232L11.6424 20.228C11.6404 18.7153 11.9538 17.2148 12.5671 15.8119L9.81821 14.6103ZM13.1653 9.86651C11.735 11.2196 10.5961 12.8308 9.81821 14.6103L12.5671 15.8119C13.1804 14.4087 14.0828 13.1282 15.2269 12.0459L13.1653 9.86651ZM18.1479 6.71816C16.2894 7.44505 14.5956 8.51362 13.1653 9.86651L15.2269 12.0459C16.3712 10.9635 17.7345 10.1012 19.2406 9.51206L18.1479 6.71816ZM18.1929 6.70063C18.1779 6.70644 18.1629 6.71228 18.1479 6.71816L19.2406 9.51206C19.2527 9.50732 19.2649 9.50259 19.2771 9.49787L18.1929 6.70063Z" fill="#D53A94"/>
<path d="M30 36C30 39.3137 27.3137 42 24 42C20.6863 42 18 39.3137 18 36" stroke="#D53A94" stroke-width="3" stroke-linecap="round"/>
</svg>
