<svg width="212" height="45" viewBox="0 0 212 45" fill="none" xmlns="http://www.w3.org/2000/svg">
<g clip-path="url(#clip0_17133_24005)">
<path d="M53.668 8.68628H65.1876C67.9796 8.61067 70.7508 9.18637 73.282 10.3678C75.4726 11.4241 77.2875 13.1262 78.4829 15.2453C79.7348 17.5684 80.3575 20.1789 80.2892 22.8174C80.3608 25.4695 79.7443 28.0948 78.4999 30.4373C77.3145 32.5581 75.5042 34.2613 73.3161 35.3148C70.7743 36.4971 67.9929 37.0727 65.191 36.9964H53.668V8.68628ZM64.4617 30.8568C65.5731 30.943 66.6906 30.8064 67.7487 30.455C68.8068 30.1036 69.7842 29.5444 70.6236 28.8103C71.3601 27.9721 71.9207 26.9942 72.272 25.9348C72.6233 24.8754 72.7581 23.7561 72.6685 22.6435C72.7627 21.5306 72.63 20.4101 72.2785 19.3501C71.927 18.29 71.364 17.3124 70.6236 16.4767C69.7786 15.7543 68.7991 15.2064 67.7415 14.8646C66.684 14.5227 65.5693 14.3936 64.4617 14.4847H60.8251V30.8568H64.4617Z" fill="white"/>
<path d="M102.065 28.469H89.7954C89.9261 29.5416 90.4539 30.5262 91.2745 31.2283C92.185 31.8452 93.2756 32.1394 94.3725 32.064C96.3587 32.0379 98.2905 31.4113 99.9142 30.2665L101.724 34.9155C100.643 35.6837 99.4384 36.2605 98.1624 36.6209C96.8172 37.028 95.42 37.2371 94.0147 37.2417C91.9886 37.2934 89.9786 36.8693 88.1458 36.0035C86.5472 35.2249 85.2195 33.983 84.3355 32.4392C83.4065 30.7781 82.9381 28.8986 82.979 26.9955C82.9459 25.1513 83.3772 23.3284 84.2332 21.695C85.0365 20.1722 86.2565 18.9098 87.7505 18.0556C89.3079 17.1731 91.0732 16.7244 92.8627 16.7561C94.1027 16.7077 95.3386 16.9263 96.4869 17.3971C97.6352 17.8678 98.6691 18.5797 99.5189 19.4848C101.222 21.5213 102.127 24.1084 102.065 26.7635V28.469ZM89.7954 25.0581H95.9983C95.8437 22.7137 94.8111 21.5415 92.9002 21.5415C90.9894 21.5415 89.9544 22.7137 89.7954 25.0581Z" fill="white"/>
<path d="M118.281 17.2134H125.285L116.454 36.9963H110.544L101.854 17.2134H109.351L113.704 28.3635L118.281 17.2134Z" fill="white"/>
<path d="M137.85 17.5544H142.28V22.6707H137.509V36.9962H130.352V22.6707H126.943V17.5544H130.594C130.581 16.402 130.818 15.2606 131.288 14.2088C131.759 13.1571 132.452 12.2201 133.32 11.4626C135.546 9.90991 138.203 9.09513 140.917 9.13298L143.378 8.97949L143.787 14.0514L141.892 14.1265C140.806 14.0923 139.729 14.3266 138.756 14.8086C138.441 15.0457 138.192 15.3602 138.033 15.7216C137.874 16.083 137.811 16.4793 137.85 16.8722V17.5544Z" fill="white"/>
<path d="M148.561 35.9728C146.973 35.1795 145.653 33.9349 144.768 32.3948C143.848 30.7324 143.388 28.8543 143.435 26.9545C143.386 25.0599 143.846 23.1868 144.768 21.5312C145.652 20.0078 146.966 18.7788 148.544 17.9976C150.338 17.1806 152.287 16.7578 154.258 16.7578C156.229 16.7578 158.177 17.1806 159.972 17.9976C161.551 18.7782 162.866 20.0073 163.751 21.5312C164.673 23.1868 165.133 25.0599 165.084 26.9545C165.132 28.8543 164.671 30.7324 163.751 32.3948C162.847 33.9431 161.505 35.1883 159.893 35.9728C158.108 36.8008 156.164 37.2298 154.197 37.2298C152.229 37.2298 150.285 36.8008 148.5 35.9728H148.561ZM158.053 27.0159C158.053 23.7096 156.788 22.0565 154.26 22.0565C151.731 22.0565 150.464 23.7096 150.459 27.0159C150.459 30.3222 151.724 31.9753 154.253 31.9753C156.782 31.9753 158.047 30.3222 158.049 27.0159H158.053Z" fill="white"/>
<path d="M168.184 36.9961V8.68604H175.341V36.9961H168.184Z" fill="white"/>
<path d="M179.43 7.32178H186.928V13.8024H179.43V7.32178ZM179.43 36.9484V17.2133H186.587V36.9962L179.43 36.9484Z" fill="white"/>
<path d="M194.977 35.9728C193.389 35.1795 192.069 33.9349 191.184 32.3948C190.264 30.7324 189.804 28.8543 189.851 26.9545C189.802 25.0599 190.262 23.1868 191.184 21.5312C192.069 20.0078 193.382 18.7788 194.96 17.9976C196.754 17.1806 198.703 16.7578 200.674 16.7578C202.645 16.7578 204.593 17.1806 206.388 17.9976C207.966 18.7788 209.279 20.0078 210.164 21.5312C211.086 23.1868 211.546 25.0599 211.497 26.9545C211.544 28.8543 211.084 30.7324 210.164 32.3948C209.273 33.9361 207.947 35.1806 206.354 35.9728C204.568 36.8008 202.624 37.2298 200.657 37.2298C198.689 37.2298 196.745 36.8008 194.96 35.9728H194.977ZM204.469 27.1046C204.469 23.7983 203.204 22.1452 200.676 22.1452C198.147 22.1452 196.882 23.7983 196.882 27.1046C196.882 30.4108 198.147 32.064 200.676 32.064C203.204 32.064 204.463 30.4108 204.452 27.1046H204.469Z" fill="white"/>
<path d="M40.7169 24.6147C40.8055 34.6869 33.3177 43.33 23.3522 44.4658C23.1418 44.4893 22.9301 44.5006 22.7183 44.4999C20.7348 44.4999 10.0126 44.4999 6.05235 44.3396C5.28115 44.2473 4.54815 43.9522 3.92794 43.4842C3.30773 43.0163 2.82245 42.3923 2.52148 41.6758C3.11419 41.9374 3.74919 42.0899 4.39598 42.126C5.75925 42.2488 8.16542 42.126 11.4475 42.126C14.9409 42.126 18.7171 42.1567 20.5269 42.1737C21.4927 42.1874 22.4578 42.1132 23.4102 41.952C27.9885 41.1537 32.1644 38.8346 35.2638 35.3691C38.2742 32.0424 40.1794 27.8631 40.7169 23.4072V24.6147Z" fill="#3770FF"/>
<path d="M39.1285 20.2829C39.152 25.2117 37.3362 29.9718 34.0367 33.631C30.7372 37.2902 26.1916 39.585 21.2901 40.0659H4.59006C3.44608 39.9007 2.4009 39.3256 1.64869 38.4473C0.89649 37.569 0.488405 36.4474 0.500251 35.2907V5.27519C0.500251 2.8876 2.20434 0.5 4.59006 0.5H21.6309C26.5013 0.985154 31.0092 3.29227 34.2532 6.96004C37.4973 10.6278 39.2384 15.3859 39.1285 20.2829Z" fill="#3770FF"/>
</g>
<defs>
<clipPath id="clip0_17133_24005">
<rect width="211" height="44" fill="white" transform="translate(0.5 0.5)"/>
</clipPath>
</defs>
</svg>
