<svg width="97" height="29" viewBox="0 0 97 29" fill="none" xmlns="http://www.w3.org/2000/svg">
<g clip-path="url(#clip0_962_11182)">
<path d="M93.4074 0.44873H3.59259C1.60846 0.44873 0 2.01573 0 3.94873V24.9487C0 26.8817 1.60846 28.4487 3.59259 28.4487H93.4074C95.3915 28.4487 97 26.8817 97 24.9487V3.94873C97 2.01573 95.3915 0.44873 93.4074 0.44873Z" fill="#23232B"/>
<path d="M33.0377 9.37376C32.8006 9.45776 32.3407 9.59076 31.7946 9.59076C31.1839 9.59076 30.6738 9.43676 30.2786 9.06576C29.9265 8.73676 29.7109 8.21176 29.7109 7.59576C29.7109 6.41976 30.5444 5.55176 31.9096 5.55176C32.3766 5.55176 32.7431 5.64976 32.9227 5.73376L32.7934 6.14676C32.5778 6.05576 32.3048 5.97876 31.8952 5.97876C30.9109 5.97876 30.2642 6.57376 30.2642 7.56776C30.2642 8.56176 30.8821 9.16376 31.8306 9.16376C32.1755 9.16376 32.4054 9.11476 32.5275 9.05876V7.88276H31.7012V7.46976H33.0377V9.36676V9.37376Z" fill="white" stroke="white" stroke-width="0.2" stroke-miterlimit="10"/>
<path d="M36.0551 7.69375H34.4744V9.12175H36.2347V9.54875H33.957V5.59375H36.1485V6.02075H34.4816V7.26675H36.0623V7.68675L36.0551 7.69375Z" fill="white" stroke="white" stroke-width="0.2" stroke-miterlimit="10"/>
<path d="M37.9097 6.02775H36.6738V5.59375H39.6772V6.02775H38.4342V9.54875H37.9025V6.02775H37.9097Z" fill="white" stroke="white" stroke-width="0.2" stroke-miterlimit="10"/>
<path d="M42.17 5.59375V9.54875H41.6455V5.59375H42.17Z" fill="white" stroke="white" stroke-width="0.2" stroke-miterlimit="10"/>
<path d="M43.9732 6.02775H42.7373V5.59375H45.7407V6.02775H44.4977V9.54875H43.966V6.02775H43.9732Z" fill="white" stroke="white" stroke-width="0.2" stroke-miterlimit="10"/>
<path d="M51.1802 7.53276C51.1802 8.89076 50.3324 9.61176 49.2977 9.61176C48.263 9.61176 47.4727 8.79976 47.4727 7.60976C47.4727 6.35676 48.2702 5.53076 49.3552 5.53076C50.4401 5.53076 51.1802 6.35676 51.1802 7.53276ZM48.0331 7.59576C48.0331 8.44276 48.5001 9.19876 49.3264 9.19876C50.1527 9.19876 50.627 8.45676 50.627 7.55376C50.627 6.76976 50.203 5.94376 49.3336 5.94376C48.4642 5.94376 48.0331 6.72076 48.0331 7.58876V7.59576Z" fill="white" stroke="white" stroke-width="0.2" stroke-miterlimit="10"/>
<path d="M51.9854 9.54875V5.59375H52.5602L53.8607 7.59575C54.1625 8.05775 54.3996 8.47775 54.5864 8.87675H54.6008C54.5505 8.34475 54.5433 7.86175 54.5433 7.24575V5.59375H55.0391V9.54875H54.5074L53.2212 7.53975C52.941 7.09875 52.6679 6.65075 52.4596 6.22375H52.438C52.4668 6.72775 52.4811 7.20375 52.4811 7.86175V9.54875H51.9854Z" fill="white" stroke="white" stroke-width="0.2" stroke-miterlimit="10"/>
<path d="M48.9601 15.6738C47.2716 15.6738 45.8921 16.9268 45.8921 18.6488C45.8921 20.3708 47.2716 21.6238 48.9601 21.6238C50.6486 21.6238 52.0282 20.3638 52.0282 18.6488C52.0282 16.9338 50.6486 15.6738 48.9601 15.6738ZM48.9601 20.4548C48.0332 20.4548 47.2357 19.7128 47.2357 18.6488C47.2357 17.5848 48.0332 16.8428 48.9601 16.8428C49.887 16.8428 50.6846 17.5778 50.6846 18.6488C50.6846 19.7198 49.887 20.4548 48.9601 20.4548ZM42.2635 15.6738C40.575 15.6738 39.1955 16.9268 39.1955 18.6488C39.1955 20.3708 40.575 21.6238 42.2635 21.6238C43.9521 21.6238 45.3316 20.3638 45.3316 18.6488C45.3316 16.9338 43.9521 15.6738 42.2635 15.6738ZM42.2635 20.4548C41.3367 20.4548 40.5391 19.7128 40.5391 18.6488C40.5391 17.5848 41.3367 16.8428 42.2635 16.8428C43.1904 16.8428 43.988 17.5778 43.988 18.6488C43.988 19.7198 43.1904 20.4548 42.2635 20.4548ZM34.3024 16.5908V17.8508H37.4064C37.3129 18.5578 37.0687 19.0828 36.7022 19.4398C36.2495 19.8808 35.5454 20.3638 34.3095 20.3638C32.3983 20.3638 30.9038 18.8658 30.9038 17.0038C30.9038 15.1418 32.3983 13.6438 34.3095 13.6438C35.337 13.6438 36.0915 14.0358 36.6447 14.5468L37.5572 13.6578C36.7812 12.9368 35.7538 12.3838 34.3024 12.3838C31.6869 12.3838 29.4883 14.4558 29.4883 17.0108C29.4883 19.5658 31.6869 21.6378 34.3024 21.6378C35.7178 21.6378 36.7812 21.1898 37.6147 20.3428C38.4698 19.5098 38.7356 18.3338 38.7356 17.3888C38.7356 17.0948 38.7141 16.8218 38.6638 16.5978H34.3024V16.5908ZM66.8584 17.5708C66.6069 16.9058 65.8309 15.6738 64.243 15.6738C62.6551 15.6738 61.3618 16.8778 61.3618 18.6488C61.3618 20.3148 62.6551 21.6238 64.3939 21.6238C65.795 21.6238 66.6069 20.7908 66.9375 20.3078L65.8956 19.6288C65.5507 20.1258 65.0765 20.4548 64.3939 20.4548C63.7113 20.4548 63.2227 20.1538 62.9138 19.5518L67.0021 17.9068L66.8656 17.5708H66.8584ZM62.691 18.5648C62.6551 17.4168 63.6035 16.8288 64.2861 16.8288C64.8178 16.8288 65.2705 17.0878 65.4214 17.4588L62.691 18.5648ZM59.3715 21.4488H60.7151V12.6988H59.3715V21.4488ZM57.1728 16.3388H57.1297C56.8279 15.9888 56.2531 15.6738 55.5202 15.6738C53.9898 15.6738 52.5887 16.9828 52.5887 18.6628C52.5887 20.3428 53.9898 21.6308 55.5202 21.6308C56.2459 21.6308 56.8279 21.3158 57.1297 20.9518H57.1728V21.3788C57.1728 22.5198 56.5477 23.1288 55.5418 23.1288C54.7227 23.1288 54.2125 22.5548 54.0041 22.0718L52.8329 22.5478C53.1706 23.3388 54.0616 24.3048 55.5418 24.3048C57.1153 24.3048 58.4446 23.4018 58.4446 21.2038V15.8558H57.1728V16.3388ZM55.628 20.4548C54.7011 20.4548 53.9251 19.6988 53.9251 18.6628C53.9251 17.6268 54.7011 16.8498 55.628 16.8498C56.5549 16.8498 57.259 17.6198 57.259 18.6628C57.259 19.7058 56.5405 20.4548 55.628 20.4548ZM73.1526 12.6988H69.9409V21.4488H71.2845V18.1308H73.1598C74.6472 18.1308 76.1058 17.0808 76.1058 15.4148C76.1058 13.7488 74.6472 12.6988 73.1598 12.6988H73.1526ZM73.1814 16.9128H71.2773V13.9098H73.1814C74.1873 13.9098 74.7549 14.7218 74.7549 15.4078C74.7549 16.0938 74.1873 16.9058 73.1814 16.9058V16.9128ZM81.4731 15.6598C80.5031 15.6598 79.4972 16.0798 79.0804 16.9968L80.2732 17.4798C80.5247 16.9968 80.9989 16.8358 81.4946 16.8358C82.1844 16.8358 82.8958 17.2418 82.9029 17.9628V18.0538C82.6586 17.9208 82.1413 17.7178 81.5018 17.7178C80.2157 17.7178 78.9152 18.4038 78.9152 19.6848C78.9152 20.8538 79.9642 21.6098 81.1426 21.6098C82.0407 21.6098 82.5437 21.2178 82.8526 20.7558H82.8958V21.4278H84.1891V18.0748C84.1891 16.5208 82.9964 15.6528 81.4587 15.6528L81.4731 15.6598ZM81.3078 20.4548C80.8695 20.4548 80.2588 20.2378 80.2588 19.7128C80.2588 19.0408 81.0204 18.7818 81.6815 18.7818C82.2706 18.7818 82.5509 18.9078 82.9029 19.0758C82.8023 19.8878 82.0838 20.4618 81.3078 20.4618V20.4548ZM88.9098 15.8488L87.3721 19.6428H87.329L85.7339 15.8488H84.2897L86.6824 21.1548L85.3172 24.1018H86.7183L90.4043 15.8488H88.9169H88.9098ZM76.8386 21.4488H78.1823V12.6988H76.8386V21.4488Z" fill="white"/>
<path d="M14.8886 14.0426L7.23633 21.9526C7.47344 22.8136 8.27818 23.4436 9.23381 23.4436C9.61462 23.4436 9.97388 23.3456 10.2828 23.1636L10.3044 23.1496L18.9123 18.3126L14.8814 14.0356L14.8886 14.0426Z" fill="#EA4335"/>
<path d="M22.6267 12.6988H22.6195L18.9048 10.5918L14.7158 14.2248L18.9192 18.3198L22.6195 16.2408C23.2662 15.8978 23.7045 15.2328 23.7045 14.4698C23.7045 13.7068 23.2734 13.0418 22.6267 12.7058V12.6988Z" fill="#FBBC04"/>
<path d="M7.23591 6.94482C7.1928 7.11282 7.16406 7.28082 7.16406 7.46282V21.4418C7.16406 21.6238 7.18562 21.7918 7.23591 21.9598L15.1468 14.2528L7.23591 6.94482Z" fill="#4285F4"/>
<path d="M14.946 14.4488L18.9051 10.5918L10.3044 5.73378C9.99544 5.55178 9.629 5.44678 9.23381 5.44678C8.27818 5.44678 7.47344 6.08378 7.23633 6.93778L14.946 14.4418V14.4488Z" fill="#34A853"/>
</g>
<defs>
<clipPath id="clip0_962_11182">
<rect width="97" height="28" fill="white" transform="translate(0 0.44873)"/>
</clipPath>
</defs>
</svg>
