<svg width="215" height="55" viewBox="0 0 215 55" fill="none" xmlns="http://www.w3.org/2000/svg">
<path fill-rule="evenodd" clip-rule="evenodd" d="M21.2276 3.49266L18.7887 0.905078C23.0055 0.361817 34.1318 1.05825 44.9029 8.19146C45.0429 9.17681 45.0128 10.1588 45.0128 10.1588L45.8065 10.5885L45.811 10.5952L45.8127 10.5851L45.8287 10.595C46.2739 11.3594 46.7238 12.4993 47.0113 13.8405C47.3592 15.4632 47.4585 17.3316 47.0526 19.1182C46.6443 20.9183 45.8686 22.4039 45.1092 23.4907C44.548 24.2937 44.0128 24.8549 43.6613 25.1624C42.2855 25.1914 39.7241 26.114 38.992 29.3137C36.7855 30.5765 33.3216 31.8386 28.7464 31.8386C24.3756 31.8386 19.9174 30.5728 16.5659 28.1215C13.2279 25.6801 10.9863 22.0664 10.9863 17.3086C10.9863 13.5237 12.6824 10.5674 14.8336 8.39297C16.9917 6.21178 19.9421 4.44428 21.6531 3.85774L21.2276 3.49266ZM40.1282 9.70124C39.2803 10.6253 38.4872 11.0688 38.261 11.1891C33.3092 10.0868 31.5254 7.40651 31.5254 7.40651C36.1961 7.37615 40.4115 8.53856 43.4957 10.505C43.4957 10.505 41.8263 9.939 40.1282 9.70124Z" fill="#3164FA"/>
<path d="M18.7193 4.2085C8.10254 6.34669 0 15.9067 0 27.4673C0 42.0828 12.339 54.1593 27.5599 54.1593C38.9257 54.1593 48.3865 47.2014 53.3332 37.8924C46.7542 39.4547 38.8992 36.6771 38.8492 30.6057C36.4811 31.8246 33.0709 32.9066 28.7462 32.9066C24.1879 32.9066 19.4995 31.5899 15.9364 28.9841C12.3598 26.3681 9.91951 22.45 9.91951 17.3086C9.91951 13.1739 11.7803 9.96122 14.0756 7.64147C15.4033 6.31184 17.2239 5.05023 18.7193 4.2085Z" fill="#3164FA"/>
<path d="M48.0543 13.6166C47.9104 12.9455 47.7263 12.3109 47.5173 11.7339C50.3713 13.8693 52.5941 16.7834 52.4088 20.844C52.1421 26.6925 48.6136 28.9935 46.3548 29.3768C47.4391 27.5554 46.5356 26.4047 46.1741 26.0214C45.9982 25.8348 45.6351 25.5206 45.0117 25.3244C45.3203 24.986 45.6528 24.5757 45.9833 24.103C46.8059 22.9257 47.6482 21.3142 48.0928 19.355C48.5408 17.3823 48.4264 15.3526 48.0543 13.6166Z" fill="#3164FA"/>
<path d="M153.693 14.4614C157.598 14.4614 160.05 15.5668 162.374 17.5498L159.857 20.5733C158.114 19.0779 156.372 18.1676 153.532 18.1676C149.401 18.1676 146.206 21.8085 146.206 26.165L146.208 26.4357C146.296 31.0119 149.339 34.3572 153.887 34.3572C156.049 34.3572 157.953 33.6746 159.34 32.6344V28.408L163.181 24.8969V34.4547C160.922 36.3729 157.759 37.9984 153.758 37.9984C146.69 37.9984 142.043 32.927 142.043 26.2949L142.044 26.0225C142.147 19.7414 146.926 14.4614 153.693 14.4614ZM179.251 14.4614C186.19 14.4614 191.03 19.7605 191.03 26.165V26.4351C190.926 32.7173 186.049 37.9984 179.187 37.9984C172.248 37.9984 167.407 32.6993 167.407 26.2949L167.409 26.0248C167.513 19.7426 172.387 14.4614 179.251 14.4614ZM79.2068 14.6891L89.1468 37.6083L85.1059 37.6081L77.3027 19.468L69.5565 37.6081L65.5879 37.6083L75.5279 14.6891H79.2068ZM130.404 14.6891L140.344 37.6083L136.303 37.6081L128.5 19.468L120.754 37.6081L116.785 37.6083L126.725 14.6891H130.404ZM198.992 14.8515L211.096 30.5861V14.8515H215V37.6083H211.675L199.219 21.4184V37.6083H195.313V14.8515H198.992ZM179.187 18.1676C174.701 18.1676 171.57 21.7436 171.57 26.165L171.572 26.4244C171.664 30.7576 174.799 34.2923 179.251 34.2923C183.736 34.2923 186.867 30.7163 186.867 26.2949L186.864 26.0354C186.774 21.7023 183.638 18.1676 179.187 18.1676Z" fill="white"/>
<path d="M104.022 14.4614C106.868 14.4614 109.099 15.3206 110.554 16.7747C111.75 18.0633 112.429 19.7487 112.429 21.7644L112.428 21.9541C112.382 25.5984 110.26 27.8218 107.265 28.774L107.062 28.8363L113.173 37.5932H108.452L102.891 29.5302L99.971 29.5294L102.02 25.9275L103.731 25.9281C106.512 25.9281 108.305 24.508 108.385 22.2228L108.387 22.062L108.387 21.9077C108.347 19.4534 106.639 18.1625 103.699 18.1625H97.911L97.9101 25.3132L97.907 25.3126V30.4712L97.9101 30.4695L97.911 37.5932H93.9336V14.4614H104.022Z" fill="white"/>
</svg>
