<svg width="52" height="52" viewBox="0 0 52 52" fill="none" xmlns="http://www.w3.org/2000/svg">
<rect width="52" height="52" rx="26" fill="#1DA1F2"/>
<path d="M41.6901 17C40.5351 17.525 39.2901 17.87 38.0001 18.035C39.3201 17.24 40.3401 15.98 40.8201 14.465C39.5751 15.215 38.1951 15.74 36.7401 16.04C35.5551 14.75 33.8901 14 32.0001 14C28.4751 14 25.5951 16.88 25.5951 20.435C25.5951 20.945 25.6551 21.44 25.7601 21.905C20.4201 21.635 15.6651 19.07 12.5001 15.185C11.9451 16.13 11.6301 17.24 11.6301 18.41C11.6301 20.645 12.7551 22.625 14.4951 23.75C13.4301 23.75 12.4401 23.45 11.5701 23V23.045C11.5701 26.165 13.7901 28.775 16.7301 29.36C15.7861 29.6183 14.7952 29.6543 13.8351 29.465C14.2425 30.7437 15.0404 31.8626 16.1166 32.6644C17.1928 33.4662 18.4932 33.9105 19.8351 33.935C17.5605 35.7357 14.7411 36.709 11.8401 36.695C11.3301 36.695 10.8201 36.665 10.3101 36.605C13.1601 38.435 16.5501 39.5 20.1801 39.5C32.0001 39.5 38.4951 29.69 38.4951 21.185C38.4951 20.9 38.4951 20.63 38.4801 20.345C39.7401 19.445 40.8201 18.305 41.6901 17Z" fill="white"/>
</svg>
