<svg width="158" height="157" viewBox="0 0 158 157" fill="none" xmlns="http://www.w3.org/2000/svg">
<g filter="url(#filter0_f_17_302)">
<rect x="24.4722" y="58.9466" width="81.8282" height="81.8282" rx="29.6198" transform="rotate(-25.3222 24.4722 58.9466)" fill="url(#paint0_linear_17_302)"/>
<g style="mix-blend-mode:color-dodge" opacity="0.5" filter="url(#filter1_f_17_302)">
<path fill-rule="evenodd" clip-rule="evenodd" d="M34.882 78.9557C33.6438 67.0778 39.8921 55.1864 51.2998 49.7886L74.2449 38.9316C86.0065 33.3664 99.6275 36.4191 107.976 45.5394C99.6997 34.5534 84.5853 30.5026 71.6641 36.6166L51.2459 46.2779C38.665 52.2308 32.2167 65.902 34.882 78.9557Z" fill="url(#paint1_linear_17_302)"/>
</g>
<path fill-rule="evenodd" clip-rule="evenodd" d="M66.1756 65.3855L63.1061 64.3885C65.7929 62.4041 73.703 58.6478 83.8499 59.4979C84.3259 60.1289 84.6837 60.8225 84.6837 60.8225L84.9359 60.8211C85.5545 61.1031 86.4586 61.776 87.3178 62.7535C88.1744 63.7285 88.9474 64.9624 89.3401 66.3281C89.7372 67.7092 89.7623 69.0184 89.6476 70.0498C89.5302 71.1056 89.2748 71.8062 89.17 71.985L89.1368 72.0416C88.3167 72.7163 87.4216 74.0765 87.8312 76.0226C86.8424 77.7752 84.8681 80.1891 81.4239 82.1003C78.3713 83.7942 74.7804 84.6475 71.52 84.2626C68.2792 83.8801 65.365 82.2788 63.5658 79.0363C62.1386 76.4642 62.1916 73.8033 62.8606 71.4878C63.5349 69.154 64.9212 66.7995 65.8791 65.7476L66.1164 65.487L66.0909 65.482L66.1756 65.3855ZM81.1525 62.3662C80.9264 63.3314 80.5528 63.9415 80.4437 64.1113C76.618 65.2328 74.3596 64.0507 74.3596 64.0507C77.5558 62.2498 80.8991 61.4507 83.7753 61.6413C83.7753 61.6413 82.4104 61.8843 81.1525 62.3662Z" fill="#4F7BFB"/>
<path d="M63.1523 67.845C56.8891 73.5382 55.0699 83.0506 59.4094 90.8712C65.0367 101.013 78.3805 104.568 89.1051 98.617C97.1135 94.1733 101.101 85.6465 101.002 77.253C97.0561 80.8293 90.6513 82.0018 88.1525 78.127C88.1433 78.0912 88.1339 78.0549 88.1242 78.0183C86.9033 79.8064 84.9013 81.8897 81.8546 83.5803C78.6119 85.3796 74.7589 86.3119 71.1962 85.8909C67.6139 85.4676 64.3254 83.6719 62.3112 80.042C60.6877 77.1162 60.7661 74.1027 61.5008 71.5588L61.501 71.5579C61.8476 70.3787 62.4377 69.1097 63.0372 68.0465C63.0755 67.9785 63.1139 67.9114 63.1523 67.845Z" fill="#4F7BFB"/>
<path d="M90.7306 71.6256C91.1622 71.5565 91.4768 71.6057 91.6516 71.6499C92.0717 71.756 93.1938 72.1508 93.0488 73.8423C94.6309 72.6253 96.4635 69.5733 94.4729 65.5056C93.1495 62.8015 90.5339 61.7439 87.6963 61.4536C88.003 61.7152 88.3079 62.0073 88.6009 62.3255C89.5509 63.3571 90.4167 64.7053 90.8235 66.2628C91.2264 67.8049 91.1866 69.2782 90.9964 70.4438C90.9259 70.8757 90.8331 71.2745 90.7306 71.6256Z" fill="#4F7BFB"/>
</g>
<defs>
<filter id="filter0_f_17_302" x="0.773438" y="0.249512" width="156.361" height="156.361" filterUnits="userSpaceOnUse" color-interpolation-filters="sRGB">
<feFlood flood-opacity="0" result="BackgroundImageFix"/>
<feBlend mode="normal" in="SourceGraphic" in2="BackgroundImageFix" result="shape"/>
<feGaussianBlur stdDeviation="0.5" result="effect1_foregroundBlur_17_302"/>
</filter>
<filter id="filter1_f_17_302" x="33.951" y="33.4271" width="74.3621" height="45.8652" filterUnits="userSpaceOnUse" color-interpolation-filters="sRGB">
<feFlood flood-opacity="0" result="BackgroundImageFix"/>
<feBlend mode="normal" in="SourceGraphic" in2="BackgroundImageFix" result="shape"/>
<feGaussianBlur stdDeviation="0.168295" result="effect1_foregroundBlur_17_302"/>
</filter>
<linearGradient id="paint0_linear_17_302" x1="65.3863" y1="58.9466" x2="40.0579" y2="131.745" gradientUnits="userSpaceOnUse">
<stop stop-color="#212428"/>
<stop offset="0.937272" stop-color="#15171B"/>
</linearGradient>
<linearGradient id="paint1_linear_17_302" x1="34.888" y1="61.466" x2="97.4741" y2="32.5076" gradientUnits="userSpaceOnUse">
<stop stop-color="#F3CCEB"/>
<stop offset="0.392952"/>
<stop offset="0.555099"/>
<stop offset="1" stop-color="#F7CDED"/>
</linearGradient>
</defs>
</svg>
