<?xml version="1.0" encoding="utf-8"?>
<!-- Generator: Adobe Illustrator 26.0.1, SVG Export Plug-In . SVG Version: 6.00 Build 0)  -->
<svg version="1.1" id="Layer_1" xmlns="http://www.w3.org/2000/svg" xmlns:xlink="http://www.w3.org/1999/xlink" x="0px" y="0px"
	 viewBox="0 0 102 102" style="enable-background:new 0 0 102 102;" xml:space="preserve">
<style type="text/css">
	.st0{fill:#E8D9FF;}
	.st1{fill:#7D45F0;}
</style>
<path class="st0" d="M32-0.1h38c17.7,0,32,14.3,32,32v38c0,17.7-14.3,32-32,32H32c-17.7,0-32-14.3-32-32v-38C0,14.3,14.3-0.1,32-0.1
	z"/>
<path class="st1" d="M25.9,38.7c5.1,0,9.2,4.3,9.2,9.5v5.5c0,5.3-4.1,9.5-9.2,9.5c-0.8,0-1.6-0.1-2.3-0.3l0,0.6c0,3.8-3,7-6.8,7
	l-0.1,0v-21l0,0l0-1.4C16.7,42.9,20.8,38.7,25.9,38.7z M67,38.7c5.1,0,9.2,4.3,9.2,9.6v5.5c0,5.3-4.1,9.6-9.2,9.6
	c-5.1,0-9.2-4.3-9.2-9.6v-5.5C57.8,43,61.9,38.7,67,38.7z M46.4,38.2c5.1,0,9.2,4.3,9.2,9.6v5.5c0,5.3-4.1,9.6-9.2,9.6
	c-5.1,0-9.2-4.3-9.2-9.6v-5.5C37.2,42.5,41.3,38.2,46.4,38.2z M85.3,31.4v24.3c0,3.9-3.1,7.1-6.9,7.2l-0.1,0V38.6
	C78.3,34.6,81.5,31.4,85.3,31.4z M67,45.9c-1.3,0-2.3,1.1-2.3,2.4v5.5c0,1.3,1,2.4,2.3,2.4c1.3,0,2.3-1.1,2.3-2.4v-5.5
	C69.3,46.9,68.2,45.9,67,45.9z M25.9,45.8c-1.3,0-2.3,1.1-2.3,2.4v5.5c0,1.3,1,2.4,2.3,2.4s2.3-1.1,2.3-2.4v-5.5
	C28.1,46.9,27.1,45.8,25.9,45.8z M46.4,45.4c-1.3,0-2.3,1.1-2.3,2.4v5.5c0,1.3,1,2.4,2.3,2.4c1.3,0,2.3-1.1,2.3-2.4v-5.5
	C48.7,46.5,47.7,45.4,46.4,45.4z"/>
</svg>
