<svg width="223" height="56" viewBox="0 0 223 56" fill="none" xmlns="http://www.w3.org/2000/svg">
<g id="63dc31f8817a4a509d7635a7_Logo 1">
<path id="Vector" d="M73.2285 46.6301V18.9152H77.3892L77.7855 21.1522H77.9837C79.1724 19.62 81.1926 18.5225 84.0054 18.5225C89.1532 18.5225 93.2749 22.6845 93.2749 28.8455C93.2749 35.0063 89.1568 39.1683 84.0054 39.1683C81.2316 39.1683 79.2926 38.0287 78.2631 36.7349H78.0649V46.6265H73.2321L73.2285 46.6301ZM88.4385 28.8489C88.4385 25.2373 86.0999 22.9616 83.2481 22.9616C80.3965 22.9616 78.0579 25.2373 78.0579 28.8489C78.0579 32.4606 80.3965 34.7363 83.2481 34.7363C86.0999 34.7363 88.4385 32.4606 88.4385 28.8489Z" fill="white"/>
<path id="Vector_2" d="M95.7285 28.8493C95.7285 22.8427 100.084 18.5264 105.908 18.5264C111.731 18.5264 116.086 22.8427 116.086 28.8493C116.086 34.8559 111.731 39.1723 105.908 39.1723C100.084 39.1723 95.7285 34.8138 95.7285 28.8493ZM111.215 28.8493C111.215 25.3149 108.837 22.9621 105.908 22.9621C102.978 22.9621 100.562 25.3184 100.562 28.8493C100.562 32.3804 102.978 34.6981 105.908 34.6981C108.837 34.6981 111.215 32.3837 111.215 28.8493Z" fill="white"/>
<path id="Vector_3" d="M119.588 38.7797V11.3032H124.421V38.7831H119.588V38.7797Z" fill="white"/>
<path id="Vector_4" d="M142.363 18.915H147.511L138.797 43.0569C137.926 45.4517 136.737 46.6298 133.606 46.6298H128.933V42.1942H132.895C133.61 42.1942 134.003 41.8402 134.243 41.251L134.717 39.9572L126.559 18.915H131.706L136.897 32.6954H137.689L142.363 18.915Z" fill="white"/>
<path id="Vector_5" d="M148.434 39.7609H153.345C153.543 41.0549 154.849 42.8221 157.941 42.8221C160.831 42.8221 162.735 41.0162 162.735 38.2672V35.4797H162.537C161.468 36.6191 159.487 37.6396 156.95 37.6396C151.803 37.6396 147.84 33.7123 147.84 28.0599C147.84 22.4076 151.803 18.5225 156.95 18.5225C159.604 18.5225 161.546 19.5814 162.774 21.0751H162.972L163.368 18.9152H167.568V38.2672C167.568 43.5268 164.002 47.0228 157.941 47.0228C151.169 47.0228 148.555 42.6257 148.434 39.7609ZM162.735 28.0635C162.735 24.9638 160.517 22.8039 157.704 22.8039C154.891 22.8039 152.712 24.9638 152.712 28.0635C152.712 31.1632 154.93 33.3618 157.704 33.3618C160.478 33.3618 162.735 31.2017 162.735 28.0635Z" fill="white"/>
<path id="Vector_6" d="M170.926 28.8493C170.926 22.8427 175.281 18.5264 181.105 18.5264C186.928 18.5264 191.284 22.8427 191.284 28.8493C191.284 34.8559 186.928 39.1723 181.105 39.1723C175.281 39.1723 170.926 34.8138 170.926 28.8493ZM186.412 28.8493C186.412 25.3149 184.034 22.9621 181.105 22.9621C178.175 22.9621 175.759 25.3184 175.759 28.8493C175.759 32.3804 178.175 34.6981 181.105 34.6981C184.034 34.6981 186.412 32.3837 186.412 28.8493Z" fill="white"/>
<path id="Vector_7" d="M194.648 38.7792V18.9152H198.805L199.201 20.7982H199.4C200.192 19.897 202.174 18.5225 205.182 18.5225C209.776 18.5225 213.102 21.8185 213.102 26.8432V38.7757H208.27V27.471C208.27 24.9182 206.448 23.0738 203.954 23.0738C201.459 23.0738 199.478 24.9989 199.478 27.471V38.7757H194.645L194.648 38.7792Z" fill="white"/>
<path id="Vector_8" d="M45.0984 36.4614L56.9789 29.6625C57.6088 29.3013 57.998 28.6315 57.998 27.9127V14.3148C57.998 13.596 57.6088 12.9263 56.9789 12.5651L45.0984 5.76613C44.4685 5.40498 43.6867 5.40849 43.0604 5.76613L31.1797 12.5651C30.55 12.9263 30.1608 13.596 30.1608 14.3148V38.6144L21.8287 43.3796L13.4967 38.6144V29.0805L21.8287 24.3153L27.3234 27.4604V21.0647L22.8476 18.5015C22.5398 18.3262 22.1862 18.2315 21.8287 18.2315C21.4713 18.2315 21.1177 18.3262 20.8099 18.5015L8.92912 25.3005C8.29935 25.6616 7.91016 26.3315 7.91016 27.0502V40.6482C7.91016 41.367 8.29935 42.0366 8.92912 42.3978L20.8099 49.1969C21.4395 49.5545 22.218 49.5545 22.8476 49.1969L34.7284 42.3978C35.3582 42.0366 35.7473 41.367 35.7473 40.6482V16.3451L35.8959 16.2609L44.0759 11.5798L52.408 16.3451V25.8791L44.0759 30.6443L38.5883 27.506V33.9019L43.0568 36.458C43.6867 36.8156 44.4685 36.8156 45.0948 36.458L45.0984 36.4614Z" fill="url(#paint0_linear_17133_23962)"/>
</g>
<defs>
<linearGradient id="paint0_linear_17133_23962" x1="7.7474" y1="41.9805" x2="55.6285" y2="13.9384" gradientUnits="userSpaceOnUse">
<stop stop-color="#A726C1"/>
<stop offset="0.88" stop-color="#803BDF"/>
<stop offset="1" stop-color="#7B3FE4"/>
</linearGradient>
</defs>
</svg>
