<svg width="17" height="17" viewBox="0 0 17 17" fill="none" xmlns="http://www.w3.org/2000/svg">
<g clip-path="url(#clip0_2246_4226)">
<path d="M15.9374 8.50004C15.9391 8.70512 15.8728 8.9056 15.7479 9.07362C15.6229 9.24163 15.4454 9.36883 15.2401 9.43754L14.1146 9.82276C12.1575 10.4926 10.5969 11.9937 9.85154 13.9233L9.49599 14.8438C9.42051 15.0352 9.28461 15.2002 9.10655 15.3168C8.92849 15.4333 8.71679 15.4958 8.49989 15.4958C8.283 15.4958 8.0713 15.4333 7.89324 15.3168C7.71517 15.2002 7.57928 15.0352 7.5038 14.8438L7.1486 13.9236C6.40271 11.9913 4.83938 10.4886 2.87913 9.81958L1.75966 9.43754C1.55632 9.3665 1.38095 9.2386 1.25711 9.07101C1.13327 8.90342 1.06689 8.70417 1.06689 8.50004C1.06689 8.2959 1.13327 8.09666 1.25711 7.92907C1.38095 7.76148 1.55632 7.63357 1.75966 7.56254L2.88417 7.17803C4.84415 6.50784 6.40667 5.004 7.15135 3.0711L7.5038 2.15629C7.57928 1.96491 7.71517 1.79986 7.89324 1.6833C8.0713 1.56675 8.283 1.50427 8.49989 1.50427C8.71679 1.50427 8.92849 1.56675 9.10655 1.6833C9.28461 1.79986 9.42051 1.96491 9.49599 2.15629L9.85119 3.07647C10.5971 5.00876 12.1604 6.51151 14.1207 7.18049L15.2401 7.56254C15.4454 7.63124 15.6229 7.75844 15.7479 7.92646C15.8728 8.09447 15.9391 8.29495 15.9374 8.50004Z" fill="#D98AEC"/>
</g>
<defs>
<clipPath id="clip0_2246_4226">
<rect width="17" height="16" fill="white" transform="translate(0 0.5)"/>
</clipPath>
</defs>
</svg>
