<svg width="80" height="31" viewBox="0 0 80 31" fill="none" xmlns="http://www.w3.org/2000/svg">
<path d="M0.344849 8.5456C0.344849 4.12732 3.92657 0.545593 8.34485 0.545593H71.2028C75.6211 0.545593 79.2028 4.12732 79.2028 8.54559V22.4544C79.2028 26.8726 75.6211 30.4544 71.2028 30.4544H8.34485C3.92658 30.4544 0.344849 26.8726 0.344849 22.4544V8.5456Z" fill="white"/>
<path d="M59.4006 23.6184V7.38162H65.385L69.5601 23.1545V7.38162H72.5755V23.6184H66.452L62.416 7.96151V23.6184H59.4006Z" fill="black"/>
<path d="M53.5977 23.6184V20.719L53.5977 10.281V7.38162H56.7291V10.281L56.7291 20.719V23.6184H53.5977Z" fill="black"/>
<path d="M48.3934 23.6183L47.396 19.8839H40.9941L39.9967 23.6183H36.8189L41.1796 7.38159H47.2568L51.5712 23.6183H48.3934ZM41.8059 16.8685H46.5842L44.195 7.96148L41.8059 16.8685Z" fill="black"/>
<path d="M32.0666 23.6184V16.7989H25.4559V23.6184H22.3245V7.38162H25.4559V13.7835H32.0666V7.38162H35.198V23.6184H32.0666Z" fill="black"/>
<path d="M13.8379 23.8271C9.75555 23.8271 6.97211 21.322 6.97211 16.8917V14.1083C6.97211 9.67795 9.75555 7.17285 13.8379 7.17285C17.8507 7.17285 20.5878 9.446 20.7038 13.3892H17.5724C17.4796 11.3248 16.2039 10.1882 13.8379 10.1882C11.4024 10.1882 10.1035 11.5336 10.1035 14.1083V16.8917C10.1035 19.4664 11.4024 20.9277 13.8379 20.9277C16.1343 20.9277 17.4332 19.7679 17.5724 17.7963H20.7038C20.5182 21.6468 17.7811 23.8271 13.8379 23.8271Z" fill="black"/>
</svg>
