<svg width="22" height="17" viewBox="0 0 22 17" fill="none" xmlns="http://www.w3.org/2000/svg">
<path d="M18.6361 1.83997C17.1907 1.20499 15.6648 0.754494 14.0974 0.5C13.8832 0.8681 13.6891 1.24664 13.5159 1.63408C11.8463 1.39345 10.1485 1.39345 8.47883 1.63408C8.30564 1.24664 8.11158 0.8681 7.89742 0.5C6.32918 0.757412 4.80236 1.20894 3.35518 1.8433C0.482758 5.92134 -0.295911 9.89809 0.0934237 13.8184C1.77541 15.0113 3.65828 15.9183 5.66004 16.5C6.1106 15.9182 6.50942 15.3011 6.85227 14.6553C6.20132 14.4221 5.57307 14.1342 4.97481 13.7951C5.13228 13.6856 5.28628 13.5726 5.43509 13.4631C7.17602 14.2487 9.07615 14.656 11 14.656C12.9238 14.656 14.8239 14.2487 16.5649 13.4631C16.7154 13.5809 16.8694 13.6939 17.0252 13.7951C16.4259 14.1351 15.7965 14.4235 15.1442 14.6569C15.4865 15.3026 15.8853 15.9192 16.3365 16.5C18.3399 15.9207 20.2243 15.0141 21.9065 13.82C22.3634 9.27377 21.1261 5.33354 18.6361 1.83997ZM7.34543 11.4074C6.26048 11.4074 5.36415 10.4626 5.36415 9.30033C5.36415 8.13802 6.22934 7.18493 7.34197 7.18493C8.4546 7.18493 9.34401 8.13802 9.32498 9.30033C9.30594 10.4626 8.45114 11.4074 7.34543 11.4074ZM14.6545 11.4074C13.5679 11.4074 12.675 10.4626 12.675 9.30033C12.675 8.13802 13.5402 7.18493 14.6545 7.18493C15.7689 7.18493 16.6514 8.13802 16.6324 9.30033C16.6133 10.4626 15.7602 11.4074 14.6545 11.4074Z" fill="white"/>
</svg>
