<svg width="24" height="26" viewBox="0 0 24 26" fill="none" xmlns="http://www.w3.org/2000/svg">
<path d="M11.9478 25.9883C12.6376 25.9888 13.3127 25.7881 13.891 25.4106C14.4693 25.0331 14.9258 24.4952 15.2051 23.8621C15.2359 23.7918 15.2487 23.7148 15.2423 23.6383C15.236 23.5617 15.2107 23.4879 15.1688 23.4236C15.1269 23.3594 15.0696 23.3066 15.0023 23.2701C14.9349 23.2337 14.8595 23.2147 14.7829 23.2148H9.11528C9.03872 23.2147 8.96334 23.2337 8.89595 23.2701C8.82857 23.3066 8.77133 23.3594 8.7294 23.4236C8.68747 23.4879 8.6622 23.5617 8.65587 23.6383C8.64954 23.7148 8.66234 23.7918 8.69314 23.8621C8.97249 24.4945 9.42869 25.0321 10.0064 25.4094C10.5841 25.7868 11.2585 25.9879 11.9478 25.9883Z" fill="white"/>
<path d="M20.6436 19.773C20.4245 19.773 20.2075 19.7296 20.0051 19.6454C19.8027 19.5612 19.6188 19.4378 19.4639 19.2823C19.309 19.1267 19.1862 18.9421 19.1025 18.7388C19.0187 18.5356 18.9757 18.3178 18.9759 18.0979V12.1889C18.9759 9.09375 17.0307 6.37525 14.2711 5.37885C14.1323 5.32999 14.0051 5.25267 13.8977 5.15182C13.7902 5.05097 13.7049 4.92879 13.647 4.79304C13.5092 4.45512 13.2745 4.1659 12.9726 3.96211C12.6707 3.75832 12.3153 3.64914 11.9515 3.64844C11.5877 3.64774 11.2319 3.75555 10.9292 3.95818C10.6266 4.1608 10.3907 4.44911 10.2517 4.78651C10.1951 4.92051 10.1112 5.04109 10.0052 5.14043C9.89929 5.23977 9.77372 5.31565 9.63668 5.36316C8.25929 5.84406 7.06526 6.74339 6.2203 7.93631C5.37535 9.12923 4.9214 10.5566 4.92147 12.0202V18.0966C4.92217 18.5389 4.74838 18.9636 4.43808 19.2777C4.12778 19.5918 3.7062 19.7699 3.26548 19.773C3.16168 19.7718 3.05866 19.7911 2.96232 19.8299C2.86598 19.8687 2.77821 19.9262 2.70403 19.999C2.62985 20.0719 2.57071 20.1587 2.53 20.2546C2.48929 20.3504 2.46782 20.4534 2.4668 20.5575C2.4668 20.7656 2.54915 20.9652 2.69576 21.1123C2.84237 21.2594 3.04121 21.3421 3.24854 21.3421H20.6397C20.8471 21.3421 21.0459 21.2594 21.1925 21.1123C21.3391 20.9652 21.4215 20.7656 21.4215 20.5575C21.4215 20.3501 21.3397 20.1512 21.1939 20.0041C21.0481 19.8571 20.8503 19.774 20.6436 19.773Z" fill="white"/>
<path d="M16.9838 3.90378C17.9441 4.11677 18.8127 4.6289 19.4655 5.36701C20.1184 6.10511 20.5221 7.03142 20.6189 8.01358C20.6288 8.12039 20.6805 8.21891 20.7627 8.28745C20.845 8.35599 20.9509 8.38894 21.0574 8.37906C21.1638 8.36917 21.262 8.31726 21.3303 8.23474C21.3986 8.15223 21.4314 8.04586 21.4215 7.93904C21.3135 6.78373 20.8415 5.69302 20.074 4.82516C19.3065 3.95731 18.2834 3.35746 17.1532 3.11267C17.1254 3.10641 17.097 3.10334 17.0685 3.10352C16.9699 3.10506 16.8752 3.14277 16.8024 3.20955C16.7295 3.27634 16.6836 3.36756 16.6732 3.46602C16.6627 3.56448 16.6886 3.66336 16.7458 3.744C16.8031 3.82465 16.8877 3.88148 16.9838 3.90378Z" fill="white"/>
<path d="M17.4358 1.3003C18.9311 1.63057 20.284 2.42706 21.3008 3.57581C22.3176 4.72456 22.9464 6.16668 23.097 7.6958C23.1017 7.74865 23.1168 7.80004 23.1414 7.84702C23.166 7.894 23.1996 7.93564 23.2403 7.96954C23.281 8.00345 23.3279 8.02894 23.3785 8.04457C23.429 8.0602 23.4821 8.06566 23.5347 8.06062C23.5875 8.05602 23.6389 8.04098 23.6858 8.01637C23.7328 7.99176 23.7744 7.95806 23.8083 7.91721C23.8423 7.87637 23.8678 7.82919 23.8834 7.77839C23.8991 7.7276 23.9046 7.67419 23.8996 7.62126C23.7401 5.91902 23.0445 4.312 21.9137 3.03321C20.7829 1.75443 19.2756 0.870365 17.6104 0.509196C17.5825 0.503637 17.5542 0.500575 17.5257 0.500044C17.4253 0.498553 17.328 0.534789 17.2528 0.601642C17.1776 0.668495 17.13 0.761136 17.1194 0.861376C17.1088 0.961615 17.1359 1.06221 17.1954 1.14342C17.255 1.22463 17.3425 1.28058 17.441 1.3003H17.4358Z" fill="white"/>
<path d="M6.91191 3.90381C7.01041 3.8841 7.09801 3.82815 7.15751 3.74694C7.21702 3.66573 7.24413 3.56513 7.23352 3.46489C7.22291 3.36465 7.17535 3.27201 7.10018 3.20516C7.025 3.1383 6.92765 3.10207 6.82722 3.10356C6.79874 3.10344 6.77033 3.10651 6.74253 3.11271C5.61233 3.3575 4.58925 3.95734 3.82174 4.8252C3.05423 5.69305 2.58223 6.78377 2.47421 7.93908C2.46485 8.04599 2.49812 8.15227 2.56672 8.2346C2.60006 8.27582 2.64137 8.30982 2.68817 8.33454C2.73498 8.35927 2.7863 8.3742 2.83903 8.37844C2.89177 8.38366 2.94502 8.37834 2.9957 8.36279C3.04639 8.34725 3.09351 8.32178 3.13433 8.28786C3.17515 8.25394 3.20886 8.21224 3.23354 8.16517C3.25822 8.1181 3.27337 8.06659 3.27811 8.01361C3.37451 7.03149 3.77788 6.10512 4.43054 5.36696C5.0832 4.62881 5.95173 4.11668 6.91191 3.90381Z" fill="white"/>
<path d="M6.46009 1.3003C6.55859 1.28058 6.64618 1.22463 6.70569 1.14342C6.76519 1.06221 6.7923 0.961615 6.7817 0.861375C6.77109 0.761136 6.72353 0.668495 6.64835 0.601642C6.57318 0.534789 6.47583 0.498553 6.3754 0.500044C6.34738 0.500503 6.31946 0.503566 6.29201 0.509196C4.62684 0.870365 3.11958 1.75443 1.98876 3.03321C0.857949 4.31199 0.162371 5.91901 0.00288077 7.62126C-0.00229552 7.67413 0.00310762 7.72751 0.0187695 7.77826C0.0344313 7.829 0.0600299 7.8761 0.0940778 7.91678C0.127408 7.958 0.168735 7.992 0.215541 8.01672C0.262348 8.04144 0.313672 8.05638 0.366397 8.06062C0.419139 8.06584 0.472389 8.06052 0.523073 8.04497C0.573757 8.02943 0.620858 8.00396 0.661682 7.97004C0.702505 7.93612 0.736232 7.89442 0.760911 7.84735C0.785589 7.80028 0.800741 7.74877 0.805475 7.69579C0.95569 6.16755 1.58344 4.72609 2.59902 3.57745C3.6146 2.4288 4.96602 1.63178 6.46009 1.3003Z" fill="white"/>
</svg>
