<svg width="20" height="22" viewBox="0 0 20 22" fill="none" xmlns="http://www.w3.org/2000/svg">
<path d="M18.9627 9.76093L3.24082 0.699958C3.00912 0.567327 2.74679 0.498374 2.48019 0.500029C2.21359 0.501684 1.95213 0.573889 1.72207 0.709387C1.49666 0.840273 1.30952 1.02858 1.1795 1.25535C1.04948 1.48212 0.98117 1.73935 0.981446 2.00112V20.1231C0.983922 20.5215 1.14305 20.9028 1.42409 21.1837C1.70512 21.4646 2.08524 21.6222 2.48145 21.6222C2.74707 21.6213 3.0082 21.5532 3.24082 21.4242L18.9627 12.3632C19.1956 12.2362 19.3901 12.0482 19.5256 11.8192C19.6612 11.5902 19.7327 11.3286 19.7327 11.0621C19.7327 10.7956 19.6612 10.534 19.5256 10.305C19.3901 10.076 19.1956 9.88801 18.9627 9.76093ZM11.5002 12.1275L13.2721 13.9096L5.00332 18.6616L11.5002 12.1275ZM5.00332 3.45314L13.2721 8.21462L11.5002 9.99664L5.00332 3.45314ZM14.6127 13.127L12.5596 11.0621L14.6127 8.9972L18.2127 11.0621L14.6127 13.127Z" fill="white"/>
</svg>
