<?xml version="1.0" encoding="utf-8"?>
<!-- Generator: Adobe Illustrator 26.0.1, SVG Export Plug-In . SVG Version: 6.00 Build 0)  -->
<svg version="1.1" id="Layer_1" xmlns="http://www.w3.org/2000/svg" xmlns:xlink="http://www.w3.org/1999/xlink" x="0px" y="0px"
	 viewBox="0 0 454 211" style="enable-background:new 0 0 454 211;" xml:space="preserve">
<style type="text/css">
	.st0{fill:#FF61BD;fill-opacity:5.000000e-02;}
	.st1{fill:#FF61BD;fill-opacity:0.2;}
	.st2{fill:#FF61BD;fill-opacity:0.4;}
	.st3{fill:#FF61BD;fill-opacity:0.6;}
	.st4{fill:#FF61BD;}
	.st5{fill:#FF86CD;}
	.st6{fill:#FECEEA;}
	.st7{fill:#FBEBF4;}
</style>
<path class="st0" d="M80.6,211c4.2-74.4,67.9-133.5,145.8-133.5S368.1,136.6,372.3,211h80.9C448.8,93.7,349.1,0,226.9,0
	S5,93.7,0.5,211H80.6z"/>
<path class="st1" d="M226.5,77.5c-78,0-141.7,59.1-145.8,133.5h24.6c4.2-61.3,56.9-109.8,121.3-109.8S343.6,149.7,347.8,211h24.5
	C368.1,136.6,304.4,77.5,226.5,77.5z"/>
<path class="st2" d="M226.5,101.2c-64.4,0-117.1,48.5-121.3,109.8h24.6c4.2-48.2,45.9-86,96.7-86s92.5,37.8,96.7,86h24.5
	C343.6,149.7,290.9,101.2,226.5,101.2z"/>
<path class="st3" d="M226.6,125c-50.8,0-92.5,37.8-96.7,86h23.8c4.1-35.5,35.3-63.1,73.1-63.1c37.8,0,68.9,27.6,73.1,63.1h23.5
	C319.1,162.8,277.4,125,226.6,125z"/>
<path class="st3" d="M226.7,147.9c-37.8,0-68.9,27.6-73.1,63.1h24.8c4-22.3,24.1-39.3,48.3-39.3s44.3,17,48.3,39.3h24.7
	C295.7,175.5,264.5,147.9,226.7,147.9z"/>
<path class="st4" d="M226.8,171.7c-24.2,0-44.3,17-48.3,39.3h14.9c3.8-14.5,17.4-25.2,33.6-25.2s29.8,10.7,33.6,25.2h14.4
	C271.1,188.7,251,171.7,226.8,171.7z"/>
<path class="st5" d="M227,185.8c-16.2,0-29.8,10.7-33.6,25.2h13.2c3.2-7.6,10.9-12.9,19.9-12.9s16.7,5.3,19.9,12.9h14.3
	C256.8,196.5,243.2,185.8,227,185.8z"/>
<path class="st6" d="M226.5,198.1c-9,0-16.7,5.3-19.9,12.9h14.5c1.7-1.2,3.7-1.9,6-1.9s4.3,0.7,6,1.9h13.3
	C243.2,203.4,235.5,198.1,226.5,198.1z"/>
<path class="st7" d="M221.1,211h12c-1.7-1.2-3.7-1.9-6-1.9S222.8,209.8,221.1,211z"/>
</svg>
