<svg width="52" height="52" viewBox="0 0 52 52" fill="none" xmlns="http://www.w3.org/2000/svg">
<path d="M31.2872 32.1139L27.2917 43.1017C27.1938 43.3653 27.0176 43.5927 26.7867 43.7533C26.5558 43.9139 26.2813 44 26 44C25.7187 44 25.4442 43.9139 25.2133 43.7533C24.9824 43.5927 24.8062 43.3653 24.7083 43.1017L20.7128 32.1139C20.643 31.9245 20.5329 31.7525 20.3902 31.6098C20.2475 31.4671 20.0755 31.357 19.8861 31.2872L8.89833 27.2917C8.63466 27.1938 8.40725 27.0176 8.24666 26.7867C8.08608 26.5558 8 26.2813 8 26C8 25.7187 8.08608 25.4442 8.24666 25.2133C8.40725 24.9824 8.63466 24.8062 8.89833 24.7083L19.8861 20.7128C20.0755 20.643 20.2475 20.5329 20.3902 20.3902C20.5329 20.2475 20.643 20.0755 20.7128 19.8861L24.7083 8.89833C24.8062 8.63466 24.9824 8.40725 25.2133 8.24666C25.4442 8.08608 25.7187 8 26 8C26.2813 8 26.5558 8.08608 26.7867 8.24666C27.0176 8.40725 27.1938 8.63466 27.2917 8.89833L31.2872 19.8861C31.357 20.0755 31.4671 20.2475 31.6098 20.3902C31.7525 20.5329 31.9245 20.643 32.1139 20.7128L43.1017 24.7083C43.3653 24.8062 43.5927 24.9824 43.7533 25.2133C43.9139 25.4442 44 25.7187 44 26C44 26.2813 43.9139 26.5558 43.7533 26.7867C43.5927 27.0176 43.3653 27.1938 43.1017 27.2917L32.1139 31.2872C31.9245 31.357 31.7525 31.4671 31.6098 31.6098C31.4671 31.7525 31.357 31.9245 31.2872 32.1139Z" stroke="#D53A94" stroke-width="3" stroke-linecap="round" stroke-linejoin="round"/>
</svg>
