<svg width="22" height="20" viewBox="0 0 22 20" fill="none" xmlns="http://www.w3.org/2000/svg">
<path d="M21.1872 0.53987L0.382394 8.54745C0.269338 8.59103 0.172227 8.66786 0.103936 8.76775C0.0356461 8.86765 -0.000598519 8.98589 7.47672e-06 9.10681C0.000613473 9.22773 0.0380415 9.3456 0.10733 9.44481C0.176618 9.54402 0.274493 9.61988 0.387981 9.66232L5.45788 11.5499L7.41978 17.8455C7.44884 17.9386 7.50033 18.0231 7.56976 18.0916C7.63918 18.1602 7.72441 18.2108 7.81796 18.2388C7.91152 18.2669 8.01055 18.2716 8.10637 18.2526C8.20219 18.2336 8.29187 18.1914 8.36755 18.1298L11.1934 15.8304C11.3374 15.713 11.5163 15.6466 11.7022 15.6414C11.8881 15.6363 12.0704 15.6927 12.2208 15.8018L17.3193 19.4948C17.4 19.5534 17.4941 19.5908 17.593 19.6038C17.6919 19.6167 17.7925 19.6047 17.8856 19.5689C17.9786 19.5331 18.0612 19.4745 18.1258 19.3987C18.1904 19.3228 18.2349 19.232 18.2552 19.1346L21.9876 1.21716C22.0094 1.11225 22.0024 1.00344 21.9674 0.902164C21.9324 0.800885 21.8707 0.710872 21.7889 0.641582C21.707 0.572292 21.6079 0.526281 21.502 0.508384C21.3962 0.490487 21.2874 0.501362 21.1872 0.53987ZM17.5924 4.84189L9.41589 12.4244C9.12807 12.6915 8.94238 13.0502 8.89067 13.439L8.6113 15.498C8.60326 15.556 8.5755 15.6095 8.53266 15.6496C8.48983 15.6896 8.43451 15.7138 8.37596 15.718C8.31741 15.7223 8.25917 15.7063 8.21098 15.6729C8.1628 15.6394 8.12758 15.5905 8.11122 15.5342L7.03983 11.7792C6.9805 11.5707 6.99095 11.3485 7.0696 11.1464C7.14825 10.9444 7.29081 10.7734 7.47565 10.6594L17.3836 4.57153C17.4198 4.55053 17.4624 4.54338 17.5035 4.55143C17.5446 4.55947 17.5814 4.58216 17.607 4.61526C17.6325 4.64836 17.6451 4.6896 17.6425 4.73131C17.6398 4.77301 17.622 4.81231 17.5924 4.84189Z" fill="white"/>
</svg>
