<?xml version="1.0" encoding="utf-8"?>
<!-- Generator: Adobe Illustrator 26.0.1, SVG Export Plug-In . SVG Version: 6.00 Build 0)  -->
<svg version="1.1" id="Layer_1" xmlns="http://www.w3.org/2000/svg" xmlns:xlink="http://www.w3.org/1999/xlink" x="0px" y="0px"
	 viewBox="0 0 102 102" style="enable-background:new 0 0 102 102;" xml:space="preserve">
<style type="text/css">
	.st0{fill:#FFC6E1;}
	.st1{clip-path:url(#SVGID_00000182522180391963767500000015353542362945450900_);}
	.st2{fill:#FF007A;}
	.st3{fill-rule:evenodd;clip-rule:evenodd;fill:#FF007A;}
	.st4{fill:url(#SVGID_00000111181652571048122690000013787834000767829632_);}
	.st5{clip-path:url(#SVGID_00000177476944527057181250000015093550416822880901_);}
	.st6{fill:#FFFFFF;filter:url(#Adobe_OpacityMaskFilter);}
	.st7{mask:url(#mask0_8769_19129_00000011010155234257364090000003314807428512817586_);}
	.st8{fill:url(#SVGID_00000010992861131406043550000017916273710386924449_);}
	.st9{fill:url(#SVGID_00000136404876234595340500000013814392072522913178_);}
	.st10{fill:url(#SVGID_00000145028240919818214380000017893585303552870295_);}
	.st11{fill:#0E0F23;}
	.st12{fill-rule:evenodd;clip-rule:evenodd;fill:#FFFFFF;}
	.st13{fill:#FFFFFF;}
</style>
<path class="st0" d="M32,0h38c17.7,0,32,14.3,32,32v38c0,17.7-14.3,32-32,32H32C14.3,102,0,87.7,0,70V32C0,14.3,14.3,0,32,0z"/>
<g>
	<defs>
		<rect id="SVGID_1_" x="16.5" y="11" width="69" height="80"/>
	</defs>
	<clipPath id="SVGID_00000142865837923381064490000012018498039207757731_">
		<use xlink:href="#SVGID_1_"  style="overflow:visible;"/>
	</clipPath>
	<g style="clip-path:url(#SVGID_00000142865837923381064490000012018498039207757731_);">
		<path class="st2" d="M43.6,29.2c-0.9-0.1-0.9-0.2-0.5-0.2c0.8-0.1,2.6,0,3.9,0.3c3,0.7,5.6,2.5,8.4,5.7l0.7,0.9l1.1-0.2
			c4.6-0.7,9.2-0.2,13.1,1.7c1.1,0.5,2.7,1.5,3,1.7c0.1,0.1,0.2,0.6,0.3,1.2c0.3,1.9,0.2,3.4-0.5,4.5c-0.3,0.6-0.3,0.8-0.1,1.3
			c0.2,0.4,0.7,0.7,1.1,0.7c1,0,2-1.6,2.5-3.8l0.2-0.9l0.4,0.4c2.1,2.4,3.7,5.6,4,7.9l0.1,0.6l-0.4-0.5c-0.6-0.9-1.2-1.6-2-2.1
			c-1.4-0.9-2.9-1.2-6.8-1.4c-3.5-0.2-5.5-0.5-7.5-1.2c-3.4-1.1-5.1-2.6-9.1-7.9c-1.8-2.4-2.9-3.6-4-4.7
			C49.1,30.9,46.7,29.7,43.6,29.2z"/>
		<path class="st2" d="M74.1,34.4c0.1-1.6,0.3-2.6,0.7-3.6c0.2-0.4,0.3-0.7,0.4-0.7c0,0,0,0.3-0.2,0.6c-0.3,0.9-0.4,2.2-0.2,3.6
			c0.3,1.9,0.4,2.1,2.4,4.1c0.9,0.9,2,2.1,2.4,2.6l0.7,0.9l-0.7-0.7c-0.9-0.8-2.8-2.4-3.3-2.6c-0.3-0.2-0.3-0.2-0.5,0
			c-0.2,0.2-0.2,0.4-0.2,1.6c0,1.9-0.3,3-0.9,4.2c-0.3,0.6-0.4,0.5-0.1-0.2c0.2-0.5,0.2-0.8,0.2-2.6c0-3.6-0.4-4.5-2.9-5.9
			c-0.6-0.4-1.7-0.9-2.3-1.2c-0.7-0.3-1.1-0.5-1.1-0.5c0.1-0.1,2.5,0.6,3.4,1c1.4,0.6,1.7,0.6,1.8,0.6C74,35.8,74.1,35.5,74.1,34.4z
			"/>
		<path class="st2" d="M45.2,40.6c-1.7-2.4-2.8-6.1-2.6-8.9l0.1-0.9l0.4,0.1c0.7,0.1,2,0.6,2.6,1c1.6,1,2.4,2.4,3.1,5.7
			c0.2,1,0.5,2.1,0.6,2.5c0.2,0.6,1,2.1,1.6,3c0.5,0.7,0.2,1-0.9,0.9C48.7,43.9,46.6,42.5,45.2,40.6z"/>
		<path class="st2" d="M72,58.6c-8.1-3.3-11-6.2-11-11c0-0.7,0-1.3,0-1.3c0,0,0.3,0.2,0.7,0.5c1.6,1.3,3.5,1.9,8.6,2.6
			c3,0.5,4.7,0.8,6.3,1.3c5,1.7,8,5,8.8,9.6c0.2,1.3,0.1,3.8-0.2,5.2c-0.3,1-1.1,2.9-1.3,3c0,0-0.1-0.2-0.1-0.5
			c-0.1-1.7-0.9-3.4-2.4-4.7C79.6,61.9,77.4,60.7,72,58.6z"/>
		<path class="st2" d="M66.3,59.9c-0.1-0.6-0.3-1.4-0.4-1.7l-0.2-0.6L66,58c0.5,0.6,0.9,1.4,1.3,2.4c0.3,0.8,0.3,1,0.3,2.3
			c0,1.2,0,1.5-0.3,2.2c-0.4,1.1-0.9,1.9-1.7,2.8c-1.5,1.5-3.4,2.4-6.1,2.7c-0.5,0-1.9,0.2-3.1,0.2c-3.1,0.2-5.1,0.5-7,1.2
			c-0.2,0.1-0.5,0.2-0.5,0.1c-0.1-0.1,1.2-0.8,2.2-1.3c1.4-0.7,2.9-1.1,6.1-1.7c1.6-0.2,3.2-0.6,3.6-0.7
			C64.9,67,66.9,63.8,66.3,59.9z"/>
		<path class="st2" d="M70,66.6c-1.1-2.4-1.3-4.6-0.7-6.7c0.1-0.2,0.2-0.4,0.2-0.4c0.1,0,0.3,0.1,0.6,0.3c0.5,0.3,1.5,0.9,4.1,2.4
			c3.3,1.8,5.2,3.2,6.5,4.8c1.1,1.4,1.8,3,2.2,5c0.2,1.1,0.1,3.8-0.2,4.9c-0.9,3.5-3,6.3-5.9,7.9c-0.5,0.2-0.8,0.4-0.9,0.4
			s0.1-0.4,0.4-0.9c1-2.1,1.1-4.1,0.4-6.4c-0.5-1.4-1.4-3.1-3.3-5.9C71.1,68.6,70.6,67.8,70,66.6z"/>
		<path class="st2" d="M39.5,79.2c3-2.6,6.8-4.4,10.2-5c1.5-0.2,3.9-0.2,5.3,0.2c2.2,0.6,4.1,1.8,5.2,3.3c1,1.5,1.4,2.8,1.9,5.6
			c0.2,1.1,0.4,2.3,0.4,2.5c0.3,1.5,1,2.6,1.8,3.3c1.3,0.9,3.5,1,5.7,0.2c0.4-0.1,0.7-0.2,0.7-0.2c0.1,0.1-1,0.8-1.8,1.2
			c-1,0.5-1.8,0.7-3,0.7c-2,0-3.6-1-5-3.1c-0.3-0.4-0.9-1.6-1.4-2.7c-1.4-3.3-2.2-4.3-3.9-5.4c-1.5-0.9-3.4-1.2-4.8-0.5
			c-1.9,0.9-2.4,3.3-1.1,4.8c0.5,0.6,1.5,1.1,2.3,1.2c1.5,0.2,2.8-1,2.8-2.5c0-1-0.4-1.6-1.4-2c-1.3-0.6-2.7,0.1-2.7,1.4
			c0,0.5,0.2,0.9,0.8,1.1c0.3,0.2,0.3,0.2,0.1,0.1c-1.2-0.2-1.5-1.7-0.5-2.7c1.1-1.2,3.6-0.7,4.4,0.9c0.3,0.7,0.4,2,0.1,2.8
			C55,86.3,53,87.3,51,86.7c-1.4-0.4-1.9-0.7-3.6-2.4c-2.9-3-4-3.6-8.1-4.2L38.6,80L39.5,79.2z"/>
		<path class="st3" d="M17.9,12.8c9.6,11.7,24.3,29.8,25,30.8c0.6,0.8,0.4,1.6-0.7,2.2c-0.6,0.3-1.8,0.7-2.3,0.7
			c-0.7,0-1.4-0.3-2-0.9c-0.4-0.4-2-2.7-5.6-8.4c-2.7-4.3-5.1-7.9-5.1-8c-0.2-0.1-0.2-0.1,4.8,8.9c3.2,5.7,4.2,7.7,4.2,7.9
			c0,0.5-0.2,0.8-0.8,1.6c-1.1,1.2-1.6,2.6-2,5.6c-0.4,3.3-1.5,5.6-4.7,9.5c-1.8,2.3-2.1,2.7-2.6,3.7c-0.6,1.2-0.7,1.8-0.8,3.3
			c-0.1,1.6,0.1,2.6,0.5,4c0.4,1.3,0.9,2.2,2,3.9c0.9,1.5,1.5,2.6,1.5,3c0,0.3,0.1,0.3,1.6,0c3.5-0.8,6.4-2.2,8-4
			c1-1.1,1.2-1.7,1.2-3.1c0-0.9,0-1.2-0.3-1.7c-0.4-0.9-1.2-1.7-2.9-2.8c-2.2-1.5-3.2-2.8-3.4-4.4c-0.2-1.4,0-2.4,1.3-5
			c1.3-2.7,1.6-3.8,1.8-6.5c0.1-1.7,0.3-2.4,0.8-3c0.5-0.6,1-0.8,2.3-0.9c2.1-0.3,3.4-0.8,4.5-1.9c0.9-0.9,1.4-1.7,1.4-3l0-0.9
			l-0.5-0.6C43.3,40.6,16.6,11,16.5,11C16.5,11,17.1,11.8,17.9,12.8z M30.5,71.5c0.5-0.8,0.2-1.8-0.5-2.3c-0.7-0.5-1.8-0.2-1.8,0.4
			c0,0.2,0.1,0.3,0.3,0.4c0.4,0.2,0.4,0.4,0.1,0.9c-0.3,0.5-0.3,0.9,0.1,1.2C29.3,72.5,30.1,72.2,30.5,71.5z"/>
		<path class="st3" d="M47.1,49.8c-1,0.3-1.9,1.4-2.2,2.4c-0.2,0.7-0.1,1.9,0.2,2.2c0.5,0.6,0.9,0.7,2,0.7c2.3,0,4.2-1,4.4-2.2
			c0.2-1-0.7-2.4-1.8-3C49,49.7,47.7,49.6,47.1,49.8z M49.7,51.8c0.3-0.5,0.2-1-0.4-1.4c-1.1-0.7-2.8-0.1-2.8,0.9
			c0,0.5,0.9,1.1,1.7,1.1C48.7,52.5,49.5,52.2,49.7,51.8z"/>
	</g>
</g>
<linearGradient id="SVGID_00000179605516872250379410000018246381596080888246_" gradientUnits="userSpaceOnUse" x1="47.0347" y1="62.3258" x2="74.0347" y2="-1.1742" gradientTransform="matrix(1 0 0 -1 0 104)">
	<stop  offset="0" style="stop-color:#0E1525"/>
	<stop  offset="1" style="stop-color:#1A3464"/>
</linearGradient>
<path style="fill:url(#SVGID_00000179605516872250379410000018246381596080888246_);" d="M32,0h38c17.7,0,32,14.3,32,32v38
	c0,17.7-14.3,32-32,32H32C14.3,102,0,87.7,0,70V32C0,14.3,14.3,0,32,0z"/>
<g>
	<defs>
		<rect id="SVGID_00000152235259153859597590000006943361141265209485_" x="18.5" y="18.5" width="65" height="65"/>
	</defs>
	<clipPath id="SVGID_00000147204142194645673740000013246731410184071854_">
		<use xlink:href="#SVGID_00000152235259153859597590000006943361141265209485_"  style="overflow:visible;"/>
	</clipPath>
	<g style="clip-path:url(#SVGID_00000147204142194645673740000013246731410184071854_);">
		<defs>
			<filter id="Adobe_OpacityMaskFilter" filterUnits="userSpaceOnUse" x="18.7" y="21.3" width="64.8" height="59.6">
				<feColorMatrix  type="matrix" values="1 0 0 0 0  0 1 0 0 0  0 0 1 0 0  0 0 0 1 0"/>
			</filter>
		</defs>
		
			<mask maskUnits="userSpaceOnUse" x="18.7" y="21.3" width="64.8" height="59.6" id="mask0_8769_19129_00000011010155234257364090000003314807428512817586_">
			<path class="st6" d="M83.5,18.5h-65v65h65V18.5z"/>
		</mask>
		<g class="st7">
			
				<linearGradient id="SVGID_00000133496114344989296130000006776257650911683237_" gradientUnits="userSpaceOnUse" x1="41.9203" y1="84.1647" x2="51.91" y2="49.8614" gradientTransform="matrix(1 0 0 -1 0 104)">
				<stop  offset="0" style="stop-color:#03B8FF"/>
				<stop  offset="1" style="stop-color:#FA52A0"/>
			</linearGradient>
			<path style="fill:url(#SVGID_00000133496114344989296130000006776257650911683237_);" d="M32,24.7l50.4,34.4L70,77.5L19.6,42.9
				L32,24.7z"/>
			
				<linearGradient id="SVGID_00000142894408659332899540000008616410439131115919_" gradientUnits="userSpaceOnUse" x1="50.1033" y1="86.5483" x2="60.095" y2="52.245" gradientTransform="matrix(1 0 0 -1 0 104)">
				<stop  offset="0" style="stop-color:#03B8FF"/>
				<stop  offset="1" style="stop-color:#FA52A0"/>
			</linearGradient>
			<path style="fill:url(#SVGID_00000142894408659332899540000008616410439131115919_);" d="M82.4,59.1c-4.3,6.2-19,3.8-32.8-6
				C35.6,43.7,28,31,32,24.7c4.3-6.2,19-3.8,32.8,6C78.9,39.9,86.5,52.9,82.4,59.1z"/>
			
				<linearGradient id="SVGID_00000126293187713429869910000015906079852024383417_" gradientUnits="userSpaceOnUse" x1="33.8337" y1="81.8094" x2="43.8232" y2="47.5061" gradientTransform="matrix(1 0 0 -1 0 104)">
				<stop  offset="0" style="stop-color:#03B8FF"/>
				<stop  offset="1" style="stop-color:#FA52A0"/>
			</linearGradient>
			<path style="fill:url(#SVGID_00000126293187713429869910000015906079852024383417_);" d="M70,77.3c-4.3,6.2-19,3.8-32.8-6
				c-13.8-9.8-21.7-22.2-17.3-28.7c4.3-6.2,19-3.8,32.8,6C66.4,58.3,74,71,70,77.3z"/>
			<path class="st11" d="M82.4,59.1L70,77.5c-4.3,6.2-19,3.5-32.8-6c-2.7-1.9-4.7-3.8-7.1-5.9c1.9-0.3,3.9-1.4,6.3-4.1
				c4.3-4.6,6.5-5.7,8.4-5.4c1.9,0,4.1,1.9,7.6,6.5c3.5,4.6,8.4,6,11.4,3.5c0.3-0.3,0.5-0.3,0.8-0.5c2.4-1.9,3.2-2.7,7.9-11.4
				c1.1-2.2,4.9-5.7,10-4.1C83.8,53.7,83.8,56.7,82.4,59.1z"/>
			<path class="st12" d="M80.5,58c-3.8,5.4-17.1,2.7-29.8-6.2c-13-8.9-20.6-20.3-16.8-25.7s17.1-2.7,29.8,6.2
				C76.5,41.2,84,52.6,80.5,58L80.5,58z M68.6,49.9c-1.9,2.7-8.4,1.4-14.9-3c-6.2-4.3-10-10-8.1-12.7c1.9-2.7,8.4-1.4,14.9,3
				C66.7,41.5,70.5,47.2,68.6,49.9z"/>
		</g>
		<path class="st13" d="M30.4,33.7c0-0.2,0-0.5,0.3-0.5c0.3,0,0.6,0.1,0.6,0.4c0.3,1.3,0.8,2.6,1.4,3.8c1.4,2.9,3.4,5.4,5.6,7.8
			c2,2.2,4.1,4.1,6.3,6.1c0.2,0.2,0.3,0.4,0.5,0.5c0.3,0.2,0.2,0.5,0,0.7c-0.2,0.2-0.5,0.2-0.7,0c-0.6-0.5-1.2-1-1.7-1.5
			c-2.6-2.3-5-4.7-7.2-7.4c-2.2-2.8-4.1-5.8-5.1-9.3C30.5,34,30.4,33.7,30.4,33.7L30.4,33.7z"/>
		<path class="st13" d="M67.5,62.9c0.3,0.1,0.5,0.3,0.4,0.7c-0.1,0.4-0.4,0.3-0.7,0.3c-0.2,0-1.2-0.3-1.6-0.4
			c-0.4-0.1-0.5-0.3-0.4-0.7c0.1-0.3,0.4-0.3,0.7-0.2C66.4,62.7,66.9,62.8,67.5,62.9L67.5,62.9z"/>
		<path class="st13" d="M31,31.3c0,0.1,0,0.2,0,0.3c0,0.3,0,0.5-0.4,0.5c-0.3,0-0.6-0.2-0.6-0.5c0-0.3,0-0.6,0-0.9
			c0-0.3,0.2-0.5,0.5-0.5c0.3,0,0.5,0.2,0.5,0.5C31,31,31,31.1,31,31.3z"/>
		<path class="st13" d="M73.1,64.6c-1.4,0-2.6-0.1-3.8-0.3c-0.3-0.1-0.6-0.2-0.5-0.6c0-0.4,0.3-0.4,0.6-0.4c0.7,0.1,1.5,0.2,2.2,0.2
			c1,0.1,2,0.1,3,0c0.4-0.1,0.8,0,1.2,0c0.3,0,0.3,0.2,0.3,0.5c0,0.4-0.3,0.5-0.6,0.5C74.7,64.5,73.9,64.8,73.1,64.6L73.1,64.6z"/>
	</g>
</g>
</svg>
