<svg width="35" height="25" viewBox="0 0 35 25" fill="none" xmlns="http://www.w3.org/2000/svg">
<path d="M29.6485 2.09371C27.349 1.10154 24.9214 0.397647 22.4277 0C22.087 0.575156 21.7783 1.16662 21.5028 1.772C18.8465 1.39602 16.1455 1.39602 13.4892 1.772C13.2136 1.16662 12.9049 0.575156 12.5642 0C10.0693 0.402206 7.64024 1.10773 5.33791 2.0989C0.768146 8.47084 -0.470645 14.6845 0.148751 20.81C2.82463 22.6739 5.82011 24.0911 9.00473 25C9.72153 24.091 10.356 23.1268 10.9015 22.1176C9.86586 21.7532 8.86637 21.3035 7.9146 20.7737C8.16511 20.6024 8.41012 20.426 8.64686 20.2548C11.4165 21.4823 14.4395 22.1188 17.5001 22.1188C20.5607 22.1188 23.5837 21.4823 26.3533 20.2548C26.5928 20.439 26.8378 20.6154 27.0856 20.7737C26.1323 21.3049 25.1309 21.7555 24.0932 22.1202C24.6377 23.1291 25.2722 24.0925 25.9899 25C29.1773 24.0948 32.1751 22.6782 34.8514 20.8126C35.5782 13.709 33.6099 7.55241 29.6485 2.09371ZM11.686 17.0429C9.95998 17.0429 8.53399 15.5666 8.53399 13.7505C8.53399 11.9344 9.91043 10.4452 11.6805 10.4452C13.4506 10.4452 14.8656 11.9344 14.8353 13.7505C14.805 15.5666 13.4451 17.0429 11.686 17.0429ZM23.3142 17.0429C21.5854 17.0429 20.1649 15.5666 20.1649 13.7505C20.1649 11.9344 21.5413 10.4452 23.3142 10.4452C25.087 10.4452 26.491 11.9344 26.4607 13.7505C26.4304 15.5666 25.0732 17.0429 23.3142 17.0429Z" fill="white"/>
</svg>
