<svg width="86" height="65" viewBox="0 0 86 65" fill="none" xmlns="http://www.w3.org/2000/svg">
<path d="M1.36724 26.1321C1.542 23.9875 3.38947 22.3981 5.49491 22.5761L6.6683 22.6778C8.77374 22.8558 10.3341 24.7377 10.1593 26.8823L8.95682 41.5388C8.78206 43.6834 6.9346 45.2728 4.82916 45.0948L3.65577 44.9931C1.55032 44.815 -0.0100356 42.9332 0.164725 40.7886L1.36724 26.1321Z" fill="white"/>
<path d="M83.9373 26.1321C83.7625 23.9875 81.9151 22.3981 79.8096 22.5761L78.6362 22.6778C76.5308 22.8558 74.9704 24.7377 75.1452 26.8823L76.3477 41.5388C76.5225 43.6834 78.3699 45.2728 80.4754 45.0948L81.6488 44.9931C83.7542 44.815 85.3146 42.9332 85.1398 40.7886L83.9373 26.1321Z" fill="white"/>
<path fill-rule="evenodd" clip-rule="evenodd" d="M76.5848 52.5033C78.8816 48.7057 79.9926 44.5945 79.9926 36.9738C79.9926 12.3105 65.7122 0.0869141 42.5981 0.0869141C17.3411 0.0869141 5.2036 12.3105 5.21192 36.9696C5.21192 45.6625 6.65993 50.1722 9.65998 54.008C15.1732 61.0564 25.9335 64.0869 42.6023 64.0869C60.3862 64.0869 71.446 60.9886 76.5848 52.5033ZM21.6957 15.7941C18.382 15.7941 15.6957 18.4804 15.6957 21.7941V41.8299C15.6957 45.1436 18.382 47.8299 21.6957 47.8299H64.3045C67.6182 47.8299 70.3045 45.1436 70.3045 41.8299V21.7941C70.3045 18.4804 67.6182 15.7941 64.3045 15.7941H21.6957Z" fill="white"/>
<path d="M38.2426 30.2819L31.0026 24.1307C30.1808 23.4324 28.9507 23.5353 28.2552 24.3605C27.5598 25.1858 27.6623 26.4208 28.4842 27.119L33.9656 31.7761L28.4842 36.4332C27.6623 37.1314 27.5599 38.3664 28.2552 39.1917C28.9523 40.0187 30.1828 40.118 31.0026 39.4214L38.2426 33.2702C39.1637 32.4877 39.1611 31.0622 38.2426 30.2819Z" fill="white"/>
<path d="M57.1449 35.9702H48.3732C47.2966 35.9702 46.4238 36.8465 46.4238 37.9275C46.4238 39.0086 47.2966 39.8848 48.3732 39.8848H57.1449C58.2214 39.8848 59.0942 39.0086 59.0942 37.9275C59.0942 36.8465 58.2215 35.9702 57.1449 35.9702Z" fill="white"/>
</svg>
