<svg width="196" height="196" viewBox="0 0 196 196" fill="none" xmlns="http://www.w3.org/2000/svg">
<rect x="52.46" y="27.2601" width="118.979" height="118.979" rx="41.9632" transform="rotate(12.2283 52.46 27.2601)" fill="url(#paint0_linear_17_261)"/>
<g style="mix-blend-mode:color-dodge" opacity="0.5" filter="url(#filter0_f_17_261)">
<path fill-rule="evenodd" clip-rule="evenodd" d="M46.8228 58.8312C55.6882 44.4219 72.9731 36.4613 90.4462 40.2481L128.627 48.5229C146.642 52.4271 159.305 67.615 160.809 85.0661C161.054 65.5334 147.561 47.8707 127.729 43.5726L93.4707 36.1481C74.1589 31.9628 55.0718 41.8013 46.8228 58.8312Z" fill="url(#paint1_linear_17_261)"/>
</g>
<path d="M96.0344 72.5163C95.2729 72.2239 95.244 72.1775 95.6275 72.2248C96.3657 72.273 97.9809 72.7991 99.0829 73.3282C101.636 74.5852 103.694 76.805 105.619 80.3087L106.113 81.2573L107.122 81.3272C111.439 81.5908 115.592 83.0918 118.775 85.5671C119.647 86.243 120.977 87.501 121.113 87.7708C121.171 87.8636 121.172 88.3815 121.135 88.8908C120.993 90.7304 120.579 92.0303 119.785 92.9251C119.356 93.4251 119.321 93.5765 119.397 94.1115C119.461 94.5242 119.851 94.8915 120.263 94.9852C121.163 95.1896 122.427 93.9633 123.333 92.0584L123.701 91.3056L123.952 91.761C125.374 94.354 126.194 97.6864 125.937 99.8583L125.883 100.443L125.658 99.8744C125.293 98.8757 124.897 98.1884 124.297 97.5343C123.22 96.3737 121.931 95.802 118.412 94.8037C115.231 93.882 113.454 93.1996 111.792 92.1849C108.95 90.4641 107.676 88.7809 105.149 83.0695C104.028 80.5447 103.282 79.1407 102.494 77.9262C100.772 75.2651 98.818 73.6265 96.0344 72.5163Z" fill="#FF007A"/>
<path d="M122.873 83.67C123.275 82.2479 123.677 81.3437 124.287 80.5663C124.515 80.2596 124.734 79.9907 124.771 79.9992C124.808 80.0077 124.673 80.2558 124.492 80.5332C124.003 81.2982 123.699 82.4637 123.585 83.8318C123.46 85.5956 123.521 85.8484 124.899 88.1128C125.526 89.1712 126.252 90.4909 126.523 91.0305L126.971 92.0085L126.472 91.2577C125.856 90.3215 124.384 88.4736 124.014 88.1906C123.786 87.9795 123.749 87.971 123.518 88.1178C123.334 88.2352 123.245 88.4539 122.995 89.5522C122.571 91.2479 122.105 92.2572 121.293 93.2277C120.864 93.7276 120.853 93.6055 121.261 93.0213C121.56 92.5716 121.65 92.3528 122.019 90.7244C122.768 87.4296 122.574 86.5491 120.588 84.7042C120.103 84.2356 119.24 83.5219 118.738 83.129C118.198 82.7277 117.8 82.3983 117.837 82.4068C117.929 82.3481 119.995 83.4943 120.771 84.0689C121.963 84.8971 122.18 84.9861 122.338 84.9823C122.476 84.8942 122.62 84.6083 122.873 83.67Z" fill="#FF007A"/>
<path d="M95.197 83.3179C94.1213 80.7637 93.8832 77.1253 94.6845 74.6391L94.9402 73.8608L95.2979 74.0217C95.9469 74.2886 97.0059 75.007 97.4908 75.4756C98.784 76.7251 99.175 78.1282 99.1069 81.3784C99.0879 82.3299 99.1095 83.4499 99.1446 83.8163C99.203 84.4269 99.6142 85.9142 100.025 86.8836C100.3 87.5833 99.9684 87.8266 99.0483 87.538C97.6581 87.0629 96.0471 85.3031 95.197 83.3179Z" fill="#FF007A"/>
<path d="M115.937 105.353C109.202 100.638 107.171 97.4284 108.178 92.9974C108.324 92.3536 108.482 91.8319 108.482 91.8319C108.519 91.8405 108.73 92.1273 109.007 92.469C110.232 94.0215 111.798 94.9349 116.33 96.6811C118.972 97.7193 120.478 98.38 121.791 99.1959C125.983 101.741 128.089 105.485 127.809 109.842C127.722 111.097 127.084 113.381 126.509 114.525C126.032 115.412 124.886 116.984 124.69 116.979C124.653 116.971 124.621 116.764 124.69 116.461C124.976 114.854 124.533 113.16 123.487 111.688C122.222 109.967 120.43 108.485 115.937 105.353Z" fill="#FF007A"/>
<path d="M110.404 105.411C110.458 104.826 110.434 104.064 110.391 103.735L110.332 103.124L110.575 103.618C110.933 104.296 111.153 105.063 111.276 106.087C111.375 106.866 111.323 107.093 111.056 108.267C110.798 109.403 110.701 109.66 110.33 110.253C109.722 111.19 109.109 111.807 108.179 112.432C106.511 113.527 104.577 113.884 101.987 113.654C101.529 113.59 100.228 113.414 99.0863 113.234C96.2401 112.747 94.2967 112.624 92.472 112.847C92.2298 112.872 91.9877 112.896 91.9588 112.85C91.901 112.757 93.2181 112.34 94.2586 112.098C95.717 111.752 97.1441 111.718 100.226 111.861C101.74 111.965 103.309 112.003 103.718 111.937C107.696 111.606 110.195 109.107 110.404 105.411Z" fill="#FF007A"/>
<path d="M112.431 112.283C111.946 109.903 112.186 107.806 113.149 105.994C113.267 105.822 113.385 105.65 113.46 105.667C113.535 105.684 113.735 105.848 113.925 106.051C114.306 106.456 115.123 107.199 117.221 109.07C119.88 111.426 121.312 113.105 122.176 114.855C122.933 116.381 123.235 118.002 123.122 119.888C123.077 120.954 122.406 123.39 121.911 124.353C120.355 127.384 117.896 129.534 114.823 130.389C114.359 130.523 113.987 130.597 113.95 130.589C113.912 130.58 114.148 130.236 114.477 129.832C115.815 128.105 116.349 126.275 116.147 124.039C116.027 122.658 115.518 120.909 114.387 117.904C113.013 114.406 112.706 113.5 112.431 112.283Z" fill="#FF007A"/>
<path d="M81.8686 117.527C85.1763 115.809 88.9664 114.918 92.2361 115.103C93.6374 115.182 95.8696 115.769 97.0294 116.391C98.896 117.372 100.437 118.917 101.056 120.532C101.647 122.099 101.792 123.367 101.611 126.074C101.529 127.13 101.475 128.233 101.461 128.469C101.452 129.901 101.811 131.097 102.431 131.836C103.396 132.971 105.412 133.468 107.571 133.162C107.934 133.125 108.26 133.08 108.251 133.118C108.309 133.21 107.142 133.662 106.389 133.85C105.34 134.129 104.556 134.11 103.544 133.88C101.744 133.472 100.422 132.176 99.6152 130.001C99.4387 129.563 99.1633 128.345 98.9457 127.221C98.3303 123.855 97.8619 122.793 96.5571 121.421C95.4052 120.244 93.7237 119.662 92.2653 120.008C90.3514 120.45 89.394 122.582 90.284 124.218C90.6424 124.897 91.4389 125.555 92.163 125.839C93.5071 126.344 94.9563 125.518 95.2746 124.117C95.481 123.208 95.264 122.601 94.4589 121.98C93.3796 121.177 91.9298 121.485 91.7006 122.668C91.5888 123.16 91.7449 123.514 92.1807 123.852C92.4462 124.072 92.4462 124.072 92.2298 123.983C91.1942 123.508 91.2415 122.086 92.3016 121.41C93.5922 120.588 95.7009 121.545 96.1153 123.193C96.2776 123.867 96.0398 125.087 95.6053 125.785C94.5895 127.306 92.592 127.769 90.8668 126.859C89.707 126.237 89.2596 125.777 88.1127 123.884C86.1077 120.561 85.2158 119.801 81.5958 118.381L80.9093 118.106L81.8686 117.527Z" fill="#FF007A"/>
<path fill-rule="evenodd" clip-rule="evenodd" d="M75.989 52.113C82.2899 64.8147 91.9642 84.5352 92.4326 85.5974C92.8229 86.4826 92.4345 87.151 91.3768 87.4683C90.7831 87.6521 89.6271 87.7081 89.1022 87.5889C88.5023 87.4526 87.8588 86.9879 87.4833 86.3848C87.2233 85.9673 86.2515 83.4766 84.1308 77.5388C82.5221 72.9918 81.1335 69.2116 81.1046 69.1652C80.9719 69.0554 80.9719 69.0554 83.6705 78.3502C85.3788 84.1943 85.8945 86.2629 85.8429 86.4901C85.7311 86.9825 85.5209 87.2135 84.7662 87.7589C83.4959 88.6652 82.7535 89.8506 81.8054 92.4628C80.7509 95.3695 79.2569 97.2604 75.5529 100.202C73.3841 101.94 73.0357 102.259 72.4254 103.036C71.6597 103.978 71.3721 104.55 70.9874 105.896C70.5855 107.318 70.5291 108.261 70.6318 109.718C70.7314 111.015 70.9632 111.904 71.6227 113.687C72.1753 115.246 72.468 116.388 72.3819 116.766C72.3131 117.069 72.3881 117.086 73.8066 117.09C77.2028 117.065 80.1572 116.382 81.9806 115.123C83.104 114.343 83.4494 113.864 83.7591 112.501C83.9569 111.63 83.9625 111.432 83.8579 110.85C83.6723 109.932 83.1148 109.089 81.8185 107.679C80.1123 105.818 79.5081 104.486 79.6272 102.92C79.7322 101.59 80.155 100.77 81.8217 98.6394C83.5431 96.4418 84.0752 95.4874 84.8304 93.0305C85.3042 91.4654 85.6379 90.8642 86.1996 90.474C86.8074 90.0545 87.2628 89.9589 88.4595 90.0714C90.4317 90.2406 91.7807 90.0292 92.9705 89.3039C94.0135 88.7044 94.569 87.9943 94.8732 86.8288L95.1085 85.9663L94.7416 85.3254C93.444 82.8801 75.1967 50.2205 75.0842 50.195C75.0467 50.1864 75.4831 51.0422 75.989 52.113ZM75.2664 108.58C75.8422 107.954 75.8237 106.994 75.2521 106.387C74.7094 105.825 73.6916 105.793 73.5626 106.361C73.5282 106.513 73.5688 106.681 73.7765 106.808C74.0709 107.074 74.0654 107.272 73.7083 107.629C73.3513 107.986 73.2652 108.365 73.5424 108.706C73.9727 109.242 74.7366 109.177 75.2664 108.58Z" fill="#FF007A"/>
<path fill-rule="evenodd" clip-rule="evenodd" d="M94.9749 92.1084C94.0149 92.1691 92.929 92.9579 92.4429 93.8829C92.1553 94.4548 91.9808 95.5701 92.1658 95.9705C92.4578 96.5944 92.7983 96.8311 93.848 97.0695C95.91 97.5379 97.8786 97.0292 98.3155 95.9735C98.7094 95.1072 98.206 93.6786 97.2477 92.8636C96.7542 92.4329 95.6178 92.0553 94.9749 92.1084ZM96.9442 94.5469C97.3474 94.1606 97.3467 93.6427 96.8618 93.1741C95.9958 92.3004 94.3382 92.4815 94.1146 93.4661C94.0027 93.9584 94.6696 94.6675 95.4194 94.8378C95.9068 94.9485 96.6505 94.7988 96.9442 94.5469Z" fill="#FF007A"/>
<defs>
<filter id="filter0_f_17_261" x="46.3459" y="34.7104" width="114.943" height="50.8326" filterUnits="userSpaceOnUse" color-interpolation-filters="sRGB">
<feFlood flood-opacity="0" result="BackgroundImageFix"/>
<feBlend mode="normal" in="SourceGraphic" in2="BackgroundImageFix" result="shape"/>
<feGaussianBlur stdDeviation="0.238427" result="effect1_foregroundBlur_17_261"/>
</filter>
<linearGradient id="paint0_linear_17_261" x1="111.95" y1="27.2601" x2="75.1218" y2="133.111" gradientUnits="userSpaceOnUse">
<stop stop-color="#212428"/>
<stop offset="0.937272" stop-color="#15171B"/>
</linearGradient>
<linearGradient id="paint1_linear_17_261" x1="62.4229" y1="38.9541" x2="160.179" y2="61.2343" gradientUnits="userSpaceOnUse">
<stop stop-color="#F3CCEB"/>
<stop offset="0.392952"/>
<stop offset="0.555099"/>
<stop offset="1" stop-color="#F7CDED"/>
</linearGradient>
</defs>
</svg>
