<svg width="84" height="71" viewBox="0 0 84 71" fill="none" xmlns="http://www.w3.org/2000/svg">
<path d="M1.20532 35.7104H74.0077" stroke="white" stroke-width="2" stroke-miterlimit="10"/>
<path d="M1.20532 61.5269H51.1184" stroke="white" stroke-width="2" stroke-miterlimit="10"/>
<path d="M55.8915 61.5269H61.6168" stroke="white" stroke-width="2" stroke-miterlimit="10"/>
<path d="M66.7395 61.5269H72.4649" stroke="white" stroke-width="2" stroke-miterlimit="10"/>
<path d="M78.7809 61.5269H82.7947" stroke="white" stroke-width="2" stroke-miterlimit="10"/>
<path d="M77.0693 35.7104H82.7947" stroke="white" stroke-width="2" stroke-miterlimit="10"/>
<rect x="1" y="7" width="82" height="7" rx="3.5" fill="#555571" stroke="white" stroke-width="2" stroke-miterlimit="10"/>
<path d="M55 41C58.3137 41 61 38.3137 61 35C61 31.6863 58.3137 29 55 29C51.6863 29 49 31.6863 49 35C49 38.3137 51.6863 41 55 41Z" fill="#DD44B9" stroke="#191928" stroke-width="2" stroke-miterlimit="10"/>
<path d="M17 17C20.3137 17 23 14.3137 23 11C23 7.68629 20.3137 5 17 5C13.6863 5 11 7.68629 11 11C11 14.3137 13.6863 17 17 17Z" fill="#DD44B9" stroke="#191928" stroke-width="2" stroke-miterlimit="10"/>
<path d="M32 67C35.3137 67 38 64.3137 38 61C38 57.6863 35.3137 55 32 55C28.6863 55 26 57.6863 26 61C26 64.3137 28.6863 67 32 67Z" fill="#DD44B9" stroke="#191928" stroke-width="2" stroke-miterlimit="10"/>
</svg>
