<svg width="247" height="52" viewBox="0 0 247 52" fill="none" xmlns="http://www.w3.org/2000/svg">
<g clip-path="url(#clip0_17430_22764)">
<path d="M77.355 27.667V27.0579C77.355 25.5276 76.8262 24.3539 75.7655 23.5427C74.7378 22.6988 73.3916 22.2769 71.7209 22.2769C70.4378 22.2769 69.4252 22.4967 68.689 22.9335C67.9829 23.3406 67.3098 23.9646 66.6667 24.8085C66.4744 25.0581 66.2671 25.2305 66.0417 25.3255C65.8164 25.4206 65.5129 25.4652 65.1282 25.4652H63.6829C63.3283 25.4652 63.0098 25.3404 62.7213 25.0908C62.4629 24.8412 62.3517 24.5441 62.3848 24.1994C62.481 23.2604 62.9467 22.3393 63.7821 21.433C64.6475 20.494 65.7893 19.7303 67.2016 19.1361C68.6139 18.5418 70.1223 18.2446 71.7269 18.2446C74.7108 18.2446 77.1177 19.0558 78.9476 20.6812C80.8106 22.3066 81.7391 24.5886 81.7391 27.5274V41.8259C81.7391 42.1706 81.6099 42.4677 81.3545 42.7173C81.0961 42.9669 80.7926 43.0917 80.441 43.0917H78.6591C78.3076 43.0917 78.0011 42.9669 77.7457 42.7173C77.4903 42.4677 77.3611 42.1706 77.3611 41.8259V39.9034C76.8472 41.0295 75.7565 41.921 74.0857 42.5747C72.415 43.2284 70.7473 43.5582 69.0796 43.5582C67.4119 43.5582 65.9816 43.2759 64.6985 42.7143C63.4155 42.1201 62.4209 41.3237 61.7147 40.3223C61.0416 39.321 60.7051 38.1978 60.7051 36.9468C60.7051 34.6023 61.6035 32.7749 63.4004 31.4615C65.1974 30.1185 67.5892 29.2122 70.5731 28.7427L77.3611 27.6641L77.355 27.667ZM77.355 31.417L71.6728 32.3084C69.5875 32.6204 67.9648 33.1374 66.811 33.8565C65.6541 34.5429 65.0772 35.4195 65.0772 36.4833C65.0772 37.2647 65.4468 37.969 66.186 38.593C66.9251 39.217 68.046 39.529 69.5544 39.529C71.8651 39.529 73.7432 38.8871 75.1855 37.6065C76.6309 36.3258 77.352 34.6529 77.352 32.5907V31.4199L77.355 31.417Z" fill="white"/>
<path d="M93.1398 41.8258C93.1398 42.1705 93.0106 42.4676 92.7552 42.7172C92.4998 42.9668 92.1933 43.0916 91.8417 43.0916H90.0598C89.7052 43.0916 89.4018 42.9668 89.1463 42.7172C88.8879 42.4676 88.7617 42.1705 88.7617 41.8258V11.0715C88.7617 10.7268 88.8909 10.4297 89.1463 10.1801C89.4018 9.93046 89.7082 9.80566 90.0598 9.80566H91.8417C92.1933 9.80566 92.4998 9.93046 92.7552 10.1801C93.0106 10.4297 93.1398 10.7268 93.1398 11.0715V41.8258Z" fill="white"/>
<path d="M110.479 39.529C113.689 39.529 115.855 38.3107 116.979 35.8712C117.204 35.4017 117.427 35.0748 117.652 34.8876C117.877 34.7004 118.181 34.6054 118.566 34.6054H120.011C120.365 34.6054 120.669 34.7302 120.924 34.9798C121.18 35.1996 121.309 35.4641 121.309 35.7761C121.309 36.8399 120.876 37.9809 120.008 39.1992C119.143 40.4175 117.889 41.4486 116.252 42.2924C114.614 43.1363 112.691 43.5583 110.476 43.5583C108.262 43.5583 106.225 43.0888 104.554 42.1528C102.886 41.2138 101.6 39.9331 100.702 38.3078C99.8032 36.6497 99.3044 34.8074 99.2082 32.775C99.1752 32.4006 99.1602 31.6815 99.1602 30.6177C99.1602 29.8689 99.1752 29.337 99.2082 29.025C99.4967 25.8367 100.605 23.2426 102.529 21.2428C104.455 19.2431 107.102 18.2417 110.47 18.2417C112.685 18.2417 114.593 18.6636 116.201 19.5075C117.838 20.3187 119.073 21.335 119.909 22.5562C120.774 23.7448 121.24 24.868 121.306 25.9318C121.339 26.2764 121.21 26.5736 120.921 26.8232C120.663 27.0728 120.359 27.1976 120.008 27.1976H118.563C118.178 27.1976 117.871 27.1025 117.649 26.9153C117.424 26.7281 117.198 26.3983 116.976 25.9318C115.852 23.4952 113.686 22.2739 110.476 22.2739C108.713 22.2739 107.171 22.8534 105.855 24.0092C104.539 25.1651 103.785 26.9153 103.592 29.2598C103.559 29.6044 103.544 30.166 103.544 30.9475C103.544 31.6666 103.559 32.1985 103.592 32.5402C103.818 34.8847 104.572 36.6348 105.855 37.7907C107.171 38.9466 108.713 39.526 110.476 39.526L110.479 39.529Z" fill="white"/>
<path d="M149.314 41.8258C149.314 42.1705 149.185 42.4676 148.93 42.7172C148.674 42.9668 148.368 43.0916 148.016 43.0916H146.234C145.88 43.0916 145.576 42.9668 145.321 42.7172C145.065 42.4676 144.936 42.1705 144.936 41.8258V29.4498C144.936 27.1053 144.341 25.3254 143.154 24.1042C141.967 22.8859 140.315 22.2767 138.196 22.2767C136.078 22.2767 134.458 22.8859 133.238 24.1042C132.051 25.3225 131.456 27.1053 131.456 29.4498V41.8258C131.456 42.1705 131.327 42.4676 131.072 42.7172C130.816 42.9668 130.51 43.0916 130.158 43.0916H128.376C128.025 43.0916 127.718 42.9668 127.463 42.7172C127.207 42.4676 127.078 42.1705 127.078 41.8258V11.0715C127.078 10.7268 127.207 10.4297 127.463 10.1801C127.718 9.93046 128.025 9.80566 128.376 9.80566H130.158C130.513 9.80566 130.816 9.93046 131.072 10.1801C131.327 10.4297 131.456 10.7268 131.456 11.0715V21.4329C132.162 20.5266 133.124 19.7778 134.344 19.1835C135.597 18.5595 137.12 18.2445 138.917 18.2445C140.94 18.2445 142.736 18.6665 144.308 19.5104C145.88 20.3542 147.1 21.5725 147.968 23.1682C148.866 24.7311 149.314 26.5913 149.314 28.7485V41.8287V41.8258Z" fill="white"/>
<path d="M166.184 18.2446C169.618 18.2446 172.328 19.3084 174.321 21.433C176.31 23.5575 177.305 26.4487 177.305 30.1066V31.3724C177.305 31.7171 177.175 32.0142 176.92 32.2638C176.664 32.5134 176.358 32.6382 176.006 32.6382H159.447V32.9205C159.51 34.9827 160.153 36.6081 161.373 37.7966C162.626 38.9525 164.23 39.5319 166.187 39.5319C167.791 39.5319 169.026 39.3299 169.895 38.9228C170.793 38.5157 171.595 37.9393 172.301 37.1875C172.557 36.9379 172.782 36.7655 172.975 36.6705C173.2 36.5754 173.488 36.5308 173.84 36.5308H175.285C175.67 36.5308 175.991 36.6556 176.247 36.9052C176.502 37.1548 176.616 37.4519 176.583 37.7966C176.454 38.6405 175.973 39.5171 175.138 40.4234C174.336 41.297 173.164 42.0487 171.622 42.6727C170.114 43.267 168.302 43.5642 166.184 43.5642C164.065 43.5642 162.301 43.1095 160.697 42.2033C159.092 41.2673 157.809 39.9836 156.844 38.3582C155.913 36.7329 155.351 34.9054 155.159 32.873C155.096 31.934 155.062 31.2179 155.062 30.7157C155.062 30.2135 155.096 29.4974 155.159 28.5585C155.351 26.6211 155.913 24.8709 156.844 23.3079C157.806 21.745 159.074 20.5118 160.649 19.6055C162.253 18.6993 164.098 18.2446 166.184 18.2446ZM172.972 28.6981V28.5585C172.972 26.6508 172.347 25.1354 171.093 24.0122C169.873 22.8563 168.236 22.2769 166.184 22.2769C164.324 22.2769 162.734 22.8563 161.418 24.0122C160.135 25.1681 159.477 26.6835 159.444 28.5585V28.6981H172.972Z" fill="white"/>
<path d="M187.495 21.433C188.265 20.4643 189.133 19.6977 190.094 19.1361C191.056 18.5418 192.342 18.2446 193.947 18.2446C197.703 18.2446 200.332 19.6055 201.841 22.3244C202.772 21.011 203.83 20.0126 205.017 19.3233C206.204 18.6042 207.76 18.2446 209.686 18.2446C212.832 18.2446 215.158 19.1658 216.667 21.011C218.208 22.8563 218.977 25.4652 218.977 28.8407V41.8259C218.977 42.1706 218.848 42.4677 218.593 42.7173C218.337 42.9669 218.031 43.0917 217.679 43.0917H215.897C215.546 43.0917 215.239 42.9669 214.984 42.7173C214.728 42.4677 214.599 42.1706 214.599 41.8259V29.3073C214.599 24.6183 212.706 22.2739 208.917 22.2739C207.183 22.2739 205.804 22.8355 204.776 23.9617C203.749 25.0878 203.235 26.7578 203.235 28.9774V41.8229C203.235 42.1676 203.106 42.4647 202.85 42.7143C202.592 42.9639 202.288 43.0887 201.937 43.0887H200.155C199.803 43.0887 199.497 42.9639 199.241 42.7143C198.986 42.4647 198.857 42.1676 198.857 41.8229V29.3043C198.857 24.6154 196.964 22.2709 193.177 22.2709C191.444 22.2709 190.064 22.8325 189.037 23.9587C188.009 25.0849 187.495 26.7548 187.495 28.9745V41.8199C187.495 42.1646 187.366 42.4618 187.111 42.7114C186.855 42.961 186.549 43.0858 186.197 43.0858H184.415C184.064 43.0858 183.757 42.961 183.502 42.7114C183.246 42.4618 183.117 42.1646 183.117 41.8199V19.974C183.117 19.6293 183.246 19.3322 183.502 19.0826C183.757 18.833 184.064 18.7082 184.415 18.7082H186.197C186.549 18.7082 186.855 18.833 187.111 19.0826C187.366 19.3322 187.495 19.6293 187.495 19.974V21.427V21.433Z" fill="white"/>
<path d="M232.463 50.874C232.174 51.6258 231.708 52.0002 231.065 52.0002H229.091C228.77 52.0002 228.496 51.8903 228.274 51.6734C228.048 51.4535 227.937 51.189 227.937 50.877C227.937 50.7522 227.952 50.6423 227.985 50.5502L232.607 40.7504L223.075 20.1703C223.042 20.0752 223.027 19.9682 223.027 19.8434C223.027 19.5314 223.139 19.264 223.364 19.0471C223.589 18.8272 223.863 18.7202 224.181 18.7202H226.155C226.798 18.7202 227.261 19.0946 227.553 19.8464L234.966 35.7851L242.475 19.8464C242.763 19.0976 243.229 18.7202 243.872 18.7202H245.846C246.168 18.7202 246.441 18.8302 246.664 19.0471C246.889 19.267 247 19.5314 247 19.8434C247 19.9682 246.985 20.0782 246.952 20.1703L232.463 50.877V50.874Z" fill="white"/>
<path d="M42.4976 27.5838L26.3314 0.442785C26.2533 0.30907 26.1391 0.196156 26.0039 0.118899C25.8657 0.0416417 25.7124 4.17412e-05 25.5531 -0.00292969C25.3939 -0.00292969 25.2376 0.0356989 25.0994 0.112956C24.9612 0.190213 24.847 0.300156 24.7659 0.43387L19.925 8.56667C19.7658 8.8341 19.6816 9.13421 19.6816 9.44324C19.6816 9.75227 19.7658 10.0524 19.925 10.3198L30.4661 28.0236C30.6254 28.291 30.8537 28.5109 31.1272 28.6654C31.4036 28.8199 31.7131 28.9002 32.0316 28.9002H41.7133C41.8726 28.9002 42.0258 28.8586 42.164 28.7813C42.3023 28.704 42.4165 28.5941 42.4946 28.4604C42.5727 28.3267 42.6148 28.1751 42.6148 28.0236C42.6148 27.8691 42.5727 27.7175 42.4946 27.5868L42.4976 27.5838Z" fill="url(#paint0_radial_17430_22764)"/>
<path d="M0.1232 41.7663L16.2894 14.6282C16.3675 14.4945 16.4817 14.3846 16.6199 14.3073C16.7581 14.23 16.9114 14.1914 17.0706 14.1914C17.2299 14.1914 17.3862 14.233 17.5214 14.3073C17.6596 14.3846 17.7738 14.4945 17.8519 14.6282L22.6958 22.7521C22.855 23.0195 22.9391 23.3196 22.9391 23.6287C22.9391 23.9377 22.855 24.2378 22.6958 24.5052L12.1547 42.209C11.9954 42.4764 11.7701 42.6963 11.4936 42.8508C11.2172 43.0054 10.9077 43.0856 10.5891 43.0856H0.90747C0.748212 43.0856 0.591959 43.047 0.453735 42.9697C0.315511 42.8924 0.201326 42.7825 0.120195 42.6458C0.0420681 42.5121 0 42.3605 0 42.206C0 42.0515 0.045073 41.9 0.1232 41.7663Z" fill="url(#paint1_radial_17430_22764)"/>
<path d="M17.8517 43.0795H50.1811C50.3403 43.0795 50.4966 43.0379 50.6318 42.9607C50.767 42.8834 50.8842 42.7735 50.9624 42.6398C51.0405 42.5061 51.0825 42.3545 51.0825 42.203C51.0825 42.0485 51.0405 41.8969 50.9624 41.7662L46.1245 33.6363C45.9653 33.3689 45.7369 33.149 45.4634 32.9945C45.19 32.84 44.8775 32.7598 44.559 32.7598H23.4768C23.1583 32.7598 22.8488 32.84 22.5724 32.9945C22.2959 33.149 22.0676 33.3689 21.9113 33.6363L17.0705 41.7662C16.9923 41.8999 16.9503 42.0485 16.9473 42.203C16.9473 42.3575 16.9893 42.509 17.0675 42.6398C17.1456 42.7735 17.2598 42.8834 17.398 42.9607C17.5362 43.0379 17.6925 43.0795 17.8487 43.0795H17.8517Z" fill="url(#paint2_radial_17430_22764)"/>
</g>
<defs>
<radialGradient id="paint0_radial_17430_22764" cx="0" cy="0" r="1" gradientUnits="userSpaceOnUse" gradientTransform="translate(27.0178 -0.778337) rotate(95.3896) scale(41.6011 56.7894)">
<stop stop-color="#05D5FF"/>
<stop offset="0.77" stop-color="#363FF9"/>
<stop offset="1" stop-color="#5533FF"/>
</radialGradient>
<radialGradient id="paint1_radial_17430_22764" cx="0" cy="0" r="1" gradientUnits="userSpaceOnUse" gradientTransform="translate(27.018 -0.778517) rotate(95.3896) scale(41.6011 56.7894)">
<stop stop-color="#05D5FF"/>
<stop offset="0.77" stop-color="#363FF9"/>
<stop offset="1" stop-color="#5533FF"/>
</radialGradient>
<radialGradient id="paint2_radial_17430_22764" cx="0" cy="0" r="1" gradientUnits="userSpaceOnUse" gradientTransform="translate(-19014.9 -1757.53) rotate(95.3896) scale(41.6011 56.7894)">
<stop stop-color="#05D5FF"/>
<stop offset="0.77" stop-color="#363FF9"/>
<stop offset="1" stop-color="#5533FF"/>
</radialGradient>
<clipPath id="clip0_17430_22764">
<rect width="247" height="52" fill="white"/>
</clipPath>
</defs>
</svg>
