<svg width="243" height="63" viewBox="0 0 243 63" fill="none" xmlns="http://www.w3.org/2000/svg">
<path d="M65.201 42.6328V23.6335H57.7441V20.439H76.2518V23.6335H68.7615V42.6328H65.201Z" fill="white"/>
<path d="M81.2578 42.6328V20.439H84.8183V42.6328H81.2578Z" fill="white"/>
<path d="M111.942 20.0688H113.151V42.6326H109.59V28.711L103.242 37.0504H102.032L95.6503 28.6774V42.6326H92.0898V20.0688H93.3327L102.637 32.4773L111.942 20.0688Z" fill="white"/>
<path d="M120.404 42.6328V20.439H134.982V23.6335H123.965V29.3165H132.261V32.4102H123.965V39.4382H135.385V42.6328H120.404Z" fill="white"/>
<path d="M139.629 38.194L142.148 36.2773C143.76 38.6311 145.697 39.8078 147.959 39.8078C149.101 39.8078 150.019 39.5276 150.713 38.9674C151.43 38.407 151.788 37.6558 151.788 36.7144C151.788 35.9521 151.553 35.3581 151.083 34.9322C150.613 34.4836 149.762 33.9681 148.53 33.3853L146.078 32.242C144.354 31.4572 143.055 30.5942 142.181 29.6526C141.331 28.6886 140.905 27.5004 140.905 26.0881C140.905 24.3171 141.577 22.8711 142.921 21.7502C144.264 20.6293 145.921 20.0688 147.892 20.0688C149.437 20.0688 150.837 20.4275 152.091 21.1449C153.367 21.8623 154.352 22.8263 155.047 24.0368L152.561 25.9536C151.352 24.1602 149.795 23.2634 147.892 23.2634C146.907 23.2634 146.1 23.4988 145.473 23.9696C144.846 24.4404 144.533 25.1017 144.533 25.9536C144.555 26.3571 144.6 26.6934 144.667 26.9624C144.757 27.209 144.97 27.478 145.306 27.7695C145.641 28.0385 145.876 28.2066 146.011 28.2739C146.145 28.3411 146.582 28.5653 147.321 28.9464C147.455 29.0137 147.556 29.0697 147.623 29.1146L150.109 30.2579C151.967 31.1097 153.311 32.0175 154.14 32.9816C154.991 33.9457 155.416 35.1451 155.416 36.5798C155.416 38.4854 154.71 40.0323 153.3 41.2202C151.911 42.4084 150.142 43.0024 147.993 43.0024C146.201 43.0024 144.578 42.5765 143.122 41.7246C141.667 40.8727 140.502 39.6959 139.629 38.194Z" fill="white"/>
<path d="M188.566 20.4387H192.463L183.83 43.0024H182.654L176.037 27.2651L169.42 43.0024H168.211L159.578 20.4387H163.508L169.05 35.4365L175.399 20.0688H176.642L183.024 35.4365L188.566 20.4387Z" fill="white"/>
<path d="M210.323 42.6326L208.745 38.9337H198.769L197.19 42.6326H193.395L203.169 20.0688H204.378L214.153 42.6326H210.323ZM207.468 35.8736L203.774 26.6934L200.045 35.8736H207.468Z" fill="white"/>
<path d="M219.361 42.6328V20.439H227.456C229.696 20.439 231.51 21.0779 232.898 22.3557C234.286 23.6111 234.981 25.2364 234.981 27.2317C234.981 29.2269 234.275 30.8634 232.864 32.1412C231.476 33.419 229.674 34.0579 227.456 34.0579H222.922V42.6328H219.361ZM222.922 30.897H227.389C228.621 30.897 229.584 30.5719 230.278 29.9218C230.972 29.2717 231.319 28.3862 231.319 27.2653C231.319 26.1444 230.972 25.2589 230.278 24.6087C229.584 23.9362 228.621 23.5999 227.389 23.5999H222.922V30.897Z" fill="white"/>
<path d="M43.8286 22.3747L30.7333 43.455C28.9759 46.2809 24.9189 46.2809 23.1615 43.455L10.0663 22.3747C8.54281 19.9288 7.73828 17.0973 7.73828 14.2026V11.9639C7.73828 9.91513 9.37588 8.25195 11.3901 8.25195H42.5046C44.5245 8.25195 46.1564 9.91513 46.1564 11.9639V14.2026C46.1564 17.0973 45.3519 19.9288 43.8286 22.3747Z" fill="#7B78FF"/>
<path d="M10.0663 40.6236L23.1615 19.5489C24.9189 16.7233 28.9759 16.7233 30.7333 19.5489L43.8286 40.6236C45.3519 43.0695 46.1564 45.9066 46.1564 48.8014V51.0402C46.1564 53.089 44.5189 54.7521 42.5046 54.7521H11.3901C9.37019 54.7521 7.73828 53.089 7.73828 51.0402V48.8014C7.73828 45.9066 8.54281 43.0753 10.0663 40.6236Z" fill="#9FD2EB"/>
<path d="M30.7335 19.5489C28.9761 16.7233 24.9192 16.7233 23.1617 19.5489L15.7383 31.502L23.1675 43.4551C24.9249 46.2807 28.9818 46.2807 30.7392 43.4551L38.1627 31.502L30.7335 19.5489Z" fill="#11429F"/>
</svg>
