<?xml version="1.0" encoding="utf-8"?>
<!-- Generator: Adobe Illustrator 23.1.0, SVG Export Plug-In . SVG Version: 6.00 Build 0)  -->
<svg version="1.1" id="Capa_1" xmlns="http://www.w3.org/2000/svg" xmlns:xlink="http://www.w3.org/1999/xlink" x="0px" y="0px"
	 viewBox="0 0 492.3 503.5" style="enable-background:new 0 0 492.3 503.5;" xml:space="preserve">
<style type="text/css">
	.st0{fill:#35C5F3;}
	.st1{stroke:#000000;stroke-width:3;stroke-miterlimit:10;}
	.st2{fill:#F6E06E;stroke:#000000;stroke-width:7;stroke-miterlimit:10;}
	.st3{fill:#DDA86A;}
	.st4{fill:#FFFFFF;}
	.st5{fill:#FBF2AA;}
	.st6{fill:#F7E16E;}
	.st7{fill:#FFFFFF;stroke:#FFFFFF;stroke-miterlimit:10;}
	.st8{fill:#2CA9C6;}
	.st9{fill:none;stroke:#000000;stroke-width:7;stroke-miterlimit:10;}
	.st10{fill:none;stroke:#000000;stroke-width:7;stroke-linecap:round;stroke-linejoin:round;stroke-miterlimit:10;}
	.st11{fill:#3C122C;}
</style>
<path class="st0" d="M374,500.5c0,0,37.1-17.4,41.6-49.1c4.5-31.7-20.6-49-20.6-49s50.8-16.3,45.6-86.7
	c-5.2-70.4-52.2-81.8-52.2-81.8s19.2-93.7-74-55.2c0,0,23.5-126.3-66.2-85.1L224,319.4L374,500.5z"/>
<path class="st1" d="M444.2,315.4c-1.5-20.5-7.7-49.2-28.9-69c-9.1-8.5-17.8-12.5-22.3-14.1l-0.8-0.3l0.1-0.8
	c1.4-9.4,4.7-41.4-13.6-56.5c-12.5-10.3-32.2-10.6-58.6-0.7l-1.6,0.6l0.2-1.7c2-14.9,6.9-64.9-16.7-83.3c-12.5-9.7-30.6-9.2-54,1.6
	l-1.3,0.6l-24.5,228.4l142.7,179.5l11,3.1c1.6-0.7,38.4-18.4,43-51.1c3.4-24.3-9.2-40.3-17.1-47.7l-1.1-1l1.3-0.6
	c5.1-2.6,12.9-7.3,20.4-15.3C434,375,446.9,352.7,444.2,315.4z M419.2,383.3c-11.3,12.2-23.4,16.4-23.9,16.5l-4.9,1.6l4.2,2.9
	c0.2,0.2,23.8,16.7,19.5,46.6c-3.6,25.4-29.8,41.6-37.7,45.9l-0.7,0.4l-0.5-0.6L227.7,318.6l23.9-223.4l0.5-0.2
	c20.6-9.1,36.4-9.6,47-1.3c25.5,19.9,14,83.9,13.8,84.5l-0.8,4.6l4.3-1.8c27.4-11.3,47.3-12.1,59.2-2.3c19,15.7,11.5,54.3,11.4,54.7
	l-0.5,2.4l2.4,0.6c0.1,0,11.6,3,23.4,14.2c15.6,14.8,24.9,37.4,27,65.4C441.2,344.1,434.5,366.8,419.2,383.3z"/>
<path class="st2" d="M264.2,182.3c0.1-0.5,0.2-0.9,0.2-1.4c4.5-17.6,3.6-34.2-5-49.4c5.4-19.6,4.7-36.2-5-48.8
	c0.1-23.3-2.8-49.1-7.8-76.6c-0.4-4.1-6.3-4.6-7.3-0.5c-7.8,21.1-13.8,41.1-14.6,58c-9,11.3-12.9,24.2-9.9,39.2
	c-8,11.7-12.2,25.1-10.3,41c-10.3,11.8-9.2,25.6-9.3,32C196.3,197.6,259.9,202.5,264.2,182.3L264.2,182.3z"/>
<path class="st3" d="M264.2,182.3c0.1-0.5,0.2-0.9,0.2-1.4c3.2-12.5,3.7-24.5,0.6-35.8c-0.4,3.4-1,6.8-1.8,10.2
	c0,0.4-0.1,0.8-0.2,1.2c-3.7,17.2-59.5,12.6-60.7-6.1c0-1.1,0-2.3,0-3.8c-8,11.1-7.1,23.3-7.1,29.2
	C196.3,197.6,259.9,202.5,264.2,182.3L264.2,182.3z"/>
<path class="st4" d="M371.6,500.4c-15.3-41.3-39.5-73.6-67.6-94.7l0,0.2c11.4-16.1,20.2-34.4,28.5-63.7l17.5-57.8
	c5.9-20.8,5-41.9-1.3-61c6.4-3.7,12.5-9.3,17.9-17.1c16.4-23.7,10.3-64.9,2.9-70c-7.4-5.1-48.2,3.5-64.6,27.2
	c-0.6,0.9-1.3,1.9-1.8,2.8c-7.7-4.6-16.2-8.3-25.2-10.9l-62.1-17.5c-4.6-1.3-9.2-2.2-13.6-2.8c1-5.9,0.9-12.5-0.3-19.7
	c-4.9-28.1-37.9-52.8-46.7-51.3c-8.8,1.5-31.5,36-26.6,64.1c1.6,9.3,4.8,16.9,9.1,22.9c-14.4,9.3-25.5,20.8-32.1,30
	c-15.9,22.1-29.8,54.4-29.8,54.4c-30.7,16-47.2,45-45.2,74.9c1.7,24.7,12.8,45.5,30.8,62.3c15.8,14.7,44.8,26.6,61.6,29.8l2.6,1.2
	c-9.8,32.7-16.1,74.8-16.1,96.7"/>
<path class="st5" d="M458.9,51.2l8.5,24c0.4,1,1.1,1.8,2,2.3l21.3,9.6c3,1.4,3,6.2,0,7.5l-21.3,9.6c-0.9,0.4-1.6,1.2-2,2.3l-8.5,24
	c-1.2,3.4-5.5,3.4-6.7,0l-8.5-24c-0.4-1-1.1-1.8-2-2.3l-21.3-9.6c-3-1.4-3-6.2,0-7.5l21.3-9.6c0.9-0.4,1.6-1.2,2-2.3l8.5-24
	C453.4,47.8,457.6,47.8,458.9,51.2L458.9,51.2z"/>
<path d="M367.8,501.8c-13.9-37.5-35.6-68.6-62.8-90.2l-4.2-5.6l2.4-6c10.7-16,18.4-33.9,25.4-58.8l17.5-57.9
	c5.4-19.3,5-39.6-1.2-58.6l-1-3.1l2.9-1.6c6.2-3.5,11.7-8.8,16.6-15.8c15.7-22.6,8.7-61,3.9-64.4c-4.8-3.3-43.3,3.6-59,26.2
	c-0.5,0.8-1.1,1.6-1.7,2.6l-2.1,3.4l-3.4-2c-7.6-4.5-15.7-8-24.3-10.4l-62.1-17.5c-4.3-1.2-8.7-2.1-13.1-2.7l-4.2-0.5l0.7-4.2
	c0.9-5.6,0.8-11.8-0.3-18.3c-4.6-26.7-36.3-48.9-42-48c-5.7,1.1-27.9,32.7-23.3,59.4c1.5,8.4,4.3,15.5,8.4,21.2l2.5,3.5l-3.6,2.3
	c-17.1,11-27.4,23.9-31,28.9c-15.5,21.5-29.3,53.3-29.4,53.6l-0.6,1.3l-1.3,0.7c-28.5,14.8-45,42.1-43,71
	c1.5,22.8,11.5,42.8,29.5,59.6c14.5,13.5,42.3,25.4,59.6,28.7l0.5,0.1l6.2,3l-1,3.3c-10,33.3-16,74.7-15.9,95.5l-8.1,0
	c0-20.7,5.6-61,15.2-94.3c-16.3-3.5-45.2-14.8-62-30.5c-19.6-18.2-30.4-40.1-32.1-65c-2.2-31.8,15.5-61.6,46.1-78.1
	c2.8-6.4,15.4-33.9,29.7-53.8c7.5-10.4,18.2-20.7,29.8-28.7c-3.6-6-6.1-13.1-7.5-21.1c-3.1-17.7,4-35.5,8.5-44.5
	c5.6-11.2,14.4-23,21.3-24.2c7-1.2,19.2,7,28.3,15.6c7.3,7,20,21.3,23.1,39c1,5.9,1.3,11.6,0.8,16.9c3.4,0.6,6.9,1.4,10.2,2.3
	l62.1,17.5c8,2.2,15.6,5.4,22.8,9.4c10.4-14.7,27.9-22.4,37.5-25.6c12-4.1,26.7-6.4,32.5-2.3c5.9,4.1,8.9,18.6,9.2,31.3
	c0.3,10.2-0.7,29.5-11.1,44.4c-4.8,7-10.3,12.5-16.4,16.5c5.8,19.7,6,40.4,0.4,60.3l-17.5,57.9c-7.3,25.9-15.4,44.6-26.7,61.5
	c28.6,22.6,51.3,55,65.8,94.1C375.5,499.3,367.9,502.1,367.8,501.8z"/>
<path class="st5" d="M67,24.9l6.3,17.8c0.3,0.8,0.8,1.4,1.5,1.7l15.8,7.1c2.2,1,2.2,4.6,0,5.6l-15.8,7.1c-0.7,0.3-1.2,0.9-1.5,1.7
	L67,83.7c-0.9,2.5-4.1,2.5-4.9,0l-6.3-17.8c-0.3-0.8-0.8-1.4-1.5-1.7l-15.8-7.1c-2.2-1-2.2-4.6,0-5.6l15.8-7.1
	c0.7-0.3,1.2-0.9,1.5-1.7L62,24.9C62.9,22.4,66.1,22.4,67,24.9z"/>
<g>
	
		<ellipse transform="matrix(0.1217 -0.9926 0.9926 0.1217 -131.6781 137.7009)" class="st6" cx="12" cy="143.3" rx="12.7" ry="12.7"/>
	<path class="st6" d="M378.1,25c0,5.4-4.4,9.8-9.8,9.8s-9.8-4.4-9.8-9.8s4.4-9.8,9.8-9.8C373.7,15.2,378.1,19.6,378.1,25z"/>
</g>
<path class="st7" d="M135.9,259.6c-0.7,4.9-5.2,8.4-10.1,7.7c-4.9-0.7-8.4-5.2-7.7-10.1c0.6-4.5,4.5-7.8,8.9-7.8
	c0.4,0,0.8,0,1.2,0.1c2.4,0.3,4.5,1.6,6,3.5C135.6,254.8,136.3,257.2,135.9,259.6L135.9,259.6z"/>
<path class="st8" d="M222.2,125c-16.7-17.3-44.1-19.7-63.6-5.6c-4.1,3-7.6,6.4-10.4,10.2c-10.1,13.3-24.2,23.1-40.4,27.1
	c-10.1,2.4-12.3,15.8-3.6,21.3c18,11.5,42,26.1,53.1,29.8c19.2,6.3,42.4,4.4,61.1-11.2C240.1,178.5,242.2,145.7,222.2,125L222.2,125
	z M211.3,170.1c-11,13.6-27.4,18-42,16.1c-8.5-1.1-27.9-8.4-42.5-14.3c-7.1-2.8-7.5-12.7-0.7-15.7c11-5,19.6-13.8,24.9-24.7
	c1.5-3.1,3.5-6,5.9-8.7c11.9-12.7,31.8-14.6,46.4-4.4C220.7,130.6,224.1,154.3,211.3,170.1z"/>
<g>
	<path class="st0" d="M178.2,214.6c-7.4,0-14.8-1.2-22-3.5c-11.5-3.8-35.7-18.5-53.9-30.1c-5.2-3.3-7.9-9.2-6.8-15.4
		c1-6.1,5.4-10.8,11.5-12.3c15-3.6,28.6-12.8,38.5-25.8c3.1-4.2,6.9-7.8,11.2-10.9c8.9-6.4,19.5-9.8,30.5-9.8
		c14.2,0,27.9,5.8,37.6,15.9c10.3,10.6,15.5,24.6,14.7,39.3c-0.8,14.5-7.6,28.1-18.8,37.4C208.6,209.3,194,214.6,178.2,214.6z"/>
	<path d="M187.1,110.2c12.9,0,25.7,5,35.1,14.8c20,20.7,17.9,53.5-3.8,71.6c-12.2,10.2-26.5,14.5-40.2,14.5
		c-7.2,0-14.3-1.2-20.9-3.4c-11.2-3.7-35.1-18.2-53.1-29.8c-8.7-5.6-6.5-18.9,3.5-21.3l0,0c16.3-3.9,30.3-13.7,40.4-27.1
		c2.9-3.8,6.3-7.2,10.4-10.2C167.2,113.2,177.2,110.2,187.1,110.2 M187.1,103.2c-11.8,0-23.1,3.6-32.6,10.5
		c-4.6,3.3-8.6,7.2-11.9,11.6c-9.3,12.4-22.3,21-36.5,24.5c-7.4,1.8-12.8,7.6-14.1,15.1c-1.3,7.5,2,14.8,8.4,18.9
		c26.8,17.1,45.2,27.4,54.7,30.5c7.5,2.5,15.2,3.7,23.1,3.7c16.5,0,32-5.6,44.7-16.2c11.9-9.9,19.2-24.4,20-39.9
		c0.8-15.7-4.7-30.6-15.7-41.9C216.9,109.4,202.2,103.2,187.1,103.2L187.1,103.2z"/>
</g>
<line class="st9" x1="224.4" y1="63.1" x2="254.7" y2="82.4"/>
<line class="st9" x1="215.3" y1="102.6" x2="259.8" y2="132"/>
<line class="st10" x1="202.1" y1="211" x2="202.1" y2="233.3"/>
<line class="st10" x1="251.7" y1="152.3" x2="251.7" y2="189.7"/>
<line class="st10" x1="277" y1="159.4" x2="277" y2="222.1"/>
<line class="st10" x1="227.4" y1="192.8" x2="227.4" y2="225.2"/>
<line class="st10" x1="108.9" y1="499.6" x2="374.2" y2="500.6"/>
<path class="st11" d="M62.6,244.4c0,2.8,2.3,7.1,3.4,9.7c2.2,5.5,5.2,10,9.5,13.9c9.2,8.3,21.9,12.9,34.3,11.9
	c15.5-1.2,30-11,37-24.9c3.9,1.6,7.7,3.1,11.6,4.7c-2.8,11.8-0.6,24.5,5.5,35s15.9,18.6,27,23.2c11.6,4.8,24.7,5.8,36.7,2.3
	c12-3.5,22.7-11.7,28.7-22.7c1.8-3.2,3-7.5,0.7-10.4c-1.1-1.3-2.8-2-4.3-2.6c-59-23.8-118-47.6-177.1-71.4c-2-0.8-4.1-1.6-6.2-1
	c-2.4,0.7-3.8,3.1-4.7,5.4C61.1,226,60.7,235.5,62.6,244.4 M121.9,248.5L80,256.4c-0.4,0.1-0.8,0.1-1.1,0.1c-2.9,0-5.5-2.1-6-5
	c-0.6-3.3,1.6-6.6,4.9-7.2l41.9-7.8c3.4-0.6,6.6,1.6,7.2,4.9C127.4,244.7,125.2,247.9,121.9,248.5z M217.4,287.4l-41.8,8
	c-0.4,0.1-0.8,0.1-1.1,0.1c-2.9,0-5.5-2-6.1-5c-0.6-3.3,1.5-6.6,4.9-7.2l41.8-8c3.3-0.6,6.6,1.5,7.2,4.9
	C222.9,283.5,220.7,286.7,217.4,287.4z"/>
<path class="st11" d="M116.6,351.1c-2-0.8-3.4-2.7-3.7-5c-0.3-2.4-1.8-4.4-4-5.3c-1.9-0.7-3.9-0.6-5.6,0.4c-3,1.7-6.7,0.7-8.4-2.3
	c-1.7-3-0.7-6.7,2.3-8.4c5-2.9,11-3.3,16.3-1.1c6.4,2.5,10.9,8.4,11.7,15.3c0.4,3.4-2,6.4-5.4,6.8
	C118.6,351.7,117.6,351.6,116.6,351.1z"/>
</svg>
