<?xml version="1.0" encoding="utf-8"?>
<!-- Generator: Adobe Illustrator 23.1.0, SVG Export Plug-In . SVG Version: 6.00 Build 0)  -->
<svg version="1.1" id="_x33_0" xmlns="http://www.w3.org/2000/svg" xmlns:xlink="http://www.w3.org/1999/xlink" x="0px" y="0px"
	 viewBox="0 0 409.8 500" style="enable-background:new 0 0 409.8 500;" xml:space="preserve">
<style type="text/css">
	.st0{fill:#DFB28B;}
	.st1{fill:#FFFFFF;}
	.st2{fill:#E20880;}
	.st3{fill:#F0D0B4;}
	.st4{fill:#B27946;}
	.st5{fill:#CF9E76;}
	.st6{fill:none;}
</style>
<g>
	<g>
		<path class="st0" d="M200.9,496.4h-137c3.6,0,7.2-1,10.3-2.9l53.6-32.1c7.6,1.4,15.3,2.1,23,2.1h1.6c17.2,0,31.2-13.4,32-30.2h0.1
			l49.9-20.9c4.8,8.4,11.6,15.6,19.9,21.1l2.7,1.7c11.7,7.8,25.3,11.9,39.3,11.9c7.1,0,14-1.2,20.3-3.5c0,13.4,7.6,52.8,7.6,52.8
			H200.9z"/>
		<path class="st1" d="M327.7,499.4H63.8v-6c3.1,0,6.2-0.8,8.8-2.4l54.5-32.7l1.1,0.2c7.5,1.4,15,2.1,22.5,2.1h1.6
			c15.5,0,28.3-12,29-27.4l0.1-2.9h2.3l51.8-21.7l1.3,2.3c4.7,8.1,11.1,14.9,18.9,20.1l2.7,1.7c11.2,7.5,24.2,11.4,37.7,11.4
			c6.7,0,13.1-1.1,19.3-3.4l4-1.5v4.3c0,13,7.4,51.9,7.5,52.2L327.7,499.4z M80.2,493.4h240.2c-1.7-9-5.9-32.8-6.8-45.7
			c-5.6,1.6-11.5,2.5-17.4,2.5c-14.6,0-28.8-4.3-40.9-12.4l-2.7-1.7c-7.9-5.3-14.5-11.9-19.5-19.9l-45.9,19.3
			c-1.8,17.6-16.8,31.1-34.9,31.1h-1.6c-7.4,0-14.9-0.7-22.4-2L80.2,493.4z"/>
	</g>
</g>
<g>
	<g>
		<path class="st0" d="M105.1,244.7l24.2-5.8c6.8,13.4,30.9,49.2,96.6,68.9l-96.7,88.6c-12-1.5-23.7-4.2-35.2-8v-41.3
			c0-9.5-0.8-18.9-2.3-28.2c-3.5-21.4-11-41.9-22.3-60.6C80.6,252.3,92.6,247.7,105.1,244.7L105.1,244.7z"/>
		<path class="st1" d="M130.2,399.6l-1.4-0.2c-11.9-1.5-23.9-4.2-35.7-8.1l-2.1-0.7v-43.5c0-9.1-0.7-18.1-2.3-27.7
			c-3.5-21.2-10.9-41.2-21.9-59.5l-1.6-2.7l2.7-1.5c11.3-6.2,23.6-10.9,36.3-13.9l26.5-6.4l1.1,2.1c21.7,42.7,78,62.4,94.8,67.4
			l5.1,1.5L130.2,399.6z M97.1,386.3c10.3,3.3,20.8,5.6,31.2,7l91.8-84.2c-59.9-19.3-83.9-51.5-92.3-66.8l-22,5.3
			c-11.2,2.7-22,6.7-32.1,11.9c10.5,18.2,17.6,38,21,59c1.6,9.9,2.3,19.3,2.3,28.7V386.3z"/>
	</g>
</g>
<g>
	<g>
		<path class="st2" d="M127.8,461.4l-53.6,32.1c-3.1,1.9-6.7,2.9-10.3,2.9c-6.8,0-13.1-3.4-16.8-9l-7.2-10.8
			c-2.1-3.1-3.2-6.7-3.2-10.5c0-6.7,3.4-12.7,9.2-16.2l18.7-11.3l40.2,16.1C112.2,457.6,119.9,459.9,127.8,461.4L127.8,461.4z"/>
		<path class="st1" d="M63.8,499.4c-7.8,0-15-3.9-19.3-10.4l-7.2-10.8c-2.4-3.5-3.7-7.8-3.7-12.2c0-7.7,4-14.7,10.7-18.8l20-12
			l41.6,16.7c7.3,2.9,14.6,5,22.5,6.6l7.6,1.5l-60.2,36.1C72.2,498.3,68.1,499.4,63.8,499.4z M64.8,441.9l-17.4,10.5
			c-4.9,2.9-7.7,8-7.7,13.6c0,3.2,0.9,6.3,2.7,8.8l7.2,10.9c3.2,4.8,8.6,7.7,14.3,7.7c3.1,0,6.2-0.8,8.8-2.4l47.1-28.3
			c-5.5-1.4-10.9-3.2-16.1-5.2L64.8,441.9z"/>
	</g>
</g>
<g>
	<g>
		<path class="st2" d="M234.4,412.4l-49.9,20.9h-0.1c0.1-0.6,0.1-1.1,0.1-1.6v-2c0-17.6-14.3-31.9-31.9-31.9h-0.8
			c-7.6,0-15-0.5-22.5-1.4l96.7-88.6l65.4-60l7.6-6.9c10.9-10,25.2-15.6,40.1-15.6c10.6,0,20.9,2.9,29.7,8
			c9,5.1,16.5,12.6,21.8,21.8l7.6,13.4c5.3,9.3,8.1,19.9,8.1,30.6c0,12.5-3.8,24.3-10.3,34.2c-6.6,9.9-16.1,17.9-27.5,22.8
			l-11.4,4.8l-67.8,28.4l-1.8-14.9c-2.5-15-15.5-26-30.7-26c-8.6,0-16.3,3.4-22,9.1c-5.7,5.7-9.1,13.4-9.1,22
			c0,10.8,2.7,21.3,7.6,30.5C233.5,410.9,234,411.6,234.4,412.4L234.4,412.4z"/>
		<path class="st1" d="M185,436.3H181l0.4-3.4c0.1-0.4,0.1-0.7,0.1-1.2v-2c0-15.9-13-28.9-28.9-28.9h-0.8c-7.5,0-15-0.5-22.9-1.4
			l-6.5-0.8l174.4-159.9c11.5-10.6,26.5-16.4,42.1-16.4c11,0,21.8,2.9,31.2,8.5c9.4,5.4,17.3,13.3,22.9,23l7.6,13.4
			c5.6,9.7,8.5,20.8,8.5,32.1c0,12.8-3.8,25.2-10.9,35.8c-7,10.6-17,18.8-28.8,23.8l-11.4,4.8l-71.4,30l-2.3-18.7
			c-2.3-13.6-14-23.5-27.7-23.5c-7.5,0-14.6,2.9-19.9,8.2c-5.3,5.3-8.2,12.4-8.2,19.9c0,10.1,2.5,20.2,7.3,29.1l2.8,5.1L185,436.3z
			 M136.2,394.2c5.3,0.5,10.4,0.7,15.6,0.7h0.8c18.9,0,34.4,15.2,34.9,34l42.7-17.9c-5-9.6-7.6-20.4-7.6-31.2
			c0-9.1,3.5-17.7,10-24.1c6.4-6.4,15-10,24.1-10c16.7,0,30.9,12,33.7,28.5l0,0.1l1.3,10.9l64.1-26.9l11.4-4.8
			c10.8-4.6,19.9-12.1,26.2-21.6c6.4-9.7,9.9-20.9,9.9-32.5c0-10.3-2.7-20.3-7.7-29.1l-7.6-13.4c-5-8.7-12.1-15.9-20.6-20.7
			c-8.6-5-18.4-7.7-28.2-7.7c-14.1,0-27.6,5.3-38.1,14.8l-7.6,6.9l-65.4,60L136.2,394.2z"/>
	</g>
</g>
<g>
	<g>
		<path class="st3" d="M184.4,429.7v2c0,0.6,0,1.1-0.1,1.6c-0.8,16.8-14.8,30.2-32,30.2h-1.6c-7.7,0-15.4-0.7-23-2.1
			c-7.9-1.6-15.5-3.8-23-6.7l-40.2-16.1l-4.5-1.8c-33.9-13.6-56.2-46.3-56.3-82.9l-0.1-1.2c-0.1-18.4,5.8-36.3,17.2-51.5l1.6-2.1
			c12.6-17,28.8-30.8,47.1-40.7c11.3,18.7,18.7,39.3,22.3,60.6l-17.1,23.8c-3.6,5.1-5.3,10.9-5.3,16.6c0,11.4,6.8,22.5,18.6,26.9
			c2.1,0.7,4.1,1.5,6.2,2.1c11.4,3.8,23.2,6.5,35.2,8c7.5,0.9,14.9,1.4,22.5,1.4h0.8C170.1,397.8,184.4,412.1,184.4,429.7
			L184.4,429.7z"/>
		<path class="st1" d="M152.3,466.6h-1.6c-7.8,0-15.7-0.7-23.5-2.2c-8.1-1.6-16.1-3.9-23.6-6.9l-44.8-17.9
			c-35.2-14.1-58-47.6-58.2-85.6l-0.1-1.3c-0.1-19.2,6.1-37.7,17.9-53.3l1.6-2.1c12.6-17,29.3-31.3,48.1-41.6l2.5-1.4l1.5,2.5
			c11.4,19,19,39.7,22.6,61.7l0.2,1.2l-17.8,24.8c-3.1,4.4-4.8,9.5-4.8,14.8c0,10.8,6.5,20.3,16.6,24.1c1.9,0.7,4,1.4,6,2.1
			c11.5,3.8,23.1,6.4,34.6,7.8c7.6,0.9,14.9,1.4,22.1,1.4h0.8c19.2,0,34.9,15.6,34.9,34.9v2c0,0.6,0,1.2-0.1,1.9
			C186.4,452.1,171,466.6,152.3,466.6z M6.6,352.6l0.1,1.3c0.2,35.5,21.5,66.9,54.5,80.1l44.8,17.9c7.3,2.9,14.6,5,22.5,6.6
			c7.5,1.4,15,2.1,22.4,2.1h1.6c15.5,0,28.3-12,29-27.4l0-0.3c0.1-0.4,0.1-0.7,0.1-1.2v-2c0-15.9-13-28.9-28.9-28.9h-0.8
			c-7.5,0-15-0.5-22.9-1.4c-11.9-1.5-23.9-4.2-35.7-8.1c-2.1-0.7-4.2-1.4-6.2-2.2c-12.5-4.7-20.5-16.4-20.5-29.8
			c0-6.6,2-12.9,5.9-18.3l16.4-22.8c-3.4-19.8-10.2-38.6-20.2-55.8c-17,9.7-32.1,23-43.6,38.5l-1.6,2.1
			C12.3,317.5,6.5,334.7,6.6,352.6z"/>
	</g>
</g>
<g>
	<g>
		<path class="st3" d="M289.1,389.5l67.8-28.4v25.4c0,16.8-6.8,32-17.7,43c-6.3,6.3-14,11.2-22.7,14.2c-6.3,2.3-13.1,3.5-20.3,3.5
			c-14,0-27.6-4.1-39.3-11.9l-2.7-1.7c-8.3-5.5-15-12.7-19.9-21.1c-0.4-0.7-0.8-1.5-1.2-2.2c-4.9-9.2-7.6-19.7-7.6-30.5
			c0-8.6,3.4-16.3,9.1-22c5.7-5.7,13.4-9.1,22-9.1c15.2,0,28.2,11,30.7,26L289.1,389.5z"/>
		<path class="st1" d="M296.2,450.1c-14.6,0-28.8-4.3-40.9-12.4l-2.7-1.7c-8.7-5.8-15.7-13.2-20.9-22.1l-1.3-2.3
			c-5.3-9.8-8-20.8-8-31.9c0-9.1,3.5-17.7,10-24.1c6.4-6.4,15-10,24.1-10c16.7,0,30.9,12,33.7,28.5l0,0.1l1.3,10.9l68.3-28.6v29.9
			c0,17-6.6,33-18.6,45.1c-6.7,6.7-14.7,11.7-23.8,14.9C310.7,448.9,303.6,450.1,296.2,450.1z M256.6,351.6
			c-7.5,0-14.6,2.9-19.9,8.2c-5.3,5.3-8.2,12.4-8.2,19.9c0,10.1,2.5,20.2,7.3,29.1l1.2,2.2c4.7,8.1,11,14.8,18.9,20.1l2.7,1.7
			c11.2,7.5,24.2,11.4,37.7,11.4c6.7,0,13.1-1.1,19.3-3.4c8.3-2.9,15.5-7.5,21.6-13.5c10.9-11,16.9-25.5,16.9-40.8v-20.9l-67.3,28.2
			l-2.3-18.7C282,361.4,270.4,351.6,256.6,351.6z"/>
	</g>
</g>
<g>
	<g>
		<path class="st3" d="M149.6,235.5c3.9,3.9,9.2,6.2,15,6.2c7.4,0,14.5-3,19.8-8.2s8.2-12.4,8.2-19.8c0,7.4,3,14.5,8.2,19.8
			s12.4,8.2,19.8,8.2c5.8,0,11.2-2.4,15-6.2c0.4-0.4,0.8-0.8,1.1-1.2l43.4,10.4c3.8,0.9,7.5,1.9,11.1,3.1l-65.4,60
			c-65.7-19.7-89.8-55.5-96.6-68.9l19.1-4.6C148.8,234.7,149.2,235.1,149.6,235.5L149.6,235.5z"/>
		<path class="st1" d="M226.7,311.2l-1.6-0.5c-66.6-20-91-55.9-98.4-70.4l-1.7-3.4l24.7-5.9l1.2,1.5c0.2,0.3,0.6,0.6,0.9,1l0,0
			c3.5,3.5,8,5.4,12.9,5.4c6.6,0,13-2.7,17.7-7.3c4.7-4.7,7.3-11.1,7.3-17.7h6c0,6.6,2.7,13,7.3,17.7c4.7,4.7,11.1,7.3,17.7,7.3
			c4.9,0,9.5-1.9,12.9-5.4c0.3-0.3,0.7-0.7,0.9-1l1.2-1.5l45.2,10.9c4.6,1.1,8.1,2.1,11.4,3.2l4.8,1.6L226.7,311.2z M133.8,240.9
			c22.2,39.1,73.4,58,91.3,63.5l60.3-55.3c-1.8-0.5-3.7-1-5.9-1.5l-41.7-10c0,0,0,0,0,0c-4.6,4.6-10.7,7.1-17.2,7.1
			c-8.1,0-16.1-3.3-21.9-9.1c-2.5-2.5-4.6-5.5-6.1-8.7c-1.5,3.2-3.6,6.1-6.1,8.7c-5.8,5.8-13.8,9.1-21.9,9.1
			c-6.5,0-12.6-2.5-17.2-7.1l0,0c0,0,0,0,0,0L133.8,240.9z"/>
	</g>
</g>
<g>
	<g>
		<path class="st3" d="M185.4,78.5c15.7,15.1,36.6,23.7,58.5,23.7h6.2c4.6,0,9-1,13.1-2.7l1.3,2.7c1.4,6,2.1,12.2,2.1,18.4v2.8
			c0,13.1-3,26-8.9,37.6l-6.2,12.4c-14.3-9-30.9-13.7-47.9-13.7h-21.8c-17,0-33.6,4.8-47.9,13.7l-6.2-12.4
			c-5.8-11.7-8.9-24.6-8.9-37.6v-2.8c0-22.3,8.9-43.7,24.6-59.5c0,13.6,11,24.6,24.6,24.6C174.8,85.7,181,82.9,185.4,78.5
			L185.4,78.5z"/>
		<path class="st1" d="M252.6,177.7l-2.8-1.7c-13.8-8.7-29.9-13.3-46.3-13.3h-21.8c-16.4,0-32.4,4.6-46.3,13.3l-2.8,1.7l-7.7-15.3
			c-6-12-9.2-25.5-9.2-39v-2.8c0-22.9,9.3-45.4,25.5-61.6l5.1-5.1v7.2c0,11.9,9.7,21.6,21.6,21.6c5.8,0,11.2-2.3,15.3-6.3l2.1-2.1
			l2.1,2c15.3,14.7,35.3,22.8,56.4,22.8h6.2c4.1,0,8.1-0.8,11.9-2.5l2.6-1.1l2.7,5.6l0.1,0.3c1.4,6.1,2.1,12.5,2.1,19.1v2.8
			c0,13.5-3.2,26.9-9.2,39L252.6,177.7z M141.2,67.9c-12.4,14.6-19.5,33.5-19.5,52.7v2.8c0,12.5,3,25.1,8.6,36.3l4.8,9.5
			c14.1-8.2,30.2-12.5,46.7-12.5h21.8c16.5,0,32.5,4.3,46.7,12.5l4.8-9.5c5.6-11.2,8.6-23.7,8.6-36.3v-2.8c0-6-0.6-11.8-1.9-17.3
			c-3.7,1.3-7.6,1.9-11.5,1.9h-6.2c-21.7,0-42.4-8-58.5-22.6c-4.9,4-11,6.2-17.4,6.2C155.1,88.7,144.2,79.8,141.2,67.9z"/>
	</g>
</g>
<g>
	<g>
		<path class="st4" d="M185.4,78.5c-4.4,4.4-10.6,7.2-17.4,7.2c-13.6,0-24.6-11-24.6-24.6c-15.8,15.8-24.6,37.2-24.6,59.5v2.8
			c0,13.1,3,26,8.9,37.6l6.2,12.4c-2.1,1.4-4.3,2.8-6.3,4.4c-5.5,4.1-8.8,10.6-8.8,17.5c0,4.5,1.3,8.6,3.6,12.2L87.7,203
			c-5.3-0.7-9.8-3.2-13.1-6.9c-3.2-3.7-5.2-8.5-5.2-13.7c0-4.1,1.2-8.1,3.4-11.6l2.6-3.9c5.5-8.3,2.5-19.5-6.3-23.8l-20.8-10.4
			c-7.2-3.6-11.8-11-11.8-19.1c0-7.1,3.5-13.8,9.5-17.7L68.2,81c9.8-6.5,12.4-19.6,5.9-29.4l-1.7-2.5c-1.9-3-3-6.4-3-9.9
			c0-6.7,3.8-12.9,9.9-15.9c26-13,54.5-19.7,83.5-19.7h29.8h29.8c29,0,57.6,6.7,83.5,19.7c6.1,3,9.9,9.2,9.9,15.9c0,3.5-1.1,7-3,9.9
			l-1.7,2.5c-6.5,9.8-3.9,22.9,5.9,29.4l22.1,14.8c6,3.9,9.5,10.6,9.5,17.7c0,8.1-4.6,15.5-11.8,19.1l-20.8,10.4
			c-8.9,4.4-11.8,15.5-6.3,23.8l2.6,3.9c2.2,3.4,3.4,7.5,3.4,11.6c0,10.4-7.8,19.3-18.2,20.6l-34.7,4.4c2.3-3.5,3.6-7.6,3.6-12.2
			c0-6.9-3.3-13.4-8.8-17.5c-2.1-1.6-4.2-3-6.3-4.4l6.2-12.4c5.8-11.7,8.9-24.6,8.9-37.6v-2.8c0-6.2-0.7-12.4-2.1-18.4l-1.3-2.7
			c-4,1.7-8.5,2.7-13.1,2.7h-6.2C222,102.2,201.1,93.6,185.4,78.5L185.4,78.5z"/>
		<path class="st1" d="M256.9,211.2l3.5-5.4c2.1-3.2,3.1-6.7,3.1-10.5c0-5.9-2.8-11.5-7.6-15.1c-2-1.5-4.1-2.9-6.2-4.2l-2.2-1.5
			l7.4-14.8c5.6-11.2,8.6-23.7,8.6-36.3v-2.8c0-6-0.6-11.8-1.9-17.3c-3.7,1.3-7.6,1.9-11.5,1.9h-6.2c-21.7,0-42.4-8-58.5-22.6
			c-4.9,4-11,6.2-17.4,6.2c-12.9,0-23.8-8.9-26.8-20.9c-12.4,14.6-19.5,33.5-19.5,52.7v2.8c0,12.5,3,25.1,8.6,36.3l7.4,14.8
			l-2.2,1.5c-2.1,1.3-4.2,2.7-6.1,4.2c-4.8,3.6-7.6,9.2-7.6,15.1c0,3.8,1.1,7.3,3.1,10.5l3.5,5.4L87.3,206c-5.7-0.7-11-3.5-14.9-7.9
			c-3.8-4.4-5.9-10-5.9-15.7c0-4.6,1.4-9.2,3.9-13.2l2.7-3.9c2.1-3.2,2.8-7.3,1.8-11c-1-3.7-3.5-6.8-7-8.4l-20.8-10.4
			c-8.3-4.2-13.5-12.5-13.5-21.8c0-8.2,4.1-15.8,10.9-20.2l22.1-14.8c8.4-5.6,10.6-16.9,5.1-25.3l-1.8-2.5
			c-2.2-3.5-3.4-7.5-3.4-11.6c0-7.9,4.4-15.1,11.5-18.6c26.2-13.1,55.6-20,84.9-20h59.6c29.3,0,58.7,6.9,84.9,20
			c7.1,3.6,11.5,10.7,11.5,18.6c0,4-1.2,8-3.4,11.6l-0.1,0.1l-1.7,2.5c-5.5,8.3-3.2,19.6,5.1,25.2l22.1,14.8
			c6.8,4.5,10.9,12,10.9,20.2c0,9.3-5.2,17.7-13.5,21.8l-20.8,10.4c-3.4,1.7-6,4.8-7,8.5c-1,3.7-0.4,7.8,1.8,11l2.6,3.8
			c2.6,4.1,4,8.6,4,13.3c0,12-9,22.1-20.9,23.6L256.9,211.2z M74.9,47.5l1.7,2.4C84,61.1,81,76.2,69.9,83.5L47.8,98.3
			c-5.1,3.4-8.2,9.1-8.2,15.2c0,7,3.9,13.3,10.2,16.5l20.8,10.4c4.9,2.4,8.6,6.9,10.1,12.2c1.5,5.4,0.5,11.2-2.6,15.9l-2.6,3.9
			c-1.9,3-2.9,6.4-2.9,9.9c0,4.3,1.6,8.4,4.4,11.8c2.9,3.3,6.8,5.3,11.2,5.9l29.1,3.7c-1-2.7-1.5-5.5-1.5-8.5
			c0-7.8,3.7-15.2,10-19.9c1.4-1.1,2.8-2,4.2-3l-5-10c-6-12-9.2-25.5-9.2-39v-2.8c0-22.9,9.3-45.4,25.5-61.6l5.1-5.1v7.2
			c0,11.9,9.7,21.6,21.6,21.6c5.8,0,11.2-2.3,15.3-6.3l2.1-2.1l2.1,2c15.3,14.7,35.3,22.8,56.4,22.8h6.2c4.1,0,8.1-0.8,11.9-2.5
			l2.6-1.1l2.7,5.6l0.1,0.3c1.4,6.1,2.1,12.5,2.1,19.1v2.8c0,13.5-3.2,26.9-9.2,39l-5,10c1.4,0.9,2.9,1.9,4.3,3
			c6.2,4.7,10,12.1,10,19.9c0,3-0.5,5.8-1.5,8.5l29.1-3.7c8.9-1.1,15.6-8.7,15.6-17.6c0-3.5-1-6.9-3-10l-2.6-3.8
			c-3.1-4.7-4.1-10.5-2.6-15.9c1.4-5.3,5.1-9.8,10.1-12.3l20.8-10.4c6.3-3.1,10.2-9.4,10.2-16.5c0-6.2-3.1-11.9-8.2-15.2l-22.1-14.8
			c-11.1-7.4-14.1-22.4-6.7-33.6l1.7-2.5c1.6-2.5,2.5-5.4,2.5-8.3c0-5.6-3.1-10.7-8.2-13.2c-25.4-12.7-53.8-19.4-82.2-19.4h-59.6
			c-28.4,0-56.8,6.7-82.2,19.4c-5.1,2.5-8.2,7.6-8.2,13.2C72.4,42.1,73.3,45,74.9,47.5z"/>
	</g>
</g>
<g>
	<g>
		<path class="st5" d="M125.1,210.7l-2.8-3.4c-2.3-3.5-3.6-7.6-3.6-12.2c0-6.9,3.3-13.4,8.8-17.5c2.1-1.6,4.2-3,6.3-4.4
			c14.3-9,30.9-13.7,47.9-13.7h21.8c17,0,33.6,4.8,47.9,13.7c2.1,1.4,4.3,2.8,6.3,4.4c5.5,4.1,8.8,10.6,8.8,17.5
			c0,4.5-1.3,8.6-3.6,12.2c-3.9,5.9-10.7,9.8-18.3,9.8h-3c0.2,1.1,0.2,2.2,0.2,3.4c0,5.3-1.9,10-5.1,13.8c-0.3,0.4-0.7,0.8-1.1,1.2
			c-3.9,3.9-9.2,6.2-15,6.2c-7.4,0-14.5-3-19.8-8.2s-8.2-12.4-8.2-19.8c0,7.4-3,14.5-8.2,19.8s-12.4,8.2-19.8,8.2
			c-5.8,0-11.2-2.4-15-6.2c-0.4-0.4-0.8-0.8-1.1-1.2c-3.2-3.7-5.1-8.5-5.1-13.8c0-1.1,0.1-2.2,0.2-3.4h-3
			C134.6,217.1,129.1,214.7,125.1,210.7L125.1,210.7z"/>
		<path class="st1" d="M220.6,244.8c-8.1,0-16.1-3.3-21.9-9.1c-2.5-2.5-4.6-5.5-6.1-8.7c-1.5,3.2-3.6,6.1-6.1,8.7
			c-5.8,5.8-13.8,9.1-21.9,9.1c-6.5,0-12.6-2.5-17.2-7.1c-0.4-0.4-0.9-0.9-1.3-1.4c-3.7-4.3-5.8-9.9-5.8-15.7c0-0.1,0-0.2,0-0.4
			c-6.6-0.1-12.7-2.7-17.4-7.3l-0.2-0.2l-3-3.6c-2.7-4.2-4.1-8.8-4.1-13.8c0-7.8,3.7-15.2,10-19.9c2.1-1.6,4.3-3.1,6.5-4.5
			c14.9-9.3,32-14.2,49.5-14.2h21.8c17.6,0,34.7,4.9,49.5,14.2c2.2,1.4,4.4,2.9,6.5,4.5c6.2,4.7,10,12.1,10,19.9
			c0,5-1.4,9.6-4.1,13.8c-4.6,6.9-12.3,11-20.5,11.1c0,0.1,0,0.2,0,0.4c0,5.8-2,11.3-5.8,15.7c-0.4,0.5-0.9,1-1.3,1.4
			C233.2,242.3,227.1,244.8,220.6,244.8z M195.6,213.8c0,6.6,2.7,13,7.3,17.7c4.7,4.7,11.1,7.3,17.7,7.3c4.9,0,9.5-1.9,12.9-5.4
			c0.3-0.3,0.7-0.7,0.9-1c2.9-3.4,4.4-7.5,4.4-11.9c0-1-0.1-1.9-0.2-2.9l-0.5-3.4h6.4c6.4,0,12.3-3.2,15.8-8.4
			c2.1-3.2,3.1-6.7,3.1-10.5c0-5.9-2.8-11.5-7.6-15.1c-2-1.5-4.1-2.9-6.2-4.2c-13.8-8.6-29.8-13.2-46.2-13.2h-21.8
			c-16.4,0-32.4,4.6-46.3,13.3c-2,1.3-4.1,2.7-6.1,4.2c-4.8,3.6-7.6,9.2-7.6,15.1c0,3.7,1,7.2,3,10.4l2.6,3.1
			c3.6,3.5,8.3,5.4,13.3,5.4h6.4l-0.5,3.4c-0.1,1-0.2,2-0.2,2.9c0,4.4,1.5,8.6,4.4,11.8l0.1,0.1c0.2,0.3,0.6,0.6,0.9,1
			c3.5,3.5,8,5.4,12.9,5.4c6.6,0,13-2.7,17.7-7.3c4.7-4.7,7.3-11.1,7.3-17.7H195.6z"/>
	</g>
</g>
<g>
	<g>
		<circle cx="159.8" cy="126.8" r="8.2"/>
	</g>
	<g>
		<path class="st1" d="M159.8,139.6c-7.1,0-12.8-5.8-12.8-12.8c0-7.1,5.8-12.8,12.8-12.8s12.8,5.8,12.8,12.8
			C172.6,133.9,166.9,139.6,159.8,139.6z M159.8,123.2c-2,0-3.6,1.6-3.6,3.6c0,2,1.6,3.6,3.6,3.6c2,0,3.6-1.6,3.6-3.6
			C163.4,124.8,161.8,123.2,159.8,123.2z"/>
	</g>
</g>
<g>
	<circle cx="225.5" cy="126.8" r="8.2"/>
</g>
<g>
	<path class="st1" d="M225.5,114c-7.1,0-12.8,5.8-12.8,12.8c0,7.1,5.8,12.8,12.8,12.8s12.8-5.8,12.8-12.8
		C238.3,119.7,232.6,114,225.5,114z M225.5,130.4c-2,0-3.6-1.6-3.6-3.6c0-2,1.6-3.6,3.6-3.6c2,0,3.6,1.6,3.6,3.6
		C229.1,128.8,227.5,130.4,225.5,130.4z"/>
</g>
<g>
	<path class="st6" d="M285.9,97.8c-2.2,2.8-4.9,5.4-7.8,7.6c0.9,5.4,1.3,10.3,1.3,15.2v2.8c0,15-3.5,30-10.2,43.4l-1.3,2.6
		c6.6,5.9,10.7,14.2,11.4,23l16.8-2.1c4-0.5,7-3.9,7-7.9c0-1.6-0.5-3.1-1.3-4.4l-2.6-3.9c-4.7-7-6.1-15.6-3.9-23.7
		c2.2-8.1,7.7-14.9,15.2-18.7l20.8-10.4c2.9-1.5,4.7-4.4,4.7-7.6c0-2.9-1.4-5.5-3.8-7.1l-22.1-14.7c-7.2-4.8-12.1-11.9-14.2-20.2
		C295.3,81,291.9,90.2,285.9,97.8z"/>
</g>
<g>
	<path d="M401.2,266.8l-7.6-13.4c-11.2-19.6-32.1-31.7-54.6-31.7c-15.8,0-30.9,5.9-42.5,16.5l-6.1,5.6l-4.2-1.2
		c-1.8-0.5-3.4-1-5.1-1.4l-38-9.1l1.4-4.7c0.3-1.2,0.6-2.3,0.7-3.3l0.5-3.3l3.3-0.6c5.6-1,10.9-3.9,14.7-8.3l1.2-1.3l33.2-4.2
		c12.2-1.5,21.4-11.9,21.4-24.2c0-4.8-1.4-9.5-4.1-13.5l-2.6-3.9c-2.1-3.1-2.7-6.8-1.7-10.4c0.9-3.6,3.3-6.5,6.7-8.2l20.8-10.4
		c8.5-4.2,13.8-12.8,13.8-22.3c0-8.4-4.2-16.1-11.1-20.8L319,78.1c-3.9-2.6-6.6-6.6-7.5-11.2c-0.9-4.6,0-9.3,2.6-13.2l1.7-2.5
		c2.4-3.5,3.6-7.6,3.6-11.9c0-8.2-4.5-15.5-11.8-19.2C281.3,6.9,251.9,0,222.5,0h-59.7C133.4,0,104,6.9,77.7,20.1
		c-7.3,3.7-11.8,11-11.8,19.2c0,4.2,1.2,8.4,3.6,11.9l1.7,2.5c5.4,8.1,3.2,19-4.9,24.4L44.1,92.8c-7,4.6-11.1,12.4-11.1,20.8
		c0,9.5,5.3,18.1,13.8,22.3l20.8,10.4c3.3,1.7,5.7,4.6,6.7,8.2c1,3.6,0.3,7.3-1.7,10.4l-2.6,3.9c-2.7,4-4.1,8.7-4.1,13.5
		c0,12.3,9.2,22.7,21.4,24.2l33.3,4.2l1.2,1.3c3.9,4.4,9.1,7.3,14.7,8.3l3.3,0.6l0.5,3.3c0.2,1,0.4,2.1,0.7,3.3l1.3,4.7l-38,9.1
		c-33.8,8.1-63.9,27.9-84.8,55.7l-1.5,2.1C6.1,314.8-0.1,333.3,0,352.7v1.3c0.2,34.2,18.9,65.4,49,81.6l7.2,3.8l-12.3,7.4
		c-6.7,4-10.9,11.4-10.9,19.3c0,4.5,1.3,8.8,3.8,12.5l7.2,10.9C48.4,496,55.9,500,63.8,500h264.6l-0.8-4.3c-2-10.4-6-33.5-7.2-46.4
		l-0.3-3.2l2.9-1.4c22.7-10.5,37.4-33.4,37.4-58.4v-23l9.2-3.8c24.4-10.2,40.1-33.9,40.1-60.3C409.8,287.9,406.8,276.7,401.2,266.8z
		 M115.1,195.2c0,0.2,0,0.5,0.1,0.8c0.1,0.4,0.1,0.8,0.1,1.1l0.5,5.7l-27.7-3.5C79.5,198.4,73,191,73,182.4c0-3.4,1-6.7,2.9-9.5
		l2.6-3.9c3.2-4.8,4.2-10.7,2.7-16.2c-1.5-5.5-5.3-10.2-10.4-12.8L50,129.5c-6.1-3-9.8-9.1-9.8-15.9c0-6,3-11.5,7.9-14.8L70.2,84
		c5.5-3.7,9.2-9.3,10.5-15.8c1.3-6.5,0-13.1-3.7-18.6l-1.7-2.5c-1.6-2.4-2.4-5.1-2.4-7.9c0-5.4,3-10.3,7.9-12.7
		c25.3-12.6,53.6-19.3,81.9-19.3h59.7c28.3,0,56.6,6.7,81.9,19.3c4.9,2.4,7.9,7.3,7.9,12.7c0,2.8-0.8,5.6-2.4,7.9l-1.7,2.5
		c-3.7,5.5-5,12.1-3.7,18.6c1.3,6.5,5,12.1,10.5,15.8l22.1,14.8c5,3.3,7.9,8.9,7.9,14.8c0,6.8-3.8,12.9-9.8,15.9l-20.8,10.4
		c-5.1,2.6-8.9,7.2-10.4,12.8c-1.5,5.5-0.5,11.5,2.7,16.3l2.6,3.9c1.9,2.8,2.9,6.1,2.9,9.5c0,8.6-6.5,16-15.1,17.1l-27.7,3.5
		l0.5-5.7c0-0.4,0.1-0.8,0.1-1.1c0-0.3,0.1-0.6,0.1-0.8c0-8-3.8-15.6-10.2-20.4l-0.1-0.1c-0.2-0.1-0.4-0.3-0.6-0.4l-3.1-2.3l4.7-9.5
		c6.1-12.1,9.3-25.7,9.3-39.2v-2.8c0-5.1-0.5-10.5-1.7-16.4l-0.6-3l2.5-1.7c3.2-2.1,5.9-4.7,8.2-7.5c7-8.7,9.5-20.1,7-31.3
		c-3-13.3-13.6-23.9-26.9-26.9c-11.1-2.5-22.5,0-31.3,7c-7.5,6-12.3,14.5-13.4,23.9h7.3c1.1-7.2,4.9-13.7,10.7-18.3
		c7.1-5.7,16.1-7.7,25.2-5.6c10.5,2.4,19.1,11,21.5,21.5c2.1,9.1,0.1,18-5.6,25.2c-5.6,7-13.9,11-22.9,11h-6.2
		c-18.6,0-36-6.1-50.4-17.7l-3.1-2.5l1.9-3.4c2.5-4.4,3.8-9.1,3.8-13.9c0-5.4-1.5-10.6-4.4-15.1l-5.5,4.9c1.7,3.1,2.7,6.6,2.7,10.2
		c0,11.6-9.4,21-21,21s-21-9.4-21-21c0-4.4,1.4-8.7,3.9-12.2l-4.9-5.4c-3.2,4.1-5.3,9.1-5.9,14.6l-0.2,1.5l-1.1,1.1
		c-15.3,16.3-23.8,37.6-23.8,59.9v2.8c0,13.5,3.2,27.1,9.3,39.2l4.7,9.5l-3.1,2.3c-0.2,0.1-0.4,0.3-0.6,0.4l-0.1,0.1
		C118.9,179.6,115.1,187.3,115.1,195.2z M254.5,159.4l-4.4,8.9l-4.1-2.1c-13.2-6.6-27.8-10.1-42.3-10.1h-21.9
		c-14.5,0-29.1,3.5-42.3,10.1l-4.1,2.1l-4.4-8.9c-5.6-11.1-8.5-23.6-8.5-36v-2.8c0-16.2,4.8-31.8,13.9-45.2l4-5.9l3.7,6.2
		c5.2,8.6,14.2,13.7,24.1,13.7c5,0,10.1-1.4,14.6-4.2l2.8-1.7l2.5,2.1c15.9,13.2,35.2,20.2,56,20.2h6.2c2,0,4.1-0.2,6.5-0.6l4.7-0.9
		l0.7,4.7c0.6,4.4,0.9,8.1,0.9,11.6v2.8C263,135.8,260,148.3,254.5,159.4z M141.7,210l-1.4,4l-4.1-1c-8.2-2-13.9-9.3-13.9-17.7
		c0-5.7,2.7-11.2,7.3-14.7c14.9-11.2,33.4-17.3,52-17.3h21.9c18.6,0,37.1,6.2,52.1,17.4c4.6,3.4,7.3,8.9,7.3,14.6
		c0,8.4-5.7,15.7-13.9,17.7l-4.1,1l-1.4-4c-1.6-4.6-4.1-8.6-7.3-11.8l-4.9-4.9l-5.1,5.1l4.9,4.9c4.5,4.6,7.2,10.9,7.2,17.3
		c0,9.7-7.9,17.6-17.6,17.6c-6.4,0-12.7-2.6-17.3-7.2c-4.5-4.6-7.2-10.9-7.2-17.3v-8.4H189v8.4c0,6.4-2.6,12.7-7.2,17.3
		c-4.5,4.6-10.9,7.2-17.3,7.2c-9.7,0-17.6-7.9-17.6-17.6c0-6.4,2.6-12.7,7.2-17.3l4.9-4.9l-5.1-5.1l-4.9,4.9
		C145.8,201.4,143.3,205.4,141.7,210z M147.3,238.3l1.8,1.4c4.6,3.7,9.9,5.6,15.5,5.6c8.5,0,16.4-3.3,22.4-9.3
		c0.4-0.4,0.8-1,1.3-1.5c0.3-0.4,0.5-0.7,0.8-1l3.6-4.4l3.6,4.4c0.3,0.3,0.6,0.7,0.8,1c0.4,0.6,0.9,1.1,1.3,1.5
		c6,6,13.9,9.3,22.4,9.3c5.6,0,11-2,15.5-5.7l1.8-1.4l46.3,11.1L225,303.7l-2.6-0.8c-21.6-6.9-61.1-23.4-84.1-56l-3.9-5.6
		L147.3,238.3z M78.9,257.8c9-4.2,18.1-7.4,27-9.6l0,0l21.4-5.1l1.7,2.9c9,14.9,31.7,42.5,82.5,60.9l7.2,2.6l-90.7,83.1l-2.2-0.3
		c-8.6-1.3-17-3.1-25-5.5l-3.3-1v-38.6c0-28.8-7.2-57.5-20.9-83l-2.3-4.3L78.9,257.8z M90.5,347.2V385l-7.4-5.4
		c-4.4-3.2-7.5-7.6-9.1-12.7c-2.3-7.5-1-15.5,3.6-21.9l12.2-17.1l0.5,13.6c0,0.6,0,1.2,0.1,1.7C90.4,344.5,90.5,345.8,90.5,347.2z
		 M7.2,353.9v-1.3c-0.1-17.8,5.6-34.8,16.5-49.3l1.5-2.1c10.5-14,23.6-25.9,38.8-35.4l4.2-2.6l2.3,4.4c8.1,15.2,13.8,31.6,17,48.6
		l0.4,1.9l-16.1,22.6c-5.9,8.2-7.5,18.5-4.6,28.1c2.9,9.7,10.1,17.2,19.5,20.8c20.8,7.8,42.7,11.8,65,11.8h0.8
		c15.6,0,28.3,12.7,28.3,28.3v2c0,15.6-12.8,28.3-28.5,28.3h-1.6c-15.3,0-30.3-2.9-44.6-8.6l-44.8-17.9
		C28.6,420.4,7.4,389.1,7.2,353.9z M64,492.8c-5.4,0-10.8-2.6-14-7.3l0,0l-7.3-10.9c-1.7-2.5-2.6-5.5-2.6-8.5
		c0-5.3,2.8-10.4,7.4-13.1l17.2-10.3l38.6,15.5c1,0.4,2.1,0.7,3.2,1.1c0.7,0.2,1.4,0.5,2.1,0.7l9.3,3.3l-45.6,27.3
		C69.8,492,66.9,492.8,64,492.8z M204.4,492.8V460h-7.2v32.9H82.4l46.2-27.7l1.7,0.3c7.3,1.2,14,1.8,20.5,1.8h1.6
		c17.1,0,31.9-12.1,35.1-28.9l0.5-2.4l45.1-18.9l2.2,2.9c4.8,6.6,10.6,12.2,17.2,16.6l2.7,1.8c6.3,4.2,13.4,7.5,21.1,9.6l3.4,0.9
		v18.4h7.2v-17.1l4.9,0.3c0.7,0,1.4,0.1,2.1,0.2c0.9,0.1,1.8,0.2,2.6,0.2c3.9,0,7.8-0.4,12-1.2l4.9-0.9l0.5,5
		c1.2,10.5,3.4,24.2,5.1,33.8l1,5.4H204.4z M353.3,386.4c0,31.5-25.6,57.1-57.1,57.1c-13.3,0-26.1-3.9-37.2-11.3l-2.7-1.8
		c-17-11.3-27.2-30.3-27.2-50.8c0-15.2,12.4-27.5,27.5-27.5c13.5,0,24.9,9.5,27.1,22.7l0,0.2l3.3,26.9l7.1-0.9l-1.2-9.3l60.3-25.3
		V386.4z M366.9,352.9l-74.8,31.4l-1.3-10.4c-2.8-16.8-17.2-28.9-34.2-28.9c-19.1,0-34.7,15.6-34.7,34.7c0,9.1,1.9,18.1,5.5,26.7
		l1.8,4.3l-40.9,17.1l-1.2-5.5c-3.5-16.3-18.1-28.1-34.7-28.1h-0.8c-0.6,0-1.2,0-1.8-0.1c-0.4,0-0.7,0-1.1-0.1l-11.6-0.2l164-150.3
		c10.3-9.4,23.7-14.6,37.7-14.6c19.9,0,38.5,10.8,48.4,28.1l7.6,13.4c5,8.8,7.7,18.8,7.7,28.9C402.6,322.8,388.6,343.8,366.9,352.9z
		"/>
</g>
<g>
	<polygon class="st1" points="314.2,488.2 314.2,488.2 314.2,488.2 	"/>
</g>
<g>
	<polygon class="st1" points="126.9,195.2 126.9,195.2 126.9,195.2 	"/>
</g>
<g>
	<path d="M344.1,311.2V304c-13.2,0.7-25.6,5.7-35.6,14.3l5.1,5.1C322.2,316.1,332.8,311.9,344.1,311.2z"/>
</g>
<g>
	<rect x="255.4" y="299.8" transform="matrix(0.7682 -0.6402 0.6402 0.7682 -128.6622 251.3986)" width="54.9" height="7.2"/>
</g>
<g>
	<rect x="320.5" y="254.6" width="7.2" height="7.2"/>
</g>
<g>
	<rect x="106.9" y="271" width="7.2" height="7.2"/>
</g>
<g>
	<rect x="139.8" y="295.7" class="st6" width="7.2" height="23.6"/>
</g>
<g>
	<rect x="139.8" y="295.7" width="7.2" height="23.6"/>
</g>
<g>
	<rect x="123.3" y="345" width="7.2" height="23.6"/>
</g>
<g>
	<rect x="230.1" y="460" width="7.2" height="7.2"/>
</g>
</svg>
