<?xml version="1.0" encoding="utf-8"?>
<!-- Generator: Adobe Illustrator 26.0.1, SVG Export Plug-In . SVG Version: 6.00 Build 0)  -->
<svg version="1.1" id="Layer_1" xmlns="http://www.w3.org/2000/svg" xmlns:xlink="http://www.w3.org/1999/xlink" x="0px" y="0px"
	 viewBox="0 0 159 40" style="enable-background:new 0 0 159 40;" xml:space="preserve">
<style type="text/css">
	.st0{fill:#121212;}
	.st1{fill:#FFFFFF;}
</style>
<circle class="st0" cx="20" cy="20" r="20"/>
<path class="st1" d="M22.7,31.5c0,0.6-0.5,1.1-1.1,1.1h-8.7c-0.6,0-1.1-0.5-1.1-1.1V16.1c0-2.7,2.4-5,5.4-5s5.4,2.2,5.4,5V31.5z"/>
<path class="st1" d="M17.3,8.5c0-0.6,0.5-1.1,1.1-1.1h8.7c0.6,0,1.1,0.5,1.1,1.1v15.4c0,2.7-2.4,5-5.4,5s-5.4-2.2-5.4-5V8.5z"/>
<path class="st0" d="M22.7,15.5c-0.9-3.7-3.8-4.4-5.4-4.3v13c0.3,4.1,3.3,4.7,5.4,4.7C22.7,24.8,22.7,19.6,22.7,15.5z"/>
</svg>
