<svg width="18" height="18" viewBox="0 0 18 18" fill="none" xmlns="http://www.w3.org/2000/svg">
<path d="M5.86441 8.55583L5.00508 9L5.86441 9.44417C7.01638 10.0396 7.9604 10.9836 8.55583 12.1356L8.99965 12.9943L9.44403 12.1359C10.0406 10.9835 10.9838 10.0395 12.1356 9.44417L12.9943 9.00035L12.1359 8.55597C10.9835 7.95941 10.0395 7.0162 9.44417 5.86441L9.00035 5.00575L8.55597 5.86413C7.95941 7.0165 7.0162 7.96049 5.86441 8.55583ZM3 8.75C6.17414 8.75 8.75 6.17414 8.75 3C8.75 2.86214 8.86214 2.75 9 2.75C9.13786 2.75 9.25 2.86214 9.25 3C9.25 6.17414 11.8259 8.75 15 8.75C15.1379 8.75 15.25 8.86214 15.25 9C15.25 9.13786 15.1379 9.25 15 9.25C11.8259 9.25 9.25 11.8259 9.25 15C9.25 15.1379 9.13786 15.25 9 15.25C8.86214 15.25 8.75 15.1379 8.75 15C8.75 11.8259 6.17414 9.25 3 9.25C2.86214 9.25 2.75 9.13786 2.75 9C2.75 8.86214 2.86214 8.75 3 8.75Z" fill="#CA37ED" stroke="#CA37ED"/>
</svg>
