<svg width="8" height="9" viewBox="0 0 8 9" fill="none" xmlns="http://www.w3.org/2000/svg">
<path d="M0.130244 7.74089L6.48282 1.38886H1.77797C1.6601 1.38886 1.54706 1.34204 1.46371 1.25869C1.38036 1.17534 1.33354 1.0623 1.33354 0.944431C1.33354 0.82656 1.38036 0.713518 1.46371 0.630171C1.54706 0.546824 1.6601 0.5 1.77797 0.5H7.55557C7.67344 0.5 7.78648 0.546824 7.86983 0.630171C7.95318 0.713518 8 0.82656 8 0.944431V6.72203C8 6.8399 7.95318 6.95294 7.86983 7.03629C7.78648 7.11964 7.67344 7.16646 7.55557 7.16646C7.4377 7.16646 7.32466 7.11964 7.24131 7.03629C7.15796 6.95294 7.11114 6.8399 7.11114 6.72203V2.01718L0.759113 8.36976C0.717821 8.41105 0.6688 8.4438 0.61485 8.46615C0.560899 8.4885 0.503074 8.5 0.444678 8.5C0.386282 8.5 0.328458 8.4885 0.274508 8.46615C0.220557 8.4438 0.171535 8.41105 0.130244 8.36976C0.0889516 8.32846 0.0561972 8.27944 0.0338502 8.22549C0.0115027 8.17154 4.76837e-07 8.11372 4.76837e-07 8.05532C4.76837e-07 7.99693 0.0115027 7.9391 0.0338502 7.88515C0.0561972 7.8312 0.0889516 7.78218 0.130244 7.74089Z" fill="white"/>
</svg>
