<svg width="135" height="50" viewBox="0 0 135 50" fill="none" xmlns="http://www.w3.org/2000/svg">
<path d="M7.36946 1.80753L11.7221 1.86753C14.7232 1.72753 17.8038 1.52753 20.3876 1.62753C20.3478 1.14753 20.7652 1.10753 20.7255 0.627529C18.8373 -0.352471 14.9418 0.127529 11.583 0.127529C9.23771 0.127529 6.15709 -0.572473 5.60059 1.30753C5.66021 1.98753 6.65396 1.74753 7.36946 1.80753Z" fill="#CC1212"/>
<path d="M1.42684 5.48756C2.00322 4.00756 3.27522 3.22757 3.25534 1.12757C2.77834 0.947565 2.40072 0.647563 1.58584 0.787563C0.333718 1.58756 -0.0439062 4.58756 1.42684 5.48756Z" fill="#CC1212"/>
<path d="M2.08276 45.5676C2.08276 45.6476 2.08276 45.7276 2.08276 45.7876C2.36276 49.7476 2.18276 41.5876 2.08276 45.5676Z" fill="#CC1212"/>
<path d="M1.58584 35.6076C0.810711 35.1276 0.631836 36.4676 0.0952114 36.7876C0.0157114 38.5876 0.0554614 40.2876 0.592086 41.4676C0.0355864 45.5276 0.0952114 38.7076 0.0952114 43.2476C0.0952114 45.3276 -0.282413 47.7276 1.26784 48.4276C2.22184 48.0076 2.10259 46.7876 2.10259 45.8076C1.88396 42.5876 2.61934 38.3076 1.58584 35.6076Z" fill="#CC1212"/>
<path d="M23.3689 13.5276C24.8595 13.5676 24.462 11.4676 24.5415 10.3476C24.621 8.8476 25.2769 6.2876 25.1974 3.9876C25.1179 1.1276 24.2831 -1.4524 22.713 0.987597C23.349 5.2876 22.3552 10.0476 23.3689 13.5276Z" fill="#CC1212"/>
<path d="M4.24908 48.4076C3.83171 48.5276 3.67271 48.9476 3.75221 49.5876C5.04408 49.8876 6.85271 49.7676 8.56196 49.7676C10.2116 49.7676 12.1593 50.1676 13.0537 49.2676C12.3183 48.4676 10.7482 48.5076 9.39671 48.4276C7.74708 48.3276 5.85896 48.4876 4.24908 48.4076Z" fill="#CC1212"/>
<path d="M2.34108 6.72744C2.06283 7.14744 1.94358 7.48744 2.02308 7.76744C2.10258 8.04744 2.42058 8.16744 3.01683 8.12744C3.55345 8.08744 4.74595 8.30744 6.59433 8.76744C7.0117 8.86744 7.23033 8.82744 7.2502 8.60744C7.28995 8.40744 7.07133 8.12744 6.63408 7.80744C6.49495 7.70744 6.31608 7.58744 6.07758 7.42744C5.85895 7.28744 5.62045 7.14744 5.36208 7.00744C5.12358 6.86744 4.88508 6.72744 4.64658 6.58744C4.40808 6.44744 4.20933 6.34744 4.05033 6.26744C3.79195 6.10744 3.47395 6.04744 3.17583 6.08744C2.89758 6.10744 2.61933 6.32744 2.34108 6.72744Z" fill="#CC1212"/>
<path d="M20.0894 6.92756C19.8907 6.84756 19.6721 6.84756 19.4733 6.90756C18.9764 7.00756 18.4796 7.06756 17.9628 7.06756C17.2473 7.08756 16.4722 7.08756 15.6573 7.08756C14.8226 7.06756 14.0276 7.04756 13.2723 7.00756C12.4972 6.94756 11.9407 6.90756 11.5631 6.84756C11.2252 6.76756 10.8476 6.78756 10.5296 6.90756C10.2712 7.02756 9.97306 7.34756 9.63519 7.86756C9.45631 8.14756 9.37681 8.38756 9.39669 8.58756C9.41656 8.74756 9.47619 8.90756 9.61531 9.00756C9.75444 9.10756 9.91344 9.16756 10.0724 9.16756C10.2513 9.16756 10.4103 9.10756 10.5693 9.00756C10.8674 8.84756 11.1854 8.70756 11.5034 8.62756C11.8413 8.54756 12.3382 8.44756 12.9941 8.34756C13.7493 8.24756 14.4847 8.18756 15.2399 8.18756C15.9952 8.16756 16.7703 8.20756 17.5256 8.28756C18.0622 8.34756 18.4199 8.48756 18.6187 8.68756C18.8174 8.88756 18.9367 9.22756 18.9764 9.66756C19.0162 10.0076 18.9764 10.3676 18.8969 10.7076C18.7379 11.3876 18.5591 12.0476 18.3206 12.7076C18.1616 13.1876 18.0026 13.6076 17.8436 13.9476C17.6846 14.3076 17.5454 14.6476 17.3864 14.9476C17.2473 15.2476 17.0684 15.5276 16.8896 15.8076C16.7107 16.0676 16.5318 16.3276 16.3132 16.5876C15.8958 16.1676 15.4983 15.7476 15.0611 15.3076C14.6437 14.8676 14.2462 14.4476 13.8884 14.0476C13.5108 13.6476 13.1928 13.2876 12.9146 12.9676C12.6363 12.6476 12.4376 12.4076 12.3183 12.2476C11.7817 11.5876 11.2252 11.4476 10.6289 11.8476C10.2314 12.0676 10.0327 12.3076 10.0327 12.5476C10.0327 12.7876 10.1718 12.9476 10.4699 13.0676C10.8078 13.2076 11.1457 13.3676 11.4637 13.5476C11.7419 13.7276 12.0202 13.9076 12.2786 14.1276C12.7556 14.5476 13.2723 15.0276 13.8487 15.5876C14.4251 16.1476 15.0213 16.7676 15.6176 17.4276C15.0014 18.1076 14.3257 18.7476 13.6102 19.3476C12.9742 19.8676 12.2786 20.3276 11.5432 20.7076C10.8277 21.0676 10.0724 21.3676 9.31719 21.5876C8.50231 21.8276 7.68744 22.0076 6.87256 22.1476C6.65394 22.1676 6.43531 22.2876 6.29619 22.4676C6.17694 22.6276 6.11731 22.8276 6.13719 23.0076C6.17694 23.2076 6.31606 23.3876 6.51481 23.4876C6.73344 23.6276 7.05144 23.6876 7.44894 23.6676C8.52219 23.6076 9.57556 23.3676 10.5693 22.9676C11.5631 22.5876 12.4773 22.0476 13.2922 21.3876C13.9481 20.8476 14.5443 20.3276 15.0809 19.8276C15.6176 19.3276 16.0946 18.8276 16.4921 18.3676C16.8498 18.7676 17.1678 19.1476 17.4659 19.5076C17.7641 19.8676 18.0622 20.2276 18.3206 20.5476C18.7976 21.1676 19.1951 21.6876 19.5528 22.1076C19.8907 22.5276 20.2087 22.9076 20.4472 23.2076C20.6459 23.4476 20.8844 23.6876 21.1031 23.9276C21.2621 24.0876 21.4211 24.2276 21.5999 24.3476C21.8782 24.5676 22.3154 24.6476 22.9117 24.5876C23.3092 24.5276 23.6868 24.4076 24.0446 24.2476C24.2433 24.3276 24.4619 24.4076 24.6607 24.4676C24.6806 24.2876 24.7004 24.0876 24.7203 23.8676L24.7402 23.8476C25.1576 23.5876 25.3563 23.4076 25.3762 23.3276C25.3961 23.2476 25.2172 23.1276 24.8793 22.9676L24.8396 22.9476C25.1377 20.1876 25.4756 16.3276 23.0309 16.1076C22.6136 17.8076 22.5539 19.9476 22.6732 21.9076C22.5341 21.8276 22.3949 21.7476 22.2558 21.6676C22.0173 21.5276 21.7788 21.3676 21.5006 21.1676C20.7652 20.6676 20.0696 20.1476 19.3938 19.5876C18.6386 18.9676 17.9032 18.2876 17.1877 17.5676C17.5653 17.0876 17.9231 16.5876 18.2411 16.0676C18.5392 15.5676 18.7976 15.0476 19.0162 14.5276C19.1354 14.2476 19.2746 13.9076 19.4137 13.5276C19.5528 13.1476 19.6919 12.7676 19.8112 12.4076C19.9304 12.0276 20.0497 11.6876 20.1292 11.3676C20.2087 11.1276 20.2683 10.8676 20.2882 10.6076C20.3478 10.3276 20.4074 10.0276 20.5068 9.74756C20.6062 9.40756 20.7254 9.04756 20.8447 8.68756C20.9242 8.46756 20.9441 8.20756 20.8844 7.96756C20.8248 7.74756 20.7254 7.54756 20.5863 7.36756C20.4869 7.10756 20.3081 6.98756 20.0894 6.92756Z" fill="#CC1212"/>
<path d="M25.6743 33.1076C25.5551 33.0276 25.416 32.9676 25.257 32.9476C25.0781 32.9276 24.8793 32.8676 24.6806 32.8076C24.78 32.5676 24.8793 32.3276 25.0185 32.0876C24.939 30.7076 25.1973 29.0076 24.8396 27.9076C22.0968 25.6476 22.4943 29.9876 23.031 32.2476C22.9912 32.2276 22.9515 32.2076 22.8918 32.1876C21.918 31.7076 20.9441 31.1876 19.9702 30.6076C19.0162 30.0276 18.0225 29.3676 16.989 28.6076C16.3927 28.1876 15.9157 27.8076 15.558 27.5276C15.1803 27.2476 14.8822 26.9876 14.6437 26.7476C14.4251 26.5676 14.2462 26.3476 14.0673 26.1276C13.9282 25.9476 13.809 25.7276 13.7096 25.5076C13.5108 25.1676 13.2922 25.0076 13.0338 25.0476C12.7755 25.0876 12.4773 25.4476 12.1792 26.0876C11.9407 26.5876 11.4836 27.1476 10.8078 27.7876C10.0725 28.4876 9.25759 29.1076 8.40297 29.6676C7.40922 30.3076 6.35584 30.8876 5.28259 31.3676C4.24909 31.8276 3.17584 32.1876 2.08272 32.4476C2.10259 30.8276 1.96347 29.0276 2.06284 27.8876C2.18209 27.1676 3.07647 27.2276 3.05659 26.3876C2.93734 25.7876 2.38084 25.1676 2.10259 24.5076C2.02309 24.4476 1.94359 24.4076 1.84422 24.3676C1.80447 24.3676 1.78459 23.9676 1.76472 23.3476C1.78459 23.3676 1.78459 23.3876 1.80447 23.4076C2.02309 23.6276 2.34109 23.5676 2.73859 23.2076C3.03672 22.9476 3.35472 22.6876 3.67272 22.4276C3.99072 22.1876 4.32859 21.9276 4.66647 21.6476C5.00434 21.3876 5.40184 21.0676 5.83909 20.7476C6.27634 20.4276 6.75334 20.0276 7.27009 19.6076C7.38934 19.5276 7.46884 19.4076 7.52847 19.2676C7.56822 19.1676 7.58809 19.0476 7.56822 18.9476C7.54834 18.8676 7.48872 18.7876 7.40922 18.7476C7.30984 18.7076 7.19059 18.7276 7.11109 18.7676C6.51484 19.0676 5.93847 19.3676 5.38197 19.6276C4.82547 19.8876 4.36834 20.0876 4.05034 20.2276C3.81184 20.3276 3.57334 20.4276 3.31497 20.5076C2.97709 20.5876 2.63922 20.6676 2.30134 20.7276C2.10259 20.7676 1.90384 20.8676 1.74484 21.0076C1.76472 18.6676 1.82434 15.9876 1.82434 15.9876L1.86409 14.7876C2.28147 14.7876 2.77834 14.7876 3.37459 14.8076C4.12984 14.8476 4.86522 14.8676 5.60059 14.9076C6.01797 14.9476 6.25647 14.8476 6.29622 14.6276C6.31609 14.3876 6.15709 14.2076 5.75959 14.0076C5.34222 13.8276 4.88509 13.6476 4.38822 13.4476C3.87147 13.2676 3.35472 13.0676 2.83797 12.8876C2.55972 12.7876 2.26159 12.7476 1.96347 12.8076L2.14234 8.44758C2.00322 7.76758 1.66534 7.28758 0.910094 7.26758C0.532469 8.40758 0.85047 10.2076 0.73122 11.6276C0.65172 12.1676 0.0952192 12.2276 0.0753442 12.8076V29.7076C0.0753442 31.0676 -0.262531 32.8876 0.492719 33.8876V33.9076C0.572219 34.1276 0.751094 34.2676 0.969719 34.3276C1.00947 34.3476 1.02934 34.3676 1.06909 34.3876C1.08897 34.3876 1.08897 34.3676 1.10884 34.3476C1.52622 34.4276 2.14234 34.3276 2.95722 34.0676C3.57334 33.8876 4.18947 33.6676 4.78572 33.4076C5.46147 33.1076 6.11734 32.7676 6.75334 32.3876C7.44897 31.9676 8.24397 31.4276 9.09859 30.7876C9.95322 30.1476 10.9668 29.3476 12.0997 28.3876C12.3382 28.1876 12.5568 28.0076 12.7357 27.8676C12.8748 27.7476 13.0537 27.6676 13.2326 27.6276C13.3916 27.6076 13.5705 27.6076 13.7295 27.6476C13.968 27.7276 14.2065 27.8276 14.445 27.9476C14.5443 28.0076 14.8226 28.2076 15.2996 28.5276C15.7567 28.8476 16.2933 29.2676 16.8896 29.7476C17.5057 30.2276 18.1417 30.7476 18.8175 31.2876C19.4932 31.8276 20.1093 32.3476 20.6658 32.8076C21.1627 33.2476 21.5602 33.5876 21.8981 33.8476C22.1565 34.0476 22.4347 34.2276 22.713 34.3476C22.9117 39.3276 22.2956 36.3276 22.9713 41.5676L22.2558 41.5076C21.3018 41.4276 20.4273 41.3676 19.6522 41.3076C18.8771 41.2476 18.1616 41.2076 17.5057 41.1876C16.8498 41.1476 16.2337 41.1276 15.6573 41.1276C15.081 41.1076 14.4847 41.1276 13.8885 41.1476V39.6076C13.8885 39.0276 13.9083 38.4076 13.9282 37.7676C14.6835 37.7276 15.4387 37.7276 16.1741 37.7676C16.7306 37.8076 17.2672 37.8676 17.8038 37.9476C18.2808 38.0476 18.6187 38.0476 18.8175 37.9676C19.056 37.8476 19.2547 37.6476 19.374 37.3876C19.7317 36.7876 19.6323 36.5276 19.0957 36.5876C18.9367 36.6076 18.7181 36.6276 18.4398 36.6476C18.2212 36.6676 18.0026 36.6676 17.784 36.6476C17.5455 36.6476 17.2473 36.6476 16.9293 36.6276C16.6113 36.6076 16.2536 36.6076 15.8958 36.6076C15.5381 36.6076 15.1803 36.6076 14.8425 36.6276C14.5046 36.6476 14.1866 36.6476 13.9282 36.6476C13.9282 36.0676 13.9282 35.5076 13.9481 34.9876C13.968 34.4476 13.968 33.9676 13.9878 33.5476C14.9418 33.5476 15.6772 33.5676 16.1542 33.6076C16.5716 33.6476 16.9691 33.7076 17.3666 33.7876C18.0821 33.9676 18.5392 33.8876 18.738 33.5076C18.9367 33.1876 18.9963 32.9476 18.9168 32.7876C18.8572 32.6476 18.6386 32.5276 18.2411 32.4076C18.0423 32.3676 17.784 32.3276 17.4858 32.3076C17.1877 32.2876 16.7902 32.2676 16.2735 32.2676C15.7567 32.2676 15.1207 32.2876 14.3655 32.3076C13.6102 32.3276 12.6363 32.3676 11.4637 32.4276C11.1457 32.4476 10.8675 32.4676 10.6687 32.4676H10.152C10.0128 32.4676 9.87372 32.4676 9.77434 32.4476C9.65509 32.4276 9.53584 32.4076 9.41659 32.3676C9.13834 32.3076 8.86009 32.3076 8.58184 32.3676C8.28372 32.4276 7.96572 32.5276 7.68747 32.6676C7.42909 32.7876 7.21047 32.9476 7.01172 33.1476C6.85272 33.2876 6.79309 33.5076 6.85272 33.7076C6.95209 34.0276 7.13097 34.2276 7.40922 34.2876C7.66759 34.3476 8.08497 34.2876 8.64147 34.1276C8.91972 34.0476 9.19797 33.9676 9.47622 33.9076C9.75447 33.8476 10.0128 33.7876 10.311 33.7476C10.5892 33.7076 10.9072 33.6676 11.2252 33.6476C11.5631 33.6276 11.9407 33.6076 12.3581 33.5876C12.378 34.0676 12.3978 34.5676 12.3978 35.1076C12.4177 35.6476 12.4177 36.2076 12.4376 36.7676C11.4041 36.8076 10.629 36.8276 10.1321 36.8076C9.79422 36.8076 9.43647 36.7876 9.09859 36.7276C8.78059 36.6276 8.42284 36.6476 8.12472 36.7676C7.70734 36.9476 7.34959 37.2276 7.09122 37.5876C6.95209 37.7276 6.83284 37.9076 6.77322 38.0876C6.71359 38.2076 6.73347 38.3476 6.83284 38.4476C6.93222 38.5276 7.11109 38.5676 7.36947 38.5676C7.74709 38.5476 8.14459 38.4676 8.50234 38.3476C8.91972 38.2476 9.43647 38.1476 10.0923 38.0676C10.7283 37.9676 11.5432 37.8876 12.4972 37.8276C12.5171 38.5276 12.537 39.1676 12.537 39.7276V41.2476C11.7618 41.2876 10.9072 41.3476 9.97309 41.4476L6.73347 41.7676C6.29622 41.8076 5.91859 41.8476 5.56084 41.8676C5.22297 41.9076 4.98447 41.9076 4.88509 41.9076C4.60684 41.9276 4.36834 41.9476 4.18947 41.9876C4.03047 42.0076 3.89134 42.0676 3.75222 42.1476C3.63297 42.2276 3.51372 42.3276 3.41434 42.4476C3.29509 42.6076 3.17584 42.7676 3.07647 42.9476C2.93734 43.1476 2.89759 43.3876 2.97709 43.6076C3.05659 43.8076 3.21559 43.9676 3.39447 44.0276C3.65284 44.1276 3.93109 44.1676 4.18947 44.1276C4.54722 44.0876 4.88509 43.9876 5.18322 43.8276C5.64034 43.6276 6.11734 43.4476 6.59434 43.3276C7.25022 43.1476 7.96572 42.9676 8.74084 42.8076C9.51597 42.6476 10.311 42.5076 11.1258 42.3876C11.9407 42.2676 12.6363 42.2076 13.2326 42.1876C13.9282 42.1676 14.604 42.2076 15.2797 42.2876C15.9952 42.3676 16.6908 42.4676 17.3666 42.6076C18.0026 42.7276 18.6187 42.8876 19.2348 43.0676C19.7118 43.2076 20.1888 43.3876 20.646 43.6076C21.2422 43.9076 21.7192 44.0476 22.1167 43.9876C22.3552 43.9476 22.5937 43.8276 22.7726 43.6876C22.8521 44.0876 23.1105 44.3276 23.2297 44.7076C22.5142 45.7076 23.0906 48.0276 21.7391 48.3876C20.5863 48.3276 19.1553 48.5476 18.2411 48.2276C18.3603 47.6076 18.5392 47.0876 18.0821 46.7276H16.9095C16.7306 47.9876 15.717 48.4276 15.5778 49.7276C18.0821 49.6276 21.0037 49.9476 23.2297 49.5476C23.8856 48.7876 24.2632 48.4476 24.4818 48.3076C24.2831 48.1476 24.0446 47.5276 24.0645 45.6076C24.0843 44.7276 24.4818 43.9476 24.5613 43.1076C24.8992 39.9876 24.0843 36.8276 24.3626 34.2876C24.6806 34.1476 24.9986 33.9876 25.2967 33.7876C25.4756 33.6876 25.6346 33.5276 25.734 33.3676C25.7936 33.2876 25.7737 33.1676 25.6743 33.1076Z" fill="#CC1212"/>
<path d="M53.0621 4.06761L53.2807 13.3276H52.446C52.0485 11.0076 51.0945 9.12761 49.5442 7.72761C47.994 6.30761 46.3245 5.60761 44.5357 5.60761C43.1445 5.60761 42.0514 5.98761 41.2365 6.72761C40.4216 7.46761 40.0241 8.32761 40.0241 9.30761C40.0042 9.88761 40.1632 10.4476 40.4415 10.9476C40.839 11.5876 41.475 12.2276 42.3296 12.8476C42.9656 13.3076 44.4364 14.1076 46.7617 15.2476C50.0014 16.8476 52.1677 18.3676 53.3006 19.7876C54.3937 21.1676 54.99 22.9076 54.9701 24.6676C54.9701 26.9876 54.0757 28.9876 52.2671 30.6676C50.4585 32.3476 48.1729 33.1876 45.4102 33.1876C44.5755 33.1876 43.7606 33.1076 42.9457 32.9276C41.952 32.6676 40.9781 32.3476 40.0241 31.9276C39.3682 31.6476 38.8316 31.5076 38.4142 31.5076C38.0167 31.5276 37.6192 31.6676 37.3012 31.9276C36.864 32.2476 36.546 32.6876 36.3472 33.1876H35.592V22.6676H36.3472C36.9435 25.6276 38.0962 27.8876 39.8055 29.4276C41.5147 30.9676 43.3432 31.7476 45.3307 31.7476C46.8611 31.7476 48.0735 31.3276 48.9679 30.4876C49.8622 29.6476 50.3194 28.6876 50.3194 27.5676C50.3194 26.8876 50.1405 26.2276 49.7827 25.6476C49.3654 24.9676 48.8287 24.3676 48.2126 23.8876C47.4971 23.3276 46.245 22.6076 44.4562 21.7276C41.952 20.4876 40.1434 19.4276 39.0304 18.5476C37.9969 17.7476 37.1422 16.7476 36.4864 15.6076C35.8901 14.5076 35.592 13.2876 35.592 12.0476C35.592 9.82761 36.4069 7.94761 38.0167 6.38761C39.6266 4.82761 41.6737 4.04761 44.1382 4.04761C45.0127 4.04761 45.8872 4.14761 46.7419 4.36761C47.5567 4.58761 48.3319 4.90761 49.0672 5.28761C49.9815 5.72761 50.6175 5.94761 50.9951 5.94761C51.3131 5.96761 51.6112 5.84761 51.8299 5.62761C52.0286 5.40761 52.2274 4.88761 52.4062 4.04761L53.0621 4.06761Z" fill="black"/>
<path d="M71.9434 31.7475V32.5075H57.4942V31.7475H58.4085C59.2035 31.7475 59.8594 31.6075 60.3364 31.3275C60.714 31.1075 61.0121 30.7475 61.1512 30.3475C61.3102 30.0275 61.3699 29.1675 61.3699 27.7675V9.46752C61.3699 8.04752 61.2904 7.14752 61.1512 6.80752C60.9922 6.44752 60.6941 6.14752 60.237 5.86752C59.7799 5.60752 59.1637 5.46752 58.3886 5.46752H57.4744V4.70752H71.9235V5.46752H71.0291C70.2341 5.46752 69.5782 5.60752 69.1012 5.88752C68.7236 6.10752 68.4255 6.46752 68.2665 6.86752C68.1075 7.18752 68.0479 8.04752 68.0479 9.44752V27.7475C68.0479 29.1675 68.1274 30.0675 68.2864 30.4075C68.4454 30.7475 68.7435 31.0675 69.2006 31.3475C69.6577 31.6075 70.2739 31.7475 71.049 31.7475H71.9434Z" fill="black"/>
<path d="M83.292 4.70752L96.9262 21.9475V9.98752C96.9262 8.32752 96.6877 7.18752 96.2107 6.60752C95.5548 5.80752 94.4617 5.42752 92.9313 5.46752V4.70752H102.054V5.46752C100.881 5.62752 100.106 5.80752 99.7087 6.04752C99.2715 6.32752 98.9535 6.72752 98.7746 7.20752C98.556 7.74752 98.4367 8.66752 98.4367 9.98752V33.1475H97.7411L79.0586 9.98752V27.6675C79.0586 29.2675 79.4163 30.3475 80.1517 30.9075C80.8672 31.4675 81.7417 31.7675 82.656 31.7475H83.3118V32.5075H73.5135V31.7475C75.0438 31.7275 76.0972 31.4275 76.6935 30.8075C77.2897 30.1875 77.5878 29.1475 77.5878 27.6675V8.04752L76.9916 7.30752C76.4152 6.56752 75.8985 6.08752 75.4413 5.84752C74.9842 5.60752 74.3482 5.48752 73.5135 5.46752V4.70752H83.292Z" fill="black"/>
<path d="M119.186 4.30752C123.598 4.14752 127.176 5.42751 129.919 8.18752C132.661 10.9475 134.053 14.3675 134.053 18.5075C134.053 22.0275 133.019 25.1475 130.972 27.8275C128.249 31.3875 124.413 33.1675 119.464 33.1675C114.496 33.1675 110.66 31.4675 107.937 28.0875C105.79 25.4075 104.717 22.2275 104.717 18.5475C104.717 14.4275 106.108 10.9675 108.911 8.22752C111.673 5.44752 115.092 4.14752 119.186 4.30752ZM119.425 5.62752C116.901 5.62752 114.973 6.92752 113.661 9.52752C112.588 11.6675 112.051 14.7275 112.051 18.7075C112.051 23.4475 112.886 26.9675 114.535 29.2275C115.688 30.8075 117.298 31.6075 119.385 31.6075C120.776 31.6075 121.949 31.2675 122.883 30.5875C124.075 29.7075 125.01 28.3075 125.665 26.3875C126.321 24.4675 126.659 21.9675 126.659 18.8675C126.659 15.1875 126.321 12.4475 125.646 10.6075C124.97 8.78752 124.095 7.48752 123.042 6.74752C121.989 6.00752 120.717 5.60752 119.425 5.62752Z" fill="black"/>
<path d="M42.4091 38.5876L42.6078 41.0676H42.4091C42.2103 40.4476 41.952 39.9876 41.6141 39.6676C41.1371 39.2076 40.4812 38.9676 39.8253 38.9876C38.8316 38.9876 38.0764 39.3876 37.5596 40.1676C37.1224 40.8876 36.8839 41.7076 36.9037 42.5476C36.8839 43.2476 37.0428 43.9476 37.3211 44.5876C37.5596 45.1476 37.9571 45.6076 38.454 45.9476C38.8912 46.2276 39.3881 46.3676 39.885 46.3676C40.1632 46.3676 40.4415 46.3276 40.7197 46.2676C40.998 46.1876 41.2563 46.0876 41.4948 45.9476V43.6876C41.4948 43.2876 41.475 43.0476 41.4153 42.9076C41.3557 42.7876 41.2564 42.6876 41.1371 42.6276C40.9185 42.5476 40.6998 42.5076 40.4812 42.5276V42.3076H43.5022V42.5276H43.3631C43.065 42.5276 42.8662 42.6276 42.747 42.8276C42.6675 42.9676 42.6277 43.2476 42.6277 43.6676V46.0676C42.2104 46.2876 41.7731 46.4676 41.316 46.5876C40.839 46.7076 40.362 46.7676 39.885 46.7476C38.3745 46.7476 37.2416 46.2676 36.4665 45.2876C35.8901 44.5876 35.5721 43.6876 35.592 42.7676C35.6118 41.2476 36.4069 39.8476 37.6987 39.0476C38.5534 38.5876 39.5471 38.4476 40.5011 38.6276C40.839 38.7076 41.157 38.8076 41.4948 38.9276C41.634 38.9876 41.7731 39.0276 41.9122 39.0476C41.9917 39.0476 42.0513 39.0076 42.0911 38.9476C42.1507 38.8276 42.1905 38.6876 42.1905 38.5476L42.4091 38.5876Z" fill="black"/>
<path d="M50.4386 44.4276L50.6175 44.4676L49.9616 46.6076H43.9196V46.3876H44.2177C44.5556 46.3876 44.7941 46.2876 44.9332 46.0676C45.0127 45.9476 45.0525 45.6676 45.0525 45.2076V40.1476C45.0525 39.6676 44.9928 39.3476 44.8935 39.2276C44.7146 39.0476 44.4761 38.9476 44.2177 38.9676H43.9196V38.7476H47.4375V38.9676C47.0201 38.9676 46.722 39.0076 46.563 39.0876C46.4238 39.1476 46.3046 39.2476 46.2251 39.3876C46.1655 39.5076 46.1257 39.8076 46.1257 40.2676V45.2076C46.1058 45.4276 46.1456 45.6476 46.2251 45.8676C46.2648 45.9476 46.3443 46.0076 46.4437 46.0476C46.5431 46.0876 46.8412 46.1076 47.3381 46.1076H47.9145C48.5107 46.1076 48.9281 46.0676 49.1666 45.9676C49.425 45.8676 49.6436 45.7076 49.8225 45.4876C50.0808 45.1876 50.2796 44.8276 50.4386 44.4276Z" fill="black"/>
<path d="M55.1688 38.5875C56.1626 38.5875 57.1166 39.0075 57.7923 39.7475C58.5277 40.5275 58.9053 41.4875 58.9053 42.6475C58.9053 43.8475 58.5277 44.8275 57.7923 45.6075C56.3613 47.1275 53.9962 47.1875 52.5056 45.7475C52.4658 45.7075 52.4261 45.6675 52.3863 45.6275C51.651 44.8675 51.2932 43.8675 51.2932 42.6475C51.2932 41.4075 51.7106 40.3875 52.5652 39.6075C53.2608 38.9275 54.195 38.5675 55.1688 38.5875ZM55.0695 39.0075C54.4136 38.9875 53.7975 39.2675 53.4 39.7875C52.8832 40.4275 52.605 41.3875 52.605 42.6475C52.605 43.9275 52.8832 44.9075 53.4198 45.6075C53.8173 46.1275 54.4335 46.4075 55.0695 46.3875C55.7651 46.4075 56.4408 46.0875 56.8781 45.5275C57.3551 44.9475 57.5936 44.0475 57.5936 42.8075C57.5936 41.4675 57.3352 40.4675 56.7986 39.8075C56.3812 39.2675 55.8048 39.0075 55.0695 39.0075Z" fill="black"/>
<path d="M64.8082 42.6075C65.3448 42.7275 65.7423 42.9075 66.0206 43.1675C66.3783 43.5075 66.5771 43.9675 66.5771 44.4675C66.5771 44.8675 66.438 45.2675 66.1995 45.5875C65.961 45.9475 65.6032 46.2275 65.1858 46.3675C64.7685 46.5275 64.1126 46.6075 63.2381 46.6075H59.5612V46.3875H59.8593C60.1773 46.3875 60.4158 46.2875 60.555 46.0675C60.6345 45.9275 60.6941 45.6475 60.6941 45.2075V40.1475C60.6941 39.6675 60.6345 39.3475 60.5351 39.2275C60.3562 39.0475 60.1177 38.9475 59.8593 38.9675H59.5612V38.7475H62.9201C63.4368 38.7275 63.9337 38.7875 64.4306 38.8875C64.9275 38.9875 65.4045 39.2475 65.7423 39.6275C66.0405 39.9675 66.1995 40.3875 66.1995 40.8475C66.1995 41.2275 66.0802 41.6075 65.8417 41.9075C65.5833 42.2475 65.2057 42.4875 64.8082 42.6075ZM61.7872 42.2875C61.9263 42.3075 62.0853 42.3275 62.2642 42.3475C62.4431 42.3675 62.6418 42.3675 62.8605 42.3675C63.417 42.3675 63.8343 42.3075 64.1126 42.1875C64.3908 42.0675 64.6095 41.8875 64.7685 41.6275C64.9076 41.3875 64.9871 41.0875 64.9871 40.8075C64.9871 40.3475 64.7883 39.9275 64.4306 39.6275C64.053 39.3075 63.5163 39.1475 62.8008 39.1475C62.4431 39.1475 62.1052 39.1875 61.7673 39.2675L61.7872 42.2875ZM61.7872 46.0275C62.2245 46.1275 62.6617 46.1875 63.099 46.1875C63.7946 46.1875 64.3113 46.0275 64.689 45.7075C65.0467 45.4275 65.2455 44.9875 65.2256 44.5475C65.2256 44.2475 65.1461 43.9275 64.9871 43.6675C64.7883 43.3675 64.5101 43.1275 64.1921 43.0075C63.7548 42.8275 63.2778 42.7475 62.8207 42.7675C62.5822 42.7675 62.3835 42.7675 62.2046 42.7875C62.0655 42.7875 61.9263 42.8075 61.7872 42.8275V46.0275Z" fill="black"/>
<path d="M72.5992 43.9674H69.5782L69.0416 45.2074C68.9422 45.4274 68.8627 45.6474 68.8428 45.8874C68.8428 46.0074 68.9025 46.1274 69.0217 46.2074C69.141 46.2874 69.3795 46.3474 69.7571 46.3874V46.6074H67.3125V46.3874C67.6305 46.3274 67.8491 46.2474 67.9485 46.1674C68.1472 45.9874 68.3658 45.6074 68.6043 45.0474L71.3471 38.5874H71.5458L74.2488 45.1074C74.4675 45.6274 74.6662 45.9674 74.8451 46.1274C75.0637 46.2874 75.3221 46.3874 75.5805 46.3874V46.6074H72.4998V46.3874C72.8178 46.3674 73.0166 46.3274 73.1358 46.2274C73.2352 46.1474 73.2948 46.0274 73.2948 45.9074C73.275 45.6274 73.1955 45.3474 73.0563 45.1074L72.5992 43.9674ZM72.4402 43.5474L71.1285 40.3874L69.777 43.5474H72.4402Z" fill="black"/>
<path d="M82.4572 44.4275L82.656 44.4675L81.9802 46.5875H75.9581V46.3675H76.2562C76.5941 46.3675 76.8326 46.2675 76.9717 46.0475C77.0512 45.9275 77.091 45.6475 77.091 45.1875V40.1275C77.091 39.6475 77.0314 39.3275 76.932 39.2075C76.7531 39.0275 76.5146 38.9275 76.2562 38.9475H75.9581V38.7275H79.4959V38.9475C79.0785 38.9475 78.8002 38.9875 78.6214 39.0675C78.4822 39.1275 78.363 39.2275 78.2835 39.3675C78.2239 39.4875 78.1841 39.7875 78.1841 40.2475V45.2075C78.1642 45.4275 78.204 45.6475 78.2835 45.8675C78.3232 45.9475 78.4027 46.0075 78.5021 46.0475C78.6015 46.0875 78.8996 46.1075 79.3965 46.1075H79.9729C80.5691 46.1075 80.9865 46.0675 81.225 45.9675C81.4833 45.8675 81.702 45.7075 81.8809 45.4875C82.1194 45.1875 82.3181 44.8275 82.4572 44.4275Z" fill="black"/>
<path d="M92.4742 38.5874L92.6531 41.2474H92.4742C92.2357 40.4474 91.8978 39.8674 91.4606 39.5274C91.0035 39.1674 90.447 38.9874 89.8706 39.0074C88.7973 38.9874 87.8433 39.6474 87.4856 40.6674C87.2272 41.3474 87.108 42.0874 87.1278 42.8274C87.108 43.4674 87.2272 44.0874 87.4657 44.6674C87.6645 45.1674 88.0222 45.5874 88.4793 45.8674C88.9563 46.1474 89.493 46.2874 90.0296 46.2874C90.4867 46.2874 90.9637 46.1874 91.3612 45.9674C91.7388 45.7474 92.1761 45.3074 92.6332 44.6674L92.8121 44.7874C92.4146 45.4874 91.9575 45.9874 91.4407 46.3274C90.8842 46.6674 90.2284 46.8274 89.5924 46.8074C88.3005 46.8074 87.3067 46.3274 86.5912 45.3674C86.0546 44.6274 85.7763 43.7474 85.7962 42.8274C85.7962 42.0674 85.9751 41.3274 86.313 40.6674C86.631 40.0274 87.1477 39.5074 87.744 39.1474C88.3402 38.7874 89.0359 38.6074 89.7514 38.6074C90.3277 38.6074 90.9041 38.7474 91.4208 39.0274C91.5202 39.0874 91.6395 39.1274 91.7587 39.1474C91.8581 39.1474 91.9575 39.1074 92.037 39.0474C92.1364 38.9274 92.2158 38.7874 92.2556 38.6274L92.4742 38.5874Z" fill="black"/>
<path d="M98.6355 43.9674H95.6145L95.0779 45.2074C94.9785 45.4274 94.899 45.6474 94.8791 45.8874C94.8791 46.0074 94.9387 46.1274 95.058 46.2074C95.1772 46.2874 95.4157 46.3474 95.7933 46.3874V46.6074H93.3487V46.3874C93.6667 46.3274 93.8854 46.2474 93.9847 46.1674C94.1835 45.9874 94.4021 45.6074 94.6406 45.0474L97.3833 38.5874H97.5821L100.285 45.1074C100.504 45.6274 100.702 45.9674 100.881 46.1274C101.1 46.2874 101.358 46.3874 101.617 46.3874V46.6074H98.5361V46.3874C98.8541 46.3674 99.0528 46.3274 99.1721 46.2274C99.2715 46.1474 99.3311 46.0274 99.3311 45.9074C99.3112 45.6274 99.2317 45.3474 99.0926 45.1074L98.6355 43.9674ZM98.4765 43.5474L97.1449 40.3874L95.7933 43.5474H98.4765Z" fill="black"/>
<path d="M104.161 42.9276V45.2076C104.161 45.7076 104.22 46.0076 104.32 46.1276C104.499 46.3076 104.737 46.4076 104.976 46.3876H105.274V46.6076H101.935V46.3876H102.233C102.571 46.3876 102.809 46.2876 102.948 46.0676C103.028 45.9476 103.068 45.6676 103.068 45.2076V40.1476C103.068 39.6476 103.008 39.3476 102.909 39.2276C102.73 39.0476 102.491 38.9476 102.233 38.9676H101.935V38.7476H104.797C105.353 38.7276 105.91 38.8076 106.446 38.9676C106.844 39.1076 107.202 39.3676 107.46 39.7076C107.738 40.0476 107.877 40.4876 107.877 40.9276C107.897 41.5076 107.659 42.0876 107.241 42.4876C106.824 42.8876 106.228 43.0876 105.472 43.0876C105.274 43.0876 105.075 43.0676 104.856 43.0476C104.638 43.0276 104.419 42.9876 104.161 42.9276ZM104.161 42.6076C104.359 42.6476 104.538 42.6676 104.697 42.6876C104.836 42.7076 104.956 42.7076 105.095 42.7076C105.492 42.7076 105.87 42.5476 106.128 42.2476C106.426 41.9276 106.585 41.4876 106.566 41.0476C106.566 40.7276 106.506 40.4076 106.367 40.1076C106.248 39.8276 106.049 39.6076 105.771 39.4476C105.512 39.3076 105.214 39.2276 104.916 39.2276C104.658 39.2276 104.419 39.2676 104.161 39.3276V42.6076Z" fill="black"/>
<path d="M111.912 46.3876V46.6076H108.573V46.3876H108.851C109.169 46.3876 109.408 46.2876 109.567 46.1076C109.666 45.9876 109.706 45.6876 109.706 45.2276V40.1676C109.726 39.9076 109.706 39.6276 109.626 39.3876C109.587 39.2876 109.487 39.1876 109.388 39.1476C109.229 39.0476 109.05 39.0076 108.851 39.0076H108.593V38.7876H111.912V39.0076H111.634C111.375 38.9876 111.117 39.0876 110.938 39.2876C110.839 39.4076 110.799 39.7076 110.799 40.1676V45.2076C110.779 45.4676 110.819 45.7276 110.878 45.9876C110.938 46.0876 111.018 46.1876 111.117 46.2276C111.276 46.3276 111.455 46.3676 111.634 46.3676L111.912 46.3876Z" fill="black"/>
<path d="M119.007 38.7676L119.087 40.6076H118.868C118.848 40.3676 118.789 40.1276 118.689 39.9076C118.59 39.7076 118.411 39.5276 118.212 39.4076C117.974 39.2876 117.696 39.2276 117.437 39.2476H116.344V45.2276C116.344 45.7076 116.404 46.0076 116.503 46.1276C116.682 46.3076 116.92 46.3876 117.179 46.3676H117.457V46.5876H114.158V46.3676H114.436C114.774 46.3676 114.993 46.2676 115.132 46.0676C115.211 45.9476 115.251 45.6676 115.251 45.2276V39.2476H114.317C114.058 39.2276 113.8 39.2676 113.542 39.3276C113.323 39.4076 113.144 39.5476 113.025 39.7476C112.866 40.0076 112.786 40.2876 112.767 40.5876H112.568L112.667 38.7476L119.007 38.7676Z" fill="black"/>
<path d="M123.837 43.9674H120.816L120.279 45.2074C120.18 45.4274 120.1 45.6474 120.081 45.8874C120.081 46.0074 120.14 46.1274 120.259 46.2074C120.379 46.2874 120.617 46.3474 120.995 46.3874V46.6074H118.53V46.3874C118.848 46.3274 119.067 46.2474 119.166 46.1674C119.365 45.9874 119.584 45.6074 119.822 45.0474L122.565 38.5874H122.764L125.467 45.1074C125.685 45.6274 125.884 45.9674 126.063 46.1274C126.282 46.2874 126.54 46.3874 126.798 46.3874V46.6074H123.718V46.3874C124.036 46.3674 124.234 46.3274 124.354 46.2274C124.453 46.1474 124.513 46.0274 124.513 45.9074C124.493 45.6274 124.413 45.3474 124.274 45.1074L123.837 43.9674ZM123.678 43.5474L122.346 40.3874L120.995 43.5474H123.678Z" fill="black"/>
<path d="M133.695 44.4275L133.874 44.4675L133.198 46.5875H127.176V46.3675H127.474C127.812 46.3675 128.05 46.2675 128.19 46.0475C128.269 45.9275 128.309 45.6475 128.309 45.1875V40.1275C128.309 39.6475 128.249 39.3275 128.15 39.2075C127.971 39.0275 127.732 38.9275 127.474 38.9475H127.176V38.7275H130.694V38.9475C130.276 38.9475 129.998 38.9875 129.819 39.0675C129.68 39.1275 129.561 39.2275 129.481 39.3675C129.422 39.4875 129.382 39.7875 129.382 40.2475V45.2075C129.362 45.4275 129.402 45.6475 129.481 45.8675C129.521 45.9475 129.601 46.0075 129.7 46.0475C129.799 46.0875 130.098 46.1075 130.594 46.1075H131.171C131.767 46.1075 132.184 46.0675 132.423 45.9675C132.681 45.8675 132.9 45.7075 133.079 45.4875C133.337 45.1875 133.536 44.8275 133.695 44.4275Z" fill="black"/>
</svg>
