<svg width="194" height="20" viewBox="0 0 194 20" fill="none" xmlns="http://www.w3.org/2000/svg">
<path d="M93.7823 0.0396413C95.5933 0.104319 97.4042 0.557061 99.0212 1.33319C99.3446 1.49488 99.668 1.5919 99.9913 1.65658C100.121 1.65658 100.25 1.62424 100.315 1.52722L100.476 1.39787C100.573 1.30086 100.67 1.26852 100.8 1.26852C101.059 1.26852 101.188 1.43021 101.188 1.7536V2.69142L101.123 4.53472L101.156 5.50488C101.188 5.73125 101.188 5.98997 101.22 6.28102C101.22 6.37804 101.22 6.47505 101.22 6.50738C101.22 6.79843 101.091 6.92779 100.8 6.92779C100.606 6.92779 100.476 6.73376 100.412 6.37803C100.185 5.1815 99.5709 4.08198 98.6978 3.24117C97.4689 1.85061 95.658 1.04215 93.8147 1.07448C92.1007 1.04215 90.4514 1.81827 89.4489 3.24117C88.2847 4.92279 87.7026 6.92779 87.7996 8.96513C87.735 11.2288 88.3171 13.4925 89.4813 15.4329C90.6131 17.1792 92.0037 18.0523 93.653 18.0523C94.2997 18.02 94.9142 17.923 95.5286 17.7289C96.143 17.5672 96.7251 17.3409 97.2749 17.0175C97.6306 16.7911 97.8893 16.403 98.0187 16.015C98.1804 15.3359 98.245 14.6244 98.2127 13.9453C98.3097 13.1692 98.0834 12.3607 97.6306 11.7139C97.0162 11.2288 96.24 10.9701 95.4639 11.0025C95.1729 10.9701 95.0435 10.8408 95.0435 10.6144C95.0435 10.3557 95.2052 10.2263 95.5286 10.2263C95.6256 10.2263 95.7873 10.2263 96.0137 10.2587C96.8868 10.3234 97.8893 10.388 98.9888 10.388C99.8297 10.388 100.67 10.3557 101.511 10.291C101.835 10.2263 102.19 10.2263 102.514 10.194C102.837 10.194 102.999 10.3234 102.999 10.5497C102.999 10.7761 102.837 10.9055 102.514 10.9701C102.029 11.0348 101.641 11.3582 101.447 11.8109C101.22 12.5547 101.091 13.2985 101.156 14.0746C101.156 14.3657 101.156 14.6567 101.188 14.9478C101.22 15.4005 101.253 15.6916 101.253 15.8856C101.285 16.112 101.22 16.306 101.091 16.5C100.897 16.6941 100.67 16.8234 100.412 16.8881C100.218 16.9528 99.5063 17.2762 98.2774 17.7936C96.5311 18.6344 94.6231 19.0872 92.6828 19.1842C90.4514 19.2488 88.2847 18.3757 86.7648 16.7264C85.1802 14.9801 84.3717 12.7164 84.4688 10.388C84.4041 7.70392 85.3419 5.08448 87.1205 3.07948C88.8021 1.07448 91.2276 -0.0250361 93.7823 0.0396413ZM110.146 14.5274C110.146 16.209 110.34 17.1468 110.76 17.3409C111.181 17.5025 111.633 17.5349 112.086 17.5025C115.126 17.5025 117.26 16.5971 118.521 14.8184C118.909 14.2687 119.168 14.01 119.265 14.01C119.427 14.01 119.524 14.204 119.524 14.5597C119.524 15.6916 119.136 16.7588 118.424 17.5996C117.778 18.3757 116.775 18.8284 115.74 18.7961C115.514 18.7961 115.094 18.7638 114.479 18.7314L112.862 18.6344L111.407 18.5697C110.922 18.5374 110.34 18.5374 109.725 18.5374C108.593 18.5374 107.494 18.6021 106.362 18.7314C106.006 18.7638 105.748 18.7961 105.618 18.7961C105.36 18.7961 105.23 18.6667 105.23 18.4404C105.23 18.2787 105.36 18.1493 105.586 18.0847C106.103 17.9553 106.524 17.6319 106.782 17.1468C107.041 16.4354 107.171 15.6592 107.106 14.8831V3.69392C107.106 2.27102 106.524 1.46255 105.327 1.26852L104.519 1.13916C104.195 1.07448 104.001 0.945127 104.001 0.718756C103.969 0.524724 104.098 0.330696 104.292 0.298357C104.325 0.298357 104.357 0.298357 104.389 0.298357C104.519 0.298357 104.648 0.330688 104.777 0.330688C104.907 0.330688 105.069 0.36303 105.295 0.395369L105.877 0.42771C106.427 0.492387 106.847 0.524722 107.106 0.524722C107.785 0.492383 108.464 0.460045 109.176 0.363029C109.887 0.298351 110.598 0.266016 111.31 0.266016C111.86 0.266016 112.118 0.395365 112.118 0.654075C112.118 0.880446 111.924 1.0098 111.536 1.0098C110.631 1.07448 110.178 1.68892 110.178 2.88545L110.146 14.5274ZM130.487 0.00730065C132.977 -0.0897155 135.402 0.78343 137.246 2.4327C138.992 4.11432 139.93 6.44271 139.833 8.83578C139.897 11.5199 138.959 14.1393 137.181 16.1443C135.467 18.0847 133.074 19.0871 130.034 19.0871C127.479 19.2165 124.957 18.2787 123.081 16.5324C121.303 14.7214 120.365 12.2637 120.462 9.74126C120.462 8.51239 120.688 7.28352 121.109 6.11933C121.949 3.69392 123.793 1.75359 126.218 0.848109C127.576 0.266012 129.032 0.00730065 130.487 0.00730065ZM129.517 1.0098C127.867 0.945125 126.283 1.68892 125.313 3.01481C124.31 4.34069 123.793 6.21633 123.793 8.57706C123.696 11.0025 124.342 13.3955 125.701 15.4329C126.8 17.0821 128.676 18.0847 130.648 18.0847C132.395 18.117 134.044 17.3085 135.047 15.918C136.211 14.204 136.793 12.1667 136.696 10.097C136.696 8.67408 136.437 7.28351 135.92 5.98996C135.499 4.79343 134.788 3.69392 133.882 2.78843C132.718 1.62424 131.134 0.977464 129.517 1.0098ZM144.101 4.24367C144.101 2.43271 143.358 1.46255 141.902 1.26852L141.288 1.20384C141.094 1.1715 140.997 1.04214 140.997 0.815769C140.997 0.557059 141.126 0.42771 141.385 0.42771H141.708L142.711 0.492381C143.552 0.52472 144.069 0.557063 144.295 0.557063C144.942 0.557063 146.106 0.492381 147.82 0.330688C148.887 0.233672 149.761 0.168994 150.504 0.168994C152.121 0.104317 153.738 0.524726 155.097 1.39787C156.196 2.10932 156.843 3.37054 156.81 4.66408C156.907 6.11933 156.034 7.44521 154.676 7.96263C154.353 8.09198 154.191 8.22134 154.159 8.31835C154.159 8.48005 154.32 8.57706 154.676 8.64174C155.711 8.80344 156.649 9.32086 157.328 10.097C157.975 10.9055 158.33 11.9403 158.298 13.0075C158.363 14.5921 157.716 16.1443 156.519 17.2115C155.161 18.311 153.447 18.8608 151.701 18.7638L148.985 18.6991L146.882 18.6667C145.718 18.6667 144.554 18.6991 143.39 18.8284C143.099 18.8608 142.808 18.8931 142.549 18.8931C142.29 18.8931 142.129 18.7638 142.129 18.5374C142.129 18.3434 142.258 18.214 142.484 18.1493C143.552 17.9553 144.101 17.0498 144.101 15.3682V4.24367ZM147.174 3.07948V6.92779C147.141 7.3482 147.271 7.73626 147.562 8.02731C147.95 8.28602 148.402 8.38303 148.887 8.3507L150.731 8.38304L151.572 8.3507C153.092 8.15666 153.868 7.25118 153.868 5.6019C153.932 4.40537 153.447 3.20884 152.606 2.36803C151.701 1.52723 150.472 1.07448 149.243 1.13916C148.661 1.07448 148.079 1.20384 147.626 1.52722C147.271 1.97997 147.109 2.52972 147.174 3.07948ZM147.174 12.005V14.2363L147.206 14.7538L147.303 15.8856C147.4 17.1792 148.435 17.8259 150.375 17.8259C152.283 17.8259 153.577 17.3732 154.288 16.4354C154.87 15.6269 155.161 14.6567 155.161 13.6866C155.161 11.5846 154.223 10.291 152.348 9.80594C151.151 9.51489 149.89 9.38553 148.661 9.38553C148.014 9.38553 147.594 9.54723 147.432 9.83828C147.206 10.5497 147.141 11.2935 147.174 12.005ZM169.617 1.88295L175.729 15.918C175.955 16.5324 176.343 17.0498 176.796 17.5025C177.249 17.8583 177.798 18.117 178.38 18.214C178.542 18.2463 178.607 18.3757 178.607 18.6021C178.607 18.8608 178.51 18.9578 178.283 18.9578C178.122 18.9578 177.928 18.9255 177.766 18.8931C176.666 18.6991 175.535 18.6344 174.435 18.6667C173.368 18.6344 172.333 18.6991 171.298 18.8931C171.201 18.9255 171.072 18.9578 170.942 18.9578C170.748 18.9901 170.587 18.8608 170.554 18.6667C170.554 18.6344 170.554 18.6021 170.554 18.5697C170.554 18.4404 170.651 18.3434 170.845 18.2787C171.266 18.1493 171.622 17.923 171.913 17.5996C172.171 17.3085 172.333 16.9528 172.333 16.5647C172.107 15.4005 171.719 14.301 171.169 13.2662C170.91 12.7488 170.651 12.4577 170.36 12.3607C169.326 12.2313 168.291 12.199 167.288 12.2313H165.542L164.345 12.4577C164.022 12.6194 163.634 13.2015 163.214 14.2363L162.793 15.2712C162.664 15.5622 162.599 15.8533 162.599 16.1767C162.599 17.3085 163.375 17.9553 164.96 18.1493C165.283 18.1817 165.477 18.311 165.445 18.5374C165.413 18.7638 165.251 18.8931 164.96 18.8931C164.733 18.8931 164.507 18.8608 164.281 18.8284C163.763 18.7314 163.214 18.6667 162.696 18.6344C162.276 18.6344 161.597 18.6667 160.659 18.7638C159.947 18.8284 159.527 18.8608 159.365 18.8608C159.107 18.8608 158.977 18.7638 158.977 18.5374C158.977 18.3434 159.107 18.214 159.365 18.117C159.818 17.9876 160.238 17.6642 160.529 17.2762C161.047 16.4677 161.467 15.5946 161.823 14.7214L165.477 6.28102C165.768 5.60191 165.962 5.14916 166.092 4.89045L167.353 2.33569L168 1.07448V1.10682C168.291 0.427712 168.485 0.071982 168.582 0.071982C168.711 0.071982 168.97 0.460047 169.326 1.20384L169.617 1.88295ZM170.134 10.2587L168.388 6.15166C167.967 5.1815 167.676 4.69641 167.482 4.69641C167.385 4.69641 167.191 5.01981 166.9 5.63425L166.641 6.184L165.089 9.7736L164.927 10.097C164.863 10.194 164.83 10.3234 164.83 10.4527C164.83 10.7438 165.154 10.9055 165.801 10.9055H169.746C170.069 10.9055 170.263 10.8084 170.263 10.6144C170.263 10.5497 170.231 10.4527 170.199 10.388L170.134 10.2587ZM184.654 14.5274C184.654 16.209 184.848 17.1468 185.269 17.3409C185.689 17.5025 186.142 17.5349 186.562 17.5025C189.602 17.5025 191.736 16.5971 192.998 14.8184C193.386 14.2687 193.644 14.01 193.741 14.01C193.903 14.01 194 14.204 194 14.5597C194 15.6916 193.612 16.7588 192.9 17.5996C192.254 18.3757 191.251 18.8284 190.216 18.7961C189.99 18.7961 189.57 18.7638 188.923 18.7314L187.306 18.6344L185.851 18.5697C185.366 18.5374 184.783 18.5374 184.169 18.5374C183.037 18.5374 181.938 18.6021 180.806 18.7314C180.45 18.7638 180.191 18.7961 180.062 18.7961C179.803 18.7961 179.674 18.6667 179.674 18.4404C179.674 18.2787 179.803 18.1493 180.03 18.0847C180.547 17.9553 180.967 17.6319 181.226 17.1468C181.485 16.4354 181.582 15.6592 181.55 14.8831V3.69392C181.55 2.27102 180.967 1.46255 179.771 1.26852L178.963 1.13916C178.607 1.07448 178.445 0.945127 178.445 0.718756C178.413 0.524724 178.542 0.330696 178.736 0.298357C178.768 0.298357 178.801 0.298357 178.833 0.298357C178.962 0.298357 179.092 0.330688 179.221 0.330688C179.351 0.330688 179.512 0.36303 179.739 0.395369L180.321 0.42771C180.87 0.492387 181.291 0.524722 181.55 0.524722C181.97 0.524722 182.681 0.460045 183.619 0.363029C184.331 0.298351 185.042 0.266016 185.754 0.266016C186.303 0.266016 186.562 0.395365 186.562 0.654075C186.562 0.880446 186.368 1.0098 185.98 1.0098C185.075 1.07448 184.622 1.68892 184.622 2.88545L184.654 14.5274Z" fill="#545456"/>
<path d="M10.4454 3.59731V13.7193C10.3484 14.8189 10.5748 15.9507 11.0922 16.9532C11.6743 17.6323 12.5151 18.0527 13.4206 18.0204C13.744 18.0527 13.9056 18.2144 13.9056 18.5055C13.9056 18.6995 13.7763 18.8289 13.4852 18.8289C13.4206 18.8289 13.3236 18.8289 13.1619 18.8289L12.1594 18.7965L10.4777 18.6995C10.3484 18.6995 10.1544 18.6995 9.92799 18.6995C9.41057 18.6995 8.92548 18.6995 8.53742 18.7318L5.56226 18.8935C5.23887 18.9259 5.04484 18.9582 4.91548 18.9582C4.62444 18.9582 4.49508 18.8288 4.49508 18.6025C4.49508 18.4731 4.52742 18.3114 4.62444 18.2144C4.78613 18.1497 4.98016 18.0851 5.14186 18.0851C5.75629 18.0851 6.33839 17.794 6.75879 17.3413C7.17919 16.7915 7.37323 16.1447 7.34089 15.4656V14.8189V2.82119C7.34089 2.10973 6.95282 1.75401 6.20903 1.75401C4.98016 1.68933 3.71895 1.81868 2.55476 2.14207C2.16669 2.27143 1.84331 2.4978 1.61694 2.82119C1.32589 3.40328 1.13186 4.01772 0.970161 4.6645L0.873145 5.05256C0.776129 5.40828 0.614435 5.60232 0.420403 5.60232C0.129355 5.60232 0 5.47296 0 5.18191C0.0323387 4.82618 0.0646773 4.47046 0.129355 4.14708L0.258709 2.98288L0.420403 1.78634L0.51742 0.977875C0.51742 0.686826 0.743791 0.460463 1.0025 0.460463C1.03484 0.460463 1.03484 0.460463 1.06718 0.460463C1.16419 0.460463 1.32589 0.460455 1.51992 0.492794C1.87565 0.525133 2.36073 0.525135 3.0075 0.525135L5.75629 0.557475L9.0225 0.589816C11.1245 0.589816 13.3559 0.525139 15.7166 0.428123C16.1694 0.395784 16.4927 0.395782 16.6221 0.395782C17.1072 0.395782 17.3659 0.589812 17.3982 1.01022L17.4629 1.98038C17.4629 2.14207 17.5276 2.49779 17.5923 3.07989C17.6569 3.46796 17.6893 3.85602 17.6893 4.21175C17.6893 4.50279 17.5599 4.6645 17.3336 4.6645C17.1395 4.6645 16.9778 4.5028 16.9131 4.14708C16.7838 3.43562 16.4281 2.78885 15.846 2.3361C15.1345 1.9157 14.3261 1.72167 13.5176 1.78634C12.6444 1.72167 11.8036 1.81868 10.9628 2.10973C10.6071 2.23908 10.4454 2.75651 10.4454 3.59731ZM24.0277 14.5601L24.1247 15.9184C24.1894 16.5328 24.4804 17.0826 24.9008 17.503C25.3536 17.891 25.9356 18.0851 26.5177 18.0527C26.9705 18.0527 27.1645 18.1821 27.1645 18.4731C27.1645 18.7318 26.8735 18.8612 26.2914 18.8612C26.0327 18.8612 25.6769 18.8288 25.2242 18.7965C24.2864 18.6672 23.3486 18.6025 22.3784 18.6025C21.6669 18.6025 20.9555 18.6348 20.244 18.7318C19.9206 18.7965 19.5973 18.8289 19.2739 18.8612C19.0798 18.8612 18.9181 18.7642 18.8858 18.5701L18.8535 18.4731L19.2415 18.1497C19.759 18.0204 20.2117 17.7293 20.5351 17.3089C20.7938 16.7915 20.8908 16.2094 20.8585 15.6273V14.4308V3.75901C20.9231 3.14457 20.7615 2.53014 20.4381 2.01272C20.0177 1.59231 19.4679 1.3336 18.8535 1.30126C18.5624 1.26892 18.2714 1.20425 17.9803 1.10724C17.851 1.04256 17.7863 0.913203 17.7863 0.75151C17.7863 0.4928 17.8833 0.363443 18.1097 0.395782C18.3684 0.428121 18.5948 0.460455 18.8211 0.492794C19.3709 0.58981 19.8883 0.622155 20.4381 0.589816C20.9231 0.589816 21.5699 0.557472 22.3137 0.492794L23.2839 0.428123C24.1894 0.363445 24.9008 0.3311 25.4182 0.3311C25.7093 0.3311 25.871 0.428117 25.871 0.654488C25.871 0.783843 25.871 0.880859 25.8063 0.977875C25.7093 1.04255 25.5799 1.10724 25.4829 1.10724C25.0302 1.13958 24.5774 1.3336 24.254 1.65699C24.0277 2.14207 23.9307 2.65949 23.9953 3.17691L24.0277 14.5601ZM37.5452 0.040054C39.3562 0.104731 41.1348 0.557473 42.7841 1.3336C43.1075 1.4953 43.4309 1.59231 43.7543 1.65699C43.8836 1.65699 44.013 1.62465 44.0777 1.52764L44.2394 1.39828C44.3364 1.30127 44.4334 1.26893 44.5627 1.26893C44.8215 1.26893 44.9508 1.43062 44.9508 1.75401V2.69183L44.8861 4.53513L44.9185 5.5053C44.9508 5.73167 44.9508 5.99038 45.0155 6.28143C45.0155 6.37845 45.0155 6.47546 45.0155 6.5078C45.0155 6.79885 44.8861 6.92821 44.5951 6.92821C44.4011 6.92821 44.2717 6.73417 44.207 6.37844C43.9483 5.18191 43.3662 4.08239 42.4931 3.24159C41.2642 1.85102 39.4532 1.04256 37.6099 1.0749C35.896 1.01022 34.2467 1.81868 33.2442 3.24159C32.08 4.9232 31.4979 6.9282 31.5949 8.96554C31.5302 11.2293 32.1123 13.493 33.2765 15.4333C34.4084 17.1796 35.799 18.0527 37.4482 18.0527C38.095 18.0204 38.7094 17.9234 39.3239 17.7293C39.9383 17.5676 40.5204 17.3413 41.0378 17.0179C41.3936 16.7915 41.6523 16.4034 41.7816 16.0154C41.9433 15.3363 42.008 14.6248 41.9756 13.9457C42.0727 13.1696 41.8463 12.3611 41.3936 11.7143C40.7791 11.2293 40.003 10.9705 39.2269 11.0029C38.9358 10.9705 38.8065 10.8412 38.8065 10.6148C38.8065 10.3561 38.9682 10.2268 39.2915 10.2268C39.3886 10.2268 39.5503 10.2268 39.7766 10.2591C40.6498 10.3238 41.6523 10.3884 42.7518 10.3884C43.5926 10.3884 44.4334 10.3561 45.2742 10.2914C45.5976 10.2268 45.9533 10.2267 46.2767 10.1944C46.6001 10.1944 46.7618 10.3238 46.7618 10.5501C46.7618 10.7765 46.6001 10.9059 46.2767 10.9705C45.7916 11.0352 45.4036 11.3586 45.2095 11.8113C44.9831 12.5551 44.8861 13.2989 44.9185 14.0751C44.9185 14.3661 44.9185 14.6572 44.9508 14.9482C44.9832 15.4009 45.0155 15.692 45.0155 15.886C45.0478 16.1124 44.9832 16.3064 44.8538 16.5005C44.6598 16.6945 44.4334 16.8239 44.1747 16.8885C43.9806 16.9532 43.2692 17.2766 42.0403 17.794C40.294 18.6348 38.3861 19.0876 36.4457 19.1846C34.2144 19.2493 32.0477 18.3761 30.5277 16.7268C28.9431 14.9805 28.1347 12.7168 28.2317 10.3884C28.167 7.70433 29.1048 5.08489 30.8835 3.07989C32.5974 1.07489 35.0228 -0.0246235 37.5452 0.040054ZM53.9086 3.46796V6.37844C53.8763 6.9282 53.941 7.44562 54.1027 7.96304C54.232 8.18941 54.5231 8.28643 54.9758 8.28643H55.3962H55.9783H57.1102C58.0157 8.25409 58.8565 7.67199 59.1798 6.83118L59.5032 6.18441C59.5679 6.02272 59.7296 5.9257 59.8913 5.9257C60.0853 5.9257 60.1823 6.05506 60.1823 6.28143C60.1823 6.34611 60.1823 6.54014 60.15 6.86353C60.1177 7.0899 60.1177 7.28392 60.1177 7.44562C60.1177 7.73667 60.15 8.41578 60.247 9.45062C60.3117 10.1297 60.3117 10.7442 60.3117 11.2616L60.344 11.9407C60.344 12.0377 60.344 12.1024 60.3117 12.1994C60.247 12.2641 60.1823 12.2964 60.0853 12.2964C59.859 12.3288 59.7296 12.1347 59.6649 11.779C59.6003 11.1322 59.3092 10.5178 58.8565 10.0327C58.6301 9.80634 58.3067 9.67699 58.0157 9.61232C57.4012 9.54764 56.7544 9.5153 56.14 9.5153H55.2345C54.9435 9.48297 54.6201 9.54764 54.3614 9.70933C54.1673 9.9357 54.0703 10.1944 54.038 10.4855C53.9733 11.1969 53.941 11.9084 53.941 12.6198V13.8163C53.9086 14.7218 54.0057 15.6597 54.232 16.5328C54.3614 17.2119 55.0405 17.6647 55.7196 17.5676C59.3415 17.5676 61.7346 16.4681 62.8341 14.2367C62.8988 14.1397 62.9635 14.0751 62.9958 14.0751C63.0928 14.0427 63.1898 14.1074 63.2545 14.1721C63.3192 14.2368 63.3839 14.3661 63.3839 14.4631C63.3839 15.3686 63.1252 16.2418 62.6724 17.0179C62.349 17.6647 61.8316 18.1821 61.1848 18.5055C60.4411 18.8289 59.6326 18.9905 58.8241 18.9582C58.1773 18.9582 57.5629 18.9259 56.9161 18.8612L55.3639 18.7318C54.7818 18.6672 54.0057 18.6348 53.0355 18.6348C52.3887 18.6348 51.3862 18.6672 50.0603 18.7642C49.7046 18.7965 49.4459 18.7965 49.2842 18.7965C49.1225 18.8288 48.9608 18.6995 48.9285 18.5378V18.5055C48.9285 18.3438 49.0255 18.2144 49.2195 18.1174C49.6076 17.988 49.9633 17.794 50.2544 17.503C50.4807 17.1472 50.6424 16.7592 50.6748 16.3388C50.8041 15.692 50.8365 15.0452 50.8365 14.3984V3.79135C50.9011 3.0799 50.7394 2.36845 50.3514 1.75401C49.7693 1.30127 49.0578 1.04255 48.314 1.01022C48.12 1.01022 47.9583 0.848528 47.9583 0.622157C47.9583 0.428125 48.12 0.29877 48.4111 0.29877C48.4757 0.29877 48.6051 0.298762 48.8315 0.3311C48.9932 0.3311 49.2195 0.3311 49.4782 0.3311L50.8365 0.395782L55.9136 0.460463C58.8565 0.460463 60.6351 0.428117 61.3142 0.3311C61.3789 0.3311 61.4436 0.3311 61.5082 0.3311C61.7669 0.3311 61.8963 0.492802 61.8963 0.78385C61.8963 0.977883 61.9286 1.36595 61.9933 1.88336C62.058 2.65949 62.0903 3.24159 62.0903 3.56497C62.0903 4.24409 61.9286 4.59981 61.5729 4.59981C61.4112 4.59981 61.3142 4.40579 61.3142 4.01772C61.3789 3.24159 60.9908 2.4978 60.344 2.0774C59.3739 1.62466 58.2744 1.39828 57.2072 1.4953H55.5579L54.6524 1.59232C54.1997 1.72167 53.9733 2.17441 53.9733 2.95054L53.9086 3.46796ZM70.1103 13.493C70.0133 14.6572 70.175 15.8537 70.5954 16.9532C70.9835 17.6 71.6949 17.988 72.4387 17.988C72.8268 18.0204 72.9885 18.1821 72.9885 18.4408C72.9885 18.6995 72.8268 18.8289 72.5357 18.8289C72.4387 18.8289 72.2447 18.8288 71.986 18.7965C71.2098 18.7318 70.4661 18.6995 69.7546 18.6995C69.1725 18.6995 68.6227 18.7318 68.17 18.7642L67.0382 18.8612L66.1327 18.9259C65.874 18.9582 65.7123 18.9582 65.6152 18.9582C65.2919 18.9582 65.1302 18.8288 65.1302 18.6025C65.0978 18.4408 65.2272 18.2791 65.3889 18.2144C65.874 18.1174 66.3267 17.8263 66.6501 17.4706C66.9088 17.0502 67.0382 16.5328 67.0058 16.0154V14.7542L67.0382 14.2367V4.53513C67.1028 3.79134 66.9735 3.04756 66.6178 2.36845C66.1003 1.72167 65.2919 1.3336 64.4834 1.30126C64.1277 1.23658 63.9336 1.07489 63.9336 0.848522C63.9013 0.65449 64.0307 0.492802 64.2247 0.460463C64.257 0.460463 64.2894 0.460463 64.3217 0.460463C64.4834 0.460463 64.6451 0.460455 64.8068 0.492794C65.5506 0.557472 66.3267 0.622155 67.0705 0.589816C67.976 0.589816 69.0755 0.525139 70.369 0.428123C71.889 0.298768 72.9238 0.266429 73.5059 0.266429C75.0258 0.201752 76.5457 0.719167 77.7423 1.65699C78.8094 2.4978 79.4562 3.79135 79.4239 5.14958C79.4239 6.02272 79.1652 6.86353 78.6801 7.57498C78.1627 8.31877 77.4512 8.90086 76.6428 9.22425C76.4811 9.28893 76.384 9.38595 76.384 9.48296C76.4164 9.61232 76.4487 9.70933 76.5134 9.80635C76.5781 9.93571 76.7074 10.1297 76.8691 10.4208L78.0657 12.5551L79.4562 15.0129C79.7796 15.6597 80.2 16.2418 80.7174 16.7268C81.0732 17.0502 81.5582 17.2119 82.0433 17.2119C82.2373 17.2119 82.4314 17.2119 82.6254 17.1472C82.7224 17.1149 82.8194 17.1149 82.9165 17.1149C83.0782 17.1149 83.1752 17.2119 83.1752 17.4383C83.1752 17.697 82.8194 17.988 82.0757 18.3114C81.4612 18.6025 80.8144 18.7965 80.1353 18.7965C79.1328 18.7642 78.195 18.2468 77.5806 17.4383C76.384 15.8537 75.3815 14.1397 74.5407 12.2964C74.2497 11.6173 73.8616 10.9705 73.3442 10.4208C72.8915 10.1297 72.3417 9.96804 71.8243 10.0327H70.9835L70.369 10.1297C70.2397 10.1944 70.175 10.4208 70.175 10.7765L70.1103 13.493ZM70.1103 3.01522V7.67199C70.078 8.06006 70.1427 8.41578 70.3367 8.77151C70.6601 8.96554 71.0158 9.06256 71.4039 8.99788C72.4064 9.03022 73.3765 8.99788 74.379 8.90086C74.7671 8.83618 75.1552 8.64216 75.4462 8.35111C76.1253 7.73667 76.4811 6.83119 76.4164 5.89336C76.4811 3.40328 74.5407 1.30127 72.0183 1.23659C71.9213 1.23659 71.8243 1.23659 71.6949 1.23659C71.2422 1.17191 70.7894 1.3336 70.4337 1.62465C70.175 2.01271 70.0457 2.53014 70.1103 3.01522Z" fill="#E67B26"/>
</svg>
