<?xml version="1.0" encoding="utf-8"?>
<!-- Generator: Adobe Illustrator 26.0.1, SVG Export Plug-In . SVG Version: 6.00 Build 0)  -->
<svg version="1.1" id="Indian_Flag" xmlns="http://www.w3.org/2000/svg" xmlns:xlink="http://www.w3.org/1999/xlink" x="0px"
	 y="0px" viewBox="0 0 600 600" style="enable-background:new 0 0 600 600;" xml:space="preserve">
<style type="text/css">
	.st0{fill:#FF9933;}
	.st1{fill:#FFFFFF;}
	.st2{fill:#138808;}
	.st3{fill:none;stroke:#000080;stroke-width:2;}
</style>
<g>
	<g id="bands">
		<rect class="st0" width="600" height="200"/>
		<rect y="200" class="st1" width="600" height="200"/>
		<rect y="400" class="st2" width="600" height="200"/>
	</g>
	<g id="chakra">
		<circle class="st3" cx="300" cy="300" r="75"/>
		<g>
			<line class="st3" x1="300" y1="300" x2="300" y2="225"/>
			<line class="st3" x1="300" y1="300" x2="319.4" y2="227.6"/>
			<line class="st3" x1="300" y1="300" x2="337.5" y2="235"/>
			<line class="st3" x1="300" y1="300" x2="353" y2="247"/>
			<line class="st3" x1="300" y1="300" x2="365" y2="262.5"/>
			<line class="st3" x1="300" y1="300" x2="372.4" y2="280.6"/>
			<line class="st3" x1="300" y1="300" x2="375" y2="300"/>
			<line class="st3" x1="300" y1="300" x2="372.4" y2="319.4"/>
			<line class="st3" x1="300" y1="300" x2="365" y2="337.5"/>
			<line class="st3" x1="300" y1="300" x2="353" y2="353"/>
			<line class="st3" x1="300" y1="300" x2="337.5" y2="365"/>
			<line class="st3" x1="300" y1="300" x2="319.4" y2="372.4"/>
			<line class="st3" x1="300" y1="300" x2="300" y2="375"/>
			<line class="st3" x1="300" y1="300" x2="280.6" y2="372.4"/>
			<line class="st3" x1="300" y1="300" x2="262.5" y2="365"/>
			<line class="st3" x1="300" y1="300" x2="247" y2="353"/>
			<line class="st3" x1="300" y1="300" x2="235" y2="337.5"/>
			<line class="st3" x1="300" y1="300" x2="227.6" y2="319.4"/>
			<line class="st3" x1="300" y1="300" x2="225" y2="300"/>
			<line class="st3" x1="300" y1="300" x2="227.6" y2="280.6"/>
			<line class="st3" x1="300" y1="300" x2="235" y2="262.5"/>
			<line class="st3" x1="300" y1="300" x2="247" y2="247"/>
			<line class="st3" x1="300" y1="300" x2="262.5" y2="235"/>
			<line class="st3" x1="300" y1="300" x2="280.6" y2="227.6"/>
			<line class="st3" x1="300" y1="300" x2="300" y2="225"/>
		</g>
	</g>
</g>
</svg>
