<svg xmlns="http://www.w3.org/2000/svg" width="19" height="19" viewBox="0 0 19 19" fill="none">
  <path d="M13.0431 7.37297C13.107 7.43682 13.1577 7.51264 13.1923 7.5961C13.2269 7.67956 13.2447 7.76903 13.2447 7.85938C13.2447 7.94972 13.2269 8.03919 13.1923 8.12265C13.1577 8.20611 13.107 8.28193 13.0431 8.34578L8.23055 13.1583C8.1667 13.2222 8.09088 13.2729 8.00742 13.3075C7.92395 13.3421 7.83449 13.3599 7.74414 13.3599C7.6538 13.3599 7.56433 13.3421 7.48087 13.3075C7.39741 13.2729 7.32159 13.2222 7.25774 13.1583L5.19524 11.0958C5.06624 10.9668 4.99376 10.7918 4.99376 10.6094C4.99376 10.4269 5.06624 10.252 5.19524 10.123C5.32424 9.99397 5.49921 9.92149 5.68164 9.92149C5.86408 9.92149 6.03905 9.99397 6.16805 10.123L7.74414 11.6999L12.0702 7.37297C12.1341 7.30905 12.2099 7.25834 12.2934 7.22374C12.3768 7.18914 12.4663 7.17133 12.5566 7.17133C12.647 7.17133 12.7365 7.18914 12.8199 7.22374C12.9034 7.25834 12.9792 7.30905 13.0431 7.37297ZM18.0566 9.92188C18.0566 11.6895 17.5325 13.4175 16.5504 14.8873C15.5683 16.357 14.1725 17.5026 12.5394 18.179C10.9063 18.8555 9.10923 19.0325 7.37552 18.6876C5.64182 18.3428 4.04931 17.4916 2.79938 16.2416C1.54945 14.9917 0.698232 13.3992 0.353376 11.6655C0.00852078 9.93179 0.185513 8.13476 0.861971 6.50164C1.53843 4.86853 2.68397 3.47268 4.15374 2.49062C5.6235 1.50855 7.35147 0.984375 9.11914 0.984375C11.4887 0.986877 13.7606 1.92931 15.4361 3.60487C17.1117 5.28044 18.0541 7.55227 18.0566 9.92188ZM16.6816 9.92188C16.6816 8.42615 16.2381 6.96402 15.4071 5.72038C14.5762 4.47673 13.3951 3.50742 12.0132 2.93504C10.6313 2.36265 9.11075 2.21289 7.64377 2.50469C6.17679 2.79649 4.82928 3.51675 3.77165 4.57438C2.71402 5.63201 1.99376 6.97952 1.70196 8.4465C1.41016 9.91349 1.55992 11.4341 2.13231 12.8159C2.70469 14.1978 3.674 15.3789 4.91764 16.2099C6.16129 17.0408 7.62342 17.4844 9.11914 17.4844C11.1241 17.4821 13.0464 16.6846 14.4641 15.2669C15.8819 13.8491 16.6794 11.9269 16.6816 9.92188Z" fill="#25AAF5"/>
</svg>