<svg xmlns="http://www.w3.org/2000/svg" width="19" height="19" viewBox="0 0 19 19" fill="none">
  <path d="M13.3263 7.37297C13.3902 7.43682 13.4409 7.51264 13.4755 7.5961C13.5101 7.67956 13.5279 7.76903 13.5279 7.85938C13.5279 7.94972 13.5101 8.03919 13.4755 8.12265C13.4409 8.20611 13.3902 8.28193 13.3263 8.34578L8.51375 13.1583C8.4499 13.2222 8.37408 13.2729 8.29062 13.3075C8.20716 13.3421 8.1177 13.3599 8.02735 13.3599C7.937 13.3599 7.84754 13.3421 7.76408 13.3075C7.68061 13.2729 7.60479 13.2222 7.54094 13.1583L5.47844 11.0958C5.34944 10.9668 5.27697 10.7918 5.27697 10.6094C5.27697 10.4269 5.34944 10.252 5.47844 10.123C5.60744 9.99397 5.78241 9.92149 5.96485 9.92149C6.14729 9.92149 6.32225 9.99397 6.45125 10.123L8.02735 11.6999L12.3534 7.37297C12.4173 7.30905 12.4931 7.25834 12.5766 7.22374C12.66 7.18914 12.7495 7.17133 12.8398 7.17133C12.9302 7.17133 13.0197 7.18914 13.1031 7.22374C13.1866 7.25834 13.2624 7.30905 13.3263 7.37297ZM18.3398 9.92188C18.3398 11.6895 17.8157 13.4175 16.8336 14.8873C15.8515 16.357 14.4557 17.5026 12.8226 18.179C11.1895 18.8555 9.39243 19.0325 7.65873 18.6876C5.92502 18.3428 4.33251 17.4916 3.08258 16.2416C1.83265 14.9917 0.981435 13.3992 0.636579 11.6655C0.291724 9.93179 0.468716 8.13476 1.14517 6.50164C1.82163 4.86853 2.96717 3.47268 4.43694 2.49062C5.9067 1.50855 7.63468 0.984375 9.40235 0.984375C11.772 0.986877 14.0438 1.92931 15.7194 3.60487C17.3949 5.28044 18.3373 7.55227 18.3398 9.92188ZM16.9648 9.92188C16.9648 8.42615 16.5213 6.96402 15.6903 5.72038C14.8594 4.47673 13.6783 3.50742 12.2964 2.93504C10.9145 2.36265 9.39396 2.21289 7.92698 2.50469C6.46 2.79649 5.11249 3.51675 4.05485 4.57438C2.99722 5.63201 2.27696 6.97952 1.98516 8.4465C1.69336 9.91349 1.84312 11.4341 2.41551 12.8159C2.9879 14.1978 3.9572 15.3789 5.20085 16.2099C6.44449 17.0408 7.90663 17.4844 9.40235 17.4844C11.4073 17.4821 13.3296 16.6846 14.7473 15.2669C16.1651 13.8491 16.9626 11.9269 16.9648 9.92188Z" fill="#3C63C6"/>
</svg>