<svg width="32" height="33" viewBox="0 0 32 33" fill="none" xmlns="http://www.w3.org/2000/svg">
<path d="M6.80762 7.30754C4.98953 9.12562 3.75141 11.442 3.2498 13.9638C2.74819 16.4855 3.00563 19.0994 3.98957 21.4748C4.97351 23.8503 6.63975 25.8806 8.77759 27.309C10.9154 28.7375 13.4288 29.4999 16 29.4999C18.5712 29.4999 21.0846 28.7375 23.2224 27.309C25.3603 25.8806 27.0265 23.8503 28.0104 21.4748C28.9944 19.0994 29.2518 16.4855 28.7502 13.9638C28.2486 11.442 27.0105 9.12562 25.1924 7.30754C22.7526 4.87293 19.4467 3.50562 16 3.50562C12.5533 3.50562 9.24737 4.87293 6.80762 7.30754ZM23.7782 24.2781C22.2398 25.8165 20.2798 26.8641 18.146 27.2886C16.0122 27.713 13.8005 27.4952 11.7905 26.6626C9.7805 25.83 8.06254 24.4201 6.85384 22.6112C5.64514 20.8023 5.00001 18.6755 5.00001 16.4999C5.00001 14.3243 5.64514 12.1976 6.85384 10.3887C8.06254 8.57972 9.7805 7.16982 11.7905 6.33725C13.8005 5.50469 16.0122 5.28685 18.146 5.71129C20.2798 6.13573 22.2398 7.18338 23.7782 8.72176C25.838 10.7863 26.9948 13.5836 26.9948 16.4999C26.9948 19.4163 25.838 22.2136 23.7782 24.2781ZM15.2929 11.5502L11.0503 15.7928C10.8627 15.9804 10.7574 16.2347 10.7574 16.4999C10.7574 16.7651 10.8627 17.0195 11.0503 17.207L15.2929 21.4497C15.4804 21.6372 15.7348 21.7426 16 21.7426C16.2652 21.7426 16.5196 21.6372 16.7071 21.4497L20.9498 17.207C21.1373 17.0195 21.2426 16.7651 21.2426 16.4999C21.2426 16.2347 21.1373 15.9804 20.9498 15.7928L16.7071 11.5502C16.5196 11.3626 16.2652 11.2573 16 11.2573C15.7348 11.2573 15.4804 11.3626 15.2929 11.5502ZM18.8284 16.4999L16 19.3284L13.1716 16.4999L16 13.6715L18.8284 16.4999Z" fill="#787E99"/>
</svg>
