<svg width="49" height="50" viewBox="0 0 49 50" fill="none" xmlns="http://www.w3.org/2000/svg">
<g clip-path="url(#clip0_0_3)">
<path d="M24.9694 49.5311C26.3556 49.5304 27.7117 49.1413 28.8729 48.4112C30.034 47.6811 30.9501 46.6413 31.5098 45.4185C31.5745 45.2828 31.6024 45.1335 31.5909 44.9846C31.5794 44.8357 31.5289 44.692 31.4442 44.5671C31.3594 44.4421 31.2431 44.34 31.1062 44.2702C30.9693 44.2004 30.8162 44.1653 30.6614 44.1681H19.2774C19.1228 44.1657 18.97 44.2011 18.8334 44.271C18.6968 44.3409 18.5809 44.4431 18.4963 44.568C18.4118 44.6929 18.3615 44.8364 18.3501 44.9852C18.3388 45.1339 18.3667 45.283 18.4313 45.4185C18.9908 46.641 19.9066 47.6805 21.0673 48.4106C22.228 49.1407 23.5836 49.53 24.9694 49.5311Z" fill="url(#paint0_linear_0_3)"/>
<path d="M42.4421 37.5289C41.553 37.5289 40.7002 37.1883 40.0715 36.582C39.4428 35.9758 39.0896 35.1535 39.0896 34.2961V22.5513C39.0889 19.5227 38.0414 16.5807 36.1127 14.1905C34.1839 11.8002 31.4839 10.0981 28.4396 9.35321C28.328 8.52984 27.9089 7.77396 27.2608 7.2271C26.6128 6.68024 25.7802 6.37991 24.9191 6.38234C24.058 6.38477 23.2273 6.6898 22.5826 7.24032C21.9379 7.79083 21.5234 8.54907 21.4167 9.37306C18.7016 10.0574 16.2594 11.5056 14.401 13.5333C12.5426 15.5609 11.3523 18.0761 10.9817 20.7584C10.9817 20.84 10.9588 20.9194 10.9497 21.001C10.9405 21.0826 10.9245 21.2215 10.9154 21.3318C10.9062 21.4421 10.8971 21.5523 10.8879 21.6604C10.8788 21.7684 10.8765 21.8434 10.8719 21.936C10.8719 22.1235 10.8582 22.3087 10.8559 22.4983V34.2939C10.856 35.1471 10.5062 35.9657 9.8829 36.5713C9.25961 37.1769 8.41333 37.5203 7.52854 37.5267C7.32072 37.5244 7.11446 37.5615 6.92153 37.6361C6.72861 37.7106 6.5528 37.8211 6.40415 37.9611C6.25549 38.1012 6.13691 38.2681 6.05517 38.4524C5.97343 38.6367 5.93012 38.8346 5.92773 39.035V39.0483C5.92773 39.4518 6.09398 39.8388 6.3899 40.1242C6.68582 40.4095 7.08718 40.5699 7.50567 40.5699H42.4421C42.8499 40.5549 43.2359 40.3881 43.5189 40.1046C43.8019 39.8211 43.96 39.4429 43.96 39.0494C43.96 38.6559 43.8019 38.2776 43.5189 37.9941C43.2359 37.7106 42.8499 37.5439 42.4421 37.5289Z" fill="url(#paint1_linear_0_3)"/>
<path d="M35.0837 7.04516C37.0128 7.45792 38.7572 8.44778 40.0681 9.87344C41.3791 11.2991 42.1894 13.0877 42.3834 14.9838C42.3926 15.0861 42.4227 15.1857 42.4721 15.2766C42.5214 15.3676 42.589 15.4483 42.6709 15.5139C42.7527 15.5795 42.8473 15.6289 42.9491 15.659C43.0509 15.6891 43.1579 15.6995 43.2639 15.6895C43.4775 15.6698 43.6746 15.57 43.8127 15.4116C43.8807 15.3328 43.9319 15.2417 43.9633 15.1437C43.9947 15.0457 44.0057 14.9426 43.9957 14.8405C43.7841 12.6064 42.8384 10.4957 41.2963 8.81597C39.7542 7.13619 37.6963 5.97501 35.4222 5.50153C35.3665 5.49033 35.3098 5.48443 35.253 5.48389C35.0533 5.48434 34.8609 5.55591 34.7126 5.68485C34.5644 5.81379 34.4708 5.991 34.4498 6.18245C34.4288 6.3739 34.4819 6.56607 34.5989 6.72205C34.7159 6.87803 34.8886 6.98682 35.0837 7.02752V7.04516Z" fill="url(#paint2_linear_0_3)"/>
<path d="M35.9919 2.01065C38.9944 2.65045 41.7101 4.18941 43.7506 6.40742C45.7912 8.62544 47.0521 11.4089 47.3531 14.3597C47.3626 14.4619 47.3929 14.5613 47.4423 14.6521C47.4918 14.743 47.5593 14.8235 47.6411 14.8891C47.723 14.9546 47.8174 15.004 47.9191 15.0342C48.0208 15.0645 48.1276 15.0751 48.2335 15.0654C48.4472 15.0457 48.6443 14.9459 48.7824 14.7875C48.8504 14.7086 48.9016 14.6176 48.933 14.5195C48.9644 14.4215 48.9754 14.3185 48.9653 14.2164C48.6443 10.9314 47.2469 7.83038 44.9756 5.36265C42.7043 2.89492 39.6771 1.1887 36.3327 0.491271C36.277 0.480079 36.2203 0.474173 36.1635 0.473633C35.9636 0.473542 35.7708 0.544727 35.6221 0.673492C35.4734 0.802256 35.3794 0.9795 35.3581 1.17111C35.3368 1.36271 35.3898 1.55514 35.5068 1.71135C35.6238 1.86757 35.7966 1.97653 35.9919 2.01726V2.01065Z" fill="url(#paint3_linear_0_3)"/>
<path d="M14.8511 7.04705C15.0462 7.00636 15.2189 6.89757 15.3359 6.74159C15.4529 6.58561 15.506 6.39343 15.485 6.20199C15.464 6.01054 15.3704 5.83332 15.2222 5.70438C15.0739 5.57544 14.8815 5.50387 14.6818 5.50342C14.625 5.50396 14.5683 5.50986 14.5126 5.52106C12.2423 5.99324 10.1872 7.15084 8.64546 8.82582C7.10378 10.5008 6.1558 12.606 5.93915 14.8358C5.92911 14.9379 5.94011 15.0409 5.9715 15.139C6.0029 15.237 6.05408 15.328 6.12209 15.4069C6.18965 15.4863 6.27304 15.5518 6.36731 15.5995C6.46159 15.6472 6.56484 15.6762 6.67094 15.6848C6.77692 15.6948 6.8839 15.6844 6.98569 15.6543C7.08748 15.6241 7.18206 15.5748 7.26395 15.5092C7.34584 15.4436 7.41341 15.3629 7.46275 15.2719C7.51209 15.1809 7.54221 15.0814 7.55139 14.9791C7.74681 13.0841 8.55774 11.297 9.86854 9.87268C11.1793 8.44833 12.9231 7.45944 14.8511 7.04705Z" fill="url(#paint4_linear_0_3)"/>
<path d="M13.9435 2.01189C14.1386 1.9712 14.3112 1.86241 14.4283 1.70643C14.5453 1.55044 14.5984 1.35827 14.5774 1.16682C14.5564 0.975378 14.4628 0.798165 14.3145 0.669224C14.1663 0.540283 13.9739 0.468712 13.7742 0.468262C13.7174 0.468672 13.6607 0.474579 13.605 0.4859C10.2606 1.18333 7.23341 2.88955 4.9621 5.35728C2.69078 7.82501 1.29336 10.9261 0.972351 14.211C0.962314 14.3131 0.973309 14.4162 1.00471 14.5142C1.0361 14.6122 1.08728 14.7033 1.1553 14.7821C1.22286 14.8615 1.30624 14.927 1.40051 14.9747C1.49479 15.0224 1.59804 15.0514 1.70415 15.06C1.81007 15.0697 1.91693 15.0591 2.01859 15.0289C2.12026 14.9986 2.21471 14.9493 2.29654 14.8837C2.37836 14.8181 2.44593 14.7376 2.49536 14.6467C2.5448 14.5559 2.57512 14.4565 2.58459 14.3543C2.88711 11.4051 4.14844 8.62354 6.18841 6.40692C8.22839 4.1903 10.9426 2.65205 13.9435 2.01189Z" fill="url(#paint5_linear_0_3)"/>
</g>
<defs>
<linearGradient id="paint0_linear_0_3" x1="32.6213" y1="32.5622" x2="23.7969" y2="48.1181" gradientUnits="userSpaceOnUse">
<stop stop-color="#FF94A6"/>
<stop offset="0.32" stop-color="#E03DC1"/>
<stop offset="1" stop-color="#8247E5"/>
</linearGradient>
<linearGradient id="paint1_linear_0_3" x1="38.6617" y1="15.9334" x2="13.0303" y2="46.0952" gradientUnits="userSpaceOnUse">
<stop stop-color="#FF94A6"/>
<stop offset="0.277061" stop-color="#E03DC1"/>
<stop offset="1" stop-color="#8247E5"/>
</linearGradient>
<linearGradient id="paint2_linear_0_3" x1="52.9167" y1="1.81666" x2="6.26193" y2="33.9336" gradientUnits="userSpaceOnUse">
<stop stop-color="#FF94A6"/>
<stop offset="0.32" stop-color="#E03DC1"/>
<stop offset="1" stop-color="#8247E5"/>
</linearGradient>
<linearGradient id="paint3_linear_0_3" x1="52.4688" y1="1.16827" x2="5.81391" y2="33.283" gradientUnits="userSpaceOnUse">
<stop stop-color="#FF94A6"/>
<stop offset="0.32" stop-color="#E03DC1"/>
<stop offset="1" stop-color="#8247E5"/>
</linearGradient>
<linearGradient id="paint4_linear_0_3" x1="44.0018" y1="-11.1281" x2="-2.65085" y2="20.9865" gradientUnits="userSpaceOnUse">
<stop stop-color="#FF94A6"/>
<stop offset="0.32" stop-color="#E03DC1"/>
<stop offset="1" stop-color="#8247E5"/>
</linearGradient>
<linearGradient id="paint5_linear_0_3" x1="41.658" y1="-14.5336" x2="-4.97679" y2="17.5671" gradientUnits="userSpaceOnUse">
<stop stop-color="#FF94A6"/>
<stop offset="0.32" stop-color="#E03DC1"/>
<stop offset="1" stop-color="#8247E5"/>
</linearGradient>
<clipPath id="clip0_0_3">
<rect width="49" height="50" fill="white"/>
</clipPath>
</defs>
</svg>
