<svg width="102" height="102" viewBox="0 0 102 102" fill="none" xmlns="http://www.w3.org/2000/svg" alt="Logo for Uniswap">
<title>Uniswap</title>
<rect width="102" height="102" rx="32" fill="#FFC6E1"/>
<g clip-path="url(#clip0_3300_8578)">
<path d="M43.5588 29.2043C42.6978 29.0805 42.6569 29.0392 43.0668 28.9979C43.8458 28.8741 45.6497 29.0392 46.9207 29.3281C49.8725 30.0299 52.5374 31.8462 55.3663 35.0247L56.1043 35.8916L57.1702 35.7265C61.721 34.9835 66.3948 35.5614 70.2896 37.3777C71.3556 37.873 73.0365 38.8637 73.2415 39.1114C73.3235 39.194 73.4465 39.7306 73.5285 40.2673C73.8155 42.2074 73.6925 43.6522 73.0775 44.7667C72.7495 45.3859 72.7495 45.551 72.9545 46.0877C73.1185 46.5005 73.6105 46.7894 74.0615 46.7894C75.0454 46.7894 76.0704 45.2208 76.5624 43.033L76.7674 42.1661L77.1363 42.5789C79.2273 44.9319 80.8672 48.1929 81.1132 50.5046L81.1952 51.1238L80.8262 50.5872C80.2112 49.6377 79.6372 49.0185 78.8583 48.4819C77.4643 47.5325 75.9884 47.2435 72.0936 47.0371C68.5677 46.8307 66.5588 46.5418 64.5909 45.8813C61.229 44.7667 59.5071 43.3219 55.5303 37.9969C53.7674 35.6439 52.6604 34.3643 51.5535 33.291C49.1346 30.938 46.7157 29.6997 43.5588 29.2043Z" fill="#FF007A"/>
<path d="M74.1025 34.4469C74.1845 32.8782 74.3895 31.8463 74.8405 30.8968C75.0044 30.5253 75.1684 30.1951 75.2094 30.1951C75.2504 30.1951 75.1684 30.484 75.0454 30.8143C74.7175 31.7224 74.6765 33.0021 74.8814 34.4469C75.1684 36.3045 75.2914 36.5521 77.2593 38.5748C78.1613 39.5243 79.2273 40.7214 79.6372 41.2167L80.3342 42.1249L79.6372 41.4644C78.7763 40.6388 76.8084 39.0702 76.3574 38.8638C76.0704 38.6987 76.0294 38.6987 75.8244 38.9051C75.6604 39.0702 75.6194 39.3179 75.6194 40.515C75.5784 42.3726 75.3324 43.5284 74.7175 44.7255C74.3895 45.3447 74.3485 45.2209 74.6355 44.5191C74.8405 43.9825 74.8814 43.7348 74.8814 41.9598C74.8814 38.3684 74.4715 37.5016 71.9706 36.0568C71.3556 35.6853 70.2896 35.1486 69.6747 34.8597C69.0187 34.5707 68.5267 34.323 68.5677 34.323C68.6497 34.2405 71.0686 34.9422 72.0116 35.355C73.4465 35.9329 73.6925 35.9742 73.8565 35.9329C73.9795 35.8091 74.0615 35.4789 74.1025 34.4469Z" fill="#FF007A"/>
<path d="M45.2397 40.5975C43.5178 38.2032 42.4109 34.4881 42.6569 31.7223L42.7389 30.8555L43.1488 30.938C43.8868 31.0619 45.1578 31.5572 45.7727 31.9287C47.4127 32.9195 48.1506 34.2817 48.8476 37.6666C49.0526 38.6573 49.3396 39.8132 49.4626 40.1847C49.6676 40.8039 50.4465 42.2487 51.1025 43.1568C51.5535 43.8173 51.2665 44.1475 50.2415 44.065C48.6836 43.8998 46.5927 42.4551 45.2397 40.5975Z" fill="#FF007A"/>
<path d="M72.0116 58.5541C63.8939 55.2518 61.024 52.4035 61.024 47.5737C61.024 46.872 61.065 46.2941 61.065 46.2941C61.106 46.2941 61.393 46.5417 61.762 46.8307C63.4019 48.1517 65.2469 48.7296 70.3716 49.4726C73.3645 49.9267 75.0864 50.2569 76.6444 50.7936C81.6052 52.4447 84.68 55.8297 85.418 60.4117C85.623 61.7327 85.5 64.2507 85.172 65.5717C84.885 66.6037 84.065 68.5025 83.8601 68.5438C83.8191 68.5438 83.7371 68.3374 83.7371 68.0072C83.6551 66.2734 82.7941 64.6222 81.3592 63.3426C79.6372 61.8565 77.4233 60.742 72.0116 58.5541Z" fill="#FF007A"/>
<path d="M66.2718 59.9164C66.1898 59.2972 65.9848 58.5129 65.8618 58.1827L65.6569 57.5635L66.0258 58.0176C66.5588 58.6367 66.9688 59.3798 67.3378 60.4118C67.6248 61.1961 67.6248 61.4438 67.6248 62.7234C67.6248 63.9618 67.5838 64.2508 67.3378 64.9525C66.9278 66.0671 66.4358 66.8514 65.6159 67.7183C64.1399 69.2456 62.213 70.0712 59.4661 70.4427C58.9741 70.484 57.5802 70.6079 56.3503 70.6904C53.2754 70.8555 51.2255 71.1858 49.3806 71.8462C49.1346 71.9288 48.8886 72.0114 48.8476 71.9701C48.7656 71.8875 50.0365 71.1445 51.0615 70.6491C52.4964 69.9474 53.9724 69.5759 57.2112 68.9979C58.8102 68.7503 60.4501 68.42 60.8601 68.2549C64.9189 66.9752 66.9278 63.7967 66.2718 59.9164Z" fill="#FF007A"/>
<path d="M70.0027 66.5624C68.9367 64.2094 68.6907 61.9803 69.2647 59.8751C69.3467 59.6687 69.4287 59.4623 69.5107 59.4623C69.5927 59.4623 69.8387 59.5861 70.0847 59.7512C70.5767 60.0815 71.6016 60.6594 74.2255 62.1042C77.5464 63.9205 79.4323 65.324 80.7442 66.9339C81.8922 68.3374 82.5891 69.9473 82.9171 71.9287C83.1221 73.0433 82.9991 75.7265 82.7121 76.841C81.8102 80.3498 79.7603 83.1568 76.7674 84.7667C76.3164 85.0144 75.9474 85.1795 75.9064 85.1795C75.8654 85.1795 76.0294 84.7667 76.2754 84.2714C77.2594 82.1661 77.3824 80.1434 76.6444 77.873C76.1934 76.4695 75.2505 74.777 73.3645 71.9287C71.1096 68.6264 70.5767 67.7595 70.0027 66.5624Z" fill="#FF007A"/>
<path d="M39.459 79.194C42.4929 76.6347 46.2237 74.8184 49.6676 74.2405C51.1435 73.9928 53.6034 74.0753 54.9563 74.4469C57.1292 75.0248 59.0972 76.2632 60.1221 77.7905C61.1061 79.2766 61.5571 80.5562 62.008 83.4045C62.172 84.5191 62.377 85.6749 62.418 85.9226C62.746 87.4087 63.402 88.5645 64.2219 89.1837C65.4929 90.1331 67.7068 90.1744 69.8797 89.3488C70.2487 89.225 70.5767 89.1011 70.5767 89.1424C70.6587 89.225 69.5517 89.968 68.8137 90.3395C67.7888 90.8762 66.9688 91.0413 65.8619 91.0413C63.894 91.0413 62.213 90.0093 60.8601 87.9453C60.5731 87.5325 59.9991 86.3354 59.5071 85.2208C58.0722 81.8772 57.3342 80.8865 55.6533 79.7719C54.1774 78.8225 52.2915 78.6161 50.8565 79.3179C48.9706 80.226 48.4786 82.6615 49.7906 84.1476C50.3235 84.7668 51.3075 85.2621 52.1275 85.386C53.6444 85.5924 54.9563 84.3953 54.9563 82.8679C54.9563 81.8772 54.5874 81.2993 53.6034 80.8452C52.2915 80.2673 50.8565 80.9278 50.8975 82.2074C50.8975 82.7441 51.1435 83.0743 51.6765 83.322C52.0045 83.4871 52.0045 83.4871 51.7585 83.4458C50.5695 83.1981 50.2825 81.7121 51.2255 80.7626C52.3735 79.6068 54.7923 80.1022 55.6123 81.7121C55.9403 82.3726 55.9813 83.6935 55.6943 84.5191C54.9973 86.3354 53.0294 87.2848 51.0205 86.7482C49.6676 86.3767 49.0936 86.0052 47.4537 84.3127C44.5838 81.3406 43.4768 80.7626 39.377 80.1434L38.5981 80.0196L39.459 79.194Z" fill="#FF007A"/>
<path fill-rule="evenodd" clip-rule="evenodd" d="M17.8941 12.775C27.4467 24.4572 42.165 42.6202 42.903 43.6109C43.518 44.4365 43.272 45.2208 42.247 45.7988C41.673 46.129 40.4841 46.4592 39.9101 46.4592C39.2542 46.4592 38.4752 46.129 37.9422 45.5924C37.5732 45.2208 35.9743 42.8679 32.3665 37.2126C29.6196 32.8782 27.2827 29.2869 27.2417 29.2456C27.0777 29.1631 27.0777 29.1631 32.0795 38.162C35.2363 43.8173 36.2613 45.84 36.2613 46.0877C36.2613 46.6244 36.0973 46.9133 35.4413 47.6563C34.3344 48.8947 33.8424 50.2982 33.4734 53.2291C33.0634 56.4902 31.9565 58.8019 28.7996 62.7234C26.9547 65.0351 26.6677 65.4479 26.2167 66.3973C25.6427 67.5531 25.4788 68.2136 25.3968 69.6997C25.3148 71.2683 25.4788 72.259 25.9297 73.7451C26.3397 75.066 26.7907 75.9329 27.8976 77.6254C28.8406 79.1115 29.4146 80.226 29.4146 80.6388C29.4146 80.969 29.4966 80.969 30.9725 80.6388C34.4984 79.8132 37.4092 78.4097 39.0082 76.676C39.9921 75.6027 40.2381 75.0248 40.2381 73.5387C40.2381 72.5893 40.1971 72.3829 39.9511 71.805C39.5411 70.8968 38.7622 70.1538 37.0812 68.9979C34.8673 67.4706 33.9244 66.2322 33.6784 64.581C33.4734 63.1775 33.7194 62.2281 34.9493 59.6275C36.2203 56.9443 36.5483 55.8297 36.7533 53.1053C36.8763 51.3715 37.0812 50.6698 37.5732 50.1331C38.1062 49.5552 38.5572 49.3488 39.8281 49.1837C41.919 48.8947 43.272 48.3581 44.3379 47.3261C45.2809 46.4592 45.6909 45.5924 45.7319 44.3127L45.7729 43.3633L45.2399 42.7853C43.313 40.5562 16.6231 11 16.5001 11C16.4591 11 17.1151 11.7843 17.8941 12.775ZM30.4805 71.4747C30.9315 70.6904 30.6855 69.6997 29.9476 69.2043C29.2506 68.7503 28.1846 68.9567 28.1846 69.5759C28.1846 69.741 28.2666 69.9061 28.5126 69.9886C28.8816 70.195 28.9226 70.4014 28.6356 70.8555C28.3486 71.3096 28.3486 71.7224 28.7176 72.0114C29.2916 72.4654 30.0706 72.2178 30.4805 71.4747Z" fill="#FF007A"/>
<path fill-rule="evenodd" clip-rule="evenodd" d="M47.0847 49.7616C46.1007 50.0505 45.1577 51.1238 44.8708 52.1971C44.7068 52.8575 44.7888 54.0546 45.0757 54.4262C45.5267 55.0041 45.9367 55.1692 47.0847 55.1692C49.3396 55.1692 51.2665 54.1785 51.4715 52.9814C51.6765 51.9907 50.8155 50.6284 49.6265 50.0092C49.0116 49.679 47.7406 49.5552 47.0847 49.7616ZM49.7085 51.8255C50.0365 51.3302 49.9135 50.7935 49.2986 50.422C48.1916 49.7203 46.5107 50.2982 46.5107 51.3715C46.5107 51.9081 47.3716 52.486 48.1916 52.486C48.7246 52.486 49.4626 52.1558 49.7085 51.8255Z" fill="#FF007A"/>
</g>
<defs>
<clipPath id="clip0_3300_8578">
<rect width="69" height="80" fill="white" transform="translate(16.5 11)"/>
</clipPath>
</defs>
</svg>
