<?xml version="1.0" encoding="utf-8"?>
<!-- Generator: Adobe Illustrator 26.0.1, SVG Export Plug-In . SVG Version: 6.00 Build 0)  -->
<svg version="1.1" id="Layer_1" xmlns="http://www.w3.org/2000/svg" xmlns:xlink="http://www.w3.org/1999/xlink" x="0px" y="0px"
	 viewBox="0 0 102 102" style="enable-background:new 0 0 102 102;" xml:space="preserve">
<style type="text/css">
	.st0{fill:#FFC6E1;}
	.st1{fill:#FFFFFF;}
	.st2{fill:#FFFFFF;fill-opacity:0;stroke:#000000;stroke-opacity:0;}
</style>
<path class="st0" d="M32,0h38c17.7,0,32,14.3,32,32v38c0,17.7-14.3,32-32,32H32C14.3,102,0,87.7,0,70V32C0,14.3,14.3,0,32,0z"/>
<g>
	<g>
		<g>
			<g>
				<path id="ahUEV1Ja" class="st1" d="M26.4,38.2c-0.2,0.3-1,1-2,1.5c-2.1,1.2-6,2.9-6.4,2.9c-0.6,0-3.6,1.7-4.1,2.4
					c-1.4,1.7-2.1,3-3.1,6.2c-0.4,1.3-0.9,2.5-1.1,2.7c-0.6,0.6-0.4,1.5,0.6,2.6c1,1,1.6,1.4,3.6,2.4c1.8,0.8,2.6,1,5.2,1.2
					c3.1,0.2,3.9,0.3,4.5,0.6s1.5,0.3,1.3-0.1c-0.1-0.1-0.3-0.3-0.6-0.4c-1-0.2-0.8-0.6,0.2-0.6c0.8,0,1.1-0.1,1.1-0.3
					c0-0.5-0.5-0.6-1.5-0.5c-0.9,0.1-1-0.1-0.1-0.3c0.4-0.1,1-0.6,0.9-0.8c0,0-1,0.1-2.2,0.1c-1.2,0.1-2.7,0.1-3.5,0
					c-0.7-0.1-1.4-0.2-1.5-0.2s-0.2-0.1-0.2-0.2c0-0.1,1.5-0.3,3.3-0.3c2.9-0.1,3.4-0.1,3.8-0.5c0.7-0.6,0.6-1.7-0.1-2.6
					c0-0.1-0.2-0.3-0.6-0.8l0.7-0.8l0.7-0.8c0,0.7,0,1.1,0,1.2c0,0.6,0.1,1.4,0.3,1.8c0.3,0.6,1.9,1.9,3.6,2.8
					c1,0.5,3.9,1.2,4.6,1.1c0.6-0.1,0.5-0.5-0.3-0.7c-1.1-0.2-1.1-0.5,0-0.7c1.2-0.2,1.2-0.6-0.1-0.6c-1.2,0-1.4-0.3-0.3-0.7
					c0.8-0.3,0.9-0.9,0.2-0.7c-0.3,0.1-0.8,0.2-1,0.2c-0.3,0.1-0.7,0.3-1,0.4c-0.7,0.4-1.1,0.2-2.4-1.1c-0.1-0.1-0.4-0.4-1.1-1.1
					c0.3-0.7,0.4-1.1,0.5-1.2c0.2-0.7,0.6-1.7,0.7-2.3s0.9-1.9,1.8-3.2c1.9-2.8,3-4.9,3.1-6.4c0.1-1.4-0.1-1.7-2.1-2.4
					c-0.8-0.3-1.8-0.7-2.2-1c-0.9-0.6-1.2-0.6-2.1-0.1C27.1,37.4,26.6,37.9,26.4,38.2z"/>
			</g>
			<g>
				<g>
					<path id="ahUEV1Ja_00000141414499838840243810000009863164321224296373_" class="st2" d="M26.4,38.2c-0.2,0.3-1,1-2,1.5
						c-2.1,1.2-6,2.9-6.4,2.9c-0.6,0-3.6,1.7-4.1,2.4c-1.4,1.7-2.1,3-3.1,6.2c-0.4,1.3-0.9,2.5-1.1,2.7c-0.6,0.6-0.4,1.5,0.6,2.6
						c1,1,1.6,1.4,3.6,2.4c1.8,0.8,2.6,1,5.2,1.2c3.1,0.2,3.9,0.3,4.5,0.6s1.5,0.3,1.3-0.1c-0.1-0.1-0.3-0.3-0.6-0.4
						c-1-0.2-0.8-0.6,0.2-0.6c0.8,0,1.1-0.1,1.1-0.3c0-0.5-0.5-0.6-1.5-0.5c-0.9,0.1-1-0.1-0.1-0.3c0.4-0.1,1-0.6,0.9-0.8
						c0,0-1,0.1-2.2,0.1c-1.2,0.1-2.7,0.1-3.5,0c-0.7-0.1-1.4-0.2-1.5-0.2s-0.2-0.1-0.2-0.2c0-0.1,1.5-0.3,3.3-0.3
						c2.9-0.1,3.4-0.1,3.8-0.5c0.7-0.6,0.6-1.7-0.1-2.6c0-0.1-0.2-0.3-0.6-0.8l0.7-0.8l0.7-0.8c0,0.7,0,1.1,0,1.2
						c0,0.6,0.1,1.4,0.3,1.8c0.3,0.6,1.9,1.9,3.6,2.8c1,0.5,3.9,1.2,4.6,1.1c0.6-0.1,0.5-0.5-0.3-0.7c-1.1-0.2-1.1-0.5,0-0.7
						c1.2-0.2,1.2-0.6-0.1-0.6c-1.2,0-1.4-0.3-0.3-0.7c0.8-0.3,0.9-0.9,0.2-0.7c-0.3,0.1-0.8,0.2-1,0.2c-0.3,0.1-0.7,0.3-1,0.4
						c-0.7,0.4-1.1,0.2-2.4-1.1c-0.1-0.1-0.4-0.4-1.1-1.1c0.3-0.7,0.4-1.1,0.5-1.2c0.2-0.7,0.6-1.7,0.7-2.3s0.9-1.9,1.8-3.2
						c1.9-2.8,3-4.9,3.1-6.4c0.1-1.4-0.1-1.7-2.1-2.4c-0.8-0.3-1.8-0.7-2.2-1c-0.9-0.6-1.2-0.6-2.1-0.1
						C27.1,37.4,26.6,37.9,26.4,38.2z"/>
				</g>
			</g>
		</g>
		<g>
			<g>
				<path id="g7iKN7Lzo" class="st1" d="M66.5,37.1c0.6,0.7,0.9,1.1,1,1.2c0.9,1.1,1,2.1,1,9.8c0,7.9-0.1,8.6-1,9.2
					c-1.7,1.1-1.1,1.4,2.7,1.4c3.5,0,4.7-0.6,2.6-1.3c-0.9-0.3-1-0.8-1-3c0-0.2,0-1.1,0.1-2.7c0.9,1.1,1.4,1.7,1.5,1.8
					c0.8,1,2.1,2.6,2.7,3.5c1,1.5,1.5,1.7,3.7,1.7c2.4,0,3.3-0.7,1.6-1.2c-0.5-0.2-2.3-1.9-4.1-3.7c-0.2-0.2-1.2-1.4-3.1-3.5
					c1.4-1.2,2.1-1.9,2.3-2c1.3-1.1,2.8-2.1,3.3-2.3s0.9-0.6,0.9-0.9c0-0.4-1-0.6-3.1-0.6c-2,0-3.1,0.2-3.1,0.6
					c0,0.3,0.3,0.7,0.7,0.8c0.4,0.2-0.1,1-1.3,2.2c-0.1,0.1-0.8,0.8-2,2c0-4.5,0-6.9,0-7.4c0-8.1,0.1-8-3.2-6.5
					C68.1,36.4,67.5,36.7,66.5,37.1z"/>
			</g>
			<g>
				<g>
					<path id="g7iKN7Lzo_00000155834445661755352860000017301841719496999593_" class="st2" d="M66.5,37.1c0.6,0.7,0.9,1.1,1,1.2
						c0.9,1.1,1,2.1,1,9.8c0,7.9-0.1,8.6-1,9.2c-1.7,1.1-1.1,1.4,2.7,1.4c3.5,0,4.7-0.6,2.6-1.3c-0.9-0.3-1-0.8-1-3
						c0-0.2,0-1.1,0.1-2.7c0.9,1.1,1.4,1.7,1.5,1.8c0.8,1,2.1,2.6,2.7,3.5c1,1.5,1.5,1.7,3.7,1.7c2.4,0,3.3-0.7,1.6-1.2
						c-0.5-0.2-2.3-1.9-4.1-3.7c-0.2-0.2-1.2-1.4-3.1-3.5c1.4-1.2,2.1-1.9,2.3-2c1.3-1.1,2.8-2.1,3.3-2.3s0.9-0.6,0.9-0.9
						c0-0.4-1-0.6-3.1-0.6c-2,0-3.1,0.2-3.1,0.6c0,0.3,0.3,0.7,0.7,0.8c0.4,0.2-0.1,1-1.3,2.2c-0.1,0.1-0.8,0.8-2,2
						c0-4.5,0-6.9,0-7.4c0-8.1,0.1-8-3.2-6.5C68.1,36.4,67.5,36.7,66.5,37.1z"/>
				</g>
			</g>
		</g>
		<g>
			<g>
				<path id="d1UG1Fosv" class="st1" d="M83.2,45.2c-0.1,0.1-0.6,0.3-1.5,0.7l1.5,0.2l1.4,0.2c0,3.2,0,5,0,5.4c0,6,0.5,7.1,3.5,7.1
					c2.2,0,3.2-0.5,3.9-1.7c0.5-0.9,0.5-1-1-0.7c-2.7,0.5-3.2-0.6-3.2-5.7c0-0.3,0-1.7,0.1-4.4c1.2,0,1.9,0,2,0
					c2.8,0,2.8-1.5,0.1-1.7c-1.8-0.2-2-0.3-2.1-1.9c-0.2-2.1-0.8-2.1-2.1,0.1C85.2,43.7,84,44.8,83.2,45.2z"/>
			</g>
			<g>
				<g>
					<path id="d1UG1Fosv_00000033334509211030883440000011542342181651076274_" class="st2" d="M83.2,45.2c-0.1,0.1-0.6,0.3-1.5,0.7
						l1.5,0.2l1.4,0.2c0,3.2,0,5,0,5.4c0,6,0.5,7.1,3.5,7.1c2.2,0,3.2-0.5,3.9-1.7c0.5-0.9,0.5-1-1-0.7c-2.7,0.5-3.2-0.6-3.2-5.7
						c0-0.3,0-1.7,0.1-4.4c1.2,0,1.9,0,2,0c2.8,0,2.8-1.5,0.1-1.7c-1.8-0.2-2-0.3-2.1-1.9c-0.2-2.1-0.8-2.1-2.1,0.1
						C85.2,43.7,84,44.8,83.2,45.2z"/>
				</g>
			</g>
		</g>
		<g>
			<g>
				<path id="bDuUFuCUE" class="st1" d="M40.7,47c0.6,0.5,0.8,1.8,0.8,5c0,3.8-0.2,4.4-1,5c-1.8,1.1-1.2,1.5,2.6,1.5
					c3.5,0,4.7-0.6,2.6-1.3c-1-0.3-1.1-0.7-0.9-5.1c0-0.3,0.1-1.9,0.2-4.8c1.3,0,2.1,0,2.2,0c1.7,0,2.4-0.3,2.8-1
					c1.1-2-2.5-3.2-4.4-1.5c-0.9,0.8-0.9,0.8-0.9,0c0-1.1-0.8-1.1-3,0C39.7,45.7,39.5,46,40.7,47z"/>
			</g>
			<g>
				<g>
					<path id="bDuUFuCUE_00000174570002068557213510000006764059817883510445_" class="st2" d="M40.7,47c0.6,0.5,0.8,1.8,0.8,5
						c0,3.8-0.2,4.4-1,5c-1.8,1.1-1.2,1.5,2.6,1.5c3.5,0,4.7-0.6,2.6-1.3c-1-0.3-1.1-0.7-0.9-5.1c0-0.3,0.1-1.9,0.2-4.8
						c1.3,0,2.1,0,2.2,0c1.7,0,2.4-0.3,2.8-1c1.1-2-2.5-3.2-4.4-1.5c-0.9,0.8-0.9,0.8-0.9,0c0-1.1-0.8-1.1-3,0
						C39.7,45.7,39.5,46,40.7,47z"/>
				</g>
			</g>
		</g>
		<g>
			<g>
				<path id="f3V9XNPos8" class="st1" d="M51.8,52c0,4.2,2.7,6.7,7,6.7c1.9,0,2.7-0.3,4.1-1.5c0.9-0.8,1.6-1.7,1.5-1.8
					c-0.2-0.2-1.3,0.1-2.6,0.5c-1.8,0.6-2.4,0.6-3.6,0.1c-1.4-0.7-3.4-3.9-2.9-4.7c0.2-0.2,2.2-0.4,4.7-0.4c4.8,0,5-0.2,3.8-3.6
					c-0.9-2.6-4.5-3.9-7.5-2.7C53.9,45.7,51.8,49,51.8,52z M60.8,48.3c0.3,0.9,0,1-2.6,1c-3.1,0-3.6-0.7-1.8-2.6
					c1.2-1.2,1.5-1.2,3-0.3C60.1,46.9,60.7,47.8,60.8,48.3z"/>
			</g>
			<g>
				<g>
					<path id="f3V9XNPos8_00000084510960910523912230000016667983211486287534_" class="st2" d="M51.8,52c0,4.2,2.7,6.7,7,6.7
						c1.9,0,2.7-0.3,4.1-1.5c0.9-0.8,1.6-1.7,1.5-1.8c-0.2-0.2-1.3,0.1-2.6,0.5c-1.8,0.6-2.4,0.6-3.6,0.1c-1.4-0.7-3.4-3.9-2.9-4.7
						c0.2-0.2,2.2-0.4,4.7-0.4c4.8,0,5-0.2,3.8-3.6c-0.9-2.6-4.5-3.9-7.5-2.7C53.9,45.7,51.8,49,51.8,52z M60.8,48.3
						c0.3,0.9,0,1-2.6,1c-3.1,0-3.6-0.7-1.8-2.6c1.2-1.2,1.5-1.2,3-0.3C60.1,46.9,60.7,47.8,60.8,48.3z"/>
				</g>
			</g>
		</g>
	</g>
</g>
</svg>
