<svg width="248" height="24" viewBox="0 0 248 24" fill="none" xmlns="http://www.w3.org/2000/svg">
<path d="M8.072 18C11 18 13.232 15.888 13.232 12.96C13.232 10.968 12.272 9.744 11.288 9.144C11.888 8.712 12.8 7.584 12.8 5.952C12.8 3.312 10.688 1.2 7.544 1.2H0.944V18H8.072ZM4.232 4.104H7.208C8.432 4.104 9.416 4.8 9.416 6.072C9.416 7.416 8.432 8.088 7.208 8.088H4.232V4.104ZM4.232 10.872H7.52C8.984 10.872 9.872 11.76 9.848 12.96C9.824 14.16 9.056 15.096 7.52 15.096H4.232V10.872ZM18.5354 18.264C20.0234 18.264 20.9834 17.736 21.4394 17.232V18H24.2234V11.328C24.2234 9.048 22.5914 6.696 19.2074 6.696C16.9514 6.696 15.3434 7.944 14.6474 9.432L16.8074 10.824C17.1914 10.008 17.9834 9.336 19.2074 9.336C20.6234 9.336 21.3194 10.104 21.3194 10.632C21.3194 11.16 20.9594 11.472 20.3834 11.472H17.9834C15.8234 11.472 14.2874 12.72 14.2874 14.64C14.2874 16.632 15.8954 18.264 18.5354 18.264ZM18.9434 15.864C17.9354 15.864 17.3594 15.36 17.3594 14.712C17.3594 14.064 17.8394 13.632 18.5354 13.632H21.2954V13.776C21.2954 14.928 20.4074 15.864 18.9434 15.864ZM30.8401 18.168V15.336C29.7841 15.336 29.2801 14.808 29.2801 13.944V1.2H26.2801V14.016C26.2801 16.8 27.6961 18.168 30.2641 18.168H30.8401ZM36.1501 18.264C37.6381 18.264 38.5981 17.736 39.0541 17.232V18H41.8381V11.328C41.8381 9.048 40.2061 6.696 36.8221 6.696C34.5661 6.696 32.9581 7.944 32.2621 9.432L34.4221 10.824C34.8061 10.008 35.5981 9.336 36.8221 9.336C38.2381 9.336 38.9341 10.104 38.9341 10.632C38.9341 11.16 38.5741 11.472 37.9981 11.472H35.5981C33.4381 11.472 31.9021 12.72 31.9021 14.64C31.9021 16.632 33.5101 18.264 36.1501 18.264ZM36.5581 15.864C35.5501 15.864 34.9741 15.36 34.9741 14.712C34.9741 14.064 35.4541 13.632 36.1501 13.632H38.9101V13.776C38.9101 14.928 38.0221 15.864 36.5581 15.864ZM45.4972 4.824C46.6492 4.824 47.4172 4.032 47.4172 3.024C47.4172 1.992 46.6492 1.176 45.4972 1.176C44.4172 1.176 43.6012 1.992 43.6012 3.024C43.6012 4.032 44.4172 4.824 45.4972 4.824ZM41.7292 23.568C44.7292 23.568 47.0332 22.104 47.0332 18.408V6.96H44.0332V18.408C44.0332 20.016 43.1692 20.76 41.7292 20.76V23.568ZM50.1678 4.824C51.2958 4.824 52.0878 4.032 52.0878 3.024C52.0878 1.992 51.2958 1.176 50.1678 1.176C49.0878 1.176 48.2718 1.992 48.2718 3.024C48.2718 4.032 49.0878 4.824 50.1678 4.824ZM51.6798 18V6.96H48.6798V18H51.6798ZM64.5796 18.24C68.7316 18.24 70.9636 15.672 70.9636 12.984C70.9636 10.368 69.3556 8.472 66.1636 7.824L64.4596 7.488C63.3796 7.272 62.6836 6.696 62.6836 5.736C62.6836 4.824 63.5956 4.032 64.9396 4.032C66.3316 4.032 67.2916 4.92 67.6036 5.88L70.3636 4.152C69.4756 2.328 67.6036 0.959999 64.9396 0.959999C61.0996 0.959999 59.2276 3.552 59.2276 5.784C59.2276 8.688 61.2676 10.2 63.6436 10.656L65.2756 10.944C66.5716 11.208 67.4116 11.856 67.4116 12.984C67.4116 14.256 66.3076 14.976 64.5796 14.976C62.6356 14.976 61.4356 13.752 61.0036 12.504L58.2676 14.088C58.9876 15.936 60.8356 18.24 64.5796 18.24ZM75.4696 18V12.336C75.4696 10.68 76.3816 9.648 78.0376 9.648H79.2136V6.792H78.3736C77.1256 6.792 75.9256 7.272 75.3256 8.256V6.96H72.5176V18H75.4696ZM81.8816 4.824C83.0096 4.824 83.8016 4.032 83.8016 3.024C83.8016 1.992 83.0096 1.176 81.8816 1.176C80.8016 1.176 79.9856 1.992 79.9856 3.024C79.9856 4.032 80.8016 4.824 81.8816 4.824ZM83.3936 18V6.96H80.3936V18H83.3936ZM88.4683 18V11.736C88.4683 10.344 89.3563 9.456 90.5563 9.456C91.9003 9.456 92.5963 10.416 92.5963 11.616V18H95.5963V10.992C95.5963 8.568 93.7483 6.696 91.2283 6.696C89.7643 6.696 88.7803 7.32 88.3243 7.848V6.96H85.4683V18H88.4683ZM99.0275 4.824C100.156 4.824 100.948 4.032 100.948 3.024C100.948 1.992 100.156 1.176 99.0275 1.176C97.9475 1.176 97.1315 1.992 97.1315 3.024C97.1315 4.032 97.9475 4.824 99.0275 4.824ZM100.54 18V6.96H97.5395V18H100.54ZM108.542 18.12L113.51 6.96H110.27L107.366 13.8L104.654 6.96H101.27L106.214 18.12H108.542ZM118.177 18.264C119.665 18.264 120.625 17.736 121.081 17.232V18H123.865V11.328C123.865 9.048 122.233 6.696 118.849 6.696C116.593 6.696 114.985 7.944 114.289 9.432L116.449 10.824C116.833 10.008 117.625 9.336 118.849 9.336C120.265 9.336 120.961 10.104 120.961 10.632C120.961 11.16 120.601 11.472 120.025 11.472H117.625C115.465 11.472 113.929 12.72 113.929 14.64C113.929 16.632 115.537 18.264 118.177 18.264ZM118.585 15.864C117.577 15.864 117.001 15.36 117.001 14.712C117.001 14.064 117.481 13.632 118.177 13.632H120.937V13.776C120.937 14.928 120.049 15.864 118.585 15.864ZM129.353 18.264C132.185 18.264 133.697 16.608 133.697 14.568C133.697 12.696 132.569 11.472 129.665 11.016C128.825 10.872 128.369 10.608 128.369 10.056C128.369 9.6 128.801 9.24 129.473 9.24C130.169 9.24 130.649 9.576 130.817 10.128L133.337 9.288C132.905 7.848 131.633 6.696 129.473 6.696C126.977 6.696 125.489 8.28 125.489 10.08C125.489 12.48 127.217 13.344 129.449 13.704C130.289 13.848 130.745 14.136 130.745 14.712C130.745 15.264 130.241 15.6 129.401 15.6C128.633 15.6 128.009 15.168 127.769 14.472L125.153 15.456C125.609 16.944 126.929 18.264 129.353 18.264ZM138.862 18.264C140.35 18.264 141.31 17.736 141.766 17.232V18H144.55V11.328C144.55 9.048 142.918 6.696 139.534 6.696C137.278 6.696 135.67 7.944 134.974 9.432L137.134 10.824C137.518 10.008 138.31 9.336 139.534 9.336C140.95 9.336 141.646 10.104 141.646 10.632C141.646 11.16 141.286 11.472 140.71 11.472H138.31C136.15 11.472 134.614 12.72 134.614 14.64C134.614 16.632 136.222 18.264 138.862 18.264ZM139.27 15.864C138.262 15.864 137.686 15.36 137.686 14.712C137.686 14.064 138.166 13.632 138.862 13.632H141.622V13.776C141.622 14.928 140.734 15.864 139.27 15.864ZM149.726 18V11.736C149.726 10.344 150.614 9.456 151.814 9.456C153.158 9.456 153.854 10.416 153.854 11.616V18H156.854V10.992C156.854 8.568 155.006 6.696 152.486 6.696C151.022 6.696 150.038 7.32 149.582 7.848V6.96H146.726V18H149.726ZM174.687 21.096C170.151 21.096 166.167 17.712 166.167 12.384C166.167 6.912 170.295 3.936 174.471 3.936C179.847 3.936 182.823 7.44 182.823 11.16C182.823 13.416 181.551 15.36 179.823 15.36H179.463V7.704H176.847V8.76C176.079 7.92 174.999 7.464 173.727 7.464C170.991 7.464 168.903 9.84 168.903 12.576C168.903 15.336 170.991 17.712 173.727 17.712C174.999 17.712 176.079 17.256 176.847 16.392V17.712H179.823C182.991 17.712 185.199 14.592 185.199 11.16C185.199 6.144 180.903 1.68 174.471 1.68C168.831 1.68 163.719 6.12 163.719 12.384C163.719 19.008 168.783 23.424 174.687 23.424V21.096ZM174.231 15.192C172.719 15.168 171.663 14.064 171.663 12.576C171.663 11.112 172.719 9.96 174.231 9.96C175.743 9.96 176.847 11.112 176.847 12.576C176.847 14.064 175.743 15.168 174.231 15.192ZM193.014 6.696C191.958 6.696 190.854 6.984 189.918 7.56V1.2H186.918V18H189.918V17.4C190.854 17.976 191.958 18.264 193.014 18.264C196.35 18.264 198.846 15.576 198.846 12.48C198.846 9.384 196.35 6.696 193.014 6.696ZM192.822 15.432C191.118 15.408 189.918 14.136 189.918 12.48C189.918 10.848 191.118 9.552 192.822 9.528C194.526 9.552 195.726 10.848 195.726 12.48C195.726 14.136 194.526 15.408 192.822 15.432ZM204.215 18.264C205.703 18.264 206.663 17.736 207.119 17.232V18H209.903V11.328C209.903 9.048 208.271 6.696 204.887 6.696C202.631 6.696 201.023 7.944 200.327 9.432L202.487 10.824C202.871 10.008 203.663 9.336 204.887 9.336C206.303 9.336 206.999 10.104 206.999 10.632C206.999 11.16 206.639 11.472 206.063 11.472H203.663C201.503 11.472 199.967 12.72 199.967 14.64C199.967 16.632 201.575 18.264 204.215 18.264ZM204.623 15.864C203.615 15.864 203.039 15.36 203.039 14.712C203.039 14.064 203.519 13.632 204.215 13.632H206.975V13.776C206.975 14.928 206.087 15.864 204.623 15.864ZM216.52 18.168V15.336C215.464 15.336 214.96 14.808 214.96 13.944V1.2H211.96V14.016C211.96 16.8 213.376 18.168 215.944 18.168H216.52ZM221.83 18.264C223.318 18.264 224.278 17.736 224.734 17.232V18H227.518V11.328C227.518 9.048 225.886 6.696 222.502 6.696C220.246 6.696 218.638 7.944 217.942 9.432L220.102 10.824C220.486 10.008 221.278 9.336 222.502 9.336C223.918 9.336 224.614 10.104 224.614 10.632C224.614 11.16 224.254 11.472 223.678 11.472H221.278C219.118 11.472 217.582 12.72 217.582 14.64C217.582 16.632 219.19 18.264 221.83 18.264ZM222.238 15.864C221.23 15.864 220.654 15.36 220.654 14.712C220.654 14.064 221.134 13.632 221.83 13.632H224.59V13.776C224.59 14.928 223.702 15.864 222.238 15.864ZM231.177 4.824C232.329 4.824 233.097 4.032 233.097 3.024C233.097 1.992 232.329 1.176 231.177 1.176C230.097 1.176 229.281 1.992 229.281 3.024C229.281 4.032 230.097 4.824 231.177 4.824ZM227.409 23.568C230.409 23.568 232.713 22.104 232.713 18.408V6.96H229.713V18.408C229.713 20.016 228.849 20.76 227.409 20.76V23.568ZM235.847 4.824C236.975 4.824 237.767 4.032 237.767 3.024C237.767 1.992 236.975 1.176 235.847 1.176C234.767 1.176 233.951 1.992 233.951 3.024C233.951 4.032 234.767 4.824 235.847 4.824ZM237.359 18V6.96H234.359V18H237.359ZM242.746 18.264C245.578 18.264 247.09 16.608 247.09 14.568C247.09 12.696 245.962 11.472 243.058 11.016C242.218 10.872 241.762 10.608 241.762 10.056C241.762 9.6 242.194 9.24 242.866 9.24C243.562 9.24 244.042 9.576 244.21 10.128L246.73 9.288C246.298 7.848 245.026 6.696 242.866 6.696C240.37 6.696 238.882 8.28 238.882 10.08C238.882 12.48 240.61 13.344 242.842 13.704C243.682 13.848 244.138 14.136 244.138 14.712C244.138 15.264 243.634 15.6 242.794 15.6C242.026 15.6 241.402 15.168 241.162 14.472L238.546 15.456C239.002 16.944 240.322 18.264 242.746 18.264Z" fill="white"/>
</svg>
