<?xml version="1.0" encoding="utf-8"?>
<!-- Generator: Adobe Illustrator 26.0.1, SVG Export Plug-In . SVG Version: 6.00 Build 0)  -->
<svg version="1.1" id="Layer_1" xmlns="http://www.w3.org/2000/svg" xmlns:xlink="http://www.w3.org/1999/xlink" x="0px" y="0px"
	 viewBox="0 0 102 102" style="enable-background:new 0 0 102 102;" xml:space="preserve">
<style type="text/css">
	.st0{fill:#FFC6E1;}
	.st1{clip-path:url(#SVGID_00000038375978597470105670000002127072215227533211_);}
	.st2{fill:#FF007A;}
	.st3{fill-rule:evenodd;clip-rule:evenodd;fill:#FF007A;}
	.st4{fill:url(#SVGID_00000182499273231568979010000017795738653776996251_);}
	.st5{fill:#6B76F9;}
	.st6{fill:#5C61E4;}
	.st7{fill:#0A0A0A;}
	.st8{fill:#6C70FB;}
	.st9{fill:#454CC0;}
	.st10{fill:#272C34;}
	.st11{fill:#363DA5;}
	.st12{fill:#4E57E0;}
	.st13{fill:#3642C8;}
	.st14{fill:#4D51F7;}
	.st15{fill:#161C27;}
	.st16{fill:#FDC7E7;}
	.st17{fill:#B4B6FD;}
	.st18{fill:#F28DAD;}
	.st19{fill:#A2A4FD;}
	.st20{fill:#8A8DFC;}
	.st21{fill:#F9B3D2;}
	.st22{fill:#FDFDFD;}
</style>
<path class="st0" d="M32,0h38c17.7,0,32,14.3,32,32v38c0,17.7-14.3,32-32,32H32C14.3,102,0,87.7,0,70V32C0,14.3,14.3,0,32,0z"/>
<g>
	<defs>
		<rect id="SVGID_1_" x="16.5" y="11" width="69" height="80"/>
	</defs>
	<clipPath id="SVGID_00000065070472069428925370000004177524960452672946_">
		<use xlink:href="#SVGID_1_"  style="overflow:visible;"/>
	</clipPath>
	<g style="clip-path:url(#SVGID_00000065070472069428925370000004177524960452672946_);">
		<path class="st2" d="M43.6,29.2c-0.9-0.1-0.9-0.2-0.5-0.2c0.8-0.1,2.6,0,3.9,0.3c3,0.7,5.6,2.5,8.4,5.7l0.7,0.9l1.1-0.2
			c4.6-0.7,9.2-0.2,13.1,1.7c1.1,0.5,2.7,1.5,3,1.7c0.1,0.1,0.2,0.6,0.3,1.2c0.3,1.9,0.2,3.4-0.5,4.5c-0.3,0.6-0.3,0.8-0.1,1.3
			c0.2,0.4,0.7,0.7,1.1,0.7c1,0,2-1.6,2.5-3.8l0.2-0.9l0.4,0.4c2.1,2.4,3.7,5.6,4,7.9l0.1,0.6l-0.4-0.5c-0.6-0.9-1.2-1.6-2-2.1
			c-1.4-0.9-2.9-1.2-6.8-1.4c-3.5-0.2-5.5-0.5-7.5-1.2c-3.4-1.1-5.1-2.6-9.1-7.9c-1.8-2.4-2.9-3.6-4-4.7
			C49.1,30.9,46.7,29.7,43.6,29.2z"/>
		<path class="st2" d="M74.1,34.4c0.1-1.6,0.3-2.6,0.7-3.6c0.2-0.4,0.3-0.7,0.4-0.7c0,0,0,0.3-0.2,0.6c-0.3,0.9-0.4,2.2-0.2,3.6
			c0.3,1.9,0.4,2.1,2.4,4.1c0.9,0.9,2,2.1,2.4,2.6l0.7,0.9l-0.7-0.7c-0.9-0.8-2.8-2.4-3.3-2.6c-0.3-0.2-0.3-0.2-0.5,0
			c-0.2,0.2-0.2,0.4-0.2,1.6c0,1.9-0.3,3-0.9,4.2c-0.3,0.6-0.4,0.5-0.1-0.2c0.2-0.5,0.2-0.8,0.2-2.6c0-3.6-0.4-4.5-2.9-5.9
			c-0.6-0.4-1.7-0.9-2.3-1.2c-0.7-0.3-1.1-0.5-1.1-0.5c0.1-0.1,2.5,0.6,3.4,1c1.4,0.6,1.7,0.6,1.8,0.6C74,35.8,74.1,35.5,74.1,34.4z
			"/>
		<path class="st2" d="M45.2,40.6c-1.7-2.4-2.8-6.1-2.6-8.9l0.1-0.9l0.4,0.1c0.7,0.1,2,0.6,2.6,1c1.6,1,2.4,2.4,3.1,5.7
			c0.2,1,0.5,2.1,0.6,2.5c0.2,0.6,1,2.1,1.6,3c0.5,0.7,0.2,1-0.9,0.9C48.7,43.9,46.6,42.5,45.2,40.6z"/>
		<path class="st2" d="M72,58.6c-8.1-3.3-11-6.2-11-11c0-0.7,0-1.3,0-1.3c0,0,0.3,0.2,0.7,0.5c1.6,1.3,3.5,1.9,8.6,2.6
			c3,0.5,4.7,0.8,6.3,1.3c5,1.7,8,5,8.8,9.6c0.2,1.3,0.1,3.8-0.2,5.2c-0.3,1-1.1,2.9-1.3,3c0,0-0.1-0.2-0.1-0.5
			c-0.1-1.7-0.9-3.4-2.4-4.7C79.6,61.9,77.4,60.7,72,58.6z"/>
		<path class="st2" d="M66.3,59.9c-0.1-0.6-0.3-1.4-0.4-1.7l-0.2-0.6L66,58c0.5,0.6,0.9,1.4,1.3,2.4c0.3,0.8,0.3,1,0.3,2.3
			c0,1.2,0,1.5-0.3,2.2c-0.4,1.1-0.9,1.9-1.7,2.8c-1.5,1.5-3.4,2.4-6.1,2.7c-0.5,0-1.9,0.2-3.1,0.2c-3.1,0.2-5.1,0.5-7,1.2
			c-0.2,0.1-0.5,0.2-0.5,0.1c-0.1-0.1,1.2-0.8,2.2-1.3c1.4-0.7,2.9-1.1,6.1-1.7c1.6-0.2,3.2-0.6,3.6-0.7
			C64.9,67,66.9,63.8,66.3,59.9z"/>
		<path class="st2" d="M70,66.6c-1.1-2.4-1.3-4.6-0.7-6.7c0.1-0.2,0.2-0.4,0.2-0.4c0.1,0,0.3,0.1,0.6,0.3c0.5,0.3,1.5,0.9,4.1,2.4
			c3.3,1.8,5.2,3.2,6.5,4.8c1.1,1.4,1.8,3,2.2,5c0.2,1.1,0.1,3.8-0.2,4.9c-0.9,3.5-3,6.3-5.9,7.9c-0.5,0.2-0.8,0.4-0.9,0.4
			s0.1-0.4,0.4-0.9c1-2.1,1.1-4.1,0.4-6.4c-0.5-1.4-1.4-3.1-3.3-5.9C71.1,68.6,70.6,67.8,70,66.6z"/>
		<path class="st2" d="M39.5,79.2c3-2.6,6.8-4.4,10.2-5c1.5-0.2,3.9-0.2,5.3,0.2c2.2,0.6,4.1,1.8,5.2,3.3c1,1.5,1.4,2.8,1.9,5.6
			c0.2,1.1,0.4,2.3,0.4,2.5c0.3,1.5,1,2.6,1.8,3.3c1.3,0.9,3.5,1,5.7,0.2c0.4-0.1,0.7-0.2,0.7-0.2c0.1,0.1-1,0.8-1.8,1.2
			c-1,0.5-1.8,0.7-3,0.7c-2,0-3.6-1-5-3.1c-0.3-0.4-0.9-1.6-1.4-2.7c-1.4-3.3-2.2-4.3-3.9-5.4c-1.5-0.9-3.4-1.2-4.8-0.5
			c-1.9,0.9-2.4,3.3-1.1,4.8c0.5,0.6,1.5,1.1,2.3,1.2c1.5,0.2,2.8-1,2.8-2.5c0-1-0.4-1.6-1.4-2c-1.3-0.6-2.7,0.1-2.7,1.4
			c0,0.5,0.2,0.9,0.8,1.1c0.3,0.2,0.3,0.2,0.1,0.1c-1.2-0.2-1.5-1.7-0.5-2.7c1.1-1.2,3.6-0.7,4.4,0.9c0.3,0.7,0.4,2,0.1,2.8
			C55,86.3,53,87.3,51,86.7c-1.4-0.4-1.9-0.7-3.6-2.4c-2.9-3-4-3.6-8.1-4.2L38.6,80L39.5,79.2z"/>
		<path class="st3" d="M17.9,12.8c9.6,11.7,24.3,29.8,25,30.8c0.6,0.8,0.4,1.6-0.7,2.2c-0.6,0.3-1.8,0.7-2.3,0.7
			c-0.7,0-1.4-0.3-2-0.9c-0.4-0.4-2-2.7-5.6-8.4c-2.7-4.3-5.1-7.9-5.1-8c-0.2-0.1-0.2-0.1,4.8,8.9c3.2,5.7,4.2,7.7,4.2,7.9
			c0,0.5-0.2,0.8-0.8,1.6c-1.1,1.2-1.6,2.6-2,5.6c-0.4,3.3-1.5,5.6-4.7,9.5c-1.8,2.3-2.1,2.7-2.6,3.7c-0.6,1.2-0.7,1.8-0.8,3.3
			c-0.1,1.6,0.1,2.6,0.5,4c0.4,1.3,0.9,2.2,2,3.9c0.9,1.5,1.5,2.6,1.5,3c0,0.3,0.1,0.3,1.6,0c3.5-0.8,6.4-2.2,8-4
			c1-1.1,1.2-1.7,1.2-3.1c0-0.9,0-1.2-0.3-1.7c-0.4-0.9-1.2-1.7-2.9-2.8c-2.2-1.5-3.2-2.8-3.4-4.4c-0.2-1.4,0-2.4,1.3-5
			c1.3-2.7,1.6-3.8,1.8-6.5c0.1-1.7,0.3-2.4,0.8-3c0.5-0.6,1-0.8,2.3-0.9c2.1-0.3,3.4-0.8,4.5-1.9c0.9-0.9,1.4-1.7,1.4-3l0-0.9
			l-0.5-0.6C43.3,40.6,16.6,11,16.5,11C16.5,11,17.1,11.8,17.9,12.8z M30.5,71.5c0.5-0.8,0.2-1.8-0.5-2.3c-0.7-0.5-1.8-0.2-1.8,0.4
			c0,0.2,0.1,0.3,0.3,0.4c0.4,0.2,0.4,0.4,0.1,0.9c-0.3,0.5-0.3,0.9,0.1,1.2C29.3,72.5,30.1,72.2,30.5,71.5z"/>
		<path class="st3" d="M47.1,49.8c-1,0.3-1.9,1.4-2.2,2.4c-0.2,0.7-0.1,1.9,0.2,2.2c0.5,0.6,0.9,0.7,2,0.7c2.3,0,4.2-1,4.4-2.2
			c0.2-1-0.7-2.4-1.8-3C49,49.7,47.7,49.6,47.1,49.8z M49.7,51.8c0.3-0.5,0.2-1-0.4-1.4c-1.1-0.7-2.8-0.1-2.8,0.9
			c0,0.5,0.9,1.1,1.7,1.1C48.7,52.5,49.5,52.2,49.7,51.8z"/>
	</g>
</g>
<linearGradient id="SVGID_00000071528652281306528500000006071121307028658568_" gradientUnits="userSpaceOnUse" x1="51" y1="104.3373" x2="51" y2="2.3373" gradientTransform="matrix(1 0 0 -1 0 104)">
	<stop  offset="0" style="stop-color:#FFCCCC"/>
	<stop  offset="1" style="stop-color:#FFCDB1"/>
</linearGradient>
<path style="fill:url(#SVGID_00000071528652281306528500000006071121307028658568_);" d="M32-0.3h38c17.7,0,32,14.3,32,32v38
	c0,17.7-14.3,32-32,32H32c-17.7,0-32-14.3-32-32v-38C0,14,14.3-0.3,32-0.3z"/>
<g>
	<path class="st5" d="M62.9,46.8c0.3,2,0,4-1.1,5.8c-2.2,0-4.5,0-6.7-0.1c0-0.4,0.4-0.7,0-1.1c0-0.1,0-0.3,0-0.4
		c0.8-0.5,0.2-1.2,0.1-1.7c-0.3-2.1-1.4-3.8-3.3-4.9c-1.2-0.8-2.4-0.3-2.6,1.1c-0.3,1.8-0.4,3.6-0.4,5.4c-0.4,0.5-0.1,1.1-0.2,1.7
		c-0.4,0.1-0.8,0.2-1.2,0.2c0-1.3,0.3-2.6,0.3-3.9c0-1,0.6-1.9,0.1-2.9c0-0.2,0-0.4,0-0.6c0.7-0.2,0.4-0.7,0.3-1.1
		c-0.1-0.5-0.6-0.7-1-0.8c-2-0.3-4-0.3-6,0c-0.3,0-0.4,0.2-0.5,0.4l0,0l0,0c-0.4,0-0.7-0.2-1.1-0.1c-2,0.4-3.8,1.2-5.4,2.2
		c-0.3,0.2-0.6,0.4-0.5,0.8c0,0.1-0.1,0.1-0.1,0.1c-0.8-0.1-1.2,0.3-1.3,1l0,0C32,48,31.9,48.2,32,48.3l0,0c-0.6,0-0.7,0.3-0.6,0.8
		c-0.4,0-0.4,0.3-0.4,0.6c-0.4,0-0.5,0.3-0.6,0.6c-0.4,0.9-0.8,1.7-1.1,2.7c-0.1,0.4,0,1-0.6,1.2c-0.4-0.2-0.6-0.6-1.1-0.7
		c0.6-3.7,2.7-6.7,5.4-9.2c2.6-2.3,5.5-4.1,8.9-5.4c0.2-0.1,0.5-0.1,0.7-0.2c2.8-0.1,5.6,0.2,8.3,0.8c3.9,0.9,7.5,2.4,10.3,5.3
		c0.3,0.3,0.4,0.7,0.9,0.8l0,0c0,0.2,0,0.3,0.2,0.4l0,0c0,0.2,0,0.3,0.2,0.4l0,0c0.1,0.1,0.1,0.1,0.2,0.2l0,0
		C62.7,46.7,62.8,46.7,62.9,46.8C62.9,46.8,62.9,46.8,62.9,46.8z M35,43.7c-0.3,0-0.4,0.1-0.6,0.3c-0.2,0.2-0.6,0.4-0.3,0.8
		c0.3,0.4,0.6,0.1,0.9,0c0.4-0.2,0.9-0.3,1.3-0.7c3.1-1,6.4-1.4,9.7-1.3c1.6,0,3.2,0.3,4.9,0.4c1.2,0.7,2.4,1.2,3.5,2.1
		c0.2,0.2,0.4,0.1,0.7,0.1c1.6,0,3.3,0,4.9,0c0.3,0,0.6,0.1,0.7-0.2c0.1-0.3-0.2-0.5-0.4-0.6c-0.9-0.8-1.9-1.6-3.1-2.2
		c-0.6,0-0.9-0.6-1.4-0.6c-2.9-1.5-6.1-2-9.3-2.5c-1.5-0.2-3.2-0.6-4.7,0.2c-1.5,0.8-3.1,1.3-4.3,2.5C36.4,42.3,35.6,42.9,35,43.7z"
		/>
	<path class="st6" d="M37.5,62.6c-2.3-0.5-4.5-1.2-6.4-2.6c-0.2-0.2-0.4-0.4-0.6-0.5c5.4,0,10.8,0,16.2,0c1.8,0,3.4-0.5,5-1.2
		c1.7-0.6,3.4-1.3,4.9-2.1c0.4-0.2,0.8-0.3,1.2-0.5c1-0.4,1.7-1.1,2.8-1.3c-1,1.7-2.6,2.8-4.1,4c-0.6,0.5-1.3,0.9-2,1.3
		c-0.1-0.2,0.1-0.5-0.3-0.5c-0.7-0.1-2,1.1-2.1,1.8c-1.4,0.3-2.7,0.9-4.1,1.1c-0.1-0.3-0.5-0.3-0.8-0.3c-2.3,0-4.5,0-6.8,0
		c-0.2,0-0.5,0-0.6,0.2C38.6,61.1,38.1,61.2,37.5,62.6z"/>
	<path class="st7" d="M49.9,29.6c0.7-0.1,1.3,0,1.6,0.7c0.2,0.5,0.6,0.3,1,0.3c6,0,12.1,0,18.1,0c0.3,0,0.8-0.2,0.9,0.4
		c0,0.6-0.2,0.8-0.8,0.8c-3.5,0-7.1,0-10.6,0c-2,0-4,0.1-6,0c-1.5-0.1-2.9,0.6-4.4,0.5c-0.3,0-0.4,0.2-0.4,0.4c0,0.4,0,0.7,0,1.1
		c-0.5,0.1-1,0.1-1.5,0c0-0.1,0-0.2,0-0.3c0.2-0.9-0.2-1.1-1.2-1.3C39.7,31.3,33,32,26.2,31.8c-0.5,0-0.7,0-0.8-0.6
		c0-0.7,0.4-0.6,0.8-0.6c6,0,11.9,0,17.9,0c0.5,0,1,0.1,1.3-0.6c0.2-0.5,0.7-0.5,1.2-0.4c-0.1,0.1-0.1,0.2-0.2,0.2
		c-0.2,0.1-0.6,0.1-0.5,0.4c0.1,0.3,0.4,0.2,0.7,0.3c0.2,0.1,0.5,0.1,0.6-0.1c0.6,0,1.2,0,1.8,0.1c0.3,0.3,0.6,0.2,0.9,0.1
		c0.2-0.1,0-0.2-0.1-0.3C49.9,30,49.9,29.8,49.9,29.6z"/>
	<path class="st8" d="M47.7,33.7c0.5,0.1,1,0.1,1.5,0c2,0,4.1-0.1,6,0.8c2,0.9,3.7,2.2,5,3.8c0.2,0.3,0.4,0.5,0.8,0.4
		c4.4,0,8.9,0,13.3-0.1c0.4,0.3,0.7,0.4,1.1,0c0.3,0.1,0.6,0.3,0.9,0.6c-1.8,0-3.5-0.1-5.3-0.1c-3-0.1-5.9,0-8.9,0
		c-0.2,0-0.4,0-0.6,0c-0.2,0-0.3,0.1-0.4,0.3c0,0.2,0.1,0.3,0.3,0.3c0.2,0,0.4,0,0.6,0c4.5,0,9.1,0,13.6,0c0.3,0,0.7,0.1,1-0.2
		c0.4,0.3,1,0.5,0.7,1.1c-3.9,0.2-7.8,0.3-11.6,0.7c-2.3,0.3-4.7,0-7.1,0.3c-0.2-0.1-0.2-0.2-0.2-0.4c0.2-0.3,0.1-0.5-0.2-0.6
		c-0.7-0.4-1.3-0.9-2.1-1.1c-0.9-0.4-1.8-0.8-2.7-1.1c0.2-0.6,0.7-0.4,1.1-0.4c0.9,0.1,1.7,0.2,2.6,0.3c0.7,0.1,1.5,0.2,2.2-0.1
		c-0.4-0.7-0.9-1.3-1.7-1.6c-0.6-0.5-1.3-0.9-2-1.2c-1-0.5-2.1-1.1-3.3-1.1c-2.1-0.1-4.2,0-6.3,0c-0.4,0-0.8,0-0.9,0.6
		c-0.3,0.2-0.4,0.5-0.4,0.8c-0.3,0.3-0.2,0.6-0.2,1c-0.3,0.1-0.4,0.3-0.4,0.6c-0.3,0.2-0.2,0.5-0.2,0.7c-0.3,0-0.6,0-0.9,0
		c0.5-1.2,1.1-2.4,1.6-3.6c0.2-0.5,0.6-0.6,1.1-0.6C46.4,33.7,47,33.7,47.7,33.7z"/>
	<path class="st9" d="M56.5,56.2c-1.6,0.9-3.2,1.5-4.9,2.1c-0.3-0.3-0.8-0.2-1.2-0.2c-7.1,0-14.2,0-21.3,0c-0.6-0.6-1.1-1.2-1.4-1.9
		c1.5,0,3,0,4.5-0.2c0,0,0.1,0,0.1,0l0.1,0c0.1,0.1,0.1,0.2,0.2,0c1.5,0.3,3.1,0.5,4.6,0.5c2.5,0.1,4.8-0.4,7.2-1
		c0.3,0.4,0.7,0.2,1.1,0.2c3.3,0,6.7,0,10,0C55.9,55.9,56.4,55.7,56.5,56.2z"/>
	<path class="st10" d="M54.5,72c1.4,0,2.9,0,4.3,0c0.4,0,1-0.1,1,0.5c0,0.6-0.6,0.5-1,0.5c-5.8,0-11.6,0-17.4,0
		c-3.5,0-7.1-0.1-10.6,0c-1.4,0-2.4-0.4-3.4-1.3c-0.8-0.8-1.4-1.6-2-2.5c-0.2-0.4-0.4-0.7,0.1-1c0.5-0.2,0.7,0.1,0.9,0.4
		c0.3,0.4,0.5,0.8,0.8,1.2c1,1.4,2.3,2.4,4.3,2.1c0.9-0.1,1.8,0,2.8-0.1c0.4,0,0.9,0,1.3,0c5.5,0,11,0,16.5,0c0.1,0,0.3,0,0.4,0
		c0.6,0,1.1,0,1.7,0C54.4,72,54.5,72,54.5,72z"/>
	<path class="st11" d="M56.5,56.2c-0.1-0.6-0.6-0.4-1-0.4c-3.3,0-6.7,0-10,0c-0.4,0-0.8,0.1-1.1-0.2c1.3-0.5,2.6-1.1,2.7-2.6
		c0.1-0.1,0.3-0.1,0.4-0.2c0.4-0.1,0.8-0.2,1.2-0.2c0.1,0,0.1,0,0.2,0c0,0.5,0,1-0.1,1.5c-0.1,0.8,0.2,1,0.9,1
		c0.5,0,0.9-0.2,1.3-0.3c1.3-0.6,2.5-1.4,3.6-2.2c0.1,0,0.3,0,0.4,0c2.2,0,4.5,0,6.7,0.1c-0.2,0.5-0.4,0.9-0.8,1.3
		c-0.1,0.1-0.1,0.2-0.2,0.2c0,0.1,0,0.1-0.1,0.1c-0.1,0.1-0.1,0.1-0.2,0.2c0,0,0,0,0,0c-1.1,0.1-1.9,0.9-2.8,1.3
		C57.3,55.9,56.9,56.1,56.5,56.2z"/>
	<path class="st12" d="M58.4,41.2c0,0.2,0,0.3,0.2,0.4c0.5,0.7,1.1,1.2,2.1,1.2c2.7-0.1,5.3,0,8,0c0.4,0,0.9-0.1,1.1,0.4
		c-1.8,0.6-3.5,1.2-5.1,2.2c-0.5-0.8-1.3-0.3-2-0.4C62,44.8,61.8,45,62,45.6c-0.5-0.1-0.7-0.5-0.9-0.8c-2.8-2.9-6.4-4.4-10.3-5.3
		c-2.7-0.6-5.5-0.9-8.3-0.8c0.1-0.3,0.3-0.5,0.4-0.8c0.3,0,0.6,0,0.9,0c0.5-0.1,0.9-0.1,1.4-0.2c0.2,0,0.4,0,0.6,0
		c0.1,0.4,0.4,0.3,0.7,0.3c1.7,0,3.3,0.3,5,0.7c0.3,0.1,0.7,0.4,1,0.1c0.4,0,0.9,0.1,1.2,0.4c0.2,0.2,0.3,0.5,0.6,0.2
		c0.1,0.1,0.3,0.1,0.4,0.2c0.1,0.1,0.2,0.1,0.2,0.2c0.2,0,0.4,0,0.6,0C56.5,40.5,57.3,41,58.4,41.2z"/>
	<path class="st8" d="M76.9,34.1c1.2-2.2,2.4-4.4,3.7-6.5c0.2-0.3,0.4-0.4,0.7-0.4c0.9,0,1.7,0,2.6,0c0.5,0,0.6,0.2,0.4,0.6
		c-0.9,2.3-1.7,4.5-2.6,6.8c-0.5-0.3-1.1-0.4-1.7-0.4C79,34.1,77.9,34.1,76.9,34.1z"/>
	<path class="st13" d="M69.8,43.1c-0.2-0.5-0.7-0.4-1.1-0.4c-2.7,0-5.4,0-8,0c-1,0-1.6-0.4-2.1-1.2c2.4-0.2,4.8,0,7.1-0.3
		c3.9-0.5,7.8-0.5,11.6-0.7c0.1,0.3,0,0.5-0.3,0.6c-0.8,0.5-1.6,1.1-2.4,1.6c-0.6-0.5-1.3-0.3-1.9-0.2C71.8,42.7,70.8,43,69.8,43.1z
		"/>
	<path class="st12" d="M29.1,58.2c7.1,0,14.2,0,21.3,0c0.4,0,0.8-0.1,1.2,0.2c-1.6,0.7-3.2,1.2-5,1.2c-5.4,0-10.8,0-16.2,0
		C29.9,59.1,29.4,58.7,29.1,58.2z"/>
	<path class="st14" d="M54.3,72c-0.6,0-1.1,0-1.7,0c-0.1-0.1-0.2-0.1-0.3-0.2c0-1.3,0-2.6-0.1-3.8c0-0.4,0-0.7,0-1.1
		c0-1.1,0-2.3,0.1-3.4c1.9-0.2,1.9-0.4,1.6-2.2c0,0,0-0.1,0-0.1c0.2,0,0.4,0,0.6,0c0,1.9,0.1,3.8,0.1,5.7c0,0.4,0,0.7,0,1.1
		c0,1.3,0,2.6-0.1,3.8C54.4,71.9,54.4,71.9,54.3,72z"/>
	<path class="st6" d="M76.9,34.1c1,0,2,0,3,0c0.6,0,1.2,0.1,1.7,0.4c-0.3,1-0.6,2-1.1,2.9c-1.8,0-3.5,0-5.3,0
		c-0.1-0.1-0.1-0.2-0.2-0.2C75.7,36.1,76.3,35.1,76.9,34.1z"/>
	<path class="st6" d="M35.7,72c-0.4,0-0.9,0-1.3,0c0.4-1.3,0.8-2.7,1.3-4c0.2-0.3,0.3-0.6,0.3-1c0.4-1.2,0.8-2.3,1.2-3.5
		c0.4,0.1,0.7-0.2,0.9-0.5c0.2-0.3,0.4-0.5,0.7-0.4c0.3,0.1,0.3,0.4,0.2,0.6c-0.1,0.3-0.1,0.6,0.3,0.6c-0.4,1-0.8,2-1.2,3
		c-0.3,0.3-0.4,0.6-0.5,1C36.8,69.3,36.3,70.6,35.7,72z M38.3,64.7c0-0.2-0.1-0.4-0.4-0.4c-0.7,0.1-0.6,0.7-0.8,1.1
		c-0.1,0.2,0.1,0.4,0.3,0.4C38,65.7,38,65.1,38.3,64.7z"/>
	<path class="st15" d="M75.1,37.1c0.1,0.1,0.1,0.2,0.2,0.2c0.5,0.5,1,1,1.6,1.6c0.5,1.1,1.5,0.8,2.4,0.6c0.1,0.1,0.1,0.1,0.2,0.2
		c-0.1,0.2-0.3,0.3-0.3,0.5c0,0.3-0.2,0.7,0.1,1c-0.1,0.1-0.1,0.1-0.2,0.2c-0.9-0.3-1.6-0.2-2.2,0.5c-0.3,0.3-0.5,0.6-0.8,0.9
		c-0.3,0.3-0.7,0.6-1,0.9c-0.5,0.5-1,0.9-1.5,1.4c-0.3,0.3-0.5,0.3-0.8-0.1c-0.2-0.3-0.7-0.5-0.1-0.9c0.7-0.4,1.3-0.9,1.9-1.4
		c0.8-0.5,1.6-1.1,2.4-1.6c0.2-0.2,0.4-0.3,0.3-0.6c0.2-0.7-0.3-0.9-0.7-1.1c-0.1-0.1-0.2-0.2-0.4-0.2c-0.2-0.3-0.5-0.5-0.9-0.6
		c-0.2-0.3-0.5-0.5-0.8-0.6c-0.6-0.5-1.2-0.9-1.8-1.4c-0.3-0.2-0.5-0.4-0.1-0.7c0.3-0.2,0.5-0.8,1-0.2
		C74.1,36.3,74.6,36.7,75.1,37.1z"/>
	<path class="st8" d="M80.5,45.4c0.1,0.9,0.3,1.8,0.4,2.7c0.1,0.5-0.1,0.7-0.6,0.7c-0.6,0-1.2,0-1.7,0c-0.4,0-0.7-0.1-0.9-0.5
		c-0.5-0.9-1-1.8-1.4-2.7C77.6,45.6,79,45.8,80.5,45.4z"/>
	<path class="st15" d="M35.9,67c-0.1,0.4-0.1,0.7-0.3,1c-0.8,0-1.7-0.1-2.5,0c-1.6,0.2-2.7-0.5-3.7-1.5c-0.7-0.7-1.2-1.4-1.7-2.3
		c-0.2-0.4-0.5-0.8,0.1-1.1c0.5-0.2,0.7,0.2,0.9,0.5c0.5,0.8,1.1,1.6,1.8,2.3c0.7,0.6,1.4,1,2.5,0.9C33.9,66.9,34.9,67,35.9,67z"/>
	<path class="st12" d="M75.1,43.9c0.3-0.3,0.7-0.6,1-0.9c1.3,0,2.6,0,3.9,0c0.3,0.6,0.3,1.3,0.4,1.9c-1.5,0-3.1,0-4.6,0
		C75.6,44.5,75.3,44.2,75.1,43.9z"/>
	<path class="st12" d="M76.9,38.9c-0.5-0.5-1-1-1.6-1.6c1.8,0,3.5,0,5.3,0c0,0.2,0,0.4,0.1,0.6c-0.2,0.5-0.7,0.8-1.1,1.2
		C78.7,38.9,77.8,38.8,76.9,38.9z"/>
	<path class="st11" d="M32.2,56c-1.5,0.3-3,0.2-4.5,0.2c-0.7-0.9-0.4-1.8-0.2-2.8c0.5,0.1,0.7,0.5,1.1,0.7c0.1,0.2,0.4,0.3,0.6,0.4
		C30.1,55.2,31.2,55.6,32.2,56z"/>
	<path class="st15" d="M54.6,68c0-0.4,0-0.7,0-1.1c1.5,0,2.9,0,4.4,0c0.4,0,0.8,0,0.8,0.5c0,0.6-0.4,0.6-0.8,0.6
		C57.5,68,56,68,54.6,68z"/>
	<path class="st15" d="M80,41.6c1.2,0.8,2.3,1.7,3.5,2.5c0.5,0.3,0.5,0.5,0.1,1c-0.4,0.5-0.6,0.1-0.9-0.1c-0.9-0.7-1.5-1.6-2.5-2.2
		c-0.1-0.1-0.1-0.1-0.2-0.2l0,0c-0.1-0.1-0.1-0.2-0.2-0.3c-0.2-0.3-0.5-0.6-0.7-0.8c0.1-0.1,0.1-0.1,0.2-0.2
		C79.6,41.4,79.8,41.5,80,41.6z"/>
	<path class="st13" d="M79.2,41.4c0.2,0.3,0.5,0.6,0.7,0.8c0.1,0.1,0.1,0.2,0.2,0.3c0,0,0,0,0,0c0,0.1,0,0.1,0,0.2
		c0,0.1,0,0.1,0,0.2c-1.3,0-2.6,0-3.9,0c0.3-0.3,0.6-0.6,0.8-0.9C77.5,41.2,78.3,41.2,79.2,41.4z"/>
	<path class="st15" d="M79.6,39.1c0.4-0.4,0.8-0.7,1.1-1.2c0.8-0.5,1.4-1.3,2.1-1.9c0.4-0.4,0.6-0.3,1,0c0.5,0.4,0.1,0.6-0.2,0.8
		c-0.9,0.7-1.8,1.4-2.7,2c-0.5,0.3-0.9,0.6-1.4,0.9c-0.1-0.1-0.1-0.1-0.2-0.2C79.4,39.4,79.5,39.2,79.6,39.1z"/>
	<path class="st13" d="M39.3,63.9c-0.5,0-0.4-0.3-0.3-0.6c0.1-0.3,0.2-0.5-0.2-0.6c-0.4-0.1-0.6,0.1-0.7,0.4
		c-0.2,0.3-0.4,0.6-0.9,0.5c0.1-0.3,0.2-0.6,0.3-0.9c0.6-1.4,1.1-1.5,2.5-0.6c0,0.3,0,0.6,0,0.9C39.8,63.3,39.4,63.5,39.3,63.9z"/>
	<path class="st13" d="M54.5,61.2c-0.2,0-0.4,0-0.6,0c0-0.1,0-0.3,0-0.4c-0.1-0.1-0.1-0.1-0.2-0.2c-0.6,0.1-0.8,0.4-0.8,0.9
		c0,0.4,0,0.7-0.6,0.6c0-0.4,0-0.8,0-1.1c0-0.7,1.3-1.9,2.1-1.8c0.3,0,0.2,0.4,0.3,0.5C54.5,60.3,54.5,60.8,54.5,61.2z"/>
	<path class="st6" d="M75.8,44.9c1.5,0,3.1,0,4.6,0c0,0.2,0,0.4,0.1,0.6c-1.4,0.4-2.8,0.1-4.3,0.2C76,45.4,75.9,45.1,75.8,44.9z"/>
	<path class="st6" d="M62,45.6c-0.3-0.6,0-0.9,0.7-0.8c0.7,0.1,1.5-0.4,2,0.4c-0.6,0.5-1.2,1-1.8,1.6c0,0,0-0.1-0.1-0.1
		c-0.1-0.1-0.1-0.1-0.2-0.2c0,0,0,0,0,0c-0.1-0.1-0.1-0.1-0.2-0.2c0,0,0,0,0,0c0-0.2,0-0.3-0.2-0.4c0,0,0,0,0,0
		C62.2,45.9,62.2,45.7,62,45.6L62,45.6z"/>
	<path class="st13" d="M80,41.6c-0.2-0.1-0.4-0.2-0.7-0.3c-0.3-0.3-0.1-0.7-0.1-1c1,0,1.7-0.6,2.6-0.9c0.2,0.8-0.2,1.2-0.8,1.5
		C80.7,41.1,80.4,41.3,80,41.6z"/>
	<path class="st8" d="M81.9,39.3c-0.9,0.3-1.6,0.9-2.6,0.9c-0.1-0.2,0.2-0.3,0.3-0.5c0.5-0.3,0.9-0.6,1.4-0.9
		C81.2,39,81.7,38.7,81.9,39.3z"/>
	<path class="st15" d="M47.6,29.5c0-0.5,0.3-0.6,0.8-0.7c0.6,0,0.8,0.1,0.8,0.7c0,0.1,0,0.2,0,0.3c-0.5,0-1,0-1.6,0
		C47.6,29.7,47.6,29.6,47.6,29.5z"/>
	<path class="st11" d="M47.6,29.5c0,0.1,0,0.2,0,0.3c-0.3,0.1-0.4,0.3-0.3,0.5c-0.2,0.2-0.4,0.2-0.6,0.1c-0.2-0.1-0.6,0-0.7-0.3
		c-0.1-0.3,0.3-0.3,0.5-0.4c0.1,0,0.1-0.1,0.2-0.2C47,29.5,47.3,29.5,47.6,29.5z"/>
	<path class="st6" d="M74.6,38.1c0.3,0.1,0.6,0.3,0.8,0.6c-0.4,0.3-0.7,0.3-1.1,0C74.4,38.5,74.5,38.3,74.6,38.1z"/>
	<path class="st11" d="M49.2,29.8c0-0.1,0-0.2,0-0.3c0.2,0,0.5,0.1,0.7,0.1c0,0.2,0,0.4,0,0.6c-0.1,0-0.2,0-0.3,0
		C49.5,30,49.4,29.9,49.2,29.8z"/>
	<path class="st6" d="M60.6,54.4c0.1-0.1,0.1-0.1,0.2-0.2C60.8,54.4,60.7,54.5,60.6,54.4z"/>
	<path class="st6" d="M60.8,54.2c0.1-0.1,0.1-0.2,0.2-0.2C61,54,60.9,54.1,60.8,54.2z"/>
	<path class="st12" d="M80.1,42.8c0-0.1,0-0.1,0-0.2c0.1,0.1,0.1,0.1,0.2,0.2C80.2,42.7,80.1,42.7,80.1,42.8z"/>
	<path class="st6" d="M54.3,72c0.1-0.1,0.1-0.1,0.2-0.2c0,0,0.1,0.1,0,0.2C54.5,72,54.4,72,54.3,72z"/>
	<path class="st16" d="M40.7,43.9L40.7,43.9C40.7,43.9,40.7,43.9,40.7,43.9c2-0.1,3.9-0.3,5.8-0.1c1.5,0.2,1.5,0.2,1.5,1.6
		c0,0.2,0,0.4,0,0.6c-0.3,0.3-0.1,0.6-0.2,1c-0.9-0.1-0.8,0.6-0.9,1.1c-0.1,0.4-0.2,0.6-0.7,0.7c-4,0.8-8,1.7-12.1,2.5
		c-1,0.2-2,0.5-3.1,0.6c0.1-0.9,0.7-1.5,1.1-2.3c0.6-0.7,1.2-1.4,1.9-2c0.2-0.2,0.1-0.4,0-0.6c0.9-0.8,2-1.3,3.1-1.8
		C38.1,44.5,39.4,44.4,40.7,43.9z M37.8,45.6c-0.7,0-1.3,0.2-1.8,0.7c-0.1,0.2-0.1,0.4,0.1,0.5c0.6,0.4,1.3,0.4,1.9,0.1
		c0.4-0.2,0.9-0.3,0.9-0.8C38.8,45.6,38.2,45.7,37.8,45.6z"/>
	<path class="st17" d="M37.4,42c1.2-1.2,2.8-1.7,4.3-2.5c1.5-0.8,3.2-0.4,4.7-0.2c3.2,0.5,6.4,1,9.3,2.5c-0.3,0.4-0.7,0.4-1.2,0.4
		c-5.3,0-10.6,0-15.9,0C38.2,42.2,37.8,42.2,37.4,42z"/>
	<path class="st18" d="M54.6,52.5c-1.2,0.8-2.3,1.7-3.6,2.2c-0.4,0.2-0.8,0.3-1.3,0.3c-0.7,0-1.1-0.2-0.9-1c0.1-0.5,0.1-1,0.1-1.5
		c0.2-0.6,0.2-1.1,0.2-1.7c0-0.2,0.1-0.4,0.1-0.6c0.3,0.2,0.3,0.5,0.3,0.7c0,0.3-0.2,0.8,0.2,0.9c0.3,0.1,0.6-0.3,0.9-0.5
		c1.4-0.9,2.5-2.1,4-2.9c0.5,0.8,0.3,1.7,0.4,2.5c0,0.1,0,0.3,0,0.4C55,51.8,54.8,52.2,54.6,52.5z"/>
	<path class="st19" d="M37.4,42c0.4,0.2,0.8,0.2,1.2,0.2c5.3,0,10.6,0,15.9,0c0.5,0,0.9,0,1.2-0.4c0.6,0,0.9,0.6,1.4,0.6
		c0.1,0.6-0.3,0.6-0.8,0.6c-1.5,0-3,0-4.5,0c-0.3,0-0.8-0.1-1,0.2c-1.6-0.1-3.2-0.4-4.9-0.4c-3.3-0.1-6.5,0.3-9.7,1.3
		c-0.4-0.3-0.8-0.3-1.2-0.4C35.6,42.9,36.4,42.3,37.4,42z"/>
	<path class="st20" d="M50.8,43.2c0.3-0.4,0.7-0.2,1-0.2c1.5,0,3,0,4.5,0c0.4,0,0.8,0,0.8-0.6c1.1,0.6,2.1,1.4,3.1,2.2
		c0.2,0.2,0.5,0.4,0.4,0.6c-0.1,0.3-0.4,0.2-0.7,0.2c-1.6,0-3.3,0-4.9,0c-0.2,0-0.5,0-0.7-0.1C53.2,44.4,52,43.8,50.8,43.2z"/>
	<path class="st14" d="M55.2,51c-0.1-0.8,0-1.7-0.4-2.5c-0.3-1.3-1.1-2.2-2.1-3.1c-0.6-0.7-1.3-1.2-2.3-0.9c-0.9,0.3-0.7,1-0.8,1.7
		c-0.1,1.3-0.5,2.6-0.4,4c0,0.2-0.1,0.4-0.1,0.6c-0.1,0-0.1,0-0.2,0c0-1.8,0.1-3.6,0.4-5.4c0.2-1.3,1.4-1.8,2.6-1.1
		c1.9,1.2,3,2.9,3.3,4.9C55.3,49.8,55.9,50.5,55.2,51z"/>
	<path class="st14" d="M47.9,45.4c0-1.4,0-1.4-1.5-1.6c-1.9-0.3-3.8,0-5.7,0.1c0-0.2,0.2-0.4,0.5-0.4c2-0.2,4-0.3,6,0
		c0.5,0.1,1,0.3,1,0.8C48.3,44.7,48.6,45.2,47.9,45.4z"/>
	<path class="st14" d="M40.7,43.9c-1.2,0.5-2.5,0.6-3.7,1.1c-1.1,0.5-2.2,1-3.1,1.8c-0.1,0-0.1,0-0.2,0.1c-0.1-0.4,0.2-0.6,0.5-0.8
		c1.7-1,3.5-1.8,5.4-2.2C40,43.7,40.3,43.9,40.7,43.9z"/>
	<path class="st6" d="M47.7,47c0.1-0.3,0-0.7,0.2-1c0.6,1,0,1.9-0.1,2.9c0,1.3-0.4,2.6-0.3,3.9c-0.1,0.1-0.3,0.1-0.4,0.2
		c0-0.7,0.1-1.4,0.1-2.1C47.4,49.5,47.5,48.3,47.7,47z"/>
	<path class="st21" d="M33.6,46.9c0.1,0,0.1,0,0.2-0.1c0.1,0.2,0.2,0.4,0,0.6c-0.6,0.7-1.2,1.4-1.9,2c-0.1-0.2-0.1-0.4-0.2-0.6
		c0.1-0.2,0.2-0.4,0.2-0.5c0,0,0,0,0,0c0.2-0.1,0.4-0.2,0.2-0.4c0,0,0,0,0,0c0.7-0.1,0.9-0.7,1.3-1C33.6,47,33.6,47,33.6,46.9z"/>
	<path class="st14" d="M29.3,54.5c-0.3,0-0.5-0.1-0.6-0.4c0.6-0.3,0.5-0.8,0.6-1.2c0.3-0.9,0.7-1.8,1.1-2.7c0.1-0.2,0.2-0.6,0.6-0.6
		c0,0,0.1,0,0.1,0.1C30.2,51.3,29.4,52.8,29.3,54.5z"/>
	<path class="st20" d="M35,43.7c0.4,0.1,0.9,0.1,1.2,0.4c-0.3,0.4-0.9,0.5-1.3,0.7c-0.3,0.1-0.6,0.4-0.9,0c-0.2-0.4,0.1-0.6,0.3-0.8
		C34.6,43.8,34.8,43.7,35,43.7z"/>
	<path class="st6" d="M48.9,50.8c0.1,0,0.1,0,0.2,0c0.1,0.6,0,1.2-0.2,1.7c-0.1,0-0.1,0-0.2,0C48.8,52,48.5,51.4,48.9,50.8z"/>
	<path class="st14" d="M33.5,47c-0.5,0.3-0.6,0.9-1.3,1C32.3,47.3,32.7,46.9,33.5,47z"/>
	<path class="st14" d="M54.6,52.5c0.2-0.4,0.3-0.7,0.5-1.1c0.4,0.4,0,0.7,0,1.1C54.9,52.5,54.8,52.5,54.6,52.5z"/>
	<path class="st14" d="M32,48.3c-0.1,0.2-0.2,0.4-0.2,0.5c-0.1,0.1-0.2,0.2-0.3,0.3l-0.1-0.1C31.3,48.7,31.4,48.3,32,48.3z"/>
	<path class="st14" d="M30.9,49.7c0-0.3,0-0.6,0.4-0.6c0,0,0.1,0.1,0.1,0.1C31.3,49.3,31.1,49.5,30.9,49.7
		C31,49.7,30.9,49.7,30.9,49.7z"/>
	<path class="st12" d="M62.2,46c0.2,0.1,0.2,0.2,0.2,0.4C62.3,46.3,62.2,46.2,62.2,46z"/>
	<path class="st12" d="M62,45.6c0.2,0.1,0.2,0.2,0.2,0.4C62.1,45.9,62,45.8,62,45.6z"/>
	<path class="st14" d="M32.2,48c0.2,0.2,0,0.3-0.2,0.4C31.9,48.2,32,48,32.2,48z"/>
	<path class="st12" d="M62.7,46.6c0.1,0.1,0.1,0.1,0.2,0.2C62.8,46.7,62.7,46.7,62.7,46.6z"/>
	<path class="st12" d="M62.4,46.4c0.1,0.1,0.1,0.1,0.2,0.2C62.6,46.5,62.5,46.5,62.4,46.4z"/>
	<path class="st8" d="M48.2,62.1c-2.7,0.8-5.5,0.9-8.2,0.8c0-0.3,0-0.6,0-0.9c0.2-0.2,0.4-0.2,0.6-0.2c2.3,0,4.5,0,6.8,0
		C47.7,61.8,48,61.8,48.2,62.1z"/>
	<path class="st6" d="M49.2,29.8c0.2,0.1,0.3,0.1,0.4,0.3c-0.2,0.1-0.4,0.1-0.4,0.3c-0.6,0-1.2,0-1.8-0.1c-0.1-0.3,0-0.5,0.3-0.5
		C48.2,29.8,48.7,29.8,49.2,29.8z"/>
	<path class="st10" d="M49.1,30.4c0.1-0.2,0.3-0.2,0.4-0.3c0.1,0,0.2,0,0.3,0c0.1,0.1,0.3,0.2,0.1,0.3
		C49.7,30.7,49.4,30.7,49.1,30.4z"/>
	<path class="st20" d="M44.4,36.6c0-0.3-0.1-0.7,0.2-1c1.6-0.1,3.2,0.3,4.9,0.4c2.1,0.2,4.1,0.3,6.1,0.7c0.6,0.1,1.3,0.2,1.9-0.1
		c0.8,0.3,1.4,0.9,1.7,1.6c-0.7,0.3-1.4,0.2-2.2,0.1c-0.9-0.1-1.7-0.3-2.6-0.3c-0.4,0-0.9-0.3-1.1,0.4c-1.7-0.5-3.3-1-5.1-1.3
		C47.1,36.9,45.7,36.9,44.4,36.6z"/>
	<path class="st19" d="M57.5,36.6c-0.6,0.3-1.3,0.3-1.9,0.1c-2-0.4-4.1-0.5-6.1-0.7c-1.6-0.1-3.2-0.6-4.9-0.4c0-0.3,0.1-0.6,0.4-0.8
		c3.2,0.3,6.5,0.6,9.7,0.9c0.4,0,0.7,0.1,0.8-0.3C56.3,35.6,57,36,57.5,36.6z"/>
	<path class="st17" d="M55.5,35.4c-0.1,0.5-0.4,0.4-0.8,0.3c-3.2-0.3-6.4-0.6-9.7-0.9c0-0.5,0.4-0.6,0.9-0.6c2.1,0,4.2,0,6.3,0
		C53.4,34.3,54.5,34.9,55.5,35.4z"/>
	<path class="st19" d="M44.4,36.6c1.3,0.3,2.6,0.3,3.9,0.5c1.7,0.3,3.4,0.8,5.1,1.3c0.9,0.4,1.8,0.8,2.7,1.1c0,0.3-0.2,0.4-0.4,0.4
		c-0.2,0-0.4,0-0.6,0c-0.1-0.1-0.2-0.1-0.2-0.2c-0.1-0.1-0.3-0.1-0.4-0.2c-0.1-0.3-0.4-0.2-0.6-0.2c-0.4-0.3-0.8-0.4-1.2-0.4
		c-2.2-0.8-4.4-1.3-6.8-1.2c-0.2,0-0.4,0-0.6,0c-0.2-0.7-0.9-0.2-1.3-0.6C44,36.9,44.2,36.7,44.4,36.6z"/>
	<path class="st20" d="M76.2,39.2c0.1,0.1,0.2,0.2,0.4,0.2c-0.3,0.3-0.6,0.2-1,0.2c-4.5,0-9.1,0-13.6,0c-0.2,0-0.4,0-0.6,0
		c-0.2,0-0.3-0.1-0.3-0.3c0-0.2,0.2-0.3,0.4-0.3c0.2,0,0.4,0,0.6,0c3,0,5.9-0.1,8.9,0C72.7,39.2,74.5,39.3,76.2,39.2z"/>
	<path class="st20" d="M55.7,39.9c0.3,0,0.4-0.1,0.4-0.4c0.8,0.2,1.4,0.7,2.1,1.1c0.3,0.1,0.4,0.4,0.2,0.6
		C57.3,41,56.5,40.5,55.7,39.9z"/>
	<path class="st20" d="M44,37.2c0.3,0.3,1.1-0.1,1.3,0.6c-0.5,0.1-0.9,0.1-1.4,0.2C43.8,37.6,43.7,37.4,44,37.2z"/>
	<path class="st18" d="M31,49.7c0.1-0.2,0.3-0.4,0.4-0.6c0.1-0.1,0.2-0.2,0.3-0.3c0.1,0.2,0.1,0.4,0.2,0.6c-0.4,0.8-0.9,1.5-1.1,2.3
		c-0.6,0.6-0.6,1.3-0.7,2c-0.1,0.5,0.5,0.8,1.2,0.7c0.3,0,0.5-0.2,0.8-0.3c4.3-0.9,8.5-1.8,12.8-2.6c0.9-0.2,1.5-0.9,2.4-0.9
		c0,0.7-0.1,1.4-0.1,2.1c-0.1,1.6-1.4,2.1-2.7,2.6c-2.4,0.6-4.7,1-7.2,1c-1.6,0-3.1-0.3-4.6-0.5c-0.1,0-0.1,0-0.2,0l-0.1,0
		c0,0-0.1,0-0.1,0c-1-0.4-2.1-0.8-2.9-1.5C29.4,52.8,30.2,51.3,31,49.7z"/>
	<path class="st11" d="M32.3,56c0.1,0,0.1,0,0.2,0C32.5,56.2,32.4,56.1,32.3,56z"/>
	<path class="st6" d="M52.2,72c0-0.1,0-0.1,0.1-0.2c0.1,0.1,0.2,0.1,0.3,0.2C52.5,72,52.3,72,52.2,72z"/>
	<path class="st8" d="M45.9,37.8c2.4-0.1,4.6,0.4,6.8,1.2c-0.4,0.3-0.7,0-1-0.1c-1.6-0.4-3.3-0.7-5-0.7
		C46.3,38.1,45.9,38.2,45.9,37.8z"/>
	<path class="st8" d="M53.8,39.3c0.2,0,0.5,0,0.6,0.2C54.1,39.8,54,39.5,53.8,39.3z"/>
	<path class="st8" d="M54.9,39.7c0.1,0.1,0.2,0.1,0.2,0.2C55,39.8,55,39.7,54.9,39.7z"/>
	<path class="st15" d="M52.2,68c-4.9,0-9.7,0-14.6,0c0-0.4,0.2-0.8,0.5-1c4.7,0,9.4,0,14.1,0C52.2,67.3,52.2,67.6,52.2,68z"/>
	<path class="st6" d="M52.3,63.6c0-0.5,0-0.9,0-1.4c0.5,0.1,0.6-0.3,0.6-0.6c0-0.5,0.3-0.8,0.8-0.9c0.1,0.1,0.1,0.1,0.2,0.2
		c0,0.1,0,0.3,0,0.4c0,0,0,0.1,0,0.1C54.2,63.1,54.1,63.3,52.3,63.6z"/>
	<path class="st14" d="M38.3,64.7c-0.3,0.4-0.2,0.9-0.8,1.1c-0.2,0-0.4-0.2-0.3-0.4c0.2-0.4,0.1-1,0.8-1.1
		C38.2,64.3,38.3,64.5,38.3,64.7z"/>
	<path class="st6" d="M79.6,39.1c-0.1,0.2-0.2,0.3-0.3,0.5c-0.9,0.2-1.8,0.5-2.4-0.6C77.8,38.8,78.7,38.9,79.6,39.1z"/>
	<path class="st12" d="M80.1,42.5c-0.1-0.1-0.1-0.2-0.2-0.3C79.9,42.4,80,42.5,80.1,42.5z"/>
	<path class="st12" d="M53.8,60.9c-0.1-0.1-0.1-0.1-0.2-0.2C53.7,60.7,53.8,60.8,53.8,60.9z"/>
	<path class="st21" d="M47.2,50.8c-0.9,0-1.4,0.7-2.4,0.9c-4.3,0.8-8.5,1.7-12.8,2.6c-0.3,0.1-0.5,0.2-0.8,0.3
		c-0.6,0.1-1.2-0.2-1.2-0.7c0.1-0.7,0.1-1.5,0.7-2c1.1,0,2.1-0.4,3.1-0.6c4-0.8,8-1.7,12.1-2.5c0.5-0.1,0.6-0.3,0.7-0.7
		c0.1-0.5,0-1.2,0.9-1.1C47.5,48.3,47.4,49.5,47.2,50.8z"/>
	<path class="st22" d="M37.8,45.6c0.4,0,1-0.1,1.1,0.5c0.1,0.5-0.5,0.6-0.9,0.8c-0.7,0.3-1.3,0.3-1.9-0.1c-0.2-0.1-0.3-0.4-0.1-0.5
		C36.4,45.8,37,45.6,37.8,45.6z"/>
	<path class="st21" d="M52.6,45.4c0.9,0.9,1.8,1.8,2.1,3.1c-1.5,0.8-2.7,1.9-4,2.9c-0.3,0.2-0.6,0.6-0.9,0.5
		c-0.4-0.1-0.2-0.6-0.2-0.9c0-0.3,0-0.6-0.3-0.7c-0.1-1.3,0.3-2.7,0.4-4c0.5,0.1,0.3,0.5,0.4,0.8c0,0.6,0.3,0.7,0.7,0.3
		C51.4,46.7,52.3,46.3,52.6,45.4z"/>
	<path class="st16" d="M52.6,45.4c-0.4,0.9-1.2,1.3-1.9,1.9C50.2,47.7,50,47.6,50,47c0-0.3,0.1-0.7-0.4-0.8c0-0.7-0.1-1.4,0.8-1.7
		C51.4,44.2,52.1,44.8,52.6,45.4z"/>
</g>
</svg>
