<svg width="263" height="263" viewBox="0 0 263 263" fill="none" xmlns="http://www.w3.org/2000/svg">
<rect x="50.1885" y="75.5212" width="139.378" height="139.378" rx="49.0531" transform="rotate(-10.4719 50.1885 75.5212)" fill="url(#paint0_linear_17_286)"/>
<g style="mix-blend-mode:color-dodge" opacity="0.5" filter="url(#filter0_f_17_286)">
<path fill-rule="evenodd" clip-rule="evenodd" d="M58.3511 112.125C61.4105 92.5855 76.4599 76.202 97.0122 72.4033L142.217 64.048C163.404 60.132 183.91 70.7968 193.405 88.9357C184.86 67.7564 162.338 54.7922 139.009 59.1041L98.4247 66.6055C75.7057 70.8047 59.5582 90.0325 58.3511 112.125Z" fill="url(#paint1_linear_17_286)"/>
</g>
<g clip-path="url(#clip0_17_286)">
<path d="M145.37 140.758L133.125 120.917C133.025 120.734 132.956 120.536 132.921 120.331C132.835 119.898 132.926 119.449 133.174 119.079C133.303 118.902 133.469 118.753 133.66 118.643C133.852 118.534 134.065 118.465 134.286 118.443C134.617 118.395 134.956 118.45 135.253 118.6C135.566 118.761 135.828 119.001 136.013 119.296L147.749 138.754L152.976 116.64C153.061 116.302 153.237 115.993 153.486 115.745C153.723 115.511 154.028 115.355 154.359 115.3C154.576 115.253 154.8 115.253 155.016 115.299C155.232 115.345 155.436 115.436 155.613 115.565C155.962 115.841 156.186 116.242 156.236 116.68C156.266 116.886 156.261 117.095 156.221 117.299L150.628 139.934C150.298 141.111 149.636 141.77 148.65 141.924L147.861 142.048C146.875 142.198 146.045 141.777 145.37 140.758Z" fill="url(#paint2_linear_17_286)"/>
<path d="M163.603 138.917C163.428 138.791 163.281 138.631 163.171 138.447C163.061 138.264 162.99 138.06 162.963 137.848L159.594 116.331C159.518 115.901 159.618 115.457 159.873 115.098C159.997 114.92 160.158 114.769 160.346 114.657C160.533 114.545 160.743 114.473 160.96 114.447L175.445 112.179C175.649 112.141 175.859 112.147 176.06 112.195C176.261 112.243 176.449 112.333 176.611 112.458C176.782 112.573 176.926 112.722 177.034 112.895C177.142 113.068 177.213 113.261 177.241 113.463C177.277 113.66 177.269 113.863 177.218 114.057C177.167 114.252 177.074 114.433 176.945 114.589C176.695 114.913 176.325 115.128 175.916 115.185L163.097 117.193L164.324 125.027L175.849 123.222C176.053 123.184 176.263 123.19 176.464 123.239C176.665 123.287 176.853 123.377 177.016 123.503C177.185 123.619 177.328 123.768 177.436 123.94C177.544 124.113 177.615 124.305 177.645 124.506C177.681 124.703 177.673 124.906 177.622 125.1C177.571 125.295 177.478 125.476 177.349 125.633C177.226 125.794 177.072 125.931 176.896 126.034C176.719 126.137 176.524 126.205 176.321 126.234L164.795 128.039L166.029 135.914L178.848 133.907C179.052 133.869 179.261 133.874 179.463 133.923C179.664 133.971 179.852 134.061 180.014 134.188C180.184 134.302 180.328 134.451 180.437 134.623C180.545 134.796 180.615 134.989 180.643 135.191C180.679 135.388 180.672 135.591 180.621 135.785C180.57 135.98 180.477 136.161 180.348 136.317C180.099 136.643 179.729 136.86 179.32 136.919L164.834 139.187C164.621 139.237 164.399 139.238 164.186 139.191C163.973 139.144 163.773 139.051 163.603 138.917Z" fill="url(#paint3_linear_17_286)"/>
<path d="M138.372 141.237L126.129 121.395C125.455 120.377 124.62 119.956 123.638 120.11L122.848 120.234C121.862 120.388 121.201 121.043 120.87 122.224L118.44 132.087L115.505 132.547C115.082 132.616 114.702 132.845 114.449 133.186C114.195 133.527 114.088 133.952 114.151 134.368L114.154 134.389C114.221 134.805 114.453 135.177 114.799 135.424C115.144 135.671 115.576 135.774 116 135.71L117.578 135.463L115.26 144.864C115.22 145.069 115.215 145.278 115.245 145.484C115.295 145.922 115.519 146.322 115.868 146.598C116.045 146.728 116.249 146.819 116.465 146.865C116.681 146.911 116.905 146.911 117.122 146.865C117.453 146.808 117.757 146.653 117.995 146.42C118.244 146.171 118.42 145.861 118.506 145.524L121.022 134.927L123.825 134.488C124.248 134.419 124.628 134.19 124.881 133.849C125.135 133.508 125.242 133.083 125.179 132.667L125.171 132.614C125.104 132.198 124.872 131.826 124.526 131.579C124.181 131.332 123.749 131.229 123.325 131.293L121.809 131.531L123.748 123.401L135.483 142.859C135.668 143.155 135.93 143.395 136.243 143.555C136.54 143.706 136.879 143.761 137.211 143.712C137.431 143.69 137.645 143.622 137.836 143.512C138.028 143.402 138.194 143.253 138.323 143.076C138.571 142.706 138.661 142.256 138.575 141.823C138.553 141.615 138.483 141.415 138.372 141.237Z" fill="url(#paint4_linear_17_286)"/>
<path d="M111.727 145.409L99.4835 125.567C98.8107 124.549 97.9771 124.129 96.9902 124.283L96.2015 124.407C95.2159 124.561 94.5555 125.216 94.2233 126.397L91.7946 136.26L88.8579 136.72C88.4348 136.789 88.0555 137.019 87.8021 137.36C87.5486 137.7 87.4415 138.125 87.5038 138.541L87.5071 138.562C87.577 138.976 87.8094 139.345 88.1544 139.591C88.4994 139.836 88.9295 139.938 89.352 139.875L90.9295 139.628L88.6118 149.029C88.5718 149.233 88.5665 149.443 88.5963 149.648C88.6466 150.087 88.8705 150.487 89.2196 150.763C89.3967 150.893 89.6003 150.984 89.8167 151.03C90.0331 151.076 90.2572 151.076 90.4741 151.03C90.8043 150.973 91.1092 150.818 91.347 150.585C91.5953 150.336 91.7718 150.026 91.8582 149.688L94.3738 139.092L97.1971 138.65C97.6203 138.581 97.9998 138.351 98.2533 138.01C98.5068 137.669 98.6139 137.244 98.5512 136.828L98.5443 136.784C98.4769 136.368 98.2453 135.996 97.8996 135.749C97.5539 135.502 97.1221 135.399 96.6981 135.463L95.1862 135.7L97.1019 127.573L108.837 147.03C109.022 147.325 109.285 147.566 109.598 147.727C109.896 147.876 110.233 147.931 110.565 147.884C110.786 147.861 110.999 147.792 111.191 147.682C111.383 147.573 111.549 147.424 111.678 147.246C111.926 146.877 112.016 146.427 111.931 145.994C111.906 145.787 111.837 145.587 111.727 145.409Z" fill="url(#paint5_linear_17_286)"/>
</g>
<defs>
<filter id="filter0_f_17_286" x="57.7937" y="57.721" width="136.169" height="54.9613" filterUnits="userSpaceOnUse" color-interpolation-filters="sRGB">
<feFlood flood-opacity="0" result="BackgroundImageFix"/>
<feBlend mode="normal" in="SourceGraphic" in2="BackgroundImageFix" result="shape"/>
<feGaussianBlur stdDeviation="0.278711" result="effect1_foregroundBlur_17_286"/>
</filter>
<linearGradient id="paint0_linear_17_286" x1="119.878" y1="75.5212" x2="76.7357" y2="199.52" gradientUnits="userSpaceOnUse">
<stop stop-color="#212428"/>
<stop offset="0.937272" stop-color="#15171B"/>
</linearGradient>
<linearGradient id="paint1_linear_17_286" x1="66.2418" y1="83.6103" x2="181.964" y2="63.5174" gradientUnits="userSpaceOnUse">
<stop stop-color="#F3CCEB"/>
<stop offset="0.392952"/>
<stop offset="0.555099"/>
<stop offset="1" stop-color="#F7CDED"/>
</linearGradient>
<linearGradient id="paint2_linear_17_286" x1="169.431" y1="112.734" x2="117.253" y2="143.654" gradientUnits="userSpaceOnUse">
<stop stop-color="#70DBE5"/>
<stop offset="1" stop-color="#BD97ED"/>
</linearGradient>
<linearGradient id="paint3_linear_17_286" x1="176.678" y1="111.768" x2="103.726" y2="146.553" gradientUnits="userSpaceOnUse">
<stop stop-color="#70DBE5"/>
<stop offset="1" stop-color="#BD97ED"/>
</linearGradient>
<linearGradient id="paint4_linear_17_286" x1="162.184" y1="115.15" x2="108.557" y2="149.452" gradientUnits="userSpaceOnUse">
<stop stop-color="#70DBE5"/>
<stop offset="1" stop-color="#BD97ED"/>
</linearGradient>
<linearGradient id="paint5_linear_17_286" x1="161.701" y1="114.667" x2="100.52" y2="149.459" gradientUnits="userSpaceOnUse">
<stop stop-color="#70DBE5"/>
<stop offset="1" stop-color="#BD97ED"/>
</linearGradient>
<clipPath id="clip0_17_286">
<rect x="83.1621" y="126.109" width="96.6249" height="26.0887" transform="rotate(-8.89987 83.1621 126.109)" fill="white"/>
</clipPath>
</defs>
</svg>
