<svg width="76" height="75" viewBox="0 0 76 75" fill="none" xmlns="http://www.w3.org/2000/svg">
<g filter="url(#filter0_f_17_297)">
<rect x="11.9849" y="32.4745" width="37.4647" height="37.4647" rx="9.5905" transform="rotate(-34.2748 11.9849 32.4745)" fill="url(#paint0_linear_17_297)"/>
<g style="mix-blend-mode:color-dodge" opacity="0.5" filter="url(#filter1_f_17_297)">
<path fill-rule="evenodd" clip-rule="evenodd" d="M16.4608 38.6976C15.4997 34.9783 16.9023 30.8946 20.2594 28.6067L36.2766 17.6908C39.7349 15.3339 44.2087 15.6045 47.3359 18.0553C44.1527 14.7352 38.9461 14.1005 35.019 16.7768L19.9103 27.0736C16.079 29.6846 14.7355 34.5817 16.4608 38.6976Z" fill="url(#paint1_linear_17_297)"/>
</g>
<g clip-path="url(#clip0_17_297)">
<path d="M38.9123 51.0708C38.7957 51.0424 38.6757 51.0243 38.5641 50.9817C38.4935 50.9548 38.4186 50.9031 38.374 50.8419C37.5143 49.6704 36.6583 48.4963 35.8032 47.3214C35.6775 47.149 35.6916 46.8307 35.8294 46.6672C36.2649 46.1511 36.7028 45.6374 37.1388 45.1215C37.5984 44.5775 38.0558 44.0315 38.5158 43.4875C38.941 42.9847 39.3666 42.4819 39.7955 41.9824C40.0365 41.7019 40.0891 41.3908 39.9135 41.0444C39.8723 40.9631 39.8069 40.8832 39.7339 40.8298C39.6006 40.7321 39.4542 40.6525 39.311 40.5691C39.1899 40.4987 39.0664 40.4333 38.9435 40.3662C38.7038 40.2359 38.4626 40.1086 38.2246 39.9747C38.065 39.8852 37.912 39.7836 37.7527 39.6932C37.3813 39.4825 37.0039 39.2834 36.6366 39.0653C36.2276 38.8223 36.105 38.3419 36.3669 37.9893C36.6089 37.6635 36.8802 37.3602 37.1402 37.0485C37.5194 36.5936 37.9001 36.14 38.2802 35.6857C38.7266 35.152 39.1733 34.6184 39.6191 34.084C40.1447 33.4543 40.6694 32.8239 41.1948 32.1944C41.3512 32.0067 41.5096 31.8206 41.666 31.6329C41.8854 31.3691 42.2903 31.4586 42.4556 31.6882C43.2419 32.7793 44.0322 33.8678 44.8343 34.9473C45.0404 35.2248 45.0112 35.8475 44.836 36.0587C44.4418 36.5338 44.0491 37.0101 43.6551 37.4854C43.2057 38.0275 42.7556 38.5691 42.3051 39.1106C41.929 39.5629 41.5557 40.0173 41.1748 40.4656C40.8404 40.8593 40.9182 41.3668 41.3331 41.6649C41.4577 41.7546 41.5979 41.8213 41.7324 41.8957C42.0456 42.0688 42.3593 42.2408 42.6735 42.4122C43.097 42.6433 43.5227 42.8699 43.9438 43.105C44.1935 43.2444 44.4478 43.3801 44.6801 43.547C44.9379 43.732 44.9496 44.0626 44.7489 44.2964C44.1933 44.9439 43.6431 45.5963 43.0909 46.2467C42.7854 46.6067 42.4801 46.9666 42.1745 47.3266C41.6171 47.9834 41.0596 48.6399 40.5018 49.2967C40.1049 49.7638 39.7072 50.2302 39.312 50.699C39.289 50.7264 39.2855 50.7713 39.273 50.808L38.9124 51.0711L38.9123 51.0708Z" fill="#BA9BBF"/>
<path d="M37.6124 25.7103C37.7268 25.7283 37.8478 25.7278 37.9539 25.7702C38.0596 25.8123 38.177 25.8773 38.2431 25.9666C39.0928 27.1186 39.9354 28.2763 40.7771 29.4342C40.9265 29.6398 40.9112 29.9393 40.7418 30.1445C40.3172 30.6588 39.8883 31.1695 39.4616 31.6821C39.0058 32.2298 38.5514 32.7786 38.0952 33.3257C37.8009 33.6788 37.503 34.029 37.2084 34.3817C36.7648 34.9124 36.3222 35.4441 35.879 35.9754C35.5608 36.3572 35.2397 36.7366 34.9255 37.1219C34.7288 37.3633 34.6675 37.6464 34.6811 37.9699C34.6943 38.2831 34.8352 38.5218 35.0111 38.7629C35.6922 39.6956 36.367 40.6325 37.0463 41.5664C37.2879 41.8984 37.2801 42.4062 37.027 42.699C36.4504 43.3666 35.8825 44.0423 35.3106 44.7141C35.1523 44.8999 34.9762 45.064 34.7191 45.0938C34.3963 45.1311 34.1076 45.0233 33.9094 44.7567C33.1794 43.7743 32.4638 42.781 31.7416 41.7929C31.5444 41.523 31.5505 40.9574 31.7978 40.6729C32.2651 40.1355 32.7235 39.5898 33.184 39.0464C33.3768 38.8191 33.5694 38.5909 33.7564 38.3585C33.961 38.1039 33.9343 37.6849 33.6645 37.4468C33.5602 37.3548 33.4293 37.2923 33.3062 37.225C33.146 37.1375 32.9795 37.0626 32.8196 36.9747C32.6296 36.8704 32.4439 36.7572 32.2556 36.6495C32.1452 36.5861 32.034 36.5236 31.9218 36.4638C31.4975 36.2374 31.0715 36.0146 30.6488 35.7849C30.4885 35.6978 30.3292 35.6056 30.1803 35.4992C29.9042 35.302 29.8569 35.0098 30.0622 34.7583C30.5103 34.2094 30.9647 33.6661 31.4177 33.1214C31.9238 32.5129 32.4308 31.9054 32.9376 31.2975C33.4658 30.6642 33.9943 30.0314 34.5221 29.3981C35.0233 28.7965 35.5243 28.1946 36.0244 27.5919C36.466 27.0593 36.9065 26.5261 37.3455 25.991C37.3712 25.9598 37.3767 25.9114 37.3916 25.8707C37.4651 25.817 37.5385 25.7635 37.6121 25.7098L37.6124 25.7103Z" fill="#BA9BBF"/>
</g>
</g>
<defs>
<filter id="filter0_f_17_297" x="0.811035" y="0.201904" width="74.4053" height="74.4054" filterUnits="userSpaceOnUse" color-interpolation-filters="sRGB">
<feFlood flood-opacity="0" result="BackgroundImageFix"/>
<feBlend mode="normal" in="SourceGraphic" in2="BackgroundImageFix" result="shape"/>
<feGaussianBlur stdDeviation="1.5" result="effect1_foregroundBlur_17_297"/>
</filter>
<filter id="filter1_f_17_297" x="15.6107" y="15.0015" width="31.8342" height="23.8051" filterUnits="userSpaceOnUse" color-interpolation-filters="sRGB">
<feFlood flood-opacity="0" result="BackgroundImageFix"/>
<feBlend mode="normal" in="SourceGraphic" in2="BackgroundImageFix" result="shape"/>
<feGaussianBlur stdDeviation="0.0544915" result="effect1_foregroundBlur_17_297"/>
</filter>
<linearGradient id="paint0_linear_17_297" x1="30.7172" y1="32.4745" x2="19.1207" y2="65.8052" gradientUnits="userSpaceOnUse">
<stop stop-color="#212428"/>
<stop offset="0.937272" stop-color="#15171B"/>
</linearGradient>
<linearGradient id="paint1_linear_17_297" x1="16.2112" y1="31.2585" x2="42.799" y2="14.4237" gradientUnits="userSpaceOnUse">
<stop stop-color="#F3CCEB"/>
<stop offset="0.392952"/>
<stop offset="0.555099"/>
<stop offset="1" stop-color="#F7CDED"/>
</linearGradient>
<clipPath id="clip0_17_297">
<rect width="14.6128" height="21.255" fill="white" transform="translate(26.1221 32.7774) rotate(-36.1058)"/>
</clipPath>
</defs>
</svg>
