<svg width="167" height="167" viewBox="0 0 167 167" fill="none" xmlns="http://www.w3.org/2000/svg">
<rect x="26.3247" y="59.1567" width="87.9007" height="87.9007" rx="25.9023" transform="rotate(-21.9325 26.3247 59.1567)" fill="url(#paint0_linear_17_311)"/>
<g style="mix-blend-mode:color-dodge" opacity="0.5" filter="url(#filter0_f_17_311)">
<path fill-rule="evenodd" clip-rule="evenodd" d="M34.4681 77.7497C34.0285 67.3392 40.094 57.3136 50.3111 53.1997L86.3309 38.6961C96.8594 34.4567 108.559 37.7982 115.384 46.1449C108.826 35.7865 95.6142 31.2566 83.8353 35.9995L50.3517 49.4818C38.8696 54.1052 32.5115 66.0251 34.4681 77.7497Z" fill="url(#paint1_linear_17_311)"/>
</g>
<g clip-path="url(#clip0_17_311)">
<path d="M77.0789 108.786C76.9447 108.662 76.9633 108.514 76.969 108.377C76.9911 107.861 77.007 107.343 77.0505 106.828C77.2732 104.192 77.5346 101.559 77.6652 98.9153C77.6727 98.7594 77.6991 98.6321 77.841 98.522C80.4196 96.5236 82.9956 94.5229 85.5667 92.5147C90.5084 88.6547 95.5981 85.0018 100.674 81.33C103.438 79.3305 106.113 77.2043 108.888 75.2192C109.141 75.0385 109.406 74.8745 109.688 74.6881C109.797 74.9937 109.776 75.2653 109.767 75.5288C109.676 78.355 109.285 81.1499 108.892 83.9446C108.86 84.1713 108.72 84.2937 108.574 84.4247C106.957 85.8765 105.234 87.1908 103.49 88.4756C97.3477 93.0025 91.4295 97.8286 85.3985 102.504C82.7554 104.552 80.0269 106.484 77.4241 108.587C77.3262 108.666 77.2307 108.757 77.0783 108.784L77.0789 108.786Z" fill="#CDFF00"/>
<path d="M106.273 74.5991C106.219 74.733 106.096 74.7811 105.998 74.8543C99.4871 79.7042 92.9753 84.5533 86.4621 89.4015C86.3041 89.5194 86.1521 89.6407 85.9575 89.7034C79.7254 91.7062 73.5038 93.7462 67.2417 95.6505C67.1098 95.6907 66.9758 95.723 66.8322 95.7621C66.7384 95.5408 66.7761 95.3296 66.7875 95.1237C66.9253 92.598 67.2042 90.0847 67.4188 87.5655C67.4392 87.3229 67.5627 87.2606 67.7532 87.1982C76.0016 84.4978 84.2488 81.7952 92.4956 79.0889C96.9654 77.6223 101.434 76.1491 105.904 74.6818C106.021 74.643 106.133 74.5692 106.274 74.5991L106.273 74.5991Z" fill="#CDFF00"/>
<path d="M95.0641 64.1091C94.6997 64.3956 94.3414 64.6906 93.9701 64.9673C88.1295 69.3322 82.2871 73.6941 76.4459 78.0575C76.3232 78.1489 76.1951 78.2228 76.0499 78.2703C70.1219 80.195 64.1936 82.1218 58.2656 84.0457C57.9467 84.1494 57.6195 84.2282 57.2967 84.3209C57.0562 84.3901 56.9409 84.288 56.9347 84.0471C56.9285 83.8127 56.9163 83.5763 56.9365 83.3429C57.141 81.0006 57.3579 78.6594 57.5528 76.3155C57.5775 76.0187 57.7616 75.9869 57.9548 75.9247C62.6504 74.4046 67.3445 72.8793 72.0427 71.3687C79.2997 69.0356 86.56 66.7121 93.8192 64.3856C94.2141 64.2592 94.6133 64.1467 95.0111 64.0276C95.0288 64.0548 95.0471 64.082 95.0649 64.1085L95.0641 64.1091Z" fill="#CDFF00"/>
<path d="M72.2308 83.7629C72.2769 83.5141 72.5044 83.4346 72.6655 83.3057C74.5944 81.7616 76.5801 80.2958 78.5529 78.8118C83.8746 74.8063 89.2087 70.8168 94.5199 66.7962C95.8484 65.7911 97.1778 64.791 98.5537 63.8541C98.6927 63.7593 98.8194 63.6257 99.029 63.6189C99.0896 64.0937 99.0371 64.5622 99.0086 65.0273C98.8687 67.3274 98.6118 69.6181 98.4124 71.9134C98.4003 72.0519 98.3575 72.1521 98.2391 72.2347C95.8297 73.9262 93.4792 75.7048 91.0029 77.2987C90.0144 77.9349 88.9035 78.2168 87.8204 78.5813C82.7479 80.2883 77.6701 81.9772 72.5933 83.671C72.4747 83.7103 72.3608 83.7813 72.2268 83.754L72.2308 83.7636L72.2308 83.7629Z" fill="#CDFF00"/>
<path d="M72.2263 83.7533C72.2194 83.7607 72.2137 83.769 72.2056 83.7748C72.2041 83.7761 72.1959 83.7666 72.1908 83.7617C72.204 83.7622 72.2171 83.7627 72.2302 83.7632L72.2263 83.7533Z" fill="#BFEB31"/>
</g>
<defs>
<filter id="filter0_f_17_311" x="33.8228" y="33.8236" width="81.8553" height="44.2205" filterUnits="userSpaceOnUse" color-interpolation-filters="sRGB">
<feFlood flood-opacity="0" result="BackgroundImageFix"/>
<feBlend mode="normal" in="SourceGraphic" in2="BackgroundImageFix" result="shape"/>
<feGaussianBlur stdDeviation="0.147172" result="effect1_foregroundBlur_17_311"/>
</filter>
<linearGradient id="paint0_linear_17_311" x1="70.2751" y1="59.1567" x2="43.0671" y2="137.358" gradientUnits="userSpaceOnUse">
<stop stop-color="#212428"/>
<stop offset="0.937272" stop-color="#15171B"/>
</linearGradient>
<linearGradient id="paint1_linear_17_311" x1="36.8655" y1="59.9768" x2="106.132" y2="34.0156" gradientUnits="userSpaceOnUse">
<stop stop-color="#F3CCEB"/>
<stop offset="0.392952"/>
<stop offset="0.555099"/>
<stop offset="1" stop-color="#F7CDED"/>
</linearGradient>
<clipPath id="clip0_17_311">
<rect width="52" height="47" fill="white" transform="translate(59.0723 59.916) rotate(5.2937)"/>
</clipPath>
</defs>
</svg>
