<?xml version="1.0" encoding="utf-8"?>
<!-- Generator: Adobe Illustrator 26.0.1, SVG Export Plug-In . SVG Version: 6.00 Build 0)  -->
<svg version="1.1" id="Layer_1" xmlns="http://www.w3.org/2000/svg" xmlns:xlink="http://www.w3.org/1999/xlink" x="0px" y="0px"
	 viewBox="0 0 125 125" style="enable-background:new 0 0 125 125;" xml:space="preserve">
<style type="text/css">
	.st0{fill:url(#SVGID_1_);}
	.st1{opacity:0.5;}
	.st2{fill-rule:evenodd;clip-rule:evenodd;fill:url(#SVGID_00000151504555555198126240000000697544751082322337_);}
	.st3{fill:#00C9FF;}
	.st4{fill:#0D67FE;}
</style>
<linearGradient id="SVGID_1_" gradientUnits="userSpaceOnUse" x1="95.404" y1="138.4071" x2="74.5761" y2="78.5437" gradientTransform="matrix(0.9977 6.748018e-02 6.748018e-02 -0.9977 -29.7158 164.7827)">
	<stop  offset="0" style="stop-color:#212428"/>
	<stop  offset="0.9373" style="stop-color:#15171B"/>
</linearGradient>
<path class="st0" d="M54.7,28.1l19.9,1.3c13,0.9,22.9,12.2,22,25.2l-1.3,19.9c-0.9,13-12.2,22.9-25.2,22l-19.9-1.3
	c-13-0.9-22.9-12.2-22-25.2l1.3-19.9C30.4,37.1,41.6,27.2,54.7,28.1z"/>
<g class="st1">
	
		<linearGradient id="SVGID_00000023968985694540196190000008465753931847228817_" gradientUnits="userSpaceOnUse" x1="37.3228" y1="90.0845" x2="93.852" y2="85.6449" gradientTransform="matrix(1 0 0 -1 0 126)">
		<stop  offset="0" style="stop-color:#F3CCEB"/>
		<stop  offset="0.393" style="stop-color:#000000"/>
		<stop  offset="0.5551" style="stop-color:#000000"/>
		<stop  offset="1" style="stop-color:#F7CDED"/>
	</linearGradient>
	<path style="fill-rule:evenodd;clip-rule:evenodd;fill:url(#SVGID_00000023968985694540196190000008465753931847228817_);" d="
		M30.5,44.6c3.8-8.8,12.8-14.6,22.8-14l22.1,1.5c10.4,0.7,18.7,8.1,21,17.8C95,39,86,30.2,74.6,29.5l-19.9-1.3
		C43.6,27.4,33.7,34.4,30.5,44.6z"/>
</g>
<path class="st3" d="M81.1,46.2V59L43.6,74.1L81.1,46.2z"/>
<path class="st4" d="M74.1,45.7v22c0,3.1-1.2,6-3.4,8.2c-2.2,2.2-5.2,3.4-8.3,3.4c-3.1,0-6.1-1.2-8.3-3.4c-2.2-2.2-3.4-5.1-3.4-8.2
	v-9.3l7-3.8v13.1c-0.1,0.6,0,1.2,0.2,1.7c0.2,0.5,0.5,1.1,0.9,1.5c0.4,0.4,0.9,0.8,1.4,1c0.5,0.2,1.1,0.4,1.7,0.4
	c0.6,0,1.2-0.1,1.7-0.4c0.5-0.2,1-0.6,1.4-1c0.4-0.4,0.7-0.9,0.9-1.5c0.2-0.5,0.2-1.1,0.2-1.7V50.1L74.1,45.7z"/>
</svg>
