<?xml version="1.0" encoding="utf-8"?>
<!-- Generator: Adobe Illustrator 26.0.1, SVG Export Plug-In . SVG Version: 6.00 Build 0)  -->
<svg version="1.1" id="Layer_1" xmlns="http://www.w3.org/2000/svg" xmlns:xlink="http://www.w3.org/1999/xlink" x="0px" y="0px"
	 viewBox="0 0 150 37" style="enable-background:new 0 0 150 37;" xml:space="preserve">
<style type="text/css">
	.st0{fill:none;}
	.st1{fill:#3C3C3B;stroke:#3C3C3B;stroke-width:0.5;stroke-miterlimit:10;}
	.st2{opacity:0.6;fill:#010101;enable-background:new    ;}
	.st3{opacity:0.45;fill:#010101;enable-background:new    ;}
	.st4{opacity:0.8;fill:#010101;enable-background:new    ;}
</style>
<rect x="-0.2" y="-0.3" class="st0" width="150" height="37"/>
<g id="Layer_2_00000070116586831276820070000005258084463155993254_">
	<g id="Layer_1-2">
		<path class="st1" d="M42.4,20.8c0,0.3-0.2,0.5-0.5,0.5h-9c0.2,2.2,1.9,4.3,4.3,4.3c1.6,0,2.8-0.6,3.7-1.9c0.1-0.1,0.2-0.2,0.4-0.2
			c0.2,0,0.4,0.2,0.4,0.4c0,0,0,0,0,0c0,0.1,0,0.2-0.1,0.2c-0.9,1.6-2.7,2.4-4.5,2.4c-3,0-5.2-2.7-5.2-5.6s2.2-5.6,5.2-5.6
			C40.2,15.2,42.4,17.9,42.4,20.8L42.4,20.8z M41.5,20.4c-0.2-2.2-1.9-4.3-4.3-4.3c-2.4,0-4,2-4.3,4.3H41.5z"/>
		<path class="st1" d="M53.4,15.4c0.2,0,0.4,0.2,0.4,0.4c0,0.2-0.2,0.4-0.4,0.4c0,0,0,0,0,0H51v9.5c0,0.2-0.2,0.4-0.4,0.4
			c-0.2,0-0.4-0.2-0.4-0.4v-9.5h-2.3c-0.2,0-0.4-0.2-0.4-0.4c0,0,0,0,0,0c0-0.2,0.2-0.4,0.4-0.4h2.3V12c0-0.2,0.2-0.4,0.4-0.5
			c0.2,0,0.5,0.1,0.5,0.4c0,0,0,0,0,0.1v3.5H53.4z"/>
		<path class="st1" d="M68.1,20v5.7c0,0.2-0.2,0.4-0.4,0.4c-0.2,0-0.4-0.2-0.4-0.4c0,0,0,0,0,0V20c0-1.9-1.1-3.9-3.3-3.9
			c-2.8,0-4,2.4-3.8,4.9c0,0.1,0,0.4,0,0.4v4.3c0,0.2-0.2,0.4-0.4,0.5c-0.2,0-0.5-0.1-0.5-0.4c0,0,0,0,0-0.1V6.9
			c0-0.2,0.2-0.4,0.4-0.4c0.2,0,0.4,0.2,0.4,0.4v10.7c0.8-1.4,2.2-2.3,3.8-2.3C66.6,15.2,68.1,17.6,68.1,20z"/>
		<path class="st1" d="M84.3,20.8c0,0.3-0.2,0.5-0.5,0.5h-9c0.2,2.2,1.9,4.3,4.3,4.3c1.6,0,2.8-0.6,3.7-1.9c0.1-0.1,0.2-0.2,0.4-0.2
			c0.2,0,0.4,0.2,0.4,0.4c0,0,0,0,0,0c0,0.1,0,0.2-0.1,0.2c-0.9,1.6-2.7,2.4-4.5,2.4c-3,0-5.2-2.7-5.2-5.6s2.2-5.6,5.2-5.6
			C82.1,15.2,84.3,17.9,84.3,20.8L84.3,20.8z M83.3,20.4c-0.2-2.2-1.9-4.3-4.3-4.3c-2.4,0-4,2-4.3,4.3H83.3z"/>
		<path class="st1" d="M95.4,15.9c0,0.3-0.2,0.5-0.4,0.5c-2.6,0.4-3.8,2.6-3.8,5.1v4.3c0,0.2-0.2,0.4-0.4,0.5
			c-0.2,0-0.5-0.1-0.5-0.4c0,0,0,0,0-0.1v-9.8c0-0.2,0.2-0.4,0.4-0.5c0.2,0,0.5,0.1,0.5,0.4c0,0,0,0,0,0.1v2
			c0.7-1.3,2.2-2.5,3.8-2.5C95.1,15.4,95.4,15.6,95.4,15.9z"/>
		<path class="st1" d="M110.2,20.8c0,0.3-0.2,0.5-0.5,0.5h-9c0.2,2.2,1.9,4.3,4.3,4.3c1.6,0,2.8-0.6,3.7-1.9
			c0.1-0.1,0.2-0.2,0.4-0.2c0.2,0,0.4,0.2,0.4,0.4c0,0,0,0,0,0c0,0.1,0,0.2-0.1,0.2c-0.9,1.6-2.7,2.4-4.5,2.4c-3,0-5.2-2.7-5.2-5.6
			s2.2-5.6,5.2-5.6C108,15.2,110.2,17.9,110.2,20.8L110.2,20.8z M109.2,20.4c-0.2-2.2-1.9-4.3-4.3-4.3c-2.4,0-4,2-4.3,4.3H109.2z"/>
		<path class="st1" d="M124.7,16v9.9c0,0.2-0.2,0.4-0.4,0.4c-0.2,0-0.4-0.2-0.4-0.4c0,0,0,0,0,0V24c-0.7,1.5-2.1,2.6-3.8,2.6
			c-2.7,0-4.2-2.3-4.2-4.8V16c0-0.2,0.2-0.4,0.4-0.4c0.2,0,0.4,0.2,0.4,0.4v5.8c0,1.9,1.1,3.9,3.3,3.9c3,0,3.8-2.8,3.8-6v-3.7
			c0-0.3,0.2-0.5,0.5-0.4c0.1,0,0.1,0,0.2,0C124.6,15.6,124.8,15.8,124.7,16z"/>
		<path class="st1" d="M147.6,20v5.8c0,0.2-0.2,0.4-0.4,0.4c-0.2,0-0.4-0.2-0.4-0.4c0,0,0,0,0,0V20c0-1.9-1.1-3.8-3.3-3.8
			c-2.7,0-3.8,2.9-3.8,5.2v4.5c0,0.2-0.2,0.4-0.4,0.4c-0.2,0-0.4-0.2-0.4-0.4c0,0,0,0,0,0V20c0-1.9-1.1-3.8-3.3-3.8
			c-2.7,0-3.9,2.2-3.8,5c0,0.1,0,0.2,0,0.2v4.3c0,0.2-0.2,0.4-0.4,0.5c-0.2,0-0.5-0.1-0.5-0.4c0,0,0,0,0-0.1v-9.9
			c0-0.2,0.2-0.4,0.4-0.5c0.2,0,0.5,0.1,0.5,0.4c0,0,0,0,0,0.1v1.6c0.8-1.4,2.2-2.3,3.8-2.3c1.8,0,3.3,1.2,3.8,2.9
			c0.7-1.7,2.2-2.9,4.1-2.9C146.1,15.2,147.6,17.5,147.6,20L147.6,20z"/>
		<path class="st2" d="M12.1,13.3L0.8,18.4L12.1,25l11.3-6.7L12.1,13.3z"/>
		<path class="st3" d="M0.8,18.4L12.1,25V-0.3L0.8,18.4z"/>
		<path class="st4" d="M12.1-0.3V25l11.3-6.7L12.1-0.3z"/>
		<path class="st3" d="M0.8,20.5l11.3,15.9v-9.2L0.8,20.5z"/>
		<path class="st4" d="M12.1,27.2v9.2l11.3-15.9L12.1,27.2z"/>
	</g>
</g>
</svg>
