<?xml version="1.0" encoding="utf-8"?>
<!-- Generator: Adobe Illustrator 26.0.1, SVG Export Plug-In . SVG Version: 6.00 Build 0)  -->
<svg version="1.1" id="Layer_1" xmlns="http://www.w3.org/2000/svg" xmlns:xlink="http://www.w3.org/1999/xlink" x="0px" y="0px"
	 viewBox="0 0 150 37" style="enable-background:new 0 0 150 37;" xml:space="preserve">
<style type="text/css">
	.st0{fill:none;}
	.st1{fill:#3C3C3B;stroke:#3C3C3B;stroke-width:0.5;stroke-miterlimit:10;}
	.st2{opacity:0.6;fill:#010101;enable-background:new    ;}
	.st3{opacity:0.45;fill:#010101;enable-background:new    ;}
	.st4{opacity:0.8;fill:#010101;enable-background:new    ;}
</style>
<rect class="st0" width="150" height="37"/>
<g id="Layer_2_00000070116586831276820070000005258084463155993254_">
	<g id="Layer_1-2">
		<path class="st1" d="M42.6,21.2c0,0.3-0.2,0.5-0.5,0.5h-9c0.2,2.2,1.9,4.3,4.3,4.3c1.6,0,2.8-0.6,3.7-1.9c0.1-0.1,0.2-0.2,0.4-0.2
			c0.2,0,0.4,0.2,0.4,0.4c0,0,0,0,0,0c0,0.1,0,0.2-0.1,0.2c-0.9,1.6-2.7,2.4-4.5,2.4c-3,0-5.2-2.7-5.2-5.6s2.2-5.6,5.2-5.6
			C40.4,15.6,42.6,18.3,42.6,21.2L42.6,21.2z M41.6,20.7c-0.2-2.2-1.9-4.3-4.3-4.3c-2.4,0-4,2-4.3,4.3H41.6z"/>
		<path class="st1" d="M53.6,15.8c0.2,0,0.4,0.2,0.4,0.4c0,0.2-0.2,0.4-0.4,0.4c0,0,0,0,0,0h-2.4v9.5c0,0.2-0.2,0.4-0.4,0.4
			c-0.2,0-0.4-0.2-0.4-0.4v-9.5h-2.3c-0.2,0-0.4-0.2-0.4-0.4c0,0,0,0,0,0c0-0.2,0.2-0.4,0.4-0.4h2.3v-3.5c0-0.2,0.2-0.4,0.4-0.5
			c0.2,0,0.5,0.1,0.5,0.4c0,0,0,0,0,0.1v3.5H53.6z"/>
		<path class="st1" d="M68.3,20.4v5.7c0,0.2-0.2,0.4-0.4,0.4c-0.2,0-0.4-0.2-0.4-0.4c0,0,0,0,0,0v-5.7c0-1.9-1.1-3.9-3.3-3.9
			c-2.8,0-4,2.4-3.8,4.9c0,0.1,0,0.4,0,0.4v4.3c0,0.2-0.2,0.4-0.4,0.5c-0.2,0-0.5-0.1-0.5-0.4c0,0,0,0,0-0.1V7.2
			c0-0.2,0.2-0.4,0.4-0.4c0.2,0,0.4,0.2,0.4,0.4v10.7c0.8-1.4,2.2-2.3,3.8-2.3C66.8,15.6,68.3,17.9,68.3,20.4z"/>
		<path class="st1" d="M84.5,21.2c0,0.3-0.2,0.5-0.5,0.5h-9c0.2,2.2,1.9,4.3,4.3,4.3c1.6,0,2.8-0.6,3.7-1.9c0.1-0.1,0.2-0.2,0.4-0.2
			c0.2,0,0.4,0.2,0.4,0.4c0,0,0,0,0,0c0,0.1,0,0.2-0.1,0.2c-0.9,1.6-2.7,2.4-4.5,2.4c-3,0-5.2-2.7-5.2-5.6s2.2-5.6,5.2-5.6
			C82.3,15.6,84.5,18.3,84.5,21.2L84.5,21.2z M83.5,20.7c-0.2-2.2-1.9-4.3-4.3-4.3c-2.4,0-4,2-4.3,4.3H83.5z"/>
		<path class="st1" d="M95.6,16.2c0,0.3-0.2,0.5-0.4,0.5c-2.6,0.4-3.8,2.6-3.8,5.1v4.3c0,0.2-0.2,0.4-0.4,0.5
			c-0.2,0-0.5-0.1-0.5-0.4c0,0,0,0,0-0.1v-9.8c0-0.2,0.2-0.4,0.4-0.5c0.2,0,0.5,0.1,0.5,0.4c0,0,0,0,0,0.1v2
			c0.7-1.3,2.2-2.5,3.8-2.5C95.3,15.8,95.6,16,95.6,16.2z"/>
		<path class="st1" d="M110.4,21.2c0,0.3-0.2,0.5-0.5,0.5h-9c0.2,2.2,1.9,4.3,4.3,4.3c1.6,0,2.8-0.6,3.7-1.9
			c0.1-0.1,0.2-0.2,0.4-0.2c0.2,0,0.4,0.2,0.4,0.4c0,0,0,0,0,0c0,0.1,0,0.2-0.1,0.2c-0.9,1.6-2.7,2.4-4.5,2.4c-3,0-5.2-2.7-5.2-5.6
			s2.2-5.6,5.2-5.6S110.4,18.3,110.4,21.2L110.4,21.2z M109.4,20.7c-0.2-2.2-1.9-4.3-4.3-4.3c-2.4,0-4,2-4.3,4.3H109.4z"/>
		<path class="st1" d="M124.9,16.3v9.9c0,0.2-0.2,0.4-0.4,0.4c-0.2,0-0.4-0.2-0.4-0.4c0,0,0,0,0,0v-1.9c-0.7,1.5-2.1,2.6-3.8,2.6
			c-2.7,0-4.2-2.3-4.2-4.8v-5.8c0-0.2,0.2-0.4,0.4-0.4c0.2,0,0.4,0.2,0.4,0.4v5.8c0,1.9,1.1,3.9,3.3,3.9c3,0,3.8-2.8,3.8-6v-3.7
			c0-0.3,0.2-0.5,0.5-0.4c0.1,0,0.1,0,0.2,0C124.8,16,124.9,16.1,124.9,16.3z"/>
		<path class="st1" d="M147.7,20.3v5.8c0,0.2-0.2,0.4-0.4,0.4c-0.2,0-0.4-0.2-0.4-0.4c0,0,0,0,0,0v-5.8c0-1.9-1.1-3.8-3.3-3.8
			c-2.7,0-3.8,2.9-3.8,5.2v4.5c0,0.2-0.2,0.4-0.4,0.4c-0.2,0-0.4-0.2-0.4-0.4c0,0,0,0,0,0v-5.8c0-1.9-1.1-3.8-3.3-3.8
			c-2.7,0-3.9,2.2-3.8,5c0,0.1,0,0.2,0,0.2v4.3c0,0.2-0.2,0.4-0.4,0.5c-0.2,0-0.5-0.1-0.5-0.4c0,0,0,0,0-0.1v-9.9
			c0-0.2,0.2-0.4,0.4-0.5c0.2,0,0.5,0.1,0.5,0.4c0,0,0,0,0,0.1v1.6c0.8-1.4,2.2-2.3,3.8-2.3c1.8,0,3.3,1.2,3.8,2.9
			c0.7-1.7,2.2-2.9,4.1-2.9C146.2,15.6,147.7,17.9,147.7,20.3L147.7,20.3z"/>
		<path class="st2" d="M12.3,13.6L1,18.7l11.3,6.7l11.3-6.7L12.3,13.6z"/>
		<path class="st3" d="M1,18.7l11.3,6.7V0L1,18.7z"/>
		<path class="st4" d="M12.3,0v25.4l11.3-6.7L12.3,0z"/>
		<path class="st3" d="M1,20.9l11.3,15.9v-9.2L1,20.9z"/>
		<path class="st4" d="M12.3,27.5v9.2l11.3-15.9L12.3,27.5z"/>
	</g>
</g>
</svg>
