<?xml version="1.0" encoding="iso-8859-1"?>
<!-- Generator: Adobe Illustrator 19.0.0, SVG Export Plug-In . SVG Version: 6.00 Build 0)  -->
<svg version="1.1" id="Indian_Flag" xmlns="http://www.w3.org/2000/svg" xmlns:xlink="http://www.w3.org/1999/xlink" x="0px" y="0px"
	 viewBox="0 0 900 600" style="enable-background:new 0 0 900 600;" xml:space="preserve">
<g id="bands">
	<rect width="900" height="200" style="fill:#FF9933"/> <!-- Saffron Band -->
	<rect width="900" height="200" y="200" style="fill:#FFFFFF"/> <!-- White Band -->
	<rect width="900" height="200" y="400" style="fill:#138808"/> <!-- Green Band -->
</g>
<g id="chakra">
	<circle cx="450" cy="300" r="75" fill="none" stroke="#000080" stroke-width="2"/>
	<g stroke="#000080" stroke-width="2">
		<line x1="450" y1="300" x2="450" y2="225" transform="rotate(0 450 300)"/>
		<line x1="450" y1="300" x2="450" y2="225" transform="rotate(15 450 300)"/>
		<line x1="450" y1="300" x2="450" y2="225" transform="rotate(30 450 300)"/>
		<line x1="450" y1="300" x2="450" y2="225" transform="rotate(45 450 300)"/>
		<line x1="450" y1="300" x2="450" y2="225" transform="rotate(60 450 300)"/>
		<line x1="450" y1="300" x2="450" y2="225" transform="rotate(75 450 300)"/>
		<line x1="450" y1="300" x2="450" y2="225" transform="rotate(90 450 300)"/>
		<line x1="450" y1="300" x2="450" y2="225" transform="rotate(105 450 300)"/>
		<line x1="450" y1="300" x2="450" y2="225" transform="rotate(120 450 300)"/>
		<line x1="450" y1="300" x2="450" y2="225" transform="rotate(135 450 300)"/>
		<line x1="450" y1="300" x2="450" y2="225" transform="rotate(150 450 300)"/>
		<line x1="450" y1="300" x2="450" y2="225" transform="rotate(165 450 300)"/>
		<line x1="450" y1="300" x2="450" y2="225" transform="rotate(180 450 300)"/>
		<line x1="450" y1="300" x2="450" y2="225" transform="rotate(195 450 300)"/>
		<line x1="450" y1="300" x2="450" y2="225" transform="rotate(210 450 300)"/>
		<line x1="450" y1="300" x2="450" y2="225" transform="rotate(225 450 300)"/>
		<line x1="450" y1="300" x2="450" y2="225" transform="rotate(240 450 300)"/>
		<line x1="450" y1="300" x2="450" y2="225" transform="rotate(255 450 300)"/>
		<line x1="450" y1="300" x2="450" y2="225" transform="rotate(270 450 300)"/>
		<line x1="450" y1="300" x2="450" y2="225" transform="rotate(285 450 300)"/>
		<line x1="450" y1="300" x2="450" y2="225" transform="rotate(300 450 300)"/>
		<line x1="450" y1="300" x2="450" y2="225" transform="rotate(315 450 300)"/>
		<line x1="450" y1="300" x2="450" y2="225" transform="rotate(330 450 300)"/>
		<line x1="450" y1="300" x2="450" y2="225" transform="rotate(345 450 300)"/>
		<line x1="450" y1="300" x2="450" y2="225" transform="rotate(360 450 300)"/>
	</g>
</g>
</svg>