<svg width="134" height="28" viewBox="0 0 134 28" fill="none" xmlns="http://www.w3.org/2000/svg">
<g clip-path="url(#clip0_2132_7330)">
<path d="M23.6248 8.55747C23.3284 8.38104 22.9898 8.28792 22.6448 8.28792C22.2998 8.28792 21.9613 8.38104 21.6648 8.55747L17.1673 11.2787L14.1048 13.0287L9.57232 15.75C9.27587 15.9264 8.9373 16.0195 8.59232 16.0195C8.24735 16.0195 7.90877 15.9264 7.61232 15.75L4.03357 13.6412C3.73325 13.4587 3.4852 13.2017 3.31349 12.8951C3.14178 12.5884 3.05224 12.2426 3.05357 11.8912V7.72622C3.04129 7.3728 3.12616 7.02278 3.29895 6.71423C3.47174 6.40568 3.72582 6.15042 4.03357 5.97622L7.53357 3.90247C7.83166 3.72617 8.17163 3.63317 8.51795 3.63317C8.86427 3.63317 9.20423 3.72617 9.50232 3.90247L13.0023 5.97622C13.3026 6.15872 13.5507 6.41575 13.7224 6.72237C13.8941 7.02899 13.9837 7.37479 13.9823 7.72622V10.4475L17.0361 8.60997V5.88872C17.0474 5.53547 16.9621 5.18582 16.7894 4.87745C16.6167 4.56908 16.3632 4.31366 16.0561 4.13872L9.57232 0.262468C9.27437 0.0904422 8.93637 -0.00012207 8.59232 -0.00012207C8.24827 -0.00012207 7.91028 0.0904422 7.61232 0.262468L0.979824 4.17372C0.678037 4.34582 0.42793 4.59572 0.255565 4.89736C0.0832002 5.199 -0.00511453 5.54134 -0.000176144 5.88872V13.7637C-0.0124568 14.1171 0.0724122 14.4672 0.245199 14.7757C0.417986 15.0843 0.672074 15.3395 0.979824 15.5137L7.61232 19.39C7.91028 19.562 8.24827 19.6526 8.59232 19.6526C8.93637 19.6526 9.27437 19.562 9.57232 19.39L14.0698 16.7212L17.1323 14.8837L21.6298 12.2587C21.9295 12.0742 22.2742 11.9758 22.6261 11.9742C22.978 11.9727 23.3235 12.0681 23.6248 12.25L27.1248 14.3237C27.4251 14.5062 27.6732 14.7632 27.8449 15.0699C28.0166 15.3765 28.1062 15.7223 28.1048 16.0737V20.2737C28.1161 20.627 28.0308 20.9766 27.8582 21.285C27.6855 21.5934 27.4319 21.8488 27.1248 22.0237L23.6248 24.0625C23.3284 24.2389 22.9898 24.332 22.6448 24.332C22.2998 24.332 21.9613 24.2389 21.6648 24.0625L18.1648 21.9887C17.8645 21.8062 17.6164 21.5492 17.4447 21.2426C17.273 20.9359 17.1835 20.5901 17.1848 20.2387V17.5525L14.1223 19.39V22.1112C14.111 22.4645 14.1963 22.8141 14.369 23.1225C14.5417 23.4309 14.7952 23.6863 15.1023 23.8612L21.7348 27.7725C22.0328 27.9445 22.3708 28.0351 22.7148 28.0351C23.0589 28.0351 23.3969 27.9445 23.6948 27.7725L30.3273 23.8612C30.6265 23.6775 30.8736 23.4201 31.0452 23.1138C31.2167 22.8075 31.307 22.4623 31.3073 22.1112V14.2362C31.3216 13.8825 31.2376 13.5317 31.0646 13.2228C30.8916 12.9139 30.6364 12.6589 30.3273 12.4862L23.6248 8.55747Z" fill="#7950DD"/>
<path d="M43.435 25.48V18.9437C43.878 19.4216 44.4221 19.7945 45.0276 20.0353C45.6332 20.276 46.2848 20.3783 46.935 20.335C50.715 20.335 53.27 17.6312 53.27 13.51C53.27 9.38871 50.89 6.68496 47.25 6.68496C46.5344 6.64539 45.8196 6.77442 45.163 7.06166C44.5065 7.34891 43.9266 7.78633 43.47 8.33871V6.89496H39.8125V25.48H43.435ZM46.4625 17.185C44.5025 17.185 43.225 15.715 43.225 13.51C43.225 11.305 44.5025 9.80871 46.4625 9.80871C48.4225 9.80871 49.665 11.2787 49.665 13.51C49.665 15.7412 48.3612 17.185 46.4625 17.185Z" fill="black"/>
<path d="M61.4513 20.335C62.3628 20.3737 63.2725 20.2245 64.1238 19.8966C64.9752 19.5687 65.7499 19.0691 66.4 18.429C67.05 17.7888 67.5613 17.0218 67.9022 16.1755C68.243 15.3293 68.4061 14.4219 68.3813 13.51C68.3813 11.672 67.6511 9.90933 66.3515 8.60971C65.0519 7.31008 63.2892 6.57996 61.4513 6.57996C59.6133 6.57996 57.8506 7.31008 56.551 8.60971C55.2514 9.90933 54.5213 11.672 54.5213 13.51C54.4964 14.4219 54.6595 15.3293 55.0004 16.1755C55.3412 17.0218 55.8526 17.7888 56.5026 18.429C57.1526 19.0691 57.9274 19.5687 58.7787 19.8966C59.6301 20.2245 60.5398 20.3737 61.4513 20.335ZM61.4513 17.185C59.5 17.185 58.17 15.6887 58.17 13.51C58.17 11.3312 59.5 9.80871 61.4513 9.80871C63.4025 9.80871 64.75 11.305 64.75 13.51C64.75 15.715 63.4113 17.185 61.4513 17.185Z" fill="black"/>
<path d="M74.1912 20.125V1.14624H70.5687V20.125H74.1912Z" fill="black"/>
<path d="M85.0763 6.89502L82.3375 15.4263L79.625 6.89502H75.88L80.6488 20.02L78.75 25.48H82.25L84 20.0725L88.7688 6.89502H85.0763Z" fill="black"/>
<path d="M98.9712 8.20751C98.5224 7.7027 97.9668 7.30415 97.3448 7.04081C96.7227 6.77746 96.0499 6.65592 95.375 6.68501C91.5512 6.68501 89.25 9.38876 89.25 13.51C89.25 17.6313 91.5688 20.335 95.445 20.335C96.1235 20.3739 96.8018 20.2542 97.4261 19.9854C98.0503 19.7166 98.6033 19.306 99.0413 18.7863V20.5363C99.0641 20.8009 99.0322 21.0674 98.9475 21.3192C98.8628 21.571 98.7272 21.8026 98.549 21.9996C98.3709 22.1966 98.1541 22.3549 97.9121 22.4644C97.6701 22.5739 97.4081 22.6324 97.1425 22.6363H91.0963V25.4975H97.7112C100.677 25.4975 102.664 23.6863 102.664 20.93V6.93001H99.015L98.9712 8.20751ZM95.9788 17.185C94.045 17.185 92.7675 15.7413 92.7675 13.51C92.7675 11.2788 94.045 9.80876 95.9788 9.80876C97.9125 9.80876 99.2075 11.2788 99.2075 13.51C99.2075 15.7413 97.93 17.185 95.9788 17.185Z" fill="black"/>
<path d="M111.746 20.335C112.658 20.3737 113.567 20.2245 114.419 19.8966C115.27 19.5687 116.045 19.0691 116.695 18.429C117.345 17.7888 117.856 17.0218 118.197 16.1755C118.538 15.3293 118.701 14.4219 118.676 13.51C118.676 11.672 117.946 9.90933 116.646 8.60971C115.347 7.31008 113.584 6.57996 111.746 6.57996C109.908 6.57996 108.146 7.31008 106.846 8.60971C105.546 9.90933 104.816 11.672 104.816 13.51C104.791 14.4219 104.954 15.3293 105.295 16.1755C105.636 17.0218 106.147 17.7888 106.797 18.429C107.447 19.0691 108.222 19.5687 109.074 19.8966C109.925 20.2245 110.835 20.3737 111.746 20.335ZM111.746 17.185C109.795 17.185 108.465 15.6887 108.465 13.51C108.465 11.3312 109.795 9.80871 111.746 9.80871C113.697 9.80871 115.027 11.305 115.027 13.51C115.027 15.715 113.697 17.185 111.746 17.185Z" fill="black"/>
<path d="M124.302 20.1249V12.8799C124.274 12.5056 124.322 12.1294 124.445 11.7747C124.568 11.4201 124.763 11.0946 125.018 10.8187C125.272 10.5428 125.581 10.3223 125.925 10.1711C126.268 10.0199 126.64 9.94123 127.015 9.93994C127.363 9.94455 127.707 10.0211 128.025 10.1649C128.342 10.3086 128.626 10.5164 128.86 10.7752C129.093 11.034 129.27 11.3382 129.38 11.6688C129.491 11.9994 129.531 12.3491 129.5 12.6962V20.1249H133.149V11.8824C133.149 8.83744 131.224 6.68494 128.257 6.68494C127.474 6.64266 126.693 6.81207 125.997 7.17539C125.301 7.53872 124.716 8.08258 124.302 8.74994V6.89494H120.654V20.1249H124.302Z" fill="black"/>
</g>
<defs>
<clipPath id="clip0_2132_7330">
<rect width="133.184" height="28" fill="white"/>
</clipPath>
</defs>
</svg>
