<?xml version="1.0" encoding="utf-8"?>
<!-- Generator: Adobe Illustrator 26.0.1, SVG Export Plug-In . SVG Version: 6.00 Build 0)  -->
<svg version="1.1" id="Layer_1" xmlns="http://www.w3.org/2000/svg" xmlns:xlink="http://www.w3.org/1999/xlink" x="0px" y="0px"
	 viewBox="0 0 134 28" style="enable-background:new 0 0 134 28;" xml:space="preserve">
<style type="text/css">
	.st0{fill:#22143D;}
	.st1{fill:#7950DD;}
</style>
<g>
	<path class="st0" d="M38.9,26V8.7h2.6l0.2,1.4h0.1c0.7-0.9,2-1.6,3.7-1.6c3.2,0,5.7,2.6,5.7,6.4s-2.5,6.4-5.7,6.4
		c-1.7,0-2.9-0.7-3.5-1.5h-0.1v6.1L38.9,26L38.9,26L38.9,26L38.9,26z M48.3,14.9c0-2.3-1.4-3.7-3.2-3.7c-1.8,0-3.2,1.4-3.2,3.7
		s1.4,3.7,3.2,3.7C46.9,18.6,48.3,17.2,48.3,14.9z"/>
	<path class="st0" d="M52.8,14.9c0-3.8,2.7-6.4,6.3-6.4c3.6,0,6.3,2.7,6.3,6.4c0,3.8-2.7,6.4-6.3,6.4C55.5,21.3,52.8,18.6,52.8,14.9
		z M62.4,14.9c0-2.2-1.4-3.7-3.3-3.7c-1.8,0-3.3,1.4-3.3,3.7s1.5,3.7,3.3,3.7C60.9,18.6,62.4,17.1,62.4,14.9z"/>
	<polygon class="st0" points="67.5,21.1 67.5,4 70.5,4 70.5,21.1 	"/>
	<path class="st0" d="M81.6,8.7h3.2l-5.4,15c-0.5,1.5-1.3,2.2-3.2,2.2h-2.9v-2.8h2.4c0.5,0,0.7-0.2,0.8-0.6l0.3-0.8L71.8,8.7H75
		l3.2,8.6h0.5L81.6,8.7L81.6,8.7L81.6,8.7z"/>
	<path class="st0" d="M85.4,21.7h3c0.1,0.8,0.9,1.9,2.8,1.9c1.8,0,3-1.1,3-2.8v-1.7h-0.1c-0.7,0.7-1.9,1.4-3.4,1.4
		c-3.2,0-5.6-2.4-5.6-6s2.4-6,5.6-6c1.6,0,2.8,0.7,3.6,1.6h0.1l0.2-1.4h2.6v12.1c0,3.3-2.2,5.5-6,5.5C87.1,26.2,85.5,23.5,85.4,21.7
		L85.4,21.7z M94.2,14.4c0-1.9-1.4-3.3-3.1-3.3c-1.7,0-3.1,1.4-3.1,3.3s1.4,3.3,3.1,3.3S94.2,16.4,94.2,14.4z"/>
	<path class="st0" d="M99.3,14.9c0-3.8,2.7-6.4,6.3-6.4c3.6,0,6.3,2.7,6.3,6.4c0,3.8-2.7,6.4-6.3,6.4
		C101.9,21.3,99.3,18.6,99.3,14.9z M108.8,14.9c0-2.2-1.5-3.7-3.3-3.7c-1.8,0-3.3,1.4-3.3,3.7s1.5,3.7,3.3,3.7
		C107.4,18.6,108.8,17.1,108.8,14.9z"/>
	<path class="st0" d="M113.9,21.1V8.7h2.6l0.2,1.2h0.1c0.5-0.5,1.7-1.4,3.6-1.4c2.8,0,4.9,2,4.9,5.2v7.5h-3v-7
		c0-1.6-1.1-2.8-2.7-2.8c-1.5,0-2.8,1.2-2.8,2.8v7L113.9,21.1L113.9,21.1L113.9,21.1z"/>
</g>
<path class="st1" d="M23.6,8.5c-0.3-0.2-0.6-0.3-1-0.3s-0.7,0.1-1,0.3l-4.5,2.7L14.1,13l-4.5,2.7c-0.3,0.2-0.6,0.3-1,0.3
	c-0.3,0-0.7-0.1-1-0.3L4,13.6c-0.3-0.2-0.5-0.4-0.7-0.7c-0.2-0.3-0.3-0.7-0.3-1V7.7c0-0.4,0.1-0.7,0.2-1S3.7,6.1,4,6l3.5-2.1
	c0.3-0.2,0.6-0.3,1-0.3s0.7,0.1,1,0.3L13,6c0.3,0.2,0.5,0.4,0.7,0.7C13.9,7,14,7.4,14,7.7v2.7L17,8.6V5.9c0-0.4-0.1-0.7-0.2-1
	c-0.2-0.3-0.4-0.6-0.7-0.7L9.6,0.2C9.3,0.1,8.9,0,8.6,0c-0.3,0-0.7,0.1-1,0.3L1,4.2C0.7,4.3,0.4,4.6,0.3,4.9C0.1,5.2,0,5.5,0,5.9
	v7.9c0,0.4,0.1,0.7,0.2,1c0.2,0.3,0.4,0.6,0.7,0.7l6.6,3.9c0.3,0.2,0.6,0.3,1,0.3c0.3,0,0.7-0.1,1-0.3l4.5-2.7l3.1-1.8l4.5-2.6
	c0.3-0.2,0.6-0.3,1-0.3c0.4,0,0.7,0.1,1,0.3l3.5,2.1c0.3,0.2,0.5,0.4,0.7,0.7c0.2,0.3,0.3,0.7,0.3,1v4.2c0,0.4-0.1,0.7-0.2,1
	c-0.2,0.3-0.4,0.6-0.7,0.7l-3.5,2c-0.3,0.2-0.6,0.3-1,0.3s-0.7-0.1-1-0.3L18.2,22c-0.3-0.2-0.5-0.4-0.7-0.7c-0.2-0.3-0.3-0.7-0.3-1
	v-2.7l-3.1,1.8v2.7c0,0.4,0.1,0.7,0.2,1c0.2,0.3,0.4,0.6,0.7,0.7l6.6,3.9c0.3,0.2,0.6,0.3,1,0.3c0.3,0,0.7-0.1,1-0.3l6.6-3.9
	c0.3-0.2,0.5-0.4,0.7-0.7c0.2-0.3,0.3-0.7,0.3-1v-7.9c0-0.4-0.1-0.7-0.2-1s-0.4-0.6-0.7-0.7L23.6,8.5z"/>
</svg>
