<?xml version="1.0" encoding="utf-8"?>
<!-- Generator: Adobe Illustrator 26.0.1, SVG Export Plug-In . SVG Version: 6.00 Build 0)  -->
<svg version="1.1" id="Layer_1" xmlns="http://www.w3.org/2000/svg" xmlns:xlink="http://www.w3.org/1999/xlink" x="0px" y="0px"
	 viewBox="0 0 110 42" style="enable-background:new 0 0 110 42;" xml:space="preserve">
<style type="text/css">
	.st0{fill:none;}
	.st1{fill:url(#SVGID_1_);}
	.st2{fill:url(#SVGID_00000074407861740382025390000014246477595620456580_);}
	.st3{fill:url(#SVGID_00000054970485270346051560000016159805098866394269_);}
	.st4{fill:url(#SVGID_00000086676299076162136040000005625724818843571600_);}
	.st5{fill:url(#SVGID_00000106144840217650186220000008818444977696664255_);}
	.st6{fill:url(#SVGID_00000142136816171942700970000008139698888162544300_);}
	.st7{fill:#121315;}
</style>
<rect x="0.3" class="st0" width="109.1" height="42"/>
<g>
	
		<linearGradient id="SVGID_1_" gradientUnits="userSpaceOnUse" x1="119.3534" y1="-39.1601" x2="110.5872" y2="-54.0627" gradientTransform="matrix(0.875 0 0 -0.875 -78.0625 -6.75)">
		<stop  offset="0" style="stop-color:#FF94A6"/>
		<stop  offset="0.32" style="stop-color:#E03DC1"/>
		<stop  offset="1" style="stop-color:#8247E5"/>
	</linearGradient>
	<path class="st1" d="M20.1,42c1.1,0,2.3-0.3,3.2-1c1-0.6,1.7-1.5,2.2-2.6c0.1-0.1,0.1-0.2,0.1-0.4c0-0.1-0.1-0.2-0.1-0.4
		c-0.1-0.1-0.2-0.2-0.3-0.3c-0.1-0.1-0.2-0.1-0.4-0.1h-9.4c-0.1,0-0.3,0-0.4,0.1c-0.1,0.1-0.2,0.1-0.3,0.3c-0.1,0.1-0.1,0.2-0.1,0.4
		c0,0.1,0,0.3,0.1,0.4c0.5,1,1.2,1.9,2.2,2.5C17.8,41.7,18.9,42,20.1,42z"/>
	
		<linearGradient id="SVGID_00000120553799261666802990000015280536748615473538_" gradientUnits="userSpaceOnUse" x1="123.5689" y1="-22.6446" x2="105.0589" y2="-48.9457" gradientTransform="matrix(0.875 0 0 -0.875 -78.0625 -6.75)">
		<stop  offset="0" style="stop-color:#FF94A6"/>
		<stop  offset="0.32" style="stop-color:#E03DC1"/>
		<stop  offset="1" style="stop-color:#8247E5"/>
	</linearGradient>
	<path style="fill:url(#SVGID_00000120553799261666802990000015280536748615473538_);" d="M34.5,31.8c-0.4,0-0.7-0.1-1.1-0.2
		c-0.3-0.1-0.6-0.3-0.9-0.6c-0.3-0.3-0.5-0.6-0.6-0.9c-0.1-0.3-0.2-0.7-0.2-1.1v-9.7c0-5.1-3.2-9.6-7.8-11.2
		c-0.2-0.1-0.4-0.2-0.6-0.4c-0.2-0.2-0.3-0.4-0.4-0.6c-0.2-0.6-0.6-1-1.1-1.4c-0.5-0.3-1.1-0.5-1.7-0.5c-0.6,0-1.2,0.2-1.7,0.5
		c-0.5,0.3-0.9,0.8-1.1,1.4c-0.1,0.2-0.2,0.4-0.4,0.6c-0.2,0.2-0.4,0.3-0.6,0.4c-2.3,0.8-4.3,2.3-5.6,4.2c-1.4,2-2.1,4.3-2.1,6.7v10
		c0,0.7-0.3,1.4-0.8,1.9c-0.5,0.5-1.2,0.8-1.9,0.8c-0.2,0-0.3,0-0.5,0.1c-0.2,0.1-0.3,0.2-0.4,0.3c-0.1,0.1-0.2,0.3-0.3,0.4
		c-0.1,0.2-0.1,0.3-0.1,0.5c0,0.3,0.1,0.7,0.4,0.9c0.2,0.2,0.6,0.4,0.9,0.4h28.8c0.3,0,0.7-0.1,0.9-0.4c0.2-0.2,0.4-0.6,0.4-0.9
		c0-0.3-0.1-0.7-0.4-0.9C35.1,31.9,34.8,31.8,34.5,31.8z"/>
	
		<linearGradient id="SVGID_00000140006079499843918310000015202314480259257487_" gradientUnits="userSpaceOnUse" x1="138.4497" y1="-9.0362" x2="93.5424" y2="-38.8439" gradientTransform="matrix(0.875 0 0 -0.875 -78.0625 -6.75)">
		<stop  offset="0" style="stop-color:#FF94A6"/>
		<stop  offset="0.32" style="stop-color:#E03DC1"/>
		<stop  offset="1" style="stop-color:#8247E5"/>
	</linearGradient>
	<path style="fill:url(#SVGID_00000140006079499843918310000015202314480259257487_);" d="M28.4,5.6C30,6,31.4,6.8,32.5,8
		c1.1,1.2,1.7,2.7,1.9,4.4c0,0.2,0.1,0.3,0.2,0.5c0.1,0.1,0.3,0.2,0.5,0.2c0.2,0,0.3-0.1,0.5-0.2c0.1-0.1,0.2-0.3,0.2-0.5
		c-0.2-1.9-1-3.7-2.2-5.1c-1.3-1.4-3-2.4-4.8-2.8c0,0-0.1,0-0.1,0c-0.2,0-0.3,0.1-0.4,0.2c-0.1,0.1-0.2,0.3-0.2,0.4
		c0,0.2,0,0.3,0.1,0.5C28.1,5.5,28.2,5.6,28.4,5.6z"/>
	
		<linearGradient id="SVGID_00000113332500436700030130000004751868291924252048_" gradientUnits="userSpaceOnUse" x1="138.0276" y1="-8.4" x2="93.118" y2="-38.2077" gradientTransform="matrix(0.875 0 0 -0.875 -78.0625 -6.75)">
		<stop  offset="0" style="stop-color:#FF94A6"/>
		<stop  offset="0.32" style="stop-color:#E03DC1"/>
		<stop  offset="1" style="stop-color:#8247E5"/>
	</linearGradient>
	<path style="fill:url(#SVGID_00000113332500436700030130000004751868291924252048_);" d="M29.1,1.3c2.5,0.5,4.7,1.9,6.4,3.7
		c1.7,1.9,2.7,4.3,3,6.8c0,0.1,0,0.2,0.1,0.2c0,0.1,0.1,0.1,0.2,0.2c0.1,0.1,0.1,0.1,0.2,0.1c0.1,0,0.2,0,0.3,0c0.1,0,0.2,0,0.2-0.1
		c0.1,0,0.1-0.1,0.2-0.2c0.1-0.1,0.1-0.1,0.1-0.2c0-0.1,0-0.2,0-0.3c-0.3-2.8-1.4-5.5-3.3-7.6c-1.9-2.1-4.4-3.6-7.1-4.2
		c0,0-0.1,0-0.1,0c-0.2,0-0.3,0.1-0.5,0.2c-0.1,0.1-0.2,0.3-0.2,0.4c0,0.2,0,0.3,0.1,0.5C28.8,1.2,29,1.3,29.1,1.3L29.1,1.3z"/>
	
		<linearGradient id="SVGID_00000181054201641613400830000004674476461260740780_" gradientUnits="userSpaceOnUse" x1="130.0642" y1="3.5969" x2="85.1545" y2="-26.2107" gradientTransform="matrix(0.875 0 0 -0.875 -78.0625 -6.75)">
		<stop  offset="0" style="stop-color:#FF94A6"/>
		<stop  offset="0.32" style="stop-color:#E03DC1"/>
		<stop  offset="1" style="stop-color:#8247E5"/>
	</linearGradient>
	<path style="fill:url(#SVGID_00000181054201641613400830000004674476461260740780_);" d="M11.7,5.6c0.2,0,0.3-0.1,0.4-0.3
		c0.1-0.1,0.1-0.3,0.1-0.5c0-0.2-0.1-0.3-0.2-0.4c-0.1-0.1-0.3-0.2-0.5-0.2c0,0-0.1,0-0.1,0C9.6,4.7,7.9,5.7,6.6,7.1
		c-1.3,1.4-2,3.2-2.2,5.1c0,0.2,0,0.4,0.2,0.5c0.1,0.1,0.1,0.1,0.2,0.2C4.8,12.9,4.9,13,5,13c0.1,0,0.2,0,0.3,0
		c0.1,0,0.2-0.1,0.2-0.1c0.1-0.1,0.1-0.1,0.2-0.2c0-0.1,0.1-0.2,0.1-0.2C5.9,10.8,6.6,9.2,7.6,8C8.7,6.8,10.2,6,11.7,5.6z"/>
	
		<linearGradient id="SVGID_00000111890197926622608230000007881660063957671318_" gradientUnits="userSpaceOnUse" x1="127.8581" y1="6.9206" x2="82.9657" y2="-22.8797" gradientTransform="matrix(0.875 0 0 -0.875 -78.0625 -6.75)">
		<stop  offset="0" style="stop-color:#FF94A6"/>
		<stop  offset="0.32" style="stop-color:#E03DC1"/>
		<stop  offset="1" style="stop-color:#8247E5"/>
	</linearGradient>
	<path style="fill:url(#SVGID_00000111890197926622608230000007881660063957671318_);" d="M11,1.3c0.2,0,0.3-0.1,0.4-0.3
		c0.1-0.1,0.1-0.3,0.1-0.5c0-0.2-0.1-0.3-0.2-0.4C11.2,0.1,11,0,10.9,0c0,0-0.1,0-0.1,0C8,0.6,5.5,2.1,3.6,4.2
		c-1.9,2.1-3,4.8-3.3,7.6c0,0.1,0,0.2,0,0.3c0,0.1,0.1,0.2,0.1,0.2c0.1,0.1,0.1,0.1,0.2,0.2c0.1,0,0.2,0.1,0.2,0.1
		c0.1,0,0.2,0,0.3,0c0.1,0,0.2-0.1,0.2-0.1c0.1-0.1,0.1-0.1,0.2-0.2c0-0.1,0.1-0.2,0.1-0.2c0.2-2.5,1.3-4.9,3-6.8
		C6.3,3.2,8.5,1.9,11,1.3z"/>
	<path class="st7" d="M103.7,15.1c-0.8,0-1.5,0.1-2.2,0.4c-0.7,0.3-1.3,0.7-1.9,1.2V8.4c0,0,0,0,0,0c0,0,0,0,0,0c0,0,0,0,0,0
		c0,0,0,0,0,0h-3.3c0,0,0,0,0,0c0,0,0,0,0,0c0,0,0,0,0,0c0,0,0,0,0,0v22.8c0,0,0,0,0,0c0,0,0,0,0,0c0,0,0,0,0,0c0,0,0,0,0,0h3.3
		c0,0,0,0,0,0c0,0,0,0,0,0c0,0,0,0,0,0c0,0,0,0,0,0v-9.2c0-0.8,0.3-1.6,0.9-2.2c0.6-0.6,1.3-1,2.1-1c0.4,0,0.9,0,1.3,0.2
		c0.4,0.1,0.8,0.4,1.1,0.7c0.3,0.3,0.6,0.6,0.7,1c0.2,0.4,0.3,0.8,0.3,1.2v9.3c0,0,0,0.1,0,0.1c0,0,0,0,0.1,0h3.2c0,0,0,0,0,0
		c0,0,0,0,0,0c0,0,0,0,0,0c0,0,0,0,0,0V20.9c0-1.5-0.6-3-1.7-4.1C106.7,15.8,105.3,15.2,103.7,15.1z"/>
	<path class="st7" d="M79.1,14.5h-3.2c0,0-0.1,0-0.1,0c0,0,0,0,0,0.1v10.1c0,0.4-0.1,0.8-0.3,1.2c-0.2,0.4-0.4,0.7-0.7,1
		c-0.3,0.3-0.7,0.5-1.1,0.6c-0.4,0.1-0.8,0.2-1.2,0.2c-0.8,0-1.5-0.4-2.1-1c-0.5-0.6-0.8-1.4-0.8-2.2v-10c0,0,0-0.1,0-0.1
		c0,0,0,0-0.1,0h-3.2c0,0-0.1,0-0.1,0c0,0,0,0,0,0.1v10c0,1.7,0.7,3.4,1.8,4.6c1.2,1.2,2.8,2,4.5,2c0.9,0,1.7-0.1,2.6-0.4
		c0.8-0.3,1.6-0.8,2.2-1.4c0.6-0.6,1.1-1.3,1.5-2.1c0.3-0.8,0.5-1.7,0.5-2.5V14.6C79.2,14.6,79.2,14.6,79.1,14.5
		C79.1,14.6,79.1,14.5,79.1,14.5z"/>
	<path class="st7" d="M57.1,8.3h-8.2c-0.1,0-0.1,0-0.1,0.1l0,22.8c0,0,0,0,0,0c0,0,0,0,0,0c0,0,0,0,0,0c0,0,0,0,0,0h3.2
		c0,0,0.1,0,0.1,0c0,0,0,0,0-0.1V22h4.9c3.8,0,6.7-3,6.7-6.9C63.8,11.3,60.9,8.3,57.1,8.3z M57,18.6h-4.6c-0.1,0-0.1,0-0.2-0.1
		c0,0-0.1-0.1-0.1-0.2v-3.7c0-0.5-0.2-1.1-0.5-1.5c-0.3-0.4-0.8-0.7-1.3-0.9c0,0,0,0-0.1,0c0,0,0,0,0-0.1v-0.4c0,0,0-0.1,0-0.1
		c0,0,0,0,0.1,0h6.7c1.8,0,3.1,1.3,3.3,3c0.1,0.5,0,1-0.1,1.4c-0.1,0.5-0.4,0.9-0.7,1.3c-0.3,0.4-0.7,0.7-1.2,0.9
		C58,18.5,57.5,18.6,57,18.6L57,18.6z"/>
	<path class="st7" d="M81.4,27.6c0.6,1.4,2.2,3.7,6,3.7c4.3,0,6.2-2.5,6.2-5c0-2.7-1.8-4.4-5.6-5.1c-1.9-0.3-2.7-0.9-2.7-2
		c0-1,0.9-1.7,2.2-1.7c1.2,0,2.2,0.7,2.6,1.7c0,0,0,0,0,0s0,0,0,0c0,0,0,0,0.1,0L93,18c0,0,0,0,0,0c0,0,0,0,0-0.1
		c-0.8-2.1-2.9-3.4-5.5-3.4c-3.7,0-5.6,2.3-5.6,4.6c0,2.7,1.8,4.4,5.4,5c2,0.4,2.8,1,2.8,2.1c0,1.1-1,1.8-2.7,1.8
		c-0.6,0-1.2-0.2-1.8-0.5c-0.5-0.3-1-0.8-1.2-1.4c0,0,0,0,0,0c0,0,0,0,0,0c0,0,0,0,0,0l-2.8,1.3c0,0,0,0,0,0
		C81.4,27.5,81.4,27.5,81.4,27.6C81.4,27.5,81.4,27.5,81.4,27.6C81.4,27.6,81.4,27.6,81.4,27.6z"/>
</g>
</svg>
