<svg width="19" height="16" viewBox="0 0 19 16" fill="none" xmlns="http://www.w3.org/2000/svg">
<path d="M19 1.88782C18.2893 2.21262 17.5398 2.42806 16.7734 2.52782C17.5802 2.03064 18.1921 1.23467 18.4953 0.287817C17.727 0.755062 16.8956 1.08978 16.0312 1.27982C15.6615 0.869404 15.2182 0.544303 14.7282 0.324263C14.2383 0.104224 13.712 -0.00616024 13.1813 -0.000183308C12.6803 -0.0107918 12.1822 0.0850946 11.7156 0.281999C11.249 0.478903 10.823 0.772967 10.4618 1.14739C10.1007 1.52182 9.81147 1.96927 9.61079 2.46419C9.4101 2.9591 9.30184 3.49179 9.29219 4.03182C9.29089 4.3437 9.32075 4.65482 9.38125 4.95982C7.84251 4.89169 6.33347 4.48128 4.94894 3.75436C3.56441 3.02745 2.33431 1.99974 1.33594 0.735817C0.994283 1.34446 0.809789 2.04049 0.801562 2.75182C0.804734 3.42246 0.964042 4.08152 1.26488 4.66856C1.56572 5.25561 1.99846 5.75186 2.52344 6.11182C1.90951 6.0982 1.30807 5.92239 0.771875 5.59982V5.66382C0.785626 6.61173 1.10377 7.52521 1.67213 8.2487C2.2405 8.9722 3.02394 9.46098 3.88906 9.63182C3.54943 9.72351 3.20007 9.76655 2.85 9.75982C2.60164 9.7544 2.35381 9.73303 2.10781 9.69582C2.37397 10.513 2.86739 11.2218 3.52083 11.7257C4.17426 12.2296 4.95595 12.5041 5.75938 12.5118C4.36378 13.6401 2.66481 14.2468 0.920312 14.2398C0.612728 14.2355 0.305553 14.2141 0 14.1758C1.79188 15.3728 3.85909 16.0047 5.96719 15.9998C13.1516 15.9998 17.0703 9.85582 17.0703 4.51182V3.99982C17.8209 3.42002 18.4736 2.70565 19 1.88782Z" fill="#2A2A39"/>
</svg>
