<svg width="186" height="73" viewBox="0 0 186 73" fill="none" xmlns="http://www.w3.org/2000/svg">
<g clip-path="url(#clip0_18301_14753)">
<path d="M8.28111 29.6481C8.99397 31.1708 10.7606 34.185 10.7606 34.185L31.0616 0.531128L11.2255 14.3904C10.0478 15.1673 9.08695 16.2549 8.40509 17.4979C6.57645 21.3201 6.54546 25.7638 8.28111 29.6481Z" fill="url(#paint0_linear_18301_14753)"/>
<path d="M0.222586 40.7107C0.687493 47.2363 3.91085 53.2337 9.08681 57.1802L30.9994 72.5C30.9994 72.5 17.3002 52.6744 5.70849 32.9731C4.53072 30.8911 3.75588 28.6226 3.38395 26.2609C3.22898 25.2044 3.22898 24.1168 3.38395 23.0292C3.07402 23.5885 2.48513 24.7383 2.48513 24.7383C1.30737 27.131 0.50153 29.7102 0.129605 32.3516C-0.0563582 35.1172 -0.0563582 37.945 0.222586 40.7107Z" fill="#A0A8D4"/>
<path d="M56.1359 43.3831C55.4231 41.8604 53.6564 38.8462 53.6564 38.8462L33.3555 72.5001L53.1605 58.6408C54.3383 57.8639 55.2991 56.7763 55.9809 55.5333C57.8406 51.68 57.8716 47.2364 56.1359 43.3831Z" fill="url(#paint1_linear_18301_14753)"/>
<path d="M64.1929 32.2894C63.728 25.7637 60.5046 19.7663 55.3286 15.8198L33.416 0.5C33.416 0.5 47.1153 20.3256 58.707 40.027C59.8847 42.109 60.6596 44.3774 61.0315 46.7391C61.1865 47.7956 61.1865 48.8833 61.0315 49.9709C61.3414 49.4115 61.9303 48.2618 61.9303 48.2618C63.1081 45.869 63.9139 43.2898 64.2858 40.6485C64.4718 37.8828 64.4718 35.0861 64.1929 32.2894Z" fill="#A0A8D4"/>
<path d="M8.40495 17.4979C9.08681 16.2549 10.0476 15.1673 11.2254 14.3904L31.0304 0.531128L10.7295 34.185C10.7295 34.185 8.96284 31.1708 8.24998 29.6481C6.51433 25.7638 6.57632 21.3201 8.40495 17.4979ZM0.222586 40.7107C0.687493 47.2363 3.91085 53.2338 9.08681 57.1802L30.9994 72.5001C30.9994 72.5001 17.3002 52.6744 5.70849 32.9731C4.53072 30.8911 3.75588 28.6226 3.38395 26.261C3.22898 25.2044 3.22898 24.1168 3.38395 23.0292C3.07402 23.5885 2.48513 24.7383 2.48513 24.7383C1.30737 27.131 0.50153 29.7102 0.129605 32.3516C-0.0563582 35.1172 -0.0563582 37.945 0.222586 40.7107ZM56.1044 43.3831C55.3916 41.8604 53.6249 38.8462 53.6249 38.8462L33.355 72.5001L53.16 58.6408C54.3378 57.8639 55.2986 56.7763 55.9804 55.5333C57.8091 51.7111 57.8711 47.2674 56.1044 43.3831ZM64.1628 32.3205C63.6979 25.7948 60.4745 19.7974 55.2986 15.8509L33.4169 0.531128C33.4169 0.531128 47.1162 20.3568 58.7079 40.0581C59.8857 42.1401 60.6605 44.4086 61.0324 46.7702C61.1874 47.8268 61.1874 48.9144 61.0324 50.002C61.3424 49.4427 61.9312 48.2929 61.9312 48.2929C63.109 45.9001 63.9148 43.3209 64.2868 40.6796C64.5037 37.8829 64.5037 35.0862 64.2248 32.2894L64.1628 32.3205Z" fill="url(#paint2_linear_18301_14753)"/>
<path d="M85.1777 55.4711V18.2437C85.1777 18.1505 85.2707 18.0572 85.3637 18.0572H108.95C109.043 18.0572 109.136 18.1505 109.136 18.2437V22.9981C109.136 23.0913 109.043 23.1846 108.95 23.1846H90.8806V34.1539H106.285C106.377 34.1539 106.47 34.2471 106.47 34.3404V39.0326C106.47 39.1259 106.377 39.2191 106.285 39.2191H90.8806V50.5303H108.981C109.074 50.5303 109.167 50.6235 109.167 50.7167V55.4711C109.167 55.5644 109.074 55.6576 108.981 55.6576H85.3947C85.2707 55.6576 85.1777 55.5954 85.1777 55.4711ZM143.88 55.5644L126.616 29.213V55.4711C126.616 55.5644 126.523 55.6576 126.43 55.6576H121.1C121.007 55.6576 120.914 55.5644 120.914 55.4711V18.2748C120.914 18.1815 121.007 18.0883 121.1 18.0883H126.028C126.09 18.0883 126.152 18.1194 126.183 18.1815L143.477 44.5018V18.3058C143.477 18.2126 143.57 18.1194 143.663 18.1194H148.994C149.087 18.1194 149.18 18.2126 149.18 18.3058V55.5022C149.18 55.5954 149.087 55.6887 148.994 55.6887H144.066C143.973 55.6576 143.911 55.6265 143.88 55.5644ZM166.598 48.4483V50.2195C168.892 50.7167 171.217 50.9964 173.541 51.0275C175.835 50.9653 178.128 50.7167 180.391 50.2195V41.7983L161.082 35.024C161.02 34.9929 160.958 34.9308 160.958 34.8376V19.3624C160.958 19.2691 160.989 19.207 161.082 19.1759C165.111 18.0572 169.264 17.4357 173.448 17.4047C177.632 17.4668 181.816 18.0572 185.877 19.1759C185.97 19.207 186.001 19.2691 186.001 19.3624V25.2044C186.001 25.2976 185.908 25.3909 185.815 25.3909H180.577C180.484 25.3909 180.391 25.2976 180.391 25.2044V23.4331C178.097 22.936 175.773 22.6563 173.448 22.6252C171.155 22.6563 168.861 22.936 166.598 23.4331L166.629 31.3883L185.877 38.1315C185.939 38.1625 186.001 38.2247 186.001 38.3179V54.2903C186.001 54.3835 185.97 54.4457 185.877 54.4767C181.847 55.5954 177.694 56.2169 173.51 56.248C169.326 56.1858 165.142 55.5954 161.082 54.4767C160.989 54.4457 160.958 54.3835 160.958 54.2903V48.4483C160.958 48.355 161.051 48.2618 161.144 48.2618H166.35C166.443 48.2307 166.567 48.2929 166.598 48.3861C166.598 48.4068 166.598 48.4275 166.598 48.4483Z" fill="white"/>
</g>
<defs>
<linearGradient id="paint0_linear_18301_14753" x1="31.9387" y1="1.34218" x2="5.8026" y2="29.602" gradientUnits="userSpaceOnUse">
<stop offset="0.58" stop-color="#A0A8D4"/>
<stop offset="0.73" stop-color="#8791C7"/>
<stop offset="0.91" stop-color="#6470B4"/>
</linearGradient>
<linearGradient id="paint1_linear_18301_14753" x1="32.4659" y1="71.6766" x2="58.6051" y2="43.423" gradientUnits="userSpaceOnUse">
<stop offset="0.58" stop-color="#A0A8D4"/>
<stop offset="0.73" stop-color="#8791C7"/>
<stop offset="0.91" stop-color="#6470B4"/>
</linearGradient>
<linearGradient id="paint2_linear_18301_14753" x1="32.2206" y1="0.158232" x2="32.2206" y2="72.7238" gradientUnits="userSpaceOnUse">
<stop stop-color="#513EFF"/>
<stop offset="0.18" stop-color="#5157FF"/>
<stop offset="0.57" stop-color="#5298FF"/>
<stop offset="1" stop-color="#52E5FF"/>
</linearGradient>
<clipPath id="clip0_18301_14753">
<rect width="186" height="72" fill="white" transform="translate(0 0.5)"/>
</clipPath>
</defs>
</svg>
