<svg width="204" height="205" viewBox="0 0 204 205" fill="none" xmlns="http://www.w3.org/2000/svg">
<rect x="53.6255" y="30.9626" width="122.072" height="122.072" rx="42.9621" transform="rotate(10.7251 53.6255 30.9626)" fill="url(#paint0_linear_17_276)"/>
<g style="mix-blend-mode:color-dodge" opacity="0.5" filter="url(#filter0_f_17_276)">
<path fill-rule="evenodd" clip-rule="evenodd" d="M48.6996 63.4366C57.3857 48.4504 74.8628 39.8382 92.848 43.2447L132.407 50.7374C150.948 54.2492 164.315 69.4518 166.324 87.2706C166.054 67.27 151.769 49.5515 131.353 45.6847L95.8374 38.9577C75.9561 35.1921 56.6818 45.7791 48.6996 63.4366Z" fill="url(#paint1_linear_17_276)"/>
</g>
<path d="M102.844 109.877C102.215 109.785 87.3098 107.48 77.5574 94.4268C77.3509 94.1504 77.1508 93.8749 76.9556 93.5958C74.9336 90.7293 74.234 87.5717 74.9337 84.4632C75.5495 81.7217 77.2203 79.2189 79.6406 77.4182C82.0609 75.6176 84.9395 74.7337 87.7506 74.9275C90.6938 75.1297 93.3375 76.4871 95.4396 78.8639C96.1537 75.7772 97.8317 73.3299 100.322 71.7552C102.701 70.2515 105.656 69.6643 108.642 70.0994C111.628 70.5344 114.295 71.9409 116.144 74.0608C118.083 76.281 118.991 79.105 118.796 82.2675C121.489 80.5894 124.411 80.043 127.289 80.6891C130.036 81.3052 132.545 82.9742 134.349 85.3904C136.155 87.8069 137.042 90.6803 136.85 93.4856C136.631 96.6642 135.059 99.4909 132.305 101.662C132.039 101.871 131.766 102.08 131.492 102.286C118.415 112.013 103.474 109.969 102.844 109.877ZM88.2314 77.3842C85.6435 77.0071 83.0392 77.8525 81.0598 79.3251C77.5004 81.9733 75.3078 87.1419 78.8989 92.2356C79.0816 92.4955 79.2689 92.7538 79.4627 93.0131C88.6341 105.286 103.042 107.512 103.187 107.534C103.33 107.554 117.806 109.509 130.069 100.387C130.329 100.194 130.582 100 130.831 99.8033C135.726 95.9483 135.098 90.3665 132.442 86.8148C129.786 83.2609 124.606 81.0697 119.507 84.6486C119.246 84.8308 118.988 85.0176 118.728 85.2108C118.527 85.3603 118.334 85.5131 118.142 85.6659L115.557 87.6976L116.117 84.4707C116.159 84.2262 116.203 83.9798 116.24 83.7301C116.286 83.4121 116.328 83.0957 116.365 82.7785C117.091 76.5964 112.695 73.0896 108.302 72.4495C103.909 71.8093 98.6924 73.9131 97.6259 80.0478C97.5717 80.3603 97.5214 80.6755 97.4747 80.9957C97.4393 81.239 97.4105 81.4811 97.3821 81.721L96.9928 84.9925L95.1027 82.3152C94.9598 82.1113 94.8149 81.9071 94.6653 81.7044C94.4716 81.4451 94.2769 81.1923 94.0795 80.9434C92.3586 78.7681 90.2995 77.6855 88.2314 77.3842Z" fill="#9AEE67"/>
<path d="M130.974 132.201C126.459 133.55 121.553 133.358 117.134 131.654C112.847 129.999 109.3 127.099 106.813 123.237C107.076 123.484 107.348 123.725 107.63 123.959C109.958 125.888 112.682 127.083 115.52 127.497C118.042 127.865 120.656 127.615 123.163 126.711C123.341 126.648 123.518 126.581 123.695 126.511L122.828 124.263C122.674 124.325 122.521 124.383 122.366 124.438C117.835 126.07 112.895 125.195 109.149 122.093C105.315 118.917 103.455 114.068 104.176 109.122L104.31 108.201L104.289 108.198L101.945 107.856L101.924 107.853L101.789 108.774C101.069 113.72 97.9021 117.837 93.3212 119.786C88.8456 121.69 83.8609 121.122 79.9851 118.262C79.8521 118.165 79.7216 118.066 79.5917 117.963L78.1194 119.87C78.2692 119.987 78.4193 120.102 78.5722 120.213C80.7173 121.795 83.1494 122.78 85.6735 123.148C88.5115 123.561 91.4613 123.192 94.2444 122.009C94.5812 121.867 94.911 121.713 95.2335 121.549C91.7478 124.541 87.5205 126.309 82.9403 126.671C78.2177 127.046 73.4614 125.829 69.5189 123.246L68.0266 125.155C70.968 127.119 74.326 128.394 77.8111 128.902C79.5612 129.157 81.3416 129.219 83.1186 129.078C88.5963 128.645 93.6238 126.403 97.6514 122.601C98.5932 121.713 99.4426 120.736 100.196 119.694L98.4167 131.904L100.782 132.249L102.567 119.997C102.996 121.227 103.535 122.422 104.192 123.554C106.969 128.348 111.146 131.928 116.272 133.909C117.935 134.551 119.659 135 121.409 135.255C124.894 135.763 128.476 135.499 131.856 134.456L130.974 132.201Z" fill="#9AEE67"/>
<path d="M103.21 97.6488L101.57 97.4098C101.949 94.8052 99.8824 92.3376 96.9608 91.9119C94.0393 91.4862 91.3543 93.259 90.9744 95.8658L89.3342 95.6268C89.8543 92.0578 93.3901 89.6049 97.2158 90.1624C101.041 90.7199 103.731 94.0776 103.21 97.6488Z" fill="#9AEE67"/>
<path d="M97.6595 96.8402C98.6813 96.9891 99.6605 96.0744 99.8466 94.7972C100.033 93.5199 99.3553 92.3638 98.3335 92.2149C97.3117 92.066 96.3325 92.9807 96.1464 94.258C95.9603 95.5352 96.6377 96.6913 97.6595 96.8402Z" fill="#9AEE67"/>
<path d="M119.861 100.075L118.221 99.8361C118.6 97.2315 116.533 94.7639 113.612 94.3382C110.69 93.9124 108.005 95.6853 107.625 98.2921L105.985 98.0531C106.505 94.484 110.041 92.0312 113.867 92.5886C117.692 93.1461 120.381 96.5039 119.861 100.075Z" fill="#9AEE67"/>
<path d="M115.236 99.4013C116.769 99.6246 118.162 98.7703 118.348 97.493C118.534 96.2158 117.443 94.9993 115.91 94.776C114.377 94.5526 112.984 95.407 112.798 96.6842C112.612 97.9615 113.703 99.1779 115.236 99.4013Z" fill="#9AEE67"/>
<path d="M103.788 103.402C101.632 103.088 99.7556 101.964 99.0102 100.543L100.713 100.119C101.209 101.061 102.493 101.811 103.991 102.029C105.488 102.247 106.933 101.895 107.677 101.134L109.186 102.025C108.063 103.175 105.944 103.716 103.788 103.402Z" fill="#9AEE67"/>
<defs>
<filter id="filter0_f_17_276" x="48.2115" y="37.7113" width="118.601" height="50.0476" filterUnits="userSpaceOnUse" color-interpolation-filters="sRGB">
<feFlood flood-opacity="0" result="BackgroundImageFix"/>
<feBlend mode="normal" in="SourceGraphic" in2="BackgroundImageFix" result="shape"/>
<feGaussianBlur stdDeviation="0.244103" result="effect1_foregroundBlur_17_276"/>
</filter>
<linearGradient id="paint0_linear_17_276" x1="114.661" y1="30.9626" x2="76.8763" y2="139.564" gradientUnits="userSpaceOnUse">
<stop stop-color="#212428"/>
<stop offset="0.937272" stop-color="#15171B"/>
</linearGradient>
<linearGradient id="paint1_linear_17_276" x1="64.173" y1="42.6517" x2="165.031" y2="62.8907" gradientUnits="userSpaceOnUse">
<stop stop-color="#F3CCEB"/>
<stop offset="0.392952"/>
<stop offset="0.555099"/>
<stop offset="1" stop-color="#F7CDED"/>
</linearGradient>
</defs>
</svg>
