<svg width="100" height="95" viewBox="0 0 100 95" fill="none" xmlns="http://www.w3.org/2000/svg">
<g id="Layer_1" clip-path="url(#clip0_18910_10292)">
<g id="Group">
<path id="Vector" d="M50.0002 93.0006C46.0928 93.0006 42.5929 90.9439 40.6393 87.4978L3.20308 21.4791C0.898451 17.4132 0.898451 12.5577 3.20308 8.4918C5.51017 4.42592 9.63839 1.99939 14.2501 1.99939H85.7502C90.3619 1.99939 94.4901 4.42592 96.7948 8.4918C99.0994 12.5577 99.0994 17.4132 96.7948 21.4791L59.3586 87.4978C57.4049 90.9439 53.905 93.0006 49.9977 93.0006H50.0002Z" fill="#161616"/>
<path id="Vector_2" d="M85.7501 3.4988C94.4335 3.4988 99.8626 13.07 95.5208 20.7294L77.6458 52.2544L58.0846 86.7506C56.288 89.9193 53.144 91.5037 50 91.5037C46.856 91.5037 43.712 89.9193 41.9154 86.7506L22.3542 52.2544L4.47919 20.7294C0.137443 13.07 5.56401 3.4988 14.25 3.4988H85.7501ZM85.7501 0.5H14.25C9.10564 0.5 4.50128 3.20642 1.92912 7.74211C-0.643039 12.2778 -0.643039 17.6931 1.92912 22.2288L19.8041 53.7538L39.3653 88.25C41.584 92.1659 45.5601 94.5025 50 94.5025C54.4399 94.5025 58.416 92.1659 60.6347 88.25L80.1959 53.7538L98.0709 22.2288C100.643 17.6931 100.643 12.2778 98.0709 7.74211C95.4987 3.20642 90.8944 0.5 85.7501 0.5Z" fill="white"/>
</g>
<path id="Vector_3" d="M49.3496 87.3153L44.517 54.2036L32.228 62.3103L44.571 84.0491C45.6631 85.9709 47.4597 87.0579 49.3496 87.3153Z" fill="#CD7FEA"/>
<path id="Vector_4" d="M51.3623 87.2779L56.2023 53.6438L44.5146 54.2036L49.3473 87.3154C50.0173 87.4078 50.6972 87.3928 51.3623 87.2779Z" fill="white"/>
<path id="Vector_5" d="M55.9642 83.9417L67.7279 62.3103L63.6561 59.3215L56.2047 53.6438L51.3647 87.2779C53.2055 86.9555 54.9309 85.846 55.9642 83.9417Z" fill="#5B6AF4"/>
<g id="Group_2">
<g id="Group_3">
<path id="Vector_6" d="M50 64.297C46.8854 64.297 44.3501 61.718 44.3501 58.5443C44.3501 57.6872 45.0349 56.9899 45.8767 56.9899H54.1209C54.9627 56.9899 55.6475 57.6872 55.6475 58.5443C55.6475 61.7155 53.1146 64.297 49.9976 64.297H50Z" fill="white"/>
<g id="Group_4">
<path id="Vector_7" d="M50.0002 66.6036C45.6364 66.6036 42.085 62.9875 42.085 58.5443C42.085 56.4152 43.7858 54.6833 45.8769 54.6833H54.1211C56.2122 54.6833 57.9131 56.4152 57.9131 58.5443C57.9131 62.9875 54.3616 66.6036 49.9978 66.6036H50.0002ZM46.6991 59.2965C47.0378 60.8359 48.3902 61.9879 50.0002 61.9879C51.6103 61.9879 52.9651 60.8334 53.3013 59.2965H46.6967H46.6991Z" fill="white"/>
<path id="Vector_8" d="M54.121 58.047C54.3909 58.047 54.6094 58.2694 54.6094 58.5443C54.6094 61.1358 52.5453 63.2374 50.0001 63.2374C47.4549 63.2374 45.3908 61.1358 45.3908 58.5443C45.3908 58.2694 45.6093 58.047 45.8792 58.047H54.1234M54.1234 55.9329H45.8792C44.4655 55.9329 43.3145 57.1049 43.3145 58.5443C43.3145 62.2978 46.3137 65.3541 50.0026 65.3541C53.6914 65.3541 56.6907 62.3003 56.6907 58.5443C56.6907 57.1049 55.5396 55.9329 54.1259 55.9329H54.1234Z" fill="black"/>
</g>
</g>
<g id="Group_5">
<path id="Vector_9" d="M37.6644 57.7521C35.939 57.7521 34.5376 56.2652 34.5376 54.4385V42.938C34.5376 33.7617 41.4736 26.2972 50 26.2972C58.5264 26.2972 65.4624 33.7617 65.4624 42.938V54.4385C65.4624 56.2652 64.0585 57.7521 62.3356 57.7521H37.6669H37.6644ZM50 35.1137C49.8724 35.1137 49.8405 35.2036 49.8282 35.2361L48.3949 39.282C48.0341 40.2991 47.256 41.0913 46.2571 41.4586L42.2835 42.9181C42.2516 42.9305 42.1633 42.963 42.1633 43.093C42.1633 43.2229 42.2516 43.2554 42.2835 43.2679L46.2571 44.7273C47.256 45.0947 48.0341 45.8869 48.3949 46.904L49.8282 50.9523C49.8405 50.9848 49.8724 51.0748 50 51.0748C50.1276 51.0748 50.1595 50.9848 50.1718 50.9523L51.6051 46.9065C51.9659 45.8894 52.744 45.0972 53.7429 44.7298L57.7165 43.2704C57.7484 43.2579 57.8367 43.2254 57.8367 43.0955C57.8367 42.9655 57.7484 42.933 57.7165 42.9205L53.7429 41.4611C52.744 41.0963 51.9659 40.3016 51.6051 39.2845L50.1718 35.2386C50.1595 35.2061 50.1276 35.1162 50 35.1162V35.1137Z" fill="white"/>
<g id="Group_6">
<path id="Vector_10" d="M62.3333 60.0612H37.6647C34.69 60.0612 32.2725 57.5397 32.2725 54.441V42.938C32.2725 32.4922 40.2246 23.9906 50.0002 23.9906C59.7759 23.9906 67.728 32.4897 67.728 42.938V54.441C67.728 57.5397 65.308 60.0612 62.3358 60.0612H62.3333ZM49.9978 28.6063C42.7206 28.6063 36.8007 35.0362 36.8007 42.938V54.441C36.8007 54.9957 37.1885 55.4481 37.6622 55.4481H62.3309C62.807 55.4481 63.1924 54.9957 63.1924 54.441V42.938C63.1924 35.0362 57.2725 28.6063 49.9953 28.6063H49.9978ZM49.9978 53.3839C48.9522 53.3839 48.049 52.7366 47.6956 51.737L46.2623 47.6911C46.1322 47.3238 45.8499 47.0364 45.4867 46.9015L41.5131 45.442C40.5313 45.0822 39.8957 44.1601 39.8957 43.098C39.8957 42.0359 40.5313 41.1138 41.5131 40.7539L45.4867 39.2945C45.8475 39.1621 46.1297 38.8747 46.2623 38.5048L47.6956 34.4589C48.049 33.4593 48.9547 32.8121 49.9978 32.8121C51.0409 32.8121 51.9465 33.4593 52.2999 34.4589L53.7333 38.5048C53.8634 38.8722 54.1456 39.1596 54.5089 39.2945L58.4825 40.7539C59.4642 41.1138 60.0999 42.0359 60.0999 43.098C60.0999 44.1601 59.4642 45.0822 58.4825 45.442L54.5089 46.9015C54.1481 47.0339 53.8658 47.3213 53.7333 47.6911L52.2999 51.737C51.9441 52.7366 51.0409 53.3839 49.9978 53.3839Z" fill="white"/>
<path id="Vector_11" d="M50.0001 27.3568C57.9669 27.3568 64.4243 34.334 64.4243 42.9381V54.441C64.4243 55.688 63.4892 56.6976 62.3356 56.6976H37.667C36.5134 56.6976 35.5783 55.688 35.5783 54.441V42.9381C35.5783 34.3315 42.0357 27.3568 50.0025 27.3568M50.0025 52.1344C50.4787 52.1344 50.9573 51.8595 51.1512 51.3122L52.5845 47.2663C52.8398 46.5491 53.392 45.9843 54.0964 45.7269L58.07 44.2675C59.145 43.8727 59.145 42.3233 58.07 41.9285L54.0964 40.469C53.392 40.2091 52.8373 39.6469 52.5845 38.9297L51.1512 34.8838C50.9573 34.3365 50.4787 34.0616 50.0025 34.0616C49.5264 34.0616 49.0478 34.3365 48.8539 34.8838L47.4206 38.9297C47.1653 39.6469 46.6131 40.2116 45.9087 40.469L41.9351 41.9285C40.8601 42.3233 40.8601 43.8727 41.9351 44.2675L45.9087 45.7269C46.6131 45.9868 47.1678 46.5491 47.4206 47.2663L48.8539 51.3122C49.0478 51.8595 49.5264 52.1344 50.0025 52.1344ZM50.0025 25.2426C40.9043 25.2426 33.502 33.1819 33.502 42.9406V54.4435C33.502 56.855 35.3697 58.8142 37.667 58.8142H62.3356C64.6329 58.8142 66.5007 56.8525 66.5007 54.4435V42.9406C66.5007 33.1819 59.0984 25.2426 50.0001 25.2426H50.0025ZM44.8705 43.0955L46.6131 42.4557C47.9016 41.9809 48.9079 40.9563 49.3742 39.6444L50.0025 37.8701L50.6309 39.6444C51.0972 40.9563 52.1035 41.9834 53.392 42.4557L55.1346 43.0955L53.392 43.7352C52.1035 44.21 51.0972 45.2346 50.6309 46.5466L50.0025 48.3209L49.3742 46.5466C48.9079 45.2346 47.9016 44.2075 46.6131 43.7352L44.8705 43.0955Z" fill="black"/>
</g>
</g>
</g>
<g id="Group_7">
<path id="Vector_12" d="M28.392 9.96127C28.0803 9.70137 27.6704 9.50645 27.1648 9.3765C26.6592 9.24655 26.0358 9.18158 25.2946 9.18158H21.0952V18.0006H23.3017V15.3791H25.2971C26.0456 15.3791 26.6715 15.3116 27.1722 15.1767C27.6729 15.0417 28.0803 14.8443 28.3945 14.5844C28.7062 14.3245 28.9295 14.0022 29.062 13.6198C29.1946 13.2375 29.2608 12.7901 29.2608 12.2778C29.2608 11.7655 29.1946 11.3157 29.062 10.9309C28.9295 10.5435 28.7086 10.2212 28.3945 9.96127H28.392ZM26.9317 12.8076C26.8875 12.9576 26.8016 13.085 26.674 13.185C26.5463 13.2849 26.3672 13.3624 26.1389 13.4124C25.9106 13.4624 25.6063 13.4874 25.2283 13.4874H23.2992V11.0683H25.2283C25.6063 11.0683 25.9106 11.0933 26.1389 11.1433C26.3672 11.1933 26.5463 11.2682 26.674 11.3707C26.8016 11.4707 26.8875 11.5981 26.9317 11.7481C26.9758 11.898 26.9979 12.0754 26.9979 12.2778C26.9979 12.4803 26.9758 12.6552 26.9317 12.8076Z" fill="#D37CE8"/>
<path id="Vector_13" d="M36.7711 8.98914C35.1586 8.98914 33.9658 9.37648 33.1927 10.1487C32.4171 10.9209 32.0293 12.0679 32.0293 13.5873C32.0293 15.1067 32.4171 16.2537 33.1927 17.0259C33.9682 17.7981 35.161 18.1855 36.7711 18.1855C38.3812 18.1855 39.5617 17.7981 40.3373 17.0259C41.1128 16.2537 41.5006 15.1067 41.5006 13.5873C41.5006 12.0679 41.1128 10.9209 40.3373 10.1487C39.5617 9.37648 38.3738 8.98914 36.7711 8.98914ZM38.6266 15.5765C38.2265 16.0213 37.6031 16.2437 36.7564 16.2437C35.9096 16.2437 35.2911 16.0213 34.8935 15.5765C34.4984 15.1317 34.2996 14.467 34.2996 13.5873C34.2996 12.7077 34.4886 12.0429 34.8665 11.5981C35.2445 11.1533 35.8753 10.9309 36.7564 10.9309C37.6375 10.9309 38.2241 11.1533 38.6266 11.5981C39.0266 12.0429 39.2279 12.7077 39.2279 13.5873C39.2279 14.467 39.0266 15.1317 38.6266 15.5765Z" fill="#D37CE8"/>
<path id="Vector_14" d="M46.7431 9.17908H44.5366V17.9981H46.7431V9.17908Z" fill="#D37CE8"/>
<path id="Vector_15" d="M56.2539 14.5095L52.2509 9.17908H50.0469V17.9981H52.2509V12.6627L56.2539 17.9981H58.4457V9.17908H56.2539V14.5095Z" fill="#D37CE8"/>
<path id="Vector_16" d="M63.9925 9.17908H61.2461V11.0683H63.9925V17.9981H66.199V11.0683H68.9478V9.17908H66.199H63.9925Z" fill="#D37CE8"/>
<path id="Vector_17" d="M79.6314 14.1921C79.4546 13.8572 79.2043 13.5773 78.8779 13.3549C78.5514 13.1325 78.1563 12.9551 77.69 12.8251C77.2236 12.6952 76.6984 12.5877 76.1192 12.5027C75.6872 12.4453 75.3215 12.3903 75.0221 12.3453C74.7227 12.3003 74.4797 12.2478 74.2956 12.1879C74.1115 12.1304 73.979 12.0604 73.9004 11.9804C73.8219 11.9005 73.7826 11.798 73.7826 11.6731C73.7826 11.5556 73.8145 11.4507 73.8808 11.3582C73.9471 11.2657 74.0502 11.1883 74.1901 11.1258C74.33 11.0633 74.5091 11.0158 74.7251 10.9883C74.9411 10.9584 75.2037 10.9434 75.5105 10.9434C75.8001 10.9434 76.0774 10.9534 76.3425 10.9758C76.6076 10.9958 76.8408 11.0433 77.042 11.1133C77.2457 11.1858 77.4053 11.2907 77.5231 11.4282C77.6409 11.5656 77.7022 11.753 77.7022 11.9879H79.7884C79.7884 11.4332 79.6927 10.9658 79.5037 10.5835C79.3147 10.2012 79.0423 9.89377 78.6913 9.65637C78.3379 9.42146 77.9108 9.25153 77.4102 9.14657C76.9095 9.04161 76.3401 8.98914 75.7068 8.98914C74.2637 8.98914 73.2034 9.20655 72.5309 9.64387C71.8584 10.0812 71.5197 10.8084 71.5197 11.823C71.5197 12.2928 71.6056 12.6877 71.7774 13.0075C71.9492 13.3274 72.1947 13.5923 72.5113 13.8072C72.8279 14.0221 73.2059 14.1921 73.6403 14.317C74.0772 14.442 74.5582 14.5469 75.0859 14.6319C75.4025 14.6744 75.7142 14.7144 76.0161 14.7518C76.3204 14.7893 76.5904 14.8368 76.8285 14.8893C77.0666 14.9443 77.2604 15.0217 77.4102 15.1217C77.5599 15.2216 77.636 15.3616 77.636 15.5365C77.636 15.7964 77.4887 15.9788 77.1942 16.0838C76.8997 16.1888 76.453 16.2412 75.8541 16.2412C75.5547 16.2412 75.2651 16.2312 74.9877 16.2088C74.7104 16.1888 74.4649 16.1388 74.2539 16.0638C74.0428 15.9888 73.8759 15.8814 73.7532 15.7414C73.6305 15.604 73.5691 15.4166 73.5691 15.1817H71.4829C71.4829 15.7364 71.5786 16.2038 71.7676 16.5861C71.9566 16.9685 72.2315 17.2758 72.5923 17.5132C72.9531 17.7481 73.3899 17.9181 73.9004 18.023C74.411 18.128 74.9877 18.1805 75.6308 18.1805C77.1009 18.1805 78.1808 17.9631 78.8656 17.5307C79.5528 17.0984 79.8964 16.3962 79.8964 15.4216C79.8964 14.9343 79.8081 14.5219 79.6314 14.1871V14.1921Z" fill="#D37CE8"/>
</g>
<path id="Vector_18" d="M24.7275 28.0865L25.967 27.6317C26.8849 27.2943 27.5991 26.5646 27.9305 25.6325L28.3772 24.3705L28.8238 25.6325C29.1552 26.5671 29.8719 27.2943 30.7873 27.6317L32.0268 28.0865L30.7873 28.5413C29.8694 28.8787 29.1552 29.6084 28.8238 30.5405L28.3772 31.8025L27.9305 30.5405C27.5991 29.6059 26.8825 28.8787 25.967 28.5413L24.7275 28.0865Z" fill="white"/>
<path id="Vector_19" d="M21.0928 38.7572L21.8708 38.4698C22.4476 38.2574 22.8967 37.8001 23.1053 37.2128L23.3876 36.4207L23.6698 37.2128C23.8785 37.8001 24.3276 38.2574 24.9044 38.4698L25.6824 38.7572L24.9044 39.0446C24.3276 39.257 23.8785 39.7143 23.6698 40.3016L23.3876 41.0938L23.1053 40.3016C22.8967 39.7143 22.4476 39.257 21.8708 39.0446L21.0928 38.7572Z" fill="white"/>
<path id="Vector_20" d="M80 29.6937L80.778 29.4063C81.3548 29.1939 81.8039 28.7366 82.0126 28.1493L82.2948 27.3571L82.5771 28.1493C82.7857 28.7366 83.2348 29.1939 83.8116 29.4063L84.5896 29.6937L83.8116 29.9811C83.2348 30.1935 82.7857 30.6508 82.5771 31.2381L82.2948 32.0303L82.0126 31.2381C81.8039 30.6508 81.3548 30.1935 80.778 29.9811L80 29.6937Z" fill="white"/>
<path id="Vector_21" d="M71.4829 38.3074L72.7224 37.8526C73.6403 37.5153 74.3545 36.7856 74.6858 35.8534L75.1325 34.5914L75.5792 35.8534C75.9106 36.7881 76.6272 37.5153 77.5427 37.8526L78.7821 38.3074L77.5427 38.7623C76.6248 39.0996 75.9106 39.8293 75.5792 40.7615L75.1325 42.0235L74.6858 40.7615C74.3545 39.8268 73.6378 39.0996 72.7224 38.7623L71.4829 38.3074Z" fill="white"/>
<path id="Vector_22" d="M68.8887 26.2381L69.6438 25.9634C70.2008 25.761 70.6372 25.3215 70.8381 24.7605L71.1109 24L71.3837 24.7605C71.5846 25.3215 72.021 25.761 72.578 25.9634L73.3331 26.2381L72.578 26.5128C72.021 26.7152 71.5846 27.1547 71.3837 27.7157L71.1109 28.4762L70.8381 27.7157C70.6372 27.1547 70.2008 26.7152 69.6438 26.5128L68.8887 26.2381Z" fill="white"/>
</g>
<defs>
<clipPath id="clip0_18910_10292">
<rect width="100" height="94" fill="white" transform="translate(0 0.5)"/>
</clipPath>
</defs>
</svg>
