<svg width="24" height="25" viewBox="0 0 24 25" fill="none" xmlns="http://www.w3.org/2000/svg">
<g id="github 1" clip-path="url(#clip0_958_5067)">
<path id="Vector" d="M12 0.707031C5.37 0.707031 0 5.98703 0 12.499C0 17.71 3.438 22.129 8.205 23.687C8.805 23.798 9.025 23.433 9.025 23.12C9.025 22.84 9.015 22.098 9.01 21.115C5.672 21.826 4.968 19.533 4.968 19.533C4.422 18.172 3.633 17.808 3.633 17.808C2.546 17.077 3.717 17.092 3.717 17.092C4.922 17.174 5.555 18.307 5.555 18.307C6.625 20.11 8.364 19.589 9.05 19.288C9.158 18.525 9.467 18.006 9.81 17.711C7.145 17.416 4.344 16.402 4.344 11.884C4.344 10.597 4.809 9.54503 5.579 8.72003C5.444 8.42203 5.039 7.22303 5.684 5.59903C5.684 5.59903 6.689 5.28303 8.984 6.80803C9.944 6.54603 10.964 6.41603 11.984 6.41003C13.004 6.41603 14.024 6.54603 14.984 6.80803C17.264 5.28303 18.269 5.59903 18.269 5.59903C18.914 7.22303 18.509 8.42203 18.389 8.72003C19.154 9.54503 19.619 10.597 19.619 11.884C19.619 16.414 16.814 17.411 14.144 17.701C14.564 18.055 14.954 18.778 14.954 19.883C14.954 21.461 14.939 22.729 14.939 23.112C14.939 23.421 15.149 23.79 15.764 23.672C20.565 22.124 24 17.702 24 12.499C24 5.98703 18.627 0.707031 12 0.707031Z" fill="#6C6C6C"/>
</g>
<defs>
<clipPath id="clip0_958_5067">
<rect width="24" height="24" fill="white" transform="translate(0 0.207031)"/>
</clipPath>
</defs>
</svg>
