<svg width="22" height="23" viewBox="0 0 22 23" fill="none" xmlns="http://www.w3.org/2000/svg">
<path fill-rule="evenodd" clip-rule="evenodd" d="M10.9998 0.499828C8.38706 0.498937 5.85934 1.45166 3.86918 3.18741C1.87901 4.92317 0.556363 7.32863 0.138033 9.9731C-0.280297 12.6176 0.233009 15.3284 1.58605 17.6202C2.93909 19.912 5.04351 21.6352 7.52254 22.4811C8.06899 22.5857 8.273 22.2365 8.273 21.9395C8.273 21.6425 8.26389 20.7815 8.25843 19.8383C5.19832 20.5219 4.55351 18.5085 4.55351 18.5085C4.0526 17.2011 3.33129 16.8574 3.33129 16.8574C2.33311 16.157 3.40779 16.172 3.40779 16.172C4.51161 16.2523 5.09267 17.3337 5.09267 17.3337C6.07446 19.0595 7.66644 18.5608 8.29486 18.2675C8.39322 17.5391 8.67737 17.0423 8.99249 16.7603C6.54987 16.4745 3.98156 15.507 3.98156 11.1851C3.96519 10.0646 4.37102 8.98076 5.11453 8.15939C4.99977 7.87363 4.62273 6.72684 5.22018 5.17102C5.22018 5.17102 6.14367 4.86845 8.24568 6.32902C10.0489 5.821 11.9524 5.821 13.7557 6.32902C15.8541 4.86845 16.7775 5.17102 16.7775 5.17102C17.375 6.72498 16.9998 7.87176 16.885 8.15939C17.6279 8.98105 18.033 10.0648 18.0162 11.1851C18.0162 15.5183 15.4442 16.4727 12.9943 16.751C13.3896 17.1002 13.7411 17.7875 13.7411 18.8391C13.7411 20.3482 13.7284 21.5641 13.7284 21.9358C13.7284 22.2346 13.9251 22.5876 14.4825 22.4755C16.9606 21.6284 19.0638 19.9046 20.4157 17.6127C21.7676 15.3208 22.28 12.6103 21.8611 9.96645C21.4421 7.32259 20.1193 4.91789 18.1293 3.18272C16.1393 1.44756 13.612 0.495205 10.9998 0.496094V0.499828Z" fill="white"/>
</svg>
