<?xml version="1.0" encoding="utf-8"?>
<!-- Generator: Adobe Illustrator 26.0.1, SVG Export Plug-In . SVG Version: 6.00 Build 0)  -->
<svg version="1.1" id="Layer_1" xmlns="http://www.w3.org/2000/svg" xmlns:xlink="http://www.w3.org/1999/xlink" x="0px" y="0px"
	 viewBox="0 0 110 42" style="enable-background:new 0 0 110 42;" xml:space="preserve">
<style type="text/css">
	.st0{fill:none;}
	.st1{fill:url(#SVGID_1_);}
	.st2{fill:url(#SVGID_00000122709068246331127640000006237370681586644357_);}
	.st3{fill:url(#SVGID_00000006665758232543393320000010393899045554529927_);}
	.st4{fill:url(#SVGID_00000028302109015280581990000012594862587405108918_);}
	.st5{fill:url(#SVGID_00000021111249170118782750000002270354962978056072_);}
	.st6{fill:url(#SVGID_00000041276646730371461600000010047535120420920983_);}
	.st7{fill:#FFFFFF;}
</style>
<rect y="0.1" class="st0" width="109.4" height="42"/>
<linearGradient id="SVGID_1_" gradientUnits="userSpaceOnUse" x1="298.0981" y1="-866.7175" x2="289.3409" y2="-881.6364" gradientTransform="matrix(0.875 0 0 -0.875 -234.8125 -730.75)">
	<stop  offset="0" style="stop-color:#FF94A6"/>
	<stop  offset="0.32" style="stop-color:#E03DC1"/>
	<stop  offset="1" style="stop-color:#8247E5"/>
</linearGradient>
<path class="st1" d="M19.8,42.2c1.1,0,2.3-0.3,3.2-1c1-0.6,1.7-1.5,2.2-2.6c0.1-0.1,0.1-0.2,0.1-0.4c0-0.1-0.1-0.2-0.1-0.4
	c-0.1-0.1-0.2-0.2-0.3-0.3c-0.1-0.1-0.2-0.1-0.4-0.1h-9.4c-0.1,0-0.3,0-0.4,0.1c-0.1,0.1-0.2,0.1-0.3,0.3c-0.1,0.1-0.1,0.2-0.1,0.4
	c0,0.1,0,0.3,0.1,0.4c0.5,1,1.2,1.9,2.2,2.5C17.6,41.9,18.7,42.2,19.8,42.2z"/>
<linearGradient id="SVGID_00000085929977687082255630000002184361285544430473_" gradientUnits="userSpaceOnUse" x1="302.3487" y1="-850.212" x2="283.8518" y2="-876.5499" gradientTransform="matrix(0.875 0 0 -0.875 -234.8125 -730.75)">
	<stop  offset="0" style="stop-color:#FF94A6"/>
	<stop  offset="0.32" style="stop-color:#E03DC1"/>
	<stop  offset="1" style="stop-color:#8247E5"/>
</linearGradient>
<path style="fill:url(#SVGID_00000085929977687082255630000002184361285544430473_);" d="M34.2,31.9c-0.4,0-0.7-0.1-1.1-0.2
	c-0.3-0.1-0.6-0.3-0.9-0.6c-0.3-0.3-0.5-0.6-0.6-0.9s-0.2-0.7-0.2-1.1v-9.7c0-5.1-3.2-9.6-7.8-11.2C23.4,8.1,23.2,8,23,7.8
	s-0.3-0.4-0.4-0.6c-0.2-0.6-0.6-1-1.1-1.4c-0.5-0.3-1.1-0.5-1.7-0.5s-1.2,0.2-1.7,0.5S17.2,6.6,17,7.2c-0.1,0.2-0.2,0.4-0.4,0.6
	C16.4,8,16.2,8.1,16,8.2c-2.3,0.8-4.3,2.3-5.7,4.2c-1.4,2-2.2,4.3-2.2,6.7v10c0,0.7-0.3,1.4-0.8,1.9s-1.2,0.8-1.9,0.8
	c-0.2,0-0.3,0-0.5,0.1s-0.3,0.2-0.4,0.3s-0.2,0.3-0.3,0.4c-0.1,0.2-0.1,0.3-0.1,0.5c0,0.3,0.1,0.7,0.4,0.9c0.2,0.2,0.6,0.4,0.9,0.4
	h28.8c0.3,0,0.7-0.1,0.9-0.4c0.2-0.2,0.4-0.6,0.4-0.9c0-0.3-0.1-0.7-0.4-0.9C34.9,32,34.6,31.9,34.2,31.9z"/>
<linearGradient id="SVGID_00000134245558614124275410000004024548805094297226_" gradientUnits="userSpaceOnUse" x1="317.4102" y1="-836.7911" x2="272.4662" y2="-866.6863" gradientTransform="matrix(0.875 0 0 -0.875 -234.8125 -730.75)">
	<stop  offset="0" style="stop-color:#FF94A6"/>
	<stop  offset="0.32" style="stop-color:#E03DC1"/>
	<stop  offset="1" style="stop-color:#8247E5"/>
</linearGradient>
<path style="fill:url(#SVGID_00000134245558614124275410000004024548805094297226_);" d="M28.2,5.8c1.5,0.4,3,1.2,4.1,2.4
	s1.8,2.7,1.9,4.4c0,0.2,0.1,0.3,0.2,0.5c0.1,0.1,0.3,0.2,0.5,0.2s0.3-0.1,0.5-0.2c0.1-0.1,0.2-0.3,0.2-0.5c-0.2-1.9-1-3.7-2.2-5.1
	c-1.3-1.4-3-2.4-4.8-2.8h-0.1c-0.2,0-0.3,0.1-0.4,0.2c-0.4-0.1-0.4,0-0.5,0.2c0,0.2,0,0.3,0.1,0.5C27.9,5.6,28,5.8,28.2,5.8z"/>
<linearGradient id="SVGID_00000073682198427823879170000006893261261018140350_" gradientUnits="userSpaceOnUse" x1="316.8141" y1="-835.8942" x2="271.8676" y2="-865.7894" gradientTransform="matrix(0.875 0 0 -0.875 -234.8125 -730.75)">
	<stop  offset="0" style="stop-color:#FF94A6"/>
	<stop  offset="0.32" style="stop-color:#E03DC1"/>
	<stop  offset="1" style="stop-color:#8247E5"/>
</linearGradient>
<path style="fill:url(#SVGID_00000073682198427823879170000006893261261018140350_);" d="M28.9,1.4c2.5,0.5,4.7,1.9,6.4,3.7
	c1.7,1.9,2.7,4.3,3,6.8c0,0.1,0,0.2,0.1,0.2c0,0.1,0.1,0.1,0.2,0.2c0.1,0.1,0.1,0.1,0.2,0.1s0.2,0,0.3,0s0.2,0,0.3-0.1
	c0.1,0,0.1-0.1,0.2-0.2c0.1-0.1,0.1-0.1,0.1-0.2c0-0.1,0-0.2,0-0.3c-0.3-2.8-1.4-5.5-3.3-7.6c-1.9-2-4.4-3.5-7.1-4.1h-0.1
	c-0.2,0-0.3,0.1-0.5,0.2c-0.1,0.1-0.2,0.3-0.2,0.4s0,0.3,0.1,0.5C28.6,1.3,28.8,1.4,28.9,1.4L28.9,1.4z"/>
<linearGradient id="SVGID_00000060008470159594360890000002281337690689574590_" gradientUnits="userSpaceOnUse" x1="308.8597" y1="-823.9362" x2="263.9134" y2="-853.8314" gradientTransform="matrix(0.875 0 0 -0.875 -234.8125 -730.75)">
	<stop  offset="0" style="stop-color:#FF94A6"/>
	<stop  offset="0.32" style="stop-color:#E03DC1"/>
	<stop  offset="1" style="stop-color:#8247E5"/>
</linearGradient>
<path style="fill:url(#SVGID_00000060008470159594360890000002281337690689574590_);" d="M11.5,5.8c0.2,0,0.3-0.1,0.4-0.3
	C12,5.3,12,5.1,12,4.9s-0.1-0.3-0.2-0.4c-0.1-0.1-0.3-0.2-0.5-0.2h-0.1C9.3,4.8,7.6,5.8,6.3,7.2s-2.1,3.2-2.2,5.1
	c0,0.2,0,0.4,0.2,0.5c0.1,0.1,0.1,0.1,0.2,0.2c0,0,0.1,0.1,0.2,0.1s0.2,0,0.3,0c0.1,0,0.2-0.1,0.2-0.1c0.1-0.1,0.1-0.1,0.2-0.2
	c0-0.1,0.1-0.2,0.1-0.2c0.1-1.7,0.8-3.3,1.9-4.5C8.4,6.9,9.9,6.1,11.5,5.8z"/>
<linearGradient id="SVGID_00000103959415019746550390000009239492995557493391_" gradientUnits="userSpaceOnUse" x1="306.676" y1="-820.6532" x2="261.7468" y2="-850.5409" gradientTransform="matrix(0.875 0 0 -0.875 -234.8125 -730.75)">
	<stop  offset="0" style="stop-color:#FF94A6"/>
	<stop  offset="0.32" style="stop-color:#E03DC1"/>
	<stop  offset="1" style="stop-color:#8247E5"/>
</linearGradient>
<path style="fill:url(#SVGID_00000103959415019746550390000009239492995557493391_);" d="M10.7,1.4c0.2,0,0.3-0.1,0.4-0.3
	c0.1-0.1,0.1-0.3,0.1-0.5S11.1,0.3,11,0.2c-0.1,0-0.3-0.1-0.4-0.1h-0.1C7.7,0.7,5.2,2.2,3.3,4.3s-3,4.8-3.3,7.6c0,0.1,0,0.2,0,0.3
	s0.1,0.2,0.1,0.2c0.1,0.1,0.1,0.1,0.2,0.2c0.1,0,0.2,0.1,0.2,0.1c0.1,0,0.2,0,0.3,0S1,12.6,1,12.6c0.1-0.1,0.1-0.1,0.2-0.2
	c0-0.1,0.1-0.2,0.1-0.2c0.2-2.5,1.3-4.9,3-6.8C6,3.3,8.2,2,10.7,1.4z"/>
<path class="st7" d="M103.7,15.2c-0.8,0-1.5,0.1-2.2,0.4c-0.7,0.3-1.3,0.7-1.9,1.2V8.5l0,0l0,0l0,0l0,0h-3.3l0,0l0,0l0,0l0,0v22.8
	l0,0l0,0l0,0l0,0h3.3l0,0l0,0l0,0l0,0v-9.2c0-0.8,0.3-1.6,0.9-2.2s1.3-1,2.2-1c0.4,0,0.9,0,1.3,0.2c0.4,0.1,0.8,0.4,1.1,0.7
	c0.3,0.3,0.6,0.6,0.7,1c0.2,0.4,0.3,0.8,0.3,1.2v9.3v0.1c0,0,0,0,0.1,0h3.2l0,0l0,0l0,0l0,0V21c0-1.5-0.6-3-1.7-4.1
	C106.6,15.9,105.2,15.3,103.7,15.2z"/>
<path class="st7" d="M79,14.6h-3.3h-0.1c0,0,0,0,0,0.1v10.1c0,0.4-0.1,0.8-0.3,1.2c-0.2,0.4-0.4,0.7-0.7,1c-0.3,0.3-0.7,0.5-1.1,0.6
	s-0.8,0.2-1.2,0.2c-0.8,0-1.5-0.4-2.1-1c-0.5-0.6-0.8-1.4-0.8-2.2v-10v-0.1c0,0,0,0-0.1,0H66h-0.1c0,0,0,0,0,0.1v10
	c0,1.7,0.7,3.4,1.8,4.6c1.2,1.2,2.8,2,4.5,2c0.9,0,1.7-0.1,2.6-0.4c0.8-0.3,1.6-0.8,2.2-1.4s1.1-1.3,1.5-2.1
	c0.3-0.8,0.5-1.7,0.5-2.5v-10C79.1,14.8,79.1,14.8,79,14.6C79,14.8,79,14.6,79,14.6z"/>
<path class="st7" d="M56.9,8.4h-8.2c-0.1,0-0.1,0-0.1,0.1v22.8l0,0l0,0l0,0l0,0h3.2h0.1c0,0,0,0,0-0.1v-9.1h4.9c3.8,0,6.7-3,6.7-6.9
	C63.7,11.4,60.7,8.4,56.9,8.4z M56.8,18.8h-4.6c-0.1,0-0.1,0-0.2-0.1c0,0-0.1-0.1-0.1-0.2v-3.7c0-0.5-0.2-1.1-0.5-1.5
	s-0.8-0.7-1.4-0.9c0,0,0,0-0.1,0c0,0,0,0,0-0.1v-0.4v-0.1c0,0,0,0,0.1,0h6.8c1.8,0,3.1,1.3,3.3,3c0.1,0.5,0,1-0.1,1.4
	c-0.1,0.5-0.4,0.9-0.7,1.3s-0.7,0.7-1.2,0.9C57.8,18.6,57.3,18.8,56.8,18.8L56.8,18.8z"/>
<path class="st7" d="M81.3,27.8c0.6,1.4,2.2,3.7,6,3.7c4.3,0,6.2-2.5,6.2-5c0-2.7-1.8-4.4-5.6-5.1c-1.9-0.3-2.7-0.9-2.7-2
	c0-1,0.9-1.7,2.2-1.7c1.2,0,2.2,0.7,2.6,1.7l0,0l0,0c0,0,0,0,0.1,0l2.7-1.2l0,0c0,0,0,0,0-0.1c-0.8-2.1-2.9-3.4-5.5-3.4
	c-3.7,0-5.6,2.3-5.6,4.6c0,2.7,1.8,4.4,5.5,5c2,0.4,2.8,1,2.8,2.1s-1,1.8-2.7,1.8c-0.6,0-1.2-0.2-1.8-0.5c-0.5-0.3-1-0.8-1.2-1.4
	l0,0l0,0l0,0l-2.8,1.3l0,0C81.3,27.6,81.3,27.6,81.3,27.8C81.3,27.6,81.3,27.6,81.3,27.8L81.3,27.8z"/>
</svg>
