<?xml version="1.0" encoding="utf-8"?>
<!-- Generator: Adobe Illustrator 26.0.1, SVG Export Plug-In . SVG Version: 6.00 Build 0)  -->
<svg version="1.1" id="Layer_1" xmlns="http://www.w3.org/2000/svg" xmlns:xlink="http://www.w3.org/1999/xlink" x="0px" y="0px"
	 viewBox="0 0 180 21" style="enable-background:new 0 0 180 21;" xml:space="preserve">
<style type="text/css">
	.st0{fill:#6A6A86;}
	.st1{fill:#FFFFFF;}
	.st2{fill:url(#SVGID_1_);}
	.st3{fill:url(#SVGID_00000112629069867950300040000015829379057265514173_);}
	.st4{fill:url(#SVGID_00000002365483274875845900000004442759403299581356_);}
	.st5{fill:url(#SVGID_00000031176437736488800430000006926914151244058280_);}
	.st6{fill:url(#SVGID_00000059306467842216324800000003470642289274016692_);}
	.st7{fill:url(#SVGID_00000075870820164607841380000014505538217558420892_);}
</style>
<path class="st0" d="M0.7,6.3h3c1.2,0,2.2,0.7,2.2,2c0,1.3-1,2-2.2,2H1.8V13H0.7V6.3z M1.8,7.2v2.2h1.6c0.8,0,1.3-0.4,1.3-1.1
	c0-0.7-0.5-1.1-1.3-1.1H1.8z M8.4,9.6c0-2.2,1.3-3.5,3.3-3.5c2,0,3.3,1.3,3.3,3.5s-1.3,3.5-3.3,3.5C9.7,13.1,8.4,11.8,8.4,9.6z
	 M9.6,9.6c0,1.6,0.8,2.6,2.1,2.6c1.3,0,2.1-1,2.1-2.6c0-1.6-0.8-2.6-2.1-2.6C10.4,7.1,9.6,8,9.6,9.6z M17.4,6.3h1.1l1.2,5.3h0.1
	l1.4-5.3h1.1l1.4,5.3h0.1l1.2-5.3H26v0.1L24.5,13h-1.4l-1.3-5h-0.1l-1.3,5h-1.4l-1.5-6.6V6.3z M28.8,6.3h4.8v0.9H30v2h3.2V10H30v2.1
	h3.7V13h-4.9V6.3z M39.2,10.3h-1.4V13h-1.2V6.3h3.1C41,6.3,42,6.9,42,8.1c0,0.9-0.5,1.5-1.3,1.6v0.1c0.7,0.2,0.9,0.6,1,1.4l0.1,0.7
	c0.1,0.4,0.1,0.7,0.3,0.9V13h-1.2c-0.1-0.3-0.2-0.5-0.2-1l-0.1-0.6C40.6,10.6,40.2,10.3,39.2,10.3z M37.8,7.2v2.2h1.8
	c0.8,0,1.3-0.4,1.3-1.1c0-0.8-0.5-1.1-1.3-1.1H37.8z M45,6.3h4.8v0.9h-3.6v2h3.2V10h-3.2v2.1h3.7V13H45V6.3z M52.8,6.3h2.5
	c2,0,3.3,1.3,3.3,3.4c0,2.1-1.3,3.4-3.3,3.4h-2.5V6.3z M53.9,7.2v5h1.3c1.3,0,2.1-0.9,2.1-2.5s-0.8-2.5-2.1-2.5H53.9z M65.9,6.3h3
	C70.1,6.3,71,6.9,71,8c0,1.1-0.7,1.4-1.1,1.5v0.1c0.5,0.1,1.3,0.4,1.3,1.6c0,1.2-0.9,1.8-2.2,1.8h-3.2V6.3z M67,7.1v2h1.7
	c0.7,0,1.2-0.3,1.2-1c0-0.7-0.5-1-1.2-1H67z M67,10v2.1h1.8c0.7,0,1.3-0.3,1.3-1.1c0-0.7-0.6-1.1-1.3-1.1H67z M73.3,6.3h1.2l1.8,3
	h0.1l1.8-3h1.2v0.1l-2.5,4V13h-1.2v-2.6l-2.5-4V6.3z"/>
<path class="st1" d="M113.2,4.9h4.5c1.9,0,3.3,1.1,3.3,3c0,1.9-1.5,3-3.3,3h-2.8V15h-1.7V4.9z M114.9,6.2v3.3h2.4
	c1.2,0,1.9-0.6,1.9-1.7c0-1.1-0.8-1.7-1.9-1.7H114.9z M128.6,15H127v-0.9h-0.1c-0.2,0.4-0.8,1.1-2.2,1.1c-1.6,0-2.6-0.9-2.6-2.6V7.8
	h1.7v4.7c0,1,0.6,1.4,1.4,1.4c1,0,1.8-0.6,1.8-2V7.8h1.7V15z M129.9,9.8c0-1.3,1.1-2.1,3-2.1c1.9,0,3,0.8,3.2,2.1v0.2h-1.5
	c-0.1-0.8-0.7-1.1-1.6-1.1c-0.9,0-1.5,0.4-1.5,0.9c0,0.6,0.5,0.8,1.1,0.9l1.3,0.2c1.4,0.2,2.5,0.7,2.5,2.1c0,1.4-1.1,2.3-3.1,2.3
	c-2.1,0-3.3-0.9-3.4-2.2v-0.2h1.5c0.1,0.8,0.9,1.3,1.9,1.3c1,0,1.6-0.4,1.6-1c0-0.6-0.5-0.8-1.3-0.9l-1.3-0.2
	C130.8,11.6,129.9,11,129.9,9.8z M137.4,4.9h1.7v3.7h0.1c0.3-0.4,0.9-1.1,2.2-1.1c1.6,0,2.7,0.9,2.7,2.6V15h-1.7v-4.7
	c0-1-0.6-1.4-1.5-1.4c-1,0-1.9,0.6-1.9,2V15h-1.7V4.9z M148.7,10c0-3.2,1.9-5.2,4.9-5.2c2.9,0,4.2,1.8,4.3,3.4v0.2h-1.6
	c-0.1-1.1-0.8-2.3-2.7-2.3c-1.9,0-3.1,1.5-3.1,3.9s1.3,3.9,3.1,3.9c1.9,0,2.6-1.3,2.7-2.4h1.6v0.2c-0.2,1.6-1.4,3.5-4.3,3.5
	C150.7,15.2,148.7,13.2,148.7,10z M159,4.9h1.7v3.7h0.1c0.3-0.4,0.9-1.1,2.2-1.1c1.6,0,2.7,0.9,2.7,2.6V15H164v-4.7
	c0-1-0.6-1.4-1.5-1.4c-1,0-1.9,0.6-1.9,2V15H159V4.9z M167.2,9.9V9.7c0.2-1.3,1.3-2.1,3.1-2.1c1.8,0,3,0.8,3,2.7v3.1
	c0,0.3,0.2,0.5,0.5,0.5h0.4V15h-0.7c-0.9,0-1.3-0.5-1.4-1.1H172c-0.4,0.6-1,1.2-2.5,1.2c-1.6,0-2.7-0.9-2.7-2.2c0-1.4,1.1-2,2.5-2.2
	l1.7-0.2c0.5,0,0.8-0.2,0.8-0.7c0-0.7-0.5-1.1-1.5-1.1c-0.9,0-1.6,0.4-1.6,1.1H167.2z M168.4,12.9c0,0.7,0.5,1.1,1.4,1.1
	c0.9,0,2-0.5,2-2.1v-0.4h-0.1c-0.2,0.1-0.4,0.2-1,0.3l-0.9,0.1C168.9,11.9,168.4,12.2,168.4,12.9z M174.1,7.8h1.4v-2h1.6v2h1.6v1.1
	h-1.6v4.3c0,0.4,0.2,0.6,0.6,0.6h0.9V15h-1.3c-1.2,0-1.8-0.6-1.8-1.8V8.9h-1.4V7.8z"/>
<linearGradient id="SVGID_1_" gradientUnits="userSpaceOnUse" x1="102.521" y1="9.247" x2="99.3108" y2="3.5908" gradientTransform="matrix(1 0 0 -1 0 22)">
	<stop  offset="0" style="stop-color:#FF94A6"/>
	<stop  offset="0.32" style="stop-color:#E03DC1"/>
	<stop  offset="1" style="stop-color:#8247E5"/>
</linearGradient>
<path class="st2" d="M99.9,19c0.5,0,1-0.1,1.4-0.4c0.4-0.3,0.8-0.6,1-1.1c0,0,0-0.1,0-0.2c0-0.1,0-0.1-0.1-0.2c0,0-0.1-0.1-0.1-0.1
	c0,0-0.1,0-0.2,0h-4.1c-0.1,0-0.1,0-0.2,0c0,0-0.1,0.1-0.1,0.1c0,0,0,0.1-0.1,0.2c0,0.1,0,0.1,0,0.2c0.2,0.4,0.5,0.8,1,1.1
	C98.9,18.9,99.4,19,99.9,19z"/>
<linearGradient id="SVGID_00000139973963344485380040000002620117627818000259_" gradientUnits="userSpaceOnUse" x1="104.1417" y1="15.4133" x2="97.3347" y2="5.386" gradientTransform="matrix(1 0 0 -1 0 22)">
	<stop  offset="0" style="stop-color:#FF94A6"/>
	<stop  offset="0.32" style="stop-color:#E03DC1"/>
	<stop  offset="1" style="stop-color:#8247E5"/>
</linearGradient>
<path style="fill:url(#SVGID_00000139973963344485380040000002620117627818000259_);" d="M106.2,14.6c-0.3,0-0.6-0.1-0.9-0.3
	c-0.2-0.2-0.4-0.5-0.4-0.8V9.2c0-1.1-0.4-2.2-1.1-3c-0.7-0.9-1.7-1.5-2.8-1.8c0-0.3-0.2-0.6-0.4-0.8c-0.2-0.2-0.5-0.3-0.9-0.3
	c-0.3,0-0.6,0.1-0.8,0.3c-0.2,0.2-0.4,0.5-0.4,0.8c-1,0.2-1.9,0.8-2.6,1.5c-0.7,0.7-1.1,1.7-1.2,2.6c0,0,0,0.1,0,0.1
	c0,0,0,0.1,0,0.1c0,0,0,0.1,0,0.1c0,0,0,0.1,0,0.1c0,0.1,0,0.1,0,0.2v4.3c0,0.3-0.1,0.6-0.4,0.8c-0.2,0.2-0.5,0.3-0.9,0.3
	c-0.1,0-0.2,0-0.2,0c-0.1,0-0.1,0.1-0.2,0.1C93.1,14.9,93,14.9,93,15c0,0.1,0,0.1,0,0.2v0c0,0.1,0.1,0.3,0.2,0.4
	c0.1,0.1,0.3,0.2,0.4,0.2h12.7c0.1,0,0.3-0.1,0.4-0.2c0.1-0.1,0.2-0.2,0.2-0.4c0-0.1-0.1-0.3-0.2-0.4
	C106.5,14.7,106.4,14.7,106.2,14.6z"/>
<linearGradient id="SVGID_00000152224404730851889340000014419750999725669560_" gradientUnits="userSpaceOnUse" x1="109.9392" y1="20.5022" x2="92.9736" y2="8.8294" gradientTransform="matrix(1 0 0 -1 0 22)">
	<stop  offset="0" style="stop-color:#FF94A6"/>
	<stop  offset="0.32" style="stop-color:#E03DC1"/>
	<stop  offset="1" style="stop-color:#8247E5"/>
</linearGradient>
<path style="fill:url(#SVGID_00000152224404730851889340000014419750999725669560_);" d="M103.6,3.6c0.7,0.2,1.3,0.5,1.8,1
	c0.5,0.5,0.8,1.2,0.8,1.9c0,0,0,0.1,0,0.1c0,0,0,0.1,0.1,0.1s0.1,0,0.1,0.1c0,0,0.1,0,0.1,0c0.1,0,0.1,0,0.2-0.1c0,0,0-0.1,0.1-0.1
	c0,0,0-0.1,0-0.1c-0.1-0.8-0.4-1.6-1-2.2c-0.6-0.6-1.3-1-2.1-1.2c0,0,0,0-0.1,0c-0.1,0-0.1,0-0.2,0.1s-0.1,0.1-0.1,0.2
	c0,0.1,0,0.1,0.1,0.2C103.4,3.5,103.5,3.5,103.6,3.6L103.6,3.6z"/>
<linearGradient id="SVGID_00000098910864759176883130000011896702232110594184_" gradientUnits="userSpaceOnUse" x1="109.8036" y1="20.6985" x2="92.8381" y2="9.0266" gradientTransform="matrix(1 0 0 -1 0 22)">
	<stop  offset="0" style="stop-color:#FF94A6"/>
	<stop  offset="0.32" style="stop-color:#E03DC1"/>
	<stop  offset="1" style="stop-color:#8247E5"/>
</linearGradient>
<path style="fill:url(#SVGID_00000098910864759176883130000011896702232110594184_);" d="M103.9,1.7c1.1,0.2,2.1,0.8,2.8,1.6
	c0.7,0.8,1.2,1.8,1.3,2.9c0,0,0,0.1,0,0.1c0,0,0,0.1,0.1,0.1c0,0,0.1,0,0.1,0.1c0,0,0.1,0,0.1,0c0.1,0,0.1,0,0.2-0.1
	c0,0,0-0.1,0.1-0.1c0,0,0-0.1,0-0.1c-0.1-1.2-0.6-2.3-1.4-3.2c-0.8-0.9-1.9-1.5-3.1-1.8c0,0,0,0-0.1,0c-0.1,0-0.1,0-0.2,0.1
	c-0.1,0-0.1,0.1-0.1,0.2c0,0.1,0,0.1,0.1,0.2C103.8,1.7,103.8,1.7,103.9,1.7L103.9,1.7z"/>
<linearGradient id="SVGID_00000178168669191969534460000001222175164372733884_" gradientUnits="userSpaceOnUse" x1="106.5269" y1="25.4601" x2="89.5627" y2="13.7882" gradientTransform="matrix(1 0 0 -1 0 22)">
	<stop  offset="0" style="stop-color:#FF94A6"/>
	<stop  offset="0.32" style="stop-color:#E03DC1"/>
	<stop  offset="1" style="stop-color:#8247E5"/>
</linearGradient>
<path style="fill:url(#SVGID_00000178168669191969534460000001222175164372733884_);" d="M96.2,3.6c0.1,0,0.1-0.1,0.2-0.1
	c0-0.1,0.1-0.1,0.1-0.2c0-0.1,0-0.1-0.1-0.2C96.3,3,96.2,3,96.2,3c0,0,0,0-0.1,0c-0.8,0.2-1.6,0.6-2.1,1.2c-0.6,0.6-0.9,1.4-1,2.2
	c0,0,0,0.1,0,0.1c0,0,0,0.1,0.1,0.1c0,0,0.1,0.1,0.1,0.1c0,0,0.1,0,0.1,0c0,0,0.1,0,0.1,0c0,0,0.1,0,0.1-0.1s0.1-0.1,0.1-0.1
	c0,0,0-0.1,0-0.1c0.1-0.7,0.4-1.3,0.8-1.9C94.9,4.1,95.5,3.7,96.2,3.6z"/>
<linearGradient id="SVGID_00000176763865069664398950000018264061113470791591_" gradientUnits="userSpaceOnUse" x1="105.6622" y1="26.7182" x2="88.7046" y2="15.0515" gradientTransform="matrix(1 0 0 -1 0 22)">
	<stop  offset="0" style="stop-color:#FF94A6"/>
	<stop  offset="0.32" style="stop-color:#E03DC1"/>
	<stop  offset="1" style="stop-color:#8247E5"/>
</linearGradient>
<path style="fill:url(#SVGID_00000176763865069664398950000018264061113470791591_);" d="M95.9,1.7c0.1,0,0.1-0.1,0.2-0.1
	c0-0.1,0.1-0.1,0.1-0.2s0-0.1-0.1-0.2c-0.1,0-0.1-0.1-0.2-0.1c0,0,0,0-0.1,0c-1.2,0.3-2.3,0.9-3.1,1.8c-0.8,0.9-1.3,2-1.5,3.2
	c0,0,0,0.1,0,0.1c0,0,0,0.1,0.1,0.1c0,0,0.1,0.1,0.1,0.1c0,0,0.1,0,0.1,0c0,0,0.1,0,0.1,0c0,0,0.1,0,0.1-0.1c0,0,0.1-0.1,0.1-0.1
	c0,0,0-0.1,0-0.1c0.1-1.1,0.6-2.1,1.3-2.9C93.8,2.5,94.8,2,95.9,1.7z"/>
</svg>
