<?xml version="1.0" encoding="utf-8"?>
<!-- Generator: Adobe Illustrator 26.0.1, SVG Export Plug-In . SVG Version: 6.00 Build 0)  -->
<svg version="1.1" id="Layer_1" xmlns="http://www.w3.org/2000/svg" xmlns:xlink="http://www.w3.org/1999/xlink" x="0px" y="0px"
	 viewBox="0 0 102 102" style="enable-background:new 0 0 102 102;" xml:space="preserve">
<style type="text/css">
	.st0{fill:#FFC6E1;}
	.st1{clip-path:url(#SVGID_00000025426357461921649700000007650030765502545034_);}
	.st2{fill:#FF007A;}
	.st3{fill-rule:evenodd;clip-rule:evenodd;fill:#FF007A;}
	.st4{fill:url(#SVGID_00000116915186683031668480000015893249209414605978_);}
	.st5{fill:#FCFCFC;}
	.st6{fill:#97A8C1;}
	.st7{fill:#94A6BF;}
	.st8{fill:#0A192B;}
	.st9{fill:#091826;}
	.st10{fill:#0A1928;}
	.st11{fill:#FFD923;}
	.st12{fill:#DD2839;}
	.st13{fill:#D82537;}
	.st14{fill:#D32436;}
	.st15{fill:#FFFFFF;}
</style>
<path class="st0" d="M32,0h38c17.7,0,32,14.3,32,32v38c0,17.7-14.3,32-32,32H32C14.3,102,0,87.7,0,70V32C0,14.3,14.3,0,32,0z"/>
<g>
	<g>
		<defs>
			<rect id="SVGID_1_" x="16.5" y="11" width="69" height="80"/>
		</defs>
		<clipPath id="SVGID_00000002383874958654041780000005100183610974559621_">
			<use xlink:href="#SVGID_1_"  style="overflow:visible;"/>
		</clipPath>
		<g style="clip-path:url(#SVGID_00000002383874958654041780000005100183610974559621_);">
			<path class="st2" d="M43.6,29.2c-0.9-0.1-0.9-0.2-0.5-0.2c0.8-0.1,2.6,0,3.9,0.3c3,0.7,5.6,2.5,8.4,5.7l0.7,0.9l1.1-0.2
				c4.6-0.7,9.2-0.2,13.1,1.7c1.1,0.5,2.7,1.5,3,1.7c0.1,0.1,0.2,0.6,0.3,1.2c0.3,1.9,0.2,3.4-0.5,4.5c-0.3,0.6-0.3,0.8-0.1,1.3
				c0.2,0.4,0.7,0.7,1.1,0.7c1,0,2-1.6,2.5-3.8l0.2-0.9l0.4,0.4c2.1,2.4,3.7,5.6,4,7.9l0.1,0.6l-0.4-0.5c-0.6-0.9-1.2-1.6-2-2.1
				c-1.4-0.9-2.9-1.2-6.8-1.4c-3.5-0.2-5.5-0.5-7.5-1.2c-3.4-1.1-5.1-2.6-9.1-7.9c-1.8-2.4-2.9-3.6-4-4.7
				C49.1,30.9,46.7,29.7,43.6,29.2z"/>
			<path class="st2" d="M74.1,34.4c0.1-1.6,0.3-2.6,0.7-3.6c0.2-0.4,0.3-0.7,0.4-0.7c0,0,0,0.3-0.2,0.6c-0.3,0.9-0.4,2.2-0.2,3.6
				c0.3,1.9,0.4,2.1,2.4,4.1c0.9,0.9,2,2.1,2.4,2.6l0.7,0.9l-0.7-0.7c-0.9-0.8-2.8-2.4-3.3-2.6c-0.3-0.2-0.3-0.2-0.5,0
				s-0.2,0.4-0.2,1.6c0,1.9-0.3,3-0.9,4.2c-0.3,0.6-0.4,0.5-0.1-0.2c0.2-0.5,0.2-0.8,0.2-2.6c0-3.6-0.4-4.5-2.9-5.9
				c-0.6-0.4-1.7-0.9-2.3-1.2c-0.7-0.3-1.1-0.5-1.1-0.5c0.1-0.1,2.5,0.6,3.4,1c1.4,0.6,1.7,0.6,1.8,0.6C74,35.8,74.1,35.5,74.1,34.4
				z"/>
			<path class="st2" d="M45.2,40.6c-1.7-2.4-2.8-6.1-2.6-8.9l0.1-0.9l0.4,0.1c0.7,0.1,2,0.6,2.6,1c1.6,1,2.4,2.4,3.1,5.7
				c0.2,1,0.5,2.1,0.6,2.5c0.2,0.6,1,2.1,1.6,3c0.5,0.7,0.2,1-0.9,0.9C48.7,43.9,46.6,42.5,45.2,40.6z"/>
			<path class="st2" d="M72,58.6c-8.1-3.3-11-6.2-11-11c0-0.7,0-1.3,0-1.3s0.3,0.2,0.7,0.5c1.6,1.3,3.5,1.9,8.6,2.6
				c3,0.5,4.7,0.8,6.3,1.3c5,1.7,8,5,8.8,9.6c0.2,1.3,0.1,3.8-0.2,5.2c-0.3,1-1.1,2.9-1.3,3c0,0-0.1-0.2-0.1-0.5
				c-0.1-1.7-0.9-3.4-2.4-4.7C79.6,61.9,77.4,60.7,72,58.6z"/>
			<path class="st2" d="M66.3,59.9c-0.1-0.6-0.3-1.4-0.4-1.7l-0.2-0.6L66,58c0.5,0.6,0.9,1.4,1.3,2.4c0.3,0.8,0.3,1,0.3,2.3
				c0,1.2,0,1.5-0.3,2.2c-0.4,1.1-0.9,1.9-1.7,2.8c-1.5,1.5-3.4,2.4-6.1,2.7c-0.5,0-1.9,0.2-3.1,0.2c-3.1,0.2-5.1,0.5-7,1.2
				c-0.2,0.1-0.5,0.2-0.5,0.1c-0.1-0.1,1.2-0.8,2.2-1.3c1.4-0.7,2.9-1.1,6.1-1.7c1.6-0.2,3.2-0.6,3.6-0.7
				C64.9,67,66.9,63.8,66.3,59.9z"/>
			<path class="st2" d="M70,66.6c-1.1-2.4-1.3-4.6-0.7-6.7c0.1-0.2,0.2-0.4,0.2-0.4c0.1,0,0.3,0.1,0.6,0.3c0.5,0.3,1.5,0.9,4.1,2.4
				c3.3,1.8,5.2,3.2,6.5,4.8c1.1,1.4,1.8,3,2.2,5c0.2,1.1,0.1,3.8-0.2,4.9c-0.9,3.5-3,6.3-5.9,7.9c-0.5,0.2-0.8,0.4-0.9,0.4
				s0.1-0.4,0.4-0.9c1-2.1,1.1-4.1,0.4-6.4c-0.5-1.4-1.4-3.1-3.3-5.9C71.1,68.6,70.6,67.8,70,66.6z"/>
			<path class="st2" d="M39.5,79.2c3-2.6,6.8-4.4,10.2-5c1.5-0.2,3.9-0.2,5.3,0.2c2.2,0.6,4.1,1.8,5.2,3.3c1,1.5,1.4,2.8,1.9,5.6
				c0.2,1.1,0.4,2.3,0.4,2.5c0.3,1.5,1,2.6,1.8,3.3c1.3,0.9,3.5,1,5.7,0.2c0.4-0.1,0.7-0.2,0.7-0.2c0.1,0.1-1,0.8-1.8,1.2
				c-1,0.5-1.8,0.7-3,0.7c-2,0-3.6-1-5-3.1c-0.3-0.4-0.9-1.6-1.4-2.7c-1.4-3.3-2.2-4.3-3.9-5.4c-1.5-0.9-3.4-1.2-4.8-0.5
				c-1.9,0.9-2.4,3.3-1.1,4.8c0.5,0.6,1.5,1.1,2.3,1.2c1.5,0.2,2.8-1,2.8-2.5c0-1-0.4-1.6-1.4-2c-1.3-0.6-2.7,0.1-2.7,1.4
				c0,0.5,0.2,0.9,0.8,1.1c0.3,0.2,0.3,0.2,0.1,0.1c-1.2-0.2-1.5-1.7-0.5-2.7c1.1-1.2,3.6-0.7,4.4,0.9c0.3,0.7,0.4,2,0.1,2.8
				C55,86.3,53,87.3,51,86.7c-1.4-0.4-1.9-0.7-3.6-2.4c-2.9-3-4-3.6-8.1-4.2L38.6,80L39.5,79.2z"/>
			<path class="st3" d="M17.9,12.8c9.6,11.7,24.3,29.8,25,30.8c0.6,0.8,0.4,1.6-0.7,2.2c-0.6,0.3-1.8,0.7-2.3,0.7
				c-0.7,0-1.4-0.3-2-0.9c-0.4-0.4-2-2.7-5.6-8.4c-2.7-4.3-5.1-7.9-5.1-8C27,29.1,27,29.1,32,38.1c3.2,5.7,4.2,7.7,4.2,7.9
				c0,0.5-0.2,0.8-0.8,1.6c-1.1,1.2-1.6,2.6-2,5.6c-0.4,3.3-1.5,5.6-4.7,9.5c-1.8,2.3-2.1,2.7-2.6,3.7c-0.6,1.2-0.7,1.8-0.8,3.3
				c-0.1,1.6,0.1,2.6,0.5,4c0.4,1.3,0.9,2.2,2,3.9c0.9,1.5,1.5,2.6,1.5,3c0,0.3,0.1,0.3,1.6,0c3.5-0.8,6.4-2.2,8-4
				c1-1.1,1.2-1.7,1.2-3.1c0-0.9,0-1.2-0.3-1.7c-0.4-0.9-1.2-1.7-2.9-2.8c-2.2-1.5-3.2-2.8-3.4-4.4c-0.2-1.4,0-2.4,1.3-5
				c1.3-2.7,1.6-3.8,1.8-6.5c0.1-1.7,0.3-2.4,0.8-3s1-0.8,2.3-0.9c2.1-0.3,3.4-0.8,4.5-1.9c0.9-0.9,1.4-1.7,1.4-3v-0.9l-0.5-0.6
				C43.3,40.6,16.6,11,16.5,11C16.5,11,17.1,11.8,17.9,12.8z M30.5,71.5c0.5-0.8,0.2-1.8-0.5-2.3s-1.8-0.2-1.8,0.4
				c0,0.2,0.1,0.3,0.3,0.4c0.4,0.2,0.4,0.4,0.1,0.9s-0.3,0.9,0.1,1.2C29.3,72.5,30.1,72.2,30.5,71.5z"/>
			<path class="st3" d="M47.1,49.8c-1,0.3-1.9,1.4-2.2,2.4c-0.2,0.7-0.1,1.9,0.2,2.2c0.5,0.6,0.9,0.7,2,0.7c2.3,0,4.2-1,4.4-2.2
				c0.2-1-0.7-2.4-1.8-3C49,49.7,47.7,49.6,47.1,49.8z M49.7,51.8c0.3-0.5,0.2-1-0.4-1.4c-1.1-0.7-2.8-0.1-2.8,0.9
				c0,0.5,0.9,1.1,1.7,1.1C48.7,52.5,49.5,52.2,49.7,51.8z"/>
		</g>
	</g>
</g>
<linearGradient id="SVGID_00000083070331404954940120000014468461248616685447_" gradientUnits="userSpaceOnUse" x1="16.2509" y1="673.5934" x2="123.2509" y2="801.0934" gradientTransform="matrix(1 0 0 1 0 -664)">
	<stop  offset="0" style="stop-color:#18426F"/>
	<stop  offset="1" style="stop-color:#0D1726"/>
</linearGradient>
<path style="fill:url(#SVGID_00000083070331404954940120000014468461248616685447_);" d="M32,0h38c17.7,0,32,14.3,32,32v38
	c0,17.7-14.3,32-32,32H32C14.3,102,0,87.7,0,70V32C0,14.3,14.3,0,32,0z"/>
<path class="st5" d="M30.5,54.4l1.7-13.8l-15.7-11l14.4,4.9l3.4-5.3l12.3-7.7L74,36.6l1.5,23.1l-12.2,17l-9.7,1.5l5-9.2v-8.8
	L55,53.3L51.4,51l-5.6,5.8V63l-4.4,4.2l-5.6,0.7l-2.5,1.5l-4-1.4l-1.7-6.2l3.1-4.3v-3.1H30.5z"/>
<path class="st6" d="M55.6,29.5c-3-0.7-6.3-0.4-6.3-0.4s-1.1,5-7.8,6.4C41.6,35.3,50.5,38.3,55.6,29.5z"/>
<path class="st7" d="M58.4,74.9c3.6-2.8,6.3-6.8,7.5-11.2c0-0.1,0.5-0.4,0.9-0.7c0.5-0.4,1.1-0.7,1.2-1.1c0.3-1.4,0.4-2.7,0.4-4.1
	c0-0.5-0.5-1.1-1.1-1.5c-0.4-0.4-0.8-0.7-0.8-1.1c-0.5-5.1-3-10-6.7-13.5l-0.4,0.4c3.6,3.5,6,8.2,6.6,13.2c0,0.4,0.5,0.9,0.9,1.4
	c0.4,0.4,0.8,0.8,0.8,1.1c0,1.4-0.1,2.6-0.4,3.9c0,0.3-0.5,0.4-0.9,0.7c-0.5,0.3-1.1,0.5-1.2,1.1c-1.3,4.9-4.4,9.1-8.6,11.8
	c0.7-1.6,3.1-6.8,4.3-9.5l-0.1-8.4l-7.2-7l-4,0.5l-4.4,7.3c0,0,2.1,2.7-0.8,5.8c-2.8,3.1-5.1,3.8-5.1,3.8l-2.3-1
	c0.7-0.8,1.9-2,2.8-2.8c1.6-1.4,3.2-1.5,3.2-3c0-3.1-3.2-2.2-3.2-2.2l-1.2,1.1l-0.5,4.2l-2.4,3.1h-0.3l-4-0.9c0,0,2.5-1.4,2.8-2.8
	c0.4-1.5-0.8-6.2-0.8-6.5c0,0,1.2,1.1,1.7,2.6c0.9-2.6,2.1-4.9,2.4-5.1c0.4-0.3,5-2.7,5-2.7L41,55.9l1.1-0.7l2.7-6.8
	c0,0,2.7-1.4,4.7-1.4c3.6,0,8.9-4.5,6.4-12.3c0.7,0.3,12.5,6.2,14.5,17.8C71.8,61.7,66.8,70.1,58.4,74.9z"/>
<path class="st8" d="M44.8,30.7c1.3-1.5,0.8-3.8,0.8-3.8l-3.8,5.7C41.7,32.5,43.2,32.6,44.8,30.7z"/>
<path class="st8" d="M32.1,61.5l0.4-2.3c0,0-1.9,3.2-2,3.8c-0.1,0.5,0.1,1.5,0.8,1.4c0.7,0,1.6-1.1,1.6-1.9
	C33,61.4,32.1,61.5,32.1,61.5z"/>
<path class="st9" d="M65.8,25.3c0,0,2.8,0.1,5.8,0.4C65,20.4,58.6,19,53.5,19c-7,0-11.8,3-12.1,3.1l2.1-3.5c0,0-8.9-0.8-11.9,8.5
	c-0.8-2-1.5-4.9-1.5-4.9s-4.6,4.1-2.4,10.8c-5.2-1.9-12.7-4.6-13-4.7c-0.4,0-0.5,0.1-0.5,0.1s-0.1,0.1,0.3,0.4
	c0.7,0.5,12.5,9.3,15.2,11.1c-0.5,2-0.5,3,0,4.1c0.8,1.4,0.8,2,0.7,3c-0.1,0.9-1.1,9.3-1.3,10.4c-0.3,1.1-2.5,4.7-2.5,5.8
	c0.1,1.1,1.6,5.7,2.8,6.2c0.9,0.4,3.4,1.1,5,1.1c0.5,0,1.1-0.1,1.3-0.4c0.9-0.8,1.2-1.1,1.9-1.1h0.1c0.3,0,0.7,0,1.1,0
	c0.9,0,2.1-0.1,3-0.9c1.2-1.2,3.4-3,4-3.8c0.8-1.1,1.3-2.6,1.1-4.1c-0.1-1.4,0.5-2.6,1.5-3.8c1.1-1.5,3.1-4.1,3.1-4.1
	c3.9,3,6.3,7.4,6.3,12.4c0,8.9-7.6,16.1-17.2,16.1c-1.5,0-2.8-0.1-4.3-0.5c4.3,1.5,8,2,11,2c6.4,0,9.8-2.3,9.8-2.3s-1.2,1.5-3.1,3.2
	C64.4,81.8,69.5,73,69.5,73s-0.4,2.8-0.9,4.7C82.7,67,80.3,53.6,80.3,53.2c0.1,0.1,1.5,1.9,2.3,2.8C84.8,32.9,65.8,25.3,65.8,25.3z
	 M44,62.8c-0.3,0.3-1.2,1.1-1.9,1.8c-0.7,0.7-1.5,1.2-2,1.8c-0.3,0.3-0.7,0.4-1.3,0.4c-0.3,0-0.4,0-0.7,0c-0.1,0-0.3,0-0.4,0
	c-0.1,0-0.1,0-0.3,0c-0.1,0-0.4,0-0.5,0c0.8-1.1,3.4-3.8,4.2-4.3c1.1-0.7,1.5-1.4,0.9-2.6c-0.7-1.2-2.3-0.9-2.3-0.9s0.9-0.4,1.7-0.4
	c-1.1-0.3-2.4,0-3.1,0.7c-0.7,0.7-0.5,2.8-0.8,4.3c-0.3,1.5-1.2,2.2-2.7,3.6c-0.8,0.7-1.3,0.9-1.7,0.9c-0.9-0.1-2.1-0.4-2.8-0.7
	c-0.5-0.7-1.5-3.2-1.6-4.2c0.1-0.5,0.8-1.8,1.2-2.4c0.7-1.4,1.1-2,1.2-2.7c0.3-0.9,0.9-6.9,1.2-9.5c0.7,0.9,1.7,2.6,1.5,3.7
	c1.6-2.3,0.4-4.6-0.1-5.5s-1.2-2.7-0.7-4.7c0.5-1.9,2.5-7.3,2.5-7.3s0.7,1.2,1.6,0.9c0.9-0.3,8.7-12,8.7-12s2.1,4.6-0.1,8
	c-2.3,3.4-4.4,4.1-4.4,4.1s3.1,0.5,6-1.5c1.2,2.8,2.3,5.7,2.4,6.1c-0.1,0.4-2.4,5.8-2.7,6.2c-0.1,0.1-0.9,0.4-1.5,0.4
	c-0.9,0.3-1.5,0.4-1.7,0.7c-0.4,0.4-2.1,5.4-3.1,7.8c-1.1,0.3-2,0.8-2.8,2c0.4-0.3,1.6-0.4,2.5-0.5c0.8,0,3.2,1.2,3.9,3.7
	c0,0,0,0,0,0.1C44.8,61.3,44.6,62.1,44,62.8z M38.8,63.6c0.5-0.7,0.4-2,0.5-2.4c0-0.4,0.1-1.1,0.7-1.2c0.4-0.1,1.5,0,1.5,0.8
	c0,0.7-0.8,0.9-1.3,1.5C39.6,62.5,38.9,63.4,38.8,63.6z M61.3,52.6c0.5-3,0.7-5.4,0.4-7.4c2.1,3,3.6,6.6,4,10.3
	c0,0.4,0.5,0.9,0.9,1.4c0.4,0.4,0.8,0.8,0.8,1.1c0,1.4-0.1,2.6-0.4,3.9c0,0.1-0.5,0.4-0.9,0.7c-0.5,0.3-1.1,0.5-1.2,1.1
	c-1.2,4.3-3.9,8.2-7.5,11C62.8,69,65.4,59.9,61.3,52.6z M57.7,75.1c3.6-2.8,6.4-6.9,7.8-11.4c0-0.1,0.5-0.4,0.9-0.7
	c0.5-0.3,1.1-0.7,1.2-1.1c0.3-1.4,0.4-2.7,0.4-4.1c0-0.5-0.5-1.1-1.1-1.5c-0.3-0.4-0.7-0.7-0.7-1.1c-0.4-4.2-2.1-8.1-4.7-11.4
	c-1.1-6.9-5.6-8.9-5.8-9.1c0.1,0.1,3.1,4.5,1.1,9.5c-2.1,5.1-7.5,4.3-7.9,4.3s-2.1,2.3-4.4,6.5c-0.3-0.1-1.5-0.4-2.8-0.1
	c1.1-2.8,2.5-6.9,2.8-7.3c0.1-0.1,0.9-0.4,1.5-0.5c1.1-0.3,1.6-0.4,1.7-0.7c0.1-0.1,0.7-1.5,1.2-2.8c0.5,0,1.7-0.1,1.9-0.1
	c0.1-0.1,1.2-3,1.2-3.2s-2.1-5.8-3.1-8c0.4-0.4,0.8-1.1,1.2-1.6C61.7,31.9,70.9,41.9,70.9,54C71,63.2,65.6,71.3,57.7,75.1z"/>
<path class="st10" d="M42.7,44.2c1.1-1.2,0.5-3.6-1.5-4.1c0.5-1.2,1.2-3.7,1.2-3.7s-5.8,9.2-6.3,9.3C35.6,46,35,44.1,35,44.1
	c-1.1,4.2,1.7,4.7,2.1,3.4C38.9,47.1,41.6,45.5,42.7,44.2z"/>
<path class="st11" d="M37.9,46.4l3-5.1c0,0,1.7,0.8,0.8,2.2C40.5,45.2,37.9,46.4,37.9,46.4z"/>
<path class="st12" d="M74.2,69.9c-0.8,1.1-1.7,2.3-3,3.5c7.2-14.2,0.4-27,0-27.6c0.5,0.5,1.1,1.1,1.5,1.6
	C78.4,53.7,79,63.2,74.2,69.9z"/>
<path class="st13" d="M80.9,51.8c-2.5-6.9-6.2-12.7-14.1-18.1c-7.6-5.1-16-4.7-16.4-4.7h-0.1c0.3-0.1,0.5-0.1,0.8-0.3
	c1.7-0.5,4-1.1,6.3-1.4c6-0.8,12.1,1.2,16.2,5.5c0,0,0,0,0.1,0.1C78.4,38.2,80.8,44.5,80.9,51.8z"/>
<path class="st14" d="M65,23.6c-8.5-1.6-13.8-0.8-17.7,0.7c-0.1-0.4-0.5-1.4-0.8-2.2c-1.2,1.5-2.4,3.1-3.2,4.2c-2.1,1.5-3.1,3-3.1,3
	c1.2-4.3,4.8-7.4,9.3-8.2c1.2-0.3,2.5-0.4,4-0.4C57.3,20.7,61.3,21.7,65,23.6z"/>
<path class="st14" d="M33.8,34.5c-6.6-0.3-4.4-8-4.3-8.4C29.5,26.1,29.9,32.2,33.8,34.5z"/>
<path class="st14" d="M40.4,20.4c-5.1,3.1-4,10.4-4,10.4C31.4,23.4,40,20.7,40.4,20.4z"/>
<path class="st15" d="M32,36.5c0.4,0.3,0.7,0.8,0.3,1.5c-0.3,0.4-0.5,0.4-1.1,0.1c-0.7-0.4-4.7-2.7-8.5-5.1
	C27,34.5,31.1,36.1,32,36.5z"/>
</svg>
