<svg width="102" height="102" viewBox="0 0 102 102" fill="none" xmlns="http://www.w3.org/2000/svg">
<rect width="102" height="102" rx="32" fill="url(#paint0_linear_8769_19126)"/>
<path d="M30.4756 54.3797L32.2195 40.5908L16.5244 29.6408L30.8781 34.5074L34.2317 29.2352L46.5732 21.5297L73.939 36.6704L75.4147 59.7871L63.2073 76.8204L53.5488 78.3074L58.5122 69.1149V60.3278L54.8903 53.4334L51.4025 51L45.7683 56.813V63.0315L41.3415 67.2223L35.7073 67.8982L33.1586 69.3852L29.1342 68.0334L27.3903 61.8148L30.4756 57.4889V54.3797Z" fill="white"/>
<path d="M55.5609 29.5056C52.6097 28.8297 49.2561 29.1 49.2561 29.1C49.2561 29.1 48.1829 34.1019 41.4756 35.4537C41.6097 35.3186 50.4634 38.2926 55.5609 29.5056Z" fill="#94A6C3"/>
<path d="M58.3785 74.9278C62.0004 72.0889 64.6833 68.1686 65.8906 63.7075C65.8906 63.5723 66.4272 63.3019 66.8297 63.0315C67.3663 62.626 67.9028 62.3556 68.037 61.95C68.3053 60.5982 68.4394 59.2463 68.4394 57.8945C68.4394 57.3538 67.9028 56.813 67.3663 56.4075C66.9638 56.0019 66.5614 55.7315 66.5614 55.326C66.0248 50.1889 63.6102 45.3223 59.8541 41.8075L59.4516 42.213C63.0736 45.7278 65.4882 50.4593 66.0248 55.4612C66.0248 55.8667 66.5614 56.4075 66.9638 56.813C67.3663 57.2186 67.7687 57.6241 67.7687 57.8945C67.7687 59.2463 67.6346 60.463 67.3663 61.8149C67.3663 62.0852 66.8297 62.2204 66.4272 62.4908C65.8907 62.7612 65.3541 63.0315 65.2199 63.5723C63.8785 68.4389 60.7931 72.6297 56.6346 75.3334C57.3053 73.7112 59.7199 68.5741 60.9272 65.8704L60.7931 57.4889L53.5492 50.4593L49.5248 51L45.098 58.3001C45.098 58.3001 47.2443 61.0038 44.2931 64.113C41.476 67.2223 39.1955 67.8982 39.1955 67.8982L37.0492 66.8167C37.7199 66.0056 38.9272 64.7889 39.8663 63.9778C41.476 62.626 43.0858 62.4908 43.0858 61.0038C43.0858 57.8945 39.8663 58.8408 39.8663 58.8408L38.6589 59.9223L38.1224 64.113L35.7077 67.2223H35.4394L31.415 66.276C31.415 66.276 33.9638 64.9241 34.2321 63.4371C34.6346 61.95 33.4272 57.2186 33.4272 56.9482C33.4272 56.9482 34.6346 58.0297 35.1711 59.5167C36.1102 56.9482 37.3175 54.65 37.5858 54.3797C37.9882 54.1093 42.5492 51.676 42.5492 51.676L41.0736 55.7315L42.1467 55.0556L44.8297 48.2963C44.8297 48.2963 47.5126 46.9445 49.5248 46.9445C53.1467 46.9445 58.3785 42.4834 55.9638 34.6426C56.6346 34.913 68.4394 40.8612 70.4516 52.4871C71.7931 61.6797 66.8297 70.0612 58.3785 74.9278Z" fill="#94A6C3"/>
<path d="M44.8298 30.7223C46.1713 29.2352 45.6347 26.9371 45.6347 26.9371L41.8786 32.6149C41.7445 32.4797 43.2201 32.6149 44.8298 30.7223Z" fill="#0A192B"/>
<path d="M32.0857 61.5445L32.4881 59.2463C32.4881 59.2463 30.6101 62.4908 30.4759 63.0315C30.3418 63.5723 30.6101 64.5186 31.2808 64.3834C31.9515 64.3834 32.8906 63.3019 32.8906 62.4908C33.0247 61.4093 32.0857 61.5445 32.0857 61.5445Z" fill="#0A192B"/>
<path d="M65.7563 25.3148C65.7563 25.3148 68.5734 25.45 71.5246 25.7204C64.9514 20.4482 58.6466 18.9611 53.549 18.9611C46.5734 18.9611 41.7441 21.9352 41.4758 22.0704L43.6222 18.5556C43.6222 18.5556 34.7685 17.7445 31.6831 27.0722C30.8783 25.0445 30.2075 22.2056 30.2075 22.2056C30.2075 22.2056 25.6466 26.2611 27.7929 33.0204C22.5612 31.1278 15.049 28.4241 14.7807 28.2889C14.3783 28.2889 14.2441 28.4241 14.2441 28.4241C14.2441 28.4241 14.11 28.5593 14.5124 28.8297C15.1831 29.3704 26.988 38.1574 29.6709 39.9148C29.1344 41.9426 29.1344 42.8889 29.6709 43.9704C30.4758 45.3222 30.4758 45.9982 30.3417 46.9445C30.2075 47.8908 29.2685 56.2722 29.0002 57.3537C28.7319 58.4352 26.4514 62.0852 26.4514 63.1667C26.5856 64.2482 28.0612 68.8445 29.2685 69.3852C30.2075 69.7908 32.6222 70.4667 34.2319 70.4667C34.7685 70.4667 35.3051 70.3315 35.5734 70.0611C36.5124 69.25 36.7807 68.9797 37.4514 68.9797H37.5856C37.8539 68.9797 38.2563 68.9797 38.6588 68.9797C39.5978 68.9797 40.8051 68.8445 41.61 68.0334C42.8173 66.8167 44.9636 65.0593 45.6344 64.2482C46.4392 63.1667 46.9758 61.6797 46.7075 60.1926C46.5734 58.8408 47.2441 57.6241 48.1831 56.4074C49.2563 54.9204 51.2685 52.3519 51.2685 52.3519C55.1588 55.326 57.5734 59.7871 57.5734 64.7889C57.5734 73.7111 49.927 80.8759 40.4027 80.8759C38.927 80.8759 37.5856 80.7408 36.11 80.3352C40.4027 81.8222 44.1588 82.363 47.11 82.363C53.549 82.363 56.9027 80.0648 56.9027 80.0648C56.9027 80.0648 55.6953 81.5519 53.8173 83.3093C64.4148 81.8222 69.5124 73.0352 69.5124 73.0352C69.5124 73.0352 69.11 75.8741 68.5734 77.7667C82.6587 67.0871 80.2441 53.7037 80.2441 53.2982C80.3783 53.4334 81.7197 55.1908 82.5246 56.1371C84.8051 32.8852 65.7563 25.3148 65.7563 25.3148ZM44.0246 62.7611C43.7563 63.0315 42.8173 63.8426 42.1466 64.5185C41.4758 65.1945 40.6709 65.7352 40.1344 66.276C39.8661 66.5463 39.4636 66.6815 38.7929 66.6815C38.5246 66.6815 38.3905 66.6815 38.1222 66.6815C37.988 66.6815 37.8539 66.6815 37.7197 66.6815C37.5856 66.6815 37.5856 66.6815 37.4514 66.6815C37.3173 66.6815 37.049 66.6815 36.9149 66.6815C37.7197 65.6 40.2685 62.8963 41.0734 62.3556C42.1466 61.6797 42.549 61.0037 42.0124 59.7871C41.3417 58.5704 39.7319 58.8408 39.7319 58.8408C39.7319 58.8408 40.6709 58.4352 41.4758 58.4352C40.4027 58.1648 39.0612 58.4352 38.3905 59.1111C37.7197 59.7871 37.8539 61.95 37.5856 63.4371C37.3173 64.9241 36.3783 65.6 34.9027 67.0871C34.0978 67.763 33.5612 68.0334 33.1588 68.0334C32.2197 67.8982 31.0124 67.6278 30.3417 67.3574C29.8051 66.6815 28.8661 64.113 28.7319 63.1667C28.8661 62.626 29.5368 61.4093 29.9392 60.7334C30.61 59.3815 31.0124 58.7056 31.1466 58.0297C31.4148 57.0834 32.0856 51.1352 32.3539 48.5667C33.0246 49.513 34.0978 51.1352 33.8295 52.2167C35.4392 49.9185 34.2319 47.6204 33.6953 46.6741C33.1588 45.7278 32.488 43.9704 33.0246 41.9426C33.5612 40.05 35.5734 34.6426 35.5734 34.6426C35.5734 34.6426 36.2441 35.8593 37.1831 35.5889C38.1222 35.3185 45.9027 23.5574 45.9027 23.5574C45.9027 23.5574 48.049 28.1537 45.7685 31.5334C43.488 34.913 41.3417 35.5889 41.3417 35.5889C41.3417 35.5889 44.427 36.1297 47.3783 34.1019C48.5856 36.9408 49.6587 39.7797 49.7929 40.1852C49.6587 40.5908 47.3783 45.9982 47.11 46.4037C46.9758 46.5389 46.1709 46.8093 45.6344 46.8093C44.6953 47.0797 44.1588 47.2148 43.8905 47.4852C43.488 47.8908 41.7441 52.8926 40.8051 55.326C39.7319 55.5963 38.7929 56.1371 37.988 57.3537C38.3905 57.0834 39.5978 56.9482 40.5368 56.813C41.3417 56.813 43.7563 58.0297 44.427 60.463C44.427 60.463 44.427 60.463 44.427 60.5982C44.8295 61.2741 44.5612 62.0852 44.0246 62.7611ZM38.7929 63.5722C39.3295 62.8963 39.1953 61.5445 39.3295 61.1389C39.3295 60.7334 39.4636 60.0574 40.0002 59.9222C40.4027 59.7871 41.4758 59.9222 41.4758 60.7334C41.4758 61.4093 40.6709 61.6797 40.1344 62.2204C39.5978 62.4908 38.927 63.4371 38.7929 63.5722ZM61.3295 52.6222C61.8661 49.6482 62.0002 47.2148 61.7319 45.1871C63.8783 48.1611 65.3539 51.8111 65.7563 55.4611C65.7563 55.8667 66.2929 56.4074 66.6953 56.813C67.0978 57.2185 67.5002 57.6241 67.5002 57.8945C67.5002 59.2463 67.3661 60.463 67.0978 61.8148C67.0978 61.95 66.5612 62.2204 66.1587 62.4908C65.6222 62.7611 65.0856 63.0315 64.9514 63.5722C63.7441 67.8982 61.0612 71.8185 57.4392 74.5222C62.8051 68.9797 65.3539 59.9222 61.3295 52.6222ZM57.7075 75.063C61.3295 72.2241 64.1466 68.1685 65.488 63.7074C65.488 63.5723 66.0246 63.3019 66.427 63.0315C66.9636 62.7611 67.5002 62.3556 67.6344 61.95C67.9027 60.5982 68.0368 59.2463 68.0368 57.8945C68.0368 57.3537 67.5002 56.813 66.9636 56.4074C66.6953 56.0019 66.2929 55.7315 66.2929 55.326C65.8905 51.1352 64.1466 47.2148 61.5978 43.9704C60.5246 37.076 55.9636 35.0482 55.8295 34.913C55.9636 35.0482 58.9148 39.3741 56.9027 44.376C54.7563 49.513 49.3905 48.7019 48.988 48.7019C48.5856 48.7019 46.8417 51 44.5612 55.1908C44.2929 55.0556 43.0856 54.7852 41.7441 55.0556C42.8173 52.2167 44.2929 48.1611 44.5612 47.7556C44.6953 47.6204 45.5002 47.35 46.0368 47.2148C47.11 46.9445 47.6466 46.8093 47.7807 46.5389C47.9148 46.4037 48.4514 45.0519 48.988 43.7C49.5246 43.7 50.7319 43.5648 50.8661 43.5648C51.0002 43.4297 52.0734 40.5908 52.0734 40.3204C52.0734 40.05 49.927 34.5074 48.988 32.3445C49.3905 31.9389 49.7929 31.263 50.1953 30.7222C61.7319 31.9389 70.8539 41.9426 70.8539 53.9741C70.988 63.1667 65.6222 71.2778 57.7075 75.063Z" fill="#0A192B"/>
<path d="M42.6835 44.2408C43.7566 43.0241 43.2201 40.5908 41.2079 40.1852C41.7444 38.9686 42.4152 36.5352 42.4152 36.5352C42.4152 36.5352 36.6469 45.7278 36.1103 45.863C35.5737 45.9982 35.0371 44.1056 35.0371 44.1056C33.964 48.2963 36.781 48.8371 37.1835 47.4852C38.9274 47.0797 41.6103 45.4574 42.6835 44.2408Z" fill="#0A192B"/>
<path d="M37.8535 46.4037L40.8047 41.2667C40.8047 41.2667 42.5486 42.0778 41.6096 43.4296C40.5364 45.187 37.8535 46.4037 37.8535 46.4037Z" fill="#FFD923"/>
<path d="M74.2071 69.9259C73.4022 71.0074 72.4632 72.2241 71.2559 73.4408C78.4998 59.2463 71.6583 46.4037 71.2559 45.863C71.7924 46.4037 72.329 46.9445 72.7315 47.4852C78.3656 53.7037 79.0363 63.1667 74.2071 69.9259Z" fill="#D82122"/>
<path d="M80.9145 51.8111C78.3657 44.9167 74.7437 39.1037 66.8291 33.6963C59.1828 28.5593 50.8657 28.9648 50.4632 28.9648H50.3291C50.5974 28.8296 50.8657 28.8296 51.134 28.6944C52.8779 28.1537 55.1584 27.613 57.4389 27.3426C63.4754 26.5315 69.512 28.5593 73.6706 32.8852C73.6706 32.8852 73.6706 32.8852 73.8047 33.0204C78.3657 38.1574 80.7803 44.5111 80.9145 51.8111Z" fill="#D82122"/>
<path d="M64.9518 23.5574C56.5006 21.9352 51.1348 22.7463 47.2445 24.2334C47.1104 23.8278 46.7079 22.8815 46.4396 22.0704C45.2323 23.5574 44.025 25.1797 43.2201 26.2612C41.0738 27.7482 40.1348 29.2352 40.1348 29.2352C41.3421 24.9093 44.964 21.8 49.3909 20.9889C50.5982 20.7186 51.9396 20.5834 53.4153 20.5834C57.3055 20.7186 61.3299 21.6649 64.9518 23.5574Z" fill="#D82122"/>
<path d="M33.8296 34.5075C27.2564 34.2371 29.4028 26.5315 29.5369 26.126C29.5369 26.126 29.9394 32.2093 33.8296 34.5075Z" fill="#D82122"/>
<path d="M40.4025 20.4482C35.3049 23.5574 36.3781 30.8574 36.3781 30.8574C31.4147 23.4223 40.0001 20.7186 40.4025 20.4482Z" fill="#D82122"/>
<path d="M31.9514 36.5352C32.3538 36.8056 32.6221 37.3463 32.2197 38.0222C31.9514 38.4278 31.6831 38.4278 31.1465 38.1574C30.4758 37.7519 26.4514 35.4537 22.6953 33.0204C26.988 34.5074 31.1465 36.1296 31.9514 36.5352Z" fill="white"/>
<defs>
<linearGradient id="paint0_linear_8769_19126" x1="11" y1="14" x2="118" y2="141.5" gradientUnits="userSpaceOnUse">
<stop stop-color="#18426F"/>
<stop offset="1" stop-color="#0D1726"/>
</linearGradient>
</defs>
</svg>
