<svg width="102" height="102" viewBox="0 0 102 102" fill="none" xmlns="http://www.w3.org/2000/svg" alt="Logo for Lepasa Metaverse">
<title>Lepasa Metaverse</title>
<rect x="0.5" y="0.5" width="101" height="101" rx="31.5" fill="white"/>
<g clip-path="url(#clip0_4859_5277)">
<path d="M84.9999 52.7936C85.0023 55.3098 84.2377 57.7684 82.8058 59.8487C81.3739 61.9291 79.3412 63.5346 76.9727 64.4561C74.6042 65.3775 72.0099 65.572 69.5279 65.0143C67.0459 64.4566 64.7915 63.1725 63.0586 61.3294C63.2546 61.0591 63.4416 60.7823 63.6199 60.4955C64.2205 59.5378 64.7064 58.5143 65.0678 57.4456C65.873 58.675 66.984 59.6794 68.2945 60.3626C69.6049 61.0458 71.0709 61.3849 72.5519 61.3474C74.033 61.3099 75.4794 60.8971 76.7528 60.1485C78.0262 59.3998 79.0837 58.3405 79.8242 57.072C80.5647 55.8034 80.9633 54.3682 80.9818 52.9037C81.0003 51.4392 80.6381 49.9945 79.9299 48.7081C79.2217 47.4216 78.1912 46.3365 76.9371 45.5567C75.6831 44.7769 74.2475 44.3285 72.7679 44.2544C72.6228 44.2544 72.4767 44.2435 72.3317 44.2435C70.8551 44.2422 69.403 44.6168 68.1153 45.3313H68.1064C68.0223 45.3772 67.9396 45.4243 67.8584 45.4724L67.8385 45.4834C66.7223 46.1541 65.7733 47.0649 65.0622 48.1481C64.9011 48.3903 64.7533 48.6409 64.6195 48.8988C63.9941 50.1046 63.6692 51.4407 63.6719 52.7958C63.6767 55.0883 63.0424 57.3377 61.8387 59.2972C61.7834 59.3859 61.728 59.4789 61.6705 59.5632C61.3349 60.0809 60.9612 60.5736 60.5524 61.0372C60.465 61.1346 60.3687 61.2331 60.2868 61.3294C59.0004 62.6959 57.4219 63.7614 55.6663 64.4483H55.653C55.6032 64.4647 55.5578 64.4822 55.5102 64.503H55.4914C54.8997 64.7468 54.3755 65.1268 53.9624 65.6115C53.5494 66.0961 53.2595 66.6714 53.1169 67.2892C53.0496 67.5788 53.0158 67.8751 53.0162 68.1723V75.7375C53.0542 76.4341 53.315 77.1007 53.7611 77.6412C54.2072 78.1817 54.8154 78.5681 55.498 78.7447C55.5965 78.7699 55.6995 78.7918 55.8024 78.8082L61.6694 80.0043H40.3525L46.2338 78.8006C46.3212 78.7863 46.4176 78.7677 46.4962 78.748C47.2123 78.5689 47.8476 78.1588 48.3015 77.5826C48.7554 77.0064 49.002 76.2971 49.0023 75.5668V68.1789C49.0015 67.8908 49.0174 67.6029 49.0499 67.3166C49.1257 66.6031 49.3008 65.9034 49.5702 65.2373C50.1227 63.871 51.0468 62.6825 52.2402 61.8033C52.4881 61.619 52.7468 61.4494 53.0151 61.2955C53.348 61.1046 53.6942 60.9375 54.0512 60.7954C54.1121 60.7757 54.1708 60.7538 54.235 60.7286C55.505 60.225 56.6359 59.4307 57.5348 58.4108C57.6157 58.3189 57.6965 58.2292 57.7728 58.1285C57.9528 57.9071 58.1209 57.6767 58.2765 57.438C59.1027 56.1769 59.5786 54.7231 59.6564 53.2227C59.7341 51.7222 59.4109 50.2279 58.7193 48.8901C58.585 48.6331 58.4372 48.3832 58.2765 48.1415C57.5463 47.0277 56.564 46.0971 55.4073 45.4232L55.2788 45.3488C54.1066 44.6921 52.7946 44.3173 51.4487 44.2544C51.3059 44.2544 51.1587 44.2435 51.0137 44.2435C50.8687 44.2435 50.7237 44.2435 50.5809 44.2544C49.255 44.3168 47.9619 44.682 46.8028 45.3214H46.7972C46.7198 45.363 46.6412 45.4079 46.5659 45.456C45.094 46.3315 43.9189 47.6202 43.1904 49.158C42.4618 50.6959 42.2128 52.4133 42.4749 54.0916C42.737 55.7698 43.4985 57.333 44.6623 58.582C45.8261 59.831 47.3396 60.7093 49.0101 61.1051C49.2226 61.1554 49.4407 61.197 49.6588 61.232C49.43 61.4735 49.2138 61.7212 49.0101 61.9751C48.9071 62.1053 48.8086 62.2355 48.7134 62.3723C48.1789 63.1203 47.7509 63.9374 47.4415 64.8007C45.2606 64.1666 43.2928 62.9634 41.745 61.3174C41.2327 60.7719 40.7697 60.1831 40.3613 59.5577C39.044 57.5401 38.3437 55.1895 38.3444 52.7881C38.3468 51.4327 38.0219 50.0964 37.3969 48.8901C37.2626 48.6331 37.1148 48.3832 36.9541 48.1415C36.2188 47.024 35.2304 46.091 34.0671 45.4166L34.0416 45.4024L33.952 45.3499C32.6514 44.6203 31.1811 44.2379 29.6857 44.2402C29.5407 44.2402 29.3979 44.2402 29.2529 44.2512C27.7733 44.3252 26.3377 44.7736 25.0836 45.5534C23.8296 46.3333 22.7991 47.4184 22.0909 48.7048C21.3827 49.9912 21.0204 51.4359 21.0389 52.9004C21.0574 54.3649 21.456 55.8002 22.1965 57.0687C22.937 58.3372 23.9946 59.3966 25.268 60.1452C26.5413 60.8938 27.9878 61.3066 29.4688 61.3441C30.9498 61.3816 32.4158 61.0425 33.7263 60.3593C35.0367 59.6762 36.1478 58.6717 36.953 57.4423C37.4241 58.8297 38.104 60.139 38.9699 61.3261C37.5551 62.8347 35.7864 63.9758 33.82 64.6487C31.8536 65.3217 29.7498 65.5058 27.6944 65.1847C25.639 64.8637 23.6951 64.0475 22.0342 62.808C20.3734 61.5686 19.0467 59.944 18.1713 58.0778C17.2958 56.2115 16.8985 54.1609 17.0143 52.1069C17.1302 50.053 17.7557 48.0587 18.8356 46.3003C19.9156 44.5418 21.4167 43.0732 23.2067 42.024C24.9966 40.9748 27.0202 40.3773 29.099 40.2842C28.7509 39.6208 28.4648 38.9274 28.2444 38.2126C27.6637 36.3396 27.5355 34.3581 27.8701 32.4272C28.2046 30.4964 28.9926 28.67 30.1707 27.0949C31.3489 25.5197 32.8843 24.2397 34.6537 23.3577C36.423 22.4756 38.377 22.0161 40.3586 22.0161C42.3401 22.0161 44.2941 22.4756 46.0635 23.3577C47.8328 24.2397 49.3683 25.5197 50.5464 27.0949C51.7245 28.67 52.5125 30.4964 52.8471 32.4272C53.1816 34.3581 53.0534 36.3396 52.4727 38.2126C51.9945 38.1677 51.5085 38.1437 51.0192 38.1437C50.5299 38.1437 50.044 38.1677 49.5658 38.2126C49.0612 38.2596 48.5594 38.3327 48.0625 38.4315C48.8342 36.9428 49.1476 35.2631 48.9639 33.6003C48.7802 31.9374 48.1075 30.3642 47.029 29.0752C45.9505 27.7863 44.5135 26.8381 42.8957 26.348C41.2779 25.8579 39.5502 25.8473 37.9264 26.3175C36.3026 26.7878 34.8538 27.7183 33.7592 28.9939C32.6646 30.2695 31.9722 31.8344 31.7677 33.4949C31.5632 35.1554 31.8555 36.8387 32.6085 38.3368C33.3614 39.8348 34.5421 41.0818 36.0043 41.9235L36.0608 41.9563C37.7957 42.9588 39.2678 44.3507 40.358 46.0196C41.4319 44.3753 42.8786 43.0009 44.5833 42.0056L44.6021 41.9946C44.6641 41.9607 44.725 41.9257 44.7859 41.8852C46.5103 40.9189 48.4413 40.3691 50.4215 40.2809C50.6218 40.2809 50.8189 40.2667 51.0214 40.2667C51.224 40.2667 51.4233 40.2667 51.6214 40.2809C53.6282 40.3713 55.5842 40.9341 57.3267 41.9224L57.3765 41.9509C59.1171 42.9502 60.5926 44.344 61.6816 46.0174C62.7524 44.3725 64.196 42.9967 65.898 41.999L65.9146 41.9881C65.9766 41.9552 66.0375 41.9191 66.0984 41.8786C67.2197 41.2197 68.1759 40.3186 68.8952 39.2428C69.6146 38.167 70.0785 36.9443 70.2524 35.6661C70.4263 34.388 70.3056 33.0876 69.8993 31.8621C69.493 30.6366 68.8116 29.5178 67.9062 28.5894C67.0008 27.661 65.8947 26.947 64.6707 26.5009C63.4468 26.0547 62.1366 25.888 60.8383 26.0131C59.5399 26.1382 58.287 26.5519 57.1732 27.2233C56.0594 27.8947 55.1136 28.8064 54.4066 29.8901C53.9408 28.5015 53.2657 27.1903 52.404 26.0009C54.4886 23.7812 57.3162 22.3835 60.3631 22.0667C63.4101 21.75 66.47 22.5356 68.9759 24.2781C71.4819 26.0205 73.2643 28.6018 73.9928 31.5437C74.7213 34.4856 74.3467 37.5889 72.9383 40.2787C73.6936 40.3125 74.4443 40.414 75.181 40.5818C77.9733 41.2199 80.4644 42.7747 82.2477 44.9926C84.0309 47.2104 85.0011 49.9604 84.9999 52.7936Z" fill="#0A0A0A"/>
<path d="M55.0288 52.7935C55.0288 53.4922 54.8423 54.1786 54.4882 54.7832C54.1341 55.3879 53.6248 55.8895 53.0119 56.2374L52.889 56.3042L52.7684 56.3655L52.7462 56.3764C52.2214 56.6577 51.7832 57.0739 51.4778 57.5811C51.1725 58.0883 51.0114 58.6676 51.0116 59.2578C51.0118 58.6674 50.8506 58.088 50.5451 57.5808C50.2395 57.0736 49.801 56.6575 49.2759 56.3764H49.2504L49.1397 56.3162H49.1287L49.008 56.2494C48.3976 55.9009 47.8907 55.3997 47.5382 54.7962C47.1857 54.1927 47.0001 53.5081 47 52.8112C46.9998 52.1143 47.1852 51.4297 47.5374 50.826C47.8897 50.2224 48.3964 49.721 49.0067 49.3722C49.617 49.0235 50.3094 48.8396 51.0143 48.8391C51.7192 48.8386 52.4119 49.0215 53.0227 49.3694C53.6335 49.7173 54.1409 50.218 54.494 50.8211C54.8471 51.4243 55.0335 52.1087 55.0343 52.8056L55.0288 52.7935Z" fill="#E62323"/>
</g>
<rect x="0.5" y="0.5" width="101" height="101" rx="31.5" stroke="#CFCFCF"/>
<defs>
<clipPath id="clip0_4859_5277">
<rect width="68" height="58" fill="white" transform="translate(17 22)"/>
</clipPath>
</defs>
</svg>
