<svg width="102" height="102" viewBox="0 0 102 102" fill="none" xmlns="http://www.w3.org/2000/svg" alt="Logo for Symphony Finance">
<title>Symphony Finance</title>
<rect width="102" height="102" rx="32" fill="#D7FBE3"/>
<g clip-path="url(#clip0_4859_5291)">
<path d="M66.0018 31C64.9276 31 64.0569 31.86 64.0569 32.921V69.0788C64.0569 70.1397 64.9276 70.9999 66.0018 70.9999C67.0759 70.9999 67.9468 70.1397 67.9468 69.0788V32.921C67.9468 31.86 67.0759 31 66.0018 31Z" fill="#01796F"/>
<path d="M37.4227 71.0001C36.3486 71.0001 35.4777 70.1401 35.4777 69.079V33.6905C35.4777 32.6296 36.3486 31.7695 37.4227 31.7695C38.4969 31.7695 39.3676 32.6296 39.3676 33.6905V69.079C39.3676 70.1401 38.4969 71.0001 37.4227 71.0001Z" fill="#01796F"/>
<path d="M27.8968 42.5383C26.8226 42.5383 25.9518 43.3984 25.9518 44.4593V59.0788C25.9518 60.1396 26.8226 60.9998 27.8968 60.9998C28.971 60.9998 29.8418 60.1396 29.8418 59.0788V44.4593C29.8418 43.3984 28.971 42.5383 27.8968 42.5383Z" fill="#01796F"/>
<path d="M18.37 47.9229C17.2958 47.9229 16.425 48.7829 16.425 49.8437V53.3107C16.425 54.3716 17.2958 55.2316 18.37 55.2316C19.4441 55.2316 20.3149 54.3716 20.3149 53.3107V49.8437C20.3149 48.7829 19.4441 47.9229 18.37 47.9229Z" fill="#01796F"/>
<path d="M46.9495 47.9231C45.8754 47.9231 45.0045 48.7831 45.0045 49.844V53.6944C45.0045 54.7552 45.8754 55.6154 46.9495 55.6154C48.0237 55.6154 48.8944 54.7552 48.8944 53.6944V49.844C48.8944 48.7831 48.0237 47.9231 46.9495 47.9231Z" fill="#01796F"/>
<path d="M56.4754 60.9998C55.4013 60.9998 54.5305 60.1396 54.5305 59.0788V44.4593C54.5305 43.3984 55.4013 42.5383 56.4754 42.5383C57.5496 42.5383 58.4205 43.3984 58.4205 44.4593V59.0788C58.4205 60.1396 57.5496 60.9998 56.4754 60.9998Z" fill="#01796F"/>
<path d="M75.5286 60.9998C74.4544 60.9998 73.5837 60.1396 73.5837 59.0788V44.4593C73.5837 43.3984 74.4544 42.5383 75.5286 42.5383C76.6029 42.5383 77.4736 43.3984 77.4736 44.4593V59.0788C77.4736 60.1396 76.6029 60.9998 75.5286 60.9998Z" fill="#01796F"/>
<path d="M85.0549 47.9231C83.9808 47.9231 83.11 48.7831 83.11 49.844V53.6944C83.11 54.7552 83.9808 55.6154 85.0549 55.6154C86.1292 55.6154 87 54.7552 87 53.6944V49.844C87 48.7831 86.1292 47.9231 85.0549 47.9231Z" fill="#01796F"/>
</g>
<defs>
<clipPath id="clip0_4859_5291">
<rect width="72" height="40" fill="white" transform="translate(15 31)"/>
</clipPath>
</defs>
</svg>
