<svg width="264" height="263" viewBox="0 0 264 263" fill="none" xmlns="http://www.w3.org/2000/svg">
<rect x="41.2764" y="94.7676" width="138.655" height="138.655" rx="44.2463" transform="rotate(-22.9768 41.2764 94.7676)" fill="url(#paint0_linear_17_273)"/>
<g style="mix-blend-mode:color-dodge" opacity="0.5" filter="url(#filter0_f_17_273)">
<path fill-rule="evenodd" clip-rule="evenodd" d="M55.6935 125.878C54.5901 108.089 64.6408 90.7438 81.9837 83.3905L132.279 62.0654C150.156 54.4856 170.277 59.8561 182.185 73.9472C170.6 56.6856 148.045 49.4977 128.195 57.9142L82.0121 77.4956C62.6726 85.6955 52.1949 106.038 55.6935 125.878Z" fill="url(#paint1_linear_17_273)"/>
</g>
<path fill-rule="evenodd" clip-rule="evenodd" d="M142.802 95.5003C142.452 95.5742 142.08 95.6015 141.708 95.6288L139.863 96.4612C138.272 97.7484 137.359 99.5161 136.427 101.319L136.329 101.509C134.788 104.535 131.485 106.025 128.323 105.093C126.33 104.504 124.388 104.089 122.324 104.375L120.501 105.197C118.776 106.537 117.809 108.405 116.83 110.307C115.266 113.342 111.941 114.843 108.724 113.851C106.721 113.239 104.777 112.881 102.734 113.213L100.911 114.035C100.552 114.394 100.17 114.763 99.7885 115.131C97.9579 116.968 97.3279 119.218 97.6654 121.789C97.683 121.949 97.6949 122.113 97.7068 122.276C97.7187 122.439 97.7306 122.602 97.7482 122.762L98.5902 124.628C99.9193 126.359 101.651 127.403 103.602 128.263C106.736 129.741 108.369 133.3 107.405 136.571C106.793 138.616 106.439 140.628 106.801 142.767L107.643 144.633C108.985 146.33 110.739 147.364 112.689 148.281C115.723 149.72 117.356 153.279 116.427 156.506C115.835 158.597 115.414 160.641 115.853 162.829L116.695 164.695C117.077 165.056 117.447 165.451 117.817 165.845C119.658 167.738 121.872 168.452 124.397 168.155C124.555 168.14 124.715 168.131 124.875 168.122C125.036 168.113 125.196 168.103 125.354 168.088L127.176 167.266C128.823 165.934 129.809 164.169 130.677 162.205C132.064 159.081 135.572 157.498 138.82 158.56C140.867 159.208 142.855 159.603 144.944 159.25L146.766 158.428C146.924 158.28 147.078 158.122 147.233 157.962C147.419 157.772 147.607 157.578 147.808 157.396C150.354 154.956 150.895 150.809 149.027 147.946C146.86 144.6 143.191 143.335 139.734 144.726C137.721 145.551 136.363 146.977 135.539 148.978C134.434 151.694 132.591 153.565 129.624 153.977C123.881 154.799 119.242 149.255 121.062 143.689C121.88 141.186 121.703 138.851 120.379 136.585C119.382 134.891 117.77 134.048 116.143 133.198C116.045 133.146 115.946 133.094 115.847 133.043C109.888 129.92 110.915 122.718 114.529 119.852C116.751 118.091 119.204 117.939 121.848 118.936C125.869 120.435 130.155 118.754 131.464 114.85C132.945 110.476 137.39 108.358 141.725 110.249C144.586 111.485 147.933 110.396 149.87 108.006C151.889 105.495 152.081 102.151 150.343 99.0891C148.926 96.5558 145.758 95.0649 142.802 95.5003ZM161.106 140.811C159.752 141.394 159.18 142.86 159.811 144.26C160.443 145.659 161.918 146.257 163.229 145.637C164.528 145.052 165.105 143.415 164.493 142.119C163.902 140.87 162.37 140.269 161.106 140.811ZM150.96 124.641C150.351 123.231 150.888 121.81 152.289 121.206C153.575 120.654 155.084 121.264 155.663 122.547C156.252 123.854 155.652 125.5 154.376 126.076C153.067 126.638 151.57 125.994 150.96 124.641ZM134.963 135.003C136.295 134.43 136.846 132.918 136.225 131.542C135.617 130.132 134.151 129.558 132.795 130.198C131.53 130.797 130.968 132.285 131.501 133.589C132.045 134.916 133.654 135.566 134.963 135.003Z" fill="#F8BF1E"/>
<defs>
<filter id="filter0_f_17_273" x="54.5236" y="53.8897" width="128.164" height="72.4914" filterUnits="userSpaceOnUse" color-interpolation-filters="sRGB">
<feFlood flood-opacity="0" result="BackgroundImageFix"/>
<feBlend mode="normal" in="SourceGraphic" in2="BackgroundImageFix" result="shape"/>
<feGaussianBlur stdDeviation="0.2514" result="effect1_foregroundBlur_17_273"/>
</filter>
<linearGradient id="paint0_linear_17_273" x1="110.604" y1="94.7676" x2="67.6859" y2="218.123" gradientUnits="userSpaceOnUse">
<stop stop-color="#212428"/>
<stop offset="0.937272" stop-color="#15171B"/>
</linearGradient>
<linearGradient id="paint1_linear_17_273" x1="58.2113" y1="97.2188" x2="166.541" y2="53.6168" gradientUnits="userSpaceOnUse">
<stop stop-color="#F3CCEB"/>
<stop offset="0.392952"/>
<stop offset="0.555099"/>
<stop offset="1" stop-color="#F7CDED"/>
</linearGradient>
</defs>
</svg>
