<svg width="42" height="42" viewBox="0 0 42 42" fill="none" xmlns="http://www.w3.org/2000/svg">
<g id="spades (1) 1" clip-path="url(#clip0_12480_271)">
<g id="Group">
<path id="Vector" d="M36.4767 16.7365C30.9992 11.6088 26.1232 5.19673 24.1105 2.43196C23.5916 1.71927 22.5635 1.62939 21.9289 2.24124C19.4669 4.61473 13.5523 10.0834 7.26807 14.183C4.41683 16.043 2.58013 19.0541 2.28857 22.3891C1.77111 28.3082 6.28309 33.5377 12.3663 34.0695C14.4237 34.2494 16.3628 33.6394 17.8694 32.4975L17.6867 34.5874C17.4643 37.1316 15.6133 37.2877 14.0947 38.352C13.7294 38.608 13.8897 39.1828 14.334 39.2217L25.1359 40.166C25.5786 40.2047 25.8361 39.6703 25.5247 39.3532C24.229 38.0339 22.4494 37.6092 22.6738 35.0424L22.8582 32.9335C24.1437 34.3196 25.9476 35.2568 28.005 35.4366C34.0882 35.9684 39.4392 31.6012 39.9566 25.6821C40.2483 22.3472 38.9619 19.0631 36.4767 16.7365Z" fill="white"/>
</g>
</g>
<defs>
<clipPath id="clip0_12480_271">
<rect width="38" height="38" fill="white" transform="translate(4.13525 0.185059) rotate(4.99629)"/>
</clipPath>
</defs>
</svg>
