<?xml version="1.0" encoding="utf-8"?>
<!-- Generator: Adobe Illustrator 26.0.1, SVG Export Plug-In . SVG Version: 6.00 Build 0)  -->
<svg version="1.1" id="Layer_1" xmlns="http://www.w3.org/2000/svg" xmlns:xlink="http://www.w3.org/1999/xlink" x="0px" y="0px"
	 viewBox="0 0 49 48" style="enable-background:new 0 0 49 48;" xml:space="preserve">
<style type="text/css">
	.st0{fill:none;stroke:#000000;stroke-width:3;stroke-linecap:round;}
</style>
<path d="M19.2,8.1l0.5,1.4l0.6-0.3l0.2-0.7L19.2,8.1z M29.8,8.1l-1.4,0.5l0.2,0.7l0.6,0.3L29.8,8.1z M40.6,32l-1.3,0.8l0,0l0,0
	L40.6,32z M41,33.3l1.5,0L41,33.3z M40.6,34.6l-1.3-0.8l0,0L40.6,34.6z M39.6,35.6l0.7,1.3l0,0L39.6,35.6z M38.2,36l0-1.5h0V36z
	 M10.8,36v-1.5l0,0L10.8,36z M9.4,35.6l-0.7,1.3h0L9.4,35.6z M8.4,34.6l1.3-0.8l0,0L8.4,34.6z M8,33.3l-1.5,0L8,33.3z M8.4,32
	l1.3,0.8c0,0,0,0,0,0L8.4,32z M10.6,20.2h1.5v0L10.6,20.2z M19.2,8.1l0.5,1.4l0,0L19.2,8.1z M20.7,8.6c0.5-1.5,2-2.6,3.8-2.6V3
	c-3.1,0-5.7,1.9-6.7,4.6L20.7,8.6z M24.5,6c1.8,0,3.3,1.1,3.9,2.6l2.8-1C30.3,4.9,27.6,3,24.5,3V6z M39.9,20.4
	c0-6.2-4-11.5-9.5-13.7l-1.1,2.8c4.5,1.8,7.6,6,7.6,10.9H39.9z M39.9,21.5v-1.2h-3v1.2H39.9z M41.9,31.2c-0.9-1.4-2-4.3-2-9.7h-3
	c0,5.8,1.3,9.3,2.5,11.3L41.9,31.2z M42.5,33.3c0-0.8-0.2-1.5-0.6-2.1l-2.5,1.6c0.1,0.2,0.2,0.3,0.2,0.5L42.5,33.3z M41.9,35.4
	c0.4-0.6,0.6-1.4,0.6-2.1l-3,0c0,0.2,0,0.4-0.1,0.5L41.9,35.4z M40.3,36.9c0.6-0.4,1.2-0.9,1.6-1.5l-2.6-1.6
	c-0.1,0.2-0.3,0.3-0.5,0.4L40.3,36.9z M38.2,37.5c0.7,0,1.5-0.2,2.1-0.5l-1.4-2.6c-0.2,0.1-0.4,0.2-0.7,0.2L38.2,37.5z M10.8,37.5
	h27.4v-3H10.8V37.5z M8.7,36.9c0.6,0.4,1.4,0.5,2.1,0.5l0-3c-0.2,0-0.5-0.1-0.7-0.2L8.7,36.9z M7.1,35.4c0.4,0.6,0.9,1.2,1.6,1.5
	l1.4-2.6c-0.2-0.1-0.3-0.3-0.5-0.4L7.1,35.4z M6.5,33.3c0,0.8,0.2,1.5,0.6,2.1l2.6-1.6c-0.1-0.2-0.2-0.3-0.1-0.5L6.5,33.3z
	 M7.1,31.2c-0.4,0.6-0.6,1.4-0.6,2.1l3,0c0-0.2,0.1-0.4,0.2-0.5L7.1,31.2z M9.1,21.5c0,5.4-1.2,8.3-2,9.7l2.6,1.6
	c1.2-1.9,2.5-5.4,2.5-11.3H9.1z M9.1,20.2v1.3h3v-1.3H9.1z M10.3,14.6c-0.8,1.8-1.2,3.7-1.2,5.6l3,0c0-1.5,0.3-3,0.9-4.4L10.3,14.6z
	 M13.7,9.9c-1.4,1.4-2.6,3-3.3,4.7l2.7,1.2c0.6-1.4,1.5-2.7,2.7-3.8L13.7,9.9z M18.6,6.7c-1.9,0.7-3.6,1.8-5,3.1l2.1,2.2
	c1.1-1.1,2.5-1.9,4-2.5L18.6,6.7z M18.7,6.7C18.7,6.7,18.7,6.7,18.7,6.7l1,2.8c0,0,0,0,0,0L18.7,6.7z"/>
<path class="st0" d="M30.5,36c-0.3,7.9-11.7,7.9-12,0"/>
</svg>
