<svg width="24" height="25" viewBox="0 0 24 25" fill="none" xmlns="http://www.w3.org/2000/svg">
<g id="discord (2) 1" clip-path="url(#clip0_958_5071)">
<g id="Group">
<path id="Vector" d="M20.3171 4.57698C18.7874 3.87512 17.1471 3.35799 15.4319 3.06179C15.4007 3.05607 15.3695 3.07037 15.3534 3.09891C15.1424 3.47415 14.9088 3.96362 14.7451 4.34837C12.9005 4.07218 11.0652 4.07218 9.25836 4.34837C9.09468 3.95509 8.85252 3.47415 8.6406 3.09891C8.62452 3.07131 8.5933 3.05701 8.56208 3.06179C6.84796 3.35701 5.20761 3.87413 3.67696 4.57698C3.66369 4.5827 3.65235 4.59221 3.6448 4.60459C0.533426 9.25295 -0.318949 13.7871 0.0991759 18.2649C0.101051 18.2868 0.113379 18.3078 0.130395 18.3211C2.18319 19.8287 4.17172 20.7439 6.12327 21.3505C6.15449 21.3601 6.18758 21.3487 6.20746 21.3229C6.66908 20.6925 7.0806 20.0278 7.43343 19.3287C7.45424 19.2878 7.43436 19.2392 7.3918 19.223C6.73907 18.9754 6.11755 18.6735 5.51966 18.3307C5.47236 18.3031 5.46857 18.2355 5.51211 18.2031C5.63793 18.1088 5.76379 18.0107 5.88393 17.9116C5.90568 17.8936 5.93596 17.8898 5.9615 17.9011C9.88925 19.6944 14.1415 19.6944 18.0229 17.9011C18.0485 17.8888 18.0787 17.8926 18.1014 17.9107C18.2216 18.0097 18.3474 18.1088 18.4742 18.203C18.5177 18.2354 18.5148 18.3031 18.4676 18.3307C17.8697 18.6802 17.2482 18.9754 16.5945 19.222C16.5519 19.2382 16.533 19.2878 16.5538 19.3287C16.9143 20.0267 17.3258 20.6915 17.7789 21.3219C17.7978 21.3486 17.8318 21.3601 17.8631 21.3505C19.8241 20.7439 21.8126 19.8286 23.8654 18.3211C23.8834 18.3078 23.8948 18.2878 23.8966 18.2659C24.3971 13.089 23.0585 8.59201 20.3482 4.60552C20.3416 4.59221 20.3303 4.5827 20.3171 4.57698ZM8.02007 15.5384C6.83755 15.5384 5.86316 14.4527 5.86316 13.1194C5.86316 11.7862 6.81861 10.7005 8.02007 10.7005C9.23089 10.7005 10.1959 11.7957 10.1769 13.1194C10.1769 14.4527 9.22143 15.5384 8.02007 15.5384ZM15.9948 15.5384C14.8123 15.5384 13.8379 14.4527 13.8379 13.1194C13.8379 11.7862 14.7934 10.7005 15.9948 10.7005C17.2056 10.7005 18.1706 11.7957 18.1517 13.1194C18.1517 14.4527 17.2057 15.5384 15.9948 15.5384Z" fill="#6C6C6C"/>
</g>
</g>
<defs>
<clipPath id="clip0_958_5071">
<rect width="24" height="24" fill="white" transform="translate(0 0.207031)"/>
</clipPath>
</defs>
</svg>
