<svg width="62" height="73" viewBox="0 0 62 73" fill="none" xmlns="http://www.w3.org/2000/svg">
<g clip-path="url(#clip0_3410_8626)">
<path d="M52.2928 2.21216H28.5284C23.7788 2.21216 19.9285 6.04361 19.9285 10.7699V63.3362C19.9285 68.0625 23.7788 71.894 28.5284 71.894H52.2928C57.0424 71.894 60.8928 68.0625 60.8928 63.3362V10.7699C60.8928 6.04361 57.0424 2.21216 52.2928 2.21216Z" fill="white" stroke="#09090B" stroke-width="2" stroke-miterlimit="10"/>
<path d="M40.4595 66.0448C42.768 66.0448 44.6394 64.1633 44.6394 61.8424C44.6394 59.5215 42.768 57.64 40.4595 57.64C38.151 57.64 36.2795 59.5215 36.2795 61.8424C36.2795 64.1633 38.151 66.0448 40.4595 66.0448Z" fill="#DD44B9" stroke="#09090B" stroke-width="2" stroke-miterlimit="10"/>
<path d="M31 8.84851H49.8214" stroke="#09090B" stroke-width="2" stroke-miterlimit="10"/>
<path d="M38.5152 15.4849H0.728271V41.7974H38.5152V15.4849Z" fill="white" stroke="#09090B" stroke-width="2" stroke-miterlimit="10"/>
<path d="M6.72876 22.2936H32.5585" stroke="#09090B" stroke-width="2" stroke-miterlimit="10"/>
<path d="M6.72876 28.6338H32.5585" stroke="#09090B" stroke-width="2" stroke-miterlimit="10"/>
<path d="M6.72876 34.7471H25.2618" stroke="#09090B" stroke-width="2" stroke-miterlimit="10"/>
</g>
<defs>
<clipPath id="clip0_3410_8626">
<rect width="62" height="73" fill="white"/>
</clipPath>
</defs>
</svg>
