<svg width="32" height="26" viewBox="0 0 32 26" fill="none" xmlns="http://www.w3.org/2000/svg">
<path d="M32 3.06758C30.8031 3.59538 29.5407 3.94547 28.25 4.10758C29.6087 3.29967 30.6392 2.00621 31.15 0.46758C29.856 1.22685 28.4557 1.77077 27 2.07958C26.3772 1.41266 25.6306 0.88437 24.8054 0.526806C23.9803 0.169242 23.0939 -0.0101325 22.2 -0.000419946C21.3562 -0.0176588 20.5174 0.138157 19.7316 0.458126C18.9457 0.778095 18.2281 1.25595 17.6199 1.86439C17.0116 2.47283 16.5246 3.19994 16.1866 4.00418C15.8486 4.80842 15.6663 5.67404 15.65 6.55158C15.6478 7.05839 15.6981 7.56397 15.8 8.05958C13.2084 7.94887 10.6669 7.28195 8.33506 6.10072C6.00322 4.91948 3.93148 3.24946 2.25 1.19558C1.67458 2.18463 1.36386 3.31567 1.35 4.47158C1.35534 5.56138 1.62365 6.63234 2.13033 7.58629C2.637 8.54024 3.36583 9.34665 4.25 9.93158C3.21602 9.90945 2.20307 9.62376 1.3 9.09958V9.20358C1.32316 10.7439 1.85898 12.2283 2.81622 13.404C3.77347 14.5797 5.09295 15.374 6.55 15.6516C5.97799 15.8006 5.38959 15.8705 4.8 15.8596C4.38172 15.8508 3.96431 15.8161 3.55 15.7556C3.99827 17.0834 4.82928 18.2353 5.92981 19.0541C7.03034 19.873 8.34686 20.3191 9.7 20.3316C7.34953 22.165 4.4881 23.1509 1.55 23.1396C1.03196 23.1325 0.514615 23.0978 0 23.0356C3.01791 24.9807 6.49952 26.0076 10.05 25.9996C22.15 25.9996 28.75 16.0156 28.75 7.33158V6.49958C30.0142 5.55742 31.1135 4.39656 32 3.06758Z" fill="white"/>
</svg>
