<svg width="36" height="36" viewBox="0 0 36 36" fill="none" xmlns="http://www.w3.org/2000/svg">
<path fill-rule="evenodd" clip-rule="evenodd" d="M18.4236 1.93721C17.6504 0.461065 15.4827 0.640166 14.9622 2.22321L13.1698 7.67473C12.0008 11.23 9.4388 14.1585 6.07042 15.7895L1.87524 17.821C0.335792 18.5664 0.50448 20.8117 2.13803 21.3188L6.62286 22.7109C10.1786 23.8146 13.1379 26.3074 14.8297 29.624L17.4026 34.6681C18.1564 36.1459 20.3138 36.0001 20.8619 34.4343L22.8116 28.8648C24.0148 25.4277 26.5271 22.605 29.8016 21.0114L34.1078 18.9156C35.6425 18.1687 35.4743 15.9297 33.8452 15.4205L29.3081 14.0022C25.8133 12.9098 22.8955 10.4739 21.1964 7.23039L18.4236 1.93721Z" fill="white"/>
</svg>
