<svg width="28" height="28" viewBox="0 0 28 28" fill="none" xmlns="http://www.w3.org/2000/svg">
<path d="M0.455853 25.3431L22.6899 3.11102H6.2229C5.81035 3.11102 5.4147 2.94713 5.12299 2.65542C4.83127 2.3637 4.66739 1.96805 4.66739 1.55551C4.66739 1.14296 4.83127 0.747311 5.12299 0.455597C5.4147 0.163881 5.81035 0 6.2229 0H26.4445C26.857 0 27.2527 0.163881 27.5444 0.455597C27.8361 0.747311 28 1.14296 28 1.55551V21.7771C28 22.1897 27.8361 22.5853 27.5444 22.877C27.2527 23.1687 26.857 23.3326 26.4445 23.3326C26.0319 23.3326 25.6363 23.1687 25.3446 22.877C25.0529 22.5853 24.889 22.1897 24.889 21.7771V5.31011L2.6569 27.5441C2.51237 27.6887 2.3408 27.8033 2.15197 27.8815C1.96314 27.9597 1.76076 28 1.55637 28C1.35199 28 1.1496 27.9597 0.960775 27.8815C0.771948 27.8033 0.600374 27.6887 0.455853 27.5441C0.311329 27.3996 0.19669 27.2281 0.118475 27.0392C0.0402584 26.8504 0 26.648 0 26.4436C0 26.2392 0.0402584 26.0369 0.118475 25.848C0.19669 25.6592 0.311329 25.4876 0.455853 25.3431Z" fill="white"/>
</svg>
