<svg width="28" height="29" viewBox="0 0 28 29" fill="none" xmlns="http://www.w3.org/2000/svg">
<path fill-rule="evenodd" clip-rule="evenodd" d="M15.3524 1.31893C14.8155 0.0899936 13.0473 0.103007 12.529 1.33972L10.7439 5.59859C9.57977 8.37604 7.3245 10.5676 4.49458 11.6714L0.970016 13.0461C-0.32334 13.5506 -0.323339 15.3593 0.970021 15.8637L4.52088 17.2487C7.33613 18.3468 9.58332 20.5217 10.7527 23.2801L12.5313 27.4753C13.0524 28.7044 14.8101 28.7175 15.3498 27.4962L17.2695 23.1523C18.4543 20.4715 20.6628 18.3617 23.4143 17.2823L27.0328 15.8626C28.3224 15.3567 28.3224 13.5532 27.0328 13.0473L23.4411 11.6382C20.6746 10.5528 18.4576 8.42604 17.2778 5.72569L15.3524 1.31893Z" fill="white"/>
</svg>
