<svg width="22" height="19" viewBox="0 0 22 19" fill="none" xmlns="http://www.w3.org/2000/svg">
<path d="M22 2.62294C21.1771 2.98834 20.3092 3.23071 19.4219 3.34294C20.356 2.78362 21.0645 1.88815 21.4156 0.822939C20.526 1.34859 19.5633 1.72515 18.5625 1.93894C18.1343 1.47722 17.621 1.11149 17.0537 0.863942C16.4865 0.616398 15.877 0.492215 15.2625 0.498939C14.6824 0.487005 14.1057 0.594877 13.5654 0.816394C13.0252 1.03791 12.5318 1.36873 12.1137 1.78996C11.6955 2.21119 11.3607 2.71457 11.1283 3.27136C10.8959 3.82814 10.7706 4.42741 10.7594 5.03494C10.7579 5.38581 10.7925 5.73582 10.8625 6.07894C9.0808 6.0023 7.33349 5.54058 5.73035 4.7228C4.12721 3.90502 2.70289 2.74886 1.54688 1.32694C1.15127 2.01166 0.937651 2.79469 0.928125 3.59494C0.931797 4.34941 1.11626 5.09085 1.4646 5.75128C1.81294 6.4117 2.31401 6.96999 2.92188 7.37494C2.21102 7.35962 1.51461 7.16183 0.89375 6.79894V6.87094C0.909673 7.93735 1.27805 8.96501 1.93615 9.77894C2.59426 10.5929 3.5014 11.1427 4.50313 11.3349C4.10987 11.4381 3.70534 11.4865 3.3 11.4789C3.01243 11.4728 2.72546 11.4488 2.44062 11.4069C2.74881 12.3262 3.32013 13.1236 4.07675 13.6906C4.83336 14.2575 5.73847 14.5663 6.66875 14.5749C5.0528 15.8442 3.08557 16.5268 1.06562 16.5189C0.709474 16.514 0.353798 16.49 0 16.4469C2.07481 17.7936 4.46842 18.5045 6.90938 18.4989C15.2281 18.4989 19.7656 11.5869 19.7656 5.57494V4.99894C20.6348 4.34667 21.3905 3.543 22 2.62294Z" fill="white"/>
</svg>
