<svg width="149" height="28" viewBox="0 0 149 28" fill="none" xmlns="http://www.w3.org/2000/svg">
<path d="M4.39545 4.86217L11.387 0.826599L18.3786 4.86217L15.8081 6.35301L11.387 3.8083L6.96589 6.35301L4.39545 4.86217ZM18.3786 9.95162L15.8081 8.46076L11.387 11.0055L6.96589 8.46076L4.39545 9.95162V12.9333L8.81658 15.478V20.5674L11.387 22.0583L13.9574 20.5674V15.478L18.3786 12.9333V9.95162ZM18.3786 18.0228V15.0411L15.8081 16.5319V19.5136L18.3786 18.0228ZM20.2035 19.0767L15.7824 21.6213V24.6031L22.774 20.5674V12.4963L20.2035 13.9872V19.0767ZM17.6332 7.40689L20.2035 8.89773V11.8794L22.774 10.3886V7.40689L20.2035 5.91605L17.6332 7.40689ZM8.81658 22.7009V25.6827L11.387 27.1734L13.9574 25.6827V22.7009L11.387 24.1918L8.81658 22.7009ZM4.39545 18.0228L6.96589 19.5136V16.5319L4.39545 15.0411V18.0228ZM8.81658 7.40689L11.387 8.89773L13.9574 7.40689L11.387 5.91605L8.81658 7.40689ZM2.57042 8.89773L5.14085 7.40689L2.57042 5.91605L0 7.40689V10.3886L2.57042 11.8794V8.89773ZM2.57042 13.9872L0 12.4963V20.5674L6.99155 24.6031V21.6213L2.57042 19.0767V13.9872Z" fill="#F0B90B"/>
<path d="M39.2377 17.3096V17.2677C39.2377 15.2987 38.1904 14.3142 36.4936 13.6648C37.5409 13.0783 38.4208 12.1567 38.4208 10.5019V10.4599C38.4208 8.15581 36.5775 6.66858 33.5821 6.66858H26.7744V21.3314H33.7497C37.0593 21.3314 39.2377 19.9908 39.2377 17.3096ZM35.2159 11.0465C35.2159 12.1357 34.3152 12.5965 32.8908 12.5965H29.9163V9.49641H33.1003C34.4618 9.49641 35.2159 10.041 35.2159 11.0046V11.0465ZM36.0329 16.9116C36.0329 18.0008 35.174 18.5035 33.7497 18.5035H29.9163V15.2777H33.6448C35.2998 15.2777 36.0329 15.8852 36.0329 16.8697V16.9116Z" fill="#F0B90B"/>
<path d="M56.2662 21.3314V6.66858H53.0823V15.6967L46.2118 6.66858H43.2373V21.3314H46.4212V12.01L53.5222 21.3314H56.2662Z" fill="#F0B90B"/>
<path d="M72.7299 17.3096V17.2677C72.7299 15.2987 71.6826 14.3142 69.986 13.6648C71.0333 13.0783 71.9131 12.1567 71.9131 10.5019V10.4599C71.9131 8.15581 70.0696 6.66858 67.0743 6.66858H60.2666V21.3314H67.2419C70.5515 21.3314 72.7299 19.9908 72.7299 17.3096ZM68.7081 11.0465C68.7081 12.1357 67.8074 12.5965 66.3831 12.5965H63.4087V9.49641H66.5926C67.9541 9.49641 68.7081 10.041 68.7081 11.0046V11.0465ZM69.5251 16.9116C69.5251 18.0008 68.6663 18.5035 67.2419 18.5035H63.4087V15.2777H67.1372C68.792 15.2777 69.5251 15.8852 69.5251 16.8697V16.9116Z" fill="#F0B90B"/>
<path d="M90.1355 18.9853L88.4806 17.3096C87.2238 18.4826 86.0718 19.2158 84.2703 19.2158C81.4635 19.2158 79.4316 16.8698 79.4316 13.9791C79.4316 11.0884 81.4635 8.78423 84.2703 8.78423C85.9461 8.78423 87.2029 9.51738 88.3759 10.6066L90.0308 8.70045C88.6273 7.35985 86.9934 6.41724 84.2913 6.41724C79.8505 6.41724 76.7295 9.83157 76.7295 14.021C76.7295 18.2522 79.9134 21.5828 84.1866 21.5828C86.9305 21.5828 88.6064 20.5773 90.1355 18.9853Z" fill="#F0B90B"/>
<path d="M103.709 15.1521V21.3314H106.285V6.66864H103.709V12.7642H96.7123V6.66864H94.1357V21.3314H96.7123V15.1521H103.709Z" fill="#F0B90B"/>
<path d="M119.125 6.61627H116.737L110.285 21.3838H112.924L114.433 17.8438H121.366L122.853 21.3838H125.576L119.125 6.61627ZM120.423 15.5606H115.375L117.889 9.69546L120.423 15.5606Z" fill="#F0B90B"/>
<path d="M129.576 6.66864V21.3314H132.153V6.66864H129.576Z" fill="#F0B90B"/>
<path d="M146.395 16.8069L138.54 6.66864H136.152V21.3314H138.687V10.8999L146.772 21.3314H148.93V6.66864H146.395V16.8069Z" fill="#F0B90B"/>
</svg>
