<svg width="16" height="16" viewBox="0 0 16 16" fill="none" xmlns="http://www.w3.org/2000/svg">
<path d="M3.72436 5.14722H0.512337C0.369782 5.14722 0.254272 5.26278 0.254272 5.40528V15.7241C0.254272 15.8667 0.369782 15.9822 0.512337 15.9822H3.72436C3.86692 15.9822 3.98243 15.8667 3.98243 15.7241V5.40528C3.98243 5.26278 3.86692 5.14722 3.72436 5.14722Z" fill="#2A2A39"/>
<path d="M2.11954 0.0175781C0.950813 0.0175781 0 0.967359 0 2.13479C0 3.30274 0.950813 4.25288 2.11954 4.25288C3.28733 4.25288 4.23737 3.30269 4.23737 2.13479C4.23742 0.967359 3.28733 0.0175781 2.11954 0.0175781Z" fill="#2A2A39"/>
<path d="M11.8945 4.89087C10.6044 4.89087 9.65073 5.44545 9.07231 6.07559V5.4054C9.07231 5.2629 8.9568 5.14733 8.81424 5.14733H5.73817C5.59561 5.14733 5.4801 5.2629 5.4801 5.4054V15.7243C5.4801 15.8668 5.59561 15.9823 5.73817 15.9823H8.94317C9.08573 15.9823 9.20124 15.8668 9.20124 15.7243V10.6188C9.20124 8.8984 9.66854 8.22816 10.8678 8.22816C12.1739 8.22816 12.2777 9.30264 12.2777 10.7073V15.7243C12.2777 15.8669 12.3932 15.9824 12.5358 15.9824H15.742C15.8845 15.9824 16.0001 15.8669 16.0001 15.7243V10.0642C16.0001 7.50604 15.5123 4.89087 11.8945 4.89087Z" fill="#2A2A39"/>
</svg>
