<svg width="52" height="52" viewBox="0 0 52 52" fill="none" xmlns="http://www.w3.org/2000/svg">
<rect width="52" height="52" rx="26" fill="#0077B5"/>
<path d="M18.4099 15.4995C18.4095 16.2952 18.0931 17.0581 17.5302 17.6204C16.9673 18.1828 16.2041 18.4984 15.4084 18.498C14.6128 18.4976 13.8499 18.1812 13.2875 17.6183C12.7252 17.0554 12.4095 16.2922 12.4099 15.4965C12.4103 14.7009 12.7268 13.938 13.2897 13.3757C13.8525 12.8133 14.6158 12.4976 15.4114 12.498C16.2071 12.4984 16.97 12.8149 17.5323 13.3778C18.0946 13.9407 18.4103 14.7039 18.4099 15.4995ZM18.4999 20.7195H12.4999V39.4995H18.4999V20.7195ZM27.9799 20.7195H22.0099V39.4995H27.9199V29.6445C27.9199 24.1545 35.0749 23.6445 35.0749 29.6445V39.4995H40.9999V27.6045C40.9999 18.3495 30.4099 18.6945 27.9199 23.2395L27.9799 20.7195Z" fill="white"/>
</svg>
