<svg width="110" height="42" viewBox="0 0 125 48" fill="none" xmlns="http://www.w3.org/2000/svg" alt="Logo for Push">
<title>Push</title>
<g clip-path="url(#clip0_2132_7445)">
<path d="M22.6281 47.9999C23.9346 48.0008 25.2132 47.6228 26.3084 46.912C27.4036 46.2012 28.2682 45.1881 28.7972 43.996C28.8555 43.8635 28.8797 43.7186 28.8677 43.5745C28.8557 43.4303 28.8079 43.2913 28.7285 43.1703C28.6491 43.0492 28.5407 42.9499 28.413 42.8812C28.2854 42.8126 28.1426 42.7768 27.9976 42.7771H17.2635C17.1185 42.7768 16.9757 42.8126 16.8481 42.8812C16.7204 42.9499 16.612 43.0492 16.5326 43.1703C16.4532 43.2913 16.4054 43.4303 16.3934 43.5745C16.3814 43.7186 16.4056 43.8635 16.4639 43.996C16.993 45.187 17.857 46.1992 18.9512 46.9099C20.0453 47.6206 21.3226 47.9992 22.6281 47.9999Z" fill="url(#paint0_linear_2132_7445)"/>
<path d="M39.097 36.2961C38.682 36.2961 38.271 36.2145 37.8877 36.056C37.5043 35.8974 37.156 35.665 36.8627 35.3721C36.5693 35.0791 36.3367 34.7314 36.1781 34.3487C36.0195 33.966 35.9381 33.5559 35.9384 33.1418V22.0141C35.9384 16.1855 32.2542 11.0662 27.0278 9.18979C26.7649 9.09777 26.524 8.95217 26.3205 8.76225C26.1171 8.57234 25.9554 8.34225 25.8458 8.08662C25.5848 7.45025 25.1403 6.90561 24.5685 6.52185C23.9968 6.13808 23.3237 5.93248 22.6346 5.93116C21.9456 5.92984 21.2717 6.13286 20.6985 6.51444C20.1253 6.89601 19.6786 7.43895 19.4152 8.07431C19.3082 8.32666 19.1491 8.55373 18.9485 8.74081C18.7478 8.92788 18.51 9.07078 18.2505 9.16023C15.6418 10.0658 13.3803 11.7594 11.7801 14.0059C10.1798 16.2523 9.32001 18.9402 9.32014 21.6964V33.1393C9.32146 33.9723 8.99232 34.7719 8.40463 35.3634C7.81694 35.9549 7.0185 36.2903 6.1838 36.2961C5.98721 36.2939 5.7921 36.3303 5.60964 36.4033C5.42717 36.4764 5.26095 36.5846 5.12045 36.7218C4.97995 36.8591 4.86795 37.0226 4.79085 37.2031C4.71375 37.3835 4.67308 37.5774 4.67114 37.7736C4.67114 38.1654 4.82712 38.5412 5.10478 38.8183C5.38245 39.0954 5.75904 39.251 6.15172 39.251H39.0896C39.4822 39.251 39.8588 39.0954 40.1365 38.8183C40.4142 38.5412 40.5701 38.1654 40.5701 37.7736C40.5701 37.383 40.4152 37.0083 40.1391 36.7315C39.8631 36.4546 39.4884 36.2981 39.097 36.2961Z" fill="url(#paint1_linear_2132_7445)"/>
<path d="M32.1654 6.4096C33.9841 6.8107 35.6292 7.77513 36.8656 9.16509C38.1021 10.5551 38.8667 12.2994 39.0501 14.149C39.0688 14.3501 39.1667 14.5357 39.3225 14.6647C39.4782 14.7938 39.6789 14.8559 39.8805 14.8372C40.082 14.8186 40.268 14.7209 40.3973 14.5655C40.5267 14.4101 40.5888 14.2098 40.5702 14.0086C40.3656 11.833 39.4717 9.77902 38.018 8.14471C36.5644 6.51041 34.6268 5.38081 32.4862 4.91983C32.4336 4.90803 32.3798 4.90225 32.3258 4.9026C32.139 4.9055 31.9597 4.97652 31.8218 5.10228C31.6838 5.22803 31.5968 5.39983 31.577 5.58524C31.5573 5.77065 31.6063 5.95686 31.7147 6.10872C31.8231 6.26059 31.9834 6.36762 32.1654 6.4096Z" fill="url(#paint2_linear_2132_7445)"/>
<path d="M33.0217 1.50708C35.8537 2.12903 38.4159 3.62896 40.3417 5.79222C42.2675 7.95549 43.4583 10.6712 43.7436 13.5508C43.7525 13.6503 43.7811 13.7471 43.8277 13.8356C43.8743 13.924 43.9379 14.0025 44.015 14.0663C44.092 14.1301 44.181 14.1782 44.2767 14.2076C44.3724 14.237 44.473 14.2473 44.5727 14.2378C44.6726 14.2292 44.7699 14.2008 44.8588 14.1545C44.9478 14.1081 45.0266 14.0447 45.0909 13.9678C45.1551 13.8908 45.2034 13.802 45.2331 13.7063C45.2627 13.6107 45.2731 13.5101 45.2636 13.4104C44.9616 10.2048 43.6442 7.17858 41.5025 4.77043C39.3608 2.36229 36.5061 0.697455 33.3524 0.0173184C33.2995 0.00684852 33.2459 0.00108218 33.192 8.33952e-05C33.0018 -0.00272556 32.8174 0.0655131 32.675 0.191408C32.5327 0.317303 32.4426 0.49176 32.4225 0.680526C32.4024 0.869292 32.4537 1.05874 32.5664 1.21167C32.6791 1.3646 32.845 1.46996 33.0316 1.50708H33.0217Z" fill="url(#paint3_linear_2132_7445)"/>
<path d="M13.0908 6.40967C13.2773 6.37255 13.4432 6.26718 13.5559 6.11425C13.6686 5.96133 13.72 5.77188 13.6999 5.58311C13.6798 5.39435 13.5897 5.21989 13.4473 5.094C13.305 4.9681 13.1206 4.89986 12.9304 4.90267C12.8764 4.90245 12.8226 4.90822 12.77 4.9199C10.6295 5.38088 8.69181 6.51048 7.23819 8.14478C5.78458 9.77909 4.89062 11.8331 4.68604 14.0087C4.66831 14.21 4.73134 14.4102 4.86127 14.5652C4.92439 14.6428 5.00263 14.7069 5.09128 14.7534C5.17993 14.8 5.27713 14.8281 5.37699 14.8361C5.47688 14.8459 5.57773 14.8359 5.67373 14.8066C5.76972 14.7773 5.85896 14.7294 5.93627 14.6655C6.01359 14.6016 6.07744 14.5231 6.12418 14.4345C6.17092 14.3458 6.19961 14.2488 6.20858 14.1491C6.39116 12.2996 7.15511 10.5551 8.39122 9.16501C9.62732 7.77495 11.2723 6.81053 13.0908 6.40967Z" fill="url(#paint4_linear_2132_7445)"/>
<path d="M12.2344 1.50708C12.4209 1.46996 12.5868 1.3646 12.6995 1.21167C12.8122 1.05874 12.8636 0.869292 12.8435 0.680526C12.8234 0.49176 12.7333 0.317303 12.5909 0.191408C12.4486 0.0655131 12.2642 -0.00272556 12.074 8.33952e-05C12.0209 0.000946957 11.9681 0.00671534 11.9161 0.0173184C8.76233 0.697455 5.90766 2.36229 3.76597 4.77043C1.62428 7.17858 0.306891 10.2048 0.00482715 13.4104C-0.00497642 13.51 0.0052568 13.6105 0.0349194 13.7061C0.064582 13.8017 0.113064 13.8903 0.177549 13.9669C0.240675 14.0446 0.318945 14.1086 0.407593 14.1551C0.496242 14.2017 0.593446 14.2298 0.693304 14.2378C0.793195 14.2476 0.894047 14.2376 0.99004 14.2084C1.08603 14.1791 1.17524 14.1311 1.25256 14.0672C1.32987 14.0034 1.39375 13.9248 1.44049 13.8362C1.48723 13.7476 1.51593 13.6506 1.52489 13.5508C1.80939 10.6729 2.99832 7.95839 4.92176 5.79531C6.84521 3.63224 9.40472 2.13131 12.2344 1.50708Z" fill="url(#paint5_linear_2132_7445)"/>
<path d="M118.453 17.296C117.585 17.2875 116.724 17.4504 115.92 17.7754C115.115 18.1004 114.383 18.581 113.765 19.1896V9.54429C113.765 9.52791 113.762 9.5117 113.755 9.4966C113.749 9.4815 113.74 9.46782 113.728 9.45635C113.716 9.44489 113.702 9.43586 113.687 9.42982C113.672 9.42378 113.655 9.42084 113.639 9.42117H109.901C109.884 9.42084 109.868 9.42378 109.853 9.42982C109.837 9.43586 109.824 9.44489 109.812 9.45635C109.8 9.46782 109.791 9.4815 109.784 9.4966C109.778 9.5117 109.775 9.52791 109.775 9.54429V35.5819C109.775 35.5983 109.778 35.6145 109.784 35.6296C109.791 35.6447 109.8 35.6584 109.812 35.6699C109.824 35.6814 109.837 35.6904 109.853 35.6964C109.868 35.7025 109.884 35.7054 109.901 35.7051H113.639C113.655 35.7054 113.672 35.7025 113.687 35.6964C113.702 35.6904 113.716 35.6814 113.728 35.6699C113.74 35.6584 113.749 35.6447 113.755 35.6296C113.762 35.6145 113.765 35.5983 113.765 35.5819V25.0132C113.763 24.0748 114.119 23.1708 114.76 22.4848C115.402 21.7988 116.281 21.3822 117.22 21.3196C117.71 21.2922 118.202 21.3646 118.663 21.5324C119.125 21.7001 119.548 21.9597 119.907 22.2954C120.265 22.6311 120.551 23.0359 120.748 23.4853C120.945 23.9347 121.048 24.4194 121.052 24.9098V35.5819C121.052 35.6146 121.065 35.6459 121.088 35.669C121.111 35.6921 121.143 35.7051 121.175 35.7051H124.877C124.893 35.7054 124.909 35.7025 124.925 35.6964C124.94 35.6904 124.954 35.6814 124.965 35.6699C124.977 35.6584 124.987 35.6447 124.993 35.6296C124.999 35.6145 125.003 35.5983 125.003 35.5819V23.9347C125.006 22.1908 124.32 20.5159 123.094 19.2731C121.868 18.0304 120.201 17.32 118.453 17.296Z" fill="white"/>
<path d="M90.2213 16.6189H86.5001C86.4671 16.6189 86.4355 16.6318 86.412 16.6548C86.3884 16.6778 86.3749 16.7091 86.3742 16.742V28.3154C86.3703 28.791 86.2697 29.2608 86.0787 29.6966C85.8876 30.1323 85.61 30.5248 85.2627 30.8505C84.9153 31.1762 84.5055 31.4282 84.0578 31.5913C83.6101 31.7545 83.1339 31.8254 82.658 31.7997C81.745 31.7432 80.8883 31.3403 80.2634 30.6737C79.6385 30.0071 79.2928 29.1272 79.2971 28.2144V16.742C79.2964 16.7091 79.2829 16.6778 79.2594 16.6548C79.2358 16.6318 79.2042 16.6189 79.1712 16.6189H75.4501C75.4173 16.6189 75.386 16.6319 75.3628 16.655C75.3397 16.678 75.3267 16.7094 75.3267 16.742V28.1455C75.3228 30.1012 76.0797 31.982 77.4381 33.3917C78.7965 34.8014 80.6502 35.6299 82.6086 35.7027C83.6061 35.7376 84.6005 35.5728 85.5331 35.2181C86.4658 34.8635 87.3178 34.326 88.039 33.6375C88.7603 32.9491 89.336 32.1235 89.7324 31.2094C90.1288 30.2953 90.3378 29.3113 90.3471 28.3154V16.742C90.3465 16.7091 90.3329 16.6778 90.3094 16.6548C90.2859 16.6318 90.2542 16.6189 90.2213 16.6189Z" fill="white"/>
<path d="M65.0195 9.45581H55.5882C55.5191 9.45581 55.4648 9.48044 55.4648 9.54938L55.4969 35.6511C55.4969 35.6674 55.5002 35.6837 55.5065 35.6988C55.5129 35.7139 55.5222 35.7275 55.5339 35.739C55.5456 35.7505 55.5595 35.7595 55.5748 35.7655C55.59 35.7716 55.6064 35.7745 55.6228 35.7742H59.3242C59.3569 35.7742 59.3883 35.7612 59.4114 35.7381C59.4346 35.715 59.4476 35.6837 59.4476 35.6511V25.139H65.0368C69.3625 25.139 72.7506 21.6916 72.7506 17.2962C72.7506 12.9007 69.3452 9.45581 65.0195 9.45581ZM64.9528 21.2287H59.6549C59.5894 21.2287 59.5267 21.2027 59.4804 21.1565C59.4341 21.1104 59.4081 21.0477 59.4081 20.9824V16.8061C59.4053 16.1784 59.1922 15.5696 58.8027 15.0765C58.4133 14.5835 57.8698 14.2345 57.2588 14.0852C57.2312 14.0785 57.2066 14.0627 57.1892 14.0403C57.1717 14.018 57.1623 13.9904 57.1626 13.962V13.4819C57.1626 13.4479 57.1761 13.4153 57.2002 13.3913C57.2242 13.3673 57.2569 13.3538 57.2909 13.3538H65.0121C67.0232 13.3538 68.5729 14.8116 68.8246 16.8012C68.9075 17.3527 68.8694 17.9156 68.713 18.4509C68.5565 18.9863 68.2854 19.4814 67.9184 19.9019C67.5514 20.3225 67.0973 20.6585 66.5874 20.8867C66.0775 21.1149 65.524 21.2299 64.9652 21.2237L64.9528 21.2287Z" fill="white"/>
<path d="M92.8666 31.5412C93.5822 33.1073 95.4181 35.7274 99.7093 35.7274C104.613 35.7274 106.806 32.8389 106.806 29.9751C106.806 26.8331 104.724 24.9395 100.445 24.1811C98.2707 23.8166 97.3404 23.1296 97.3404 21.8885C97.3404 20.7312 98.3743 19.9531 99.9117 19.9531C101.298 19.9531 102.466 20.7287 102.888 21.923C102.893 21.9362 102.9 21.9482 102.91 21.9584C102.92 21.9686 102.931 21.9766 102.944 21.9821C102.97 21.992 102.998 21.992 103.023 21.9821L106.1 20.6105C106.124 20.6002 106.142 20.5815 106.152 20.5581C106.161 20.5347 106.161 20.5085 106.152 20.485C105.21 18.0595 102.86 16.6116 99.8722 16.6116C95.6402 16.6116 93.4243 19.2858 93.4243 21.9255C93.4243 25.0429 95.465 26.9267 99.6624 27.6777C101.896 28.1283 102.848 28.8375 102.848 30.0515C102.848 31.3639 101.691 32.147 99.7488 32.147C99.028 32.1495 98.3211 31.9485 97.7099 31.5672C97.0986 31.186 96.6078 30.64 96.2941 29.9924C96.2856 29.9755 96.2725 29.9613 96.2564 29.9513C96.2403 29.9413 96.2218 29.936 96.2028 29.9357C96.1899 29.9324 96.1763 29.9324 96.1634 29.9357L92.9184 31.396C92.9041 31.4003 92.8909 31.408 92.8801 31.4184C92.8692 31.4287 92.8609 31.4415 92.8559 31.4556C92.8509 31.4697 92.8492 31.4848 92.8511 31.4997C92.8529 31.5146 92.8582 31.5288 92.8666 31.5412Z" fill="white"/>
</g>
<defs>
<linearGradient id="paint0_linear_2132_7445" x1="29.8434" y1="31.445" x2="21.0862" y2="46.3638" gradientUnits="userSpaceOnUse">
<stop stop-color="#FF94A6"/>
<stop offset="0.32" stop-color="#E03DC1"/>
<stop offset="1" stop-color="#8247E5"/>
</linearGradient>
<linearGradient id="paint1_linear_2132_7445" x1="34.0754" y1="14.9346" x2="15.5785" y2="41.2725" gradientUnits="userSpaceOnUse">
<stop stop-color="#FF94A6"/>
<stop offset="0.32" stop-color="#E03DC1"/>
<stop offset="1" stop-color="#8247E5"/>
</linearGradient>
<linearGradient id="paint2_linear_2132_7445" x1="48.9799" y1="1.31978" x2="4.03592" y2="31.2148" gradientUnits="userSpaceOnUse">
<stop stop-color="#FF94A6"/>
<stop offset="0.32" stop-color="#E03DC1"/>
<stop offset="1" stop-color="#8247E5"/>
</linearGradient>
<linearGradient id="paint3_linear_2132_7445" x1="48.5579" y1="0.684638" x2="3.61149" y2="30.5797" gradientUnits="userSpaceOnUse">
<stop stop-color="#FF94A6"/>
<stop offset="0.32" stop-color="#E03DC1"/>
<stop offset="1" stop-color="#8247E5"/>
</linearGradient>
<linearGradient id="paint4_linear_2132_7445" x1="40.5776" y1="-11.3124" x2="-4.36875" y2="18.5827" gradientUnits="userSpaceOnUse">
<stop stop-color="#FF94A6"/>
<stop offset="0.32" stop-color="#E03DC1"/>
<stop offset="1" stop-color="#8247E5"/>
</linearGradient>
<linearGradient id="paint5_linear_2132_7445" x1="38.3665" y1="-14.6366" x2="-6.56262" y2="15.2511" gradientUnits="userSpaceOnUse">
<stop stop-color="#FF94A6"/>
<stop offset="0.32" stop-color="#E03DC1"/>
<stop offset="1" stop-color="#8247E5"/>
</linearGradient>
<clipPath id="clip0_2132_7445">
<rect width="125" height="48" fill="white"/>
</clipPath>
</defs>
</svg>
