<svg width="25" height="18" viewBox="0 0 25 18" fill="none" xmlns="http://www.w3.org/2000/svg">
<path d="M20.9567 1.74316C19.3987 1.05872 17.7539 0.573143 16.0644 0.298828C15.8336 0.695596 15.6244 1.10362 15.4377 1.52123C13.638 1.26186 11.808 1.26186 10.0083 1.52123C9.82164 1.10362 9.61246 0.695596 9.38162 0.298828C7.69125 0.576287 6.04552 1.06299 4.48563 1.74674C1.3895 6.14239 0.550184 10.4289 0.96984 14.6545C2.78282 15.9403 4.81233 16.918 6.97 17.5449C7.45565 16.9178 7.88552 16.2527 8.25508 15.5565C7.55343 15.3052 6.87625 14.9949 6.2314 14.6294C6.40113 14.5113 6.56713 14.3896 6.72753 14.2715C8.60404 15.1183 10.6522 15.5573 12.7258 15.5573C14.7995 15.5573 16.8476 15.1183 18.7241 14.2715C18.8864 14.3985 19.0524 14.5202 19.2202 14.6294C18.5743 14.9959 17.8959 15.3067 17.1928 15.5583C17.5617 16.2543 17.9916 16.9189 18.4779 17.5449C20.6374 16.9205 22.6685 15.9433 24.4818 14.6563C24.9742 9.75591 23.6406 5.50881 20.9567 1.74316ZM8.78664 12.0557C7.6172 12.0557 6.65106 11.0374 6.65106 9.78454C6.65106 8.53171 7.58363 7.50439 8.78291 7.50439C9.9822 7.50439 10.9409 8.53171 10.9204 9.78454C10.8998 11.0374 9.97847 12.0557 8.78664 12.0557ZM16.665 12.0557C15.4937 12.0557 14.5313 11.0374 14.5313 9.78454C14.5313 8.53171 15.4638 7.50439 16.665 7.50439C17.8661 7.50439 18.8174 8.53171 18.7969 9.78454C18.7763 11.0374 17.8568 12.0557 16.665 12.0557Z" fill="#3C63C6"/>
</svg>
