<svg width="42" height="42" viewBox="0 0 42 42" fill="none" xmlns="http://www.w3.org/2000/svg">
<g id="email 1" clip-path="url(#clip0_12480_278)">
<path id="Vector" d="M22.5581 2.95443C12.638 2.00243 3.82036 9.2676 2.86232 19.1927C1.90534 29.1067 9.17051 37.9243 19.0895 38.8873C21.1875 39.0954 23.304 38.9384 25.3394 38.4122C26.5144 38.1031 27.2134 36.9086 26.9099 35.7341C26.6003 34.5646 25.4063 33.8601 24.2313 34.1692C22.6921 34.5654 21.0908 34.6832 19.5106 34.5252C11.998 33.8 6.49434 27.1204 7.21951 19.6077C7.94469 12.095 14.6243 6.59142 22.137 7.3166C29.6496 8.04178 35.1533 14.7214 34.4281 22.2341C34.2657 23.8584 33.7916 25.4303 33.0351 26.8749C32.8023 27.3861 32.2825 27.7028 31.7241 27.6712C30.617 27.5643 29.8059 26.5799 29.9128 25.4728L30.2642 21.8321C30.828 16.5665 27.0209 11.8351 21.7497 11.2707C16.4846 10.7013 11.7527 14.5139 11.1888 19.7796C10.6189 25.0502 14.4321 29.7766 19.6972 30.346C22.0194 30.5924 24.3568 29.9898 26.2605 28.6392C27.2659 30.5485 29.1605 31.8265 31.303 32.0333C33.6355 32.2307 35.8567 30.9886 36.9089 28.8999C37.9357 26.9588 38.5737 24.8412 38.7903 22.6551C39.7307 12.7395 32.4705 3.92791 22.5581 2.95443ZM24.0683 24.8586C23.0596 25.6896 21.7326 26.1341 20.3336 25.9991C17.5301 25.7285 15.475 23.2342 15.7456 20.4307C16.0162 17.6272 18.5105 15.5721 21.314 15.8427C24.1175 16.1133 26.1726 18.6076 25.902 21.4111C25.7669 22.81 25.0768 24.0276 24.0683 24.8586ZM22.5581 2.95443C12.638 2.00243 3.82036 9.2676 2.86232 19.1927C1.90534 29.1067 9.17051 37.9243 19.0895 38.8873C21.1875 39.0954 23.304 38.9384 25.3394 38.4122C26.5144 38.1031 27.2134 36.9086 26.9099 35.7341C26.6003 34.5646 25.4063 33.8601 24.2313 34.1692C22.6921 34.5654 21.0908 34.6832 19.5106 34.5252C11.998 33.8 6.49434 27.1204 7.21951 19.6077C7.94469 12.095 14.6243 6.59142 22.137 7.3166C29.6496 8.04178 35.1533 14.7214 34.4281 22.2341C34.2657 23.8584 33.7916 25.4303 33.0351 26.8749C32.8023 27.3861 32.2825 27.7028 31.7241 27.6712C30.617 27.5643 29.8059 26.5799 29.9128 25.4728L30.2642 21.8321C30.828 16.5665 27.0209 11.8351 21.7497 11.2707C16.4846 10.7013 11.7527 14.5139 11.1888 19.7796C10.6189 25.0502 14.4321 29.7766 19.6972 30.346C22.0194 30.5924 24.3568 29.9898 26.2605 28.6392C27.2659 30.5485 29.1605 31.8265 31.303 32.0333C33.6355 32.2307 35.8567 30.9886 36.9089 28.8999C37.9357 26.9588 38.5737 24.8412 38.7903 22.6551C39.7307 12.7395 32.4705 3.92791 22.5581 2.95443ZM24.0683 24.8586C23.0596 25.6896 21.7326 26.1341 20.3336 25.9991C17.5301 25.7285 15.475 23.2342 15.7456 20.4307C16.0162 17.6272 18.5105 15.5721 21.314 15.8427C24.1175 16.1133 26.1726 18.6076 25.902 21.4111C25.7669 22.81 25.0768 24.0276 24.0683 24.8586ZM22.5581 2.95443C12.638 2.00243 3.82036 9.2676 2.86232 19.1927C1.90534 29.1067 9.17051 37.9243 19.0895 38.8873C21.1875 39.0954 23.304 38.9384 25.3394 38.4122C26.5144 38.1031 27.2134 36.9086 26.9099 35.7341C26.6003 34.5646 25.4063 33.8601 24.2313 34.1692C22.6921 34.5654 21.0908 34.6832 19.5106 34.5252C11.998 33.8 6.49434 27.1204 7.21951 19.6077C7.94469 12.095 14.6243 6.59142 22.137 7.3166C29.6496 8.04178 35.1533 14.7214 34.4281 22.2341C34.2657 23.8584 33.7916 25.4303 33.0351 26.8749C32.8023 27.3861 32.2825 27.7028 31.7241 27.6712C30.617 27.5643 29.8059 26.5799 29.9128 25.4728L30.2642 21.8321C30.828 16.5665 27.0209 11.8351 21.7497 11.2707C16.4846 10.7013 11.7527 14.5139 11.1888 19.7796C10.6189 25.0502 14.4321 29.7766 19.6972 30.346C22.0194 30.5924 24.3568 29.9898 26.2605 28.6392C27.2659 30.5485 29.1605 31.8265 31.303 32.0333C33.6355 32.2307 35.8567 30.9886 36.9089 28.8999C37.9357 26.9588 38.5737 24.8412 38.7903 22.6551C39.7307 12.7395 32.4705 3.92791 22.5581 2.95443ZM24.0683 24.8586C23.0596 25.6896 21.7326 26.1341 20.3336 25.9991C17.5301 25.7285 15.475 23.2342 15.7456 20.4307C16.0162 17.6272 18.5105 15.5721 21.314 15.8427C24.1175 16.1133 26.1726 18.6076 25.902 21.4111C25.7669 22.81 25.0768 24.0276 24.0683 24.8586Z" fill="white"/>
</g>
<defs>
<clipPath id="clip0_12480_278">
<rect width="38" height="38" fill="white" transform="translate(3.73999 0.183594) rotate(5.51353)"/>
</clipPath>
</defs>
</svg>
