<svg width="42" height="42" viewBox="0 0 42 42" fill="none" xmlns="http://www.w3.org/2000/svg">
<g id="smile 1" clip-path="url(#clip0_12480_280)">
<g id="Group">
<g id="Group_2">
<path id="Vector" d="M37.8615 15.3121L38.2519 11.2002L35.7848 10.9659L36.019 8.49875L33.5519 8.26449L33.7861 5.79728L29.6741 5.40683L29.9084 2.93969L15.1054 1.5341L14.8711 4.00124L10.7592 3.6108L10.525 6.07794L8.05781 5.84368L7.82355 8.31082L5.35634 8.07656L4.9659 12.1885L2.49925 11.9545L1.09367 26.7575L3.56029 26.9917L3.16987 31.1034L5.63701 31.3377L5.55893 32.16L5.40275 33.8048L7.86989 34.0391L7.79181 34.8614L7.63563 36.5062L11.7476 36.8967L11.6695 37.719L11.5133 39.3639L26.3164 40.7695L26.4725 39.1247L26.5506 38.3024L30.6625 38.6928L30.8187 37.048L30.8968 36.2257L33.3639 36.46L33.5201 34.8152L33.5982 33.9928L36.0653 34.2271L36.4558 30.1154L37.2786 30.1935L38.9229 30.3494L40.3285 15.5463L37.8615 15.3121ZM14.9211 11.1124L17.6825 11.3746L16.8992 19.6238L14.1634 19.333L14.9211 11.1124ZM28.8982 31.0571L26.4311 30.8228L26.1968 33.29L13.0386 32.0405L13.2728 29.5734L10.8057 29.3391L11.2742 24.4048L13.7414 24.639L13.2728 29.5734L26.4311 30.8228L26.8996 25.8885L29.3667 26.1227L28.8982 31.0571ZM27.1788 20.5956L24.6027 20.351L25.3616 12.3582L27.9377 12.6028L27.1788 20.5956Z" fill="white"/>
</g>
</g>
</g>
<defs>
<clipPath id="clip0_12480_280">
<rect width="38" height="38" fill="white" transform="translate(3.59207 0.440918) rotate(5.42414)"/>
</clipPath>
</defs>
</svg>
