<svg width="20" height="21" viewBox="0 0 20 21" fill="none" xmlns="http://www.w3.org/2000/svg">
<g clip-path="url(#clip0_1792_442)">
<path d="M18.7501 10.5C18.7521 10.7564 18.6741 11.007 18.5271 11.217C18.3801 11.427 18.1713 11.586 17.9298 11.6719L16.0437 12.3577C14.0977 13.0654 12.5648 14.5984 11.8573 16.5446L11.172 18.4297C11.0832 18.6689 10.9233 18.8752 10.7138 19.0209C10.5043 19.1666 10.2552 19.2447 10.0001 19.2447C9.74491 19.2447 9.49585 19.1666 9.28636 19.0209C9.07688 18.8752 8.917 18.6689 8.8282 18.4297L8.14308 16.5439C7.43503 14.595 5.89937 13.0603 3.95003 12.3535L2.07039 11.6719C1.83117 11.5831 1.62485 11.4232 1.47916 11.2137C1.33346 11.0042 1.25537 10.7552 1.25537 10.5C1.25537 10.2448 1.33346 9.99579 1.47916 9.7863C1.62485 9.57682 1.83117 9.41694 2.07039 9.32814L3.95619 8.64301C5.9051 7.93496 7.4398 6.39931 8.14664 4.44997L8.8282 2.57033C8.917 2.33111 9.07688 2.12479 9.28636 1.9791C9.49585 1.8334 9.74491 1.75531 10.0001 1.75531C10.2552 1.75531 10.5043 1.8334 10.7138 1.9791C10.9233 2.12479 11.0832 2.33111 11.172 2.57033L11.8571 4.45613C12.5651 6.40504 14.1008 7.93973 16.0501 8.64657L17.9298 9.32814C18.1713 9.41402 18.3801 9.57302 18.5271 9.78304C18.6741 9.99306 18.7521 10.2437 18.7501 10.5Z" fill="#707187"/>
</g>
<defs>
<clipPath id="clip0_1792_442">
<rect width="20" height="20" fill="white" transform="translate(0 0.5)"/>
</clipPath>
</defs>
</svg>
