<svg width="65" height="64" viewBox="0 0 65 64" fill="none" xmlns="http://www.w3.org/2000/svg">
<g clip-path="url(#clip0_6_83)">
<path d="M16.5 64H48.5C57.3366 64 64.5 56.8366 64.5 48V16C64.5 7.16344 57.3366 0 48.5 0L16.5 0C7.66344 0 0.5 7.16344 0.5 16V48C0.5 56.8366 7.66344 64 16.5 64Z" fill="#E64DE9"/>
<path d="M16.521 44.9635L41.9313 19.5554H23.1119C22.6404 19.5554 22.1882 19.3682 21.8548 19.0348C21.5215 18.7014 21.3342 18.2492 21.3342 17.7777C21.3342 17.3062 21.5215 16.8541 21.8548 16.5207C22.1882 16.1873 22.6404 16 23.1119 16H46.2223C46.6938 16 47.1459 16.1873 47.4793 16.5207C47.8127 16.8541 48 17.3062 48 17.7777V40.8881C48 41.3596 47.8127 41.8118 47.4793 42.1452C47.1459 42.4785 46.6938 42.6658 46.2223 42.6658C45.7508 42.6658 45.2986 42.4785 44.9652 42.1452C44.6319 41.8118 44.4446 41.3596 44.4446 40.8881V22.0687L19.0365 47.479C18.8713 47.6442 18.6752 47.7752 18.4594 47.8646C18.2436 47.954 18.0123 48 17.7787 48C17.5451 48 17.3138 47.954 17.098 47.8646C16.8822 47.7752 16.6861 47.6442 16.521 47.479C16.3558 47.3139 16.2248 47.1178 16.1354 46.902C16.046 46.6862 16 46.4549 16 46.2213C16 45.9877 16.046 45.7564 16.1354 45.5406C16.2248 45.3248 16.3558 45.1287 16.521 44.9635Z" fill="#2A2A39"/>
</g>
<defs>
<clipPath id="clip0_6_83">
<rect width="65" height="64" fill="white"/>
</clipPath>
</defs>
</svg>
