<svg width="173" height="49" viewBox="0 0 173 49" fill="none" xmlns="http://www.w3.org/2000/svg">
<path fill-rule="evenodd" clip-rule="evenodd" d="M6.26709 26.0837C8.79457 20.3037 11.3339 14.5287 13.8324 8.73645C14.1083 8.09683 14.4238 7.86186 15.1269 7.87008C18.3022 7.90894 21.4785 7.89902 24.654 7.87667C25.2495 7.87252 25.634 7.96032 25.9027 8.59432C30.3004 18.9695 34.7262 29.3327 39.141 39.7006C39.1901 39.8164 39.176 39.959 39.2056 40.207C37.3263 40.207 35.4827 40.1667 33.6419 40.2248C32.7814 40.2519 32.7282 39.6077 32.5175 39.1125C29.0428 30.9403 25.5564 22.7729 22.1545 14.5706C21.7093 13.4976 21.1842 13.1176 20.0727 13.2163C18.9459 13.3166 17.8908 12.9932 17.2987 14.5949C15.863 18.4794 14.1453 22.2604 12.5412 26.0832C10.4499 26.0834 8.35852 26.0835 6.26709 26.0837Z" fill="#23496E"/>
<path fill-rule="evenodd" clip-rule="evenodd" d="M7.85947 31.7C6.36052 31.7002 4.94858 31.7007 3.74184 31.7007C2.51129 34.4988 1.27983 37.2981 0 40.2077C2.06121 40.2077 3.88742 40.178 5.71169 40.2245C6.31678 40.24 6.61139 40.0334 6.82887 39.5118C7.91594 36.9024 9.02652 34.3022 10.1293 31.6992C9.36816 31.6995 8.60685 31.6998 7.85947 31.7Z" fill="#23496E"/>
<path fill-rule="evenodd" clip-rule="evenodd" d="M71.5611 17.2184C72.7801 14.3675 74.0048 11.5191 75.2099 8.66205C75.3429 8.34657 75.4951 8.23067 75.8342 8.23472C77.3656 8.25389 78.8976 8.249 80.4291 8.23797C80.7163 8.23592 80.9018 8.27923 81.0314 8.59195C83.1524 13.7094 85.2869 18.821 87.4162 23.9349C87.4399 23.992 87.4331 24.0624 87.4474 24.1847C86.541 24.1847 85.6518 24.1648 84.764 24.1935C84.349 24.2068 84.3233 23.8891 84.2217 23.6449C82.5458 19.614 80.8644 15.5854 79.2236 11.5397C79.0089 11.0105 78.7556 10.823 78.2196 10.8717C77.6761 10.9212 77.1672 10.7617 76.8817 11.5517C76.1892 13.4677 75.3608 15.3327 74.5871 17.2182C73.5785 17.2183 72.5698 17.2184 71.5611 17.2184Z" fill="#23496E"/>
<path fill-rule="evenodd" clip-rule="evenodd" d="M119.001 17.2184C120.22 14.3675 121.445 11.5191 122.65 8.66205C122.783 8.34657 122.935 8.23067 123.274 8.23472C124.806 8.25389 126.338 8.249 127.869 8.23797C128.157 8.23592 128.342 8.27923 128.472 8.59195C130.593 13.7094 132.727 18.821 134.856 23.9349C134.88 23.992 134.873 24.0624 134.888 24.1847C133.981 24.1847 133.092 24.1648 132.204 24.1935C131.789 24.2068 131.764 23.8891 131.662 23.6449C129.986 19.614 128.305 15.5854 126.664 11.5397C126.449 11.0105 126.196 10.823 125.66 10.8717C125.116 10.9212 124.607 10.7617 124.322 11.5517C123.629 13.4677 122.801 15.3327 122.027 17.2182C121.019 17.2183 120.01 17.2184 119.001 17.2184Z" fill="#23496E"/>
<path fill-rule="evenodd" clip-rule="evenodd" d="M58.1357 16.8105C58.966 16.8105 59.5407 16.7336 59.86 16.5796C60.1789 16.4257 60.3387 16.1435 60.3387 15.7332V11.2955C60.3387 10.885 60.1789 10.603 59.86 10.4491C59.5407 10.2951 58.966 10.2181 58.1357 10.2181H53.4747V16.8105H58.1357ZM53.4747 24.1211H50.2822V8.08911H58.104C59.5297 8.08911 60.642 8.2602 61.44 8.60222C62.2381 8.94446 62.8129 9.5044 63.1643 10.2822C63.5153 11.0607 63.6908 12.1335 63.6908 13.5016C63.6908 15.4171 63.2966 16.7849 62.5096 17.6057C61.7221 18.4267 60.4131 18.837 58.5828 18.837H53.4747V24.1211Z" fill="#23496E"/>
<path fill-rule="evenodd" clip-rule="evenodd" d="M97.2659 16.4257H102.079C102.907 16.4257 103.481 16.3487 103.8 16.1948C104.118 16.0408 104.278 15.7589 104.278 15.3483V11.2955C104.278 10.885 104.118 10.603 103.8 10.4491C103.481 10.2951 102.907 10.2181 102.079 10.2181H97.2659V16.4257ZM105.107 24.1211L101.792 18.4521H97.2659V24.1211H94.0788V8.08911H102.047C103.47 8.08911 104.581 8.2602 105.377 8.60222C106.174 8.94446 106.748 9.5044 107.099 10.2822C107.449 11.0607 107.624 12.1334 107.624 13.5015C107.624 14.8187 107.417 15.8485 107.003 16.5924C106.589 17.3364 105.914 17.8538 104.979 18.1443L108.581 24.1211H105.107Z" fill="#23496E"/>
<path fill-rule="evenodd" clip-rule="evenodd" d="M145.951 24.1211H142.758V8.08911H153.616L153.264 10.2182H145.951V15.4253H152.338V17.4518H145.951V24.1211Z" fill="#23496E"/>
<mask id="mask0_3298_8445" style="mask-type:alpha" maskUnits="userSpaceOnUse" x="38" y="0" width="135" height="49">
<path d="M38.9869 48.096H173V0H38.9869V48.096Z" fill="white"/>
</mask>
<g mask="url(#mask0_3298_8445)">
<path fill-rule="evenodd" clip-rule="evenodd" d="M162.069 24.1211H165.203V8.08911H162.069V24.1211Z" fill="#23496E"/>
<path fill-rule="evenodd" clip-rule="evenodd" d="M70.3041 19.895C69.711 21.2821 69.1174 22.6698 68.5005 24.1121C69.494 24.1121 70.3743 24.0974 71.2536 24.1205C71.5453 24.1282 71.6873 24.0257 71.7921 23.7672C72.3161 22.4736 72.8514 21.1846 73.383 19.8943C73.0161 19.8944 72.6491 19.8946 72.2889 19.8947C71.5664 19.8948 70.8858 19.895 70.3041 19.895Z" fill="#23496E"/>
<path fill-rule="evenodd" clip-rule="evenodd" d="M119.817 19.8946C119.09 19.8948 118.405 19.895 117.821 19.895C117.226 21.2821 116.632 22.6698 116.013 24.1122C117.006 24.1122 117.885 24.0975 118.764 24.1205C119.055 24.1281 119.197 24.0261 119.301 23.7683C119.827 22.4743 120.363 21.185 120.896 19.8943C120.534 19.8944 120.173 19.8945 119.817 19.8946Z" fill="#23496E"/>
<path fill-rule="evenodd" clip-rule="evenodd" d="M59.0269 37.8183V35.4189C59.0269 34.6543 59.1975 34.0982 59.5381 33.751C59.879 33.4036 60.4211 33.23 61.1647 33.23H62.4141C63.0475 33.23 63.5192 33.3651 63.829 33.6352C64.1387 33.9053 64.3108 34.3386 64.3453 34.9349C64.359 35.1173 64.2695 35.2084 64.0768 35.2084C63.9116 35.2084 63.822 35.1173 63.8083 34.9349C63.7808 34.507 63.6637 34.2071 63.4572 34.0351C63.2507 33.8632 62.9029 33.7772 62.4141 33.7772H61.1647C60.7653 33.7772 60.4503 33.8299 60.2197 33.9351C59.989 34.0404 59.8222 34.2105 59.7189 34.4456C59.6156 34.6806 59.5641 35.005 59.5641 35.4189V37.8183C59.5641 38.2324 59.6156 38.5567 59.7189 38.7916C59.8222 39.0268 59.989 39.1968 60.2197 39.3021C60.4503 39.4073 60.7687 39.46 61.1751 39.46H62.4141C62.9029 39.46 63.2507 39.3758 63.4572 39.2075C63.6637 39.039 63.7808 38.7374 63.8083 38.3025C63.822 38.12 63.9116 38.0288 64.0768 38.0288C64.2695 38.0288 64.359 38.1234 64.3453 38.3129C64.3108 38.9093 64.1387 39.3407 63.829 39.6073C63.5192 39.874 63.0475 40.0071 62.4141 40.0071H61.1751C60.4315 40.0071 59.8875 39.8319 59.5433 39.4809C59.199 39.1303 59.0269 38.576 59.0269 37.8183Z" fill="#23496E"/>
<path fill-rule="evenodd" clip-rule="evenodd" d="M77.1387 37.6288H80.0479L78.5933 34.0929L77.1387 37.6288ZM81.4718 39.7546C81.4718 39.8459 81.4137 39.9195 81.2976 39.9755C81.2566 39.9966 81.2121 40.0071 81.1644 40.0071C81.0687 40.0071 81.0006 39.951 80.9596 39.8388L80.2733 38.176H80.2425H76.9236L76.2373 39.8388C76.1894 39.951 76.1144 40.0071 76.0119 40.0071C75.9776 40.0071 75.9333 39.9966 75.8788 39.9755C75.7695 39.9335 75.7148 39.8564 75.7148 39.744C75.7148 39.688 75.7216 39.6459 75.7353 39.6178L78.2758 33.4404C78.3304 33.3001 78.4327 33.23 78.583 33.23H78.6035C78.7401 33.23 78.8392 33.3001 78.9006 33.4404L81.441 39.6178C81.4615 39.6669 81.4718 39.7125 81.4718 39.7546Z" fill="#23496E"/>
<path fill-rule="evenodd" clip-rule="evenodd" d="M96.8971 35.0506C96.8971 34.6086 96.7996 34.286 96.6045 34.0824C96.4094 33.879 96.0928 33.7772 95.6549 33.7772H93.5195V36.6396H95.6549C96.0928 36.6396 96.4094 36.5397 96.6045 36.3397C96.7996 36.1398 96.8971 35.8154 96.8971 35.3663V35.0506ZM96.9792 33.693C97.2803 34.0019 97.431 34.4544 97.431 35.0506V35.3663C97.431 35.9626 97.2821 36.4152 96.9844 36.7238C96.6866 37.0327 96.2435 37.1868 95.6549 37.1868H93.5195V39.7335C93.5195 39.9161 93.4305 40.0071 93.2525 40.0071C93.0746 40.0071 92.9857 39.9161 92.9857 39.7335V33.5036C92.9857 33.3212 93.0746 33.23 93.2525 33.23H95.6549C96.2366 33.23 96.678 33.3844 96.9792 33.693Z" fill="#23496E"/>
<path fill-rule="evenodd" clip-rule="evenodd" d="M109.086 39.9335C109.041 39.8845 109.018 39.8177 109.018 39.7335V33.5036C109.018 33.4195 109.041 33.3529 109.086 33.3037C109.132 33.2547 109.194 33.23 109.273 33.23C109.351 33.23 109.413 33.2547 109.459 33.3037C109.505 33.3529 109.528 33.4195 109.528 33.5036V39.7335C109.528 39.8177 109.505 39.8845 109.459 39.9335C109.413 39.9826 109.351 40.0071 109.273 40.0071C109.194 40.0071 109.132 39.9826 109.086 39.9335Z" fill="#23496E"/>
<path fill-rule="evenodd" clip-rule="evenodd" d="M123.729 39.9283C123.678 39.8758 123.652 39.8111 123.652 39.734V33.7763H121.455C121.38 33.7763 121.316 33.7501 121.265 33.6976C121.213 33.6449 121.187 33.5803 121.187 33.5032C121.187 33.4191 121.213 33.3526 121.265 33.3035C121.316 33.2547 121.38 33.23 121.455 33.23H126.385C126.467 33.23 126.533 33.2547 126.58 33.3035C126.629 33.3526 126.653 33.4191 126.653 33.5032C126.653 33.5803 126.629 33.6449 126.58 33.6976C126.533 33.7501 126.467 33.7763 126.385 33.7763H124.188V39.734C124.188 39.8111 124.164 39.8758 124.116 39.9283C124.068 39.981 124.002 40.0071 123.92 40.0071C123.844 40.0071 123.781 39.981 123.729 39.9283Z" fill="#23496E"/>
<path fill-rule="evenodd" clip-rule="evenodd" d="M137.404 37.6288H140.314L138.859 34.0929L137.404 37.6288ZM141.738 39.7546C141.738 39.8459 141.679 39.9195 141.563 39.9755C141.522 39.9966 141.478 40.0071 141.43 40.0071C141.334 40.0071 141.266 39.951 141.225 39.8388L140.539 38.176H140.508H137.189L136.503 39.8388C136.455 39.951 136.38 40.0071 136.278 40.0071C136.243 40.0071 136.199 39.9966 136.144 39.9755C136.035 39.9335 135.981 39.8564 135.981 39.744C135.981 39.688 135.987 39.6459 136.001 39.6178L138.542 33.4404C138.596 33.3001 138.698 33.23 138.849 33.23H138.869C139.006 33.23 139.105 33.3001 139.166 33.4404L141.707 39.6178C141.727 39.6669 141.738 39.7125 141.738 39.7546Z" fill="#23496E"/>
<path fill-rule="evenodd" clip-rule="evenodd" d="M153.324 39.7335V33.5037C153.324 33.3212 153.413 33.23 153.591 33.23C153.769 33.23 153.859 33.3212 153.859 33.5037V39.46H156.992C157.17 39.46 157.26 39.5512 157.26 39.7335C157.26 39.9161 157.17 40.0071 156.992 40.0071H153.591C153.413 40.0071 153.324 39.9161 153.324 39.7335Z" fill="#23496E"/>
</g>
</svg>
