<svg xmlns="http://www.w3.org/2000/svg" viewBox="0 0 238.03 62.73"><defs><style>.cls-1{fill:#fff;}</style></defs><g id="Layer_2" data-name="Layer 2"><g id="Layer_1-2" data-name="Layer 1"><path id="SnowBig" class="cls-1" d="M44.8,32.93c-5.81-.17-11.62-.14-17.42.16-4.86.25-14.6,3.12-19.2,1.11-2.91-1.27-6.55-2.59-7.94-5-.91-1.58,1-5.68,2.71-7.7C15.57,6.81,40.12.33,58.64,6.62c6,2,11.86,4.39,17.68,6.82,12.26,5.12,24.29,4.42,36.28-.88,7-3.09,14-6.15,21.07-9,11.64-4.71,23.41-4.83,34.93.22,9.74,4.27,19.28,9,28.87,13.6a62.25,62.25,0,0,0,28.35,6.7c3.1,0,15.41,1.21,11.42,7.32-1.21,1.86-3.52,2.61-5.65,3.21-15.71,4.44-32.26,3.13-48.42,3.87-7.46.34-14.91,1.09-22.34,1.9-8.21.9-9.9,13.73-17.43,12.91a6.3,6.3,0,0,1-4.61-3.4,15.65,15.65,0,0,1-1.55-5.72c-.3-2.44-.8-5.38-3.07-6.31-2.45-1-5.18,1.29-5.84,3.85s0,5.25.2,7.89c.62,8.1-6.18,9.25-9.49,2.22-.84-1.79-.31-4.25-.24-6.41.11-3.34-.82-6.7-4.44-6.33-1.68.17-4,3.83-4.24,6.11-.46,4,.45,8.25.74,12.38.18,2.46,0,5.07-3.15,5.17-3.55.11-3-2.88-3-5.11,0-2.49.14-5,.14-7.49,0-8.52-2.28-11.72-10.64-12.71C79.5,35.69,64.8,33.84,50,33.13,48.27,33.05,46.54,33,44.8,32.93Z"/></g></g></svg>