<svg xmlns="http://www.w3.org/2000/svg" viewBox="0 0 83.03 35.59"><defs><style>.cls-1{fill:#fff;}</style></defs><g id="Layer_2" data-name="Layer 2"><g id="Layer_1-2" data-name="Layer 1"><path id="SnowSmall" class="cls-1" d="M62.2,24.37c-3.78,6.05-6.8,6-10.84,3-1.43-1.08-4.8-.61-6.8.26-3.65,1.6-6.89,2.56-11,1.16-1.52-.53-4.28.93-5.81,2.26-4.2,3.66-5.27,3.89-8-.57-2.14-3.42-5.21-3.77-8.61-3.7-2.66.06-5.33.45-8,.27a4.07,4.07,0,0,1-3-2A3.72,3.72,0,0,1,1,21.6c7.27-4.94,14.47-10,22.17-14.22,2.29-1.23,6.23-.11,9.18.74,5.34,1.54,9.57.61,13.61-3.36,6.47-6.34,10.82-6.28,17.65-.22,2.11,1.86,3.68,4.38,5.9,6.06,3.1,2.36,6.59,4.19,9.88,6.29,1.57,1,4.35,1.87,3.55,4.33-1.38,4.23-7.67,3.78-9.72,8.33-2.26,5-2.73,8.78-7,3.44C65.1,31.59,61,26.37,62.2,24.37Z"/></g></g></svg>