<svg xmlns="http://www.w3.org/2000/svg" viewBox="0 0 110.68 29.59"><defs><style>.cls-1{fill:#fff;}</style></defs><g id="Layer_2" data-name="Layer 2"><g id="Layer_1-2" data-name="Layer 1"><path id="SnowMid" class="cls-1" d="M110.67,16.77a2.28,2.28,0,0,1-1.21,2c-2.83,1.57-7.4,1.05-10.52,1.94-5.88,1.65-15.63,9.86-20.57,4.08C75.53,21.44,73,20.7,70,24.63c-2.48,3.23-5.4,3.25-7.67-.3-1.68-2.63-3.72-3.07-6.72-2.94-4.25.18-8.53-.68-12.81-.79a4.63,4.63,0,0,0-3.13,1.73C38.53,23.71,38,25.6,36.85,27c-3.28,3.95-6.73,3.34-8.67-1.38-3.48-8.46-5.45-9.41-14.63-8.55a26.94,26.94,0,0,1-10.27-1C-.79,14.78-1.15,11,2.63,9.2c14-6.69,28-14.13,43.69-4,5.77,3.71,11.92,3,18-.21A42.39,42.39,0,0,1,76.29.3C83.09-.94,89,1.78,94,6.46c4.86,4.53,7.94,6.46,14.34,8.34.89.27,1.9.63,2.23,1.5A1.28,1.28,0,0,1,110.67,16.77Z"/></g></g></svg>