<svg width="125" height="125" viewBox="0 0 125 125" fill="none" xmlns="http://www.w3.org/2000/svg">
<g filter="url(#filter0_f_17_294)">
<rect x="31.0703" y="26.5294" width="67.2883" height="67.2883" rx="23.6816" transform="rotate(3.86927 31.0703 26.5294)" fill="url(#paint0_linear_17_294)"/>
<g style="mix-blend-mode:color-dodge" opacity="0.5" filter="url(#filter1_f_17_294)">
<path fill-rule="evenodd" clip-rule="evenodd" d="M30.5113 44.6256C34.279 35.8525 43.277 29.9894 53.344 30.6703L75.4867 32.1679C85.865 32.8698 94.181 40.3104 96.453 49.9303C94.9892 39.002 86.0052 30.2448 74.5778 29.4719L54.6981 28.1274C43.5697 27.3747 33.718 34.4369 30.5113 44.6256Z" fill="url(#paint1_linear_17_294)"/>
</g>
<path fill-rule="evenodd" clip-rule="evenodd" d="M61.4689 80.8003C60.036 80.7163 58.706 80.277 57.5177 79.5247L48.4471 73.7733C46.0295 72.2664 44.6648 69.6167 44.8267 66.8557L45.4366 56.4521C45.5984 53.6911 47.3043 51.2214 49.8405 50.0049L59.5209 45.3527C62.1004 44.0986 65.171 44.2786 67.5863 45.8255L76.6568 51.577C77.8065 52.2868 78.7328 53.3047 79.4041 54.4683L66.6751 60.6684C64.1798 61.8872 62.4692 64.437 62.3121 67.1179L61.5098 80.8027L61.4689 80.8003ZM79.7729 67.0976L79.6674 68.8982C79.5055 71.6592 77.7996 74.1289 75.2634 75.3453L65.583 79.9976C65.328 80.1432 65.0344 80.2465 64.7407 80.3497L64.9308 77.1086C65.0679 75.4704 66.0168 74.0003 67.499 73.244C71.1372 71.4497 74.814 69.6978 78.4112 67.9011C78.9166 67.6898 79.3424 67.4337 79.7729 67.0976ZM80.254 57.4894C80.2762 57.8119 80.2984 58.1344 80.2773 58.4945L80.167 60.3752C80.0064 62.4135 78.7908 64.2294 76.9261 65.2041C73.2879 66.9984 69.6111 68.7503 66.0138 70.547C65.7611 70.6527 65.5061 70.7983 65.292 70.9464L65.5055 67.3051C65.6426 65.6669 66.6324 64.1992 68.1555 63.4453L80.254 57.4894Z" fill="url(#paint2_linear_17_294)"/>
</g>
<defs>
<filter id="filter0_f_17_294" x="0" y="-0.000244141" width="124.735" height="124.735" filterUnits="userSpaceOnUse" color-interpolation-filters="sRGB">
<feFlood flood-opacity="0" result="BackgroundImageFix"/>
<feBlend mode="normal" in="SourceGraphic" in2="BackgroundImageFix" result="shape"/>
<feGaussianBlur stdDeviation="1.5" result="effect1_foregroundBlur_17_294"/>
</filter>
<filter id="filter1_f_17_294" x="30.2421" y="27.8034" width="66.4801" height="22.3959" filterUnits="userSpaceOnUse" color-interpolation-filters="sRGB">
<feFlood flood-opacity="0" result="BackgroundImageFix"/>
<feBlend mode="normal" in="SourceGraphic" in2="BackgroundImageFix" result="shape"/>
<feGaussianBlur stdDeviation="0.134555" result="effect1_foregroundBlur_17_294"/>
</filter>
<linearGradient id="paint0_linear_17_294" x1="64.7145" y1="26.5294" x2="43.8866" y2="86.3928" gradientUnits="userSpaceOnUse">
<stop stop-color="#212428"/>
<stop offset="0.937272" stop-color="#15171B"/>
</linearGradient>
<linearGradient id="paint1_linear_17_294" x1="37.612" y1="32.2325" x2="94.1412" y2="36.6721" gradientUnits="userSpaceOnUse">
<stop stop-color="#F3CCEB"/>
<stop offset="0.392952"/>
<stop offset="0.555099"/>
<stop offset="1" stop-color="#F7CDED"/>
</linearGradient>
<linearGradient id="paint2_linear_17_294" x1="60.4633" y1="78.0193" x2="63.0532" y2="41.5362" gradientUnits="userSpaceOnUse">
<stop stop-color="white"/>
<stop offset="1" stop-color="#545372"/>
</linearGradient>
</defs>
</svg>
