<svg width="280" height="69" viewBox="0 0 280 69" fill="none" xmlns="http://www.w3.org/2000/svg">
<g clip-path="url(#clip0_18236_8564)">
<mask id="mask0_18236_8564" style="mask-type:luminance" maskUnits="userSpaceOnUse" x="0" y="0" width="281" height="69">
<path d="M280.004 0H0.00390625V69H280.004V0Z" fill="white"/>
</mask>
<g mask="url(#mask0_18236_8564)">
<path d="M93.7401 35.2149C93.8943 35.8425 93.9721 36.6264 93.9721 37.5664C93.9721 38.469 93.8943 39.2528 93.7401 39.918H91.4183C91.5727 40.5456 91.6503 41.3294 91.6503 42.2695C91.6503 43.172 91.5727 43.9546 91.4183 44.621H79.8089C79.6533 43.9546 79.5769 43.1708 79.5769 42.2695C79.5769 41.3282 79.6533 40.5456 79.8089 39.918H77.4872C77.3318 39.2516 77.2552 38.4677 77.2552 37.5664C77.2552 36.6264 77.3318 35.8425 77.4872 35.2149H75.1656C75.01 34.5485 74.9336 33.7647 74.9336 32.8634C74.9336 31.9233 75.01 31.1395 75.1656 30.5119H77.4872C77.3318 29.8455 77.2552 29.0617 77.2552 28.1604C77.2552 27.2189 77.3318 26.4363 77.4872 25.8088H79.8089C79.6533 25.1425 79.5769 24.3586 79.5769 23.4573C79.5769 22.5159 79.6533 21.7332 79.8089 21.1057H91.4183C91.5727 21.7332 91.6503 22.5171 91.6503 23.4573C91.6503 24.3598 91.5727 25.1425 91.4183 25.8088H93.7401C93.8943 26.4363 93.9721 27.2201 93.9721 28.1604C93.9721 29.0629 93.8943 29.8455 93.7401 30.5119H89.0968C88.9412 29.8455 88.8646 29.0617 88.8646 28.1604C88.8646 27.2189 88.9412 26.4363 89.0968 25.8088H82.1305C82.2849 26.4363 82.3625 27.2201 82.3625 28.1604C82.3625 29.0629 82.2849 29.8455 82.1305 30.5119H79.8089C79.9631 31.1395 80.0409 31.9233 80.0409 32.8634C80.0409 33.7659 79.9631 34.5498 79.8089 35.2149H82.1305C82.2849 35.8425 82.3625 36.6264 82.3625 37.5664C82.3625 38.469 82.2849 39.2528 82.1305 39.918H89.0968C88.9412 39.2516 88.8646 38.4677 88.8646 37.5664C88.8646 36.6264 88.9412 35.8425 89.0968 35.2149H93.7401Z" fill="url(#paint0_linear_18236_8564)"/>
<path d="M117.187 42.2704C117.187 43.1731 117.109 43.9557 116.955 44.622H108.829C108.673 43.9557 108.597 43.1719 108.597 42.2704C108.597 41.3291 108.673 40.5465 108.829 39.9189H106.507C106.351 39.2527 106.275 38.4689 106.275 37.5674C106.275 36.6273 106.351 35.8435 106.507 35.2159H103.024C103.178 35.8435 103.256 36.6273 103.256 37.5674C103.256 38.4701 103.178 39.2539 103.024 39.9189C103.178 40.5465 103.256 41.3304 103.256 42.2704C103.256 43.1731 103.178 43.9557 103.024 44.622H98.3805C98.225 43.9557 98.1484 43.1719 98.1484 42.2704C98.1484 41.3291 98.225 40.5465 98.3805 39.9189C98.225 39.2527 98.1484 38.4689 98.1484 37.5674C98.1484 36.6273 98.225 35.8435 98.3805 35.2159C98.225 34.5497 98.1484 33.7658 98.1484 32.8644C98.1484 31.9243 98.225 31.1404 98.3805 30.5128C98.225 29.8465 98.1484 29.0626 98.1484 28.1613C98.1484 27.22 98.225 26.4374 98.3805 25.8098C98.225 25.1434 98.1484 24.3596 98.1484 23.4583C98.1484 22.517 98.225 21.7344 98.3805 21.1068C98.225 20.4404 98.1484 19.6565 98.1484 18.7552C98.1484 17.8139 98.225 17.0312 98.3805 16.4037C98.225 15.7373 98.1484 14.9535 98.1484 14.0522C98.1484 13.112 98.225 12.3282 98.3805 11.7006H103.024C103.178 12.3282 103.256 13.112 103.256 14.0522C103.256 14.9547 103.178 15.7373 103.024 16.4037C103.178 17.0312 103.256 17.8152 103.256 18.7552C103.256 19.6578 103.178 20.4404 103.024 21.1068C103.178 21.7344 103.256 22.5182 103.256 23.4583C103.256 24.3608 103.178 25.1434 103.024 25.8098C103.178 26.4374 103.256 27.2212 103.256 28.1613C103.256 29.0638 103.178 29.8465 103.024 30.5128H106.507C106.351 29.8465 106.275 29.0626 106.275 28.1613C106.275 27.22 106.351 26.4374 106.507 25.8098H108.829C108.673 25.1434 108.597 24.3596 108.597 23.4583C108.597 22.517 108.673 21.7344 108.829 21.1068H115.795C115.949 21.7344 116.027 22.5182 116.027 23.4583C116.027 24.3608 115.949 25.1434 115.795 25.8098H111.151C111.306 26.4374 111.383 27.2212 111.383 28.1613C111.383 29.0638 111.306 29.8465 111.151 30.5128H108.83C108.984 31.1404 109.062 31.9243 109.062 32.8644C109.062 33.7669 108.984 34.5507 108.83 35.2159H111.151C111.306 35.8435 111.383 36.6273 111.383 37.5674C111.383 38.4701 111.306 39.2539 111.151 39.9189H116.956C117.108 40.5465 117.187 41.3304 117.187 42.2704Z" fill="url(#paint1_linear_18236_8564)"/>
<path d="M140.179 35.2149C140.333 35.8425 140.411 36.6264 140.411 37.5664C140.411 38.469 140.333 39.2528 140.179 39.918H137.857C138.011 40.5456 138.089 41.3294 138.089 42.2695C138.089 43.172 138.011 43.9546 137.857 44.621H126.248C126.092 43.9546 126.016 43.1708 126.016 42.2695C126.016 41.3282 126.092 40.5456 126.248 39.918H123.925C123.769 39.2516 123.693 38.4677 123.693 37.5664C123.693 36.6264 123.769 35.8425 123.925 35.2149H121.603C121.448 34.5485 121.371 33.7647 121.371 32.8634C121.371 31.9233 121.448 31.1395 121.603 30.5119H123.925C123.769 29.8455 123.693 29.0617 123.693 28.1604C123.693 27.2189 123.769 26.4363 123.925 25.8088H126.246C126.091 25.1425 126.014 24.3586 126.014 23.4573C126.014 22.5159 126.091 21.7332 126.246 21.1057H137.856C138.01 21.7332 138.088 22.5171 138.088 23.4573C138.088 24.3598 138.01 25.1425 137.856 25.8088H140.178C140.332 26.4363 140.41 27.2201 140.41 28.1604C140.41 29.0629 140.332 29.8455 140.178 30.5119H135.534C135.379 29.8455 135.302 29.0617 135.302 28.1604C135.302 27.2189 135.379 26.4363 135.534 25.8088H128.568C128.722 26.4363 128.8 27.2201 128.8 28.1604C128.8 29.0629 128.722 29.8455 128.568 30.5119H126.246C126.401 31.1395 126.478 31.9233 126.478 32.8634C126.478 33.7659 126.401 34.5498 126.246 35.2149H128.568C128.722 35.8425 128.8 36.6264 128.8 37.5664C128.8 38.469 128.722 39.2528 128.568 39.918H135.534C135.379 39.2516 135.302 38.4677 135.302 37.5664C135.302 36.6264 135.379 35.8425 135.534 35.2149H140.179Z" fill="url(#paint2_linear_18236_8564)"/>
<path d="M149.461 25.8075H151.203C151.357 26.4351 151.436 27.2189 151.436 28.159C151.436 29.0617 151.357 29.8443 151.203 30.5105H149.461C149.616 31.1381 149.693 31.922 149.693 32.8621C149.693 33.7647 149.616 34.5486 149.461 35.2137C149.616 35.8412 149.693 36.625 149.693 37.5653C149.693 38.4678 149.616 39.2516 149.461 39.9168C149.616 40.5442 149.693 41.3281 149.693 42.2683C149.693 43.1708 149.616 43.9534 149.461 44.6198H144.818C144.663 43.9534 144.586 43.1696 144.586 42.2683C144.586 41.327 144.663 40.5442 144.818 39.9168C144.663 39.2504 144.586 38.4665 144.586 37.5653C144.586 36.625 144.663 35.8412 144.818 35.2137C144.663 34.5473 144.586 33.7635 144.586 32.8621C144.586 31.922 144.663 31.1381 144.818 30.5105C144.663 29.8443 144.586 29.0605 144.586 28.159C144.586 27.2177 144.663 26.4351 144.818 25.8075C144.663 25.1413 144.586 24.3574 144.586 23.456C144.586 22.5147 144.663 21.7321 144.818 21.1045C144.663 20.4382 144.586 19.6544 144.586 18.7529C144.586 17.8116 144.663 17.029 144.818 16.4014C144.663 15.735 144.586 14.9513 144.586 14.0499C144.586 13.1098 144.663 12.3259 144.818 11.6984H149.461C149.616 12.3259 149.693 13.1098 149.693 14.0499C149.693 14.9525 149.616 15.735 149.461 16.4014C149.616 17.029 149.693 17.8129 149.693 18.7529C149.693 19.6555 149.616 20.4382 149.461 21.1045C149.616 21.7321 149.693 22.5159 149.693 23.456C149.693 24.3587 149.616 25.1425 149.461 25.8075ZM163.625 32.8633C163.625 33.766 163.548 34.5498 163.394 35.2148C163.548 35.8424 163.625 36.6262 163.625 37.5665C163.625 38.469 163.548 39.2528 163.394 39.918C163.548 40.5454 163.625 41.3293 163.625 42.2695C163.625 43.172 163.548 43.9547 163.394 44.621H158.75C158.595 43.9547 158.519 43.1708 158.519 42.2695C158.519 41.3281 158.595 40.5454 158.75 39.918C158.595 39.2516 158.519 38.4678 158.519 37.5665C158.519 36.6262 158.595 35.8424 158.75 35.2148C158.595 34.5486 158.519 33.7647 158.519 32.8633C158.519 31.9232 158.595 31.1394 158.75 30.5118C158.595 29.8455 158.519 29.0617 158.519 28.1602C158.519 27.2189 158.595 26.4363 158.75 25.8087H151.204C151.049 25.1425 150.972 24.3587 150.972 23.4572C150.972 22.5159 151.049 21.7333 151.204 21.1057H160.493C160.647 21.7333 160.724 22.5171 160.724 23.4572C160.724 24.3597 160.647 25.1425 160.493 25.8087H163.394C163.548 26.4363 163.625 27.2202 163.625 28.1602C163.625 29.0629 163.548 29.8455 163.394 30.5118C163.547 31.1394 163.625 31.9232 163.625 32.8633Z" fill="url(#paint3_linear_18236_8564)"/>
<path d="M186.843 42.2703C186.843 43.1728 186.766 43.9554 186.612 44.6218H181.968C181.812 43.9554 181.737 43.1716 181.737 42.2703C181.737 41.329 181.812 40.5464 181.968 39.9188H179.646C179.491 39.2524 179.415 38.4685 179.415 37.5672C179.415 36.6272 179.491 35.8432 179.646 35.2157H172.68C172.834 35.8432 172.913 36.6272 172.913 37.5672C172.913 38.4698 172.834 39.2536 172.68 39.9188H179.646C179.801 40.5464 179.878 41.3302 179.878 42.2703C179.878 43.1728 179.801 43.9554 179.646 44.6218H170.358C170.204 43.9554 170.126 43.1716 170.126 42.2703C170.126 41.329 170.204 40.5464 170.358 39.9188H168.036C167.882 39.2524 167.805 38.4685 167.805 37.5672C167.805 36.6272 167.882 35.8432 168.036 35.2157H170.358C170.204 34.5493 170.126 33.7655 170.126 32.8642C170.126 31.924 170.204 31.1401 170.358 30.5127H179.646C179.491 29.8463 179.415 29.0625 179.415 28.1612C179.415 27.2197 179.491 26.4371 179.646 25.8095H171.52C171.364 25.1433 171.287 24.3594 171.287 23.458C171.287 22.5167 171.364 21.734 171.52 21.1064H181.97C182.124 21.734 182.201 22.5179 182.201 23.458C182.201 24.3606 182.124 25.1433 181.97 25.8095H184.291C184.446 26.4371 184.523 27.2209 184.523 28.1612C184.523 29.0637 184.446 29.8463 184.291 30.5127C184.446 31.1401 184.523 31.924 184.523 32.8642C184.523 33.7667 184.446 34.5506 184.291 35.2157C184.446 35.8432 184.523 36.6272 184.523 37.5672C184.523 38.4698 184.446 39.2536 184.291 39.9188H186.613C186.766 40.5464 186.843 41.3302 186.843 42.2703Z" fill="url(#paint4_linear_18236_8564)"/>
<path d="M207.743 42.2708C207.743 43.1733 207.665 43.9559 207.511 44.6223H193.579C193.425 43.9559 193.348 43.172 193.348 42.2708C193.348 41.3293 193.425 40.5467 193.579 39.9191H198.223C198.068 39.2528 197.991 38.469 197.991 37.5676C197.991 36.6275 198.068 35.8436 198.223 35.216C198.068 34.5498 197.991 33.766 197.991 32.8645C197.991 31.9244 198.068 31.1406 198.223 30.513C198.068 29.8468 197.991 29.0629 197.991 28.1615C197.991 27.2202 198.068 26.4375 198.223 25.81H194.74C194.584 25.1437 194.509 24.3597 194.509 23.4584C194.509 22.5171 194.586 21.7345 194.74 21.1069H202.866C203.021 21.7345 203.099 22.5183 203.099 23.4584C203.099 24.361 203.021 25.1437 202.866 25.81C203.021 26.4375 203.099 27.2214 203.099 28.1615C203.099 29.0641 203.021 29.8468 202.866 30.513C203.021 31.1406 203.099 31.9244 203.099 32.8645C203.099 33.7672 203.021 34.551 202.866 35.216C203.021 35.8436 203.099 36.6275 203.099 37.5676C203.099 38.4702 203.021 39.2541 202.866 39.9191H207.511C207.664 40.5467 207.743 41.3305 207.743 42.2708ZM198.223 16.4014C198.068 15.735 197.991 14.9513 197.991 14.0499C197.991 13.1098 198.068 12.3259 198.223 11.6984H202.866C203.021 12.3259 203.099 13.1098 203.099 14.0499C203.099 14.9525 203.021 15.735 202.866 16.4014H198.223Z" fill="url(#paint5_linear_18236_8564)"/>
<path d="M218.541 25.8074H220.863C221.018 26.4349 221.096 27.2188 221.096 28.1589C221.096 29.0614 221.018 29.844 220.863 30.5104H219.123C219.277 31.138 219.354 31.9218 219.354 32.8619C219.354 33.7644 219.277 34.5483 219.123 35.2134C219.277 35.841 219.354 36.6249 219.354 37.5649C219.354 38.4675 219.277 39.2515 219.123 39.9165C219.277 40.5441 219.354 41.3279 219.354 42.268C219.354 43.1707 219.277 43.9533 219.123 44.6195H214.478C214.322 43.9533 214.246 43.1694 214.246 42.268C214.246 41.3267 214.322 40.5441 214.478 39.9165C214.322 39.2502 214.246 38.4664 214.246 37.5649C214.246 36.6249 214.322 35.841 214.478 35.2134C214.322 34.547 214.246 33.7632 214.246 32.8619C214.246 31.9218 214.322 31.138 214.478 30.5104C214.322 29.844 214.246 29.0602 214.246 28.1589C214.246 27.2176 214.322 26.4349 214.478 25.8074C214.322 25.141 214.246 24.3571 214.246 23.4558C214.246 22.5145 214.322 21.7317 214.478 21.1043H218.541C218.696 21.7317 218.773 22.5157 218.773 23.4558C218.775 24.3584 218.696 25.1422 218.541 25.8074ZM233.286 32.8631C233.286 33.7657 233.209 34.5495 233.055 35.2147C233.209 35.8423 233.286 36.6261 233.286 37.5662C233.286 38.4687 233.209 39.2525 233.055 39.9177C233.209 40.5453 233.286 41.3291 233.286 42.2692C233.286 43.1719 233.209 43.9545 233.055 44.6207H228.411C228.255 43.9545 228.18 43.1707 228.18 42.2692C228.18 41.3279 228.255 40.5453 228.411 39.9177C228.255 39.2513 228.18 38.4675 228.18 37.5662C228.18 36.6261 228.255 35.8423 228.411 35.2147C228.255 34.5483 228.18 33.7644 228.18 32.8631C228.18 31.9231 228.255 31.1392 228.411 30.5116C228.255 29.8452 228.18 29.0614 228.18 28.1601C228.18 27.2188 228.255 26.4362 228.411 25.8086H220.865C220.71 25.1422 220.633 24.3584 220.633 23.4571C220.633 22.5157 220.71 21.733 220.865 21.1055H230.153C230.308 21.733 230.385 22.5168 230.385 23.4571C230.385 24.3596 230.308 25.1422 230.153 25.8086H233.056C233.21 26.4362 233.288 27.22 233.288 28.1601C233.288 29.0626 233.21 29.8452 233.056 30.5116C233.209 31.1392 233.286 31.9231 233.286 32.8631Z" fill="url(#paint6_linear_18236_8564)"/>
<path d="M256.269 30.5119C256.424 31.1395 256.501 31.9233 256.501 32.8634C256.501 33.7659 256.424 34.5498 256.269 35.2149H244.078C244.232 35.8425 244.311 36.6264 244.311 37.5664C244.311 38.469 244.232 39.2528 244.078 39.918H253.946C254.101 40.5456 254.178 41.3294 254.178 42.2695C254.178 43.172 254.101 43.9546 253.946 44.621H242.337C242.182 43.9546 242.104 43.1708 242.104 42.2695C242.104 41.3282 242.182 40.5456 242.337 39.918H239.435C239.279 39.2516 239.201 38.4677 239.201 37.5664C239.201 36.6264 239.279 35.8425 239.435 35.2149H237.693C237.537 34.5485 237.461 33.7647 237.461 32.8634C237.461 31.9233 237.537 31.1395 237.693 30.5119H239.435C239.279 29.8455 239.201 29.0617 239.201 28.1604C239.201 27.2189 239.279 26.4363 239.435 25.8088H242.337C242.182 25.1425 242.104 24.3586 242.104 23.4573C242.104 22.5159 242.182 21.7332 242.337 21.1057H253.946C254.101 21.7332 254.178 22.5171 254.178 23.4573C254.178 24.3598 254.101 25.1425 253.946 25.8088H256.268C256.422 26.4363 256.499 27.2201 256.499 28.1604C256.501 29.0617 256.424 29.8455 256.269 30.5119ZM251.393 28.1604C251.393 27.2189 251.468 26.4363 251.624 25.8088H244.078C244.232 26.4363 244.311 27.2201 244.311 28.1604C244.311 29.0629 244.232 29.8455 244.078 30.5119H251.624C251.47 29.8455 251.393 29.0617 251.393 28.1604Z" fill="url(#paint7_linear_18236_8564)"/>
<path d="M271.942 25.8075H266.137C266.292 26.4351 266.369 27.2189 266.369 28.159C266.369 29.0617 266.292 29.8443 266.137 30.5105H264.395C264.55 31.1381 264.627 31.922 264.627 32.8621C264.627 33.7647 264.55 34.5486 264.395 35.2137H266.137C266.292 35.8412 266.369 36.625 266.369 37.5653C266.369 38.4678 266.292 39.2516 266.137 39.9168H271.942C272.096 40.5442 272.173 41.3281 272.173 42.2683C272.173 43.1708 272.096 43.9534 271.942 44.6198H265.556C265.402 43.9534 265.325 43.1696 265.325 42.2683C265.325 41.327 265.402 40.5442 265.556 39.9168H262.653C262.499 39.2504 262.422 38.4665 262.422 37.5653C262.422 36.625 262.499 35.8412 262.653 35.2137H260.913C260.757 34.5473 260.68 33.7635 260.68 32.8621C260.68 31.922 260.757 31.1381 260.913 30.5105H262.653C262.499 29.8443 262.422 29.0605 262.422 28.159C262.422 27.2177 262.499 26.4351 262.653 25.8075H265.556C265.402 25.1413 265.325 24.3574 265.325 23.456C265.325 22.5147 265.402 21.7321 265.556 21.1045H271.942C272.096 21.7321 272.173 22.5159 272.173 23.456C272.173 24.3587 272.096 25.1425 271.942 25.8075ZM279.72 18.7529C279.72 19.6555 279.643 20.4382 279.488 21.1045C279.643 21.7321 279.72 22.5159 279.72 23.456C279.72 24.3587 279.643 25.1413 279.488 25.8075C279.643 26.4351 279.72 27.2189 279.72 28.159C279.72 29.0617 279.643 29.8443 279.488 30.5105C279.643 31.1381 279.72 31.922 279.72 32.8621C279.72 33.7647 279.643 34.5486 279.488 35.2137C279.643 35.8412 279.72 36.625 279.72 37.5653C279.72 38.4678 279.643 39.2516 279.488 39.9168C279.643 40.5442 279.72 41.3281 279.72 42.2683C279.72 43.1708 279.643 43.9534 279.488 44.6198H274.845C274.689 43.9534 274.613 43.1696 274.613 42.2683C274.613 41.327 274.689 40.5442 274.845 39.9168H273.103C272.948 39.2504 272.871 38.4665 272.871 37.5653C272.871 36.625 272.948 35.8412 273.103 35.2137H274.845C274.689 34.5473 274.613 33.7635 274.613 32.8621C274.613 31.922 274.689 31.1381 274.845 30.5105H273.103C272.948 29.8443 272.871 29.0605 272.871 28.159C272.871 27.2177 272.948 26.4351 273.103 25.8075H274.845C274.689 25.1413 274.613 24.3574 274.613 23.456C274.613 22.5147 274.689 21.7321 274.845 21.1045C274.689 20.4382 274.613 19.6544 274.613 18.7529C274.613 17.8116 274.689 17.029 274.845 16.4014C274.689 15.735 274.613 14.9513 274.613 14.0499C274.613 13.1098 274.689 12.3259 274.845 11.6984H279.488C279.643 12.3259 279.72 13.1098 279.72 14.0499C279.72 14.9525 279.643 15.735 279.488 16.4014C279.643 17.0278 279.72 17.8116 279.72 18.7529Z" fill="url(#paint8_linear_18236_8564)"/>
<path d="M5.26818 37.5398C5.26818 38.4302 5.19162 39.2031 5.03852 39.8609H2.74796C2.89988 40.4801 2.97762 41.253 2.97762 42.1822C2.97762 43.0726 2.90107 43.8456 2.74796 44.5034H0.456217C0.303115 43.8468 0.226562 43.0726 0.226562 42.1822C0.226562 41.2541 0.303115 40.4813 0.456217 39.8609C0.303115 39.2031 0.226562 38.4302 0.226562 37.5398C0.226562 36.6116 0.303115 35.8387 0.456217 35.2184C0.303115 34.5619 0.226562 33.7877 0.226562 32.8973C0.226562 31.9692 0.303115 31.1962 0.456217 30.576C0.303115 29.9194 0.226562 29.1452 0.226562 28.2548C0.226562 27.3267 0.303115 26.5537 0.456217 25.9335C0.303115 25.2757 0.226562 24.5027 0.226562 23.6122C0.226562 22.6842 0.303115 21.9113 0.456217 21.291C0.303115 20.6344 0.226562 19.8603 0.226562 18.9697C0.226562 18.0417 0.303115 17.2688 0.456217 16.6485C0.303115 15.9918 0.226562 15.2177 0.226562 14.3273C0.226562 13.3993 0.303115 12.6263 0.456217 12.006H5.03852C5.19043 12.6251 5.26818 13.3981 5.26818 14.3273C5.26818 15.2177 5.19162 15.9907 5.03852 16.6485C5.19043 17.2676 5.26818 18.0405 5.26818 18.9697C5.26818 19.8603 5.19162 20.6332 5.03852 21.291C5.19043 21.91 5.26818 22.683 5.26818 23.6122C5.26818 24.5027 5.19162 25.2757 5.03852 25.9335H7.33026C7.48217 26.5525 7.55992 27.3255 7.55992 28.2548C7.55992 29.1452 7.48337 29.9182 7.33026 30.576H5.03971C5.19162 31.1951 5.26937 31.9679 5.26937 32.8973C5.26937 33.7877 5.19282 34.5606 5.03971 35.2184C5.19162 35.8376 5.26818 36.6104 5.26818 37.5398ZM5.03971 39.8597H11.9138C12.0657 40.4788 12.1434 41.2518 12.1434 42.181C12.1434 43.0714 12.0669 43.8444 11.9138 44.5022H5.03971C4.88662 43.8456 4.81007 43.0714 4.81007 42.181C4.81007 41.253 4.88662 40.4788 5.03971 39.8597ZM18.7866 35.2184H16.4949C16.6468 35.8376 16.7245 36.6104 16.7245 37.5398C16.7245 38.4302 16.6479 39.2031 16.4949 39.8609H11.9126C11.7595 39.2031 11.6829 38.4302 11.6829 37.5398C11.6829 36.6116 11.7595 35.8387 11.9126 35.2184H14.2043C14.0512 34.5619 13.9747 33.7877 13.9747 32.8973C13.9747 31.9692 14.0512 31.1962 14.2043 30.576H11.9126C11.7595 29.9194 11.6829 29.1452 11.6829 28.2548C11.6829 27.3267 11.7595 26.5537 11.9126 25.9335H7.33026C7.17717 25.2757 7.10062 24.5027 7.10062 23.6122C7.10062 22.6842 7.17717 21.9113 7.33026 21.291H14.2043C14.3562 21.91 14.434 22.683 14.434 23.6122C14.434 24.5027 14.3574 25.2757 14.2043 25.9335H16.4961C16.6479 26.5525 16.7257 27.3255 16.7257 28.2548C16.7257 29.1452 16.6491 29.9182 16.4961 30.576H18.7879C18.9397 31.1951 19.0175 31.9679 19.0175 32.8973C19.015 33.7877 18.9385 34.5619 18.7866 35.2184Z" fill="url(#paint9_linear_18236_8564)"/>
<path d="M39.636 42.1807C39.636 43.0711 39.5594 43.8441 39.4062 44.5019H25.6594C25.5063 43.8453 25.4297 43.0711 25.4297 42.1807C25.4297 41.2528 25.5063 40.4798 25.6594 39.8594H30.2418C30.0886 39.2016 30.012 38.4287 30.012 37.5383C30.012 36.6103 30.0886 35.8373 30.2418 35.2169C30.0886 34.5604 30.012 33.7862 30.012 32.8958C30.012 31.9678 30.0886 31.1949 30.2418 30.5745C30.0886 29.9179 30.012 29.1437 30.012 28.2533C30.012 27.3253 30.0886 26.5524 30.2418 25.932C30.0886 25.2742 30.012 24.5012 30.012 23.6108C30.012 22.6827 30.0886 21.9099 30.2418 21.2895C30.0886 20.633 30.012 19.8588 30.012 18.9684C30.012 18.0402 30.0886 17.2673 30.2418 16.6471H26.8053C26.6522 15.9905 26.5756 15.2163 26.5756 14.3258C26.5756 13.3978 26.6522 12.6249 26.8053 12.0046H34.8239C34.9759 12.6237 35.0537 13.3966 35.0537 14.3258C35.0537 15.2163 34.9771 15.9893 34.8239 16.6471C34.9759 17.2662 35.0537 18.039 35.0537 18.9684C35.0537 19.8588 34.9771 20.6317 34.8239 21.2895C34.9759 21.9087 35.0537 22.6816 35.0537 23.6108C35.0537 24.5012 34.9771 25.2742 34.8239 25.932C34.9759 26.5512 35.0537 27.3241 35.0537 28.2533C35.0537 29.1437 34.9771 29.9167 34.8239 30.5745C34.9759 31.1936 35.0537 31.9666 35.0537 32.8958C35.0537 33.7862 34.9771 34.5591 34.8239 35.2169C34.9759 35.8361 35.0537 36.6091 35.0537 37.5383C35.0537 38.4287 34.9771 39.2016 34.8239 39.8594H39.4062C39.5594 40.4786 39.636 41.2528 39.636 42.1807Z" fill="url(#paint10_linear_18236_8564)"/>
<path d="M205.071 54.8304C205.071 54.4913 205.177 54.2114 205.389 53.9909C205.601 53.7717 205.875 53.6614 206.211 53.6614H207.647V54.7409H206.626C206.359 54.7409 206.226 54.891 206.226 55.1903V59.9878C206.226 60.3284 206.119 60.6082 205.908 60.8275C205.695 61.048 205.416 61.157 205.071 61.157H204.893V61.3375H205.071C205.418 61.3375 205.696 61.4477 205.908 61.667C206.119 61.8875 206.226 62.1675 206.226 62.5066V67.3041C206.226 67.6047 206.359 67.7537 206.626 67.7537H207.647V68.833H206.211C205.875 68.833 205.603 68.7228 205.389 68.5035C205.177 68.283 205.071 68.0032 205.071 67.664V62.4908C205.071 62.2013 204.938 62.056 204.672 62.056H203.918V60.4362H204.672C204.938 60.4362 205.071 60.2908 205.071 60.0012V54.8304Z" fill="#3DFFE0"/>
<path d="M220.539 65.415H223.114V60.1377H220.804V59.0583H224.268V65.415H226.667V66.4945H220.539V65.415ZM222.641 56.8388C222.641 56.5493 222.741 56.3021 222.944 56.0962C223.147 55.8913 223.391 55.7885 223.678 55.7885C223.964 55.7885 224.208 55.8913 224.411 56.0962C224.613 56.3009 224.715 56.5481 224.715 56.8388C224.715 57.1284 224.613 57.3767 224.411 57.5815C224.209 57.7862 223.964 57.8891 223.678 57.8891C223.392 57.8891 223.147 57.7862 222.944 57.5815C222.743 57.3767 222.641 57.1295 222.641 56.8388Z" fill="#3DFFE0"/>
<path d="M230.577 66.495H229.422V59.0588H230.577V60.3187H230.754C231.206 59.3398 231.998 58.8492 233.121 58.8492C233.97 58.8492 234.647 59.1169 235.151 59.6511C235.655 60.1855 235.904 60.9886 235.904 62.0572V66.495H234.751V62.297C234.751 61.5169 234.578 60.933 234.233 60.5429C233.887 60.1527 233.418 59.9576 232.826 59.9576C232.125 59.9576 231.576 60.2 231.176 60.6846C230.776 61.1691 230.577 61.8162 230.577 62.6265V66.495Z" fill="#3DFFE0"/>
<path d="M244.16 65.356H243.982C243.864 65.5861 243.712 65.7861 243.531 65.9557C243.348 66.1252 243.151 66.2659 242.939 66.3749C242.726 66.4851 242.503 66.5675 242.266 66.622C242.029 66.6765 241.801 66.7044 241.584 66.7044C241.091 66.7044 240.632 66.6196 240.209 66.45C239.783 66.2804 239.413 66.0357 239.092 65.7158C238.771 65.396 238.518 64.9986 238.336 64.5237C238.153 64.0488 238.062 63.5072 238.062 62.8967V62.6567C238.062 62.057 238.156 61.5203 238.344 61.0455C238.532 60.5706 238.783 60.1707 239.098 59.8461C239.414 59.5213 239.783 59.2743 240.209 59.1033C240.632 58.9338 241.082 58.849 241.556 58.849C242.058 58.849 242.53 58.9617 242.969 59.1858C243.408 59.4111 243.747 59.7576 243.983 60.2277H244.162V55.9996H245.315V66.4948H244.162V65.356H244.16ZM241.704 65.5959C242.049 65.5959 242.37 65.5305 242.665 65.4007C242.962 65.2712 243.221 65.0858 243.443 64.846C243.666 64.606 243.84 64.319 243.968 63.9833C244.095 63.6489 244.16 63.2759 244.16 62.8663V62.6858C244.16 62.2861 244.095 61.919 243.968 61.5834C243.84 61.2489 243.664 60.9607 243.443 60.7207C243.221 60.4809 242.959 60.2931 242.658 60.1586C242.356 60.0241 242.039 59.9563 241.704 59.9563C241.357 59.9563 241.035 60.0218 240.734 60.1514C240.433 60.2809 240.171 60.4663 239.948 60.7063C239.726 60.9461 239.555 61.2308 239.431 61.5604C239.308 61.8899 239.246 62.2557 239.246 62.6544V62.8942C239.246 63.3134 239.307 63.6889 239.431 64.0184C239.555 64.348 239.726 64.6302 239.948 64.8653C240.171 65.1004 240.43 65.2796 240.726 65.4057C241.023 65.5329 241.348 65.5959 241.704 65.5959Z" fill="#3DFFE0"/>
<path d="M247.711 65.415H250.287V60.1377H247.977V59.0583H251.44V65.415H253.839V66.4945H247.711V65.415ZM249.813 56.8388C249.813 56.5493 249.915 56.3021 250.117 56.0962C250.32 55.8913 250.564 55.7885 250.851 55.7885C251.136 55.7885 251.381 55.8913 251.584 56.0962C251.787 56.3009 251.888 56.5481 251.888 56.8388C251.888 57.1284 251.787 57.3767 251.584 57.5815C251.381 57.7862 251.138 57.8891 250.851 57.8891C250.565 57.8891 250.32 57.7862 250.117 57.5815C249.915 57.3767 249.813 57.1295 249.813 56.8388Z" fill="#3DFFE0"/>
<path d="M261.926 65.2361H261.748C261.512 65.7366 261.183 66.1061 260.764 66.346C260.345 66.5858 259.903 66.7058 259.438 66.7058C258.955 66.7058 258.506 66.6233 258.091 66.4587C257.678 66.2938 257.315 66.0491 257.003 65.7245C256.693 65.3997 256.449 65.0024 256.27 64.5323C256.092 64.0622 256.004 63.5183 256.004 62.8979V62.6581C256.004 62.0488 256.092 61.5084 256.27 61.0383C256.449 60.5683 256.693 60.1709 257.003 59.8462C257.315 59.5215 257.676 59.2744 258.091 59.1036C258.507 58.934 258.946 58.8492 259.409 58.8492C259.912 58.8492 260.367 58.9619 260.778 59.1859C261.188 59.4113 261.512 59.7578 261.748 60.2278H261.926V59.0588H263.081V64.9661C263.081 65.2665 263.213 65.4155 263.481 65.4155H263.85V66.495H263.064C262.728 66.495 262.455 66.3847 262.244 66.1655C262.031 65.9462 261.925 65.6662 261.925 65.3258V65.2361H261.926ZM259.558 65.596C259.904 65.596 260.222 65.5305 260.513 65.401C260.803 65.2714 261.053 65.086 261.26 64.846C261.468 64.6062 261.63 64.319 261.748 63.9835C261.867 63.6491 261.926 63.2759 261.926 62.8665V62.686C261.926 62.2861 261.867 61.9191 261.748 61.5836C261.63 61.2492 261.465 60.9607 261.251 60.7209C261.039 60.4811 260.788 60.2933 260.498 60.1588C260.207 60.0243 259.894 59.9564 259.558 59.9564C259.211 59.9564 258.896 60.0219 258.61 60.1516C258.324 60.2812 258.074 60.4641 257.862 60.6991C257.649 60.9342 257.484 61.2188 257.366 61.5532C257.248 61.8889 257.187 62.2559 257.187 62.6557V62.8956C257.187 63.7448 257.407 64.4075 257.846 64.8824C258.286 65.3586 258.857 65.596 259.558 65.596Z" fill="#3DFFE0"/>
<path d="M278.371 60.0034C278.371 60.2929 278.505 60.4383 278.771 60.4383H279.526V62.0581H278.771C278.505 62.0581 278.371 62.2035 278.371 62.4931V67.6663C278.371 68.0055 278.265 68.2853 278.054 68.5058C277.84 68.725 277.566 68.8353 277.232 68.8353H275.797V67.7558H276.819C277.085 67.7558 277.218 67.6056 277.218 67.3064V62.5089C277.218 62.1696 277.324 61.8898 277.536 61.6693C277.748 61.45 278.026 61.3397 278.371 61.3397H278.55V61.1593H278.371C278.026 61.1593 277.748 61.049 277.536 60.8298C277.324 60.6103 277.218 60.3293 277.218 59.9901V55.1926C277.218 54.8933 277.085 54.743 276.819 54.743H275.797V53.6636H277.232C277.566 53.6636 277.84 53.7738 278.054 53.9932C278.265 54.2137 278.371 54.4936 278.371 54.8327V60.0034Z" fill="#3DFFE0"/>
<path d="M215.921 59.038C215.921 59.3275 215.82 59.5759 215.618 59.7806C215.416 59.9855 215.172 60.0883 214.884 60.0883C214.598 60.0883 214.353 59.9855 214.152 59.7806C213.949 59.5759 213.848 59.3287 213.848 59.038V57.5685C213.848 57.2293 213.954 56.9493 214.165 56.7288C214.377 56.5095 214.651 56.3993 214.987 56.3993H215.743V57.2086H215.046C214.78 57.2086 214.647 57.3589 214.647 57.6582V58.0324C214.716 58.0021 214.8 57.9877 214.898 57.9877C215.173 57.9877 215.414 58.0906 215.615 58.2954C215.82 58.5001 215.921 58.7485 215.921 59.038Z" fill="#3DFFE0"/>
<path d="M268.023 57.4948C268.023 57.2051 268.125 56.9567 268.328 56.752C268.529 56.5473 268.773 56.4443 269.06 56.4443C269.346 56.4443 269.591 56.5473 269.794 56.752C269.996 56.9567 270.097 57.2039 270.097 57.4948V58.9643C270.097 59.3035 269.991 59.5833 269.779 59.8038C269.567 60.0231 269.293 60.1333 268.957 60.1333H268.204V59.324H268.898C269.166 59.324 269.298 59.1738 269.298 58.8746V58.5002C269.23 58.5305 269.145 58.5451 269.047 58.5451C268.771 58.5451 268.532 58.4421 268.329 58.2374C268.125 58.0314 268.023 57.7843 268.023 57.4948Z" fill="#3DFFE0"/>
<path d="M70.0557 3.53281C69.7219 2.94401 68.9635 2.79016 68.4361 3.20086L63.7366 6.86929C63.6014 6.97469 63.4914 7.11039 63.4148 7.26545C62.2653 9.60972 61.269 11.9164 60.5908 13.7276C59.6506 16.2378 59.067 18.7445 58.8098 21.1094L54.3422 21.0706C54.1282 18.7008 53.5852 16.1846 52.6845 13.6586C50.8628 8.53875 46.5723 3.11363 43.3356 0.272652C43.1192 0.0824457 42.7926 0.204808 42.7411 0.491934C41.9853 4.83881 43.7603 11.2259 45.582 16.3421C46.271 18.2756 47.1141 20.0589 48.0614 21.6654C48.5794 22.5413 48.8916 23.5274 49.0053 24.5451L49.0089 24.5718L49.0136 24.6481C49.3115 27.3341 48.0795 29.9642 45.7686 31.5682L47.1022 38.0631L53.0804 44.4199L59.9975 44.4283L65.7723 38.0921L67.2124 31.7584C64.9303 30.1145 63.7413 27.4624 64.0833 24.7826L64.0906 24.7063V24.6796C64.2233 23.6644 64.5522 22.683 65.0845 21.8168C66.0582 20.2274 66.9313 18.4598 67.649 16.5371C68.1035 15.3268 68.5581 13.8318 68.9791 12.2047C68.7398 12.0606 68.4983 11.897 68.2531 11.7226C67.2579 14.7538 65.5056 19.716 64.392 20.792C64.3753 20.8088 64.3597 20.8246 64.3441 20.8404C62.8849 22.2239 60.5585 20.8234 60.9747 18.8268C61.4017 16.7878 62.0919 14.7235 62.7952 12.9268C63.4985 11.1277 64.2126 9.60245 64.6851 8.64173L64.8608 8.28797C66.2436 9.56125 67.6873 10.7752 69.0784 11.8074C69.5844 12.1842 70.0855 12.5367 70.5688 12.8578C72.0567 13.8476 73.4143 14.5527 74.4729 14.7925C74.4082 12.1212 72.3987 7.66768 70.0557 3.53281ZM51.3461 21.1966C50.3712 21.5625 49.4406 20.9905 48.8868 20.0868C45.2698 14.1904 44.9875 7.83486 45.399 5.88797C48.0472 8.10018 52.0853 14.6375 52.5315 18.6924C52.6498 19.7669 52.3317 20.8271 51.3461 21.1966ZM56.1509 39.088C56.1509 39.2383 55.9774 39.3159 55.8709 39.2153L53.8842 37.3374C53.8567 37.312 53.8387 37.2781 53.8316 37.2405L53.3578 34.4371C53.3363 34.3098 53.4536 34.2033 53.5732 34.2421L56.0384 35.0464C56.1077 35.0695 56.1556 35.1362 56.1544 35.2113L56.1509 39.088ZM56.5312 34.58L53.9272 33.7356C53.7286 33.6714 53.7538 33.3734 53.9607 33.3467L56.5671 33.0074C56.5837 33.0051 56.5993 33.0051 56.6161 33.0086L59.177 33.3527C59.3815 33.3806 59.4078 33.6775 59.2104 33.7428L56.6472 34.58C56.6101 34.5921 56.5695 34.5921 56.5312 34.58ZM59.3014 37.2477C59.2953 37.2853 59.2763 37.3193 59.2499 37.3446L57.28 39.2141C57.1723 39.3159 56.9989 39.2383 57.0001 39.0868L57.0048 35.2124C57.0048 35.1374 57.0526 35.0707 57.1209 35.0489L59.5585 34.2517C59.6781 34.2129 59.7954 34.3172 59.7738 34.4455L59.3014 37.2477Z" fill="url(#paint11_linear_18236_8564)"/>
</g>
</g>
<defs>
<linearGradient id="paint0_linear_18236_8564" x1="84.4518" y1="44.6227" x2="84.4518" y2="21.1046" gradientUnits="userSpaceOnUse">
<stop offset="0.5453" stop-color="#16D52E"/>
<stop offset="0.5497" stop-color="#55FF6B"/>
</linearGradient>
<linearGradient id="paint1_linear_18236_8564" x1="107.667" y1="44.6224" x2="107.667" y2="11.6971" gradientUnits="userSpaceOnUse">
<stop offset="0.3844" stop-color="#16D52E"/>
<stop offset="0.3939" stop-color="#55FF6B"/>
</linearGradient>
<linearGradient id="paint2_linear_18236_8564" x1="130.89" y1="44.6227" x2="130.89" y2="21.1046" gradientUnits="userSpaceOnUse">
<stop offset="0.5453" stop-color="#16D52E"/>
<stop offset="0.5497" stop-color="#55FF6B"/>
</linearGradient>
<linearGradient id="paint3_linear_18236_8564" x1="154.105" y1="44.6226" x2="154.105" y2="11.6973" gradientUnits="userSpaceOnUse">
<stop offset="0.3894" stop-color="#16D52E"/>
<stop offset="0.3939" stop-color="#55FF6B"/>
</linearGradient>
<linearGradient id="paint4_linear_18236_8564" x1="177.323" y1="44.6223" x2="177.323" y2="21.104" gradientUnits="userSpaceOnUse">
<stop offset="0.5453" stop-color="#16D52E"/>
<stop offset="0.5497" stop-color="#55FF6B"/>
</linearGradient>
<linearGradient id="paint5_linear_18236_8564" x1="200.544" y1="44.6226" x2="200.544" y2="11.6973" gradientUnits="userSpaceOnUse">
<stop offset="0.3933" stop-color="#16D52E"/>
<stop offset="0.3978" stop-color="#55FF6B"/>
</linearGradient>
<linearGradient id="paint6_linear_18236_8564" x1="223.766" y1="44.6224" x2="223.766" y2="21.1043" gradientUnits="userSpaceOnUse">
<stop offset="0.5453" stop-color="#16D52E"/>
<stop offset="0.5497" stop-color="#55FF6B"/>
</linearGradient>
<linearGradient id="paint7_linear_18236_8564" x1="246.981" y1="44.6227" x2="246.981" y2="21.1046" gradientUnits="userSpaceOnUse">
<stop offset="0.5453" stop-color="#16D52E"/>
<stop offset="0.5497" stop-color="#55FF6B"/>
</linearGradient>
<linearGradient id="paint8_linear_18236_8564" x1="270.2" y1="44.6226" x2="270.2" y2="11.6973" gradientUnits="userSpaceOnUse">
<stop offset="0.3888" stop-color="#16D52E"/>
<stop offset="0.3894" stop-color="#55FF6B"/>
</linearGradient>
<linearGradient id="paint9_linear_18236_8564" x1="9.62156" y1="44.5014" x2="9.62156" y2="12.0117" gradientUnits="userSpaceOnUse">
<stop offset="0.3933" stop-color="#16D52E"/>
<stop offset="0.3978" stop-color="#55FF6B"/>
</linearGradient>
<linearGradient id="paint10_linear_18236_8564" x1="32.5332" y1="44.5011" x2="32.5332" y2="12.0114" gradientUnits="userSpaceOnUse">
<stop offset="0.3933" stop-color="#16D52E"/>
<stop offset="0.3978" stop-color="#55FF6B"/>
</linearGradient>
<linearGradient id="paint11_linear_18236_8564" x1="52.23" y1="44.2668" x2="59.9019" y2="1.31009" gradientUnits="userSpaceOnUse">
<stop offset="0.00893773" stop-color="#A780F4"/>
<stop offset="0.8268" stop-color="#EE7EC2"/>
</linearGradient>
<clipPath id="clip0_18236_8564">
<rect width="280" height="69" fill="white"/>
</clipPath>
</defs>
</svg>
