<svg width="102" height="102" viewBox="0 0 102 102" fill="none" xmlns="http://www.w3.org/2000/svg" alt="Logo for Gro">
<title>Gro</title>
<rect width="102" height="102" rx="32" fill="#9246CA"/>
<g clip-path="url(#clip0_4859_5282)">
<path d="M74.4908 46.1099C74.2768 49.2228 74.6716 52.3538 74.096 55.4576C72.0618 66.448 62.8824 74.7399 51.7743 74.994C42.2785 75.2088 35.0037 70.8435 30.5164 62.4609C25.8996 53.8392 26.7645 45.278 31.8605 37.0557C34.856 33.1532 38.4603 30.0404 43.1555 28.3735C45.3825 27.5809 47.6608 27.0303 50.0506 27.0303C57.7322 27.0334 65.4108 27.0455 73.0925 27.0001C74.1503 26.994 74.527 27.3026 74.4275 28.3644C74.2135 30.6484 74.9217 32.4423 74.0418 34.9804C74.0146 35.0893 73.7675 35.5189 73.7675 35.5189C72.315 37.5094 70.3411 38.2264 67.9151 38.1962C62.343 38.1266 56.7678 38.1417 51.1927 38.181C44.5959 38.2264 39.518 42.7732 38.6471 49.3378C37.8365 55.4334 41.4829 61.275 47.3504 63.2746C52.6211 65.0716 58.7659 62.6454 61.7614 57.5752C61.9844 57.2001 62.4364 56.8008 62.2285 56.3712C62.0025 55.9023 61.4208 56.1534 61.005 56.1504C57.7925 56.1292 54.577 56.1322 51.3645 56.1383C49.2489 56.1383 47.7512 55.1188 46.7055 53.34C45.5422 51.3586 46.0093 49.371 46.7055 47.3866C48.6613 45.1994 51.1806 44.9059 53.9441 44.9543C60.3118 45.0632 66.6826 44.9937 73.0533 44.9785C73.879 44.9785 74.5902 44.9967 74.4968 46.113L74.4908 46.1099Z" fill="#FDFDFE"/>
</g>
<defs>
<clipPath id="clip0_4859_5282">
<rect width="47" height="48" fill="white" transform="translate(27.5 27)"/>
</clipPath>
</defs>
</svg>
