<svg width="102" height="102" viewBox="0 0 102 102" fill="none" xmlns="http://www.w3.org/2000/svg">
<rect width="102" height="102" rx="32" fill="url(#paint0_linear_8769_19167)"/>
<g clip-path="url(#clip0_8769_19167)">
<path d="M31.5763 80.9652C31.7993 80.7215 31.924 80.5726 32.0607 80.4358C36.7644 75.724 41.4656 71.0098 46.186 66.3148C46.4091 66.0927 46.8011 65.9307 47.1153 65.9283C49.9725 65.8983 52.8297 65.9223 55.6869 65.8947C56.0022 65.8911 56.3931 65.7362 56.6161 65.5165C59.5728 62.5922 62.5115 59.6499 65.4335 56.6908C65.6553 56.4663 65.8255 56.0797 65.8267 55.7664C65.8495 49.4652 65.8351 43.1628 65.8579 36.8616C65.8603 36.2782 65.6577 36.169 65.1361 36.1702C58.8618 36.1846 52.5875 36.1834 46.3131 36.1702C45.8791 36.1702 45.5686 36.2986 45.2616 36.6071C42.3756 39.517 39.4789 42.4173 36.5725 45.3068C36.2632 45.6142 36.1349 45.9251 36.1373 46.3596C36.1529 49.1603 36.1373 51.961 36.1529 54.7616C36.1553 55.2382 36.0114 55.5839 35.6721 55.9225C30.9996 60.5814 26.3403 65.2524 21.6774 69.9198C21.5156 70.0819 21.3417 70.2307 21.0576 70.4912C21.0348 70.1239 21.0108 69.9162 21.0108 69.7085C21.0084 59.8468 21.0108 49.9838 21 40.1221C21 39.6647 21.1379 39.3406 21.4616 39.0188C27.3187 33.1702 33.1674 27.3132 39.0101 21.4502C39.3146 21.1453 39.6156 21.0048 40.0556 21.0048C53.4435 21.0156 66.8303 21.018 80.2183 21C80.8297 21 81 21.1681 81 21.7707C80.9856 35.1534 80.988 48.5373 80.9976 61.92C80.9976 62.3785 80.8513 62.7027 80.53 63.0244C74.6729 68.873 68.829 74.7348 62.9647 80.5762C62.7405 80.7995 62.3557 80.9808 62.0451 80.982C52.0935 81.0036 42.143 81 32.1914 80.9988C32.0343 80.9988 31.8773 80.982 31.5775 80.9652H31.5763Z" fill="white"/>
</g>
<defs>
<linearGradient id="paint0_linear_8769_19167" x1="11" y1="14" x2="47" y2="108" gradientUnits="userSpaceOnUse">
<stop stop-color="#E300D0"/>
<stop offset="1" stop-color="#C800E5"/>
</linearGradient>
<clipPath id="clip0_8769_19167">
<rect width="60" height="60" fill="white" transform="translate(21 21)"/>
</clipPath>
</defs>
</svg>
