<svg width="81" height="82" viewBox="0 0 81 82" fill="none" xmlns="http://www.w3.org/2000/svg">
<g clip-path="url(#clip0_4249_1996)">
<path d="M40.6473 1.43018C18.5623 1.43018 0.652344 19.6349 0.652344 42.0922C0.652344 60.0539 12.1123 75.2921 28.0123 80.6735C30.0123 81.0481 30.7423 79.7926 30.7423 78.7143C30.7423 77.7474 30.7073 75.1908 30.6873 71.7989C19.5623 74.2542 17.2123 66.3466 17.2123 66.3466C15.3973 61.6486 12.7723 60.3982 12.7723 60.3982C9.13734 57.877 13.0423 57.9277 13.0423 57.9277C17.0573 58.2162 19.1673 62.1194 19.1673 62.1194C22.7373 68.3311 28.5323 66.539 30.8123 65.4961C31.1723 62.8687 32.2073 61.0765 33.3523 60.059C24.4723 59.0313 15.1323 55.5432 15.1323 39.9659C15.1323 35.5261 16.6923 31.8963 19.2523 29.0512C18.8373 28.0235 17.4673 23.8874 19.6423 18.2934C19.6423 18.2934 23.0023 17.1999 30.6423 22.4598C33.8323 21.5587 37.2523 21.1081 40.6573 21.0929C44.0523 21.1132 47.4773 21.5587 50.6723 22.4649C58.3073 17.2049 61.6623 18.2984 61.6623 18.2984C63.8423 23.8976 62.4723 28.0286 62.0623 29.0562C64.6273 31.9014 66.1723 35.5312 66.1723 39.971C66.1723 55.5888 56.8223 59.0262 47.9123 60.0337C49.3473 61.2892 50.6273 63.7698 50.6273 67.5616C50.6273 72.9987 50.5773 77.3829 50.5773 78.7143C50.5773 79.8027 51.2973 81.0684 53.3273 80.6684C69.2023 75.2819 80.6523 60.0489 80.6523 42.0922C80.6523 19.6349 62.7423 1.43018 40.6473 1.43018Z" fill="white"/>
</g>
<defs>
<clipPath id="clip0_4249_1996">
<rect width="80" height="81" fill="white" transform="translate(0.652344 0.586914)"/>
</clipPath>
</defs>
</svg>
