<svg width="40" height="28" viewBox="0 0 40 28" fill="none" xmlns="http://www.w3.org/2000/svg">
<path d="M33.3311 2.32678C30.8212 1.22416 28.1716 0.441912 25.4498 0C25.078 0.639181 24.741 1.29649 24.4403 1.96926C21.541 1.55142 18.5929 1.55142 15.6936 1.96926C15.3929 1.29649 15.0559 0.639181 14.6841 0C11.9609 0.446978 9.30969 1.23104 6.79676 2.33255C1.80898 9.41379 0.456873 16.3192 1.13293 23.1265C4.05358 25.1979 7.32307 26.7729 10.799 27.7829C11.5814 26.7727 12.2739 25.7012 12.8692 24.5797C11.7389 24.1747 10.648 23.675 9.60914 23.0861C9.88257 22.8958 10.15 22.6998 10.4084 22.5095C13.4314 23.8737 16.7308 24.581 20.0715 24.581C23.4121 24.581 26.7115 23.8737 29.7345 22.5095C29.9959 22.7142 30.2633 22.9103 30.5338 23.0861C29.4932 23.6765 28.4003 24.1772 27.2677 24.5825C27.8619 25.7038 28.5545 26.7744 29.3379 27.7829C32.8168 26.777 36.0888 25.2027 39.01 23.1294C39.8032 15.2351 37.6549 8.39313 33.3311 2.32678ZM13.7256 18.94C11.8416 18.94 10.2852 17.2995 10.2852 15.2812C10.2852 13.2629 11.7875 11.6079 13.7195 11.6079C15.6516 11.6079 17.196 13.2629 17.1629 15.2812C17.1299 17.2995 15.6456 18.94 13.7256 18.94ZM26.4173 18.94C24.5304 18.94 22.98 17.2995 22.98 15.2812C22.98 13.2629 24.4823 11.6079 26.4173 11.6079C28.3524 11.6079 29.8848 13.2629 29.8517 15.2812C29.8186 17.2995 28.3373 18.94 26.4173 18.94Z" fill="white"/>
</svg>
